<svg id="Layer_1" data-name="Layer 1" xmlns="http://www.w3.org/2000/svg" xmlns:xlink="http://www.w3.org/1999/xlink" viewBox="0 0 720.75 174.13"><defs><style>.cls-1,.cls-6{fill:none;}.cls-2{clip-path:url(#clip-path);}.cls-3{font-size:24px;}.cls-3,.cls-8{fill:#45338e;}.cls-3,.cls-4,.cls-7,.cls-8{font-family:AvenirNext-Regular, Avenir Next;}.cls-4,.cls-7{font-size:18px;}.cls-4,.cls-5{fill:#8266a8;}.cls-6{stroke:#45338e;stroke-linecap:round;stroke-linejoin:round;stroke-width:1.5px;}.cls-7{fill:#fff;}.cls-8{font-size:22px;}</style><clipPath id="clip-path" transform="translate(-132.98 -231.19)"><rect class="cls-1" x="127.11" y="226.94" width="727" height="180"/></clipPath></defs><g class="cls-2"><text class="cls-3" transform="translate(171.58 20.5)">SPU - 1</text><text class="cls-4" transform="translate(386.57 81)">topic-a/0</text><text class="cls-3" transform="translate(380.76 20.5)">SPU - 2</text><text class="cls-3" transform="translate(601.56 20.5)">SPU - 3</text><text class="cls-4" transform="translate(601.56 78.37)">topic-a/0</text><rect class="cls-5" x="147.63" y="60.62" width="120.77" height="29.75"/><rect class="cls-6" x="147.63" y="60.62" width="120.77" height="29.75"/><text class="cls-7" transform="translate(170.97 81)">topic-a/0</text><text class="cls-8" transform="translate(0 140.16)">topic-a/1</text><text class="cls-4" transform="translate(604.46 135.5)">topic-a/1</text><rect class="cls-5" x="364.38" y="118.28" width="120.77" height="29.75"/><rect class="cls-6" x="364.38" y="118.28" width="120.77" height="29.75"/><text class="cls-7" transform="translate(387.71 138.66)">topic-a/1</text><text class="cls-4" transform="translate(170.97 138.66)">topic-a/1</text><line class="cls-6" x1="127.46" y1="33.34" x2="290.23" y2="33.34"/><line class="cls-6" x1="345.14" y1="33.34" x2="507.92" y2="33.34"/><line class="cls-6" x1="549.97" y1="33.34" x2="712.75" y2="33.34"/><text class="cls-8" transform="translate(0 78.56)">topic-a/0</text><line class="cls-6" x1="127.46" y1="173.38" x2="290.23" y2="173.38"/><line class="cls-6" x1="345.14" y1="173.38" x2="507.92" y2="173.38"/><line class="cls-6" x1="557.22" y1="173.38" x2="720" y2="173.38"/></g></svg>