<svg id="Layer_1" data-name="Layer 1" xmlns="http://www.w3.org/2000/svg" xmlns:xlink="http://www.w3.org/1999/xlink" viewBox="0 0 642.7 332.08"><defs><style>.cls-1,.cls-4,.cls-6,.cls-7,.cls-8{fill:none;}.cls-2{clip-path:url(#clip-path);}.cls-3{fill:#fff;}.cls-4{stroke:#2a1b3c;stroke-width:1.5px;}.cls-4,.cls-8{stroke-linecap:round;stroke-linejoin:round;}.cls-5{font-size:20px;fill:#45338e;font-family:AvenirNext-Regular, Avenir Next;}.cls-6{stroke:#45338e;stroke-width:1.25px;}.cls-6,.cls-7{stroke-miterlimit:10;}.cls-7,.cls-8{stroke:#39945f;stroke-width:2px;}.cls-9{fill:#39945f;}</style><clipPath id="clip-path" transform="translate(-9.06 -15.51)"><rect class="cls-1" x="9" y="14.73" width="643" height="270"/></clipPath></defs><g class="cls-2"><rect class="cls-3" x="20.96" y="85.6" width="85.7" height="47.53"/><rect class="cls-4" x="20.96" y="85.6" width="85.7" height="47.53"/><rect class="cls-3" x="11.01" y="98.44" width="85.7" height="47.53"/><rect class="cls-4" x="11.01" y="98.44" width="85.7" height="47.53"/><rect class="cls-3" x="0.75" y="110.5" width="85.7" height="47.53"/><rect class="cls-4" x="0.75" y="110.5" width="85.7" height="47.53"/><text class="cls-5" transform="translate(25.06 140.77)">SPU</text><rect class="cls-3" x="183.48" y="195.59" width="85.7" height="47.53"/><rect class="cls-4" x="183.48" y="195.59" width="85.7" height="47.53"/><rect class="cls-3" x="173.53" y="208.42" width="85.7" height="47.53"/><rect class="cls-4" x="173.53" y="208.42" width="85.7" height="47.53"/><rect class="cls-3" x="163.27" y="220.49" width="85.7" height="47.53"/><rect class="cls-4" x="163.27" y="220.49" width="85.7" height="47.53"/><text class="cls-5" transform="translate(187.58 250.75)">SPU</text><rect class="cls-3" x="363.81" y="195.59" width="85.7" height="47.53"/><rect class="cls-4" x="363.81" y="195.59" width="85.7" height="47.53"/><rect class="cls-3" x="374.38" y="208.42" width="85.7" height="47.53"/><rect class="cls-4" x="374.38" y="208.42" width="85.7" height="47.53"/><rect class="cls-3" x="386.11" y="220.49" width="85.7" height="47.53"/><rect class="cls-4" x="386.11" y="220.49" width="85.7" height="47.53"/><text class="cls-5" transform="translate(410.42 250.75)">SPU</text><rect class="cls-3" x="533.95" y="85.6" width="85.7" height="47.53"/><rect class="cls-4" x="533.95" y="85.6" width="85.7" height="47.53"/><rect class="cls-3" x="544.52" y="98.44" width="85.7" height="47.53"/><rect class="cls-4" x="544.52" y="98.44" width="85.7" height="47.53"/><rect class="cls-3" x="556.25" y="110.5" width="85.7" height="47.53"/><rect class="cls-4" x="556.25" y="110.5" width="85.7" height="47.53"/><text class="cls-5" transform="translate(580.56 140.77)">SPU</text><rect class="cls-3" x="275.25" y="0.75" width="103.87" height="64.08"/><rect class="cls-4" x="275.25" y="0.75" width="103.87" height="64.08"/><rect class="cls-3" x="264.37" y="15.97" width="103.87" height="64.08"/><rect class="cls-4" x="264.37" y="15.97" width="103.87" height="64.08"/><text class="cls-5" transform="translate(303.46 54.51)">SC</text><line class="cls-6" x1="388.88" y1="170.29" x2="350.01" y2="102.96"/><path class="cls-6" d="M356.34,120l-1.47-8.85,6.93,5.7m-6.93-5.7,4.2,7.28" transform="translate(-9.06 -15.51)"/><path class="cls-6" d="M400.68,184.23l1.47,8.85-6.93-5.7m6.93,5.7L398,185.8" transform="translate(-9.06 -15.51)"/><line class="cls-6" x1="156.57" y1="98.03" x2="223.9" y2="59.15"/><path class="cls-6" d="M231.39,71.94l8.85-1.48-5.7,6.93m5.7-6.93L233,74.66" transform="translate(-9.06 -15.51)"/><path class="cls-6" d="M167.21,116.27l-8.85,1.47,5.7-6.93m-5.7,6.93,7.27-4.2" transform="translate(-9.06 -15.51)"/><line class="cls-6" x1="490.92" y1="98.03" x2="423.59" y2="59.15"/><path class="cls-6" d="M431.08,77.39l-5.7-6.93,8.85,1.48m-8.85-1.48,7.27,4.2" transform="translate(-9.06 -15.51)"/><path class="cls-6" d="M501.56,110.81l5.7,6.93-8.85-1.47m8.85,1.47-7.27-4.2" transform="translate(-9.06 -15.51)"/><line class="cls-6" x1="243.07" y1="170.29" x2="281.95" y2="102.96"/><path class="cls-6" d="M288.28,116.89l6.93-5.7L293.74,120m1.47-8.85-4.2,7.28" transform="translate(-9.06 -15.51)"/><path class="cls-6" d="M254.87,187.38l-6.93,5.7,1.47-8.85m-1.47,8.85,4.2-7.28" transform="translate(-9.06 -15.51)"/></g><path class="cls-7" d="M52,207.54a17.36,17.36,0,0,0-3.82-.43c-10,0-18.1,6.13-18.39,13.74-6.35,1.29-10.87,5.76-10.87,10.87,0,6.2,6.56,11.24,14.61,11.24h.25" transform="translate(-9.06 -15.51)"/><line class="cls-7" x1="24.48" y1="227.45" x2="41.76" y2="227.45"/><rect class="cls-7" x="46.76" y="175.5" width="20.56" height="48.72"/><line class="cls-7" x1="44.15" y1="227.45" x2="69.88" y2="227.45"/><line class="cls-7" x1="53.59" y1="175.18" x2="53.59" y2="223.91"/><line class="cls-7" x1="47.51" y1="194.58" x2="68.07" y2="194.75"/><line class="cls-7" x1="46.34" y1="204.17" x2="66.91" y2="204.33"/><line class="cls-7" x1="47.35" y1="213.75" x2="67.91" y2="213.92"/><line class="cls-7" x1="46.34" y1="185" x2="66.91" y2="185.17"/><line class="cls-7" x1="48.92" y1="172.31" x2="64.91" y2="172.31"/><line class="cls-7" x1="60.12" y1="175.72" x2="60.12" y2="224.45"/><path class="cls-7" d="M50.82,211.5c-8.84-1.45-16.27,3.06-16.51,11.06" transform="translate(-9.06 -15.51)"/><path class="cls-8" d="M429.24,331.87l20.9,14.72L442.71,321l-3.19-11h-4.63l-9.75,36.55,20.54-15.33" transform="translate(-9.06 -15.51)"/><line class="cls-8" x1="433.65" y1="305.54" x2="422.88" y2="305.54"/><circle class="cls-8" cx="428.39" cy="284.92" r="2.21"/><path class="cls-8" d="M432.41,305.7" transform="translate(-9.06 -15.51)"/><path class="cls-8" d="M442.25,305.7" transform="translate(-9.06 -15.51)"/><path class="cls-8" d="M443.3,295.16" transform="translate(-9.06 -15.51)"/><path class="cls-8" d="M433.56,294.33a7.06,7.06,0,0,0-.11,11.76" transform="translate(-9.06 -15.51)"/><path class="cls-8" d="M441.46,294.33a7,7,0,0,1,.11,11.76" transform="translate(-9.06 -15.51)"/><path class="cls-8" d="M430.85,290.6a11.78,11.78,0,0,0-.19,19.67" transform="translate(-9.06 -15.51)"/><path class="cls-8" d="M444.06,290.6a11.78,11.78,0,0,1,.19,19.67" transform="translate(-9.06 -15.51)"/><path class="cls-9" d="M577.78,211.7v9.16a.91.91,0,0,0,1.32.83l3.67-1.83a.94.94,0,0,0,.51-.83v-6.42h3.66V219a.94.94,0,0,0,.51.83l3.67,1.83a.91.91,0,0,0,.89,0,.93.93,0,0,0,.43-.79V211.7a4.59,4.59,0,0,0-2.75-4.2V205l11.45-9a8,8,0,0,0,1.39.12l.46,0,9.73,9.73a8.14,8.14,0,0,0,2.64,7.43v14H597a.92.92,0,0,0-.92.92v5.5a.92.92,0,0,0,.92.91h34.83a.92.92,0,0,0,.92-.91v-5.5a.92.92,0,0,0-.92-.92h-5.5v-14a8.23,8.23,0,0,0-5-14.36l-10.6-10.59c0-.15,0-.29,0-.44a8.25,8.25,0,0,0-16.5,0,6.55,6.55,0,0,0,.05.89l-9.79,11.09a4.56,4.56,0,0,0-4,4.52v3.14A4.59,4.59,0,0,0,577.78,211.7Zm7.33-10.09a2.75,2.75,0,0,1,2.75,2.75v2.75h-5.5v-2.75A2.75,2.75,0,0,1,585.11,201.61Zm45.83,27.5v3.67h-33v-3.67Zm-13.75-1.83V214.49a8.18,8.18,0,0,0,7.34,0v12.79Zm-2.75-20.17a6.42,6.42,0,1,1,6.42,6.42A6.42,6.42,0,0,1,614.44,207.11Zm-9.27-11.43a8.3,8.3,0,0,0,5.17-5.2L619,199.1a8.29,8.29,0,0,0-5.66,4.71Zm-9.06-7.82a6.42,6.42,0,1,1,6.42,6.42A6.41,6.41,0,0,1,596.11,187.86Zm-6.68,15a4.6,4.6,0,0,0-2.68-2.78l8.12-9.19a8.25,8.25,0,0,0,4.15,4.41Zm-9.82,8.82a2.75,2.75,0,0,1,2.75-2.75h5.5a2.75,2.75,0,0,1,2.75,2.75v7.68l-1.83-.92V211.7a.92.92,0,0,0-.92-.92h-5.5a.92.92,0,0,0-.92.92v6.76l-1.83.92Z" transform="translate(-9.06 -15.51)"/><g id="surface1"><path class="cls-9" d="M233.24,313.85l-1.12,1.23,5.11,4.68a5.87,5.87,0,0,1,1.89,4.3v20.4h1.66v-20.4a7.52,7.52,0,0,0-2.43-5.53Z" transform="translate(-9.06 -15.51)"/><path class="cls-9" d="M226.62,294.46H205a4.19,4.19,0,0,0-4.17,4.17V340.3a4.17,4.17,0,0,0,4.17,4.16h20.83V343a18.94,18.94,0,0,1,3.2-10.54.85.85,0,0,0-.11-1.06L223,325.54a2.7,2.7,0,0,1,.2-4,2.81,2.81,0,0,1,3.73.29l8.22,8.22,1.18-1.17-5.59-5.6V298.63A4.17,4.17,0,0,0,226.62,294.46Zm2.5,27.16-1-1a4.48,4.48,0,0,0-6-.4,4.38,4.38,0,0,0-.32,6.47l5.36,5.36a20.63,20.63,0,0,0-3.1,10.72H205a2.5,2.5,0,0,1-2.5-2.5v-2.5h20.83v-1.67H202.45v-35h26.67Zm0-22.16H202.45v-.83a2.5,2.5,0,0,1,2.5-2.5h21.67a2.5,2.5,0,0,1,2.5,2.5Z" transform="translate(-9.06 -15.51)"/><path class="cls-9" d="M205.78,309.46h3.34a1.66,1.66,0,0,0,1.66-1.66v-3.34a1.66,1.66,0,0,0-1.66-1.66h-3.34a1.66,1.66,0,0,0-1.66,1.66v3.34A1.66,1.66,0,0,0,205.78,309.46Zm0-5h3.34v3.34h-3.34Z" transform="translate(-9.06 -15.51)"/><path class="cls-9" d="M214.12,309.46h3.33a1.66,1.66,0,0,0,1.67-1.66v-3.34a1.66,1.66,0,0,0-1.67-1.66h-3.33a1.66,1.66,0,0,0-1.67,1.66v3.34A1.66,1.66,0,0,0,214.12,309.46Zm0-5h3.33v3.34h-3.33Z" transform="translate(-9.06 -15.51)"/><path class="cls-9" d="M222.45,309.46h3.33a1.66,1.66,0,0,0,1.67-1.66v-3.34a1.66,1.66,0,0,0-1.67-1.66h-3.33a1.66,1.66,0,0,0-1.67,1.66v3.34A1.66,1.66,0,0,0,222.45,309.46Zm0-5h3.33v3.34h-3.33Z" transform="translate(-9.06 -15.51)"/><path class="cls-9" d="M205.78,317.8h3.34a1.66,1.66,0,0,0,1.66-1.67V312.8a1.66,1.66,0,0,0-1.66-1.67h-3.34a1.66,1.66,0,0,0-1.66,1.67v3.33A1.66,1.66,0,0,0,205.78,317.8Zm0-5h3.34v3.33h-3.34Z" transform="translate(-9.06 -15.51)"/><path class="cls-9" d="M205.78,326.13h3.34a1.66,1.66,0,0,0,1.66-1.67v-3.33a1.66,1.66,0,0,0-1.66-1.67h-3.34a1.66,1.66,0,0,0-1.66,1.67v3.33A1.66,1.66,0,0,0,205.78,326.13Zm0-5h3.34v3.33h-3.34Z" transform="translate(-9.06 -15.51)"/><path class="cls-9" d="M214.12,317.8h3.33a1.67,1.67,0,0,0,1.67-1.67V312.8a1.67,1.67,0,0,0-1.67-1.67h-3.33a1.67,1.67,0,0,0-1.67,1.67v3.33A1.67,1.67,0,0,0,214.12,317.8Zm0-5h3.33v3.33h-3.33Z" transform="translate(-9.06 -15.51)"/><path class="cls-9" d="M222.45,317.8h3.33a1.67,1.67,0,0,0,1.67-1.67V312.8a1.67,1.67,0,0,0-1.67-1.67h-3.33a1.67,1.67,0,0,0-1.67,1.67v3.33A1.67,1.67,0,0,0,222.45,317.8Zm0-5h3.33v3.33h-3.33Z" transform="translate(-9.06 -15.51)"/><path class="cls-9" d="M214.12,326.13h3.33a1.67,1.67,0,0,0,1.67-1.67v-3.33a1.67,1.67,0,0,0-1.67-1.67h-3.33a1.67,1.67,0,0,0-1.67,1.67v3.33A1.67,1.67,0,0,0,214.12,326.13Zm0-5h3.33v3.33h-3.33Z" transform="translate(-9.06 -15.51)"/><path class="cls-9" d="M205.78,334.46h3.34a1.66,1.66,0,0,0,1.66-1.66v-3.34a1.66,1.66,0,0,0-1.66-1.66h-3.34a1.66,1.66,0,0,0-1.66,1.66v3.34A1.66,1.66,0,0,0,205.78,334.46Zm0-5h3.34v3.34h-3.34Z" transform="translate(-9.06 -15.51)"/><path class="cls-9" d="M214.12,334.46h3.33a1.66,1.66,0,0,0,1.67-1.66v-3.34a1.66,1.66,0,0,0-1.67-1.66h-3.33a1.66,1.66,0,0,0-1.67,1.66v3.34A1.66,1.66,0,0,0,214.12,334.46Zm0-5h3.33v3.34h-3.33Z" transform="translate(-9.06 -15.51)"/><path class="cls-9" d="M215,339.46h1.67v1.67H215Z" transform="translate(-9.06 -15.51)"/></g></svg>