<svg id="Layer_1" data-name="Layer 1" xmlns="http://www.w3.org/2000/svg" xmlns:xlink="http://www.w3.org/1999/xlink" viewBox="0 0 827.75 667.63"><defs><style>.cls-1,.cls-4,.cls-8{fill:none;}.cls-2{clip-path:url(#clip-path);}.cls-3{fill:#fff;}.cls-4,.cls-8{stroke:#45338e;}.cls-4{stroke-linecap:round;stroke-linejoin:round;}.cls-14,.cls-5,.cls-7{font-size:18px;}.cls-5,.cls-7,.cls-9{font-family:AvenirNext-Regular, Avenir Next;}.cls-6{letter-spacing:-0.01em;}.cls-14,.cls-7{fill:#45338e;}.cls-8{stroke-miterlimit:10;}.cls-10,.cls-9{font-size:16px;}.cls-10,.cls-14{font-family:AvenirNext-Italic, Avenir Next;font-style:italic;}.cls-11{letter-spacing:-0.01em;}.cls-12{letter-spacing:-0.01em;}.cls-13{letter-spacing:0em;}.cls-15{letter-spacing:-0.01em;}.cls-16{letter-spacing:-0.02em;}.cls-17{letter-spacing:0em;}.cls-18{letter-spacing:-0.06em;}.cls-19{letter-spacing:-0.01em;}.cls-20{letter-spacing:-0.01em;}</style><clipPath id="clip-path" transform="translate(-65.82 -11.32)"><rect class="cls-1" x="65.57" y="10.94" width="828" height="672"/></clipPath></defs><g class="cls-2"><rect class="cls-3" x="430.08" y="0.5" width="112.5" height="61.93"/><rect class="cls-4" x="430.08" y="0.5" width="112.5" height="61.93"/><text class="cls-5" transform="translate(438.52 24.47)"><tspan class="cls-6">C</tspan><tspan x="12.76" y="0">onnection </tspan></text><text class="cls-7" transform="translate(449.44 49.47)">Manager</text><line class="cls-8" x1="485.83" y1="78.23" x2="485.83" y2="667.62"/><line class="cls-8" x1="769.45" y1="78.23" x2="769.45" y2="667.62"/><rect class="cls-3" x="426.91" y="173.75" width="118.85" height="54" rx="5"/><rect class="cls-4" x="426.91" y="173.75" width="118.85" height="54" rx="5"/><text class="cls-9" transform="translate(434.34 194.75)"> </text><text class="cls-10" transform="translate(438.34 194.75)">spu</text><text class="cls-9" transform="translate(464.73 194.75)">/</text><text class="cls-10" transform="translate(470.65 194.75)">pa<tspan class="cls-11" x="18.59" y="0">r</tspan><tspan x="23.98" y="0">titions</tspan></text><text class="cls-9" transform="translate(464.93 216.75)">saved</text><line class="cls-8" x1="240.87" y1="107.48" x2="440.08" y2="107.48"/><path class="cls-8" d="M505.9,115.8l8,3-8,3m8-3h-8" transform="translate(-65.82 -11.32)"/><text class="cls-9" transform="translate(286.4 99.24)"><tspan xml:space="preserve">add  </tspan></text><text class="cls-10" transform="translate(323.33 99.24)">spu-a spec</text><line class="cls-8" x1="531.53" y1="269.09" x2="730.74" y2="269.09"/><path class="cls-8" d="M597.35,283.41l-8-3,8-3m-8,3h8" transform="translate(-65.82 -11.32)"/><text class="cls-9" transform="translate(573.02 258.09)">authorize</text><text class="cls-10" transform="translate(641.02 258.09)"><tspan xml:space="preserve"> spu-a</tspan></text><line class="cls-8" x1="524.49" y1="318" x2="723.7" y2="318"/><path class="cls-8" d="M789.52,326.32l8,3-8,3m8-3h-8" transform="translate(-65.82 -11.32)"/><text class="cls-10" transform="translate(565.07 308.82)">spu-a</text><text class="cls-9" transform="translate(605.11 308.82)"><tspan xml:space="preserve"> authorized</tspan></text><line class="cls-8" x1="534.39" y1="451" x2="723.7" y2="451"/><path class="cls-8" d="M789.52,459.32l8,3-8,3m8-3h-8" transform="translate(-65.82 -11.32)"/><path class="cls-8" d="M600.21,465.32l-8-3,8-3m-8,3h8" transform="translate(-65.82 -11.32)"/><text class="cls-9" transform="translate(600.95 444.5)">dupl<tspan class="cls-12" x="33.68" y="0">e</tspan><tspan class="cls-13" x="42.75" y="0">x</tspan></text><text class="cls-9" transform="translate(585.35 468.5)">connection</text><rect class="cls-3" x="426.91" y="350.1" width="118.85" height="54" rx="5"/><rect class="cls-4" x="426.91" y="350.1" width="118.85" height="54" rx="5"/><text class="cls-10" transform="translate(445.96 371.1)">connection</text><text class="cls-9" transform="translate(464.93 393.1)">saved</text><rect class="cls-3" x="714.75" y="0.5" width="112.5" height="61.93"/><rect class="cls-4" x="714.75" y="0.5" width="112.5" height="61.93"/><text class="cls-5" transform="translate(754.31 24.47)">SPU</text><text class="cls-14" transform="translate(748.47 49.47)">spu-a</text><path class="cls-8" d="M521.41,325.64c-52.67-2.84-36.71-44,9.9-44.95" transform="translate(-65.82 -11.32)"/><path class="cls-8" d="M521.43,322.64l8,3.07-8,2.93m8-2.93-8-.07" transform="translate(-65.82 -11.32)"/><text class="cls-9" transform="translate(351.07 285.92)">valid<tspan class="cls-15" x="34.58" y="0">a</tspan><tspan x="42.96" y="0">te</tspan></text><text class="cls-10" transform="translate(359.63 307.92)">spu-a</text><rect class="cls-3" x="145.41" y="0.5" width="112.5" height="61.93"/><rect class="cls-4" x="145.41" y="0.5" width="112.5" height="61.93"/><text class="cls-5" transform="translate(184.97 24.47)">SPU </text><text class="cls-7" transform="translate(160.2 49.47)"><tspan class="cls-6">C</tspan><tspan x="12.76" y="0">ont</tspan><tspan class="cls-16" x="39.92" y="0">r</tspan><tspan class="cls-17" x="46.1" y="0">oller</tspan></text><line class="cls-8" x1="201.16" y1="78.23" x2="201.16" y2="667.62"/><line class="cls-8" x1="253.08" y1="435.21" x2="452.29" y2="435.21"/><path class="cls-8" d="M318.9,449.53l-8-3,8-3m-8,3h8" transform="translate(-65.82 -11.32)"/><text class="cls-9" transform="translate(278.53 461.62)">set</text><text class="cls-10" transform="translate(299.86 461.62)"><tspan xml:space="preserve"> spu-a </tspan></text><text class="cls-9" transform="translate(347.91 461.62)">to online</text><rect class="cls-3" x="0.5" y="0.5" width="112.5" height="61.93"/><rect class="cls-4" x="0.5" y="0.5" width="112.5" height="61.93"/><text class="cls-5" transform="translate(23.2 24.47)"><tspan class="cls-18">P</tspan><tspan x="9.38" y="0">a</tspan><tspan class="cls-11" x="18.99" y="0">r</tspan><tspan x="25.27" y="0">tition </tspan></text><text class="cls-7" transform="translate(15.3 49.47)"><tspan class="cls-6">C</tspan><tspan x="12.76" y="0">ont</tspan><tspan class="cls-16" x="39.92" y="0">r</tspan><tspan class="cls-17" x="46.1" y="0">oller</tspan></text><line class="cls-8" x1="57.25" y1="78.23" x2="56.25" y2="667.62"/><line class="cls-8" x1="97.96" y1="477.03" x2="452.29" y2="477.03"/><path class="cls-8" d="M163.79,491.35l-8-3,8-3m-8,3h8" transform="translate(-65.82 -11.32)"/><line class="cls-8" x1="90.38" y1="145.12" x2="440.08" y2="145.12"/><path class="cls-8" d="M505.9,153.44l8,3-8,3m8-3h-8" transform="translate(-65.82 -11.32)"/><line class="cls-8" x1="525.92" y1="536.66" x2="723.7" y2="536.66"/><path class="cls-8" d="M789.52,545l8,3-8,3m8-3h-8" transform="translate(-65.82 -11.32)"/><text class="cls-9" transform="translate(574.94 525.66)"><tspan xml:space="preserve">add  </tspan></text><text class="cls-10" transform="translate(611.86 525.66)">spu-a spec</text><text class="cls-9" transform="translate(266.68 135.12)"><tspan xml:space="preserve">add  </tspan></text><text class="cls-10" transform="translate(303.6 135.12)">spu-a pa<tspan class="cls-19" x="62.64" y="0">r</tspan><tspan x="68.03" y="0">titions</tspan></text><text class="cls-9" transform="translate(558.21 569.83)"><tspan xml:space="preserve">add  </tspan></text><text class="cls-10" transform="translate(595.14 569.83)">spu-a pa<tspan class="cls-19" x="62.64" y="0">r</tspan><tspan x="68.03" y="0">titions</tspan></text><line class="cls-8" x1="525.92" y1="579.83" x2="723.7" y2="579.83"/><path class="cls-8" d="M789.52,588.15l8,3-8,3m8-3h-8" transform="translate(-65.82 -11.32)"/><text class="cls-9" transform="translate(592.12 622.41)"><tspan xml:space="preserve">LRS  </tspan></text><text class="cls-10" transform="translate(626.89 622.41)">upd<tspan class="cls-20" x="29.23" y="0">a</tspan><tspan x="37.63" y="0">te</tspan></text><line class="cls-8" x1="538.59" y1="632.41" x2="736.37" y2="632.41"/><path class="cls-8" d="M604.41,646.73l-8-3,8-3m-8,3h8" transform="translate(-65.82 -11.32)"/></g></svg>