<svg id="Layer_1" data-name="Layer 1" xmlns="http://www.w3.org/2000/svg" xmlns:xlink="http://www.w3.org/1999/xlink" viewBox="0 0 520.34 295.76"><defs><style>.cls-1,.cls-10,.cls-11,.cls-14,.cls-15,.cls-4{fill:none;}.cls-2{clip-path:url(#clip-path);}.cls-3{fill:#fff;}.cls-4{stroke:#45338e;}.cls-10,.cls-14,.cls-15,.cls-4{stroke-linecap:round;stroke-linejoin:round;}.cls-5{font-size:18px;}.cls-13,.cls-5,.cls-6{fill:#45338e;}.cls-12,.cls-13,.cls-5,.cls-6,.cls-9{font-family:AvenirNext-Regular, Avenir Next;}.cls-12,.cls-13,.cls-16,.cls-6,.cls-9{font-size:20px;}.cls-6{letter-spacing:-0.02em;}.cls-7{letter-spacing:-0.01em;}.cls-8{letter-spacing:0em;}.cls-9{fill:#389460;}.cls-10,.cls-11{stroke:#5f5f5f;}.cls-10,.cls-11,.cls-14{stroke-width:2px;}.cls-11{stroke-miterlimit:10;}.cls-12{fill:#434343;}.cls-13{letter-spacing:-0.05em;}.cls-14{stroke:#389460;}.cls-15{stroke:#8266a8;}.cls-16{fill:#8266a8;font-family:AvenirNext-Italic, Avenir Next;font-style:italic;}.cls-17{letter-spacing:-0.02em;}</style><clipPath id="clip-path" transform="translate(-253.57 -172.86)"><rect class="cls-1" x="248.06" y="164.44" width="531" height="305"/></clipPath></defs><g class="cls-2"><rect class="cls-3" x="123.22" y="50.08" width="31.75" height="36.61"/><rect class="cls-4" x="123.22" y="50.08" width="31.75" height="36.61"/><text class="cls-5" transform="translate(133.88 73.89)">0</text><rect class="cls-3" x="154.97" y="50.08" width="31.75" height="36.61"/><rect class="cls-4" x="154.97" y="50.08" width="31.75" height="36.61"/><text class="cls-5" transform="translate(165.63 73.89)">1</text><text class="cls-6" transform="translate(31.74 75.08)">L<tspan class="cls-7" x="9.84" y="0">e</tspan><tspan class="cls-8" x="21.18" y="0">ader</tspan></text><rect class="cls-3" x="186.73" y="50.08" width="31.75" height="36.61"/><rect class="cls-4" x="186.73" y="50.08" width="31.75" height="36.61"/><text class="cls-5" transform="translate(197.39 73.89)">2</text><rect class="cls-3" x="218.48" y="50.08" width="31.75" height="36.61"/><rect class="cls-4" x="218.48" y="50.08" width="31.75" height="36.61"/><text class="cls-5" transform="translate(229.14 73.89)">3</text><rect class="cls-3" x="249.8" y="50.08" width="31.75" height="36.61"/><rect class="cls-4" x="249.8" y="50.08" width="31.75" height="36.61"/><text class="cls-5" transform="translate(260.45 73.89)">4</text><rect class="cls-3" x="281.11" y="50.08" width="31.75" height="36.61"/><rect class="cls-4" x="281.11" y="50.08" width="31.75" height="36.61"/><rect class="cls-3" x="312.42" y="50.08" width="31.75" height="36.61"/><rect class="cls-4" x="312.42" y="50.08" width="31.75" height="36.61"/><rect class="cls-3" x="343.74" y="50.08" width="31.75" height="36.61"/><rect class="cls-4" x="343.74" y="50.08" width="31.75" height="36.61"/><text class="cls-9" transform="translate(201.08 17.08)">HW</text><line class="cls-10" x1="299.99" y1="24.08" x2="289.33" y2="39.47"/><path class="cls-11" d="M545.86,214.38l-8.42,5.85,2.5-9.94m-2.5,9.94,5.46-7.9" transform="translate(-253.57 -172.86)"/><text class="cls-12" transform="translate(294.99 17.08)">LEO</text><rect class="cls-3" x="123.22" y="156.46" width="31.75" height="36.61"/><rect class="cls-4" x="123.22" y="156.46" width="31.75" height="36.61"/><text class="cls-5" transform="translate(133.88 180.26)">0</text><rect class="cls-3" x="154.97" y="156.46" width="31.75" height="36.61"/><rect class="cls-4" x="154.97" y="156.46" width="31.75" height="36.61"/><text class="cls-5" transform="translate(165.63 180.26)">1</text><text class="cls-13" transform="translate(0 181.26)">F<tspan class="cls-8" x="10.28" y="0">ollower 1</tspan></text><rect class="cls-3" x="186.73" y="156.46" width="31.75" height="36.61"/><rect class="cls-4" x="186.73" y="156.46" width="31.75" height="36.61"/><text class="cls-5" transform="translate(197.39 180.26)">2</text><rect class="cls-3" x="218.48" y="156.46" width="31.75" height="36.61"/><rect class="cls-4" x="218.48" y="156.46" width="31.75" height="36.61"/><text class="cls-5" transform="translate(229.14 180.26)">3</text><rect class="cls-3" x="249.8" y="156.46" width="31.75" height="36.61"/><rect class="cls-4" x="249.8" y="156.46" width="31.75" height="36.61"/><rect class="cls-3" x="281.11" y="156.46" width="31.75" height="36.61"/><rect class="cls-4" x="281.11" y="156.46" width="31.75" height="36.61"/><rect class="cls-3" x="312.42" y="156.46" width="31.75" height="36.61"/><rect class="cls-4" x="312.42" y="156.46" width="31.75" height="36.61"/><rect class="cls-3" x="343.74" y="156.46" width="31.75" height="36.61"/><rect class="cls-4" x="343.74" y="156.46" width="31.75" height="36.61"/><rect class="cls-3" x="123.22" y="257.46" width="31.75" height="36.61"/><rect class="cls-4" x="123.22" y="257.46" width="31.75" height="36.61"/><text class="cls-5" transform="translate(133.88 281.26)">0</text><rect class="cls-3" x="154.97" y="257.46" width="31.75" height="36.61"/><rect class="cls-4" x="154.97" y="257.46" width="31.75" height="36.61"/><text class="cls-5" transform="translate(165.63 281.26)">1</text><text class="cls-13" transform="translate(0 282.26)">F<tspan class="cls-8" x="10.28" y="0">ollower 2</tspan></text><rect class="cls-3" x="186.73" y="257.46" width="31.75" height="36.61"/><rect class="cls-4" x="186.73" y="257.46" width="31.75" height="36.61"/><text class="cls-5" transform="translate(197.39 281.26)">2</text><rect class="cls-3" x="218.48" y="257.46" width="31.75" height="36.61"/><rect class="cls-4" x="218.48" y="257.46" width="31.75" height="36.61"/><rect class="cls-3" x="249.8" y="257.46" width="31.75" height="36.61"/><rect class="cls-4" x="249.8" y="257.46" width="31.75" height="36.61"/><rect class="cls-3" x="281.11" y="257.46" width="31.75" height="36.61"/><rect class="cls-4" x="281.11" y="257.46" width="31.75" height="36.61"/><rect class="cls-3" x="312.42" y="257.46" width="31.75" height="36.61"/><rect class="cls-4" x="312.42" y="257.46" width="31.75" height="36.61"/><rect class="cls-3" x="343.74" y="257.46" width="31.75" height="36.61"/><rect class="cls-4" x="343.74" y="257.46" width="31.75" height="36.61"/><text class="cls-12" transform="translate(263.49 124.07)">LEO</text><text class="cls-12" transform="translate(230.28 228.19)">LEO</text><line class="cls-14" x1="217.76" y1="24.08" x2="217.76" y2="294.26"/><line class="cls-10" x1="267.24" y1="130.46" x2="256.58" y2="145.85"/><path class="cls-11" d="M513.11,320.76l-8.43,5.84,2.51-9.94m-2.51,9.94,5.47-7.89" transform="translate(-253.57 -172.86)"/><line class="cls-10" x1="236.48" y1="233.21" x2="225.83" y2="248.6"/><path class="cls-11" d="M482.35,423.51l-8.42,5.84,2.5-9.94m-2.5,9.94,5.46-7.89" transform="translate(-253.57 -172.86)"/><path class="cls-15" d="M685,216.12h0a9,9,0,0,1,9,9v99.59a18.71,18.71,0,0,0,4.5,12.16,8.07,8.07,0,0,1,0,10.5,18.72,18.72,0,0,0-4.5,12.17v99.58a9,9,0,0,1-9,9" transform="translate(-253.57 -172.86)"/><text class="cls-16" transform="translate(461.74 174.76)">o<tspan class="cls-17" x="11.92" y="0">f</tspan><tspan x="17.48" y="0">fsets</tspan></text></g></svg>