<svg id="Layer_1" data-name="Layer 1" xmlns="http://www.w3.org/2000/svg" xmlns:xlink="http://www.w3.org/1999/xlink" viewBox="0 0 749.45 521.82"><defs><style>.cls-1,.cls-18,.cls-20,.cls-22,.cls-3,.cls-4,.cls-6{fill:none;}.cls-2{clip-path:url(#clip-path);}.cls-3,.cls-4,.cls-6{stroke:#45338e;}.cls-18,.cls-22,.cls-3,.cls-6{stroke-linecap:round;}.cls-20,.cls-22,.cls-3,.cls-6{stroke-linejoin:round;}.cls-18,.cls-3,.cls-4{stroke-width:1.5px;}.cls-18,.cls-4{stroke-miterlimit:10;}.cls-14,.cls-5{fill:#fff;}.cls-27,.cls-30,.cls-7{font-size:16px;}.cls-10,.cls-15,.cls-27,.cls-30,.cls-7{fill:#45338e;}.cls-10,.cls-14,.cls-15,.cls-21,.cls-23,.cls-27,.cls-30,.cls-7{font-family:AvenirNext-Regular, Avenir Next;}.cls-8{letter-spacing:-0.02em;}.cls-9{letter-spacing:0em;}.cls-10{font-size:20px;}.cls-11{fill:#389460;}.cls-12{fill:#5f5f5f;}.cls-13{fill:#8266a8;}.cls-14,.cls-15,.cls-23{font-size:18px;}.cls-16{letter-spacing:-0.02em;}.cls-17{letter-spacing:0em;}.cls-18,.cls-20{stroke:#000;}.cls-19{fill:#999;}.cls-20{stroke-width:0.5px;}.cls-21{font-size:12px;}.cls-22{stroke:#389460;}.cls-24{letter-spacing:-0.05em;}.cls-25{letter-spacing:-0.02em;}.cls-26{letter-spacing:-0.01em;}.cls-27{letter-spacing:-0.05em;}.cls-28{letter-spacing:0em;}.cls-29{fill:#666766;}.cls-30{letter-spacing:-0.05em;}.cls-31{letter-spacing:0em;}</style><clipPath id="clip-path" transform="translate(-128.04 -88.46)"><rect class="cls-1" x="127.22" y="88.07" width="751" height="523"/></clipPath></defs><g class="cls-2"><line class="cls-3" x1="473.2" y1="288.8" x2="543.86" y2="288.8"/><path class="cls-4" d="M671.9,374l8.8,3.3-8.8,3.3m8.8-3.3h-8.8" transform="translate(-128.04 -88.46)"/><rect class="cls-5" x="0.5" y="203.86" width="183.37" height="133.88" rx="4"/><rect class="cls-6" x="0.5" y="203.86" width="183.37" height="133.88" rx="4"/><line class="cls-3" x1="140.56" y1="114.48" x2="140.56" y2="175.64"/><path class="cls-4" d="M271.9,264.1l-3.3,8.8-3.3-8.8m3.3,8.8v-8.8" transform="translate(-128.04 -88.46)"/><text class="cls-7" transform="translate(13.84 227.76)"><tspan class="cls-8">L</tspan><tspan class="cls-9" x="7.89" y="0">e</tspan><tspan x="16.96" y="0">ader</tspan></text><text class="cls-10" transform="translate(34.73 193.3)">SPU - 1</text><polygon class="cls-11" points="24.89 177.14 27.12 180.04 14.12 196.46 7.81 188.73 10.03 185.83 14.12 190.66 24.89 177.14"/><rect class="cls-12" x="152.93" y="144.67" width="25.88" height="9.01"/><rect class="cls-5" x="283.04" y="203.86" width="183.37" height="133.88" rx="4"/><rect class="cls-6" x="283.04" y="203.86" width="183.37" height="133.88" rx="4"/><rect class="cls-13" x="319.59" y="236.3" width="23.63" height="27.22"/><rect class="cls-6" x="319.59" y="236.3" width="23.63" height="27.22"/><text class="cls-14" transform="translate(326.18 255.41)">1</text><text class="cls-15" transform="translate(299.2 226.86)"><tspan class="cls-16">L</tspan><tspan class="cls-17" x="8.86" y="0">e</tspan><tspan x="19.06" y="0">ader</tspan></text><rect class="cls-18" x="407.33" y="226.03" width="37.17" height="78.95"/><rect class="cls-5" x="407.33" y="226.27" width="37.17" height="78.71"/><rect class="cls-19" x="411.39" y="229.9" width="29.05" height="9.01"/><line class="cls-20" x1="407.33" y1="242.9" x2="444.5" y2="242.9"/><line class="cls-20" x1="407.33" y1="261.31" x2="444.5" y2="261.31"/><line class="cls-20" x1="407.33" y1="278.03" x2="444.5" y2="278.03"/><rect class="cls-19" x="411.39" y="247.57" width="29.05" height="9.01"/><text class="cls-21" transform="translate(395.37 237.87)">0</text><text class="cls-21" transform="translate(395.37 255.6)">1</text><line class="cls-20" x1="407.33" y1="290.93" x2="444.5" y2="290.93"/><line class="cls-3" x1="194.47" y1="262.53" x2="261.03" y2="262.53"/><path class="cls-4" d="M389.08,347.69l8.8,3.3-8.8,3.3m8.8-3.3h-8.8" transform="translate(-128.04 -88.46)"/><rect class="cls-12" x="203.23" y="244.36" width="25.88" height="9.01"/><rect class="cls-5" x="565.58" y="203.86" width="183.37" height="133.88" rx="4"/><rect class="cls-6" x="565.58" y="203.86" width="183.37" height="133.88" rx="4"/><rect class="cls-13" x="601.23" y="236.3" width="23.63" height="27.22"/><rect class="cls-6" x="601.23" y="236.3" width="23.63" height="27.22"/><text class="cls-14" transform="translate(607.83 255.41)">1</text><text class="cls-15" transform="translate(584.6 226.86)"><tspan class="cls-16">L</tspan><tspan class="cls-17" x="8.86" y="0">e</tspan><tspan x="19.06" y="0">ader</tspan></text><rect class="cls-18" x="689.87" y="226.03" width="37.17" height="78.95"/><rect class="cls-5" x="689.87" y="226.27" width="37.17" height="78.71"/><rect class="cls-19" x="693.93" y="229.9" width="29.05" height="9.01"/><line class="cls-20" x1="689.87" y1="242.9" x2="727.04" y2="242.9"/><line class="cls-20" x1="689.87" y1="261.31" x2="727.04" y2="261.31"/><line class="cls-20" x1="689.87" y1="278.03" x2="727.04" y2="278.03"/><rect class="cls-19" x="693.93" y="247.57" width="29.05" height="9.01"/><text class="cls-21" transform="translate(677.91 237.87)">0</text><text class="cls-21" transform="translate(677.91 255.6)">1</text><line class="cls-20" x1="689.87" y1="290.93" x2="727.04" y2="290.93"/><rect class="cls-12" x="492.1" y="271.02" width="25.87" height="9.01"/><text class="cls-10" transform="translate(320.48 193.3)">SPU - 2</text><polygon class="cls-11" points="310.64 177.14 312.87 180.04 299.87 196.46 293.56 188.73 295.78 185.83 299.87 190.66 310.64 177.14"/><text class="cls-10" transform="translate(602.3 193.3)">SPU - 3</text><polygon class="cls-11" points="592.46 177.14 594.69 180.04 581.69 196.46 575.37 188.73 577.6 185.83 581.69 190.66 592.46 177.14"/><line class="cls-3" x1="140.56" y1="339.91" x2="140.56" y2="401.06"/><path class="cls-4" d="M271.9,489.52l-3.3,8.8-3.3-8.8m3.3,8.8v-8.8" transform="translate(-128.04 -88.46)"/><rect class="cls-12" x="152.93" y="370.09" width="25.88" height="9.01"/><polygon class="cls-5" points="85.87 47.49 113.46 0.5 168.65 0.5 196.24 47.49 168.65 94.48 113.46 94.48 85.87 47.49"/><polygon class="cls-22" points="85.87 47.49 113.46 0.5 168.65 0.5 196.24 47.49 168.65 94.48 113.46 94.48 85.87 47.49"/><text class="cls-23" transform="translate(103.84 52.99)"><tspan class="cls-24">P</tspan><tspan class="cls-25" x="9.59" y="0">r</tspan><tspan x="15.77" y="0">oducer</tspan></text><polygon class="cls-5" points="88.51 476.57 114.78 431.83 167.33 431.83 193.6 476.57 167.33 521.32 114.78 521.32 88.51 476.57"/><polygon class="cls-22" points="88.51 476.57 114.78 431.83 167.33 431.83 193.6 476.57 167.33 521.32 114.78 521.32 88.51 476.57"/><text class="cls-23" transform="translate(98.4 482.07)"><tspan class="cls-26">C</tspan><tspan x="12.76" y="0">onsumer</tspan></text><rect class="cls-5" x="27.07" y="296.63" width="24.12" height="27.22"/><rect class="cls-6" x="27.07" y="296.63" width="24.12" height="27.22"/><text class="cls-15" transform="translate(33.91 315.74)">3</text><rect class="cls-5" x="51.19" y="296.63" width="24.12" height="27.22"/><rect class="cls-6" x="51.19" y="296.63" width="24.12" height="27.22"/><text class="cls-15" transform="translate(58.03 315.74)">2</text><rect class="cls-13" x="27.07" y="236.3" width="24.12" height="27.22"/><rect class="cls-6" x="27.07" y="236.3" width="24.12" height="27.22"/><text class="cls-14" transform="translate(33.91 255.41)">1</text><text class="cls-27" transform="translate(12.81 288.97)">F<tspan class="cls-28" x="8.22" y="0">ollowers</tspan></text><line class="cls-3" x1="195.77" y1="289.25" x2="277.82" y2="288.58"/><rect class="cls-18" x="124.78" y="229.27" width="37.17" height="78.95"/><rect class="cls-5" x="124.78" y="229.51" width="37.17" height="78.71"/><rect class="cls-29" x="128.84" y="233.15" width="29.05" height="9.01"/><line class="cls-20" x1="124.78" y1="246.15" x2="161.95" y2="246.15"/><line class="cls-20" x1="124.78" y1="264.55" x2="161.95" y2="264.55"/><line class="cls-20" x1="124.78" y1="281.27" x2="161.95" y2="281.27"/><rect class="cls-29" x="128.84" y="250.81" width="29.05" height="9.01"/><text class="cls-21" transform="translate(112.82 241.11)">0</text><text class="cls-21" transform="translate(112.82 258.84)">1</text><line class="cls-20" x1="124.78" y1="294.17" x2="161.95" y2="294.17"/><text class="cls-21" transform="translate(112.82 276.92)">2</text><rect class="cls-29" x="129.31" y="268.41" width="29.05" height="9.01"/><rect class="cls-5" x="319.34" y="296.63" width="24.12" height="27.22"/><rect class="cls-6" x="319.34" y="296.63" width="24.12" height="27.22"/><text class="cls-15" transform="translate(326.18 315.74)">3</text><text class="cls-30" transform="translate(299.2 288.97)">F<tspan class="cls-31" x="8.22" y="0">ollowers</tspan></text><rect class="cls-5" x="601.23" y="296.63" width="24.12" height="27.22"/><rect class="cls-6" x="601.23" y="296.63" width="24.12" height="27.22"/><text class="cls-15" transform="translate(608.07 315.74)">2</text><text class="cls-30" transform="translate(586.05 288.97)">F<tspan class="cls-31" x="8.22" y="0">ollowers</tspan></text></g></svg>