<svg id="Layer_1" data-name="Layer 1" xmlns="http://www.w3.org/2000/svg" xmlns:xlink="http://www.w3.org/1999/xlink" viewBox="0 0 423.45 270.4"><defs><style>.cls-1,.cls-13,.cls-4{fill:none;}.cls-2{clip-path:url(#clip-path);}.cls-12,.cls-3{fill:#fff;}.cls-13,.cls-4{stroke:#45338e;}.cls-4{stroke-linecap:round;stroke-linejoin:round;}.cls-5{font-size:20px;}.cls-14,.cls-5,.cls-6{fill:#45338e;}.cls-12,.cls-5,.cls-6,.cls-7{font-family:AvenirNext-Regular, Avenir Next;}.cls-12,.cls-6{font-size:18px;}.cls-14,.cls-7{font-size:16px;}.cls-7{fill:#434343;}.cls-8{letter-spacing:-0.05em;}.cls-9{letter-spacing:-0.02em;}.cls-10{letter-spacing:0em;}.cls-11{fill:#8266a8;}.cls-13{stroke-miterlimit:10;}.cls-14{font-family:HelveticaNeue, Helvetica Neue;}</style><clipPath id="clip-path" transform="translate(-282.8 -190.85)"><rect class="cls-1" x="282.3" y="187.74" width="424" height="274"/></clipPath></defs><g class="cls-2"><rect class="cls-3" x="0.5" y="94.71" width="130.66" height="77.62" rx="4"/><rect class="cls-4" x="0.5" y="94.71" width="130.66" height="77.63" rx="4"/><text class="cls-5" transform="translate(9.02 84.9)">SPU - 1</text><rect class="cls-3" x="29.48" y="131.22" width="24.12" height="27.22"/><rect class="cls-4" x="29.48" y="131.22" width="24.12" height="27.22"/><text class="cls-6" transform="translate(36.73 150.34)">a</text><rect class="cls-3" x="53.6" y="131.22" width="24.12" height="27.22"/><rect class="cls-4" x="53.6" y="131.22" width="24.12" height="27.22"/><text class="cls-6" transform="translate(59.92 150.34)">b</text><text class="cls-7" transform="translate(15.22 121.54)"><tspan class="cls-8">F</tspan><tspan x="8.24" y="0">ollowers</tspan></text><rect class="cls-3" x="77.72" y="131.22" width="24.12" height="27.22"/><rect class="cls-4" x="77.72" y="131.22" width="24.12" height="27.22"/><text class="cls-6" transform="translate(85.27 150.34)">c</text><rect class="cls-3" x="292.29" y="26.89" width="130.66" height="77.63" rx="4"/><rect class="cls-4" x="292.29" y="26.89" width="130.66" height="77.63" rx="4"/><text class="cls-7" transform="translate(308.84 52.41)"><tspan class="cls-9">L</tspan><tspan class="cls-10" x="7.89" y="0">e</tspan><tspan x="16.96" y="0">aders</tspan></text><text class="cls-5" transform="translate(303.44 17.08)">SPU - 2</text><rect class="cls-11" x="320.99" y="63.41" width="24.12" height="27.22"/><rect class="cls-4" x="320.99" y="63.41" width="24.12" height="27.22"/><text class="cls-12" transform="translate(328.25 82.52)">a</text><rect class="cls-11" x="347.4" y="63.41" width="24.12" height="27.22"/><rect class="cls-4" x="347.4" y="63.41" width="24.12" height="27.22"/><text class="cls-12" transform="translate(354.96 82.52)">c</text><rect class="cls-3" x="292.29" y="192.28" width="130.66" height="77.62" rx="4"/><rect class="cls-4" x="292.29" y="192.28" width="130.66" height="77.63" rx="4"/><text class="cls-7" transform="translate(308.84 217.79)"><tspan class="cls-9">L</tspan><tspan class="cls-10" x="7.89" y="0">e</tspan><tspan x="16.96" y="0">aders</tspan></text><text class="cls-5" transform="translate(303.44 181.7)">SPU - 3</text><rect class="cls-11" x="320.99" y="228.79" width="24.12" height="27.22"/><rect class="cls-4" x="320.99" y="228.79" width="24.12" height="27.22"/><text class="cls-12" transform="translate(327.32 247.9)">b</text><line class="cls-4" x1="158.83" y1="121.2" x2="266.29" y2="59.57"/><path class="cls-13" d="M547.6,247.82l8.43-1.38L550.59,253m5.44-6.58-6.93,4" transform="translate(-282.8 -190.85)"/><path class="cls-13" d="M443.12,314.66,434.69,316l5.45-6.58M434.69,316l6.94-4" transform="translate(-282.8 -190.85)"/><text class="cls-14" transform="translate(194.5 92.04) rotate(-28)">a, c</text><line class="cls-4" x1="158.61" y1="153.63" x2="265.67" y2="221.09"/><path class="cls-13" d="M550.07,409.41l5.17,6.8-8.37-1.73m8.37,1.73-6.77-4.27" transform="translate(-282.8 -190.85)"/><path class="cls-13" d="M439.82,347l-5.17-6.8,8.37,1.73m-8.37-1.73,6.77,4.27" transform="translate(-282.8 -190.85)"/><text class="cls-14" transform="translate(206.92 175.1) rotate(32)">b</text></g></svg>