<svg id="Layer_1" data-name="Layer 1" xmlns="http://www.w3.org/2000/svg" xmlns:xlink="http://www.w3.org/1999/xlink" viewBox="0 0 946.78 675.54"><defs><style>.cls-1,.cls-29,.cls-5,.cls-8{fill:none;}.cls-2{clip-path:url(#clip-path);}.cls-3{font-size:22px;}.cls-22,.cls-3,.cls-6{fill:#45338e;}.cls-10,.cls-18,.cls-19,.cls-22,.cls-24,.cls-25,.cls-3,.cls-6,.cls-7{font-family:AvenirNext-Regular, Avenir Next;}.cls-24,.cls-4{fill:#fff;}.cls-29,.cls-5{stroke:#45338e;}.cls-5{stroke-linecap:round;stroke-linejoin:round;}.cls-10,.cls-18,.cls-19,.cls-25,.cls-6{font-size:18px;}.cls-7{font-size:20px;fill:#434343;}.cls-8{stroke:#666766;stroke-width:0.5px;}.cls-29,.cls-8{stroke-miterlimit:10;}.cls-9{fill:#333;}.cls-10{opacity:0.8;}.cls-10,.cls-18,.cls-19,.cls-23,.cls-25{fill:#8266a8;}.cls-11{letter-spacing:-0.02em;}.cls-12{letter-spacing:-0.01em;}.cls-13{letter-spacing:-0.01em;}.cls-14{fill:#c1c0c0;}.cls-15{fill:#389460;}.cls-16{letter-spacing:-0.01em;}.cls-17{letter-spacing:-0.02em;}.cls-18{opacity:0.8;}.cls-19{opacity:0.8;}.cls-20{letter-spacing:-0.02em;}.cls-21{letter-spacing:-0.01em;}.cls-22,.cls-24{font-size:16px;}.cls-26{letter-spacing:-0.01em;}.cls-27{letter-spacing:0em;}.cls-28{letter-spacing:0em;}</style><clipPath id="clip-path" transform="translate(-11.97 -13.19)"><rect class="cls-1" x="11.42" y="9.57" width="948" height="680"/></clipPath></defs><g class="cls-2"><text class="cls-3" transform="translate(22.34 377.17)">SPU - 1</text><rect class="cls-4" x="0.5" y="392.09" width="255.63" height="282.95" rx="4"/><rect class="cls-5" x="0.5" y="392.09" width="255.62" height="282.95" rx="4"/><text class="cls-6" transform="translate(47.65 469.79)">topic-a/0</text><text class="cls-7" transform="translate(124.56 426)"> </text><text class="cls-7" transform="translate(124.56 426)"> </text><text class="cls-7" transform="translate(124.56 426)"> </text><text class="cls-7" transform="translate(124.56 426)"> </text><text class="cls-7" transform="translate(124.56 426)"> </text><text class="cls-7" transform="translate(124.56 426)"> </text><text class="cls-7" transform="translate(124.56 426)"> </text><text class="cls-7" transform="translate(121.23 426)"> </text><text class="cls-7" transform="translate(116.23 426)"> </text><text class="cls-7" transform="translate(105.55 426)">a</text><text class="cls-7" transform="translate(95.55 426)">c</text><text class="cls-7" transform="translate(90.55 426)">i</text><text class="cls-7" transform="translate(85.51 426)">l</text><text class="cls-7" transform="translate(72.81 426)">p</text><text class="cls-7" transform="translate(61.37 426)">e</text><text class="cls-7" transform="translate(49.63 426)">R</text><line class="cls-5" x1="12.81" y1="435.72" x2="243.81" y2="435.72"/><text class="cls-6" transform="translate(47.65 612.97)">topic-b/0</text><rect class="cls-4" x="191.12" y="459.07" width="17.07" height="10.44"/><rect class="cls-8" x="191.12" y="459.07" width="17.07" height="10.44"/><rect class="cls-9" x="192.94" y="461.21" width="13.41" height="5.91"/><rect class="cls-4" x="174.05" y="459.07" width="17.07" height="10.44"/><rect class="cls-8" x="174.05" y="459.07" width="17.07" height="10.44"/><rect class="cls-9" x="175.88" y="461.21" width="13.41" height="5.91"/><rect class="cls-4" x="156.98" y="459.07" width="17.07" height="10.44"/><rect class="cls-8" x="156.98" y="459.07" width="17.07" height="10.44"/><rect class="cls-9" x="158.81" y="461.21" width="13.41" height="5.91"/><rect class="cls-4" x="208.18" y="459.07" width="17.07" height="10.44"/><rect class="cls-8" x="208.18" y="459.07" width="17.07" height="10.44"/><text class="cls-10" transform="translate(47.65 509.01)">topic-a/1</text><text class="cls-7" transform="translate(149.17 426)"><tspan class="cls-11">F</tspan><tspan x="10.9" y="0">ile</tspan><tspan class="cls-12" x="32.38" y="0">-</tspan><tspan class="cls-13" x="38.56" y="0">S</tspan><tspan x="49.74" y="0">to</tspan><tspan class="cls-11" x="68.3" y="0">r</tspan><tspan x="75.16" y="0">e</tspan></text><text class="cls-10" transform="translate(47.65 548.22)">topic-a/2</text><rect class="cls-4" x="191.12" y="602.25" width="17.07" height="10.44"/><rect class="cls-8" x="191.12" y="602.25" width="17.07" height="10.44"/><rect class="cls-4" x="174.05" y="602.25" width="17.07" height="10.44"/><rect class="cls-8" x="174.05" y="602.25" width="17.07" height="10.44"/><rect class="cls-4" x="156.98" y="602.25" width="17.07" height="10.44"/><rect class="cls-8" x="156.98" y="602.25" width="17.07" height="10.44"/><rect class="cls-9" x="158.81" y="604.39" width="13.41" height="5.91"/><rect class="cls-4" x="208.18" y="602.25" width="17.07" height="10.44"/><rect class="cls-8" x="208.18" y="602.25" width="17.07" height="10.44"/><rect class="cls-9" x="176.19" y="604.51" width="13.41" height="5.91"/><rect class="cls-4" x="191.12" y="498.29" width="17.07" height="10.44"/><rect class="cls-8" x="191.12" y="498.29" width="17.07" height="10.44"/><rect class="cls-4" x="174.05" y="498.29" width="17.07" height="10.44"/><rect class="cls-8" x="174.05" y="498.29" width="17.07" height="10.44"/><rect class="cls-14" x="175.88" y="500.43" width="13.41" height="5.91"/><rect class="cls-4" x="156.98" y="498.29" width="17.07" height="10.44"/><rect class="cls-8" x="156.98" y="498.29" width="17.07" height="10.44"/><rect class="cls-14" x="158.81" y="500.43" width="13.41" height="5.91"/><rect class="cls-4" x="208.18" y="498.29" width="17.07" height="10.44"/><rect class="cls-8" x="208.18" y="498.29" width="17.07" height="10.44"/><rect class="cls-14" x="192.98" y="500.56" width="13.41" height="5.91"/><rect class="cls-4" x="191.12" y="537.5" width="17.07" height="10.44"/><rect class="cls-8" x="191.12" y="537.5" width="17.07" height="10.44"/><rect class="cls-4" x="174.05" y="537.5" width="17.07" height="10.44"/><rect class="cls-8" x="174.05" y="537.5" width="17.07" height="10.44"/><rect class="cls-4" x="156.98" y="537.5" width="17.07" height="10.44"/><rect class="cls-8" x="156.98" y="537.5" width="17.07" height="10.44"/><rect class="cls-14" x="158.81" y="539.64" width="13.41" height="5.91"/><rect class="cls-4" x="208.18" y="537.5" width="17.07" height="10.44"/><rect class="cls-8" x="208.18" y="537.5" width="17.07" height="10.44"/><rect class="cls-14" x="175.88" y="539.77" width="13.41" height="5.91"/><rect class="cls-14" x="192.79" y="539.53" width="13.41" height="5.91"/><rect class="cls-14" x="210.01" y="539.53" width="13.41" height="5.91"/><polygon class="cls-15" points="34.42 451.69 36.65 454.58 23.65 471 17.34 463.27 19.57 460.38 23.65 465.21 34.42 451.69"/><text class="cls-3" transform="translate(367.42 377.17)">SPU - 2</text><rect class="cls-4" x="345.58" y="390.57" width="255.62" height="282.95" rx="4"/><rect class="cls-5" x="345.58" y="390.57" width="255.62" height="282.95" rx="4"/><text class="cls-7" transform="translate(469.64 424.48)"> </text><text class="cls-7" transform="translate(469.64 424.48)"> </text><text class="cls-7" transform="translate(469.64 424.48)"> </text><text class="cls-7" transform="translate(469.64 424.48)"> </text><text class="cls-7" transform="translate(469.64 424.48)"> </text><text class="cls-7" transform="translate(469.64 424.48)"> </text><text class="cls-7" transform="translate(469.64 424.48)"> </text><text class="cls-7" transform="translate(466.31 424.48)"> </text><text class="cls-7" transform="translate(461.31 424.48)"> </text><text class="cls-7" transform="translate(450.63 424.48)">a</text><text class="cls-7" transform="translate(440.63 424.48)">c</text><text class="cls-7" transform="translate(435.63 424.48)">i</text><text class="cls-7" transform="translate(430.59 424.48)">l</text><text class="cls-7" transform="translate(417.89 424.48)">p</text><text class="cls-7" transform="translate(406.45 424.48)">e</text><text class="cls-7" transform="translate(394.71 424.48)">R</text><line class="cls-5" x1="357.89" y1="434.2" x2="588.89" y2="434.2"/><text class="cls-7" transform="translate(494.24 424.48)"><tspan class="cls-11">F</tspan><tspan x="10.9" y="0">ile</tspan><tspan class="cls-12" x="32.38" y="0">-</tspan><tspan class="cls-16" x="38.56" y="0">S</tspan><tspan x="49.72" y="0">to</tspan><tspan class="cls-17" x="68.28" y="0">r</tspan><tspan x="75.14" y="0">e</tspan></text><text class="cls-18" transform="translate(392.73 548.24)">topic-a/2</text><rect class="cls-4" x="536.19" y="535.98" width="17.07" height="10.44"/><rect class="cls-8" x="536.19" y="535.98" width="17.07" height="10.44"/><rect class="cls-4" x="519.12" y="535.98" width="17.07" height="10.44"/><rect class="cls-8" x="519.12" y="535.98" width="17.07" height="10.44"/><rect class="cls-4" x="502.06" y="535.98" width="17.07" height="10.44"/><rect class="cls-8" x="502.06" y="535.98" width="17.07" height="10.44"/><rect class="cls-14" x="503.89" y="538.13" width="13.41" height="5.91"/><rect class="cls-4" x="553.26" y="535.98" width="17.07" height="10.44"/><rect class="cls-8" x="553.26" y="535.98" width="17.07" height="10.44"/><rect class="cls-14" x="520.95" y="538.25" width="13.41" height="5.91"/><rect class="cls-14" x="537.86" y="538.02" width="13.41" height="5.91"/><rect class="cls-14" x="555.09" y="538.02" width="13.41" height="5.91"/><text class="cls-3" transform="translate(712.49 377.17)">SPU - 3</text><rect class="cls-4" x="690.66" y="390.57" width="255.63" height="282.95" rx="4"/><rect class="cls-5" x="690.66" y="390.57" width="255.63" height="282.95" rx="4"/><text class="cls-7" transform="translate(814.72 424.48)"> </text><text class="cls-7" transform="translate(814.72 424.48)"> </text><text class="cls-7" transform="translate(814.72 424.48)"> </text><text class="cls-7" transform="translate(814.72 424.48)"> </text><text class="cls-7" transform="translate(814.72 424.48)"> </text><text class="cls-7" transform="translate(814.72 424.48)"> </text><text class="cls-7" transform="translate(814.72 424.48)"> </text><text class="cls-7" transform="translate(811.38 424.48)"> </text><text class="cls-7" transform="translate(806.38 424.48)"> </text><text class="cls-7" transform="translate(795.7 424.48)">a</text><text class="cls-7" transform="translate(785.7 424.48)">c</text><text class="cls-7" transform="translate(780.7 424.48)">i</text><text class="cls-7" transform="translate(775.66 424.48)">l</text><text class="cls-7" transform="translate(762.96 424.48)">p</text><text class="cls-7" transform="translate(751.52 424.48)">e</text><text class="cls-7" transform="translate(739.78 424.48)">R</text><line class="cls-5" x1="702.97" y1="434.2" x2="933.97" y2="434.2"/><text class="cls-19" transform="translate(737.81 507.49)">topic-a/1</text><text class="cls-7" transform="translate(841.32 424.48)"><tspan class="cls-20">F</tspan><tspan x="10.88" y="0">ile</tspan><tspan class="cls-21" x="32.36" y="0">-</tspan><tspan class="cls-13" x="38.54" y="0">S</tspan><tspan x="49.72" y="0">to</tspan><tspan class="cls-11" x="68.28" y="0">r</tspan><tspan x="75.14" y="0">e</tspan></text><rect class="cls-4" x="881.27" y="496.77" width="17.07" height="10.44"/><rect class="cls-8" x="881.27" y="496.77" width="17.07" height="10.44"/><rect class="cls-4" x="864.2" y="496.77" width="17.07" height="10.44"/><rect class="cls-8" x="864.2" y="496.77" width="17.07" height="10.44"/><rect class="cls-14" x="866.03" y="498.91" width="13.41" height="5.91"/><rect class="cls-4" x="847.13" y="496.77" width="17.07" height="10.44"/><rect class="cls-8" x="847.13" y="496.77" width="17.07" height="10.44"/><rect class="cls-14" x="848.96" y="498.91" width="13.41" height="5.91"/><rect class="cls-4" x="898.34" y="496.77" width="17.07" height="10.44"/><rect class="cls-8" x="898.34" y="496.77" width="17.07" height="10.44"/><rect class="cls-14" x="883.14" y="499.04" width="13.41" height="5.91"/><text class="cls-18" transform="translate(392.73 466.84)">topic-a/0</text><rect class="cls-4" x="536.19" y="456.12" width="17.07" height="10.44"/><rect class="cls-8" x="536.19" y="456.12" width="17.07" height="10.44"/><rect class="cls-4" x="519.12" y="456.12" width="17.07" height="10.44"/><rect class="cls-8" x="519.12" y="456.12" width="17.07" height="10.44"/><rect class="cls-14" x="520.95" y="458.26" width="13.41" height="5.91"/><rect class="cls-4" x="502.06" y="456.12" width="17.07" height="10.44"/><rect class="cls-8" x="502.06" y="456.12" width="17.07" height="10.44"/><rect class="cls-14" x="503.89" y="458.26" width="13.41" height="5.91"/><rect class="cls-4" x="553.26" y="456.12" width="17.07" height="10.44"/><rect class="cls-8" x="553.26" y="456.12" width="17.07" height="10.44"/><rect class="cls-14" x="538.06" y="458.39" width="13.41" height="5.91"/><text class="cls-19" transform="translate(737.81 468.27)">topic-a/0</text><rect class="cls-4" x="881.27" y="457.55" width="17.07" height="10.44"/><rect class="cls-8" x="881.27" y="457.55" width="17.07" height="10.44"/><rect class="cls-4" x="864.2" y="457.55" width="17.07" height="10.44"/><rect class="cls-8" x="864.2" y="457.55" width="17.07" height="10.44"/><rect class="cls-14" x="866.03" y="459.7" width="13.41" height="5.91"/><rect class="cls-4" x="847.13" y="457.55" width="17.07" height="10.44"/><rect class="cls-8" x="847.13" y="457.55" width="17.07" height="10.44"/><rect class="cls-14" x="848.96" y="459.7" width="13.41" height="5.91"/><rect class="cls-4" x="898.34" y="457.55" width="17.07" height="10.44"/><rect class="cls-8" x="898.34" y="457.55" width="17.07" height="10.44"/><rect class="cls-14" x="883.14" y="459.82" width="13.41" height="5.91"/><text class="cls-6" transform="translate(393.12 507.49)">topic-a/1</text><rect class="cls-4" x="536.19" y="496.77" width="17.07" height="10.44"/><rect class="cls-8" x="536.19" y="496.77" width="17.07" height="10.44"/><rect class="cls-9" x="538.02" y="498.91" width="13.41" height="5.91"/><rect class="cls-4" x="519.12" y="496.77" width="17.07" height="10.44"/><rect class="cls-8" x="519.12" y="496.77" width="17.07" height="10.44"/><rect class="cls-9" x="520.95" y="498.91" width="13.41" height="5.91"/><rect class="cls-4" x="502.06" y="496.77" width="17.07" height="10.44"/><rect class="cls-8" x="502.06" y="496.77" width="17.07" height="10.44"/><rect class="cls-9" x="503.89" y="498.91" width="13.41" height="5.91"/><rect class="cls-4" x="553.26" y="496.77" width="17.07" height="10.44"/><rect class="cls-8" x="553.26" y="496.77" width="17.07" height="10.44"/><text class="cls-6" transform="translate(737.81 546.7)">topic-a/2</text><rect class="cls-4" x="880.8" y="535.98" width="17.3" height="10.44"/><rect class="cls-8" x="880.8" y="535.98" width="17.3" height="10.44"/><rect class="cls-9" x="882.65" y="538.13" width="13.6" height="5.91"/><rect class="cls-4" x="863.49" y="535.98" width="17.3" height="10.44"/><rect class="cls-8" x="863.49" y="535.98" width="17.3" height="10.44"/><rect class="cls-9" x="865.35" y="538.13" width="13.6" height="5.91"/><rect class="cls-4" x="846.19" y="535.98" width="17.3" height="10.44"/><rect class="cls-8" x="846.19" y="535.98" width="17.3" height="10.44"/><rect class="cls-9" x="848.04" y="538.13" width="13.6" height="5.91"/><rect class="cls-4" x="898.1" y="535.98" width="17.3" height="10.44"/><rect class="cls-8" x="898.1" y="535.98" width="17.3" height="10.44"/><rect class="cls-9" x="899.78" y="538.25" width="13.6" height="5.91"/><text class="cls-6" transform="translate(737.81 651.78)">topic-b/1</text><rect class="cls-4" x="881.27" y="641.06" width="17.07" height="10.44"/><rect class="cls-8" x="881.27" y="641.06" width="17.07" height="10.44"/><rect class="cls-4" x="864.2" y="641.06" width="17.07" height="10.44"/><rect class="cls-8" x="864.2" y="641.06" width="17.07" height="10.44"/><rect class="cls-4" x="847.13" y="641.06" width="17.07" height="10.44"/><rect class="cls-8" x="847.13" y="641.06" width="17.07" height="10.44"/><rect class="cls-9" x="848.96" y="643.2" width="13.41" height="5.91"/><rect class="cls-4" x="898.34" y="641.06" width="17.07" height="10.44"/><rect class="cls-8" x="898.34" y="641.06" width="17.07" height="10.44"/><text class="cls-19" transform="translate(737.81 611.45)">topic-b/0</text><rect class="cls-4" x="880.33" y="600.73" width="17.07" height="10.44"/><rect class="cls-8" x="880.33" y="600.73" width="17.07" height="10.44"/><rect class="cls-4" x="863.26" y="600.73" width="17.07" height="10.44"/><rect class="cls-8" x="863.26" y="600.73" width="17.07" height="10.44"/><rect class="cls-14" x="865.09" y="602.87" width="13.41" height="5.91"/><rect class="cls-4" x="846.19" y="600.73" width="17.07" height="10.44"/><rect class="cls-8" x="846.19" y="600.73" width="17.07" height="10.44"/><rect class="cls-14" x="848.02" y="602.87" width="13.41" height="5.91"/><rect class="cls-4" x="897.39" y="600.73" width="17.07" height="10.44"/><rect class="cls-8" x="897.39" y="600.73" width="17.07" height="10.44"/><text class="cls-19" transform="translate(394.71 651.78)">topic-b/1</text><rect class="cls-4" x="536.19" y="641.06" width="17.07" height="10.44"/><rect class="cls-8" x="536.19" y="641.06" width="17.07" height="10.44"/><rect class="cls-4" x="519.12" y="641.06" width="17.07" height="10.44"/><rect class="cls-8" x="519.12" y="641.06" width="17.07" height="10.44"/><rect class="cls-4" x="502.06" y="641.06" width="17.07" height="10.44"/><rect class="cls-8" x="502.06" y="641.06" width="17.07" height="10.44"/><rect class="cls-14" x="503.89" y="643.2" width="13.41" height="5.91"/><rect class="cls-4" x="553.26" y="641.06" width="17.07" height="10.44"/><rect class="cls-8" x="553.26" y="641.06" width="17.07" height="10.44"/><text class="cls-7" transform="translate(364.53 424.48)">L</text><text class="cls-7" transform="translate(711.09 424.48)">L</text><text class="cls-7" transform="translate(19.89 426)">L</text><line class="cls-5" x1="22" y1="576.72" x2="240.69" y2="576.72"/><line class="cls-5" x1="362.41" y1="572.19" x2="581.1" y2="572.19"/><line class="cls-5" x1="707.49" y1="572.19" x2="926.18" y2="572.19"/><text class="cls-3" transform="translate(253.71 18.79)">SC</text><rect class="cls-4" x="236.65" y="30.25" width="470.22" height="189.43" rx="4"/><rect class="cls-5" x="236.65" y="30.25" width="470.22" height="189.43" rx="4"/><text class="cls-7" transform="translate(388.46 62.96)">LRS</text><rect class="cls-4" x="393.25" y="88.1" width="24.12" height="27.22"/><rect class="cls-5" x="393.25" y="88.1" width="24.12" height="27.22"/><text class="cls-22" transform="translate(400.67 106.71)">2</text><rect class="cls-4" x="417.37" y="88.1" width="24.12" height="27.22"/><rect class="cls-5" x="417.37" y="88.1" width="24.12" height="27.22"/><text class="cls-22" transform="translate(424.79 106.71)">3</text><rect class="cls-23" x="369.14" y="88.1" width="24.12" height="27.22"/><rect class="cls-5" x="369.14" y="88.1" width="24.12" height="27.22"/><text class="cls-24" transform="translate(376.55 106.71)">1</text><text class="cls-25" transform="translate(260.75 107.3)">topic-a/0</text><text class="cls-7" transform="translate(253.71 63.44)">D<tspan class="cls-26" x="15.14" y="0">a</tspan><tspan class="cls-27" x="25.62" y="0">ta </tspan><tspan class="cls-13" x="47.64" y="0">S</tspan><tspan x="58.82" y="0">t</tspan><tspan class="cls-11" x="65.16" y="0">r</tspan><tspan class="cls-28" x="72.02" y="0">e</tspan><tspan x="83.36" y="0">am</tspan></text><line class="cls-5" x1="255.75" y1="74.44" x2="440.29" y2="74.44"/><rect class="cls-4" x="369.14" y="129.55" width="24.12" height="27.22"/><rect class="cls-5" x="369.14" y="129.55" width="24.12" height="27.22"/><text class="cls-22" transform="translate(376.55 148.16)">1</text><rect class="cls-4" x="417.52" y="129.55" width="24.12" height="27.22"/><rect class="cls-5" x="417.52" y="129.55" width="24.12" height="27.22"/><text class="cls-22" transform="translate(424.94 148.16)">3</text><rect class="cls-23" x="393.25" y="129.55" width="24.12" height="27.22"/><rect class="cls-5" x="393.25" y="129.55" width="24.12" height="27.22"/><text class="cls-24" transform="translate(400.67 148.16)">2</text><text class="cls-25" transform="translate(260.75 148.93)">topic-a/1</text><rect class="cls-4" x="369.14" y="171.54" width="24.12" height="27.22"/><rect class="cls-5" x="369.14" y="171.54" width="24.12" height="27.22"/><text class="cls-22" transform="translate(376.55 190.15)">1</text><rect class="cls-4" x="393.25" y="171.54" width="24.12" height="27.22"/><rect class="cls-5" x="393.25" y="171.54" width="24.12" height="27.22"/><text class="cls-22" transform="translate(400.67 190.15)">2</text><rect class="cls-23" x="417.37" y="171.54" width="24.12" height="27.22"/><rect class="cls-5" x="417.37" y="171.54" width="24.12" height="27.22"/><text class="cls-24" transform="translate(424.79 190.15)">3</text><text class="cls-25" transform="translate(260.75 190.56)">topic-a/2</text><rect class="cls-4" x="649.77" y="88.1" width="24.12" height="27.22"/><rect class="cls-5" x="649.77" y="88.1" width="24.12" height="27.22"/><text class="cls-22" transform="translate(657.19 106.71)">3</text><rect class="cls-23" x="625.58" y="88.1" width="24.12" height="27.22"/><rect class="cls-5" x="625.58" y="88.1" width="24.12" height="27.22"/><text class="cls-24" transform="translate(633 106.71)">1</text><text class="cls-6" transform="translate(509.76 107.21)">topic-b/0</text><rect class="cls-4" x="649.77" y="130.92" width="24.12" height="27.22"/><rect class="cls-5" x="649.77" y="130.92" width="24.12" height="27.22"/><text class="cls-22" transform="translate(657.19 149.53)">2</text><rect class="cls-23" x="625.58" y="130.92" width="24.12" height="27.22"/><rect class="cls-5" x="625.58" y="130.92" width="24.12" height="27.22"/><text class="cls-24" transform="translate(633 149.53)">3</text><text class="cls-6" transform="translate(509.76 148.66)">topic-b/1</text><text class="cls-7" transform="translate(630.58 62.96)">LRS</text><line class="cls-5" x1="504.76" y1="74.44" x2="689.3" y2="74.44"/><line class="cls-5" x1="288.99" y1="251.47" x2="199.03" y2="321.26"/><path class="cls-29" d="M212.83,336.82l-8.16,2.53,4.49-7.27m-4.49,7.27,6.32-4.9" transform="translate(-11.97 -13.19)"/><line class="cls-5" x1="481.84" y1="246.89" x2="481.84" y2="317.43"/><path class="cls-29" d="M496.81,330.62l-3,8-3-8m3,8v-8" transform="translate(-11.97 -13.19)"/><line class="cls-5" x1="657.79" y1="251.47" x2="747.75" y2="321.26"/><path class="cls-29" d="M761.56,332.08l4.48,7.27-8.16-2.53m8.16,2.53-6.32-4.9" transform="translate(-11.97 -13.19)"/><text class="cls-7" transform="translate(500.86 64.39)">D<tspan class="cls-26" x="15.14" y="0">a</tspan><tspan class="cls-27" x="25.62" y="0">ta </tspan><tspan class="cls-13" x="47.64" y="0">S</tspan><tspan x="58.82" y="0">t</tspan><tspan class="cls-17" x="65.16" y="0">r</tspan><tspan class="cls-28" x="72.02" y="0">e</tspan><tspan x="83.36" y="0">am</tspan></text><polygon class="cls-15" points="34.42 597.81 36.65 600.71 23.65 617.12 17.34 609.4 19.57 606.5 23.65 611.33 34.42 597.81"/><polygon class="cls-15" points="379.5 492.33 381.73 495.23 368.73 511.65 362.42 503.92 364.64 501.02 368.73 505.85 379.5 492.33"/><polygon class="cls-15" points="724.07 531.55 726.29 534.44 713.29 550.86 706.98 543.14 709.21 540.24 713.29 545.07 724.07 531.55"/><polygon class="cls-15" points="724.07 636.62 726.29 639.52 713.29 655.94 706.98 648.21 709.21 645.32 713.29 650.14 724.07 636.62"/></g></svg>