<svg id="Layer_1" data-name="Layer 1" xmlns="http://www.w3.org/2000/svg" xmlns:xlink="http://www.w3.org/1999/xlink" viewBox="0 0 522.29 375.19"><defs><style>.cls-1,.cls-16,.cls-19,.cls-4,.cls-7{fill:none;}.cls-2{clip-path:url(#clip-path);}.cls-3,.cls-6{fill:#fff;}.cls-16,.cls-4{stroke:#45338e;}.cls-4,.cls-7{stroke-linecap:round;}.cls-19,.cls-4,.cls-7{stroke-linejoin:round;}.cls-5{fill:#8266a8;}.cls-6{font-size:15px;}.cls-6,.cls-8{font-family:AvenirNext-Regular, Avenir Next;}.cls-7{stroke:#45328d;stroke-width:1.5px;}.cls-8{font-size:16px;}.cls-18,.cls-8{fill:#45338e;}.cls-9{letter-spacing:-0.01em;}.cls-10{letter-spacing:-0.02em;}.cls-11{letter-spacing:-0.01em;}.cls-12{letter-spacing:-0.05em;}.cls-13{letter-spacing:0em;}.cls-14{letter-spacing:-0.02em;}.cls-15{letter-spacing:-0.01em;}.cls-16{stroke-miterlimit:10;stroke-width:1.25px;}.cls-17{letter-spacing:-0.02em;}.cls-19{stroke:#fff;stroke-width:0.25px;}</style><clipPath id="clip-path" transform="translate(-104.93 -40.42)"><rect class="cls-1" x="104.34" y="35.36" width="523" height="381"/></clipPath></defs><g class="cls-2"><rect class="cls-3" x="0.5" y="66.44" width="521.29" height="308.25" rx="6"/><rect class="cls-4" x="0.5" y="66.44" width="521.29" height="308.25" rx="6"/><rect class="cls-5" x="0.5" y="183.44" width="521.29" height="31.22"/><rect class="cls-4" x="0.5" y="183.44" width="521.29" height="31.22"/><rect class="cls-5" x="103.89" y="192.66" width="314.52" height="14.59"/><text class="cls-6" transform="translate(194.87 204.95)">Language Bindings</text><rect class="cls-3" x="279.31" y="275.69" width="212.41" height="71.59"/><rect class="cls-7" x="279.31" y="275.69" width="212.41" height="71.59"/><text class="cls-8" transform="translate(290.08 305.48)"><tspan class="cls-9">S</tspan><tspan x="8.93" y="0">t</tspan><tspan class="cls-10" x="14" y="0">r</tspan><tspan class="cls-11" x="19.49" y="0">e</tspan><tspan x="28.56" y="0">aming </tspan><tspan class="cls-12" x="78.64" y="0">P</tspan><tspan class="cls-10" x="87.17" y="0">r</tspan><tspan class="cls-13" x="92.65" y="0">ocessing Unit</tspan></text><text class="cls-8" transform="translate(365.88 327.48)">(SPU)</text><rect class="cls-3" x="29.87" y="275.69" width="212.41" height="71.59"/><rect class="cls-7" x="29.87" y="275.69" width="212.41" height="71.59"/><text class="cls-8" transform="translate(59.92 305.48)"><tspan class="cls-11">S</tspan><tspan x="8.94" y="0">t</tspan><tspan class="cls-14" x="14.02" y="0">r</tspan><tspan class="cls-11" x="19.5" y="0">e</tspan><tspan x="28.58" y="0">aming </tspan><tspan class="cls-15" x="78.65" y="0">C</tspan><tspan x="90" y="0">ont</tspan><tspan class="cls-14" x="114.14" y="0">r</tspan><tspan x="119.63" y="0">oller</tspan></text><text class="cls-8" transform="translate(121 327.48)">(SC)</text><line class="cls-16" x1="135.57" y1="257.75" x2="135.57" y2="232.59"/><path class="cls-16" d="M237.35,273l3.15-8.4,3.15,8.4m-3.15-8.4V273" transform="translate(-104.93 -40.42)"/><path class="cls-16" d="M243.65,298.18l-3.15,8.4-3.15-8.4m3.15,8.4v-8.4" transform="translate(-104.93 -40.42)"/><line class="cls-16" x1="389.4" y1="257.75" x2="389.4" y2="232.59"/><path class="cls-16" d="M491.19,273l3.15-8.4,3.15,8.4m-3.15-8.4V273" transform="translate(-104.93 -40.42)"/><path class="cls-16" d="M497.49,298.18l-3.15,8.4-3.15-8.4m3.15,8.4v-8.4" transform="translate(-104.93 -40.42)"/><rect class="cls-5" x="0.5" y="57.97" width="521.29" height="31.22"/><rect class="cls-4" x="0.5" y="57.97" width="521.29" height="31.22"/><rect class="cls-5" x="103.89" y="67.19" width="314.52" height="14.59"/><text class="cls-6" transform="translate(220.17 79.48)">External<tspan class="cls-17" x="55.38" y="0"> </tspan><tspan x="58.87" y="0">API</tspan></text><path class="cls-18" d="M282.54,152.81c-3.08,2.06-6.37,4.3-8.22,7.86-3.08,6.54,6.58,13.46,7,13.83a.71.71,0,0,0,.41.19c.2,0,.2,0,.41-.19a.65.65,0,0,0,.2-.56s-3.49-6.36-3.28-10.84c0-1.5,2.46-3.37,4.93-5.24,2.26-1.68,4.93-3.74,6.37-6,2.87-5-.82-10.1-.82-10.1a.81.81,0,0,0-.62-.19c-.21.19-.41.38-.21.56a9.58,9.58,0,0,1-1.23,6.74C286.44,150.38,284.59,151.5,282.54,152.81Z" transform="translate(-104.93 -40.42)"/><path class="cls-18" d="M295.28,155.06a.68.68,0,0,0,.2-.57c-.2-.18-.41-.37-.61-.18-.41.18-12.54,4.49-12.54,9.72a9.92,9.92,0,0,0,2.88,6.92,6.49,6.49,0,0,1,1,1.5c.41,1.12-.62,3.17-.82,3.92-.21.19,0,.38.2.56a.75.75,0,0,0,.41.19h.21c.2-.19,5.13-3.37,4.11-7.11a8.74,8.74,0,0,0-1.85-3.55c-1-1.49-1.85-2.43-.62-4.49C289.11,159.36,295.28,155.06,295.28,155.06Z" transform="translate(-104.93 -40.42)"/><path class="cls-18" d="M264.05,176.93a1.66,1.66,0,0,0,.21,1.69c1.23,1.68,5.95,2.61,12.94,2.61h3.08c11.3-.37,15.61-3.74,15.61-3.74a.63.63,0,0,0,.21-.56c-.21-.18-.41-.37-.62-.18-3.9.93-11.5,1.31-16.64,1.31-5.75,0-8.63-.38-9.45-.75.41-.56,2.67-1.31,5.55-1.87.2,0,.41-.38.41-.56s-.21-.38-.62-.38C273.09,174.5,264.87,174.5,264.05,176.93Z" transform="translate(-104.93 -40.42)"/><path class="cls-18" d="M301.85,173.57a15,15,0,0,0-4.72,1.12c-.21.19-.41.37-.21.56,0,.19.21.37.62.37,0,0,4.93,0,5.34,2.62.41,2.25-4.73,6-6.58,7.11a.65.65,0,0,0-.2.56.41.41,0,0,0,.41.37h.21c.41-.18,11.5-2.43,10.27-8.41C306.17,174.32,303.7,173.57,301.85,173.57Z" transform="translate(-104.93 -40.42)"/><path class="cls-18" d="M294.25,184.79a.63.63,0,0,0-.21-.56l-2.67-1.69c-.2,0-.2-.18-.41,0a47.33,47.33,0,0,1-6.78,1.12,44.44,44.44,0,0,1-5.13.19c-4.11,0-6.58-.37-7-.75v-.18c0-.19.41-.38.62-.56.2,0,.41-.38.41-.57s-.41-.37-.62-.37c-2.67.56-3.9,1.5-3.9,2.43.21,1.87,4.73,2.81,8.63,3h1.85c6.57,0,14.79-1.87,15-1.87C294,185.16,294.25,185,294.25,184.79Z" transform="translate(-104.93 -40.42)"/><path class="cls-18" d="M274.32,188.71a.63.63,0,0,0,.21-.56c0-.18-.21-.37-.62-.37s-3.49.19-3.7,2.06a3.31,3.31,0,0,0,.41,1.49q1.54,2,9.25,2.25h1.85c6.57,0,10.89-1.87,11.09-2.06.21,0,.21-.19.21-.38s0-.37-.21-.37l-3.28-1.87h-.42s-2.05.37-5.34.75c-.61,0-1.44.19-2.26.19a38.18,38.18,0,0,1-7.39-.75C274.12,188.9,274.12,188.9,274.32,188.71Z" transform="translate(-104.93 -40.42)"/><path class="cls-18" d="M278.84,199.37c14.79,0,22.81-2.43,24.45-4.11a1.34,1.34,0,0,0,.62-1.31c-.21-.75-1-1.31-1-1.5-.21-.18-.62-.18-.62,0a.34.34,0,0,0,0,.56c0,.19.21.38-.2.57-.62.56-6.78,2.24-17.05,2.61-1.44,0-2.88.19-4.32.19-9.24,0-16-1.12-16.85-1.87a19.53,19.53,0,0,1,5.35-1.68c.2,0,.41-.38.41-.56-.41,0-.62-.19-1-.19H268c-4.11.19-9,.75-9.24,2.8a2.85,2.85,0,0,0,.61,1.69C260.35,197.88,263.64,199.37,278.84,199.37Z" transform="translate(-104.93 -40.42)"/><path class="cls-18" d="M306.17,195.82a.8.8,0,0,0-.62.19s-2.26,2.24-9,3.55c-2.67.56-7.4.75-14.38.75s-13.56-.19-13.77-.19-.61.19-.61.37.2.56.41.56a86.51,86.51,0,0,0,16.43,1.5,98.66,98.66,0,0,0,13.15-.93c7.81-1.31,8.43-4.87,8.43-5.05C306.58,196,306.37,195.82,306.17,195.82Z" transform="translate(-104.93 -40.42)"/><path class="cls-18" d="M210.23,172.93a1.44,1.44,0,1,1,2.62,1.18,1.44,1.44,0,1,1-2.62-1.18Zm-16.87-14.3a1.48,1.48,0,0,1,2,0,1.81,1.81,0,0,1,0,2.19,1.48,1.48,0,0,1-2,0A1.81,1.81,0,0,1,193.36,158.63ZM212.19,179v1.35h-1.8c-.16,0-.16.17-.16.33v.85a2.36,2.36,0,0,1-2.13,2.69,1.88,1.88,0,0,1-2.13-1c-.49-3.2-1.47-3.87-2.95-5.05,1.81-1.18,3.61-2.86,3.61-5.21a6,6,0,0,0-2.79-4.88,6.89,6.89,0,0,0-3.76-1.34H181.41a18.2,18.2,0,0,1,9.82-5.89l2.3,2.35a1.25,1.25,0,0,0,1.8,0l2.45-2.52a17.72,17.72,0,0,1,12.12,9.08l-1.64,4a1.44,1.44,0,0,0,.66,1.85l3.27,1.51Zm-21.77-3v-3.54h6.05c.33,0,2.13.34,2.13,1.85,0,1.18-1.47,1.69-2.62,1.69ZM177,177.13l2.95-1.51a1.43,1.43,0,0,0,.65-1.85l-.49-1.51h2.46V184.2h-5.08a17.93,17.93,0,0,1-.66-5A8.16,8.16,0,0,1,177,177.13Zm1.64-4.2a1.65,1.65,0,0,1-.66,2,1.48,1.48,0,0,1-2-.84,1.64,1.64,0,0,1,.65-2A1.44,1.44,0,0,1,178.63,172.93Zm5.4,23.38a1.37,1.37,0,0,1-1.64-1.18,1.56,1.56,0,0,1,1.15-1.85,1.35,1.35,0,0,1,1.64,1.18A1.56,1.56,0,0,1,184,196.31Zm20-4.88a1.44,1.44,0,0,0-1.64,1l-.66,3.53a18.15,18.15,0,0,1-7.36,1.68A17.61,17.61,0,0,1,187,196l-.66-3.53a1.35,1.35,0,0,0-1.64-1l-2.94.67c-.49-.67-1-1.18-1.48-1.85h14.41c.17,0,.33,0,.33-.17V184.7c0-.17-.16-.17-.33-.17h-4.25v-3.36H195a2.92,2.92,0,0,1,2.78,2.52c.17.67.66,3.2.82,4,.33.84,1.48,2.69,2.62,2.69h7.54a20.49,20.49,0,0,1-1.64,2Zm.82,4.88a1.56,1.56,0,0,1-1.15-1.85,1.42,1.42,0,0,1,1.64-1.18,1.54,1.54,0,0,1,1.14,1.85A1.43,1.43,0,0,1,204.83,196.31Zm13.59-17.66-2.13-1.35v-.67l1.8-1.68c.16-.17.33-.51.16-.68a.53.53,0,0,0-.49-.5l-2.29-.84c0-.17-.16-.34-.16-.67l1.47-2a.54.54,0,0,0,0-.68l-.49-.5-2.29-.34c-.17-.16-.17-.33-.33-.5l1-2.36c.16-.16,0-.5,0-.67a.83.83,0,0,0-.65-.33h-2.46c-.16-.17-.16-.34-.33-.51l.49-2.35a1.07,1.07,0,0,0-.16-.68c-.16-.16-.33-.16-.66-.16l-2.29.5c-.16-.17-.33-.17-.49-.34V158.8a1.24,1.24,0,0,0-.33-.67.48.48,0,0,0-.65,0l-2.13,1c-.16-.17-.33-.34-.49-.34l-.33-2.52c0-.17-.16-.51-.33-.51-.16-.16-.49,0-.65,0l-2,1.52c-.16,0-.32-.17-.65-.17l-.82-2.35a.76.76,0,0,0-.49-.51,1,1,0,0,0-.66.17L197,156.28h-.66L195,154.09c0-.17-.33-.33-.49-.33a1.25,1.25,0,0,0-.66.33l-1.31,2.19h-.65l-1.64-1.85c-.16-.17-.33-.34-.65-.17a.53.53,0,0,0-.49.51l-.66,2.35c-.16,0-.33.17-.65.17l-2-1.52a.5.5,0,0,0-.65,0c-.17.17-.33.34-.33.51l-.49,2.52c-.17.17-.33.17-.49.34l-2.13-1c-.17-.17-.49,0-.66,0s-.33.34-.33.67v2.52c-.16.17-.32.17-.49.34l-2.29-.5a1,1,0,0,0-.65.16c-.17.17-.17.34-.17.68l.49,2.35c0,.17-.16.34-.32.51h-2.46a.57.57,0,0,0-.49,1l1,2.36c-.16,0-.33.17-.33.5l-2.29.34a.53.53,0,0,0-.49.5c-.16.17,0,.51,0,.68l1.31,2c0,.16-.16.33-.16.67l-2.3.84c-.16,0-.32.34-.49.5a1,1,0,0,0,.17.68l1.8,1.68v.67l-2,1.35a.87.87,0,0,0-.33.67,1.32,1.32,0,0,0,.33.67l2,1.35V182l-1.8,1.68c-.17.17-.33.51-.17.67a.54.54,0,0,0,.49.51l2.46.84c0,.17.16.34.16.67l-1.47,2a.53.53,0,0,0,0,.67l.49.51,2.29.33c.17.17.17.34.33.51l-1,2.35c-.17.17,0,.51,0,.68a.86.86,0,0,0,.65.33h2.46c.16.17.16.34.33.51l-.49,2.35a1,1,0,0,0,.16.67c.16.17.33.17.65.17l2.3-.5c.16.17.32.17.49.33v2.53a1.24,1.24,0,0,0,.33.67.48.48,0,0,0,.65,0l2.13-1c.16.17.33.17.49.34l.33,2.52c0,.17.16.5.33.5.16.17.49,0,.65,0l2-1.51c.16,0,.32.17.65.17l.82,2.35a.76.76,0,0,0,.49.51,1,1,0,0,0,.66-.17l1.63-1.85h.66l1.31,2.19a.86.86,0,0,0,.65.33,1.29,1.29,0,0,0,.66-.33l1.31-2.19h.65l1.64,1.85c.16.17.33.34.66.17a.53.53,0,0,0,.49-.51l.82-2.35c.16,0,.32-.17.65-.17l2,1.51a.48.48,0,0,0,.65,0c.16-.16.33-.33.33-.5l.33-2.52c.16-.17.32-.17.49-.34l2.13,1c.16.17.49,0,.65,0s.33-.34.33-.67v-2.53c.16-.16.33-.16.49-.33l2.29.5a1,1,0,0,0,.66-.17,1,1,0,0,0,.16-.67l-.82-2.52c.17-.17.17-.34.33-.51H214a1.19,1.19,0,0,0,.65-.33.53.53,0,0,0,0-.67l-1-2.36c.16-.17.16-.34.33-.5l2.29-.34a.53.53,0,0,0,.49-.5c.16-.17,0-.51,0-.68l-1.47-2c0-.16.16-.33.16-.67l2.29-.84c.17,0,.33-.34.49-.5s0-.51-.16-.68l-1.8-1.68v-.67l2-1.35a.84.84,0,0,0,.33-.67C218.74,179,218.58,178.81,218.42,178.65Z" transform="translate(-104.93 -40.42)"/><path class="cls-18" d="M365.56,163.69a1.07,1.07,0,0,1-1-1,1,1,0,0,1,1-1,1.07,1.07,0,0,1,1,1C366.72,163.2,366.22,163.69,365.56,163.69Zm14.74.83a8.33,8.33,0,0,0-8.28-8.43h-1.83a8.34,8.34,0,0,0-8.28,8.43,1.28,1.28,0,0,0,1.16,1.32H371v2H358.93a8.34,8.34,0,0,0-8.29,8.43v1.82a8.34,8.34,0,0,0,8.29,8.43h1.66a1.17,1.17,0,0,0,1.15-1.32V179.4a1.28,1.28,0,0,1,1.16-1.32H379a1.18,1.18,0,0,0,1.16-1.32Z" transform="translate(-104.93 -40.42)"/><path class="cls-18" d="M378.48,194.78a1.06,1.06,0,0,1,1,1,1,1,0,0,1-1,1,1,1,0,1,1,0-2Zm6.79-23h-1.66a1.18,1.18,0,0,0-1.16,1.32v5.79a1.27,1.27,0,0,1-1.16,1.32H365.06a1.18,1.18,0,0,0-1.16,1.32v12.57a8.33,8.33,0,0,0,8.28,8.43h1.66a8.33,8.33,0,0,0,8.28-8.43A1.27,1.27,0,0,0,381,192.8H373v-2h12.1a8.34,8.34,0,0,0,8.28-8.43v-1.82A8.29,8.29,0,0,0,385.27,171.8Z" transform="translate(-104.93 -40.42)"/><path class="cls-18" d="M465.27,186.46c-7.7,0-9.28-3.42-9.28-6.38,0-.3.16-.45.47-.45h2.36c.32,0,.47.15.47.45.32,2.22,1.42,3.41,6.13,3.41,3.78,0,5.35-.74,5.35-2.67,0-1-.47-1.93-6.29-2.53-4.87-.44-7.86-1.48-7.86-5.19,0-3.41,3-5.49,8-5.49,5.66,0,8.48,1.93,8.8,5.93a.53.53,0,0,1-.16.45c-.16.15-.16.15-.31.15h-2.36a.49.49,0,0,1-.47-.45c-.47-2.37-1.89-3.11-5.5-3.11-4.09,0-4.56,1.33-4.56,2.37,0,1.19.63,1.63,6.13,2.38s8,1.63,8,5.34C474.07,184.38,470.92,186.46,465.27,186.46ZM459.92,200a4.32,4.32,0,0,1-1.88-.45l-5.82-3.41c-.94-.45-.47-.6-.16-.74a10.85,10.85,0,0,0,2.68-1.19c.15-.15.31,0,.47,0l4.56,2.67c.15.15.47.15.47,0l17.6-9.95c.16-.14.31-.29.31-.44v-19.6c0-.14-.15-.44-.31-.44l-17.76-9.8c-.16-.15-.47-.15-.47,0l-17.6,9.8c-.16.15-.32.3-.32.44v19.75c0,.15.16.44.32.44l4.87,2.67c2.67,1.34,4.24-.14,4.24-1.78V168.65c0-.3.16-.45.47-.45h2.2c.32,0,.47.15.47.45v19.44c0,3.42-1.88,5.35-5.18,5.35a8.06,8.06,0,0,1-4.09-1l-4.71-2.53a3.87,3.87,0,0,1-1.73-3.26V167a3.3,3.3,0,0,1,1.88-3.11L458,154a4.24,4.24,0,0,1,3.77,0l17.6,10A3.58,3.58,0,0,1,481.3,167v19.75a3.3,3.3,0,0,1-1.89,3.11l-17.6,9.95A8,8,0,0,1,459.92,200Z" transform="translate(-104.93 -40.42)"/><path class="cls-18" d="M526.94,178.56c0,1.31,1.32.65,2,.33s.65,0,.82-.81v-1.47a3.42,3.42,0,0,0-2.47.65c-.49.17-1.15,1-.33,1.3" transform="translate(-104.93 -40.42)"/><path class="cls-18" d="M529.41,176.61a2.91,2.91,0,0,0-2,.65,1.5,1.5,0,0,0-.66,1c0,.16.16.16.16.32a1.23,1.23,0,0,0,.33.65,1.33,1.33,0,0,0,1.48-.48.6.6,0,0,1,.5-.17c.16,0,.16,0,.32-.48v-1.3Zm-1.81,2.93c-.16,0-.33,0-.33-.16a.9.9,0,0,1-.49-.82.35.35,0,0,1-.33-.32,1.65,1.65,0,0,1,.66-1.14,3.77,3.77,0,0,1,2.63-.65h.16v1.63c0,.48-.16.65-.49.65-.16,0-.33.16-.49.16A3.4,3.4,0,0,1,527.6,179.54Z" transform="translate(-104.93 -40.42)"/><path class="cls-18" d="M529.9,163c-5.09-1.3-1.31-7.64,2.8-5Z" transform="translate(-104.93 -40.42)"/><path class="cls-18" d="M530.72,157.43a3.24,3.24,0,0,0-1.64.49,3,3,0,0,0-1.48,2.77,2.83,2.83,0,0,0,2.3,2.11l2.63-4.88A3.38,3.38,0,0,0,530.72,157.43Zm-.65,5.69c-1.65-.32-2.47-1.13-2.63-2.27a3.61,3.61,0,0,1,1.48-3.25,3.23,3.23,0,0,1,3.78.16h.16Z" transform="translate(-104.93 -40.42)"/><path class="cls-18" d="M552.42,157.43c4-2.76,7.56,3.42,3,5Z" transform="translate(-104.93 -40.42)"/><path class="cls-18" d="M552.59,157.43l2.79,4.88a2.82,2.82,0,0,0,2-2.27,3.46,3.46,0,0,0-1.48-2.93A3.32,3.32,0,0,0,552.59,157.43Zm2.63,5.21-3.13-5.21h.17a3.26,3.26,0,0,1,3.61-.32,3.07,3.07,0,0,1,1.65,3.09C557.52,160.85,557.19,162,555.22,162.64Z" transform="translate(-104.93 -40.42)"/><path class="cls-18" d="M553.24,194.49c1,.65,2.8,2.44,1.32,3.42-1.48,1.3-2.3-1.47-3.62-1.79A4.08,4.08,0,0,1,553.24,194.49Z" transform="translate(-104.93 -40.42)"/><path class="cls-18" d="M551.11,196.12a3.79,3.79,0,0,1,1.15,1.14,2.58,2.58,0,0,0,1.31,1,.86.86,0,0,0,.66-.32.9.9,0,0,0,.49-.82c0-.81-1.15-2-1.8-2.43A5,5,0,0,0,551.11,196.12Zm2.63,2.27c-.66,0-1.15-.65-1.65-1.13a4.35,4.35,0,0,0-1.31-1.14h-.17l.17-.16a3.36,3.36,0,0,1,2.3-1.63h.16c.66.33,2,1.63,2,2.6a1.11,1.11,0,0,1-.66,1A.91.91,0,0,1,553.74,198.39Z" transform="translate(-104.93 -40.42)"/><path class="cls-18" d="M554.56,198.07h0c-.17-.16-.33-.33-.33-.49-.16-.32-.16-.65-.49-.81v-.16h.16c.17.32.49.65.49,1,0,.16.17.33.17.49C554.72,197.91,554.72,198.07,554.56,198.07Z" transform="translate(-104.93 -40.42)"/><path class="cls-18" d="M535.16,196.77c-1.15.16-1.81,1.3-2.79,1.79a.81.81,0,0,1-1.15,0,.59.59,0,0,1-.17-.33c-.16,0-.33,0-.33-.16-.82-1.3.83-2.28,1.81-3.09C533.68,194.66,534.34,195.79,535.16,196.77Z" transform="translate(-104.93 -40.42)"/><path class="cls-18" d="M530.72,198.07h.17v.16l.49.49a1,1,0,0,0,.66-.16,4.48,4.48,0,0,0,1-.82,3.41,3.41,0,0,1,1.64-1c-.66-.81-1.32-1.79-2.47-1.46H532c-1,.65-2.14,1.46-1.48,2.6Zm.83.65h-.17a2.35,2.35,0,0,1-.66-.49c-.16,0-.32,0-.32-.16-.83-1.3.65-2.28,1.48-2.93l.32-.16c1.32-.32,2.14.81,2.8,1.63l.33.32h-.17a4,4,0,0,0-1.81,1,7.24,7.24,0,0,1-1.15.65A.49.49,0,0,1,531.55,198.72Z" transform="translate(-104.93 -40.42)"/><path class="cls-18" d="M530.89,198.23h0l-.17-.16a2.38,2.38,0,0,1,.33-1,.35.35,0,0,0,.33-.32s.17-.16.17,0c0,0,.16.16,0,.16,0,.16-.17.33-.33.49a2.83,2.83,0,0,1-.33.81Z" transform="translate(-104.93 -40.42)"/><path class="cls-18" d="M558.83,178.4c0,1.3-1.31.65-2,.33s-.66,0-.82-.82v-1.46a3.34,3.34,0,0,1,2.46.65c.33.16,1,1,.33,1.3" transform="translate(-104.93 -40.42)"/><path class="cls-18" d="M556.2,176.45v1.3c0,.49,0,.49.33.49.17,0,.33.16.49.16a2.3,2.3,0,0,0,1.48.49.83.83,0,0,0,.33-.65v-.16c.17,0,.17-.17.17-.33,0-.32-.33-.65-.66-1A9.33,9.33,0,0,0,556.2,176.45Zm2,2.76a1.9,1.9,0,0,1-1.32-.48.59.59,0,0,0-.49-.17c-.33-.16-.33-.16-.5-.65v-1.62H556a3.78,3.78,0,0,1,2.63.65,1.63,1.63,0,0,1,.66,1.14c0,.16-.17.32-.33.48a.91.91,0,0,1-.5.82C558.5,179.21,558.34,179.38,558.18,179.21Z" transform="translate(-104.93 -40.42)"/><path class="cls-18" d="M542.4,154.83c5.09,0,9.69.65,12.32,5.53,2.14,5.36,1.32,11.22,1.81,16.9.33,4.88,1,10.57-1.31,15.12-2.47,4.71-8.39,5.85-13.32,5.69-3.94-.16-8.55-1.3-10.85-4.88-2.63-4.06-1.31-10.24-1.15-14.79.17-5.36-1.48-10.89.33-16.25,1.65-5.69,6.74-7,12.17-7.32" transform="translate(-104.93 -40.42)"/><path class="cls-18" d="M542.4,154.83c-5.26.49-10.36,1.63-12.33,7.16-1.15,3.41-.82,7-.5,10.4a34.67,34.67,0,0,1,.17,5.85,15.94,15.94,0,0,1-.17,2.76c-.32,4.07-.65,8.62,1.32,11.87.82,1.3,3.62,4.55,10.68,4.87,3.13.17,10.52-.16,13.32-5.68,2-4.07,1.64-9.11,1.48-13.5a4.32,4.32,0,0,0-.17-1.46c0-1.46-.16-3.09-.16-4.55,0-4.06,0-8.29-1.65-12.19a8.75,8.75,0,0,0-5.09-4.55A24.43,24.43,0,0,0,542.4,154.83Zm.16,43.24h-1a19.21,19.21,0,0,1-6.08-1.14,9.87,9.87,0,0,1-4.77-3.74c-2.13-3.41-1.64-8-1.31-12a18.06,18.06,0,0,0,.16-2.93,35.87,35.87,0,0,0-.32-5.85c-.33-3.42-.5-7,.65-10.4a9.15,9.15,0,0,1,4.77-5.69c1.81-1,4.11-1.47,7.56-1.63,4.93,0,9.86.65,12.49,5.53,1.65,3.9,1.65,8.12,1.65,12.19,0,1.46,0,3.09.16,4.71a4.27,4.27,0,0,0,.17,1.46c.32,4.56.65,9.59-1.48,13.66C552.59,197.42,546,198.07,542.56,198.07Z" transform="translate(-104.93 -40.42)"/><path class="cls-3" d="M543.22,161.5c1,5.2,9.53,3.9,8.22-1.46-1-4.72-8.55-3.42-8.22,1.46" transform="translate(-104.93 -40.42)"/><path class="cls-18" d="M543.38,161.5a3.73,3.73,0,0,0,2.47,2.92,5.12,5.12,0,0,0,4.6-.81,3.37,3.37,0,0,0,1-3.41,4.14,4.14,0,0,0-8.06,1.3Zm4,3.41a6,6,0,0,1-1.65-.32,3.64,3.64,0,0,1-1.48-6.18,4.94,4.94,0,0,1,5.59-.81A3.37,3.37,0,0,1,551.6,160a3.64,3.64,0,0,1-1.15,3.73A5.22,5.22,0,0,1,547.33,164.91Z" transform="translate(-104.93 -40.42)"/><path class="cls-3" d="M533,162.31c1.15,4.55,8.38,3.41,8.21-1.14-.32-5.52-9.36-4.39-8.21,1.14" transform="translate(-104.93 -40.42)"/><path class="cls-18" d="M533,162.31a3.81,3.81,0,0,0,4.6,2.76c1.81-.32,3.61-1.62,3.45-3.9a3.33,3.33,0,0,0-2.14-3.09,4.36,4.36,0,0,0-4.6.65A3.41,3.41,0,0,0,533,162.31Zm3.78,2.93a5.21,5.21,0,0,1-2.14-.49,3.55,3.55,0,0,1-1.81-2.44,3.92,3.92,0,0,1,1.32-3.9,4.92,4.92,0,0,1,4.93-.65,3.79,3.79,0,0,1,2.13,3.41c.17,2.44-1.64,3.74-3.61,4.07Z" transform="translate(-104.93 -40.42)"/><path class="cls-3" d="M544.2,167.67v2.12a.91.91,0,0,1-.82.49,1.33,1.33,0,0,1-1-.66v-2.43Z" transform="translate(-104.93 -40.42)"/><path class="cls-18" d="M542.72,169.62a1.71,1.71,0,0,0,.83.66h.16c.16,0,.33-.17.49-.33V168l-1.48-.65v2.27Zm.83.82a1,1,0,0,1-1-.82V167l1.81.65v2.12c-.17.16-.33.49-.66.49Z" transform="translate(-104.93 -40.42)"/><ellipse class="cls-18" cx="430.07" cy="121.08" rx="1.32" ry="1.3"/><path class="cls-3" d="M535.72,161.59a.33.33,0,1,1-.46,0A.34.34,0,0,1,535.72,161.59Z" transform="translate(-104.93 -40.42)"/><path class="cls-18" d="M546.17,160.25a1.42,1.42,0,0,1,0,1.84,1.06,1.06,0,0,1-1.63,0,1.42,1.42,0,0,1,0-1.84A1.07,1.07,0,0,1,546.17,160.25Z" transform="translate(-104.93 -40.42)"/><path class="cls-3" d="M546.08,161.27a.32.32,0,0,1,0,.46.35.35,0,0,1-.47,0,.34.34,0,0,1,0-.46A.33.33,0,0,1,546.08,161.27Z" transform="translate(-104.93 -40.42)"/><path class="cls-3" d="M540.75,167.67c-.49,1.3.33,3.91,1.81,2v-2.43Z" transform="translate(-104.93 -40.42)"/><path class="cls-18" d="M540.92,167.67a2.44,2.44,0,0,0,.32,2.44c.33.17.83-.16,1.16-.49v-2.27Zm.65,2.77c-.16,0-.33,0-.33-.16-.65-.33-1-1.63-.65-2.77l2.13-.49v2.77A1.65,1.65,0,0,1,541.57,170.44Z" transform="translate(-104.93 -40.42)"/><path class="cls-18" d="M540.92,165.07a1.91,1.91,0,0,0-1.48,1.79.61.61,0,0,0,.16.49c.66,1.3,2.3-.16,3.29,0,1.15,0,2,1.14,3,.16,1-1.14-.5-2.11-1.48-2.6Z" transform="translate(-104.93 -40.42)"/><path class="cls-3" d="M542.89,167.19a2.44,2.44,0,0,1,1.15.32c.66.33,1.15.49,1.64,0a1.21,1.21,0,0,0,.33-.81c-.16-.65-1-1.14-1.81-1.46l-3.28.16a1.62,1.62,0,0,0-1.15.65,1.72,1.72,0,0,0,0,1.3c.32.65,1.15.49,1.8.16A4,4,0,0,1,542.89,167.19Zm2.14,1a2.4,2.4,0,0,1-1-.32,4,4,0,0,0-1.15-.33,2.5,2.5,0,0,0-1.15.16c-.82.33-1.65.65-2.14-.32a1.25,1.25,0,0,1-.16-1.3,2.6,2.6,0,0,1,1.31-1l3.29-.16c.82.33,1.81,1,2,1.63A1.15,1.15,0,0,1,545,168.16Z" transform="translate(-104.93 -40.42)"/><path class="cls-18" d="M540.75,165.07c0-1.78,3.29-1.95,3.62-.48S540.92,166.37,540.75,165.07Z" transform="translate(-104.93 -40.42)"/><path class="cls-19" d="M540.75,165.07c0-1.78,3.29-1.95,3.62-.48S540.92,166.37,540.75,165.07Z" transform="translate(-104.93 -40.42)"/><line class="cls-16" x1="89.03" y1="35.34" x2="89.03" y2="10.18"/><path class="cls-16" d="M190.81,50.6,194,42.2l3.15,8.4M194,42.2v8.4" transform="translate(-104.93 -40.42)"/><path class="cls-16" d="M197.11,75.76,194,84.16l-3.15-8.4m3.15,8.4v-8.4" transform="translate(-104.93 -40.42)"/><line class="cls-16" x1="177.46" y1="35.34" x2="177.46" y2="10.18"/><path class="cls-16" d="M279.25,50.6l3.15-8.4,3.15,8.4m-3.15-8.4v8.4" transform="translate(-104.93 -40.42)"/><path class="cls-16" d="M285.55,75.76l-3.15,8.4-3.15-8.4m3.15,8.4v-8.4" transform="translate(-104.93 -40.42)"/><line class="cls-16" x1="265.08" y1="35.34" x2="265.08" y2="10.18"/><path class="cls-16" d="M366.86,50.6,370,42.2l3.15,8.4M370,42.2v8.4" transform="translate(-104.93 -40.42)"/><path class="cls-16" d="M373.16,75.76,370,84.16l-3.15-8.4m3.15,8.4v-8.4" transform="translate(-104.93 -40.42)"/><line class="cls-16" x1="352.59" y1="35.34" x2="352.59" y2="10.18"/><path class="cls-16" d="M454.37,50.6l3.15-8.4,3.15,8.4m-3.15-8.4v8.4" transform="translate(-104.93 -40.42)"/><path class="cls-16" d="M460.67,75.76l-3.15,8.4-3.15-8.4m3.15,8.4v-8.4" transform="translate(-104.93 -40.42)"/><line class="cls-16" x1="440.09" y1="35.34" x2="440.09" y2="10.18"/><path class="cls-16" d="M541.87,50.6,545,42.2l3.15,8.4M545,42.2v8.4" transform="translate(-104.93 -40.42)"/><path class="cls-16" d="M548.17,75.76,545,84.16l-3.15-8.4m3.15,8.4v-8.4" transform="translate(-104.93 -40.42)"/></g></svg>