<svg id="Layer_1" data-name="Layer 1" xmlns="http://www.w3.org/2000/svg" xmlns:xlink="http://www.w3.org/1999/xlink" viewBox="0 0 652.22 403.33"><defs><style>.cls-1,.cls-13,.cls-15,.cls-28,.cls-33,.cls-34,.cls-36,.cls-37,.cls-38,.cls-39,.cls-4,.cls-40,.cls-5{fill:none;}.cls-2{clip-path:url(#clip-path);}.cls-3,.cls-6,.cls-8{fill:#483391;}.cls-33,.cls-34,.cls-36,.cls-37,.cls-38,.cls-39,.cls-4,.cls-40,.cls-5{stroke:#483391;}.cls-13,.cls-15,.cls-28,.cls-33,.cls-39,.cls-4,.cls-40,.cls-5{stroke-linecap:round;}.cls-13,.cls-15,.cls-28,.cls-33,.cls-36,.cls-37,.cls-38,.cls-39,.cls-4,.cls-40,.cls-5{stroke-linejoin:round;}.cls-39,.cls-5{stroke-width:1.4px;}.cls-29,.cls-6{font-size:15px;}.cls-6{stroke:#2b3990;}.cls-34,.cls-6{stroke-miterlimit:10;}.cls-37,.cls-6{stroke-width:0.2px;}.cls-23,.cls-6{font-family:AvenirNext-Regular, Avenir Next;}.cls-7{letter-spacing:-0.01em;}.cls-23,.cls-24,.cls-8{font-size:16px;}.cls-16,.cls-18,.cls-29,.cls-8{font-family:AvenirNext-Medium, Avenir Next;font-weight:500;}.cls-9{letter-spacing:-0.02em;}.cls-10{letter-spacing:-0.01em;}.cls-11{letter-spacing:0em;}.cls-12{letter-spacing:-0.01em;}.cls-13,.cls-15,.cls-28{stroke:#fff;}.cls-13{stroke-width:1.5px;}.cls-14,.cls-16,.cls-18,.cls-23,.cls-24,.cls-29{fill:#fff;}.cls-15{stroke-width:0.75px;}.cls-16{font-size:13px;}.cls-17{letter-spacing:-0.01em;}.cls-18{font-size:17px;}.cls-19{letter-spacing:-0.01em;}.cls-20{letter-spacing:0em;}.cls-21{letter-spacing:-0.02em;}.cls-22{letter-spacing:0em;}.cls-24{font-family:HelveticaNeue, Helvetica Neue;}.cls-25{letter-spacing:-0.02em;}.cls-26{letter-spacing:-0.01em;}.cls-27{letter-spacing:0em;}.cls-28,.cls-33,.cls-34,.cls-40{stroke-width:1.2px;}.cls-30{letter-spacing:-0.01em;}.cls-31{letter-spacing:-0.02em;}.cls-32{letter-spacing:-0.01em;}.cls-35{fill:#45338e;}.cls-36{stroke-width:0.4px;}.cls-38{stroke-width:0.3px;}.cls-39{stroke-dasharray:2.8 2.8;}.cls-40{stroke-dasharray:4.8 4.8;}</style><clipPath id="clip-path"><rect class="cls-1" x="7.42" y="5" width="633" height="382"/></clipPath></defs><g class="cls-2"><rect class="cls-3" x="71.43" y="145.89" width="70.11" height="240"/><rect class="cls-4" x="71.43" y="145.89" width="70.11" height="240"/><path class="cls-5" d="M168.44,42.1H150.72l.26,51h51.74v-51H185a9.7,9.7,0,0,1-2.42,6.09,7.7,7.7,0,0,1-11.71,0A9.75,9.75,0,0,1,168.44,42.1Z"/><text class="cls-6" transform="translate(175.12 88.5)"><tspan class="cls-7">W</tspan><tspan x="14.41" y="0">A</tspan></text><path class="cls-5" d="M242.24,42.1H224.52l.26,51h51.74v-51H258.79a9.7,9.7,0,0,1-2.42,6.09,7.7,7.7,0,0,1-11.71,0A9.75,9.75,0,0,1,242.24,42.1Z"/><text class="cls-6" transform="translate(248.92 88.5)"><tspan class="cls-7">W</tspan><tspan x="14.41" y="0">A</tspan></text><path class="cls-5" d="M316,42.26H298.32l.26,51h51.74v-51H332.59a9.67,9.67,0,0,1-2.42,6.09,7.68,7.68,0,0,1-11.71,0A9.73,9.73,0,0,1,316,42.26Z"/><text class="cls-6" transform="translate(322.72 88.66)"><tspan class="cls-7">W</tspan><tspan x="14.41" y="0">A</tspan></text><text class="cls-8" transform="translate(159.48 28.43)">ﬁlter</text><text class="cls-8" transform="translate(309.09 27.48)">map</text><text class="cls-8" transform="translate(213.23 28.26)">agg<tspan class="cls-9" x="28.9" y="0">r</tspan><tspan x="34.4" y="0">eg</tspan><tspan class="cls-10" x="53.68" y="0">a</tspan><tspan class="cls-11" x="62.21" y="0">te</tspan></text><path class="cls-5" d="M389.84,40.41H372.12l.26,51h51.74v-51H406.39A9.67,9.67,0,0,1,404,46.5a7.68,7.68,0,0,1-11.71,0A9.73,9.73,0,0,1,389.84,40.41Z"/><text class="cls-6" transform="translate(396.52 86.81)"><tspan class="cls-7">W</tspan><tspan x="14.41" y="0">A</tspan></text><text class="cls-8" transform="translate(368.9 27.68)">ﬂ<tspan class="cls-12" x="9.18" y="0">a</tspan><tspan x="17.71" y="0">t-map</tspan></text><rect class="cls-3" x="150.72" y="311.3" width="349.5" height="74.6"/><rect class="cls-4" x="150.72" y="311.3" width="349.5" height="74.6"/><path class="cls-13" d="M218.37,323.87c6.81,1.57,6.81,4.13,0,5.71a64.74,64.74,0,0,1-24.66,0c-6.82-1.58-6.82-4.14,0-5.71a64.74,64.74,0,0,1,24.66,0"/><line class="cls-13" x1="223.48" y1="326.38" x2="223.48" y2="352.24"/><line class="cls-13" x1="188.6" y1="326.73" x2="188.6" y2="352.59"/><path class="cls-13" d="M188.6,352.59c1.85,3.17,24.5,6.67,34.88.09"/><path class="cls-13" d="M188.6,344.51c1.85,3.17,24.5,6.67,34.88.09"/><path class="cls-13" d="M188.55,335.53c1.85,3.18,24.51,6.68,34.88.1"/><path class="cls-14" d="M220.3,332.3a1,1,0,1,1-1.45,0,1,1,0,0,1,1.45,0"/><path class="cls-15" d="M220.3,332.3a1,1,0,1,1-1.45,0,1,1,0,0,1,1.45,0"/><path class="cls-14" d="M220.3,340.65a1,1,0,1,1-1.45,0,1,1,0,0,1,1.45,0"/><path class="cls-15" d="M220.3,340.65a1,1,0,1,1-1.45,0,1,1,0,0,1,1.45,0"/><path class="cls-14" d="M220.3,349.3a1,1,0,1,1-1.45,0,1,1,0,0,1,1.45,0"/><path class="cls-15" d="M220.3,349.3a1,1,0,1,1-1.45,0,1,1,0,0,1,1.45,0"/><text class="cls-16" transform="translate(183.22 373.5)">du<tspan class="cls-17" x="15.82" y="0">r</tspan><tspan x="20.36" y="0">able</tspan></text><text class="cls-18" transform="translate(308.72 354.25)">Immutable <tspan class="cls-19" x="88.69" y="0">S</tspan><tspan class="cls-20" x="98.28" y="0">to</tspan><tspan class="cls-21" x="114.24" y="0">r</tspan><tspan class="cls-22" x="120.09" y="0">e</tspan></text><rect class="cls-3" x="150.72" y="145.89" width="349.5" height="74.6"/><rect class="cls-4" x="150.72" y="145.89" width="349.5" height="74.6"/><rect class="cls-13" x="185.25" y="160.07" width="38.94" height="31.75"/><path class="cls-15" d="M221.72,162.63a1,1,0,0,1,0,1.49,1.22,1.22,0,0,1-1.62,0,1,1,0,0,1,0-1.49,1.2,1.2,0,0,1,1.62,0"/><path class="cls-15" d="M217.59,162.63a1,1,0,0,1,0,1.49,1.21,1.21,0,0,1-1.61,0,1,1,0,0,1,0-1.49,1.19,1.19,0,0,1,1.61,0"/><path class="cls-15" d="M213.43,162.63a1,1,0,0,1,0,1.49,1.22,1.22,0,0,1-1.62,0,1,1,0,0,1,0-1.49,1.2,1.2,0,0,1,1.62,0"/><line class="cls-13" x1="185.25" y1="166.81" x2="224.19" y2="166.81"/><text class="cls-23" transform="translate(189.91 184.1)">&lt;</text><text class="cls-23" transform="translate(208.87 184.37)">&gt;</text><text class="cls-24" transform="translate(202.21 185.14)">/</text><text class="cls-16" transform="translate(162.68 208.98)">p<tspan class="cls-25" x="8.24" y="0">r</tspan><tspan x="12.73" y="0">og</tspan><tspan class="cls-17" x="28.87" y="0">r</tspan><tspan x="33.41" y="0">ammable</tspan></text><text class="cls-18" transform="translate(312.47 189.56)">Sma<tspan class="cls-26" x="33.97" y="0">r</tspan><tspan x="39.93" y="0">t </tspan><tspan class="cls-27" x="49.78" y="0">S</tspan><tspan x="59.36" y="0">t</tspan><tspan class="cls-21" x="64.96" y="0">r</tspan><tspan class="cls-19" x="70.8" y="0">e</tspan><tspan x="80.46" y="0">ams</tspan></text><rect class="cls-3" x="150.72" y="228.59" width="349.5" height="74.6"/><rect class="cls-4" x="150.72" y="228.59" width="349.5" height="74.6"/><path class="cls-13" d="M183.6,267.31c2.66-28,39.52-27.23,42.83,0"/><line class="cls-13" x1="185.44" y1="260.33" x2="186.95" y2="260.98"/><line class="cls-13" x1="204.53" y1="246.76" x2="204.53" y2="249.06"/><line class="cls-13" x1="196.11" y1="248.58" x2="196.95" y2="250.41"/><line class="cls-13" x1="189.47" y1="253.22" x2="190.98" y2="254.68"/><line class="cls-13" x1="224.13" y1="260.04" x2="222.61" y2="260.68"/><line class="cls-13" x1="212.97" y1="248.44" x2="212.12" y2="250.27"/><line class="cls-13" x1="219.93" y1="253.07" x2="218.41" y2="254.53"/><polygon class="cls-14" points="204.49 262.82 218.69 257.47 206.19 266.08 204.49 262.82"/><polygon class="cls-28" points="204.49 262.82 218.69 257.47 206.19 266.08 204.49 262.82"/><path class="cls-14" d="M206.29,263.32a1.87,1.87,0,0,1,0,2.52,1.63,1.63,0,0,1-2.38,0,1.87,1.87,0,0,1,0-2.52,1.61,1.61,0,0,1,2.38,0"/><path class="cls-28" d="M206.29,263.32a1.87,1.87,0,0,1,0,2.52,1.63,1.63,0,0,1-2.38,0,1.87,1.87,0,0,1,0-2.52,1.61,1.61,0,0,1,2.38,0"/><text class="cls-29" transform="translate(192.62 282.86)">fast</text><text class="cls-18" transform="translate(312.89 272.3)">D<tspan class="cls-30" x="12.94" y="0">a</tspan><tspan x="22" y="0">ta </tspan><tspan class="cls-27" x="41.05" y="0">S</tspan><tspan x="50.64" y="0">t</tspan><tspan class="cls-31" x="56.23" y="0">r</tspan><tspan class="cls-32" x="62.1" y="0">e</tspan><tspan x="71.74" y="0">ams</tspan></text><line class="cls-33" x1="177.37" y1="99.08" x2="177.37" y2="126.37"/><path class="cls-34" d="M180.49,126.37l-3.12,8.32-3.12-8.32m3.12,8.32v-8.32"/><line class="cls-33" x1="253.87" y1="99.08" x2="253.87" y2="126.37"/><path class="cls-34" d="M257,126.37l-3.12,8.32-3.12-8.32m3.12,8.32v-8.32"/><line class="cls-33" x1="330.37" y1="99.24" x2="330.37" y2="126.53"/><path class="cls-34" d="M333.49,126.53l-3.12,8.32-3.12-8.32m3.12,8.32v-8.32"/><line class="cls-33" x1="402.18" y1="97.39" x2="402.18" y2="124.68"/><path class="cls-34" d="M405.3,124.68,402.18,133l-3.12-8.32m3.12,8.32v-8.32"/><path class="cls-14" d="M117.52,173.42a1,1,0,0,1,1.39-.5,1.07,1.07,0,0,1-.87,2,1.08,1.08,0,0,1-.56-.61,1.11,1.11,0,0,1,0-.82Zm-12.14-10a1,1,0,0,1,1.47,0,1.13,1.13,0,0,1,0,1.52,1,1,0,0,1-1.47,0,1.06,1.06,0,0,1,0-1.5Zm13.54,14.35v1h-1.3c-.12,0-.18.1-.18.22v.61c0,1.47-.8,1.8-1.49,1.8s-1.4-.28-1.5-.71a4.64,4.64,0,0,0-2.09-3.59c1.28-.82,2.63-2.06,2.63-3.72a4.23,4.23,0,0,0-2-3.45,5.45,5.45,0,0,0-2.76-.9H96.64a12.75,12.75,0,0,1,7.18-4.14l1.59,1.72a.94.94,0,0,0,.67.29.92.92,0,0,0,.66-.29l1.8-1.8a12.85,12.85,0,0,1,8.74,6.38L116.05,174a1,1,0,0,0,.5,1.28l2.36,1.08c0,.48,0,.9,0,1.34Zm-15.64-2.21v-2.47h4.31c.22,0,1.57.25,1.57,1.31,0,.85-1,1.16-1.9,1.16Zm-9.8.82,2.23-1a1,1,0,0,0,.49-1.29L95.74,173h1.79v8.36H93.87a13.72,13.72,0,0,1-.42-5Zm1.22-3a1.09,1.09,0,0,1-.52,1.41,1.05,1.05,0,0,1-.8,0,1,1,0,0,1-.57-.57,1.09,1.09,0,0,1,.52-1.4A1.06,1.06,0,0,1,94.7,173.38Zm3.9,16.47a1,1,0,0,1-1.23-.81,1.06,1.06,0,0,1,.79-1.25,1,1,0,0,1,1.23.8,1.06,1.06,0,0,1-.76,1.26Zm14.43-3.4a1,1,0,0,0-.72.14,1,1,0,0,0-.41.61l-.52,2.5a12.35,12.35,0,0,1-5.28,1.16,12.57,12.57,0,0,1-5.39-1.22l-.52-2.49a1,1,0,0,0-.4-.61,1,1,0,0,0-.73-.14l-2.13.48a15.52,15.52,0,0,1-1.1-1.33h10.44c.12,0,.19,0,.19-.13v-3.73c0-.1-.07-.13-.19-.13h-3v-2.39h3.3a2.11,2.11,0,0,1,2,1.79c.13.53.43,2.24.61,2.8s1,1.84,1.85,1.84h5.22a.67.67,0,0,0,.2,0,13.35,13.35,0,0,1-1.18,1.41l-2.21-.5Zm.51,3.45a1.06,1.06,0,0,1,.45-2.07,1.06,1.06,0,0,1-.45,2.07Zm9.87-12.46-1.48-.9a1.18,1.18,0,0,0-.05-.43l1.25-1.2a.53.53,0,0,0,.15-.49.47.47,0,0,0-.32-.37l-1.62-.63a1.73,1.73,0,0,0-.12-.43l1-1.44a.48.48,0,0,0,0-.5.49.49,0,0,0-.39-.3l-1.69-.27a3.11,3.11,0,0,1-.2-.41l.71-1.61a.53.53,0,0,0-.49-.73l-1.73.05a2.16,2.16,0,0,0-.27-.33l.4-1.71a.48.48,0,0,0-.13-.48.46.46,0,0,0-.46-.12l-1.67.39a4.15,4.15,0,0,1-.32-.27l0-1.79a.52.52,0,0,0-.22-.45.5.5,0,0,0-.5-.05l-1.57.73a1.44,1.44,0,0,0-.39-.2l-.27-1.74a.59.59,0,0,0-.3-.41.53.53,0,0,0-.49.06l-1.4,1c-.14-.05-.27-.07-.41-.13l-.62-1.66a.46.46,0,0,0-.37-.33.56.56,0,0,0-.47.16l-1.13,1.28a3.23,3.23,0,0,1-.44,0l-.89-1.52a.48.48,0,0,0-.84,0l-.89,1.52a3.38,3.38,0,0,1-.45,0l-1.18-1.28a.49.49,0,0,0-.46-.16.45.45,0,0,0-.37.33l-.62,1.66c-.14.06-.27.08-.41.13l-1.41-1a.48.48,0,0,0-.49,0,.49.49,0,0,0-.29.4l-.27,1.74-.39.2L97,163a.5.5,0,0,0-.49.05.52.52,0,0,0-.22.45l0,1.79-.31.27-1.68-.39a.48.48,0,0,0-.47.12.5.5,0,0,0-.11.48l.39,1.71c-.1.1-.18.23-.28.33l-1.71-.05a.51.51,0,0,0-.45.23.52.52,0,0,0,0,.5l.71,1.61a2.22,2.22,0,0,0-.2.41l-1.7.27a.54.54,0,0,0-.39.3.52.52,0,0,0,0,.5l1,1.44a3,3,0,0,0-.12.43l-1.62.63a.45.45,0,0,0-.32.37.58.58,0,0,0,.14.49l1.28,1.18c0,.15,0,.3,0,.45l-1.48.9a.53.53,0,0,0-.25.43.5.5,0,0,0,.25.42l1.48.9a3.42,3.42,0,0,1,0,.45l-1.25,1.21a.52.52,0,0,0-.15.48.46.46,0,0,0,.32.38l1.62.62c0,.16.07.28.13.43l-1,1.44a.53.53,0,0,0,0,.5.48.48,0,0,0,.39.31l1.7.28c.07.12.12.25.19.39l-.7,1.61a.52.52,0,0,0,0,.51.54.54,0,0,0,.44.23l1.72-.05a2.69,2.69,0,0,0,.27.32L93.74,190a.52.52,0,0,0,.12.49.48.48,0,0,0,.47.12l1.68-.4c.09.1.21.17.31.28v1.79a.61.61,0,0,0,.21.46.5.5,0,0,0,.5,0L98.6,192a1.79,1.79,0,0,0,.39.2l.27,1.74a.56.56,0,0,0,.3.4.46.46,0,0,0,.49-.05l1.4-1a3.31,3.31,0,0,0,.42.12l.61,1.66a.45.45,0,0,0,.38.33.52.52,0,0,0,.46-.15L104.5,194a1.13,1.13,0,0,1,.42,0l.9,1.51a.5.5,0,0,0,.42.25.47.47,0,0,0,.41-.25l.9-1.51a1.08,1.08,0,0,0,.41,0l1.19,1.28a.48.48,0,0,0,.47.15.47.47,0,0,0,.36-.33l.61-1.66c.15,0,.28-.07.42-.12l1.4,1a.5.5,0,0,0,.49.05.48.48,0,0,0,.3-.4l.27-1.74a2.05,2.05,0,0,1,.39-.2l1.57.73a.5.5,0,0,0,.5,0,.58.58,0,0,0,.22-.46l-.05-1.79c.12-.11.22-.18.32-.28l1.61.44a.45.45,0,0,0,.46-.13.48.48,0,0,0,.13-.48l-.4-1.71c.1-.1.17-.23.27-.33l1.72.06a.56.56,0,0,0,.44-.24.55.55,0,0,0,.06-.5l-.72-1.61a2.14,2.14,0,0,0,.2-.4l1.69-.28a.52.52,0,0,0,.4-.3.55.55,0,0,0,0-.5l-1-1.44a3.52,3.52,0,0,0,.13-.43l1.62-.63a.48.48,0,0,0,.33-.37.6.6,0,0,0-.16-.48l-1.25-1.21a1.18,1.18,0,0,1,0-.43l1.47-.9a.48.48,0,0,0,.25-.43.59.59,0,0,0-.26-.45Z"/><path class="cls-14" d="M101.35,210a.77.77,0,0,1-.75-.47.8.8,0,0,1,.16-.88.8.8,0,0,1,.87-.18.79.79,0,0,1,.49.75.76.76,0,0,1-.77.74Zm11.11.7a6.36,6.36,0,0,0-6.28-6.43h-1.33a6.35,6.35,0,0,0-6.27,6.43.9.9,0,0,0,.27.67.91.91,0,0,0,.66.28h5.95v1.55H96.31A6.37,6.37,0,0,0,90,219.68V221a6.37,6.37,0,0,0,6.28,6.44H97.5a1,1,0,0,0,.94-1v-4.38a.92.92,0,0,1,.93-1h12.15a1,1,0,0,0,.67-.29,1,1,0,0,0,.27-.67Z"/><path class="cls-14" d="M111.09,233.57a.83.83,0,0,1,.75.48.81.81,0,0,1-.16.88.8.8,0,0,1-.87.18.79.79,0,0,1-.5-.74.82.82,0,0,1,.22-.56A.84.84,0,0,1,111.09,233.57Zm5-17.41h-1.19a1,1,0,0,0-.67.29.93.93,0,0,0-.26.68v4.38a1,1,0,0,1-.27.67,1,1,0,0,1-.67.28H100.92a.92.92,0,0,0-.67.29.9.9,0,0,0-.27.68v9.45a6.35,6.35,0,0,0,6.27,6.43h1.33a6.37,6.37,0,0,0,6.27-6.43,1,1,0,0,0-.27-.68.93.93,0,0,0-.67-.28h-6v-1.54h9.15a6.37,6.37,0,0,0,6.28-6.43v-1.36A6.36,6.36,0,0,0,116.13,216.16Z"/><path class="cls-14" d="M110.08,274.79c-5.49,0-6.62-2.57-6.62-4.75a.4.4,0,0,1,.38-.39h1.63a.34.34,0,0,1,.24.09.31.31,0,0,1,.11.23c.25,1.75,1,2.54,4.29,2.54,2.63,0,3.76-.6,3.76-2.06,0-.87-.31-1.44-4.42-1.86-3.42-.35-5.55-1.11-5.55-3.91,0-2.62,2.13-4.14,5.71-4.14,4,0,6,1.4,6.24,4.49a.63.63,0,0,1-.1.29.38.38,0,0,1-.24.13h-1.64a.38.38,0,0,1-.34-.29c-.38-1.75-1.35-2.34-3.92-2.34-2.89,0-3.23,1-3.23,1.75,0,.93.41,1.22,4.29,1.74s5.67,1.25,5.67,4-2.28,4.43-6.26,4.43ZM106.23,285a2.63,2.63,0,0,1-1.32-.35l-4.17-2.54c-.63-.35-.32-.49-.12-.55a7.46,7.46,0,0,0,1.88-.87.26.26,0,0,1,.31,0l3.2,2a.4.4,0,0,0,.37,0l12.51-7.42a.39.39,0,0,0,.19-.36V260.1a.39.39,0,0,0-.19-.35l-12.51-7.38a.35.35,0,0,0-.37,0L93.5,259.75a.42.42,0,0,0-.19.35v14.8a.44.44,0,0,0,.19.36l3.41,2c1.85,1,3-.16,3-1.29V261.37a.39.39,0,0,1,.37-.39h1.6a.4.4,0,0,1,.38.39V276c0,2.54-1.35,4-3.71,4a5.32,5.32,0,0,1-2.88-.81l-3.29-1.93a2.72,2.72,0,0,1-1.32-2.34V260.1a2.72,2.72,0,0,1,1.32-2.34l12.51-7.42a2.71,2.71,0,0,1,2.62,0L120,257.76a2.69,2.69,0,0,1,1.28,2.34V275A2.72,2.72,0,0,1,120,277.3l-12.51,7.41a3.13,3.13,0,0,1-1.31.29Z"/><path class="cls-14" d="M104.05,299.83a12,12,0,0,0-4.32,4.56c-1.67,3.71,3.41,7.77,3.62,7.95a.27.27,0,0,0,.17.06.29.29,0,0,0,.24-.14.28.28,0,0,0,0-.28s-1.84-3.66-1.77-6.26c0-.91,1.26-1.93,2.57-3a14.51,14.51,0,0,0,3.33-3.44,5.74,5.74,0,0,0-.21-5.83.28.28,0,0,0-.34-.1.29.29,0,0,0-.16.32,6.22,6.22,0,0,1-.67,3.86A8.2,8.2,0,0,1,104.05,299.83Z"/><path class="cls-14" d="M110.7,301.14a.28.28,0,0,0,.08-.37.27.27,0,0,0-.34-.13c-.27.1-6.57,2.6-6.57,5.6a5.78,5.78,0,0,0,1.49,4,2.65,2.65,0,0,1,.53.84,4.08,4.08,0,0,1-.46,2.27.28.28,0,0,0,0,.28.3.3,0,0,0,.25.14.33.33,0,0,0,.16-.05c.1-.08,2.65-1.92,2.19-4.17a5.54,5.54,0,0,0-.93-2c-.56-.83-1-1.45-.35-2.57C107.46,303.64,110.67,301.14,110.7,301.14Z"/><path class="cls-14" d="M94.28,313.73a1,1,0,0,0,.14.95c.68,1,3.1,1.51,6.82,1.51h1.57c5.93-.22,8.14-2.11,8.22-2.19a.31.31,0,0,0,.07-.35.29.29,0,0,0-.32-.15,39.74,39.74,0,0,1-8.7.84,18.75,18.75,0,0,1-4.94-.39A6.57,6.57,0,0,1,100,312.9a.3.3,0,0,0,.23-.32.29.29,0,0,0-.29-.26C99.11,312.25,94.76,312.32,94.28,313.73Z"/><path class="cls-14" d="M114.15,311.78a5.59,5.59,0,0,0-2.43.66.28.28,0,0,0-.14.31.28.28,0,0,0,.27.22s2.61,0,2.85,1.53c.2,1.31-2.45,3.43-3.49,4.17a.3.3,0,0,0-.1.35.28.28,0,0,0,.26.18h.06c.24-.05,6-1.36,5.42-4.81C116.47,312.22,115.18,311.78,114.15,311.78Z"/><path class="cls-14" d="M110.19,318.2a.32.32,0,0,0-.12-.28l-1.38-1a.34.34,0,0,0-.24,0,24,24,0,0,1-3.57.63,20.52,20.52,0,0,1-2.71.15,9.54,9.54,0,0,1-3.68-.44v-.08a.62.62,0,0,1,.35-.28.3.3,0,0,0,.17-.36.28.28,0,0,0-.33-.19c-1.39.34-2.08.84-2,1.43.09,1.07,2.5,1.66,4.57,1.77h.94a39.08,39.08,0,0,0,7.83-1.1A.32.32,0,0,0,110.19,318.2Z"/><path class="cls-14" d="M99.73,320.51a.3.3,0,0,0,.11-.32.29.29,0,0,0-.28-.21c-.18,0-1.82.08-1.93,1.15a1,1,0,0,0,.26.83c.59.72,2.18,1.14,4.85,1.3h1a14.12,14.12,0,0,0,5.84-1.14.28.28,0,0,0,.15-.24.29.29,0,0,0-.13-.27l-1.75-1.09a.26.26,0,0,0-.21,0s-1.12.23-2.8.47a7.71,7.71,0,0,1-1.18.06,14.32,14.32,0,0,1-3.91-.45A.15.15,0,0,1,99.73,320.51Z"/><path class="cls-14" d="M102.11,326.62c7.8,0,12-1.42,12.79-2.32a1,1,0,0,0,.3-.83,1.24,1.24,0,0,0-.54-.83.28.28,0,0,0-.36.42c0,.07.07.18-.07.33-.33.31-3.58,1.24-9,1.52-.75,0-1.52.06-2.31.06-4.84,0-8.39-.68-8.86-1.07a6.65,6.65,0,0,1,2.77-.93.29.29,0,0,0,.23-.32.28.28,0,0,0-.32-.25h-.31c-2.2.15-4.75.45-4.88,1.61a1.21,1.21,0,0,0,.31,1c.59.69,2.3,1.59,10.24,1.59Z"/><path class="cls-14" d="M116.44,324.55a.29.29,0,0,0-.33.07s-1.18,1.27-4.71,2a44.75,44.75,0,0,1-7.5.42c-3.66,0-7.13-.14-7.16-.14a.29.29,0,0,0-.3.24.31.31,0,0,0,.22.32,40.63,40.63,0,0,0,8.66.84,39,39,0,0,0,6.91-.59c4.1-.74,4.38-2.81,4.39-2.91A.3.3,0,0,0,116.44,324.55Z"/><path class="cls-14" d="M91.43,359.42c0,1,1.09.55,1.54.23s.55,0,.62-.66a9.4,9.4,0,0,0,0-1.19,2.93,2.93,0,0,0-2,.5c-.29.21-.82.87-.26,1.09"/><path class="cls-35" d="M93.35,357.91a2.7,2.7,0,0,0-1.6.49,1.05,1.05,0,0,0-.46.73.28.28,0,0,0,.18.23h0v.06a.56.56,0,0,0,.23.49,1.4,1.4,0,0,0,1.16-.34,1.93,1.93,0,0,1,.38-.19c.14,0,.17-.06.19-.39V357.9h-.12ZM92,360.17a.62.62,0,0,1-.64-.67.45.45,0,0,1-.25-.35,1.27,1.27,0,0,1,.55-.88,3,3,0,0,1,2-.51h.08v.08a7.21,7.21,0,0,1,0,.93v.28c0,.42-.11.49-.33.54a1.26,1.26,0,0,0-.33.16A2.19,2.19,0,0,1,92,360.17Z"/><path class="cls-14" d="M93.81,347.12c-4-1.1-1-6.12,2.19-4.08Z"/><path class="cls-35" d="M94.41,342.64a2.25,2.25,0,0,0-1.26.38A2.4,2.4,0,0,0,92,345.3,2.2,2.2,0,0,0,93.76,347l2.07-3.92a2.76,2.76,0,0,0-1.4-.42Zm-.54,4.58h-.08a2.39,2.39,0,0,1-2-1.88A2.62,2.62,0,0,1,96,343l.08,0Z"/><path class="cls-14" d="M111.39,342.66c3.12-2.19,6,2.74,2.32,4Z"/><path class="cls-35" d="M111.52,342.69l2.23,3.86a2.13,2.13,0,0,0,1.56-1.75,2.44,2.44,0,0,0-1.21-2.27,2.31,2.31,0,0,0-2.62.18Zm2.14,4.11-2.4-4.17h.07a2.58,2.58,0,0,1,4.18,2.21,2.31,2.31,0,0,1-1.75,2Z"/><path class="cls-14" d="M112.06,372.13c.79.5,2.25,2,1,2.7-1.14,1.05-1.75-1.15-2.79-1.45A2.81,2.81,0,0,1,112.06,372.13Z"/><path class="cls-35" d="M110.47,373.34a3.16,3.16,0,0,1,1,.87,1.88,1.88,0,0,0,1,.83.83.83,0,0,0,.55-.25.72.72,0,0,0,.4-.64c0-.66-.88-1.5-1.43-1.88a2.61,2.61,0,0,0-1.51,1.09Zm2,1.88c-.46,0-.88-.46-1.19-.88a2.57,2.57,0,0,0-1-.87h-.13l.08-.13a2.86,2.86,0,0,1,1.8-1.29h.07c.51.32,1.56,1.24,1.55,2.07a.89.89,0,0,1-.49.79A1,1,0,0,1,112.51,375.22Z"/><path class="cls-35" d="M113.11,374.94a.12.12,0,0,1-.09-.05c0-.13-.1-.25-.14-.38a1.85,1.85,0,0,0-.36-.66.11.11,0,0,1,0-.07.08.08,0,0,1,0-.07.1.1,0,0,1,.14,0,1.62,1.62,0,0,1,.4.71c0,.13.1.24.15.35a.09.09,0,0,1,0,.07.07.07,0,0,1,0,.06Z"/><path class="cls-14" d="M97.86,373.81c-.94.15-1.47,1-2.24,1.42a.7.7,0,0,1-1,0,.61.61,0,0,1-.13-.22.33.33,0,0,1-.29-.13c-.67-1.1.71-1.86,1.44-2.39,1-.2,1.65.67,2.19,1.36Z"/><path class="cls-35" d="M94.46,374.85h.15l0,.09a.6.6,0,0,0,.37.33.69.69,0,0,0,.54-.13,4.59,4.59,0,0,0,.8-.59,3.26,3.26,0,0,1,1.32-.8c-.51-.66-1.1-1.37-2-1.21l-.24.18c-.76.55-1.69,1.2-1.15,2.06a.18.18,0,0,0,.11.08Zm.66.64h-.18a.86.86,0,0,1-.47-.41.32.32,0,0,1-.27-.14c-.66-1,.46-1.82,1.2-2.34l.26-.19c1-.21,1.69.65,2.21,1.34l.15.19h-.16a2.91,2.91,0,0,0-1.39.8,5.45,5.45,0,0,1-.82.61A1.1,1.1,0,0,1,95.12,375.49Z"/><path class="cls-35" d="M94.54,375.07a.06.06,0,0,1-.07,0,.1.1,0,0,1,0-.07v0a1.63,1.63,0,0,1,.33-.72,1.45,1.45,0,0,0,.2-.34.1.1,0,0,1,.13-.05.1.1,0,0,1,.06.05.11.11,0,0,1,0,.08,2.88,2.88,0,0,1-.22.38,1.26,1.26,0,0,0-.27.64.09.09,0,0,1,0,.07l-.07,0Z"/><path class="cls-14" d="M116.47,359.29c0,1-1.09.55-1.55.23s-.54,0-.61-.66a11.81,11.81,0,0,1,0-1.19,2.93,2.93,0,0,1,2,.5c.28.21.82.87.26,1.09"/><path class="cls-35" d="M114.35,357.77v1.09c0,.33,0,.34.19.39a1.62,1.62,0,0,1,.37.19,1.43,1.43,0,0,0,1.17.34.56.56,0,0,0,.23-.49v-.07h.06a.26.26,0,0,0,.18-.22,1.11,1.11,0,0,0-.46-.74,2.73,2.73,0,0,0-1.75-.49Zm1.59,2.24a2.17,2.17,0,0,1-1-.39,1.5,1.5,0,0,0-.34-.16c-.21-.08-.29-.14-.32-.55v-.27a7.37,7.37,0,0,1,0-.94v-.13h.09a3.14,3.14,0,0,1,2,.52,1.25,1.25,0,0,1,.54.87.41.41,0,0,1-.24.35.68.68,0,0,1-.34.61.66.66,0,0,1-.34.06Z"/><path class="cls-14" d="M103.56,340.58c4,0,7.65.54,9.62,4.37,1.75,4.26,1.1,8.86,1.38,13.37.23,3.86.74,8.33-1,11.92-1.89,3.76-6.62,4.7-10.5,4.58-3.06-.12-6.75-1.1-8.47-3.9-2-3.29-1.07-8.14-.92-11.78.18-4.31-1.17-8.64.25-12.86s5.43-5.37,9.7-5.7"/><path class="cls-35" d="M103.56,340.67c-4.12.35-8.14,1.24-9.62,5.64-.88,2.71-.67,5.51-.45,8.21a37.26,37.26,0,0,1,.2,4.6c0,.73-.1,1.51-.16,2.32-.24,3.19-.54,6.82,1.06,9.4.68,1.1,2.85,3.66,8.39,3.84,2.4.08,8.21-.19,10.39-4.54,1.61-3.21,1.35-7.21,1.12-10.74a6.07,6.07,0,0,0-.07-1.13c-.06-1.19-.08-2.45-.08-3.66,0-3.21,0-6.56-1.3-9.63a7,7,0,0,0-4-3.56A16.29,16.29,0,0,0,103.56,340.67Zm.1,34.27H103a14.72,14.72,0,0,1-4.77-.95,7.71,7.71,0,0,1-3.78-3c-1.63-2.62-1.34-6.3-1.09-9.52.07-.82.13-1.59.16-2.3a36.93,36.93,0,0,0-.2-4.59c-.23-2.74-.48-5.56.45-8.31a7.29,7.29,0,0,1,3.83-4.43,16.17,16.17,0,0,1,5.94-1.34c3.9,0,7.76.52,9.73,4.37,1.27,3.12,1.29,6.47,1.31,9.71,0,1.21,0,2.47.08,3.69a5.42,5.42,0,0,0,.08,1.13c.23,3.5.49,7.58-1.14,10.84C111.53,374.34,106.38,374.94,103.66,374.94Z"/><path class="cls-14" d="M104.25,345.89c.72,4.12,7.46,3,6.5-1.13-.87-3.74-6.74-2.71-6.5,1.13"/><path class="cls-36" d="M104.25,345.89c.72,4.12,7.46,3,6.5-1.13-.87-3.74-6.74-2.71-6.5,1.13"/><path class="cls-14" d="M96.18,346.56c.88,3.59,6.68,2.62,6.46-.94-.25-4.32-7.34-3.5-6.46.94"/><path class="cls-35" d="M96.29,346.58a3.22,3.22,0,0,0,6.28-.88,2.72,2.72,0,0,0-1.64-2.47,3.65,3.65,0,0,0-3.67.47A2.82,2.82,0,0,0,96.29,346.58Zm3,2.39a3.59,3.59,0,0,1-1.67-.41,3,3,0,0,1-1.56-2.4,3.08,3.08,0,0,1,1.1-2.64A3.91,3.91,0,0,1,101,343a2.94,2.94,0,0,1,1.75,2.63,3.2,3.2,0,0,1-2.86,3.28h-.63Z"/><path class="cls-37" d="M96.29,346.58a3.22,3.22,0,0,0,6.28-.88,2.72,2.72,0,0,0-1.64-2.47,3.65,3.65,0,0,0-3.67.47A2.82,2.82,0,0,0,96.29,346.58Zm3,2.39a3.59,3.59,0,0,1-1.67-.41,3,3,0,0,1-1.56-2.4,3.08,3.08,0,0,1,1.1-2.64A3.91,3.91,0,0,1,101,343a2.94,2.94,0,0,1,1.75,2.63,3.2,3.2,0,0,1-2.86,3.28h-.63Z"/><path class="cls-14" d="M105.05,350.87a10.23,10.23,0,0,1,0,1.75,1.17,1.17,0,0,1-.64.4,1,1,0,0,1-.72-.55,14,14,0,0,1,0-1.94Z"/><path class="cls-35" d="M103.83,352.37a.89.89,0,0,0,.61.49l.16-.06a.71.71,0,0,0,.39-.29,4.05,4.05,0,0,0,0-1.1,2,2,0,0,0,0-.49l-1.09-.34a2.17,2.17,0,0,1,0,.51,6.74,6.74,0,0,0,0,1.27Zm.64.69a1,1,0,0,1-.79-.62,7.39,7.39,0,0,1,0-1.33v-.79l1.48.46v.09a4.86,4.86,0,0,0,0,.54,4.74,4.74,0,0,1,0,1.19.84.84,0,0,1-.52.36l-.17.07Z"/><path class="cls-37" d="M103.83,352.37a.89.89,0,0,0,.61.49l.16-.06a.71.71,0,0,0,.39-.29,4.05,4.05,0,0,0,0-1.1,2,2,0,0,0,0-.49l-1.09-.34a2.17,2.17,0,0,1,0,.51,6.74,6.74,0,0,0,0,1.27Zm.64.69a1,1,0,0,1-.79-.62,7.39,7.39,0,0,1,0-1.33v-.79l1.48.46v.09a4.86,4.86,0,0,0,0,.54,4.74,4.74,0,0,1,0,1.19.84.84,0,0,1-.52.36l-.17.07Z"/><path class="cls-35" d="M98.45,345.22a1.12,1.12,0,0,1,0,1.49.9.9,0,0,1-1.37,0,1.12,1.12,0,0,1,0-1.49.9.9,0,0,1,1.37,0"/><path class="cls-14" d="M98.37,346a.3.3,0,0,1,0,.38.2.2,0,0,1-.32,0,.3.3,0,0,1,0-.38.2.2,0,0,1,.32,0"/><path class="cls-35" d="M106.6,345a1.15,1.15,0,0,1,0,1.5.89.89,0,0,1-1.35,0,1.13,1.13,0,0,1,0-1.5.89.89,0,0,1,1.35,0"/><path class="cls-14" d="M106.51,345.75a.3.3,0,0,1,0,.38.2.2,0,0,1-.32,0,.3.3,0,0,1,0-.38.2.2,0,0,1,.32,0"/><path class="cls-14" d="M102.31,350.78c-.43,1,.23,3.09,1.39,1.58a11.41,11.41,0,0,1,0-1.94Z"/><path class="cls-36" d="M102.31,350.78c-.43,1,.23,3.09,1.39,1.58a11.41,11.41,0,0,1,0-1.94Z"/><path class="cls-35" d="M102.34,350.87a1.85,1.85,0,0,0,.37,1.87c.3.17.62-.12.88-.42a7,7,0,0,1,0-1.29,2,2,0,0,1,0-.49Zm.55,2.13a.54.54,0,0,1-.28-.08,2,2,0,0,1-.43-2.19l1.64-.42v.13a3.28,3.28,0,0,1,0,.63,5.65,5.65,0,0,0,0,1.3v.07A1.14,1.14,0,0,1,102.89,353Z"/><path class="cls-14" d="M102.44,348.81a1.27,1.27,0,0,0-.85.44,1.28,1.28,0,0,0-.28.92,1,1,0,0,0,.1.39c.55,1,1.75-.09,2.52,0s1.58.92,2.28.16-.33-1.64-1.2-2Z"/><path class="cls-38" d="M102.44,348.81a1.27,1.27,0,0,0-.85.44,1.28,1.28,0,0,0-.28.92,1,1,0,0,0,.1.39c.55,1,1.75-.09,2.52,0s1.58.92,2.28.16-.33-1.64-1.2-2Z"/><path class="cls-3" d="M104,350.48a2.47,2.47,0,0,1,.93.25c.49.21.87.37,1.28-.06a.74.74,0,0,0,.22-.66c-.11-.5-.8-1-1.37-1.2l-2.54.1a1.25,1.25,0,0,0-.94.64,1,1,0,0,0,0,1c.31.55.87.37,1.47.17A2.08,2.08,0,0,1,104,350.48Zm1.64.65a2.21,2.21,0,0,1-.8-.21,2.23,2.23,0,0,0-.87-.25,2.26,2.26,0,0,0-.88.2c-.62.21-1.31.45-1.7-.25a1.2,1.2,0,0,1,0-1.16,1.42,1.42,0,0,1,1.09-.74l2.62-.11c.65.27,1.39.77,1.52,1.34a1.06,1.06,0,0,1-.88,1.18Z"/><path class="cls-14" d="M102.31,348.76c-.06-1.36,2.55-1.54,2.86-.39S102.44,349.79,102.31,348.76Z"/><path class="cls-38" d="M102.31,348.76c-.06-1.36,2.55-1.54,2.86-.39S102.44,349.79,102.31,348.76Z"/><rect class="cls-3" x="508" y="146.34" width="70.11" height="240.01"/><rect class="cls-4" x="508" y="146.34" width="70.11" height="240"/><path class="cls-14" d="M554.09,173.87a1,1,0,1,1,.52,1.45,1.08,1.08,0,0,1-.56-.61,1.11,1.11,0,0,1,.05-.82Zm-12.14-10a1.05,1.05,0,0,1,1.47,0,1.13,1.13,0,0,1,0,1.52,1,1,0,0,1-1.47,0,1.06,1.06,0,0,1,0-1.5Zm13.54,14.35v1h-1.3c-.12,0-.18.1-.18.23V180c0,1.46-.8,1.79-1.49,1.79s-1.4-.28-1.5-.71a4.64,4.64,0,0,0-2.09-3.59c1.28-.82,2.63-2.06,2.63-3.72a4.24,4.24,0,0,0-2-3.45,5.55,5.55,0,0,0-2.76-.9H533.21a12.68,12.68,0,0,1,7.18-4.13L542,167a.9.9,0,0,0,1.32,0l1.8-1.8a12.85,12.85,0,0,1,8.74,6.38l-1.23,2.82a1,1,0,0,0,.5,1.28l2.36,1.09c0,.47,0,.89,0,1.33ZM539.85,176v-2.47h4.31c.22,0,1.57.25,1.57,1.31,0,.85-1,1.16-1.9,1.16Zm-9.8.82,2.23-1a1,1,0,0,0,.49-1.28l-.46-1.06h1.79v8.36h-3.66a13.72,13.72,0,0,1-.42-5Zm1.23-3a1.1,1.1,0,0,1-.53,1.41,1,1,0,0,1-.8,0,1,1,0,0,1-.57-.56,1.1,1.1,0,0,1,.52-1.41A1.08,1.08,0,0,1,531.28,173.83Zm3.89,16.47a1,1,0,0,1-1.23-.8,1.06,1.06,0,0,1,.79-1.26,1,1,0,0,1,1.23.8,1.05,1.05,0,0,1-.76,1.26Zm14.43-3.4a.92.92,0,0,0-.72.15,1,1,0,0,0-.41.61l-.52,2.49a12.35,12.35,0,0,1-5.28,1.16,12.56,12.56,0,0,1-5.39-1.21l-.52-2.5a1,1,0,0,0-.4-.61,1,1,0,0,0-.73-.14l-2.13.48a14.12,14.12,0,0,1-1.1-1.33h10.44c.12,0,.19,0,.19-.13v-3.73c0-.1-.07-.12-.19-.12h-3.05v-2.4h3.3a2.11,2.11,0,0,1,2,1.79c.13.53.43,2.25.61,2.8s1,1.84,1.85,1.84H553a13.35,13.35,0,0,1-1.18,1.41l-2.21-.5Zm.51,3.45a1,1,0,0,1-.78-1.26,1,1,0,0,1,1.23-.8,1.06,1.06,0,0,1-.45,2.06ZM560,177.89l-1.48-.9a1.21,1.21,0,0,0,0-.43l1.25-1.2a.51.51,0,0,0,.15-.48.47.47,0,0,0-.32-.38l-1.62-.63a1.73,1.73,0,0,0-.12-.43l1-1.43a.49.49,0,0,0,.05-.51.49.49,0,0,0-.39-.3l-1.69-.27a3.73,3.73,0,0,1-.2-.4l.71-1.62a.53.53,0,0,0-.49-.73l-1.73,0a2.08,2.08,0,0,0-.27-.32l.4-1.72a.46.46,0,0,0-.13-.47.44.44,0,0,0-.46-.13l-1.67.4c-.1-.1-.23-.17-.32-.27l0-1.8a.55.55,0,0,0-.22-.45.53.53,0,0,0-.5-.05l-1.57.73a1.79,1.79,0,0,0-.39-.2l-.27-1.74a.56.56,0,0,0-.3-.4.5.5,0,0,0-.49.05l-1.4,1-.41-.12-.62-1.66a.46.46,0,0,0-.37-.34.56.56,0,0,0-.47.16l-1.13,1.28h-.44l-.89-1.52a.48.48,0,0,0-.84,0l-.89,1.52H541l-1.18-1.28a.49.49,0,0,0-.46-.16.45.45,0,0,0-.37.34l-.62,1.66-.41.12-1.41-1a.5.5,0,0,0-.49-.05.49.49,0,0,0-.29.4L535.5,164l-.39.2-1.58-.73a.5.5,0,0,0-.49.05.55.55,0,0,0-.22.45l0,1.8c-.11.1-.21.17-.31.27l-1.68-.4a.44.44,0,0,0-.46.13.45.45,0,0,0-.12.47l.39,1.72a4.15,4.15,0,0,0-.27.32l-1.72,0a.53.53,0,0,0-.45.23.52.52,0,0,0,0,.5l.71,1.62a1.87,1.87,0,0,0-.2.4l-1.7.27a.57.57,0,0,0-.39.3.54.54,0,0,0,0,.51l1,1.43a3,3,0,0,0-.12.43l-1.62.63a.45.45,0,0,0-.32.38.57.57,0,0,0,.14.48l1.28,1.18c0,.15,0,.3,0,.45l-1.48.9a.54.54,0,0,0-.25.43.5.5,0,0,0,.25.42l1.48.9a3.42,3.42,0,0,1,0,.46l-1.25,1.21a.49.49,0,0,0-.15.47.46.46,0,0,0,.32.38l1.62.63c0,.15.07.27.13.43l-1,1.43a.53.53,0,0,0-.05.5.47.47,0,0,0,.39.31l1.7.28c.07.12.12.25.19.39l-.7,1.62a.5.5,0,0,0,0,.5.52.52,0,0,0,.44.23l1.72,0a2.69,2.69,0,0,0,.27.32l-.39,1.71a.51.51,0,0,0,.12.49.48.48,0,0,0,.47.12l1.68-.4c.09.1.21.17.31.28v1.79a.61.61,0,0,0,.21.46.5.5,0,0,0,.5,0l1.57-.73a1.79,1.79,0,0,0,.39.2l.27,1.74a.59.59,0,0,0,.3.41.48.48,0,0,0,.49-.06l1.4-1a3.38,3.38,0,0,0,.42.13l.61,1.65a.47.47,0,0,0,.38.34.56.56,0,0,0,.47-.16l1.17-1.28a1,1,0,0,1,.42.06l.9,1.5a.5.5,0,0,0,.42.25.45.45,0,0,0,.41-.25l.9-1.5a.91.91,0,0,0,.41-.06l1.19,1.28a.48.48,0,0,0,.47.15.47.47,0,0,0,.36-.33l.61-1.65.42-.13,1.4,1a.48.48,0,0,0,.49.06.51.51,0,0,0,.3-.41l.27-1.74a2.05,2.05,0,0,1,.39-.2l1.57.73a.5.5,0,0,0,.5,0,.58.58,0,0,0,.22-.46l-.05-1.79c.12-.11.22-.18.32-.28l1.61.44a.46.46,0,0,0,.46-.12.5.5,0,0,0,.13-.49l-.4-1.71c.1-.1.17-.23.27-.33l1.73.06a.51.51,0,0,0,.43-.24.55.55,0,0,0,.06-.5l-.72-1.61a1.87,1.87,0,0,0,.2-.4l1.69-.27a.53.53,0,0,0,.4-.31.55.55,0,0,0,0-.5l-1-1.44a3.06,3.06,0,0,0,.13-.43l1.62-.63a.46.46,0,0,0,.33-.37.6.6,0,0,0-.16-.48l-1.25-1.21a1.21,1.21,0,0,1,0-.43l1.47-.9a.48.48,0,0,0,.25-.43.55.55,0,0,0-.26-.44Z"/><path class="cls-14" d="M537.92,210.5a.8.8,0,0,1-.59-1.36.8.8,0,0,1,.87-.18.82.82,0,0,1,.5.75.78.78,0,0,1-.78.74Zm11.11.69a6.36,6.36,0,0,0-6.28-6.43h-1.33a6.35,6.35,0,0,0-6.27,6.43.9.9,0,0,0,.27.67.91.91,0,0,0,.66.28H542v1.56h-9.15a6.36,6.36,0,0,0-6.28,6.43v1.36a6.37,6.37,0,0,0,6.28,6.43h1.19a1,1,0,0,0,.67-.29A1,1,0,0,0,535,227v-4.38a.93.93,0,0,1,.26-.67.92.92,0,0,1,.67-.29h12.15a1,1,0,0,0,.67-.28,1,1,0,0,0,.27-.68Z"/><path class="cls-14" d="M547.66,234a.8.8,0,0,1,.59,1.35.8.8,0,0,1-.87.18.79.79,0,0,1-.5-.74.82.82,0,0,1,.22-.56A.79.79,0,0,1,547.66,234Zm5-17.42h-1.19a1,1,0,0,0-.67.29,1,1,0,0,0-.26.68V222a1,1,0,0,1-.27.67,1,1,0,0,1-.67.28H537.49a1,1,0,0,0-.67.29.92.92,0,0,0-.27.68v9.45a6.33,6.33,0,0,0,6.27,6.43h1.33a6.35,6.35,0,0,0,6.27-6.43.94.94,0,0,0-.27-.67.92.92,0,0,0-.67-.29h-6v-1.54h9.15A6.35,6.35,0,0,0,559,224.4v-1.35A6.36,6.36,0,0,0,552.7,216.61Z"/><path class="cls-14" d="M546.65,275.24c-5.49,0-6.61-2.57-6.61-4.75a.38.38,0,0,1,.37-.39H542a.34.34,0,0,1,.24.09.32.32,0,0,1,.11.24c.25,1.74,1,2.53,4.29,2.53,2.63,0,3.76-.6,3.76-2,0-.88-.31-1.44-4.42-1.86-3.42-.35-5.55-1.12-5.55-3.92,0-2.62,2.13-4.14,5.71-4.14,4,0,6,1.41,6.24,4.49a.63.63,0,0,1-.1.29.38.38,0,0,1-.24.13h-1.64a.38.38,0,0,1-.34-.29c-.38-1.75-1.35-2.34-3.92-2.34-2.89,0-3.23,1-3.23,1.75,0,.93.41,1.22,4.29,1.75s5.67,1.24,5.67,4-2.28,4.43-6.26,4.43Zm-3.85,10.18a2.63,2.63,0,0,1-1.32-.35l-4.17-2.53c-.63-.36-.32-.49-.12-.55a7.86,7.86,0,0,0,1.88-.88.26.26,0,0,1,.31,0l3.2,2a.4.4,0,0,0,.37,0l12.51-7.42a.39.39,0,0,0,.19-.36V260.55a.39.39,0,0,0-.19-.35L543,252.82a.35.35,0,0,0-.37,0l-12.51,7.38a.42.42,0,0,0-.19.35v14.8a.42.42,0,0,0,.19.36l3.41,2c1.85,1,3-.16,3-1.28V261.82a.37.37,0,0,1,.37-.38h1.6a.39.39,0,0,1,.38.38v14.61c0,2.54-1.35,4-3.71,4a5.15,5.15,0,0,1-2.88-.81L529,277.71a2.72,2.72,0,0,1-1.32-2.34V260.55a2.74,2.74,0,0,1,1.32-2.34l12.51-7.42a2.71,2.71,0,0,1,2.62,0l12.51,7.42a2.69,2.69,0,0,1,1.28,2.34v14.86a2.72,2.72,0,0,1-1.31,2.34l-12.51,7.42a3,3,0,0,1-1.31.28Z"/><path class="cls-14" d="M540.62,300.28a12.05,12.05,0,0,0-4.32,4.56c-1.67,3.72,3.41,7.77,3.62,8a.27.27,0,0,0,.41-.08.28.28,0,0,0,0-.28s-1.84-3.66-1.77-6.26c0-.91,1.26-1.93,2.57-3a14.7,14.7,0,0,0,3.33-3.44,5.76,5.76,0,0,0-.21-5.84.28.28,0,0,0-.34-.1.3.3,0,0,0-.16.33,6.21,6.21,0,0,1-.67,3.85A8.2,8.2,0,0,1,540.62,300.28Z"/><path class="cls-14" d="M547.27,301.59a.28.28,0,0,0,.08-.37.26.26,0,0,0-.34-.12c-.27.1-6.57,2.59-6.57,5.59a5.82,5.82,0,0,0,1.49,4,2.5,2.5,0,0,1,.53.83,4,4,0,0,1-.46,2.27.26.26,0,0,0,0,.28.27.27,0,0,0,.24.14.33.33,0,0,0,.16-.05c.1-.07,2.65-1.92,2.19-4.17a5.54,5.54,0,0,0-.93-2c-.56-.83-1-1.45-.35-2.56C544,304.09,547.24,301.59,547.27,301.59Z"/><path class="cls-14" d="M530.85,314.18a1,1,0,0,0,.14.95c.68,1,3.1,1.51,6.82,1.51h1.57c5.93-.22,8.14-2.11,8.22-2.19a.29.29,0,0,0,.07-.35.27.27,0,0,0-.32-.14,40.35,40.35,0,0,1-8.7.83,18.75,18.75,0,0,1-4.94-.39,6.83,6.83,0,0,1,2.86-1,.3.3,0,0,0,.23-.32.31.31,0,0,0-.29-.26C535.68,312.7,531.33,312.77,530.85,314.18Z"/><path class="cls-14" d="M550.72,312.23a5.59,5.59,0,0,0-2.43.66.29.29,0,0,0-.14.32.28.28,0,0,0,.27.21s2.61,0,2.85,1.54c.2,1.3-2.45,3.42-3.49,4.16a.3.3,0,0,0-.1.35.28.28,0,0,0,.26.18H548c.24,0,6-1.36,5.42-4.81C553,312.67,551.75,312.23,550.72,312.23Z"/><path class="cls-14" d="M546.76,318.66a.33.33,0,0,0-.12-.29l-1.38-1a.4.4,0,0,0-.24,0,24,24,0,0,1-3.57.63,20.52,20.52,0,0,1-2.71.15,9.54,9.54,0,0,1-3.68-.44v-.08a.62.62,0,0,1,.35-.28.29.29,0,0,0-.16-.55c-1.39.35-2.08.84-2,1.43.09,1.08,2.5,1.67,4.57,1.78h.94a40.58,40.58,0,0,0,7.83-1.1A.35.35,0,0,0,546.76,318.66Z"/><path class="cls-14" d="M536.3,321a.32.32,0,0,0,.11-.33.29.29,0,0,0-.28-.21c-.18,0-1.82.09-1.93,1.15a1.07,1.07,0,0,0,.26.84c.59.71,2.18,1.14,4.85,1.3h1a14.29,14.29,0,0,0,5.84-1.15.3.3,0,0,0,.16-.24.3.3,0,0,0-.14-.26l-1.75-1.1a.38.38,0,0,0-.21,0s-1.12.24-2.8.47a9.23,9.23,0,0,1-1.18.07,14.73,14.73,0,0,1-3.91-.46A.11.11,0,0,1,536.3,321Z"/><path class="cls-14" d="M538.68,327.07c7.8,0,12-1.42,12.79-2.31a1,1,0,0,0,.3-.84,1.26,1.26,0,0,0-.54-.83.28.28,0,0,0-.36.43c0,.06.07.17-.07.32-.33.31-3.58,1.24-9,1.53-.75,0-1.52.05-2.31.05-4.84,0-8.39-.68-8.86-1.07a6.65,6.65,0,0,1,2.77-.93.29.29,0,0,0,.23-.32.28.28,0,0,0-.32-.24H533c-2.2.14-4.75.45-4.88,1.61a1.2,1.2,0,0,0,.31.95c.59.69,2.3,1.6,10.24,1.6Z"/><path class="cls-14" d="M553,325a.29.29,0,0,0-.33.06s-1.18,1.27-4.71,2a42.73,42.73,0,0,1-7.5.42c-3.66,0-7.13-.14-7.16-.14a.29.29,0,0,0-.3.24.32.32,0,0,0,.22.33,41.27,41.27,0,0,0,8.66.83,40,40,0,0,0,6.91-.58c4.1-.75,4.38-2.82,4.39-2.91A.29.29,0,0,0,553,325Z"/><line class="cls-33" x1="592.73" y1="181.05" x2="629.14" y2="181.05"/><path class="cls-34" d="M629.14,177.93l8.32,3.12-8.32,3.12m8.32-3.12h-8.32"/><line class="cls-33" x1="592.73" y1="224.98" x2="629.14" y2="224.98"/><path class="cls-34" d="M629.14,221.86l8.32,3.12-8.32,3.12m8.32-3.12h-8.32"/><line class="cls-33" x1="592.73" y1="268.67" x2="629.14" y2="268.67"/><path class="cls-34" d="M629.14,265.55l8.32,3.12-8.32,3.12m8.32-3.12h-8.32"/><line class="cls-33" x1="591.73" y1="311.52" x2="628.14" y2="311.52"/><path class="cls-34" d="M628.14,308.4l8.32,3.12-8.32,3.12m8.32-3.12h-8.32"/><line class="cls-33" x1="590.42" y1="355.57" x2="626.83" y2="355.57"/><path class="cls-34" d="M626.83,352.45l8.32,3.12-8.32,3.12m8.32-3.12h-8.32"/><line class="cls-33" x1="10.35" y1="181.05" x2="46.76" y2="181.05"/><path class="cls-34" d="M46.76,177.93l8.32,3.12-8.32,3.12m8.32-3.12H46.76"/><line class="cls-33" x1="10.35" y1="224.98" x2="46.76" y2="224.98"/><path class="cls-34" d="M46.76,221.86,55.08,225l-8.32,3.12M55.08,225H46.76"/><line class="cls-33" x1="10.35" y1="268.67" x2="46.76" y2="268.67"/><path class="cls-34" d="M46.76,265.55l8.32,3.12-8.32,3.12m8.32-3.12H46.76"/><line class="cls-33" x1="9.35" y1="311.52" x2="45.76" y2="311.52"/><path class="cls-34" d="M45.76,308.4l8.32,3.12-8.32,3.12m8.32-3.12H45.76"/><line class="cls-33" x1="8.04" y1="353.95" x2="44.45" y2="353.95"/><path class="cls-34" d="M44.45,350.83,52.77,354l-8.32,3.12M52.77,354H44.45"/><path class="cls-14" d="M530.21,359c0,1,1.1.55,1.55.22s.55,0,.61-.65a9.58,9.58,0,0,0,.06-1.19,2.9,2.9,0,0,0-2,.5c-.28.21-.81.87-.26,1.09"/><path class="cls-35" d="M532.14,357.52a2.67,2.67,0,0,0-1.6.5,1.1,1.1,0,0,0-.47.73.28.28,0,0,0,.19.22h0V359a.54.54,0,0,0,.23.49,1.37,1.37,0,0,0,1.16-.35,1.33,1.33,0,0,1,.38-.18c.14,0,.17-.06.19-.39v-1.1h-.12Zm-1.39,2.27a.63.63,0,0,1-.46-.2.61.61,0,0,1-.17-.48.41.41,0,0,1-.25-.35,1.27,1.27,0,0,1,.55-.87,3,3,0,0,1,2-.52h.09v.09a7.22,7.22,0,0,1,0,.93v.28c0,.42-.11.49-.33.54a1.26,1.26,0,0,0-.33.16A2.36,2.36,0,0,1,530.75,359.79Z"/><path class="cls-14" d="M532.6,346.74c-4-1.11-1-6.13,2.19-4.08Z"/><path class="cls-35" d="M533.19,342.26a2.31,2.31,0,0,0-1.25.37,2.4,2.4,0,0,0-1.14,2.29,2.18,2.18,0,0,0,1.75,1.68l2.07-3.91a2.67,2.67,0,0,0-1.4-.42Zm-.54,4.58h-.08a2.42,2.42,0,0,1-2-1.88,2.62,2.62,0,0,1,4.19-2.37l.08,0Z"/><path class="cls-14" d="M550.18,342.27c3.12-2.18,6,2.74,2.31,4Z"/><path class="cls-35" d="M550.31,342.31l2.23,3.86a2.12,2.12,0,0,0,1.55-1.75,2.43,2.43,0,0,0-1.2-2.28,2.33,2.33,0,0,0-2.63.19Zm2.14,4.1L550,342.25h.07a2.58,2.58,0,0,1,4.19,2.2,2.34,2.34,0,0,1-1.75,2Z"/><path class="cls-14" d="M550.85,371.75c.79.5,2.25,2,1,2.7-1.14,1.05-1.75-1.15-2.79-1.45A2.71,2.71,0,0,1,550.85,371.75Z"/><path class="cls-35" d="M549.26,373a3.16,3.16,0,0,1,.94.88,2,2,0,0,0,1.06.83.78.78,0,0,0,.54-.25.73.73,0,0,0,.41-.64c0-.67-.88-1.51-1.43-1.88a2.59,2.59,0,0,0-1.51,1.08Zm2,1.89c-.46,0-.88-.47-1.19-.88a2.64,2.64,0,0,0-1-.87H549l.08-.14a2.9,2.9,0,0,1,1.81-1.28H551c.5.31,1.55,1.23,1.54,2.06a.86.86,0,0,1-.49.8A1,1,0,0,1,551.3,374.84Z"/><path class="cls-35" d="M551.9,374.56a.1.1,0,0,1-.09-.06l-.15-.37a1.68,1.68,0,0,0-.36-.67.09.09,0,0,1,0-.07.11.11,0,0,1,0-.07.12.12,0,0,1,.14,0,1.67,1.67,0,0,1,.41.72.83.83,0,0,0,.15.35.14.14,0,0,1,0,.06.14.14,0,0,1,0,.07Z"/><path class="cls-14" d="M536.64,373.43c-.93.15-1.46,1-2.24,1.41a.67.67,0,0,1-1,0,.46.46,0,0,1-.13-.21.37.37,0,0,1-.29-.14c-.67-1.09.71-1.85,1.43-2.38,1-.21,1.66.67,2.19,1.36Z"/><path class="cls-35" d="M533.25,374.47h.15l0,.09a.64.64,0,0,0,.37.33.75.75,0,0,0,.54-.13,5.68,5.68,0,0,0,.8-.59,3.16,3.16,0,0,1,1.32-.8c-.51-.66-1.11-1.38-2-1.21l-.25.17c-.75.55-1.69,1.2-1.14,2.07a.15.15,0,0,0,.11.08Zm.65.64h-.17a.9.9,0,0,1-.47-.41.38.38,0,0,1-.28-.14c-.65-1.05.47-1.82,1.2-2.34l.27-.19c1-.21,1.68.64,2.21,1.34l.15.19h-.17a2.91,2.91,0,0,0-1.38.79,4.91,4.91,0,0,1-.82.62A1.14,1.14,0,0,1,533.9,375.11Z"/><path class="cls-35" d="M533.33,374.69a.11.11,0,0,1-.08,0,.09.09,0,0,1,0-.07v0a1.43,1.43,0,0,1,.32-.72,1.73,1.73,0,0,0,.21-.34.11.11,0,0,1,.13-.06.1.1,0,0,1,0,.06.11.11,0,0,1,0,.08,2.06,2.06,0,0,1-.23.37,1.38,1.38,0,0,0-.26.65.07.07,0,0,1,0,.06.11.11,0,0,1-.08,0Z"/><path class="cls-14" d="M555.26,358.9c0,1-1.1.56-1.55.23s-.54,0-.61-.65a11.81,11.81,0,0,1,0-1.19,2.92,2.92,0,0,1,1.95.49c.28.21.81.88.26,1.1"/><path class="cls-35" d="M553.13,357.38v1.1c0,.33,0,.34.19.39a1.33,1.33,0,0,1,.38.18,1.34,1.34,0,0,0,1.16.34.52.52,0,0,0,.23-.49v-.07h.06a.27.27,0,0,0,.19-.21,1.12,1.12,0,0,0-.47-.74,2.72,2.72,0,0,0-1.75-.5Zm1.59,2.25a2.32,2.32,0,0,1-1-.39,1.26,1.26,0,0,0-.33-.16c-.22-.08-.3-.14-.32-.55v-.27a7.37,7.37,0,0,1,0-.94v-.13h.08a3.05,3.05,0,0,1,2,.52,1.27,1.27,0,0,1,.54.87.44.44,0,0,1-.25.35.65.65,0,0,1-.34.6.64.64,0,0,1-.33.07Z"/><path class="cls-14" d="M542.35,340.19c4,0,7.65.54,9.62,4.38,1.75,4.26,1.09,8.86,1.38,13.36.23,3.87.74,8.34-1.06,11.93-1.88,3.76-6.61,4.7-10.5,4.57-3-.11-6.74-1.09-8.46-3.89-2-3.29-1.07-8.14-.92-11.78.17-4.32-1.17-8.64.24-12.86,1.48-4.38,5.44-5.38,9.7-5.71"/><path class="cls-35" d="M542.35,340.29c-4.12.35-8.14,1.23-9.63,5.64-.87,2.7-.66,5.5-.44,8.21a37.09,37.09,0,0,1,.2,4.6c0,.72-.1,1.5-.16,2.32-.24,3.19-.54,6.82,1.06,9.4.67,1.09,2.84,3.66,8.39,3.83,2.4.09,8.2-.18,10.39-4.53,1.61-3.21,1.35-7.22,1.12-10.74a6,6,0,0,0-.07-1.13c-.06-1.19-.09-2.45-.09-3.67,0-3.21,0-6.56-1.29-9.62a7,7,0,0,0-4-3.56A16,16,0,0,0,542.35,340.29Zm.1,34.27h-.68a14.42,14.42,0,0,1-4.77-1,7.6,7.6,0,0,1-3.78-3c-1.63-2.62-1.35-6.3-1.09-9.53.07-.81.13-1.58.16-2.3a36.86,36.86,0,0,0-.21-4.58c-.22-2.74-.47-5.57.46-8.31a7.27,7.27,0,0,1,3.82-4.43,16.23,16.23,0,0,1,5.94-1.35c3.9,0,7.76.53,9.74,4.38,1.27,3.12,1.28,6.46,1.3,9.71,0,1.21,0,2.46.09,3.69a5.47,5.47,0,0,0,.08,1.13c.23,3.5.49,7.57-1.15,10.84C550.32,374,545.17,374.56,542.45,374.56Z"/><path class="cls-14" d="M543,345.5c.71,4.13,7.46,3.05,6.5-1.13-.88-3.73-6.74-2.7-6.5,1.13"/><path class="cls-36" d="M543,345.5c.71,4.13,7.46,3.05,6.5-1.13-.88-3.73-6.74-2.7-6.5,1.13"/><path class="cls-14" d="M535,346.18c.88,3.59,6.68,2.62,6.46-.94-.26-4.32-7.34-3.5-6.46.94"/><path class="cls-35" d="M535.08,346.19a3.22,3.22,0,0,0,6.28-.87,2.75,2.75,0,0,0-1.64-2.48,3.7,3.7,0,0,0-3.67.47A2.81,2.81,0,0,0,535.08,346.19Zm3,2.4a3.66,3.66,0,0,1-1.68-.41,3.07,3.07,0,0,1-.45-5,3.89,3.89,0,0,1,3.86-.49,2.9,2.9,0,0,1,1.75,2.62,3.2,3.2,0,0,1-2.86,3.29H538Z"/><path class="cls-37" d="M535.08,346.19a3.22,3.22,0,0,0,6.28-.87,2.75,2.75,0,0,0-1.64-2.48,3.7,3.7,0,0,0-3.67.47A2.81,2.81,0,0,0,535.08,346.19Zm3,2.4a3.66,3.66,0,0,1-1.68-.41,3.07,3.07,0,0,1-.45-5,3.89,3.89,0,0,1,3.86-.49,2.9,2.9,0,0,1,1.75,2.62,3.2,3.2,0,0,1-2.86,3.29H538Z"/><path class="cls-14" d="M543.83,350.49a8.53,8.53,0,0,1,0,1.75,1.07,1.07,0,0,1-.64.39.92.92,0,0,1-.71-.54,12.55,12.55,0,0,1,0-1.94Z"/><path class="cls-35" d="M542.62,352a.82.82,0,0,0,.61.49l.16-.06a.63.63,0,0,0,.39-.29,5,5,0,0,0,0-1.09,4.17,4.17,0,0,0,0-.5l-1.09-.33a4.34,4.34,0,0,1,0,.51,6.74,6.74,0,0,0,0,1.27Zm.64.7a1,1,0,0,1-.79-.63,5.91,5.91,0,0,1,0-1.33v-.78l1.48.45v.1a2.44,2.44,0,0,0,0,.54,4.66,4.66,0,0,1,0,1.18.85.85,0,0,1-.52.37l-.17.07Z"/><path class="cls-37" d="M542.62,352a.82.82,0,0,0,.61.49l.16-.06a.63.63,0,0,0,.39-.29,5,5,0,0,0,0-1.09,4.17,4.17,0,0,0,0-.5l-1.09-.33a4.34,4.34,0,0,1,0,.51,6.74,6.74,0,0,0,0,1.27Zm.64.7a1,1,0,0,1-.79-.63,5.91,5.91,0,0,1,0-1.33v-.78l1.48.45v.1a2.44,2.44,0,0,0,0,.54,4.66,4.66,0,0,1,0,1.18.85.85,0,0,1-.52.37l-.17.07Z"/><path class="cls-35" d="M537.24,344.83a1.13,1.13,0,0,1,0,1.5.92.92,0,0,1-1.37,0,1.13,1.13,0,0,1,0-1.5.92.92,0,0,1,1.37,0"/><path class="cls-14" d="M537.16,345.63a.3.3,0,0,1,0,.38.21.21,0,0,1-.32,0,.3.3,0,0,1,0-.38.2.2,0,0,1,.32,0"/><path class="cls-35" d="M545.38,344.57a1.15,1.15,0,0,1,0,1.5.89.89,0,0,1-1.35,0,1.15,1.15,0,0,1,0-1.5.89.89,0,0,1,1.35,0"/><path class="cls-14" d="M545.3,345.36a.32.32,0,0,1,0,.39.21.21,0,0,1-.32,0,.32.32,0,0,1,0-.39.21.21,0,0,1,.32,0"/><path class="cls-14" d="M541.09,350.4c-.42,1,.24,3.09,1.4,1.58a11.55,11.55,0,0,1,0-2Z"/><path class="cls-36" d="M541.09,350.4c-.42,1,.24,3.09,1.4,1.58a11.55,11.55,0,0,1,0-2Z"/><path class="cls-35" d="M541.13,350.49a1.81,1.81,0,0,0,.37,1.87c.29.17.62-.12.87-.42a9.26,9.26,0,0,1,0-1.29,2,2,0,0,1,0-.49Zm.54,2.12a.55.55,0,0,1-.28-.07,2,2,0,0,1-.43-2.19l1.65-.42v.13a2.68,2.68,0,0,1-.05.63,7,7,0,0,0,0,1.29v.07A1.14,1.14,0,0,1,541.67,352.61Z"/><path class="cls-14" d="M541.23,348.42a1.22,1.22,0,0,0-.85.45,1.2,1.2,0,0,0-.28.92,1.24,1.24,0,0,0,.09.38c.55,1,1.75-.08,2.52,0s1.59.92,2.29.17-.34-1.64-1.2-2Z"/><path class="cls-38" d="M541.23,348.42a1.22,1.22,0,0,0-.85.45,1.2,1.2,0,0,0-.28.92,1.24,1.24,0,0,0,.09.38c.55,1,1.75-.08,2.52,0s1.59.92,2.29.17-.34-1.64-1.2-2Z"/><path class="cls-3" d="M542.74,350.09a2.54,2.54,0,0,1,.93.26c.49.21.87.37,1.27-.06a.7.7,0,0,0,.22-.67c-.1-.5-.79-1-1.36-1.2l-2.55.11a1.19,1.19,0,0,0-.93.64,1,1,0,0,0,0,1c.31.54.87.37,1.47.17A2.2,2.2,0,0,1,542.74,350.09Zm1.64.66a2,2,0,0,1-.8-.22,2.22,2.22,0,0,0-.88-.24,2,2,0,0,0-.87.2c-.62.21-1.31.44-1.71-.26a1.18,1.18,0,0,1,0-1.15,1.42,1.42,0,0,1,1.1-.74l2.62-.12c.65.27,1.38.77,1.52,1.35a1.06,1.06,0,0,1-.88,1.17Z"/><path class="cls-14" d="M541.09,348.38c-.06-1.36,2.56-1.54,2.87-.39S541.23,349.4,541.09,348.38Z"/><path class="cls-38" d="M541.09,348.38c-.06-1.36,2.56-1.54,2.87-.39S541.23,349.4,541.09,348.38Z"/><path class="cls-39" d="M463.64,40.41H445.92l.26,51h51.74v-51H480.19a9.67,9.67,0,0,1-2.42,6.09,7.68,7.68,0,0,1-11.71,0A9.73,9.73,0,0,1,463.64,40.41Z"/><text class="cls-6" transform="translate(470.32 86.81)"><tspan class="cls-7">W</tspan><tspan x="14.41" y="0">A</tspan></text><line class="cls-40" x1="472.57" y1="97.39" x2="472.57" y2="124.68"/><path class="cls-34" d="M475.69,124.68,472.57,133l-3.12-8.32m3.12,8.32v-8.32"/><text class="cls-8" transform="translate(460.66 26.91)">- - -</text></g></svg>