<svg id="Layer_1" data-name="Layer 1" xmlns="http://www.w3.org/2000/svg" viewBox="0 0 670.48 388.13"><defs><style>.cls-1,.cls-8{fill:#45328d;}.cls-2,.cls-3{fill:#483391;}.cls-3{stroke:#2b3990;stroke-width:0.2px;}.cls-3,.cls-6{stroke-miterlimit:10;}.cls-4{fill:#fff;}.cls-5{fill:#45338e;}.cls-6{fill:none;stroke:#231f20;}.cls-7{fill:#231f20;}.cls-8{font-size:16px;font-family:MyriadPro-Regular, Myriad Pro;}.cls-9{letter-spacing:-0.01em;}</style></defs><path class="cls-1" d="M18.53,119.86c0-1,0-1.8-.07-2.53h1.27l.06,1.33h0a3,3,0,0,1,2.76-1.51c1.87,0,3.28,1.59,3.28,3.94,0,2.78-1.7,4.16-3.52,4.16A2.72,2.72,0,0,1,20,124h0v4.21H18.53Zm1.39,2.06a3.44,3.44,0,0,0,.06.58,2.19,2.19,0,0,0,2.12,1.65c1.49,0,2.35-1.22,2.35-3,0-1.55-.82-2.88-2.3-2.88A2.25,2.25,0,0,0,20,120a2.13,2.13,0,0,0-.1.57Z"/><path class="cls-1" d="M27.63,119.75c0-.92,0-1.7-.06-2.42H28.8l.05,1.52h.06a2.33,2.33,0,0,1,2.15-1.7,1.62,1.62,0,0,1,.4,0v1.33a2.28,2.28,0,0,0-.48,0,2,2,0,0,0-1.89,1.81A4.18,4.18,0,0,0,29,121v4.13H27.63Z"/><path class="cls-1" d="M39.71,121.14a3.78,3.78,0,0,1-3.85,4.11,3.69,3.69,0,0,1-3.72-4A3.79,3.79,0,0,1,36,117.15,3.67,3.67,0,0,1,39.71,121.14Zm-6.14.08c0,1.69,1,3,2.35,3s2.35-1.26,2.35-3c0-1.32-.65-3-2.32-3S33.57,119.75,33.57,121.22Z"/><path class="cls-1" d="M48.18,113.71v9.36c0,.69,0,1.48.06,2H47l-.07-1.35h0a2.85,2.85,0,0,1-2.64,1.52c-1.87,0-3.31-1.58-3.31-3.94,0-2.57,1.58-4.16,3.47-4.16a2.58,2.58,0,0,1,2.34,1.19h0v-4.63Zm-1.41,6.77a3,3,0,0,0-.06-.59,2.07,2.07,0,0,0-2-1.63c-1.45,0-2.32,1.28-2.32,3s.77,2.86,2.29,2.86a2.12,2.12,0,0,0,2.07-1.68,2.84,2.84,0,0,0,.06-.6Z"/><path class="cls-1" d="M57,123c0,.8,0,1.51.07,2.12H55.81l-.08-1.27h0a2.91,2.91,0,0,1-2.56,1.44c-1.22,0-2.68-.67-2.68-3.39v-4.53h1.41v4.29c0,1.47.45,2.46,1.73,2.46a2,2,0,0,0,2-2v-4.75H57Z"/><path class="cls-1" d="M64.85,124.79a5.21,5.21,0,0,1-2.23.45,3.68,3.68,0,0,1-3.85-4,3.93,3.93,0,0,1,4.16-4.11,4.72,4.72,0,0,1,1.95.4l-.32,1.09a3.15,3.15,0,0,0-1.63-.37,2.68,2.68,0,0,0-2.74,2.93,2.65,2.65,0,0,0,2.69,2.89,4,4,0,0,0,1.73-.38Z"/><path class="cls-1" d="M67.18,121.46a2.49,2.49,0,0,0,2.66,2.69,5.19,5.19,0,0,0,2.15-.4l.24,1a6.19,6.19,0,0,1-2.58.49,3.6,3.6,0,0,1-3.81-3.91c0-2.34,1.38-4.18,3.63-4.18,2.53,0,3.2,2.23,3.2,3.65,0,.29,0,.51,0,.66Zm4.13-1a2,2,0,0,0-2-2.29,2.33,2.33,0,0,0-2.16,2.29Z"/><path class="cls-1" d="M74.42,119.75c0-.92,0-1.7-.07-2.42h1.23l0,1.52h.07a2.32,2.32,0,0,1,2.14-1.7,1.62,1.62,0,0,1,.4,0v1.33a2.21,2.21,0,0,0-.48,0,2,2,0,0,0-1.89,1.81,4.25,4.25,0,0,0-.06.66v4.13H74.42Z"/><path class="cls-1" d="M79.46,123.63a3.58,3.58,0,0,0,1.85.56c1,0,1.51-.51,1.51-1.15s-.4-1-1.44-1.42c-1.4-.5-2-1.27-2-2.2A2.39,2.39,0,0,1,82,117.15a4,4,0,0,1,1.91.48l-.36,1a2.91,2.91,0,0,0-1.58-.45c-.83,0-1.3.48-1.3,1.05s.47.93,1.47,1.32c1.35.51,2,1.18,2,2.33,0,1.36-1.06,2.33-2.9,2.33a4.44,4.44,0,0,1-2.18-.53Z"/><rect class="cls-2" x="17.36" y="136.4" width="70.11" height="240"/><path class="cls-2" d="M211.59,84.26H159.85a.7.7,0,0,1-.7-.7l-.26-51a.7.7,0,0,1,.2-.5.71.71,0,0,1,.5-.21h17.72a.7.7,0,0,1,.7.68,9.06,9.06,0,0,0,2.24,5.65,7,7,0,0,0,10.67,0,9,9,0,0,0,2.24-5.65.71.71,0,0,1,.7-.68h17.73a.71.71,0,0,1,.7.71v51A.71.71,0,0,1,211.59,84.26Zm-51.05-1.41h50.35V33.26H194.51A10.41,10.41,0,0,1,192,39.11a8.39,8.39,0,0,1-12.76,0,10.35,10.35,0,0,1-2.55-5.85H160.29Z"/><path class="cls-3" d="M188,77.47h0l2.66-9.13h1.29l2.65,9.13h0l2.6-9.13h1.14L195.22,79H194l-2.67-9.12h0L188.59,79h-1.26L184.2,68.34h1.14Z"/><path class="cls-3" d="M199.74,79h-1.19l4.59-10.62h1.05L208.75,79h-1.2l-1.17-2.79h-5.49Zm1.56-3.78H206l-2.34-5.64Z"/><path class="cls-2" d="M285.39,84.26H233.65a.7.7,0,0,1-.7-.7l-.26-51a.7.7,0,0,1,.2-.5.71.71,0,0,1,.5-.21h17.72a.7.7,0,0,1,.7.68,9.06,9.06,0,0,0,2.24,5.65,7,7,0,0,0,10.67,0A9,9,0,0,0,267,32.53a.71.71,0,0,1,.7-.68h17.73a.71.71,0,0,1,.7.71v51A.71.71,0,0,1,285.39,84.26Zm-51-1.41h50.35V33.26H268.31a10.41,10.41,0,0,1-2.54,5.85,8.39,8.39,0,0,1-12.76,0,10.35,10.35,0,0,1-2.55-5.85H234.09Z"/><path class="cls-3" d="M261.76,77.47h0l2.66-9.13h1.29l2.65,9.13h0l2.6-9.13h1.14L269,79h-1.26l-2.67-9.12h0L262.39,79h-1.26L258,68.34h1.14Z"/><path class="cls-3" d="M273.54,79h-1.19l4.59-10.62H278L282.55,79h-1.2l-1.17-2.79h-5.49Zm1.56-3.78h4.68l-2.34-5.64Z"/><path class="cls-2" d="M359.19,84.42H307.45a.7.7,0,0,1-.7-.7l-.26-51a.68.68,0,0,1,.7-.7h17.72a.69.69,0,0,1,.7.67,9.06,9.06,0,0,0,2.24,5.65,7,7,0,0,0,10.67,0,9,9,0,0,0,2.24-5.65.7.7,0,0,1,.7-.67h17.73a.7.7,0,0,1,.7.7v51A.71.71,0,0,1,359.19,84.42ZM308.14,83h50.35V33.42H342.11a10.41,10.41,0,0,1-2.54,5.85,8.39,8.39,0,0,1-12.76,0,10.35,10.35,0,0,1-2.55-5.85H307.89Z"/><path class="cls-3" d="M335.56,77.63h0l2.66-9.13h1.29l2.65,9.13h0l2.6-9.13H346l-3.14,10.62h-1.26L338.89,70h0l-2.67,9.12h-1.26L331.8,68.5h1.14Z"/><path class="cls-3" d="M347.34,79.12h-1.19l4.59-10.62h1.05l4.56,10.62h-1.2L354,76.33h-5.49Zm1.56-3.78h4.68l-2.34-5.64Z"/><path class="cls-2" d="M433,84.26H381.25a.7.7,0,0,1-.7-.7l-.26-51a.7.7,0,0,1,.2-.5.71.71,0,0,1,.5-.21h17.72a.7.7,0,0,1,.7.68,9.06,9.06,0,0,0,2.24,5.65A7.16,7.16,0,0,0,407,40.65h0a7.13,7.13,0,0,0,5.33-2.47,9,9,0,0,0,2.24-5.65.71.71,0,0,1,.7-.68H433a.71.71,0,0,1,.7.71v51A.71.71,0,0,1,433,84.26Zm-51-1.41h50.34V33.26H415.91a10.41,10.41,0,0,1-2.54,5.85A8.51,8.51,0,0,1,407,42.05h0a8.53,8.53,0,0,1-6.38-2.94,10.35,10.35,0,0,1-2.55-5.85H381.69Z"/><path class="cls-3" d="M409.36,77.47h0l2.66-9.14h1.29L416,77.47h0l2.6-9.14h1.14L416.62,79h-1.26l-2.67-9.12h0L410,79h-1.26L405.6,68.33h1.14Z"/><path class="cls-3" d="M421.14,79H420l4.59-10.62h1L430.15,79H429l-1.17-2.79h-5.49Zm1.56-3.78h4.68L425,69.53Z"/><rect class="cls-2" x="155.49" y="302.05" width="356.96" height="74.6"/><path class="cls-4" d="M211,322a58.37,58.37,0,0,1-12.5-1.19c-3.78-.88-5.69-2.08-5.69-3.59s1.91-2.71,5.69-3.59a66.11,66.11,0,0,1,25,0h0c3.77.88,5.69,2.08,5.69,3.59s-1.92,2.71-5.69,3.59A58.5,58.5,0,0,1,211,322Zm0-8.07a57.31,57.31,0,0,0-12.16,1.16c-3.72.86-4.53,1.83-4.53,2.13s.81,1.27,4.53,2.13a64.18,64.18,0,0,0,24.32,0c3.71-.86,4.53-1.83,4.53-2.13s-.82-1.27-4.53-2.13h0A57.38,57.38,0,0,0,211,313.92Z"/><path class="cls-4" d="M228.43,343.48a.75.75,0,0,1-.75-.75V316.87a.75.75,0,0,1,1.5,0v25.86A.76.76,0,0,1,228.43,343.48Z"/><path class="cls-4" d="M193.55,343.83a.75.75,0,0,1-.75-.75V317.22a.75.75,0,0,1,1.5,0v25.86A.76.76,0,0,1,193.55,343.83Z"/><path class="cls-4" d="M211.59,347.65a57.19,57.19,0,0,1-12.84-1.41c-3.27-.8-5.24-1.73-5.85-2.79a.74.74,0,0,1,.27-1,.75.75,0,0,1,1,.27c.27.48,1.73,1.31,4.91,2.08,7.61,1.85,21.62,2.38,28.91-2.24a.76.76,0,0,1,1,.23.74.74,0,0,1-.23,1C224.32,346.66,217.77,347.65,211.59,347.65Z"/><path class="cls-4" d="M211.59,339.57a57.26,57.26,0,0,1-12.84-1.41c-3.27-.8-5.24-1.74-5.85-2.79a.74.74,0,0,1,.27-1,.75.75,0,0,1,1,.27c.27.47,1.73,1.3,4.91,2.08,7.62,1.85,21.62,2.38,28.91-2.25a.75.75,0,1,1,.81,1.27C224.32,338.58,217.77,339.57,211.59,339.57Z"/><path class="cls-4" d="M211.54,330.59a57.09,57.09,0,0,1-12.83-1.41c-3.27-.79-5.24-1.73-5.86-2.78a.77.77,0,0,1,.27-1,.76.76,0,0,1,1,.27c.28.48,1.73,1.31,4.91,2.09,7.62,1.85,21.63,2.38,28.92-2.25a.74.74,0,0,1,1,.23.76.76,0,0,1-.23,1C224.27,329.61,217.72,330.59,211.54,330.59Z"/><path class="cls-4" d="M225.25,322.79a1,1,0,1,1-1.45,0,1,1,0,0,1,1.45,0"/><path class="cls-4" d="M224.53,324.92a1.36,1.36,0,0,1-1-.42,1.39,1.39,0,0,1,0-2,1.41,1.41,0,0,1,2,0h0a1.41,1.41,0,0,1,0,2,1.39,1.39,0,0,1-1,.42Zm0-2.06a.66.66,0,0,0-.46.19.65.65,0,0,0,0,.93.68.68,0,0,0,.92,0,.67.67,0,0,0,0-.93A.7.7,0,0,0,224.53,322.86Z"/><path class="cls-4" d="M225.25,331.14a1,1,0,1,1-1.45,0,1,1,0,0,1,1.45,0"/><path class="cls-4" d="M224.53,333.26a1.4,1.4,0,0,1-1.4-1.4,1.4,1.4,0,0,1,1.4-1.4h0a1.4,1.4,0,0,1,1.4,1.4,1.4,1.4,0,0,1-1.4,1.4Zm0-2.05a.65.65,0,0,0-.46,1.11.66.66,0,0,0,.92,0,.64.64,0,0,0,.19-.46.66.66,0,0,0-.19-.46h0a.68.68,0,0,0-.46-.19Z"/><path class="cls-4" d="M225.25,339.79a1,1,0,1,1-1.45,0,1,1,0,0,1,1.45,0"/><path class="cls-4" d="M224.53,341.91a1.4,1.4,0,0,1-1.4-1.4,1.37,1.37,0,0,1,.41-1,1.39,1.39,0,0,1,1-.41h0a1.4,1.4,0,0,1,1.4,1.4,1.4,1.4,0,0,1-1.4,1.4Zm0-2.05a.65.65,0,0,0-.46,1.11.66.66,0,0,0,.92,0,.64.64,0,0,0,.19-.46.66.66,0,0,0-.19-.46h0a.68.68,0,0,0-.46-.19Z"/><path class="cls-4" d="M194.14,363a2.26,2.26,0,0,1-1,.85,2.77,2.77,0,0,1-1.26.29,3.13,3.13,0,0,1-1.29-.25,2.88,2.88,0,0,1-1-.7,3.27,3.27,0,0,1-.62-1,3.53,3.53,0,0,1-.22-1.27,3.57,3.57,0,0,1,.22-1.27,3.17,3.17,0,0,1,.63-1,3,3,0,0,1,1-.69,3.22,3.22,0,0,1,1.26-.25,2.66,2.66,0,0,1,1.32.32,2.79,2.79,0,0,1,.88.78h0v-4.59h1.22V364h-1.18v-1Zm-4.06-2.11a2.93,2.93,0,0,0,.13.83,2.34,2.34,0,0,0,.39.71,2.09,2.09,0,0,0,.64.5,2,2,0,0,0,.88.19A2,2,0,0,0,193,363a2.1,2.1,0,0,0,.65-.49,2.19,2.19,0,0,0,.42-.71,2.36,2.36,0,0,0,.15-.84,2.4,2.4,0,0,0-.15-.84,2.19,2.19,0,0,0-.42-.71,1.91,1.91,0,0,0-1.51-.68,2,2,0,0,0-.88.18,2,2,0,0,0-.64.5,2.13,2.13,0,0,0-.39.71A2.88,2.88,0,0,0,190.08,360.9Z"/><path class="cls-4" d="M201.82,364c0-.16,0-.34,0-.53s0-.36,0-.49h0a2,2,0,0,1-.78.84,2.28,2.28,0,0,1-1.23.34,2.49,2.49,0,0,1-1-.19,1.88,1.88,0,0,1-.72-.54,2.45,2.45,0,0,1-.42-.8,3.39,3.39,0,0,1-.13-1v-3.83h1.22v3.41a4.2,4.2,0,0,0,.06.72,1.91,1.91,0,0,0,.21.61,1.21,1.21,0,0,0,.43.41,1.34,1.34,0,0,0,.7.16,1.49,1.49,0,0,0,1.2-.55,2.29,2.29,0,0,0,.45-1.48v-3.28h1.23v4.84c0,.16,0,.38,0,.64s0,.49,0,.69Z"/><path class="cls-4" d="M205,358.51c0-.26,0-.49,0-.69h1.16c0,.16,0,.34,0,.54s0,.37,0,.5h0A2.21,2.21,0,0,1,207,358a2,2,0,0,1,1.13-.34,1.65,1.65,0,0,1,.48.06l-.05,1.13a2,2,0,0,0-.56-.07,1.82,1.82,0,0,0-.77.16,1.56,1.56,0,0,0-.54.44,1.87,1.87,0,0,0-.32.63,2.66,2.66,0,0,0-.1.75V364h-1.22v-4.84C205.05,359,205,358.77,205,358.51Z"/><path class="cls-4" d="M213.42,360a1.23,1.23,0,0,0-.42-1,1.72,1.72,0,0,0-1.1-.33,2.45,2.45,0,0,0-1,.2,2.59,2.59,0,0,0-.78.52l-.65-.78a3.35,3.35,0,0,1,1.11-.68,4.1,4.1,0,0,1,1.41-.25,3.25,3.25,0,0,1,1.15.19,2.1,2.1,0,0,1,.8.52,2,2,0,0,1,.47.76,2.71,2.71,0,0,1,.16.95v2.69c0,.21,0,.43,0,.66a2.76,2.76,0,0,0,.07.57h-1.11a3.86,3.86,0,0,1-.1-.89h0a2.32,2.32,0,0,1-.85.77,2.58,2.58,0,0,1-1.22.27,3,3,0,0,1-.76-.1,2.31,2.31,0,0,1-.72-.31,2,2,0,0,1-.54-.59,1.76,1.76,0,0,1-.21-.9,1.6,1.6,0,0,1,.37-1.11,2.5,2.5,0,0,1,1-.62,5.62,5.62,0,0,1,1.38-.28c.51,0,1-.07,1.55-.07Zm-.3,1.06c-.3,0-.62,0-.94,0a3.93,3.93,0,0,0-.89.15,1.76,1.76,0,0,0-.65.35.92.92,0,0,0-.15,1.08.92.92,0,0,0,.29.3,1.09,1.09,0,0,0,.4.16,2.31,2.31,0,0,0,.46.05,1.7,1.7,0,0,0,1.32-.51,1.93,1.93,0,0,0,.46-1.3v-.32Z"/><path class="cls-4" d="M217.84,363v1h-1.19v-9.83h1.23v4.59h0a2.51,2.51,0,0,1,.86-.78,2.7,2.7,0,0,1,1.33-.32,3.17,3.17,0,0,1,1.25.25,3.06,3.06,0,0,1,1,.69,3.17,3.17,0,0,1,.63,1,3.57,3.57,0,0,1,.22,1.27,3.53,3.53,0,0,1-.22,1.27,3.09,3.09,0,0,1-.62,1,2.84,2.84,0,0,1-1,.7,3.16,3.16,0,0,1-1.29.25,2.77,2.77,0,0,1-1.26-.29,2.45,2.45,0,0,1-1-.85Zm4.09-2.11a2.57,2.57,0,0,0-.13-.83,1.83,1.83,0,0,0-.39-.71,1.85,1.85,0,0,0-.64-.5,2.08,2.08,0,0,0-.89-.18,2,2,0,0,0-.85.18,1.93,1.93,0,0,0-.66.5,2.19,2.19,0,0,0-.42.71,2.4,2.4,0,0,0-.15.84,2.36,2.36,0,0,0,.15.84,2.19,2.19,0,0,0,.42.71,2,2,0,0,0,.66.49,2,2,0,0,0,.85.18,2.08,2.08,0,0,0,.89-.19,2,2,0,0,0,1-1.21A2.62,2.62,0,0,0,221.93,360.9Z"/><path class="cls-4" d="M226.14,364h-1.22v-9.83h1.22Z"/><path class="cls-4" d="M234,360.85v.21a1.49,1.49,0,0,1,0,.21h-4.9a1.83,1.83,0,0,0,.18.73,1.8,1.8,0,0,0,.43.59,2.05,2.05,0,0,0,.63.4,2.14,2.14,0,0,0,.76.14,2,2,0,0,0,1.08-.28,2.19,2.19,0,0,0,.72-.66l.85.69a2.87,2.87,0,0,1-1.16,1,3.43,3.43,0,0,1-1.49.31,3.49,3.49,0,0,1-1.3-.23,2.85,2.85,0,0,1-1-.66,2.9,2.9,0,0,1-.68-1,3.68,3.68,0,0,1,0-2.64,3.08,3.08,0,0,1,.68-1,3.24,3.24,0,0,1,1-.67,3.3,3.3,0,0,1,1.27-.24,3.45,3.45,0,0,1,1.23.22,2.58,2.58,0,0,1,.93.64,2.92,2.92,0,0,1,.6,1A4,4,0,0,1,234,360.85Zm-1.25-.49a2.16,2.16,0,0,0-.13-.68,1.55,1.55,0,0,0-.32-.56,1.58,1.58,0,0,0-.53-.37,2,2,0,0,0-.75-.13,2,2,0,0,0-.74.13,1.85,1.85,0,0,0-.59.37,2,2,0,0,0-.42.56,1.77,1.77,0,0,0-.19.68Z"/><path class="cls-4" d="M316.82,344.73h-1.69v-12h1.69Z"/><path class="cls-4" d="M322.2,336.91a2.78,2.78,0,0,1,1.59-.46,2.93,2.93,0,0,1,1.47.38,2.54,2.54,0,0,1,1,1.24,2.91,2.91,0,0,1,1.13-1.2,3.16,3.16,0,0,1,1.6-.42,3.13,3.13,0,0,1,1.35.27,2.72,2.72,0,0,1,.93.7,2.88,2.88,0,0,1,.55,1,4.4,4.4,0,0,1,.18,1.28v5h-1.6v-4.47a4.6,4.6,0,0,0-.08-.93,2.26,2.26,0,0,0-.29-.78,1.67,1.67,0,0,0-.54-.55,1.75,1.75,0,0,0-.87-.2,1.77,1.77,0,0,0-.94.23,1.88,1.88,0,0,0-.63.59,2.38,2.38,0,0,0-.36.83,4.15,4.15,0,0,0-.11.93v4.35H325v-4.79a4.6,4.6,0,0,0-.08-.87,1.94,1.94,0,0,0-.29-.67,1.42,1.42,0,0,0-.53-.44,1.76,1.76,0,0,0-.8-.16,1.82,1.82,0,0,0-1.47.72,3,3,0,0,0-.59,1.93v4.28h-1.59v-6.32c0-.21,0-.49,0-.83s0-.64-.05-.9h1.51c0,.2,0,.43,0,.69s0,.46,0,.63h.05A2.67,2.67,0,0,1,322.2,336.91Z"/><path class="cls-4" d="M337.28,336.91a2.76,2.76,0,0,1,1.59-.46,2.93,2.93,0,0,1,1.47.38,2.47,2.47,0,0,1,1,1.24,3,3,0,0,1,1.14-1.2,3.16,3.16,0,0,1,1.6-.42,3,3,0,0,1,1.34.27,2.66,2.66,0,0,1,.94.7,2.88,2.88,0,0,1,.55,1,4.4,4.4,0,0,1,.18,1.28v5h-1.6v-4.47a5.46,5.46,0,0,0-.08-.93,2.48,2.48,0,0,0-.29-.78,1.67,1.67,0,0,0-.54-.55,1.75,1.75,0,0,0-.87-.2,1.77,1.77,0,0,0-.94.23,1.88,1.88,0,0,0-.63.59,2.38,2.38,0,0,0-.36.83,4.15,4.15,0,0,0-.11.93v4.35h-1.6v-4.79a4.6,4.6,0,0,0-.08-.87,1.94,1.94,0,0,0-.29-.67,1.51,1.51,0,0,0-.53-.44,1.76,1.76,0,0,0-.8-.16,1.82,1.82,0,0,0-1.47.72,3,3,0,0,0-.59,1.93v4.28h-1.6v-6.32c0-.21,0-.49,0-.83s0-.64-.05-.9h1.51c0,.2,0,.43.05.69s0,.46,0,.63h.05A2.67,2.67,0,0,1,337.28,336.91Z"/><path class="cls-4" d="M355.49,344.73c0-.2,0-.43-.05-.68s0-.47,0-.64h0a2.61,2.61,0,0,1-1,1.09,3,3,0,0,1-1.61.45,3.29,3.29,0,0,1-1.35-.25,2.46,2.46,0,0,1-.93-.71,2.88,2.88,0,0,1-.55-1,4.77,4.77,0,0,1-.17-1.28v-5h1.59v4.45a5.67,5.67,0,0,0,.08.94,2.31,2.31,0,0,0,.28.79,1.55,1.55,0,0,0,.56.55,1.93,1.93,0,0,0,.92.2,1.91,1.91,0,0,0,1.56-.72,2.91,2.91,0,0,0,.6-1.93v-4.28h1.6V343c0,.22,0,.49,0,.83s0,.64.05.9Z"/><path class="cls-4" d="M363.65,338h-2.14v4.18a1.58,1.58,0,0,0,.27,1,1.09,1.09,0,0,0,.87.32,2.69,2.69,0,0,0,.47,0,1.91,1.91,0,0,0,.46-.14l.06,1.31a4,4,0,0,1-.64.16,4.32,4.32,0,0,1-.73.06,2.31,2.31,0,0,1-1.74-.63,2.65,2.65,0,0,1-.6-1.89V338h-1.55v-1.31h1.55v-2.32h1.58v2.32h2.14Z"/><path class="cls-4" d="M370.32,339.52a1.61,1.61,0,0,0-.55-1.34,2.23,2.23,0,0,0-1.44-.43A3.1,3.1,0,0,0,367,338a3.36,3.36,0,0,0-1,.67l-.85-1a4.25,4.25,0,0,1,1.46-.88,5.05,5.05,0,0,1,1.84-.33,4.2,4.2,0,0,1,1.5.25,2.92,2.92,0,0,1,1,.67,2.74,2.74,0,0,1,.61,1,3.59,3.59,0,0,1,.21,1.24v3.52c0,.27,0,.55,0,.85a5.53,5.53,0,0,0,.09.74h-1.44a5,5,0,0,1-.14-1.15h-.05a3,3,0,0,1-1.11,1,3.33,3.33,0,0,1-1.59.36,3.85,3.85,0,0,1-1-.13,2.71,2.71,0,0,1-.95-.42,2.22,2.22,0,0,1-1-1.93,2.06,2.06,0,0,1,.49-1.46,3.13,3.13,0,0,1,1.29-.81,7.25,7.25,0,0,1,1.8-.37c.67-.06,1.35-.08,2-.08Zm-.4,1.37c-.39,0-.8,0-1.23.05a5.48,5.48,0,0,0-1.15.21,2,2,0,0,0-.86.46,1,1,0,0,0-.34.81,1.21,1.21,0,0,0,.14.6,1.29,1.29,0,0,0,.38.39,1.63,1.63,0,0,0,.53.21,2.91,2.91,0,0,0,.6.06,2.19,2.19,0,0,0,1.72-.67,2.45,2.45,0,0,0,.61-1.69v-.43Z"/><path class="cls-4" d="M376.1,343.46v1.27h-1.55V331.88h1.6v6h.05a3.49,3.49,0,0,1,1.13-1,3.44,3.44,0,0,1,1.73-.42,4,4,0,0,1,1.64.33,3.59,3.59,0,0,1,1.27.9,4,4,0,0,1,.82,1.35,4.9,4.9,0,0,1,0,3.32,3.94,3.94,0,0,1-.81,1.36,3.65,3.65,0,0,1-1.27.91A4.13,4.13,0,0,1,379,345a3.63,3.63,0,0,1-1.65-.38,3,3,0,0,1-1.25-1.11Zm5.35-2.76a3.6,3.6,0,0,0-.17-1.09,2.64,2.64,0,0,0-.51-.93,2.41,2.41,0,0,0-.84-.64,2.69,2.69,0,0,0-1.17-.24,2.54,2.54,0,0,0-1.11.24,2.58,2.58,0,0,0-.86.64,2.9,2.9,0,0,0-.55.93,3.15,3.15,0,0,0,0,2.21,2.85,2.85,0,0,0,.55.92,2.7,2.7,0,0,0,.86.63,2.54,2.54,0,0,0,1.11.24,2.69,2.69,0,0,0,1.17-.24,2.59,2.59,0,0,0,.84-.66,2.64,2.64,0,0,0,.51-.93A3.59,3.59,0,0,0,381.45,340.7Z"/><path class="cls-4" d="M387,344.73h-1.6V331.88H387Z"/><path class="cls-4" d="M397.28,340.64v.27a2.45,2.45,0,0,1,0,.27h-6.41a2.33,2.33,0,0,0,.23.95,2.46,2.46,0,0,0,.57.78,2.83,2.83,0,0,0,3.23.35,2.93,2.93,0,0,0,.94-.87l1.12.9a4,4,0,0,1-1.52,1.26,4.63,4.63,0,0,1-1.95.4,4.71,4.71,0,0,1-1.7-.3,3.81,3.81,0,0,1-1.34-.86,4,4,0,0,1-.89-1.33,4.91,4.91,0,0,1,0-3.46,4,4,0,0,1,.88-1.35,4,4,0,0,1,1.33-.88,4.29,4.29,0,0,1,1.65-.32,4.35,4.35,0,0,1,1.61.29,3.41,3.41,0,0,1,1.23.84,3.78,3.78,0,0,1,.77,1.31A5.06,5.06,0,0,1,397.28,340.64Zm-1.63-.65a3.19,3.19,0,0,0-.17-.89,1.85,1.85,0,0,0-.42-.72,2,2,0,0,0-.7-.49,2.45,2.45,0,0,0-1-.18,2.56,2.56,0,0,0-1,.18,2.4,2.4,0,0,0-.78.49,2.43,2.43,0,0,0-.54.72,2.28,2.28,0,0,0-.25.89Z"/><path class="cls-4" d="M409.81,334.93a2.77,2.77,0,0,0-1-.81,3,3,0,0,0-1.38-.32,3.3,3.3,0,0,0-.82.11,2.53,2.53,0,0,0-.76.36,2,2,0,0,0-.55.61,1.77,1.77,0,0,0-.22.88,1.58,1.58,0,0,0,.2.82,1.77,1.77,0,0,0,.53.56,2.85,2.85,0,0,0,.78.39l1,.34c.41.12.82.26,1.24.42a4.5,4.5,0,0,1,1.14.63,3,3,0,0,1,.83,1,3,3,0,0,1,.32,1.49,3.58,3.58,0,0,1-.34,1.62,3.36,3.36,0,0,1-.93,1.14,4.06,4.06,0,0,1-1.33.67A5.5,5.5,0,0,1,407,345a5.76,5.76,0,0,1-2.2-.44,4.36,4.36,0,0,1-1.76-1.31l1.31-1.11A3.31,3.31,0,0,0,407,343.6a3.06,3.06,0,0,0,.85-.12,2.36,2.36,0,0,0,.78-.38,2.07,2.07,0,0,0,.57-.64,1.87,1.87,0,0,0,.22-.92,1.71,1.71,0,0,0-.23-.91,2,2,0,0,0-.62-.62,3.83,3.83,0,0,0-.91-.43c-.35-.12-.71-.25-1.1-.37a8.75,8.75,0,0,1-1.14-.42,3.68,3.68,0,0,1-1-.63,2.92,2.92,0,0,1-.71-.94,3,3,0,0,1-.28-1.39,3.14,3.14,0,0,1,.37-1.55,3.26,3.26,0,0,1,1-1.07,3.87,3.87,0,0,1,1.33-.62,5.81,5.81,0,0,1,1.49-.2,5.2,5.2,0,0,1,2,.38,4,4,0,0,1,1.48,1Z"/><path class="cls-4" d="M417.27,338h-2.14v4.18a1.58,1.58,0,0,0,.27,1,1.09,1.09,0,0,0,.87.32,2.79,2.79,0,0,0,.47,0,1.91,1.91,0,0,0,.46-.14l.05,1.31a3.52,3.52,0,0,1-.64.16,4.2,4.2,0,0,1-.72.06,2.29,2.29,0,0,1-1.74-.63,2.65,2.65,0,0,1-.6-1.89V338H412v-1.31h1.55v-2.32h1.58v2.32h2.14Z"/><path class="cls-4" d="M427.08,340.69a4.43,4.43,0,0,1-.33,1.72,4.25,4.25,0,0,1-.92,1.35,4.07,4.07,0,0,1-1.39.88,4.9,4.9,0,0,1-3.43,0,4.12,4.12,0,0,1-1.38-.88,4.23,4.23,0,0,1-.91-1.35,4.43,4.43,0,0,1-.33-1.72,4.34,4.34,0,0,1,.33-1.71,4,4,0,0,1,.91-1.33,4.12,4.12,0,0,1,1.38-.88,4.76,4.76,0,0,1,3.43,0,4.09,4.09,0,0,1,2.31,2.21A4.34,4.34,0,0,1,427.08,340.69Zm-1.67,0a3.44,3.44,0,0,0-.18-1.11,2.78,2.78,0,0,0-.52-.92,2.51,2.51,0,0,0-.84-.63,2.66,2.66,0,0,0-1.15-.24,2.6,2.6,0,0,0-1.15.24,2.45,2.45,0,0,0-.85.63,2.78,2.78,0,0,0-.52.92,3.44,3.44,0,0,0-.18,1.11,3.38,3.38,0,0,0,.18,1.1,2.83,2.83,0,0,0,.52.93,2.36,2.36,0,0,0,.85.64,2.6,2.6,0,0,0,1.15.24,2.66,2.66,0,0,0,1.15-.24,2.41,2.41,0,0,0,.84-.64,2.83,2.83,0,0,0,.52-.93A3.38,3.38,0,0,0,425.41,340.7Z"/><path class="cls-4" d="M429.27,337.58c0-.34,0-.64,0-.9h1.51a6.76,6.76,0,0,1,0,.7c0,.27,0,.49,0,.66h.05a2.79,2.79,0,0,1,1-1.15,2.57,2.57,0,0,1,1.47-.44,2.74,2.74,0,0,1,.63.07l-.07,1.48a3.4,3.4,0,0,0-.73-.08,2.28,2.28,0,0,0-1,.21,2,2,0,0,0-.7.57,2.36,2.36,0,0,0-.42.82,3.56,3.56,0,0,0-.13,1v4.23h-1.6v-6.32C429.29,338.2,429.28,337.92,429.27,337.58Z"/><path class="cls-4" d="M442.67,340.64v.27a2.45,2.45,0,0,1,0,.27h-6.41a2.33,2.33,0,0,0,.23.95,2.46,2.46,0,0,0,.57.78,2.77,2.77,0,0,0,4.16-.52l1.13.9a4,4,0,0,1-1.52,1.26,4.63,4.63,0,0,1-1.95.4,4.71,4.71,0,0,1-1.7-.3,3.81,3.81,0,0,1-1.34-.86,4,4,0,0,1-.89-1.33,4.91,4.91,0,0,1,0-3.46,4,4,0,0,1,.88-1.35,4,4,0,0,1,1.33-.88,4.29,4.29,0,0,1,1.65-.32,4.35,4.35,0,0,1,1.61.29,3.41,3.41,0,0,1,1.23.84,3.78,3.78,0,0,1,.77,1.31A5.06,5.06,0,0,1,442.67,340.64ZM441,340a2.87,2.87,0,0,0-.16-.89,1.85,1.85,0,0,0-.42-.72,2,2,0,0,0-.7-.49,2.45,2.45,0,0,0-1-.18,2.56,2.56,0,0,0-1,.18,2.4,2.4,0,0,0-.78.49,2.43,2.43,0,0,0-.54.72,2.28,2.28,0,0,0-.25.89Z"/><rect class="cls-2" x="156.19" y="136.44" width="356.96" height="74.6"/><path class="cls-4" d="M169.9,202.58h-1.22V193.3h1.2v1h0a2.28,2.28,0,0,1,.87-.81,2.77,2.77,0,0,1,1.34-.32,3,3,0,0,1,1.26.25,2.78,2.78,0,0,1,1,.69,3.17,3.17,0,0,1,.63,1,3.78,3.78,0,0,1,0,2.54,3.27,3.27,0,0,1-.62,1,2.88,2.88,0,0,1-1,.7,3.11,3.11,0,0,1-1.28.25,2.82,2.82,0,0,1-1.25-.28,2.33,2.33,0,0,1-.92-.81h0Zm4.06-6.21a2.57,2.57,0,0,0-.13-.83,2.28,2.28,0,0,0-.39-.72,1.83,1.83,0,0,0-.64-.49,2.11,2.11,0,0,0-.89-.18,2,2,0,0,0-.86.18,2,2,0,0,0-.65.49,2.35,2.35,0,0,0-.42.72,2.46,2.46,0,0,0,0,1.69,2.3,2.3,0,0,0,.42.71,2.07,2.07,0,0,0,.65.48,2,2,0,0,0,.86.18,1.87,1.87,0,0,0,1.53-.68,2.28,2.28,0,0,0,.39-.72A2.57,2.57,0,0,0,174,196.37Z"/><path class="cls-4" d="M176.91,194c0-.26,0-.49,0-.69H178c0,.16,0,.34,0,.54s0,.37,0,.5h0a2.16,2.16,0,0,1,.76-.88,2,2,0,0,1,1.12-.33,2.17,2.17,0,0,1,.49.05l-.06,1.13a2.44,2.44,0,0,0-.55-.06,1.65,1.65,0,0,0-.77.16,1.56,1.56,0,0,0-.54.44,1.87,1.87,0,0,0-.32.63,2.66,2.66,0,0,0-.1.75v3.23h-1.23v-4.83C176.92,194.46,176.92,194.25,176.91,194Z"/><path class="cls-4" d="M187.65,196.37a3.18,3.18,0,0,1-1,2.35,3,3,0,0,1-1.06.67,3.51,3.51,0,0,1-1.31.24,3.55,3.55,0,0,1-1.31-.24,3,3,0,0,1-1-.67,3.23,3.23,0,0,1-.7-1,3.56,3.56,0,0,1,0-2.62,3.11,3.11,0,0,1,1.75-1.69,3.55,3.55,0,0,1,1.31-.24,3.51,3.51,0,0,1,1.31.24,3.15,3.15,0,0,1,1.77,1.69A3.29,3.29,0,0,1,187.65,196.37Zm-1.27,0a2.64,2.64,0,0,0-.14-.84,2.1,2.1,0,0,0-.4-.7,1.83,1.83,0,0,0-.64-.49,2.27,2.27,0,0,0-1.77,0,1.83,1.83,0,0,0-.64.49,2.1,2.1,0,0,0-.4.7,2.62,2.62,0,0,0,0,1.69,2.25,2.25,0,0,0,.4.71,1.83,1.83,0,0,0,.64.49,2.27,2.27,0,0,0,1.77,0,1.83,1.83,0,0,0,.64-.49,2.25,2.25,0,0,0,.4-.71A2.66,2.66,0,0,0,186.38,196.37Z"/><path class="cls-4" d="M189.82,200.52a2.9,2.9,0,0,0,1,.72,2.84,2.84,0,0,0,1.24.28,2.6,2.6,0,0,0,1-.18,1.86,1.86,0,0,0,.67-.48,1.88,1.88,0,0,0,.36-.72,3.7,3.7,0,0,0,.11-.9v-.79h0a2.09,2.09,0,0,1-.92.79,2.93,2.93,0,0,1-1.25.27,3.35,3.35,0,0,1-1.28-.24,3,3,0,0,1-1-.68,2.81,2.81,0,0,1-.62-1,3.37,3.37,0,0,1-.22-1.24,3.5,3.5,0,0,1,.22-1.25,3,3,0,0,1,.62-1,2.74,2.74,0,0,1,1-.68,3.07,3.07,0,0,1,1.27-.26,3,3,0,0,1,1.27.29,2.16,2.16,0,0,1,.95.87h0v-1h1.18v5.85a4.57,4.57,0,0,1-.17,1.29,2.76,2.76,0,0,1-.57,1.1,3,3,0,0,1-1.05.76,4,4,0,0,1-1.61.28,4.62,4.62,0,0,1-1.62-.29,4,4,0,0,1-1.4-.83Zm.36-4.2a2.52,2.52,0,0,0,.14.82,2,2,0,0,0,.41.69,2.24,2.24,0,0,0,.64.48,2,2,0,0,0,.86.18,2.2,2.2,0,0,0,.86-.17,2.1,2.1,0,0,0,.67-.46,2.2,2.2,0,0,0,.42-.69,2.41,2.41,0,0,0,.15-.85,2.23,2.23,0,0,0-.15-.83,1.88,1.88,0,0,0-.43-.69,2.24,2.24,0,0,0-.66-.48,2,2,0,0,0-.86-.17,2,2,0,0,0-.86.17,1.9,1.9,0,0,0-.64.47,1.84,1.84,0,0,0-.41.69A2.55,2.55,0,0,0,190.18,196.32Z"/><path class="cls-4" d="M197.54,194c0-.26,0-.49,0-.69h1.16c0,.16,0,.34,0,.54s0,.37,0,.5h0a2.16,2.16,0,0,1,.76-.88,2,2,0,0,1,1.13-.33,2.14,2.14,0,0,1,.48.05l-.05,1.13a2.53,2.53,0,0,0-.56-.06,1.68,1.68,0,0,0-.77.16,1.56,1.56,0,0,0-.54.44,1.87,1.87,0,0,0-.32.63,2.66,2.66,0,0,0-.1.75v3.23h-1.22v-4.83C197.56,194.46,197.55,194.25,197.54,194Z"/><path class="cls-4" d="M205.93,195.47a1.22,1.22,0,0,0-.42-1,1.72,1.72,0,0,0-1.1-.33,2.54,2.54,0,0,0-1,.2,2.87,2.87,0,0,0-.77.51l-.65-.78a3.23,3.23,0,0,1,1.11-.67,3.88,3.88,0,0,1,1.41-.25,3.3,3.3,0,0,1,1.15.19,2.2,2.2,0,0,1,.8.51,2.11,2.11,0,0,1,.47.77,3,3,0,0,1,.16,1v2.69c0,.21,0,.43,0,.66a2.57,2.57,0,0,0,.07.56h-1.11a3.77,3.77,0,0,1-.1-.88h0a2.5,2.5,0,0,1-.85.77,2.58,2.58,0,0,1-1.22.27,3,3,0,0,1-.76-.1,2.12,2.12,0,0,1-.72-.32,1.68,1.68,0,0,1-.54-.58,1.79,1.79,0,0,1-.21-.9,1.57,1.57,0,0,1,.37-1.11,2.43,2.43,0,0,1,1-.62,5.19,5.19,0,0,1,1.38-.28c.51-.05,1-.07,1.55-.07Zm-.3,1.05c-.31,0-.62,0-.94,0a4.56,4.56,0,0,0-.89.16,1.62,1.62,0,0,0-.65.35.78.78,0,0,0-.26.63.79.79,0,0,0,.11.45.92.92,0,0,0,.29.3,1.09,1.09,0,0,0,.4.16,2.31,2.31,0,0,0,.46,0,1.67,1.67,0,0,0,1.32-.52,1.88,1.88,0,0,0,.46-1.29v-.33Z"/><path class="cls-4" d="M211.08,193.48a2.14,2.14,0,0,1,1.22-.35,2.22,2.22,0,0,1,1.12.29,1.9,1.9,0,0,1,.79,1,2.21,2.21,0,0,1,.87-.92,2.44,2.44,0,0,1,1.22-.32,2.49,2.49,0,0,1,1,.2,2.27,2.27,0,0,1,.71.54,2.37,2.37,0,0,1,.43.8,3.35,3.35,0,0,1,.13,1v3.82h-1.22V196a4,4,0,0,0-.06-.71,1.79,1.79,0,0,0-.23-.6,1.27,1.27,0,0,0-.41-.42,1.34,1.34,0,0,0-.66-.15,1.47,1.47,0,0,0-.72.17,1.54,1.54,0,0,0-.49.46,2.22,2.22,0,0,0-.27.63,2.81,2.81,0,0,0-.08.71v3.33h-1.23V195.8a3.4,3.4,0,0,0-.06-.67,1.49,1.49,0,0,0-.22-.51,1.25,1.25,0,0,0-.41-.34,1.35,1.35,0,0,0-.61-.12,1.38,1.38,0,0,0-1.12.55,2.27,2.27,0,0,0-.45,1.48v3.27h-1.22v-4.83c0-.17,0-.38,0-.64s0-.49,0-.69h1.15c0,.16,0,.33,0,.53s0,.35,0,.48h0A2.19,2.19,0,0,1,211.08,193.48Z"/><path class="cls-4" d="M222.61,193.48a2.14,2.14,0,0,1,1.22-.35,2.22,2.22,0,0,1,1.12.29,1.85,1.85,0,0,1,.79,1,2.21,2.21,0,0,1,.87-.92,2.44,2.44,0,0,1,1.22-.32,2.49,2.49,0,0,1,1,.2,2.27,2.27,0,0,1,.71.54,2.21,2.21,0,0,1,.43.8,3.35,3.35,0,0,1,.13,1v3.82h-1.22V196a4,4,0,0,0-.06-.71,1.79,1.79,0,0,0-.23-.6,1.27,1.27,0,0,0-.41-.42,1.32,1.32,0,0,0-.66-.15,1.47,1.47,0,0,0-.72.17,1.54,1.54,0,0,0-.49.46,2.22,2.22,0,0,0-.27.63,2.81,2.81,0,0,0-.08.71v3.33h-1.23V195.8a3.4,3.4,0,0,0-.06-.67,1.32,1.32,0,0,0-.22-.51,1.25,1.25,0,0,0-.41-.34,1.35,1.35,0,0,0-.61-.12,1.38,1.38,0,0,0-1.12.55,2.27,2.27,0,0,0-.45,1.48v3.27h-1.22v-4.83c0-.17,0-.38,0-.64s0-.49,0-.69h1.15c0,.16,0,.33,0,.53s0,.35,0,.48h0A2.19,2.19,0,0,1,222.61,193.48Z"/><path class="cls-4" d="M236,195.47a1.21,1.21,0,0,0-.41-1,1.75,1.75,0,0,0-1.11-.33,2.53,2.53,0,0,0-1,.2,2.72,2.72,0,0,0-.77.51l-.65-.78a3.23,3.23,0,0,1,1.11-.67,3.88,3.88,0,0,1,1.41-.25,3.3,3.3,0,0,1,1.15.19,2.29,2.29,0,0,1,.8.51,2.25,2.25,0,0,1,.47.77,3,3,0,0,1,.15,1v2.69c0,.21,0,.43,0,.66a3.24,3.24,0,0,0,.08.56h-1.11a3.77,3.77,0,0,1-.1-.88h0a2.5,2.5,0,0,1-.85.77,2.61,2.61,0,0,1-1.22.27,2.94,2.94,0,0,1-.76-.1,2,2,0,0,1-.72-.32,1.68,1.68,0,0,1-.54-.58,1.79,1.79,0,0,1-.22-.9,1.57,1.57,0,0,1,.38-1.11,2.36,2.36,0,0,1,1-.62,5.19,5.19,0,0,1,1.38-.28c.51-.05,1-.07,1.54-.07Zm-.29,1.05c-.31,0-.62,0-1,0a4.45,4.45,0,0,0-.88.16,1.67,1.67,0,0,0-.66.35.81.81,0,0,0-.26.63.88.88,0,0,0,.11.45,1,1,0,0,0,.3.3,1.09,1.09,0,0,0,.4.16,2.3,2.3,0,0,0,.45,0,1.64,1.64,0,0,0,1.32-.52,1.84,1.84,0,0,0,.46-1.29v-.33Z"/><path class="cls-4" d="M240.45,198.49v1h-1.18v-9.83h1.22v4.59h0a2.62,2.62,0,0,1,2.19-1.09,3,3,0,0,1,1.26.25,2.78,2.78,0,0,1,1,.69,3.17,3.17,0,0,1,.63,1,3.78,3.78,0,0,1,0,2.54,3.12,3.12,0,0,1-.63,1,2.75,2.75,0,0,1-1,.7,3.11,3.11,0,0,1-1.28.25,2.91,2.91,0,0,1-1.26-.29,2.39,2.39,0,0,1-1-.85Zm4.1-2.12a2.51,2.51,0,0,0-.13-.82,2.28,2.28,0,0,0-.39-.72,2,2,0,0,0-.64-.49,2.11,2.11,0,0,0-.89-.18,2,2,0,0,0-.86.18,2.1,2.1,0,0,0-.65.49,2.17,2.17,0,0,0-.42.72,2.32,2.32,0,0,0-.15.84,2.4,2.4,0,0,0,.15.84,2.12,2.12,0,0,0,.42.71,2.07,2.07,0,0,0,.65.48,2,2,0,0,0,.86.18,1.87,1.87,0,0,0,1.53-.68,2.28,2.28,0,0,0,.39-.72A2.53,2.53,0,0,0,244.55,196.37Z"/><path class="cls-4" d="M248.76,199.46h-1.22v-9.83h1.22Z"/><path class="cls-4" d="M256.65,196.33v.21a1.48,1.48,0,0,1,0,.21h-4.9a2,2,0,0,0,.17.73,2.12,2.12,0,0,0,.44.59,1.86,1.86,0,0,0,.63.39,1.94,1.94,0,0,0,.76.14,2.06,2.06,0,0,0,1.08-.27,2.15,2.15,0,0,0,.71-.66l.86.69a3,3,0,0,1-1.16,1,3.46,3.46,0,0,1-1.49.31,3.66,3.66,0,0,1-1.3-.23,3.14,3.14,0,0,1-1-.66,3,3,0,0,1-.67-1,3.35,3.35,0,0,1-.25-1.33,3.51,3.51,0,0,1,.24-1.31,3.11,3.11,0,0,1,.67-1,3.23,3.23,0,0,1,1-.67,3.29,3.29,0,0,1,1.26-.24,3.45,3.45,0,0,1,1.23.22,2.58,2.58,0,0,1,.94.64,2.67,2.67,0,0,1,.59,1A4,4,0,0,1,256.65,196.33Zm-1.25-.49a2.22,2.22,0,0,0-.12-.69,1.59,1.59,0,0,0-.32-.55,1.62,1.62,0,0,0-.54-.37,1.88,1.88,0,0,0-.74-.14,1.91,1.91,0,0,0-1.75,1.06,1.82,1.82,0,0,0-.19.69Z"/><path class="cls-4" d="M324.86,170.23a2.76,2.76,0,0,0-1-.8,2.94,2.94,0,0,0-1.37-.32,3.38,3.38,0,0,0-.83.11,2.53,2.53,0,0,0-.76.36,2,2,0,0,0-.55.61,1.76,1.76,0,0,0-.21.88,1.49,1.49,0,0,0,.2.82,1.74,1.74,0,0,0,.52.56,2.85,2.85,0,0,0,.78.39l1,.34c.41.12.83.26,1.25.42a4.62,4.62,0,0,1,1.13.63,3.19,3.19,0,0,1,.84,1,3.09,3.09,0,0,1,.32,1.48,3.59,3.59,0,0,1-.35,1.63,3.33,3.33,0,0,1-.92,1.14,4,4,0,0,1-1.34.67,5.38,5.38,0,0,1-1.55.22,5.81,5.81,0,0,1-2.21-.44A4.5,4.5,0,0,1,318,178.6l1.31-1.11a3.3,3.3,0,0,0,1.14,1,3.19,3.19,0,0,0,1.55.39,3.54,3.54,0,0,0,.85-.11,2.41,2.41,0,0,0,.77-.38,1.85,1.85,0,0,0,.57-.64,1.77,1.77,0,0,0,.22-.92,1.6,1.6,0,0,0-.23-.91,1.93,1.93,0,0,0-.62-.62,4.05,4.05,0,0,0-.91-.44l-1.09-.36a7.79,7.79,0,0,1-1.14-.42,3.54,3.54,0,0,1-1-.63,2.81,2.81,0,0,1-.72-.94,3.19,3.19,0,0,1-.27-1.39,3,3,0,0,1,.37-1.55,3.26,3.26,0,0,1,1-1.07,3.82,3.82,0,0,1,1.32-.62,5.87,5.87,0,0,1,1.49-.2,5.16,5.16,0,0,1,2,.38,3.8,3.8,0,0,1,1.48,1Z"/><path class="cls-4" d="M331,172.22a2.69,2.69,0,0,1,1.59-.46,2.93,2.93,0,0,1,1.47.38,2.54,2.54,0,0,1,1,1.24,2.91,2.91,0,0,1,1.13-1.2,3.16,3.16,0,0,1,1.6-.42,3.13,3.13,0,0,1,1.35.27,2.72,2.72,0,0,1,.93.7,2.88,2.88,0,0,1,.55,1,4.4,4.4,0,0,1,.18,1.28v5h-1.6v-4.47a4.6,4.6,0,0,0-.08-.93,2.4,2.4,0,0,0-.29-.79,1.5,1.5,0,0,0-1.41-.74,1.77,1.77,0,0,0-.94.23,1.88,1.88,0,0,0-.63.59,2.38,2.38,0,0,0-.36.83,4.08,4.08,0,0,0-.11.93V180h-1.6v-4.79a4.6,4.6,0,0,0-.08-.87,1.94,1.94,0,0,0-.29-.67,1.51,1.51,0,0,0-.53-.44,1.76,1.76,0,0,0-.8-.16,1.82,1.82,0,0,0-1.47.72,3,3,0,0,0-.59,1.93V180h-1.59v-6.32c0-.22,0-.49,0-.83s0-.64-.05-.9h1.51c0,.2,0,.43,0,.68s0,.47,0,.64h0A2.61,2.61,0,0,1,331,172.22Z"/><path class="cls-4" d="M348.56,174.82a1.6,1.6,0,0,0-.54-1.33,2.27,2.27,0,0,0-1.45-.43,3.09,3.09,0,0,0-1.28.26,3.41,3.41,0,0,0-1,.67l-.84-1a4.21,4.21,0,0,1,1.45-.88,5.09,5.09,0,0,1,1.84-.33,4.3,4.3,0,0,1,1.51.25,3,3,0,0,1,1,.67,2.8,2.8,0,0,1,.62,1,3.9,3.9,0,0,1,.2,1.25v3.52c0,.27,0,.55,0,.85a4.14,4.14,0,0,0,.1.74h-1.45a5,5,0,0,1-.13-1.15h-.05a3.16,3.16,0,0,1-1.12,1,3.3,3.3,0,0,1-1.59.36,4.42,4.42,0,0,1-1-.13,2.76,2.76,0,0,1-.94-.42,2.2,2.2,0,0,1-1-1.94,2.05,2.05,0,0,1,.49-1.45,3,3,0,0,1,1.29-.81,7.43,7.43,0,0,1,1.81-.37c.66-.06,1.34-.08,2-.08Zm-.39,1.38c-.4,0-.81,0-1.23.05a5.58,5.58,0,0,0-1.16.21,2.09,2.09,0,0,0-.86.46,1,1,0,0,0-.34.81,1.11,1.11,0,0,0,.15.6,1.18,1.18,0,0,0,.38.39,1.55,1.55,0,0,0,.53.21,2.88,2.88,0,0,0,.59.06,2.21,2.21,0,0,0,1.73-.67,2.44,2.44,0,0,0,.6-1.69v-.43Z"/><path class="cls-4" d="M352.74,172.89c0-.34,0-.64-.05-.9h1.51a6.55,6.55,0,0,1,.05.7c0,.27,0,.49,0,.66h.05a2.79,2.79,0,0,1,1-1.15,2.57,2.57,0,0,1,1.47-.44,2.74,2.74,0,0,1,.63.07l-.07,1.48a2.87,2.87,0,0,0-.73-.08,2.28,2.28,0,0,0-1,.21,2,2,0,0,0-.7.57,2.36,2.36,0,0,0-.42.82,3.51,3.51,0,0,0-.13,1V180h-1.6v-6.32C352.76,173.5,352.75,173.23,352.74,172.89Z"/><path class="cls-4" d="M362.67,173.29h-2.14v4.19a1.58,1.58,0,0,0,.27,1,1.09,1.09,0,0,0,.87.32,2.79,2.79,0,0,0,.47-.05,1.91,1.91,0,0,0,.46-.14l0,1.31a3.62,3.62,0,0,1-.63.16,4.4,4.4,0,0,1-.73.06,2.29,2.29,0,0,1-1.74-.63,2.65,2.65,0,0,1-.6-1.89v-4.37H357.4V172H359v-2.32h1.58V172h2.14Z"/><path class="cls-4" d="M374.64,170.23a2.76,2.76,0,0,0-1-.8,3,3,0,0,0-1.38-.32,3.3,3.3,0,0,0-.82.11,2.53,2.53,0,0,0-.76.36,1.89,1.89,0,0,0-.55.61,1.77,1.77,0,0,0-.22.88,1.58,1.58,0,0,0,.2.82,1.77,1.77,0,0,0,.53.56,2.85,2.85,0,0,0,.78.39l1,.34c.41.12.82.26,1.24.42a4.5,4.5,0,0,1,1.14.63,3,3,0,0,1,.83,1,3,3,0,0,1,.33,1.48,3.59,3.59,0,0,1-.35,1.63,3.25,3.25,0,0,1-.93,1.14,4,4,0,0,1-1.33.67,5.5,5.5,0,0,1-1.56.22,5.76,5.76,0,0,1-2.2-.44,4.36,4.36,0,0,1-1.76-1.31l1.31-1.11a3.27,3.27,0,0,0,2.69,1.41,3.61,3.61,0,0,0,.85-.11,2.41,2.41,0,0,0,.77-.38,2.07,2.07,0,0,0,.57-.64,1.77,1.77,0,0,0,.22-.92,1.68,1.68,0,0,0-.23-.91,1.93,1.93,0,0,0-.62-.62,4.05,4.05,0,0,0-.91-.44l-1.1-.36a8.75,8.75,0,0,1-1.14-.42,3.84,3.84,0,0,1-1-.63,2.92,2.92,0,0,1-.71-.94,3.19,3.19,0,0,1-.27-1.39,3.12,3.12,0,0,1,.36-1.55,3.26,3.26,0,0,1,.95-1.07,3.87,3.87,0,0,1,1.33-.62,5.81,5.81,0,0,1,1.49-.2,5.16,5.16,0,0,1,2,.38,3.87,3.87,0,0,1,1.48,1Z"/><path class="cls-4" d="M382.1,173.29H380v4.19a1.58,1.58,0,0,0,.27,1,1.09,1.09,0,0,0,.87.32,2.79,2.79,0,0,0,.47-.05,1.91,1.91,0,0,0,.46-.14l.05,1.31a3.62,3.62,0,0,1-.63.16,4.4,4.4,0,0,1-.73.06,2.29,2.29,0,0,1-1.74-.63,2.65,2.65,0,0,1-.6-1.89v-4.37h-1.55V172h1.55v-2.32H380V172h2.14Z"/><path class="cls-4" d="M383.73,172.89c0-.34,0-.64-.05-.9h1.51a6.55,6.55,0,0,1,.05.7c0,.27,0,.49,0,.66h.05a2.79,2.79,0,0,1,1-1.15,2.57,2.57,0,0,1,1.47-.44,2.74,2.74,0,0,1,.63.07l-.07,1.48a2.87,2.87,0,0,0-.73-.08,2.2,2.2,0,0,0-1,.21,2,2,0,0,0-.71.57,2.36,2.36,0,0,0-.42.82,3.51,3.51,0,0,0-.13,1V180h-1.6v-6.32C383.75,173.5,383.74,173.23,383.73,172.89Z"/><path class="cls-4" d="M397.13,176v.27a2.45,2.45,0,0,1,0,.27H390.7a2.33,2.33,0,0,0,.23.95,2.46,2.46,0,0,0,.57.78,2.81,2.81,0,0,0,3.23.34,2.8,2.8,0,0,0,.94-.86l1.12.9a4,4,0,0,1-1.52,1.26,4.63,4.63,0,0,1-1.95.4,4.71,4.71,0,0,1-1.7-.3,3.89,3.89,0,0,1-2.23-2.2,4.81,4.81,0,0,1,0-3.45,4.07,4.07,0,0,1,.87-1.36,4.14,4.14,0,0,1,1.33-.87,4.29,4.29,0,0,1,1.65-.32,4.35,4.35,0,0,1,1.61.29,3.25,3.25,0,0,1,1.23.84,3.8,3.8,0,0,1,.78,1.31A5.31,5.31,0,0,1,397.13,176Zm-1.63-.65a3.19,3.19,0,0,0-.17-.89,2,2,0,0,0-.42-.73,2.08,2.08,0,0,0-.7-.48,2.42,2.42,0,0,0-1-.18,2.6,2.6,0,0,0-1,.18,2.56,2.56,0,0,0-.78.48,2.61,2.61,0,0,0-.54.73,2.28,2.28,0,0,0-.25.89Z"/><path class="cls-4" d="M404.27,174.82a1.58,1.58,0,0,0-.55-1.33,2.23,2.23,0,0,0-1.44-.43,3.09,3.09,0,0,0-1.28.26,3.41,3.41,0,0,0-1,.67l-.85-1a4.35,4.35,0,0,1,1.46-.88,5.05,5.05,0,0,1,1.84-.33,4.3,4.3,0,0,1,1.51.25,3,3,0,0,1,1,.67,2.78,2.78,0,0,1,.61,1,3.64,3.64,0,0,1,.21,1.25v3.52c0,.27,0,.55,0,.85a4.14,4.14,0,0,0,.1.74h-1.45a5,5,0,0,1-.13-1.15h-.06a3,3,0,0,1-1.11,1,3.33,3.33,0,0,1-1.59.36,4.34,4.34,0,0,1-1-.13,2.9,2.9,0,0,1-.95-.42,2.33,2.33,0,0,1-.7-.76,2.27,2.27,0,0,1-.28-1.18,2.05,2.05,0,0,1,.49-1.45,3,3,0,0,1,1.29-.81,7.45,7.45,0,0,1,1.8-.37c.67-.06,1.35-.08,2-.08Zm-.39,1.38c-.4,0-.81,0-1.24.05a5.48,5.48,0,0,0-1.15.21,2.09,2.09,0,0,0-.86.46,1,1,0,0,0-.34.81,1.21,1.21,0,0,0,.14.6,1.32,1.32,0,0,0,.39.39,1.58,1.58,0,0,0,.52.21,3,3,0,0,0,.6.06,2.17,2.17,0,0,0,1.72-.67,2.41,2.41,0,0,0,.61-1.69v-.43Z"/><path class="cls-4" d="M411,172.22a2.73,2.73,0,0,1,1.59-.46,2.93,2.93,0,0,1,1.47.38,2.54,2.54,0,0,1,1,1.24,2.87,2.87,0,0,1,1.14-1.2,3.34,3.34,0,0,1,2.94-.15,2.69,2.69,0,0,1,1.48,1.74,4.4,4.4,0,0,1,.18,1.28v5h-1.6v-4.47a4.6,4.6,0,0,0-.08-.93,2.4,2.4,0,0,0-.29-.79,1.5,1.5,0,0,0-1.41-.74,1.8,1.8,0,0,0-.94.23,1.88,1.88,0,0,0-.63.59,2.38,2.38,0,0,0-.36.83,4.08,4.08,0,0,0-.11.93V180h-1.6v-4.79a4.6,4.6,0,0,0-.08-.87,1.94,1.94,0,0,0-.29-.67,1.42,1.42,0,0,0-.53-.44,1.73,1.73,0,0,0-.8-.16,1.82,1.82,0,0,0-1.47.72,3,3,0,0,0-.58,1.93V180h-1.6v-6.32c0-.22,0-.49,0-.83s0-.64-.05-.9h1.51c0,.2,0,.43,0,.68s0,.47,0,.64h0A2.61,2.61,0,0,1,411,172.22Z"/><path class="cls-4" d="M427.9,174a2.08,2.08,0,0,0-.77-.73A2.25,2.25,0,0,0,426,173a2.57,2.57,0,0,0-.55.06,1.46,1.46,0,0,0-.48.19,1,1,0,0,0-.34.32.83.83,0,0,0-.13.49.8.8,0,0,0,.46.75,5.28,5.28,0,0,0,1.38.45,7.9,7.9,0,0,1,1.07.33,3.51,3.51,0,0,1,.86.46,2.07,2.07,0,0,1,.57.68,2,2,0,0,1,.2.91,2.49,2.49,0,0,1-.27,1.21,2.34,2.34,0,0,1-.72.81,3,3,0,0,1-1,.45,5.23,5.23,0,0,1-1.19.13,4.92,4.92,0,0,1-1.8-.35,3.55,3.55,0,0,1-1.45-1.09l1.14-1a2.66,2.66,0,0,0,.89.8,2.55,2.55,0,0,0,1.25.32,2.81,2.81,0,0,0,.59-.06,1.63,1.63,0,0,0,.51-.19,1,1,0,0,0,.36-.36,1.06,1.06,0,0,0,.14-.56A.88.88,0,0,0,427,177a7.19,7.19,0,0,0-1.57-.51,8.54,8.54,0,0,1-.82-.25,2.9,2.9,0,0,1-.76-.4,1.89,1.89,0,0,1-.55-.64,1.92,1.92,0,0,1-.21-.94,2.17,2.17,0,0,1,.26-1.11,2.23,2.23,0,0,1,.69-.77,3,3,0,0,1,1-.44,4.15,4.15,0,0,1,1.12-.15,4.37,4.37,0,0,1,1.67.34,2.77,2.77,0,0,1,1.25,1Z"/><rect class="cls-2" x="155.49" y="219.46" width="356.96" height="74.6"/><path class="cls-4" d="M231.38,258.54a.76.76,0,0,1-.75-.66c-1.17-9.68-8.27-20-21.07-20h-.31c-12.48.16-19,10.17-20,20a.75.75,0,1,1-1.49-.14c1.39-14.59,11.77-21.24,21.43-21.37s21.09,6.5,22.89,21.35a.75.75,0,0,1-.65.84Z"/><path class="cls-4" d="M191.9,252.21a.72.72,0,0,1-.29-.06l-1.51-.64a.76.76,0,0,1-.4-1,.75.75,0,0,1,1-.39l1.51.64a.76.76,0,0,1,.39,1A.75.75,0,0,1,191.9,252.21Z"/><path class="cls-4" d="M209.49,240.3a.75.75,0,0,1-.75-.75v-2.3a.75.75,0,0,1,1.5,0v2.3A.76.76,0,0,1,209.49,240.3Z"/><path class="cls-4" d="M201.9,241.65a.75.75,0,0,1-.68-.44l-.84-1.83a.75.75,0,0,1,.37-1,.76.76,0,0,1,1,.37l.84,1.83a.75.75,0,0,1-.37,1A.74.74,0,0,1,201.9,241.65Z"/><path class="cls-4" d="M195.93,245.92a.75.75,0,0,1-.52-.21l-1.51-1.46a.75.75,0,0,1,0-1.06.75.75,0,0,1,1.06,0l1.5,1.46a.75.75,0,0,1,0,1.06A.76.76,0,0,1,195.93,245.92Z"/><path class="cls-4" d="M227.56,251.92a.75.75,0,0,1-.29-1.44l1.52-.65a.75.75,0,0,1,1,.4.74.74,0,0,1-.4,1l-1.51.65A.8.8,0,0,1,227.56,251.92Z"/><path class="cls-4" d="M217.08,241.5a.71.71,0,0,1-.32-.07.74.74,0,0,1-.36-1l.84-1.83a.75.75,0,1,1,1.36.63l-.84,1.83A.76.76,0,0,1,217.08,241.5Z"/><path class="cls-4" d="M223.37,245.77a.78.78,0,0,1-.55-.23.75.75,0,0,1,0-1.06l1.51-1.46a.75.75,0,0,1,1,1.08l-1.51,1.46A.77.77,0,0,1,223.37,245.77Z"/><polygon class="cls-4" points="209.44 253.31 223.64 247.96 211.14 256.57 209.44 253.31"/><path class="cls-4" d="M211.14,257.17l-.15,0a.59.59,0,0,1-.38-.31l-1.71-3.25a.56.56,0,0,1,0-.49.59.59,0,0,1,.34-.35l14.21-5.36a.62.62,0,0,1,.75.29.6.6,0,0,1-.2.77l-12.5,8.61A.6.6,0,0,1,211.14,257.17Zm-.86-3.54,1.08,2.06,7.89-5.44Z"/><path class="cls-4" d="M211.24,253.8a1.87,1.87,0,0,1,0,2.52,1.61,1.61,0,0,1-2.38,0,1.87,1.87,0,0,1,0-2.52,1.63,1.63,0,0,1,2.38,0"/><path class="cls-4" d="M210.05,257.45a2.24,2.24,0,0,1-1.62-.71,2.48,2.48,0,0,1,0-3.35,2.21,2.21,0,0,1,1.62-.71h0a2.23,2.23,0,0,1,1.63.71,2.5,2.5,0,0,1,0,3.35A2.27,2.27,0,0,1,210.05,257.45Zm0-3.57a1,1,0,0,0-.75.33,1.26,1.26,0,0,0,0,1.7,1,1,0,0,0,1.5,0,1.26,1.26,0,0,0,0-1.7,1,1,0,0,0-.75-.33Z"/><path class="cls-4" d="M200.14,271.69h-1.65v5.95h-1.41v-5.95h-1.41v-1.16h1.41v-1.48a4.81,4.81,0,0,1,.14-1.17,2.43,2.43,0,0,1,.47-.92,2.21,2.21,0,0,1,.82-.61,3,3,0,0,1,1.22-.23,3.33,3.33,0,0,1,.89.11l-.17,1.21-.33-.07a2.05,2.05,0,0,0-.37,0,1.23,1.23,0,0,0-.65.14,1,1,0,0,0-.39.38,1.55,1.55,0,0,0-.18.55,4.49,4.49,0,0,0,0,.64v1.48h1.65Z"/><path class="cls-4" d="M205.87,273a1.43,1.43,0,0,0-.48-1.18,2,2,0,0,0-1.28-.38,2.72,2.72,0,0,0-1.13.23,3,3,0,0,0-.89.59l-.75-.9a3.82,3.82,0,0,1,1.28-.78,4.62,4.62,0,0,1,1.63-.28,3.83,3.83,0,0,1,1.33.21,2.62,2.62,0,0,1,.92.6,2.41,2.41,0,0,1,.54.88,3.3,3.3,0,0,1,.18,1.1v3.1c0,.24,0,.5,0,.76a4.6,4.6,0,0,0,.08.65h-1.27a4.44,4.44,0,0,1-.12-1h-.05a2.7,2.7,0,0,1-1,.89,2.92,2.92,0,0,1-1.4.31,4,4,0,0,1-.88-.11,2.7,2.7,0,0,1-.83-.37,2,2,0,0,1-.62-.67,2,2,0,0,1-.25-1,1.8,1.8,0,0,1,.43-1.28,2.66,2.66,0,0,1,1.14-.72,6.22,6.22,0,0,1,1.59-.32c.59-.05,1.19-.08,1.79-.08Zm-.35,1.21c-.35,0-.71,0-1.08.05a4.9,4.9,0,0,0-1,.18,1.9,1.9,0,0,0-.76.4.92.92,0,0,0-.3.72,1,1,0,0,0,.46.87,1.5,1.5,0,0,0,.47.19,2.24,2.24,0,0,0,.52,0,2,2,0,0,0,1.53-.59,2.16,2.16,0,0,0,.53-1.49v-.38Z"/><path class="cls-4" d="M213.41,272.33a1.77,1.77,0,0,0-.67-.63,1.91,1.91,0,0,0-1-.25,2,2,0,0,0-.48.05,1.31,1.31,0,0,0-.42.16.84.84,0,0,0-.3.29.75.75,0,0,0-.12.43.7.7,0,0,0,.41.66,4.7,4.7,0,0,0,1.21.4,7.6,7.6,0,0,1,.95.29,2.9,2.9,0,0,1,.76.41,1.77,1.77,0,0,1,.5.59,1.73,1.73,0,0,1,.18.81,2.2,2.2,0,0,1-.24,1.07,2.08,2.08,0,0,1-.64.71,2.68,2.68,0,0,1-.91.4,4.57,4.57,0,0,1-1,.12,4.17,4.17,0,0,1-1.58-.32,3.12,3.12,0,0,1-1.28-1l1-.85a2.35,2.35,0,0,0,.79.7,2.2,2.2,0,0,0,1.1.29,2.87,2.87,0,0,0,.52-.05,1.51,1.51,0,0,0,.45-.18.87.87,0,0,0,.32-.31,1,1,0,0,0,.12-.5.76.76,0,0,0-.47-.73,6.28,6.28,0,0,0-1.39-.45c-.24-.06-.48-.14-.72-.22a2.51,2.51,0,0,1-.67-.35,1.81,1.81,0,0,1-.49-.57,1.73,1.73,0,0,1-.19-.83,1.92,1.92,0,0,1,.24-1,1.85,1.85,0,0,1,.6-.67,2.72,2.72,0,0,1,.86-.4,4.07,4.07,0,0,1,1-.12,3.8,3.8,0,0,1,1.48.3,2.46,2.46,0,0,1,1.1.87Z"/><path class="cls-4" d="M219.71,271.69h-1.89v3.69a1.39,1.39,0,0,0,.24.92,1,1,0,0,0,.77.28,3.29,3.29,0,0,0,.42,0,1.57,1.57,0,0,0,.4-.13l0,1.16a4.16,4.16,0,0,1-.56.14,4.48,4.48,0,0,1-.64.05,2,2,0,0,1-1.54-.55,2.36,2.36,0,0,1-.53-1.67v-3.85h-1.37v-1.16h1.37v-2h1.39v2h1.89Z"/><path class="cls-4" d="M319.3,250.75h4.13a8,8,0,0,1,2.31.34,6.19,6.19,0,0,1,2.09,1.07,5.49,5.49,0,0,1,1.52,1.87,6.06,6.06,0,0,1,.57,2.74,5.84,5.84,0,0,1-.57,2.67,5.49,5.49,0,0,1-1.52,1.87,6.28,6.28,0,0,1-2.09,1.11,7.73,7.73,0,0,1-2.31.36H319.3ZM321,261.31h2.11a6.46,6.46,0,0,0,2-.31,4.68,4.68,0,0,0,1.6-.88,4.06,4.06,0,0,0,1.05-1.43,4.73,4.73,0,0,0,.37-1.92,4.89,4.89,0,0,0-.37-2,3.9,3.9,0,0,0-1.05-1.41,4.66,4.66,0,0,0-1.6-.87,6.47,6.47,0,0,0-2-.3H321Z"/><path class="cls-4" d="M337.17,257.57a1.63,1.63,0,0,0-.55-1.34,2.23,2.23,0,0,0-1.44-.43,3.27,3.27,0,0,0-1.29.26,3.36,3.36,0,0,0-1,.67l-.85-1a4.3,4.3,0,0,1,1.45-.88,5.14,5.14,0,0,1,1.85-.32,4.21,4.21,0,0,1,1.5.24,2.92,2.92,0,0,1,1.05.67,2.74,2.74,0,0,1,.61,1,3.58,3.58,0,0,1,.2,1.24v3.52c0,.27,0,.55,0,.86a5.36,5.36,0,0,0,.09.73h-1.44a5,5,0,0,1-.14-1.15h-.05a3,3,0,0,1-1.11,1,3.33,3.33,0,0,1-1.59.36,4,4,0,0,1-1-.13,2.83,2.83,0,0,1-.94-.41,2.36,2.36,0,0,1-.7-.77,2.25,2.25,0,0,1-.28-1.17,2.08,2.08,0,0,1,.49-1.46,3.13,3.13,0,0,1,1.29-.81,7.25,7.25,0,0,1,1.8-.37c.67-.05,1.34-.08,2-.08Zm-.4,1.37c-.39,0-.8,0-1.23.05a6.21,6.21,0,0,0-1.15.21,2,2,0,0,0-.86.46,1,1,0,0,0-.34.81,1.11,1.11,0,0,0,.14.6,1.29,1.29,0,0,0,.38.39,1.63,1.63,0,0,0,.53.21,2.91,2.91,0,0,0,.6.06,2.19,2.19,0,0,0,1.72-.67,2.45,2.45,0,0,0,.61-1.69v-.43Z"/><path class="cls-4" d="M345.15,256H343v4.18a1.51,1.51,0,0,0,.28,1,1.08,1.08,0,0,0,.86.32,2.8,2.8,0,0,0,.48-.05,2.06,2.06,0,0,0,.46-.14l.05,1.31a3.74,3.74,0,0,1-.64.16,4.2,4.2,0,0,1-.72.06,2.29,2.29,0,0,1-1.74-.63,2.59,2.59,0,0,1-.61-1.88V256h-1.54v-1.31h1.54v-2.32H343v2.32h2.14Z"/><path class="cls-4" d="M351.82,257.57a1.6,1.6,0,0,0-.55-1.34,2.23,2.23,0,0,0-1.44-.43,3.25,3.25,0,0,0-1.28.26,3.41,3.41,0,0,0-1,.67l-.84-1a4.21,4.21,0,0,1,1.45-.88,5.09,5.09,0,0,1,1.84-.32,4.31,4.31,0,0,1,1.51.24,3,3,0,0,1,1,.67,2.76,2.76,0,0,1,.62,1,3.84,3.84,0,0,1,.2,1.24v3.52c0,.27,0,.55,0,.86a4,4,0,0,0,.1.73H352a5,5,0,0,1-.13-1.15h-.05a3.16,3.16,0,0,1-1.12,1,3.33,3.33,0,0,1-1.59.36,3.91,3.91,0,0,1-1-.13,2.88,2.88,0,0,1-.95-.41,2.48,2.48,0,0,1-.7-.77,2.25,2.25,0,0,1-.28-1.17,2.08,2.08,0,0,1,.49-1.46,3.13,3.13,0,0,1,1.29-.81,7.43,7.43,0,0,1,1.81-.37c.66-.05,1.34-.08,2-.08Zm-.39,1.37c-.4,0-.81,0-1.23.05a6.32,6.32,0,0,0-1.16.21,2.09,2.09,0,0,0-.86.46,1,1,0,0,0-.34.81,1.11,1.11,0,0,0,.15.6,1.09,1.09,0,0,0,.38.39,1.55,1.55,0,0,0,.53.21,2.88,2.88,0,0,0,.59.06,2.21,2.21,0,0,0,1.73-.67,2.44,2.44,0,0,0,.6-1.69v-.43Z"/><path class="cls-4" d="M366.34,253a2.68,2.68,0,0,0-1-.81,3,3,0,0,0-1.38-.32,3.3,3.3,0,0,0-.82.11,2.53,2.53,0,0,0-.76.36,2,2,0,0,0-.55.61,1.76,1.76,0,0,0-.21.88,1.58,1.58,0,0,0,.19.82,1.77,1.77,0,0,0,.53.56,3.17,3.17,0,0,0,.78.4l1,.33c.41.12.82.26,1.24.42a4.5,4.5,0,0,1,1.14.63,2.93,2.93,0,0,1,1.16,2.47,3.58,3.58,0,0,1-.35,1.62,3.25,3.25,0,0,1-.93,1.14,4,4,0,0,1-1.33.67,5.5,5.5,0,0,1-1.56.22,5.76,5.76,0,0,1-2.2-.44,4.36,4.36,0,0,1-1.76-1.31l1.31-1.1a3.2,3.2,0,0,0,1.14,1,3.13,3.13,0,0,0,2.39.28,2.36,2.36,0,0,0,.78-.38,2.15,2.15,0,0,0,.57-.63,1.83,1.83,0,0,0,.22-.93,1.71,1.71,0,0,0-.23-.91,2,2,0,0,0-.62-.62,3.65,3.65,0,0,0-.91-.43c-.35-.12-.71-.25-1.1-.37a8.75,8.75,0,0,1-1.14-.42,3.84,3.84,0,0,1-1-.63,2.81,2.81,0,0,1-.71-.94,3.18,3.18,0,0,1-.28-1.39,3.14,3.14,0,0,1,.37-1.55,3.26,3.26,0,0,1,.95-1.07,4.06,4.06,0,0,1,1.33-.62,5.81,5.81,0,0,1,1.49-.2,5.16,5.16,0,0,1,2,.38,4,4,0,0,1,1.48,1Z"/><path class="cls-4" d="M373.8,256h-2.14v4.18a1.56,1.56,0,0,0,.27,1,1.09,1.09,0,0,0,.87.32,2.79,2.79,0,0,0,.47-.05,1.91,1.91,0,0,0,.46-.14l0,1.31a3.62,3.62,0,0,1-.63.16,4.4,4.4,0,0,1-.73.06,2.29,2.29,0,0,1-1.74-.63,2.64,2.64,0,0,1-.6-1.88V256h-1.55v-1.31h1.55v-2.32h1.58v2.32h2.14Z"/><path class="cls-4" d="M375.43,255.63c0-.34,0-.64-.05-.9h1.51a6.76,6.76,0,0,1,.05.7c0,.27,0,.49,0,.66H377a2.79,2.79,0,0,1,1-1.15,2.56,2.56,0,0,1,1.47-.43,2.8,2.8,0,0,1,.63.06l-.07,1.48a3.4,3.4,0,0,0-.73-.08,2.28,2.28,0,0,0-1,.21,2,2,0,0,0-.7.57,2.36,2.36,0,0,0-.42.82,3.56,3.56,0,0,0-.13,1v4.23h-1.6v-6.32C375.45,256.25,375.44,256,375.43,255.63Z"/><path class="cls-4" d="M388.85,258.69V259a2.45,2.45,0,0,1,0,.27h-6.41a2.42,2.42,0,0,0,.23,1,2.53,2.53,0,0,0,.57.77,2.83,2.83,0,0,0,3.23.35,2.89,2.89,0,0,0,.93-.87l1.12.9A4,4,0,0,1,387,262.6,4.55,4.55,0,0,1,385,263a4.67,4.67,0,0,1-1.7-.31,3.84,3.84,0,0,1-2.23-2.19,4.42,4.42,0,0,1-.32-1.74,4.58,4.58,0,0,1,.31-1.72,3.81,3.81,0,0,1,.88-1.35,3.91,3.91,0,0,1,1.33-.88,4.29,4.29,0,0,1,1.65-.31,4.35,4.35,0,0,1,1.61.28,3.54,3.54,0,0,1,1.23.84,3.74,3.74,0,0,1,.77,1.32A5.2,5.2,0,0,1,388.85,258.69Zm-1.64-.65a2.87,2.87,0,0,0-.16-.89,2.14,2.14,0,0,0-.42-.72,2,2,0,0,0-.7-.49,2.45,2.45,0,0,0-1-.18,2.56,2.56,0,0,0-1,.18,2.4,2.4,0,0,0-.78.49,2.43,2.43,0,0,0-.54.72,2.12,2.12,0,0,0-.25.89Z"/><path class="cls-4" d="M396,257.57a1.6,1.6,0,0,0-.55-1.34,2.23,2.23,0,0,0-1.44-.43,3.25,3.25,0,0,0-1.28.26,3.41,3.41,0,0,0-1,.67l-.85-1a4.35,4.35,0,0,1,1.46-.88,5,5,0,0,1,1.84-.32,4.31,4.31,0,0,1,1.51.24,3,3,0,0,1,1,.67,2.74,2.74,0,0,1,.61,1,3.59,3.59,0,0,1,.21,1.24v3.52c0,.27,0,.55,0,.86a4,4,0,0,0,.1.73h-1.45a5,5,0,0,1-.13-1.15H396a3,3,0,0,1-1.11,1,3.33,3.33,0,0,1-1.59.36,3.85,3.85,0,0,1-1-.13,2.88,2.88,0,0,1-1-.41,2.48,2.48,0,0,1-.7-.77,2.25,2.25,0,0,1-.28-1.17,2.08,2.08,0,0,1,.49-1.46,3.13,3.13,0,0,1,1.29-.81,7.45,7.45,0,0,1,1.8-.37c.67-.05,1.35-.08,2-.08Zm-.39,1.37c-.4,0-.81,0-1.24.05a6.21,6.21,0,0,0-1.15.21,2.09,2.09,0,0,0-.86.46,1,1,0,0,0-.34.81,1.06,1.06,0,0,0,.53,1,1.58,1.58,0,0,0,.52.21,3.05,3.05,0,0,0,.6.06,2.17,2.17,0,0,0,1.72-.67,2.41,2.41,0,0,0,.61-1.69v-.43Z"/><path class="cls-4" d="M402.71,255a2.8,2.8,0,0,1,1.59-.45,2.92,2.92,0,0,1,1.47.37,2.54,2.54,0,0,1,1,1.24,2.87,2.87,0,0,1,1.14-1.2,3.22,3.22,0,0,1,1.59-.41,3.1,3.1,0,0,1,1.35.26,2.74,2.74,0,0,1,.93.71,2.7,2.7,0,0,1,.55,1,4.4,4.4,0,0,1,.18,1.28v5h-1.6v-4.47a4.67,4.67,0,0,0-.08-.93,2.26,2.26,0,0,0-.29-.78,1.58,1.58,0,0,0-.54-.55,1.75,1.75,0,0,0-.87-.2,1.84,1.84,0,0,0-1.57.82,2.38,2.38,0,0,0-.36.83,4.15,4.15,0,0,0-.11.93v4.35h-1.6V258a4.6,4.6,0,0,0-.08-.87,1.94,1.94,0,0,0-.29-.67,1.53,1.53,0,0,0-.53-.44,1.73,1.73,0,0,0-.8-.16,1.82,1.82,0,0,0-1.47.72,3,3,0,0,0-.58,1.93v4.28h-1.6v-6.32c0-.21,0-.49,0-.83s0-.64,0-.9h1.51c0,.2,0,.43.05.69s0,.46,0,.63h.05A2.75,2.75,0,0,1,402.71,255Z"/><path class="cls-4" d="M419.6,256.77a2.08,2.08,0,0,0-.77-.73,2.25,2.25,0,0,0-1.1-.28,2.57,2.57,0,0,0-.55.06,1.72,1.72,0,0,0-.48.19,1,1,0,0,0-.34.32.85.85,0,0,0-.13.49.79.79,0,0,0,.46.75,5.63,5.63,0,0,0,1.38.46,7.9,7.9,0,0,1,1.07.32,3.22,3.22,0,0,1,.86.47,2,2,0,0,1,.57.67,2,2,0,0,1,.2.92,2.47,2.47,0,0,1-.27,1.2,2.34,2.34,0,0,1-.72.81,3,3,0,0,1-1,.45,5.23,5.23,0,0,1-1.19.14,4.74,4.74,0,0,1-1.8-.36,3.55,3.55,0,0,1-1.45-1.09l1.14-1a2.48,2.48,0,0,0,.89.8,2.45,2.45,0,0,0,1.25.32,2.81,2.81,0,0,0,.59-.06,1.57,1.57,0,0,0,.51-.19,1,1,0,0,0,.36-.36,1.06,1.06,0,0,0,.14-.56.88.88,0,0,0-.54-.83,7.19,7.19,0,0,0-1.57-.51,8.54,8.54,0,0,1-.82-.25,2.63,2.63,0,0,1-.76-.4,1.89,1.89,0,0,1-.55-.64,1.92,1.92,0,0,1-.21-.94,2.17,2.17,0,0,1,.26-1.11,2.22,2.22,0,0,1,.69-.77,3,3,0,0,1,1-.44,4.14,4.14,0,0,1,1.12-.14,4.19,4.19,0,0,1,1.67.34,2.69,2.69,0,0,1,1.25,1Z"/><path class="cls-2" d="M186.24,117.42a.6.6,0,0,1-.6-.6V89.54a.6.6,0,1,1,1.2,0v27.28A.6.6,0,0,1,186.24,117.42Z"/><polygon class="cls-2" points="186.24 126.85 182.56 117.03 183.68 116.61 185.64 121.83 185.64 116.82 186.84 116.82 186.84 121.83 188.79 116.61 189.92 117.03 186.24 126.85"/><path class="cls-2" d="M262.74,117.42a.6.6,0,0,1-.6-.6V89.54a.6.6,0,1,1,1.2,0v27.28A.6.6,0,0,1,262.74,117.42Z"/><polygon class="cls-2" points="262.74 126.85 259.06 117.03 260.18 116.61 262.14 121.83 262.14 116.82 263.34 116.82 263.34 121.83 265.3 116.61 266.42 117.03 262.74 126.85"/><path class="cls-2" d="M339.24,117.58a.6.6,0,0,1-.6-.6V89.7a.6.6,0,1,1,1.2,0V117A.6.6,0,0,1,339.24,117.58Z"/><polygon class="cls-2" points="339.24 127.01 335.56 117.19 336.68 116.77 338.64 122 338.64 116.98 339.84 116.98 339.84 122 341.8 116.77 342.92 117.19 339.24 127.01"/><path class="cls-2" d="M411.05,115.74a.6.6,0,0,1-.6-.6V87.85a.6.6,0,0,1,1.2,0v27.29A.6.6,0,0,1,411.05,115.74Z"/><polygon class="cls-2" points="411.05 125.17 407.37 115.35 408.49 114.93 410.45 120.15 410.45 115.14 411.65 115.14 411.65 120.15 413.61 114.93 414.73 115.35 411.05 125.17"/><path class="cls-4" d="M62.79,164.07a1,1,0,1,1,.52,1.46,1.13,1.13,0,0,1-.56-.62,1.11,1.11,0,0,1,0-.82ZM50.65,154a1.05,1.05,0,0,1,1.47,0,1.13,1.13,0,0,1,0,1.52,1,1,0,0,1-1.47,0,1.07,1.07,0,0,1,0-1.5ZM64.19,168.4v1h-1.3c-.12,0-.18.1-.18.23v.61c0,1.46-.8,1.79-1.49,1.79s-1.4-.28-1.5-.71a4.61,4.61,0,0,0-2.09-3.58c1.28-.83,2.63-2.07,2.63-3.73a4.24,4.24,0,0,0-2-3.45,5.55,5.55,0,0,0-2.76-.9H41.91a12.74,12.74,0,0,1,7.18-4.13l1.6,1.71a.9.9,0,0,0,1.32,0l1.8-1.79a12.81,12.81,0,0,1,8.74,6.37l-1.23,2.82a1,1,0,0,0,.5,1.28L64.18,167c0,.47,0,.9,0,1.33Zm-15.64-2.22v-2.47h4.31c.22,0,1.57.25,1.57,1.31,0,.86-1,1.16-1.9,1.16Zm-9.8.83L41,166a1,1,0,0,0,.49-1.28L41,163.66H42.8V172H39.14a13.23,13.23,0,0,1-.49-3.59,13,13,0,0,1,.07-1.42ZM40,164a1.1,1.1,0,0,1-.52,1.4,1,1,0,0,1-1.38-.55,1.1,1.1,0,0,1,.52-1.41A1.08,1.08,0,0,1,40,164Zm3.89,16.46a1,1,0,0,1-1.23-.8,1.07,1.07,0,0,1,.79-1.26,1.06,1.06,0,0,1,.47,2.06Zm14.43-3.39a1,1,0,0,0-1.13.75l-.52,2.49a12.35,12.35,0,0,1-5.28,1.16A12.51,12.51,0,0,1,46,180.3l-.52-2.5a1,1,0,0,0-.41-.61,1,1,0,0,0-.73-.14l-2.13.49a15.66,15.66,0,0,1-1.1-1.34H51.54c.12,0,.19,0,.19-.13v-3.73c0-.1-.07-.12-.19-.12h-3v-2.4h3.3a2.11,2.11,0,0,1,2,1.8c.13.53.43,2.24.61,2.79s1,1.84,1.85,1.84H61.7a13.35,13.35,0,0,1-1.18,1.41l-2.21-.5Zm.51,3.44a1,1,0,0,1-.78-1.26,1,1,0,0,1,.44-.66,1.05,1.05,0,0,1,.79-.14,1.06,1.06,0,0,1-.45,2.06Zm9.87-12.46-1.48-.9a1.21,1.21,0,0,0,0-.43l1.25-1.2a.51.51,0,0,0,.15-.48.48.48,0,0,0-.32-.38l-1.62-.63a1.73,1.73,0,0,0-.12-.43l1-1.43a.49.49,0,0,0,.05-.51.51.51,0,0,0-.39-.3l-1.69-.27a3,3,0,0,1-.2-.4l.71-1.62a.53.53,0,0,0,0-.5.52.52,0,0,0-.44-.22l-1.73,0a4,4,0,0,0-.26-.32l.39-1.72a.46.46,0,0,0-.13-.47.44.44,0,0,0-.46-.13l-1.67.4c-.1-.1-.22-.17-.32-.27l.05-1.8a.52.52,0,0,0-.22-.44.5.5,0,0,0-.5-.06l-1.57.73a1.79,1.79,0,0,0-.39-.2l-.27-1.74a.56.56,0,0,0-.3-.4.5.5,0,0,0-.49.05l-1.4,1L55.8,153l-.62-1.66a.44.44,0,0,0-.37-.33.52.52,0,0,0-.46.15l-1.14,1.28h-.43l-.9-1.51a.52.52,0,0,0-.41-.26.49.49,0,0,0-.43.26l-.89,1.51H49.7l-1.18-1.28a.47.47,0,0,0-.46-.15.43.43,0,0,0-.37.33L47.07,153l-.41.12-1.41-1a.49.49,0,0,0-.78.35l-.27,1.74-.39.2-1.58-.73a.48.48,0,0,0-.49.06.52.52,0,0,0-.22.44l0,1.8c-.11.1-.21.17-.31.27l-1.68-.4a.44.44,0,0,0-.46.13.46.46,0,0,0-.12.47l.39,1.72c-.1.1-.18.22-.27.32l-1.72,0a.5.5,0,0,0-.45.22.52.52,0,0,0,0,.5l.71,1.62a1.87,1.87,0,0,0-.2.4l-1.7.27a.57.57,0,0,0-.39.3.54.54,0,0,0,0,.51l1,1.43a3.45,3.45,0,0,0-.12.43l-1.62.63a.45.45,0,0,0-.32.38.57.57,0,0,0,.14.48l1.28,1.19a3.13,3.13,0,0,1,0,.44l-1.48.9a.56.56,0,0,0-.25.43.48.48,0,0,0,.25.42l1.48.9a3.42,3.42,0,0,1,0,.46l-1.25,1.21a.49.49,0,0,0-.15.47.47.47,0,0,0,.32.38l1.62.63c0,.15.07.28.13.43l-1,1.43a.54.54,0,0,0,0,.51.47.47,0,0,0,.39.3l1.7.28c.07.12.12.25.19.39l-.7,1.62a.5.5,0,0,0,0,.5.49.49,0,0,0,.44.23l1.72-.05.27.32L39,180.67a.49.49,0,0,0,.59.61l1.68-.41c.09.1.21.17.31.28v1.79a.58.58,0,0,0,.22.46.48.48,0,0,0,.49,0l1.57-.72a1.76,1.76,0,0,0,.39.19l.27,1.74a.57.57,0,0,0,.3.41.48.48,0,0,0,.49-.06l1.4-1a2.25,2.25,0,0,0,.42.13l.61,1.66a.48.48,0,0,0,.38.33.55.55,0,0,0,.47-.15l1.17-1.29a1,1,0,0,1,.42.06l.9,1.5a.48.48,0,0,0,.42.25.45.45,0,0,0,.41-.25l.9-1.5a.91.91,0,0,0,.41-.06l1.19,1.29a.51.51,0,0,0,.47.15.5.5,0,0,0,.36-.33l.61-1.66c.15-.05.28-.07.42-.13l1.4,1a.5.5,0,0,0,.5.06.52.52,0,0,0,.29-.41l.27-1.74a1.56,1.56,0,0,1,.39-.19l1.57.72a.5.5,0,0,0,.5,0,.58.58,0,0,0,.22-.46l-.05-1.79c.12-.11.22-.18.32-.28l1.61.44a.46.46,0,0,0,.46-.12.5.5,0,0,0,.13-.49l-.4-1.71c.1-.1.17-.23.27-.32l1.73.05a.54.54,0,0,0,.44-.24.58.58,0,0,0,0-.5l-.72-1.61a1.79,1.79,0,0,0,.2-.39l1.69-.28a.53.53,0,0,0,.4-.31.55.55,0,0,0,0-.5l-1-1.44a3.06,3.06,0,0,0,.13-.43l1.62-.62a.48.48,0,0,0,.33-.38.58.58,0,0,0-.16-.48l-1.25-1.21a1.21,1.21,0,0,1,0-.43l1.47-.89a.5.5,0,0,0,.25-.43.53.53,0,0,0-.26-.45Z"/><path class="cls-4" d="M46.62,200.7a.8.8,0,0,1-.59-1.36.8.8,0,0,1,.87-.18.82.82,0,0,1,.5.75.78.78,0,0,1-.78.74Zm11.11.69A6.36,6.36,0,0,0,51.45,195H50.12a6.35,6.35,0,0,0-6.27,6.43.9.9,0,0,0,.27.67,1,1,0,0,0,.66.29h5.95v1.55H41.58a6.36,6.36,0,0,0-6.28,6.43v1.36a6.37,6.37,0,0,0,6.28,6.43h1.19a1,1,0,0,0,.67-.29,1,1,0,0,0,.27-.67v-4.39a.93.93,0,0,1,.26-.67,1,1,0,0,1,.67-.29H56.79a1,1,0,0,0,.67-.28,1,1,0,0,0,.27-.67Z"/><path class="cls-4" d="M56.36,224.23a.8.8,0,0,1,.59,1.35.8.8,0,0,1-1.37-.55.85.85,0,0,1,.22-.57A.83.83,0,0,1,56.36,224.23Zm5-17.41H60.21a1,1,0,0,0-.67.28,1,1,0,0,0-.26.68v4.38a1,1,0,0,1-.27.67,1,1,0,0,1-.67.29H46.19a.94.94,0,0,0-.94,1v9.46A6.33,6.33,0,0,0,51.52,230h1.33a6.33,6.33,0,0,0,6.27-6.42.9.9,0,0,0-.27-.68.92.92,0,0,0-.67-.29h-6V221h9.15a6.35,6.35,0,0,0,6.28-6.42v-1.36A6.35,6.35,0,0,0,61.4,206.82Z"/><path class="cls-4" d="M55.35,265.44c-5.49,0-6.61-2.57-6.61-4.75a.39.39,0,0,1,.37-.39h1.64a.38.38,0,0,1,.24.09.35.35,0,0,1,.1.24c.25,1.75,1,2.53,4.29,2.53,2.63,0,3.76-.6,3.76-2.05,0-.88-.31-1.44-4.42-1.86-3.42-.35-5.55-1.12-5.55-3.92,0-2.62,2.13-4.14,5.71-4.14,4,0,6,1.41,6.24,4.49a.56.56,0,0,1-.1.29.34.34,0,0,1-.24.13H59.14a.37.37,0,0,1-.34-.29c-.37-1.74-1.35-2.34-3.92-2.34-2.89,0-3.23,1-3.23,1.75,0,.93.41,1.22,4.29,1.75s5.67,1.25,5.67,4-2.28,4.43-6.26,4.43ZM51.5,275.62a2.63,2.63,0,0,1-1.32-.35L46,272.74c-.63-.36-.32-.49-.12-.55a7.86,7.86,0,0,0,1.88-.88.26.26,0,0,1,.31,0l3.2,2a.4.4,0,0,0,.37,0l12.51-7.42a.39.39,0,0,0,.19-.36V250.75a.4.4,0,0,0-.19-.35L51.65,243a.35.35,0,0,0-.37,0L38.77,250.4a.42.42,0,0,0-.19.35v14.81a.42.42,0,0,0,.19.35l3.41,2c1.85,1,3-.15,3-1.28V252a.37.37,0,0,1,.37-.38h1.6a.39.39,0,0,1,.38.38v14.61c0,2.54-1.35,4-3.71,4a5.22,5.22,0,0,1-2.88-.8l-3.29-1.94a2.72,2.72,0,0,1-1.32-2.34V250.75a2.75,2.75,0,0,1,1.32-2.34L50.18,241a2.71,2.71,0,0,1,2.62,0l12.51,7.42a2.69,2.69,0,0,1,1.28,2.34v14.86A2.7,2.7,0,0,1,65.28,268l-12.51,7.42a3.13,3.13,0,0,1-1.31.29Z"/><path class="cls-4" d="M49.32,290.48A12.13,12.13,0,0,0,45,295c-1.67,3.72,3.41,7.78,3.62,7.95a.27.27,0,0,0,.41-.08.28.28,0,0,0,0-.28s-1.84-3.66-1.77-6.26c0-.9,1.26-1.93,2.57-3a14.7,14.7,0,0,0,3.33-3.44c1.75-2.91-.19-5.77-.2-5.84a.31.31,0,0,0-.35-.1.3.3,0,0,0-.16.33,6.24,6.24,0,0,1-.67,3.86A8.29,8.29,0,0,1,49.32,290.48Z"/><path class="cls-4" d="M56,291.79a.28.28,0,0,0,.08-.37.26.26,0,0,0-.34-.12c-.27.1-6.57,2.59-6.57,5.59a5.82,5.82,0,0,0,1.49,4,2.7,2.7,0,0,1,.54.83A4.19,4.19,0,0,1,50.7,304a.26.26,0,0,0,0,.28.28.28,0,0,0,.24.13.24.24,0,0,0,.16-.05c.11-.07,2.65-1.91,2.19-4.16a5.39,5.39,0,0,0-.93-2c-.55-.84-.95-1.45-.35-2.57C52.73,294.29,55.94,291.79,56,291.79Z"/><path class="cls-4" d="M39.55,304.38a1,1,0,0,0,.14.95c.68,1,3.1,1.51,6.82,1.51h1.57c5.94-.22,8.14-2.11,8.22-2.19a.29.29,0,0,0,.07-.35.27.27,0,0,0-.32-.14,40.35,40.35,0,0,1-8.7.83,18.26,18.26,0,0,1-4.94-.39,6.83,6.83,0,0,1,2.86-1.05.3.3,0,0,0,.23-.32.31.31,0,0,0-.29-.26C44.38,302.9,40,303,39.55,304.38Z"/><path class="cls-4" d="M59.42,302.43a5.73,5.73,0,0,0-2.43.66.3.3,0,0,0-.14.32.28.28,0,0,0,.27.21s2.61,0,2.85,1.54c.2,1.31-2.45,3.42-3.49,4.16a.3.3,0,0,0-.1.35.28.28,0,0,0,.26.18h.06c.24-.05,6-1.36,5.42-4.81C61.74,302.87,60.45,302.43,59.42,302.43Z"/><path class="cls-4" d="M55.46,308.86a.33.33,0,0,0-.12-.29l-1.38-1a.4.4,0,0,0-.24,0,25.43,25.43,0,0,1-3.57.64,24.61,24.61,0,0,1-2.71.15,9.23,9.23,0,0,1-3.68-.45v-.08a.59.59,0,0,1,.35-.27.31.31,0,0,0,.17-.36A.27.27,0,0,0,44,307c-1.39.34-2.08.83-2,1.42.09,1.08,2.5,1.67,4.57,1.78h.94a40.58,40.58,0,0,0,7.83-1.1A.3.3,0,0,0,55.46,308.86Z"/><path class="cls-4" d="M45,311.17a.32.32,0,0,0,.11-.33.29.29,0,0,0-.28-.21c-.18,0-1.82.09-1.93,1.15a1.07,1.07,0,0,0,.26.84c.59.71,2.18,1.14,4.85,1.3h1a14.45,14.45,0,0,0,5.84-1.14.31.31,0,0,0,.16-.25.28.28,0,0,0-.14-.26l-1.75-1.09a.26.26,0,0,0-.21,0s-1.12.23-2.8.46a7.71,7.71,0,0,1-1.18.07,14.73,14.73,0,0,1-3.91-.46A.11.11,0,0,1,45,311.17Z"/><path class="cls-4" d="M47.38,317.28c7.8,0,12-1.43,12.79-2.32a1,1,0,0,0,.3-.83,1.29,1.29,0,0,0-.54-.84.29.29,0,0,0-.36,0,.28.28,0,0,0,0,.38c0,.06.07.17-.07.32-.33.31-3.58,1.24-9,1.53-.74,0-1.52.06-2.31.06-4.84,0-8.39-.69-8.86-1.08a6.64,6.64,0,0,1,2.77-.92.3.3,0,0,0,.23-.33.28.28,0,0,0-.32-.24h-.31c-2.2.14-4.75.45-4.88,1.61a1.21,1.21,0,0,0,.31,1c.59.68,2.3,1.59,10.24,1.59Z"/><path class="cls-4" d="M61.71,315.21a.3.3,0,0,0-.33.07s-1.18,1.26-4.71,2a43.71,43.71,0,0,1-7.5.41c-3.66,0-7.13-.14-7.16-.14a.29.29,0,0,0-.3.24.32.32,0,0,0,.22.33,41.27,41.27,0,0,0,8.66.83,40,40,0,0,0,6.91-.58c4.1-.74,4.38-2.82,4.39-2.91A.3.3,0,0,0,61.71,315.21Z"/><path class="cls-4" d="M36.7,350.07c0,1,1.09.55,1.54.23s.56,0,.62-.66a9.4,9.4,0,0,0,0-1.19A2.93,2.93,0,0,0,37,349c-.29.21-.82.88-.26,1.1"/><path class="cls-5" d="M38.62,348.56a2.71,2.71,0,0,0-1.6.5,1,1,0,0,0-.46.72.26.26,0,0,0,.18.23h0v.06a.54.54,0,0,0,.23.49,1.36,1.36,0,0,0,1.16-.34,1.46,1.46,0,0,1,.38-.18c.14,0,.18-.06.19-.4v-1.09h-.12Zm-1.38,2.27a.63.63,0,0,1-.47-.2.65.65,0,0,1-.17-.48.44.44,0,0,1-.25-.35,1.26,1.26,0,0,1,.56-.87,3,3,0,0,1,2-.52H39v.09q0,.47,0,.93v.28c0,.42-.12.49-.34.54a1,1,0,0,0-.33.16A2.28,2.28,0,0,1,37.24,350.83Z"/><path class="cls-4" d="M39.08,337.77c-3.95-1.1-1-6.12,2.19-4.07Z"/><path class="cls-5" d="M39.68,333.29a2.33,2.33,0,0,0-1.26.38A2.41,2.41,0,0,0,37.28,336,2.19,2.19,0,0,0,39,337.64l2.07-3.92a2.86,2.86,0,0,0-1.4-.42Zm-.54,4.59h-.08a2.41,2.41,0,0,1-2-1.88,2.62,2.62,0,0,1,4.19-2.37l.08,0Z"/><path class="cls-4" d="M56.66,333.31c3.12-2.19,6,2.74,2.32,4Z"/><path class="cls-5" d="M56.79,333.35,59,337.2a2.11,2.11,0,0,0,1.56-1.75,2.45,2.45,0,0,0-1.21-2.27,2.31,2.31,0,0,0-2.62.18Zm2.14,4.1-2.4-4.16h.07a2.57,2.57,0,0,1,4.18,2.2,2.31,2.31,0,0,1-1.75,2Z"/><path class="cls-4" d="M57.33,362.78c.79.5,2.25,2,1.05,2.71-1.13,1.05-1.75-1.16-2.79-1.45A2.79,2.79,0,0,1,57.33,362.78Z"/><path class="cls-5" d="M55.74,364a3.07,3.07,0,0,1,.95.88,1.93,1.93,0,0,0,1.05.83.84.84,0,0,0,.55-.26.71.71,0,0,0,.4-.63c0-.67-.88-1.51-1.43-1.89A2.61,2.61,0,0,0,55.75,364Zm2,1.88c-.46,0-.88-.46-1.19-.87a2.52,2.52,0,0,0-1-.88h-.13l.08-.13a2.85,2.85,0,0,1,1.8-1.28h.07c.51.31,1.56,1.23,1.55,2.06a.89.89,0,0,1-.49.8A1,1,0,0,1,57.78,365.87Z"/><path class="cls-5" d="M58.38,365.59a.09.09,0,0,1-.08,0,2.15,2.15,0,0,1-.15-.38,1.85,1.85,0,0,0-.36-.66.1.1,0,0,1,0-.14.1.1,0,0,1,.14,0,1.65,1.65,0,0,1,.4.72c0,.12.1.23.15.35a.07.07,0,0,1,0,.06.09.09,0,0,1,0,.07Z"/><path class="cls-4" d="M43.13,364.46c-.94.15-1.47,1-2.24,1.42a.68.68,0,0,1-1,0,.54.54,0,0,1-.13-.22.33.33,0,0,1-.29-.13c-.67-1.09.71-1.85,1.44-2.39,1-.2,1.65.68,2.19,1.37Z"/><path class="cls-5" d="M39.73,365.51h.15l0,.08a.65.65,0,0,0,.37.34.7.7,0,0,0,.54-.14,4.19,4.19,0,0,0,.8-.58A3.28,3.28,0,0,1,43,364.4c-.51-.65-1.1-1.37-2-1.2l-.24.17c-.76.55-1.69,1.2-1.15,2.07a.14.14,0,0,0,.11.07Zm.66.63h-.18a.86.86,0,0,1-.47-.41.32.32,0,0,1-.27-.14c-.66-1,.46-1.82,1.2-2.33l.26-.2c1-.21,1.69.65,2.21,1.34l.15.2h-.16a2.82,2.82,0,0,0-1.39.79,4.85,4.85,0,0,1-.82.61A1,1,0,0,1,40.39,366.14Z"/><path class="cls-5" d="M39.81,365.72a.08.08,0,0,1-.07,0,.13.13,0,0,1,0-.07v-.05a1.55,1.55,0,0,1,.33-.71,1.51,1.51,0,0,0,.2-.35.11.11,0,0,1,.13,0,.09.09,0,0,1,.06.06.06.06,0,0,1,0,.07,1.79,1.79,0,0,1-.22.38,1.29,1.29,0,0,0-.27.65.07.07,0,0,1,0,.06.07.07,0,0,1-.07,0Z"/><path class="cls-4" d="M61.74,349.94c0,1-1.09.55-1.55.23s-.54,0-.61-.66a11.81,11.81,0,0,1,0-1.19,2.93,2.93,0,0,1,2,.5c.28.21.82.88.26,1.1"/><path class="cls-5" d="M59.62,348.42v1.09c0,.34,0,.34.19.4a1.27,1.27,0,0,1,.37.18,1.39,1.39,0,0,0,1.17.34.56.56,0,0,0,.23-.49v-.07h.06a.25.25,0,0,0,.18-.22,1.05,1.05,0,0,0-.46-.73,2.74,2.74,0,0,0-1.75-.5Zm1.59,2.25a2.18,2.18,0,0,1-1-.4,1.47,1.47,0,0,0-.34-.15c-.21-.08-.29-.14-.32-.55v-.28a7.22,7.22,0,0,1,0-.93v-.13h.09a3.07,3.07,0,0,1,2,.51,1.22,1.22,0,0,1,.54.88.42.42,0,0,1-.24.35.65.65,0,0,1-.34.6.66.66,0,0,1-.34.06Z"/><path class="cls-4" d="M48.83,331.23c4,0,7.65.54,9.62,4.37,1.75,4.26,1.1,8.87,1.38,13.37.23,3.87.74,8.34-1,11.92-1.88,3.77-6.62,4.7-10.5,4.58-3.05-.11-6.75-1.09-8.47-3.89-2-3.29-1.07-8.15-.92-11.79.18-4.31-1.17-8.63.25-12.86s5.43-5.37,9.7-5.7"/><path class="cls-5" d="M48.83,331.33c-4.12.35-8.14,1.23-9.62,5.64-.88,2.7-.67,5.5-.45,8.2a37.34,37.34,0,0,1,.2,4.61c0,.72-.09,1.5-.16,2.31-.24,3.2-.54,6.83,1.06,9.41.68,1.09,2.85,3.66,8.39,3.83,2.4.09,8.21-.18,10.4-4.53,1.6-3.21,1.34-7.22,1.11-10.74a6,6,0,0,0-.07-1.13c-.06-1.19-.08-2.45-.08-3.67,0-3.21,0-6.56-1.3-9.62a6.94,6.94,0,0,0-4-3.56A16,16,0,0,0,48.83,331.33Zm.1,34.26h-.68a14.46,14.46,0,0,1-4.77-.95,7.64,7.64,0,0,1-3.78-3c-1.63-2.63-1.34-6.3-1.09-9.53.07-.81.13-1.58.16-2.3a36.86,36.86,0,0,0-.2-4.58c-.23-2.74-.47-5.57.45-8.32a7.27,7.27,0,0,1,3.83-4.42,16.18,16.18,0,0,1,5.94-1.35c3.9,0,7.76.53,9.73,4.37,1.27,3.13,1.29,6.47,1.31,9.72,0,1.2,0,2.46.08,3.69a5.52,5.52,0,0,0,.08,1.13c.23,3.5.49,7.57-1.14,10.83C56.8,365,51.66,365.59,48.93,365.59Z"/><path class="cls-4" d="M49.52,336.54c.72,4.13,7.46,3,6.5-1.13-.87-3.73-6.74-2.7-6.5,1.13"/><path class="cls-2" d="M52.73,339.34a3.93,3.93,0,0,1-1.27-.21,3.17,3.17,0,0,1-2.14-2.56v0a3.45,3.45,0,0,1,3.11-3.63,3.22,3.22,0,0,1,3.79,2.45,3,3,0,0,1-.88,3A4,4,0,0,1,52.73,339.34Zm-3-2.82a2.79,2.79,0,0,0,1.88,2.24,3.63,3.63,0,0,0,3.47-.66,2.61,2.61,0,0,0,.76-2.64,2.82,2.82,0,0,0-3.34-2.14A3.06,3.06,0,0,0,49.72,336.52Z"/><path class="cls-4" d="M41.45,337.21c.88,3.6,6.68,2.63,6.46-.93-.25-4.32-7.34-3.5-6.46.93"/><path class="cls-5" d="M41.56,337.23a3.22,3.22,0,0,0,6.28-.87,2.73,2.73,0,0,0-1.63-2.48,3.72,3.72,0,0,0-3.68.47A2.84,2.84,0,0,0,41.56,337.23Zm3,2.4a3.6,3.6,0,0,1-1.68-.41,3.07,3.07,0,0,1-.46-5,3.88,3.88,0,0,1,3.87-.49A2.92,2.92,0,0,1,48,336.31a3.17,3.17,0,0,1-3.48,3.28Z"/><path class="cls-2" d="M44.52,339.73a3.8,3.8,0,0,1-1.72-.42,3.17,3.17,0,0,1-.47-5.21,4,4,0,0,1,4-.5,3,3,0,0,1,1.81,2.71,3.31,3.31,0,0,1-3,3.38H44.6A.11.11,0,0,1,44.52,339.73Zm-3-2.39a2.91,2.91,0,0,0,2.18,2.08A3.3,3.3,0,0,1,41.49,337.34Zm6.35-.28a3.32,3.32,0,0,1-2.1,2.31A3.11,3.11,0,0,0,47.84,337.06Zm-6.18.14a3.12,3.12,0,0,0,6.08-.85A2.64,2.64,0,0,0,46.17,334a3.61,3.61,0,0,0-3.58.46A2.71,2.71,0,0,0,41.66,337.2Zm3.09-3.72a3.8,3.8,0,0,0-2.3.78,2.92,2.92,0,0,0-1,1.89,2.93,2.93,0,0,1,1.06-1.88,3.79,3.79,0,0,1,3.41-.61A3.66,3.66,0,0,0,44.75,333.48Z"/><path class="cls-4" d="M50.32,341.53a10.23,10.23,0,0,1,0,1.75,1.1,1.1,0,0,1-.64.39.94.94,0,0,1-.72-.54,14.11,14.11,0,0,1,0-1.95Z"/><path class="cls-5" d="M49.1,343a.89.89,0,0,0,.61.49l.16-.06a.67.67,0,0,0,.39-.29,4,4,0,0,0,0-1.09,2.09,2.09,0,0,0,0-.5l-1.09-.33a2.09,2.09,0,0,1,0,.5,6.74,6.74,0,0,0,0,1.27Zm.64.69a1,1,0,0,1-.79-.62,7.39,7.39,0,0,1,0-1.33V341l1.48.46v.1a4.86,4.86,0,0,0,0,.54,4.66,4.66,0,0,1,0,1.18.82.82,0,0,1-.52.37l-.17.07Z"/><path class="cls-2" d="M49.74,343.81h0a1.13,1.13,0,0,1-.86-.68v0a7.61,7.61,0,0,1,0-1.35V341a.12.12,0,0,1,0-.08.1.1,0,0,1,.09,0l1.48.45a.12.12,0,0,1,.07.1v.1a4.68,4.68,0,0,0,0,.53,4.82,4.82,0,0,1,0,1.2s0,0,0,0a.9.9,0,0,1-.58.41l-.11.05,0,0Zm-.49-.73a.78.78,0,0,0,.46.33l.13-.05a.64.64,0,0,0,.33-.23,4.61,4.61,0,0,0,0-1.05,3.23,3.23,0,0,0,0-.44l-.89-.27a2.54,2.54,0,0,1,0,.39,6.42,6.42,0,0,0,0,1.24A.19.19,0,0,1,49.25,343.08Zm-.2-2v.65a6.65,6.65,0,0,0,0,1.18h0a6.75,6.75,0,0,1,0-1.19,2,2,0,0,0,0-.49.1.1,0,0,1,0-.09l0,0Z"/><path class="cls-5" d="M43.72,335.87a1.13,1.13,0,0,1,0,1.5.92.92,0,0,1-1.37,0,1.13,1.13,0,0,1,0-1.5.92.92,0,0,1,1.37,0"/><path class="cls-4" d="M43.65,336.66a.35.35,0,0,1,0,.39.22.22,0,0,1-.33,0,.32.32,0,0,1,0-.39.22.22,0,0,1,.33,0"/><path class="cls-5" d="M51.87,335.61a1.14,1.14,0,0,1,0,1.49.88.88,0,0,1-1.35,0,1.12,1.12,0,0,1,0-1.49.88.88,0,0,1,1.35,0"/><path class="cls-4" d="M51.78,336.4a.3.3,0,0,1,0,.38.2.2,0,0,1-.32,0,.3.3,0,0,1,0-.38.2.2,0,0,1,.32,0"/><path class="cls-4" d="M47.58,341.44c-.43,1,.23,3.09,1.39,1.57a11.46,11.46,0,0,1,.05-1.94Z"/><path class="cls-2" d="M48.2,343.75a.65.65,0,0,1-.34-.09,2.08,2.08,0,0,1-.47-2.3.19.19,0,0,1,.14-.11l1.44-.37a.2.2,0,0,1,.18,0,.19.19,0,0,1,.07.17,11.09,11.09,0,0,0,0,1.91.18.18,0,0,1,0,.13C48.76,343.62,48.44,343.75,48.2,343.75Zm-.47-2.14c-.19.59,0,1.5.33,1.7s.53-.14.71-.36a11,11,0,0,1,0-1.62Z"/><path class="cls-5" d="M47.61,341.53A1.86,1.86,0,0,0,48,343.4c.3.16.62-.12.88-.42a7.06,7.06,0,0,1,0-1.3,2,2,0,0,1,0-.49Zm.55,2.12a.54.54,0,0,1-.28-.08,2,2,0,0,1-.43-2.18l1.64-.42v.13a2.67,2.67,0,0,1,0,.63,5.57,5.57,0,0,0,0,1.29v.07A1.14,1.14,0,0,1,48.16,343.65Z"/><path class="cls-4" d="M47.71,339.46a1.24,1.24,0,0,0-.85.45,1.25,1.25,0,0,0-.28.92,1,1,0,0,0,.1.38c.55,1,1.75-.09,2.52,0s1.58.92,2.28.17-.33-1.65-1.2-2Z"/><path class="cls-2" d="M50.81,341.84a2.53,2.53,0,0,1-.92-.25,2.66,2.66,0,0,0-.71-.23,2.25,2.25,0,0,0-.87.19c-.6.21-1.35.48-1.76-.27a1.21,1.21,0,0,1-.12-.44,1.42,1.42,0,0,1,.31-1,1.44,1.44,0,0,1,1-.5h0l2.57-.11s0,0,.07,0c.61.27,1.37.81,1.5,1.45a.89.89,0,0,1-.25.82A1,1,0,0,1,50.81,341.84Zm-1.71-.78h.11a2.8,2.8,0,0,1,.79.25c.52.21,1,.4,1.37,0a.6.6,0,0,0,.18-.55c-.1-.48-.73-1-1.3-1.22l-2.53.11a1.1,1.1,0,0,0-1,1.2,1,1,0,0,0,.09.34c.26.47.7.36,1.39.12A2.74,2.74,0,0,1,49.1,341.06Z"/><path class="cls-2" d="M49.22,341.13a2.31,2.31,0,0,1,.93.26c.49.21.88.36,1.28-.07a.73.73,0,0,0,.22-.66c-.11-.5-.8-1-1.37-1.2l-2.54.11a1.2,1.2,0,0,0-.94.64,1,1,0,0,0,0,1c.31.54.87.36,1.47.16A2.08,2.08,0,0,1,49.22,341.13Zm1.64.66a2.22,2.22,0,0,1-.8-.22,2.42,2.42,0,0,0-.87-.25,2.27,2.27,0,0,0-.88.21c-.62.21-1.31.44-1.7-.26a1.18,1.18,0,0,1,0-1.15,1.45,1.45,0,0,1,1.09-.75l2.63-.11c.64.27,1.38.77,1.51,1.35a1.06,1.06,0,0,1-.88,1.17Z"/><path class="cls-4" d="M47.58,339.42c-.06-1.37,2.55-1.54,2.86-.4S47.71,340.44,47.58,339.42Z"/><path class="cls-2" d="M48.83,340.2a2.43,2.43,0,0,1-.79-.12.83.83,0,0,1-.61-.64v0c0-.65.48-1.15,1.31-1.27s1.66.13,1.84.84a.69.69,0,0,1-.24.75A2.4,2.4,0,0,1,48.83,340.2Zm-1.1-.8c0,.21.24.33.41.4a2.36,2.36,0,0,0,2-.28.42.42,0,0,0,.15-.46c-.14-.53-.88-.71-1.51-.62S47.71,338.82,47.73,339.4Z"/><path class="cls-2" d="M505.36,84.42h-2.8a.7.7,0,1,1,0-1.4h2.8a.7.7,0,0,1,0,1.4Zm-5.6,0H497a.7.7,0,1,1,0-1.4h2.8a.7.7,0,0,1,0,1.4Zm-5.6,0h-2.8a.7.7,0,1,1,0-1.4h2.8a.7.7,0,0,1,0,1.4Zm-5.6,0h-2.8a.7.7,0,1,1,0-1.4h2.8a.7.7,0,0,1,0,1.4Zm-5.6,0h-2.8a.7.7,0,1,1,0-1.4H483a.7.7,0,0,1,0,1.4Zm-5.6,0h-2.8a.7.7,0,1,1,0-1.4h2.8a.7.7,0,0,1,0,1.4Zm-5.6,0H469a.7.7,0,1,1,0-1.4h2.8a.7.7,0,0,1,0,1.4Zm-5.6,0h-2.8a.7.7,0,1,1,0-1.4h2.8a.7.7,0,0,1,0,1.4Zm-5.6,0h-2.8a.7.7,0,1,1,0-1.4h2.8a.7.7,0,0,1,0,1.4Zm-5.6,0h-1.28a.71.71,0,0,1-.7-.7V82.19a.69.69,0,0,1,.69-.7h0a.71.71,0,0,1,.7.7V83H455a.7.7,0,0,1,0,1.4Zm50.46-2.74a.7.7,0,0,1-.7-.7v-2.8a.7.7,0,1,1,1.4,0V81A.7.7,0,0,1,505.42,81.68Zm-51.76-1.59a.7.7,0,0,1-.7-.7v-2.8a.7.7,0,0,1,.7-.7.69.69,0,0,1,.7.7v2.8a.7.7,0,0,1-.69.7Zm51.76-4a.7.7,0,0,1-.7-.7v-2.8a.7.7,0,1,1,1.4,0v2.8A.7.7,0,0,1,505.42,76.08Zm-51.79-1.59a.71.71,0,0,1-.7-.7V71a.7.7,0,0,1,.7-.7h0a.7.7,0,0,1,.7.7v2.8a.69.69,0,0,1-.69.7Zm51.79-4a.7.7,0,0,1-.7-.7V67a.7.7,0,1,1,1.4,0v2.8A.7.7,0,0,1,505.42,70.48ZM453.6,68.89a.71.71,0,0,1-.7-.7v-2.8a.7.7,0,0,1,.7-.7h0a.7.7,0,0,1,.7.7v2.8a.69.69,0,0,1-.69.7Zm51.82-4a.7.7,0,0,1-.7-.7v-2.8a.7.7,0,1,1,1.4,0v2.8A.7.7,0,0,1,505.42,64.88Zm-51.84-1.59a.7.7,0,0,1-.7-.7l0-2.8a.7.7,0,0,1,.7-.7h0a.7.7,0,0,1,.7.7l0,2.8a.7.7,0,0,1-.7.7Zm51.84-4a.7.7,0,0,1-.7-.7v-2.8a.7.7,0,1,1,1.4,0v2.8A.7.7,0,0,1,505.42,59.28Zm-51.87-1.59a.7.7,0,0,1-.7-.7l0-2.8a.7.7,0,0,1,.7-.7h0a.7.7,0,0,1,.7.7l0,2.8a.7.7,0,0,1-.7.7Zm51.87-4a.7.7,0,0,1-.7-.7v-2.8a.7.7,0,1,1,1.4,0V53A.7.7,0,0,1,505.42,53.68Zm-51.9-1.59a.69.69,0,0,1-.7-.69l0-2.81a.7.7,0,0,1,.7-.7h0a.7.7,0,0,1,.7.7l0,2.8a.7.7,0,0,1-.7.7Zm51.9-4a.7.7,0,0,1-.7-.7v-2.8a.7.7,0,1,1,1.4,0v2.8A.7.7,0,0,1,505.42,48.08Zm-51.93-1.59a.7.7,0,0,1-.7-.7V43a.69.69,0,0,1,.69-.71h0a.71.71,0,0,1,.7.7v2.8a.7.7,0,0,1-.7.7Zm51.93-4a.7.7,0,0,1-.7-.7V39a.7.7,0,1,1,1.4,0v2.8A.7.7,0,0,1,505.42,42.48Zm-26-.27a8.19,8.19,0,0,1-2-.26.7.7,0,0,1-.51-.85.71.71,0,0,1,.86-.5,6.85,6.85,0,0,0,2.51.16.69.69,0,0,1,.78.61.7.7,0,0,1-.6.78A8.55,8.55,0,0,1,479.42,42.21Zm3.57-.9a.67.67,0,0,1-.61-.37.69.69,0,0,1,.29-.95,7.67,7.67,0,0,0,2-1.56.7.7,0,0,1,1,.94,8.87,8.87,0,0,1-2.39,1.86A.73.73,0,0,1,483,41.31Zm-29.53-.42a.7.7,0,0,1-.7-.7v-2.8a.69.69,0,0,1,.69-.7h0a.7.7,0,0,1,.7.7v2.8a.7.7,0,0,1-.7.7ZM475,40.81a.7.7,0,0,1-.4-.13A9.57,9.57,0,0,1,473,39.27a7.34,7.34,0,0,1-.56-.69.7.7,0,1,1,1.12-.83,6.66,6.66,0,0,0,.49.59,8.41,8.41,0,0,0,1.34,1.2.69.69,0,0,1,.18,1A.7.7,0,0,1,475,40.81Zm11.72-3.52a.66.66,0,0,1-.3-.07.69.69,0,0,1-.33-.93,9.15,9.15,0,0,0,.76-2.48.71.71,0,0,1,.81-.58.7.7,0,0,1,.58.8,10.79,10.79,0,0,1-.88,2.86A.72.72,0,0,1,486.75,37.29Zm18.67-.41a.7.7,0,0,1-.7-.7v-2.8a.7.7,0,1,1,1.4,0v2.8A.7.7,0,0,1,505.42,36.88Zm-33.69-.48a.7.7,0,0,1-.66-.46,10.83,10.83,0,0,1-.57-2.52h-2.15a.7.7,0,0,1,0-1.4h2.8a.7.7,0,0,1,.7.7.22.22,0,0,1,0,.08.5.5,0,0,1,0,.12,9.42,9.42,0,0,0,.53,2.54.7.7,0,0,1-.43.9A.59.59,0,0,1,471.73,36.4Zm-18.3-1.11a.7.7,0,0,1-.7-.7V32.72a.67.67,0,0,1,.21-.5.7.7,0,0,1,.49-.2h.93a.7.7,0,0,1,0,1.4h-.22v1.17a.7.7,0,0,1-.69.7Zm49.86-1.87h-2.8a.7.7,0,1,1,0-1.4h2.8a.7.7,0,0,1,0,1.4Zm-5.6,0h-2.8a.7.7,0,1,1,0-1.4h2.8a.7.7,0,0,1,0,1.4Zm-5.6,0h-2.8a.7.7,0,1,1,0-1.4h2.8a.7.7,0,0,1,0,1.4Zm-26.54,0h-2.8a.7.7,0,1,1,0-1.4h2.8a.7.7,0,0,1,0,1.4Zm-5.6,0h-2.8a.7.7,0,1,1,0-1.4H460a.7.7,0,0,1,0,1.4Z"/><path class="cls-3" d="M481.82,78.32h0l2.66-9.14h1.29l2.65,9.14h0l2.6-9.14h1.14L489.08,79.8h-1.26l-2.67-9.12h0l-2.67,9.12h-1.26l-3.13-10.62h1.14Z"/><path class="cls-3" d="M493.6,79.8h-1.19L497,69.18h1.05l4.56,10.62h-1.2L500.24,77h-5.49ZM495.16,76h4.68l-2.34-5.64Z"/><path class="cls-2" d="M481.44,112.45a.6.6,0,0,1-.6-.6v-4.8a.6.6,0,0,1,1.2,0v4.8A.6.6,0,0,1,481.44,112.45Zm0-9.6a.6.6,0,0,1-.6-.6v-4.8a.6.6,0,0,1,1.2,0v4.8A.6.6,0,0,1,481.44,102.85Zm0-9.6a.6.6,0,0,1-.6-.6v-4.8a.6.6,0,0,1,1.2,0v4.8A.6.6,0,0,1,481.44,93.25Z"/><polygon class="cls-2" points="481.44 125.17 477.76 115.35 478.88 114.93 480.84 120.15 480.84 115.14 482.04 115.14 482.04 120.15 484 114.93 485.12 115.35 481.44 125.17"/><path class="cls-2" d="M474,15.37h-3.72V14.1H474Z"/><path class="cls-2" d="M483.07,15.37h-3.72V14.1h3.72Z"/><path class="cls-2" d="M492.19,15.37h-3.72V14.1h3.72Z"/><path class="cls-4" d="M211.45,176.23a1.13,1.13,0,0,1-1-.71l-.37-1a9.94,9.94,0,0,1-2,0l-.41.94a1.13,1.13,0,0,1-1.48.59l-3.37-1.46a1.13,1.13,0,0,1-.59-1.48l.41-.93a9.4,9.4,0,0,1-1.42-1.47l-.95.38a1.13,1.13,0,0,1-1.47-.63l-1.35-3.41a1.13,1.13,0,0,1,.63-1.47l.95-.38a9.84,9.84,0,0,1,0-2l-.94-.41a1.14,1.14,0,0,1-.6-.62,1.12,1.12,0,0,1,0-.86l1.46-3.37a1.14,1.14,0,0,1,.62-.6,1.12,1.12,0,0,1,.86,0l.94.41a10.38,10.38,0,0,1,1.46-1.43l-.38-.94a1.14,1.14,0,0,1,.63-1.47l3.42-1.35a1.12,1.12,0,0,1,1.46.63l.38.95a9.94,9.94,0,0,1,2,0l.4-.94a1.13,1.13,0,0,1,1.48-.59l3.37,1.46a1.12,1.12,0,0,1,.59,1.48l-.4.94a9.82,9.82,0,0,1,1.42,1.46l.95-.38a1.13,1.13,0,0,1,1.46.63l1.36,3.42a1.14,1.14,0,0,1-.64,1.46l-.94.38a11.47,11.47,0,0,1,0,2l.93.41a1.13,1.13,0,0,1,.59,1.48l-1.45,3.37a1.11,1.11,0,0,1-.62.6,1.14,1.14,0,0,1-.87,0L217,171a10.89,10.89,0,0,1-1.46,1.42l.37.94a1.14,1.14,0,0,1,0,.87,1.11,1.11,0,0,1-.62.6l-3.41,1.35A1,1,0,0,1,211.45,176.23Zm-.54-3.15.68,1.71,2.95-1.18-.67-1.71.44-.31a8.82,8.82,0,0,0,1.93-1.88l.32-.43,1.69.73,1.26-2.92-1.69-.73.09-.53a8.37,8.37,0,0,0,0-2.69l-.07-.54,1.71-.68L218.41,159l-1.7.68-.32-.44a8.83,8.83,0,0,0-1.87-1.94l-.44-.32.73-1.69L211.89,154l-.72,1.69-.54-.09a8.67,8.67,0,0,0-2.69,0l-.54.07-.67-1.71-3,1.18.68,1.71-.44.31a8.4,8.4,0,0,0-1.93,1.88l-.33.43-1.69-.73-1.26,2.92,1.69.73-.09.53a8.73,8.73,0,0,0,0,2.7l.07.53-1.7.68,1.17,3,1.71-.68.31.44a8.87,8.87,0,0,0,1.88,1.94l.43.32-.73,1.69,2.92,1.26.73-1.69.53.09a8.73,8.73,0,0,0,2.7,0Z"/><path class="cls-4" d="M209.32,169.65a5.36,5.36,0,1,1,2-.38h0A5.23,5.23,0,0,1,209.32,169.65Zm0-9.34a3.94,3.94,0,0,0-1.46.28,4,4,0,0,0,2.94,7.4h0a4,4,0,0,0-1.48-7.68Z"/><path class="cls-4" d="M208.84,183.42a19,19,0,1,1,12.51-4.71.68.68,0,1,1-.9-1,17.62,17.62,0,1,0-11.61,4.37.68.68,0,0,1,.68.68A.69.69,0,0,1,208.84,183.42Z"/><path class="cls-4" d="M220.9,178.7h0a.68.68,0,0,1-.66-.71l.12-3.65a.69.69,0,0,1,.71-.67.68.68,0,0,1,.66.71l-.12,3.66A.69.69,0,0,1,220.9,178.7Z"/><path class="cls-4" d="M221,178.88a.69.69,0,0,1-.19-1.35l4.37-1.31a.7.7,0,0,1,.86.46.7.7,0,0,1-.46.86l-4.38,1.31A.64.64,0,0,1,221,178.88Z"/><path class="cls-1" d="M229.15,22.94,229,22h0a2.9,2.9,0,0,1-2.37,1.15,2.2,2.2,0,0,1-2.37-2.22c0-1.88,1.66-2.9,4.66-2.89v-.15a1.6,1.6,0,0,0-1.76-1.8,3.88,3.88,0,0,0-2,.58l-.32-.93a4.77,4.77,0,0,1,2.54-.69c2.37,0,3,1.62,3,3.17v2.9a10.57,10.57,0,0,0,.13,1.86Zm-.21-4c-1.54,0-3.28.24-3.28,1.75A1.25,1.25,0,0,0,227,22.07a1.94,1.94,0,0,0,1.87-1.3,1.36,1.36,0,0,0,.08-.44Z"/><path class="cls-1" d="M239.24,15.19c0,.56-.06,1.18-.06,2.13v4.49c0,1.78-.35,2.87-1.1,3.54a4.11,4.11,0,0,1-2.82.93,5,5,0,0,1-2.58-.64l.35-1.07a4.42,4.42,0,0,0,2.28.61c1.44,0,2.49-.76,2.49-2.71v-.86h0a2.75,2.75,0,0,1-2.46,1.29c-1.92,0-3.3-1.63-3.3-3.77,0-2.63,1.71-4.12,3.49-4.12a2.6,2.6,0,0,1,2.42,1.35h0l.06-1.17Zm-1.45,3.06a2.18,2.18,0,0,0-.08-.65,2,2,0,0,0-2-1.48c-1.35,0-2.31,1.13-2.31,2.93,0,1.52.77,2.78,2.29,2.78a2.06,2.06,0,0,0,2-1.44,2.43,2.43,0,0,0,.11-.75Z"/><path class="cls-1" d="M248.19,15.19c0,.56-.07,1.18-.07,2.13v4.49c0,1.78-.35,2.87-1.1,3.54a4.08,4.08,0,0,1-2.82.93,5,5,0,0,1-2.58-.64l.36-1.07a4.35,4.35,0,0,0,2.27.61c1.44,0,2.5-.76,2.5-2.71v-.86h0a2.78,2.78,0,0,1-2.47,1.29c-1.92,0-3.3-1.63-3.3-3.77,0-2.63,1.72-4.12,3.49-4.12a2.58,2.58,0,0,1,2.42,1.35h0l.07-1.17Zm-1.46,3.06a1.9,1.9,0,0,0-.08-.65,2,2,0,0,0-2-1.48c-1.34,0-2.3,1.13-2.3,2.93,0,1.52.77,2.78,2.29,2.78a2.06,2.06,0,0,0,2-1.44,2.43,2.43,0,0,0,.11-.75Z"/><path class="cls-1" d="M250.36,17.6c0-.91,0-1.69-.06-2.41h1.23l.05,1.52h.06a2.33,2.33,0,0,1,2.15-1.7,1.62,1.62,0,0,1,.4.05v1.33a2.28,2.28,0,0,0-.48-.05,2,2,0,0,0-1.89,1.81,4.18,4.18,0,0,0-.07.66v4.13h-1.39Z"/><path class="cls-1" d="M256.22,19.32A2.48,2.48,0,0,0,258.87,22a5.19,5.19,0,0,0,2.15-.4l.24,1a6.19,6.19,0,0,1-2.58.49,3.6,3.6,0,0,1-3.81-3.91c0-2.34,1.38-4.18,3.64-4.18,2.52,0,3.2,2.23,3.2,3.65a4.67,4.67,0,0,1,0,.66Zm4.13-1a2,2,0,0,0-2-2.29,2.34,2.34,0,0,0-2.16,2.29Z"/><path class="cls-1" d="M270.12,15.19c0,.56-.06,1.18-.06,2.13v4.49c0,1.78-.35,2.87-1.11,3.54a4.07,4.07,0,0,1-2.81.93,5,5,0,0,1-2.58-.64l.35-1.07a4.42,4.42,0,0,0,2.28.61c1.44,0,2.49-.76,2.49-2.71v-.86h0a2.75,2.75,0,0,1-2.46,1.29c-1.93,0-3.3-1.63-3.3-3.77,0-2.63,1.71-4.12,3.49-4.12a2.57,2.57,0,0,1,2.41,1.35h0l.06-1.17Zm-1.45,3.06a2.18,2.18,0,0,0-.08-.65,2,2,0,0,0-2-1.48c-1.35,0-2.31,1.13-2.31,2.93,0,1.52.77,2.78,2.29,2.78a2,2,0,0,0,1.95-1.44,2.45,2.45,0,0,0,.12-.75Z"/><path class="cls-1" d="M276.68,22.94l-.11-1h-.05a2.87,2.87,0,0,1-2.37,1.15,2.2,2.2,0,0,1-2.37-2.22c0-1.88,1.67-2.9,4.66-2.89v-.15a1.6,1.6,0,0,0-1.76-1.8,3.91,3.91,0,0,0-2,.58l-.32-.93a4.81,4.81,0,0,1,2.55-.69c2.37,0,2.95,1.62,2.95,3.17v2.9a11.7,11.7,0,0,0,.12,1.86Zm-.21-4c-1.53,0-3.28.24-3.28,1.75a1.25,1.25,0,0,0,1.33,1.34,1.92,1.92,0,0,0,1.87-1.3,1.36,1.36,0,0,0,.08-.44Z"/><path class="cls-1" d="M281.74,13v2.23h2v1.07h-2v4.18c0,1,.27,1.5,1.05,1.5a3.66,3.66,0,0,0,.82-.09l.06,1a3.22,3.22,0,0,1-1.24.2,2,2,0,0,1-1.53-.6,2.85,2.85,0,0,1-.54-2V16.26h-1.2V15.19h1.2V13.33Z"/><path class="cls-1" d="M286,19.32A2.49,2.49,0,0,0,288.68,22a5.19,5.19,0,0,0,2.15-.4l.24,1a6.19,6.19,0,0,1-2.58.49,3.6,3.6,0,0,1-3.81-3.91c0-2.34,1.38-4.18,3.63-4.18,2.53,0,3.2,2.23,3.2,3.65,0,.29,0,.51,0,.66Zm4.13-1A2,2,0,0,0,288.2,16,2.33,2.33,0,0,0,286,18.31Z"/><path class="cls-1" d="M320.22,17.29c0-.81,0-1.46-.06-2.1h1.23l.06,1.25h.05A2.66,2.66,0,0,1,323.93,15a2.3,2.3,0,0,1,2.2,1.55h0a3.17,3.17,0,0,1,.86-1,2.63,2.63,0,0,1,1.72-.55c1,0,2.54.67,2.54,3.36v4.57h-1.37V18.55c0-1.49-.55-2.38-1.69-2.38a1.82,1.82,0,0,0-1.66,1.28,2.39,2.39,0,0,0-.11.7v4.79h-1.38V18.29c0-1.23-.54-2.12-1.62-2.12a1.91,1.91,0,0,0-1.74,1.4,2,2,0,0,0-.11.69v4.68h-1.38Z"/><path class="cls-1" d="M337.86,22.94l-.12-1h0a2.9,2.9,0,0,1-2.37,1.15A2.2,2.2,0,0,1,333,20.89c0-1.88,1.66-2.9,4.66-2.88v-.16a1.61,1.61,0,0,0-1.77-1.8,3.85,3.85,0,0,0-2,.58l-.32-.93a4.77,4.77,0,0,1,2.54-.69c2.37,0,2.95,1.62,2.95,3.17v2.9a10.57,10.57,0,0,0,.13,1.86Zm-.21-4c-1.54,0-3.28.24-3.28,1.75a1.24,1.24,0,0,0,1.32,1.34,1.94,1.94,0,0,0,1.88-1.3,1.36,1.36,0,0,0,.08-.44Z"/><path class="cls-1" d="M341.28,17.72c0-1,0-1.8-.07-2.53h1.27l.06,1.33h0A3,3,0,0,1,345.33,15c1.87,0,3.28,1.59,3.28,3.94,0,2.78-1.7,4.16-3.52,4.16a2.74,2.74,0,0,1-2.39-1.21h0v4.2h-1.39Zm1.39,2.06a3.44,3.44,0,0,0,.06.58A2.19,2.19,0,0,0,344.85,22c1.49,0,2.35-1.22,2.35-3,0-1.55-.82-2.88-2.3-2.88a2.25,2.25,0,0,0-2.13,1.75,2.13,2.13,0,0,0-.1.57Z"/><path class="cls-1" d="M380.61,22.78V16.1h-1.09V15h1.09v-.34A3.5,3.5,0,0,1,381.7,12a3.7,3.7,0,0,1,2.48-.79,4.94,4.94,0,0,1,2.32.52v11h-1.39V12.53a2.47,2.47,0,0,0-1.15-.21c-1.47,0-2,1.08-2,2.32V15h1.81V16.1H382v6.68Z"/><path class="cls-1" d="M393.13,22.78l-.12-1h0A2.9,2.9,0,0,1,390.6,23a2.2,2.2,0,0,1-2.37-2.22c0-1.88,1.66-2.9,4.66-2.88v-.16a1.6,1.6,0,0,0-1.77-1.8,3.87,3.87,0,0,0-2,.58l-.32-.93a4.77,4.77,0,0,1,2.54-.69c2.37,0,2.95,1.62,2.95,3.17v2.9a10.57,10.57,0,0,0,.13,1.86Zm-.21-4c-1.54,0-3.28.24-3.28,1.75A1.24,1.24,0,0,0,391,21.91a1.94,1.94,0,0,0,1.88-1.3,1.36,1.36,0,0,0,.08-.44Z"/><path class="cls-1" d="M398.18,12.8V15h2V16.1h-2v4.18c0,1,.27,1.5,1.06,1.5a3.48,3.48,0,0,0,.81-.09l.07,1a3.27,3.27,0,0,1-1.25.2,1.94,1.94,0,0,1-1.52-.6,2.84,2.84,0,0,1-.55-2V16.1h-1.2V15h1.2V13.17Z"/><path class="cls-1" d="M405,17.93v1h-4v-1Z"/><path class="cls-1" d="M406.61,17.12c0-.8,0-1.45-.06-2.09h1.23l.06,1.25h.05a2.68,2.68,0,0,1,2.44-1.43,2.3,2.3,0,0,1,2.19,1.55h0a3.17,3.17,0,0,1,.86-1,2.63,2.63,0,0,1,1.72-.55c1,0,2.54.67,2.54,3.36v4.57H416.3V18.39c0-1.49-.55-2.39-1.68-2.39A1.84,1.84,0,0,0,413,17.29a2.39,2.39,0,0,0-.11.7v4.79h-1.38V18.13c0-1.23-.54-2.13-1.61-2.13a1.93,1.93,0,0,0-1.75,1.41,2,2,0,0,0-.11.69v4.68h-1.38Z"/><path class="cls-1" d="M424.25,22.78l-.12-1h0A2.9,2.9,0,0,1,421.72,23a2.2,2.2,0,0,1-2.37-2.22c0-1.88,1.66-2.9,4.66-2.88v-.16a1.6,1.6,0,0,0-1.77-1.8,3.87,3.87,0,0,0-2,.58l-.32-.93a4.77,4.77,0,0,1,2.54-.69c2.37,0,2.95,1.62,2.95,3.17v2.9a10.57,10.57,0,0,0,.13,1.86Zm-.21-4c-1.54,0-3.28.24-3.28,1.75a1.24,1.24,0,0,0,1.32,1.34,1.94,1.94,0,0,0,1.88-1.3,1.36,1.36,0,0,0,.08-.44Z"/><path class="cls-1" d="M427.67,17.56c0-1,0-1.8-.07-2.53h1.27l.06,1.33h0a3,3,0,0,1,2.76-1.51c1.87,0,3.28,1.59,3.28,3.94,0,2.78-1.7,4.16-3.52,4.16a2.72,2.72,0,0,1-2.39-1.22h0v4.21h-1.39Zm1.39,2.06a3.44,3.44,0,0,0,.06.58,2.19,2.19,0,0,0,2.12,1.65c1.49,0,2.35-1.22,2.35-3,0-1.55-.82-2.88-2.3-2.88a2.24,2.24,0,0,0-2.13,1.75,2.13,2.13,0,0,0-.1.57Z"/><path class="cls-6" d="M525.72,165.76h43.94"/><polygon class="cls-7" points="563.75 168.94 563.41 168 569.56 165.76 563.41 163.52 563.75 162.59 572.48 165.76 563.75 168.94"/><path class="cls-6" d="M525.72,211.32h43.94"/><polygon class="cls-7" points="563.75 214.5 563.41 213.56 569.56 211.32 563.41 209.08 563.75 208.15 572.48 211.32 563.75 214.5"/><path class="cls-6" d="M525.72,256.88h43.94"/><polygon class="cls-7" points="563.75 260.06 563.41 259.13 569.56 256.88 563.41 254.65 563.75 253.71 572.48 256.88 563.75 260.06"/><path class="cls-6" d="M525.72,302.44h43.94"/><polygon class="cls-7" points="563.75 305.63 563.41 304.69 569.56 302.44 563.41 300.2 563.75 299.26 572.48 302.44 563.75 305.63"/><path class="cls-6" d="M525.72,348h43.94"/><polygon class="cls-7" points="563.75 351.19 563.41 350.25 569.56 348 563.41 345.76 563.75 344.82 572.48 348 563.75 351.19"/><path class="cls-6" d="M98.1,166.05H142"/><polygon class="cls-7" points="136.12 169.23 135.78 168.29 141.94 166.05 135.78 163.81 136.12 162.87 144.86 166.05 136.12 169.23"/><path class="cls-6" d="M98.1,211.61H142"/><polygon class="cls-7" points="136.12 214.79 135.78 213.85 141.94 211.61 135.78 209.37 136.12 208.43 144.86 211.61 136.12 214.79"/><path class="cls-6" d="M98.1,257.17H142"/><polygon class="cls-7" points="136.12 260.35 135.78 259.41 141.94 257.17 135.78 254.93 136.12 253.99 144.86 257.17 136.12 260.35"/><path class="cls-6" d="M98.1,302.73H142"/><polygon class="cls-7" points="136.12 305.91 135.78 304.97 141.94 302.73 135.78 300.49 136.12 299.55 144.86 302.73 136.12 305.91"/><path class="cls-6" d="M98.1,348.29H142"/><polygon class="cls-7" points="136.12 351.47 135.78 350.53 141.94 348.29 135.78 346.05 136.12 345.11 144.86 348.29 136.12 351.47"/><rect class="cls-2" x="584.26" y="136.88" width="70.11" height="240"/><path class="cls-4" d="M629.69,164.55a1,1,0,0,1,1.89.9,1.06,1.06,0,0,1-1.37.56,1.07,1.07,0,0,1-.5-1.44Zm-12.14-10a1,1,0,0,1,1.47,0,1.1,1.1,0,0,1,0,1.51,1,1,0,0,1-1.47,0,1.08,1.08,0,0,1,0-1.5Zm13.55,14.35v1h-1.3c-.13,0-.18.09-.18.22v.61c0,1.46-.81,1.79-1.5,1.79s-1.4-.27-1.5-.7a4.61,4.61,0,0,0-2.09-3.59c1.28-.83,2.63-2.07,2.63-3.72a4.25,4.25,0,0,0-2-3.46,5.51,5.51,0,0,0-2.75-.9H608.82A12.68,12.68,0,0,1,616,156l1.6,1.71a.89.89,0,0,0,.66.3.91.91,0,0,0,.67-.3l1.79-1.79a12.83,12.83,0,0,1,8.74,6.38l-1.22,2.81a1,1,0,0,0,.49,1.29l2.36,1.08c0,.48,0,.9,0,1.34Zm-15.65-2.22V164.2h4.31c.22,0,1.57.25,1.57,1.31,0,.85-1,1.15-1.89,1.15Zm-9.8.83,2.23-1a1,1,0,0,0,.5-1.28l-.47-1.06h1.79v8.36H606a13.18,13.18,0,0,1-.49-3.59c0-.49,0-1,.07-1.42Zm1.23-3a1.1,1.1,0,0,1-.52,1.41,1.08,1.08,0,0,1-.81,0,1,1,0,0,1-.56-.57,1.09,1.09,0,0,1,.52-1.41A1.07,1.07,0,0,1,606.88,164.52ZM610.77,181a1.05,1.05,0,0,1-1.23-.81,1.07,1.07,0,0,1,.79-1.26,1,1,0,0,1,1.23.8,1.06,1.06,0,0,1-.75,1.27Zm14.43-3.4a1,1,0,0,0-1.13.75l-.52,2.49a12.21,12.21,0,0,1-5.28,1.16,12.51,12.51,0,0,1-5.38-1.21l-.52-2.49a1,1,0,0,0-1.13-.76l-2.14.49a14.25,14.25,0,0,1-1.1-1.34h10.44c.13,0,.2,0,.2-.12v-3.74c0-.09-.07-.12-.2-.12h-3.05v-2.4h3.3a2.14,2.14,0,0,1,2,1.8c.12.53.42,2.24.61,2.8s1,1.84,1.84,1.84h5.42a13,13,0,0,1-1.18,1.4l-2.21-.5Zm.51,3.44a1,1,0,0,1-.65-.46,1.09,1.09,0,0,1,.32-1.46,1,1,0,0,1,.78-.14,1.06,1.06,0,0,1-.45,2.06Zm9.87-12.46-1.48-.89a1.43,1.43,0,0,0,0-.43L635.3,166a.51.51,0,0,0,.16-.48.49.49,0,0,0-.33-.38l-1.62-.63a1.47,1.47,0,0,0-.12-.43l1-1.43a.5.5,0,0,0,0-.5.48.48,0,0,0-.38-.31l-1.7-.27c-.07-.13-.14-.26-.2-.4l.71-1.62a.5.5,0,0,0,0-.49.49.49,0,0,0-.44-.23l-1.72,0a2.69,2.69,0,0,0-.27-.32l.39-1.71a.47.47,0,0,0-.12-.48.44.44,0,0,0-.47-.12l-1.67.39c-.1-.1-.22-.17-.32-.27l0-1.79a.52.52,0,0,0-.22-.45.5.5,0,0,0-.5-.06l-1.56.73a2.14,2.14,0,0,0-.4-.2l-.27-1.74a.57.57,0,0,0-.29-.4.52.52,0,0,0-.5,0l-1.4,1c-.14-.06-.27-.08-.41-.13l-.62-1.66a.45.45,0,0,0-.37-.33.52.52,0,0,0-.46.15l-1.13,1.28a3.23,3.23,0,0,1-.44,0l-.9-1.51a.47.47,0,0,0-.41-.25.44.44,0,0,0-.42.25l-.9,1.51a3.38,3.38,0,0,1-.45,0l-1.17-1.28a.49.49,0,0,0-.47-.15.46.46,0,0,0-.37.33l-.62,1.66c-.14.05-.27.07-.41.13l-1.41-1a.5.5,0,0,0-.49,0,.52.52,0,0,0-.29.4l-.27,1.74-.39.2-1.58-.73a.48.48,0,0,0-.49.06.52.52,0,0,0-.22.45l.05,1.79c-.12.1-.22.17-.32.27l-1.68-.39a.44.44,0,0,0-.46.12.5.5,0,0,0-.12.48l.4,1.71c-.1.1-.18.22-.28.32l-1.72,0a.52.52,0,0,0-.44.22.53.53,0,0,0-.05.5l.71,1.62a3,3,0,0,0-.2.4l-1.69.27a.6.6,0,0,0-.4.31.5.5,0,0,0,.06.5l1,1.43a3.45,3.45,0,0,0-.12.43l-1.62.63a.46.46,0,0,0-.32.38.57.57,0,0,0,.14.48l1.28,1.19a3.42,3.42,0,0,1,0,.45l-1.48.89a.52.52,0,0,0-.24.43.5.5,0,0,0,.24.43l1.48.89a3.57,3.57,0,0,1,0,.46L601.39,172a.5.5,0,0,0-.15.48.47.47,0,0,0,.32.37l1.62.63c.06.15.07.28.13.43l-1,1.44a.52.52,0,0,0,0,.5.5.5,0,0,0,.39.3l1.7.28.2.4-.71,1.61a.5.5,0,0,0,0,.5.54.54,0,0,0,.44.24l1.72-.06.27.33-.39,1.71a.49.49,0,0,0,.12.48.49.49,0,0,0,.47.13l1.68-.4c.09.09.21.17.31.27v1.8a.58.58,0,0,0,.22.45.48.48,0,0,0,.49,0l1.57-.72a2.49,2.49,0,0,0,.4.2l.26,1.74a.61.61,0,0,0,.3.4.5.5,0,0,0,.49-.05l1.4-1a2.25,2.25,0,0,0,.42.13l.61,1.66a.48.48,0,0,0,.38.33.54.54,0,0,0,.47-.15l1.17-1.28a1.1,1.1,0,0,1,.42.05l.9,1.51a.52.52,0,0,0,.42.25.48.48,0,0,0,.42-.25l.89-1.51a1.05,1.05,0,0,0,.41-.05l1.19,1.28a.49.49,0,0,0,.47.15.48.48,0,0,0,.36-.33l.61-1.66a4.17,4.17,0,0,0,.42-.13l1.4,1a.53.53,0,0,0,.5.05.51.51,0,0,0,.29-.4l.27-1.74a1.66,1.66,0,0,1,.4-.2l1.57.72a.48.48,0,0,0,.49,0,.52.52,0,0,0,.22-.45l-.05-1.8.32-.27,1.61.43a.48.48,0,0,0,.47-.12.51.51,0,0,0,.12-.49l-.39-1.71c.09-.1.17-.22.27-.32l1.72,0a.54.54,0,0,0,.44-.24.5.5,0,0,0,0-.49l-.72-1.62a1.44,1.44,0,0,0,.2-.39l1.7-.28a.51.51,0,0,0,.39-.31.5.5,0,0,0,0-.5l-1-1.43c0-.16.08-.28.12-.43l1.63-.63a.47.47,0,0,0,.32-.38.57.57,0,0,0-.15-.47l-1.26-1.21a1.16,1.16,0,0,1,0-.43l1.48-.9a.5.5,0,0,0,0-.88Z"/><path class="cls-4" d="M613.53,201.18a.81.81,0,0,1-.76-.47.8.8,0,0,1,.16-.88.78.78,0,0,1,.88-.18.8.8,0,0,1,.49.74.79.79,0,0,1-.77.75Zm11.1.69a6.37,6.37,0,0,0-6.28-6.43H617a6.37,6.37,0,0,0-6.27,6.43,1,1,0,0,0,.27.68,1,1,0,0,0,.67.28h5.95v1.55h-9.16a6.37,6.37,0,0,0-6.28,6.43v1.36a6.37,6.37,0,0,0,6.28,6.43h1.19a1,1,0,0,0,.67-.28,1,1,0,0,0,.27-.68v-4.38a.9.9,0,0,1,.27-.68,1,1,0,0,1,.67-.29h12.14a1,1,0,0,0,.67-.28,1,1,0,0,0,.27-.67Z"/><path class="cls-4" d="M623.26,224.71a.79.79,0,0,1,.75.48.8.8,0,0,1-1,1.06.82.82,0,0,1-.5-.74.79.79,0,0,1,.23-.56A.76.76,0,0,1,623.26,224.71Zm5-17.41h-1.19a.92.92,0,0,0-.66.29.94.94,0,0,0-.27.67v4.38a1,1,0,0,1-.27.68,1,1,0,0,1-.67.28H613.09a.9.9,0,0,0-.67.29.94.94,0,0,0-.27.67V224a6.35,6.35,0,0,0,6.27,6.42h1.33A6.33,6.33,0,0,0,626,224a.92.92,0,0,0-.27-.68,1,1,0,0,0-.67-.29h-6v-1.54h9.14a6.35,6.35,0,0,0,6.28-6.42v-1.36A6.36,6.36,0,0,0,628.3,207.3Z"/><path class="cls-4" d="M622.25,265.92c-5.49,0-6.61-2.56-6.61-4.75a.37.37,0,0,1,.37-.38h1.64a.28.28,0,0,1,.24.09.33.33,0,0,1,.1.23c.25,1.75,1,2.53,4.3,2.53,2.62,0,3.75-.6,3.75-2.05,0-.87-.31-1.44-4.42-1.86-3.41-.35-5.55-1.12-5.55-3.91,0-2.63,2.14-4.15,5.71-4.15,4,0,6,1.41,6.24,4.49a.56.56,0,0,1-.1.29.31.31,0,0,1-.24.13H626a.36.36,0,0,1-.34-.28c-.37-1.75-1.35-2.35-3.92-2.35-2.88,0-3.22,1-3.22,1.75,0,.94.4,1.23,4.29,1.75s5.67,1.25,5.67,4-2.28,4.43-6.27,4.43ZM618.4,276.1a2.66,2.66,0,0,1-1.32-.35l-4.17-2.53c-.63-.36-.31-.49-.12-.55a7.82,7.82,0,0,0,1.88-.87.26.26,0,0,1,.31,0l3.2,1.95a.42.42,0,0,0,.38,0l12.5-7.41a.39.39,0,0,0,.19-.36V251.24a.38.38,0,0,0-.19-.35l-12.5-7.39a.37.37,0,0,0-.38,0l-12.51,7.39a.41.41,0,0,0-.19.35V266a.44.44,0,0,0,.19.36l3.41,2c1.86,1,3-.15,3-1.28V252.5a.38.38,0,0,1,.37-.38h1.6a.4.4,0,0,1,.38.38v14.61c0,2.55-1.35,4-3.71,4a5.25,5.25,0,0,1-2.88-.8l-3.28-1.93a2.73,2.73,0,0,1-1.32-2.34V251.24a2.7,2.7,0,0,1,1.32-2.34l12.5-7.42a2.71,2.71,0,0,1,2.62,0l12.51,7.42a2.72,2.72,0,0,1,1.29,2.34v14.85a2.71,2.71,0,0,1-1.31,2.34l-12.52,7.42a3.09,3.09,0,0,1-1.31.29Z"/><path class="cls-4" d="M616.23,291a12.07,12.07,0,0,0-4.33,4.56c-1.67,3.72,3.41,7.78,3.63,8a.23.23,0,0,0,.16.06.3.3,0,0,0,.25-.14.26.26,0,0,0,0-.27s-1.84-3.66-1.76-6.26c0-.91,1.25-1.94,2.56-3a14.94,14.94,0,0,0,3.34-3.44,5.76,5.76,0,0,0-.21-5.83.28.28,0,0,0-.34-.1.28.28,0,0,0-.17.32,6.17,6.17,0,0,1-.67,3.86A8.13,8.13,0,0,1,616.23,291Z"/><path class="cls-4" d="M622.88,292.27a.28.28,0,0,0-.27-.49c-.27.1-6.57,2.59-6.57,5.59a5.85,5.85,0,0,0,1.49,4,3,3,0,0,1,.54.83,4.19,4.19,0,0,1-.47,2.28.28.28,0,0,0,0,.28.29.29,0,0,0,.24.14.3.3,0,0,0,.16-.05c.11-.08,2.65-1.92,2.19-4.17a5.7,5.7,0,0,0-.92-2c-.56-.84-1-1.45-.35-2.57C619.63,294.77,622.84,292.27,622.88,292.27Z"/><path class="cls-4" d="M606.45,304.87a1,1,0,0,0,.14.95c.68,1,3.1,1.5,6.82,1.5H615c5.94-.21,8.14-2.1,8.22-2.19a.28.28,0,0,0-.25-.49,39.73,39.73,0,0,1-8.7.83,18.32,18.32,0,0,1-4.94-.39,6.82,6.82,0,0,1,2.87-1.05.28.28,0,0,0,.22-.31.29.29,0,0,0-.28-.26C611.28,303.38,606.93,303.46,606.45,304.87Z"/><path class="cls-4" d="M626.33,302.92a5.62,5.62,0,0,0-2.44.65.32.32,0,0,0-.14.32.29.29,0,0,0,.28.22s2.6,0,2.84,1.53c.21,1.31-2.44,3.43-3.49,4.17a.29.29,0,0,0-.1.35.3.3,0,0,0,.26.17h.06c.24-.05,6-1.36,5.42-4.81C628.64,303.36,627.35,302.92,626.33,302.92Z"/><path class="cls-4" d="M622.36,309.34a.28.28,0,0,0-.12-.28l-1.38-1a.31.31,0,0,0-.23,0,27.09,27.09,0,0,1-3.58.63,24.48,24.48,0,0,1-2.71.15,9.54,9.54,0,0,1-3.68-.44v-.09A.59.59,0,0,1,611,308a.3.3,0,0,0,.17-.36.28.28,0,0,0-.33-.19c-1.39.34-2.08.83-2,1.42.1,1.08,2.51,1.67,4.57,1.78h.94a39.08,39.08,0,0,0,7.83-1.1A.3.3,0,0,0,622.36,309.34Z"/><path class="cls-4" d="M611.9,311.65a.3.3,0,0,0,.11-.33.27.27,0,0,0-.28-.2c-.18,0-1.82.08-1.93,1.15a1.06,1.06,0,0,0,.27.83c.58.72,2.17,1.14,4.85,1.3h1a14.4,14.4,0,0,0,5.83-1.14.31.31,0,0,0,.16-.24.28.28,0,0,0-.14-.27L620,311.66a.23.23,0,0,0-.2,0s-1.13.23-2.8.46a6.79,6.79,0,0,1-1.19.07,14.33,14.33,0,0,1-3.91-.46A.11.11,0,0,1,611.9,311.65Z"/><path class="cls-4" d="M614.28,317.76c7.8,0,12-1.43,12.8-2.32a1,1,0,0,0,.29-.83,1.29,1.29,0,0,0-.54-.84.29.29,0,0,0-.36.05.3.3,0,0,0,0,.38c0,.07.07.17-.07.32-.32.31-3.57,1.25-9,1.53-.74,0-1.52.06-2.31.06-4.84,0-8.39-.69-8.86-1.08a6.64,6.64,0,0,1,2.77-.92.29.29,0,0,0,.23-.33.28.28,0,0,0-.32-.24h-.31c-2.2.14-4.74.45-4.88,1.61a1.21,1.21,0,0,0,.31,1c.59.68,2.3,1.59,10.24,1.59Z"/><path class="cls-4" d="M628.61,315.69a.3.3,0,0,0-.33.07s-1.18,1.26-4.7,2a43.83,43.83,0,0,1-7.5.41c-3.66,0-7.14-.14-7.17-.14a.28.28,0,0,0-.29.24.3.3,0,0,0,.21.33,41.27,41.27,0,0,0,8.66.83,39,39,0,0,0,6.91-.58c4.1-.74,4.38-2.82,4.39-2.91A.27.27,0,0,0,628.61,315.69Z"/><path class="cls-4" d="M603.6,350.56c0,1,1.09.55,1.55.22s.55,0,.61-.65a9.55,9.55,0,0,0,0-1.19,2.88,2.88,0,0,0-1.95.5c-.29.21-.81.87-.26,1.09"/><path class="cls-5" d="M605.52,349a2.71,2.71,0,0,0-1.6.5,1.05,1.05,0,0,0-.46.73.26.26,0,0,0,.18.22h.05v.07a.56.56,0,0,0,.22.49,1.4,1.4,0,0,0,1.17-.35,1.27,1.27,0,0,1,.37-.18c.14,0,.18-.06.19-.39V349h-.12Zm-1.38,2.27a.63.63,0,0,1-.47-.2.65.65,0,0,1-.17-.48.4.4,0,0,1-.24-.35,1.27,1.27,0,0,1,.55-.87,3,3,0,0,1,2-.52h.09V349q0,.47,0,.93v.28c0,.42-.12.49-.34.54a1.44,1.44,0,0,0-.33.16A2.28,2.28,0,0,1,604.14,351.31Z"/><path class="cls-4" d="M606,338.26c-4-1.11-1-6.13,2.18-4.08Z"/><path class="cls-5" d="M606.58,333.78a2.35,2.35,0,0,0-1.26.37,2.44,2.44,0,0,0-1.14,2.29,2.18,2.18,0,0,0,1.75,1.68L608,334.2a2.78,2.78,0,0,0-1.4-.41Zm-.54,4.58H606a2.41,2.41,0,0,1-2-1.88,2.62,2.62,0,0,1,4.19-2.37l.08,0Z"/><path class="cls-4" d="M623.56,333.79c3.12-2.18,6,2.74,2.32,4Z"/><path class="cls-5" d="M623.69,333.83l2.23,3.86a2.12,2.12,0,0,0,1.56-1.75,2.46,2.46,0,0,0-1.21-2.28,2.31,2.31,0,0,0-2.62.19Zm2.15,4.1-2.41-4.16h.07a2.57,2.57,0,0,1,4.18,2.2,2.31,2.31,0,0,1-1.75,2Z"/><path class="cls-4" d="M624.23,363.27c.79.5,2.25,2,1,2.7-1.13,1-1.74-1.15-2.79-1.45A2.74,2.74,0,0,1,624.23,363.27Z"/><path class="cls-5" d="M622.64,364.47a3.08,3.08,0,0,1,1,.88,1.91,1.91,0,0,0,1.06.83.8.8,0,0,0,.54-.25.72.72,0,0,0,.4-.64c0-.67-.87-1.51-1.43-1.88a2.63,2.63,0,0,0-1.51,1.08Zm2,1.89c-.45,0-.87-.47-1.19-.88a2.5,2.5,0,0,0-1-.87h-.13l.08-.14a2.85,2.85,0,0,1,1.8-1.28h.07c.51.31,1.56,1.23,1.55,2.06a.89.89,0,0,1-.49.8A1,1,0,0,1,624.68,366.36Z"/><path class="cls-5" d="M625.28,366.08a.08.08,0,0,1-.08-.06,2.39,2.39,0,0,1-.15-.37,1.68,1.68,0,0,0-.36-.67.09.09,0,0,1,0-.07.11.11,0,0,1,0-.07.12.12,0,0,1,.14,0,1.65,1.65,0,0,1,.4.72c0,.12.1.24.15.35a.09.09,0,0,1,0,.06.09.09,0,0,1,0,.07Z"/><path class="cls-4" d="M610,365c-.94.15-1.46,1-2.24,1.41a.67.67,0,0,1-1,0,.49.49,0,0,1-.14-.21.34.34,0,0,1-.28-.14c-.68-1.09.7-1.85,1.43-2.38,1-.21,1.65.67,2.19,1.36Z"/><path class="cls-5" d="M606.63,366h.15l.05.09a.65.65,0,0,0,.36.33.77.77,0,0,0,.55-.13,5.08,5.08,0,0,0,.79-.59,3.16,3.16,0,0,1,1.32-.8c-.5-.66-1.1-1.38-2-1.21l-.24.17c-.75.55-1.69,1.2-1.15,2.07a.2.2,0,0,0,.12.08Zm.66.64h-.18a.9.9,0,0,1-.47-.41.35.35,0,0,1-.27-.14c-.66-1.05.46-1.82,1.2-2.34l.26-.19c1-.21,1.69.64,2.22,1.34l.14.19H610a2.82,2.82,0,0,0-1.38.79,5.6,5.6,0,0,1-.83.62A1.08,1.08,0,0,1,607.29,366.63Z"/><path class="cls-5" d="M606.71,366.21l-.07,0a.09.09,0,0,1,0-.07v0a1.43,1.43,0,0,1,.32-.72,1.68,1.68,0,0,0,.2-.34.12.12,0,0,1,.13-.06.09.09,0,0,1,.06.06.11.11,0,0,1,0,.08,2.85,2.85,0,0,1-.23.37,1.38,1.38,0,0,0-.26.65s0,.05,0,.06a.09.09,0,0,1-.07,0Z"/><path class="cls-4" d="M628.64,350.42c0,1-1.09.56-1.54.23s-.55,0-.62-.65a11.81,11.81,0,0,1,0-1.19,2.92,2.92,0,0,1,1.95.49c.28.21.82.88.27,1.1"/><path class="cls-5" d="M626.52,348.9V350c0,.33,0,.34.19.39a1.46,1.46,0,0,1,.38.18,1.33,1.33,0,0,0,1.16.34.54.54,0,0,0,.23-.49v-.07h.06a.25.25,0,0,0,.18-.21,1.07,1.07,0,0,0-.46-.74,2.74,2.74,0,0,0-1.75-.5Zm1.59,2.25a2.32,2.32,0,0,1-1-.39,1.44,1.44,0,0,0-.33-.16c-.22-.08-.3-.14-.33-.55v-.27a7.37,7.37,0,0,1,0-.94v-.13h.09a3,3,0,0,1,2,.52,1.2,1.2,0,0,1,.54.87.41.41,0,0,1-.24.35.65.65,0,0,1-.34.6.66.66,0,0,1-.33.07Z"/><path class="cls-4" d="M615.73,331.71c4,0,7.66.54,9.62,4.38,1.75,4.26,1.1,8.86,1.39,13.36.22,3.87.73,8.34-1.06,11.93-1.88,3.76-6.62,4.7-10.5,4.57-3-.11-6.74-1.09-8.47-3.89-2-3.29-1.07-8.15-.92-11.78.18-4.32-1.17-8.64.25-12.86,1.48-4.38,5.43-5.38,9.7-5.71"/><path class="cls-5" d="M615.73,331.81c-4.12.35-8.13,1.23-9.62,5.64-.88,2.7-.67,5.5-.45,8.21a35.25,35.25,0,0,1,.2,4.6c0,.72-.09,1.5-.15,2.32-.25,3.19-.55,6.82,1,9.4.68,1.09,2.85,3.66,8.39,3.83,2.4.09,8.21-.18,10.4-4.53,1.61-3.21,1.34-7.22,1.12-10.74a6,6,0,0,0-.07-1.13c-.06-1.19-.09-2.45-.09-3.67,0-3.21,0-6.56-1.3-9.62a6.94,6.94,0,0,0-4-3.56A16,16,0,0,0,615.73,331.81Zm.11,34.27h-.69a14.37,14.37,0,0,1-4.76-1,7.6,7.6,0,0,1-3.78-3c-1.64-2.62-1.35-6.3-1.1-9.53.07-.81.13-1.58.16-2.3a36.86,36.86,0,0,0-.2-4.58c-.23-2.74-.47-5.57.45-8.31a7.29,7.29,0,0,1,3.83-4.43,16.23,16.23,0,0,1,5.94-1.35c3.9,0,7.76.53,9.73,4.38,1.27,3.12,1.29,6.46,1.31,9.71,0,1.21,0,2.46.09,3.69a6.24,6.24,0,0,0,.07,1.13c.23,3.5.49,7.57-1.14,10.84C623.7,365.48,618.56,366.08,615.84,366.08Z"/><path class="cls-4" d="M616.42,337c.72,4.13,7.47,3.05,6.5-1.13-.87-3.73-6.73-2.7-6.5,1.13"/><path class="cls-2" d="M619.63,339.82a3.82,3.82,0,0,1-1.26-.2,3.16,3.16,0,0,1-2.14-2.56v0a3.44,3.44,0,0,1,3.11-3.62,3.21,3.21,0,0,1,3.79,2.44,3,3,0,0,1-.88,3A3.94,3.94,0,0,1,619.63,339.82Zm-3-2.82a2.77,2.77,0,0,0,1.88,2.24,3.66,3.66,0,0,0,3.47-.65,2.63,2.63,0,0,0,.76-2.65,2.82,2.82,0,0,0-3.34-2.14A3.07,3.07,0,0,0,616.62,337Z"/><path class="cls-4" d="M608.36,337.7c.87,3.59,6.67,2.62,6.45-.94-.25-4.32-7.34-3.5-6.45.94"/><path class="cls-5" d="M608.46,337.71a3.22,3.22,0,0,0,6.28-.87,2.74,2.74,0,0,0-1.63-2.48,3.72,3.72,0,0,0-3.68.47A2.85,2.85,0,0,0,608.46,337.71Zm3,2.4a3.63,3.63,0,0,1-1.68-.41,3.07,3.07,0,0,1-1.55-2.4,3,3,0,0,1,1.09-2.64,3.91,3.91,0,0,1,3.87-.49,2.91,2.91,0,0,1,1.75,2.62,3.2,3.2,0,0,1-2.86,3.29h-.62Z"/><path class="cls-2" d="M611.42,340.21a3.83,3.83,0,0,1-1.72-.42,3.18,3.18,0,0,1-.47-5.21,4,4,0,0,1,4-.5,3,3,0,0,1,1.81,2.71,3.29,3.29,0,0,1-3,3.38,3.51,3.51,0,0,1-.56,0A.11.11,0,0,1,611.42,340.21Zm-3-2.39a3,3,0,0,0,1.41,1.79,3.42,3.42,0,0,0,.77.3A3.34,3.34,0,0,1,608.39,337.82Zm6.35-.28a3.32,3.32,0,0,1-2.1,2.31A3.11,3.11,0,0,0,614.74,337.54Zm-6.18.15a3.12,3.12,0,0,0,6.08-.86,2.66,2.66,0,0,0-1.57-2.38,3.61,3.61,0,0,0-3.58.46A2.74,2.74,0,0,0,608.56,337.69Zm3.09-3.72a3.79,3.79,0,0,0-2.3.77,3,3,0,0,0-1,1.89,2.91,2.91,0,0,1,1.06-1.87,3.79,3.79,0,0,1,3.42-.62A3.71,3.71,0,0,0,611.65,334Z"/><path class="cls-4" d="M617.22,342a10.23,10.23,0,0,1,0,1.75,1.1,1.1,0,0,1-.64.39.92.92,0,0,1-.72-.54,12.54,12.54,0,0,1,0-1.94Z"/><path class="cls-5" d="M616,343.5a.86.86,0,0,0,.62.49l.15-.06a.68.68,0,0,0,.4-.29,5,5,0,0,0,0-1.09,4.17,4.17,0,0,0,0-.5l-1.1-.33a2.17,2.17,0,0,1,0,.51,6.74,6.74,0,0,0,0,1.27Zm.64.7a1.06,1.06,0,0,1-.79-.63,7.39,7.39,0,0,1,0-1.33v-.78l1.48.45v.1a4.86,4.86,0,0,0,0,.54,4.66,4.66,0,0,1,0,1.18.8.8,0,0,1-.51.37l-.18.07Z"/><path class="cls-2" d="M616.64,344.29h0a1.15,1.15,0,0,1-.86-.68,0,0,0,0,0,0,0,7.5,7.5,0,0,1,0-1.34v-.78a.1.1,0,0,1,0-.08.1.1,0,0,1,.09,0l1.48.46a.1.1,0,0,1,.07.09v.1a4.68,4.68,0,0,0,0,.53,4.09,4.09,0,0,1,0,1.21v0a1,1,0,0,1-.58.42l-.11,0,0,0A.1.1,0,0,1,616.64,344.29Zm-.49-.73a.78.78,0,0,0,.46.33l.13-.05a.6.6,0,0,0,.33-.23,4.61,4.61,0,0,0,0-1.05,3.08,3.08,0,0,0,0-.43l-.89-.27a1.63,1.63,0,0,1,0,.38,6.53,6.53,0,0,0,0,1.25A.1.1,0,0,1,616.15,343.56Zm-.2-2v.66a7.75,7.75,0,0,0,0,1.18l0,0a6.76,6.76,0,0,1,0-1.19,2,2,0,0,0,0-.49.11.11,0,0,1,0-.09l0,0Z"/><path class="cls-5" d="M610.63,336.35a1.13,1.13,0,0,1,0,1.5.93.93,0,0,1-1.38,0,1.13,1.13,0,0,1,0-1.5.93.93,0,0,1,1.38,0"/><path class="cls-4" d="M610.55,337.15a.3.3,0,0,1,0,.38.21.21,0,0,1-.32,0,.3.3,0,0,1,0-.38.2.2,0,0,1,.32,0"/><path class="cls-5" d="M618.77,336.09a1.15,1.15,0,0,1,0,1.5.89.89,0,0,1-1.35,0,1.15,1.15,0,0,1,0-1.5.89.89,0,0,1,1.35,0"/><path class="cls-4" d="M618.68,336.88a.32.32,0,0,1,0,.39.21.21,0,0,1-.32,0,.32.32,0,0,1,0-.39.21.21,0,0,1,.32,0"/><path class="cls-4" d="M614.48,341.92c-.43,1,.24,3.09,1.39,1.58a12.71,12.71,0,0,1,0-1.95Z"/><path class="cls-2" d="M615.1,344.23a.68.68,0,0,1-.34-.09,2.09,2.09,0,0,1-.46-2.3.18.18,0,0,1,.13-.11l1.44-.37a.19.19,0,0,1,.18,0,.21.21,0,0,1,.07.18,12.16,12.16,0,0,0,0,1.91.22.22,0,0,1,0,.13C615.66,344.1,615.34,344.23,615.1,344.23Zm-.47-2.14c-.19.59,0,1.5.33,1.71s.53-.15.71-.37a10.8,10.8,0,0,1,0-1.61Z"/><path class="cls-5" d="M614.52,342a1.83,1.83,0,0,0,.36,1.87c.3.17.62-.12.88-.42a7,7,0,0,1,0-1.29,2,2,0,0,1,0-.49Zm.54,2.12a.53.53,0,0,1-.28-.07,2,2,0,0,1-.43-2.19l1.64-.42v.13a2.67,2.67,0,0,1,0,.63,7,7,0,0,0,0,1.29v.07A1.14,1.14,0,0,1,615.06,344.13Z"/><path class="cls-4" d="M614.61,339.94a1.24,1.24,0,0,0-.85.45,1.28,1.28,0,0,0-.28.92,1.26,1.26,0,0,0,.1.38c.55,1,1.75-.08,2.52,0s1.58.92,2.28.17-.33-1.64-1.2-2Z"/><path class="cls-2" d="M617.71,342.32a2.53,2.53,0,0,1-.92-.25,3.08,3.08,0,0,0-.71-.23,2.28,2.28,0,0,0-.87.2c-.6.21-1.34.47-1.76-.27a1.5,1.5,0,0,1-.12-.45,1.41,1.41,0,0,1,1.27-1.53h0l2.58-.11a.06.06,0,0,1,.06,0c.62.27,1.38.82,1.5,1.45a.89.89,0,0,1-.25.82A1,1,0,0,1,617.71,342.32Zm-1.7-.78h.11a4,4,0,0,1,.79.25c.51.22,1,.4,1.36,0a.62.62,0,0,0,.18-.56c-.1-.48-.73-1-1.3-1.22l-2.53.11a1.08,1.08,0,0,0-.74.4,1.06,1.06,0,0,0-.25.8,1,1,0,0,0,.09.34c.27.48.7.36,1.39.12A3.15,3.15,0,0,1,616,341.54Z"/><path class="cls-2" d="M616.13,341.61a2.49,2.49,0,0,1,.92.26c.49.21.88.37,1.28-.06a.75.75,0,0,0,.22-.67c-.11-.5-.8-1-1.37-1.2l-2.54.11a1.22,1.22,0,0,0-.94.64,1,1,0,0,0,0,1c.32.54.88.37,1.47.17A2.28,2.28,0,0,1,616.13,341.61Zm1.63.66a1.94,1.94,0,0,1-.79-.22,2.27,2.27,0,0,0-.88-.24,2,2,0,0,0-.87.2c-.63.21-1.32.44-1.71-.26a1.18,1.18,0,0,1,0-1.15,1.42,1.42,0,0,1,1.09-.74l2.63-.12c.64.27,1.38.77,1.51,1.35a1,1,0,0,1-.87,1.17Z"/><path class="cls-4" d="M614.48,339.9c-.06-1.36,2.56-1.54,2.86-.39S614.61,340.92,614.48,339.9Z"/><path class="cls-2" d="M615.73,340.68a2.47,2.47,0,0,1-.79-.12.82.82,0,0,1-.61-.64h0c0-.65.49-1.16,1.31-1.28s1.66.14,1.85.84a.73.73,0,0,1-.24.75A2.37,2.37,0,0,1,615.73,340.68Zm-1.1-.79c0,.21.24.32.41.39a2.32,2.32,0,0,0,2-.28.43.43,0,0,0,.16-.45c-.15-.54-.89-.72-1.51-.63S614.61,339.3,614.63,339.89Z"/><text class="cls-8" transform="translate(347.58 287.32)">fil<tspan class="cls-9" x="12.14" y="0">t</tspan><tspan x="17.34" y="0">er</tspan></text><text class="cls-8" transform="translate(347.58 287.32)">fil<tspan class="cls-9" x="12.14" y="0">t</tspan><tspan x="17.34" y="0">er</tspan></text><path class="cls-1" d="M590.19,124.89a5.25,5.25,0,0,1-2.23.45,3.68,3.68,0,0,1-3.86-4,3.94,3.94,0,0,1,4.17-4.12,4.76,4.76,0,0,1,2,.4l-.32,1.09a3.31,3.31,0,0,0-1.63-.37,2.92,2.92,0,0,0,0,5.83,3.94,3.94,0,0,0,1.73-.39Z"/><path class="cls-1" d="M598.75,121.24a3.79,3.79,0,0,1-3.86,4.12,3.68,3.68,0,0,1-3.71-4,3.78,3.78,0,0,1,3.84-4.11A3.67,3.67,0,0,1,598.75,121.24Zm-6.15.08c0,1.7,1,3,2.35,3s2.36-1.27,2.36-3c0-1.31-.66-3-2.32-3S592.6,119.85,592.6,121.32Z"/><path class="cls-1" d="M600.52,119.53c0-.8,0-1.46-.06-2.1h1.24l.08,1.28h0a2.85,2.85,0,0,1,2.56-1.45c1.07,0,2.74.64,2.74,3.29v4.63h-1.41v-4.47c0-1.25-.47-2.29-1.8-2.29a2,2,0,0,0-1.89,1.45,2.08,2.08,0,0,0-.09.65v4.66h-1.41Z"/><path class="cls-1" d="M609.21,123.74a3.68,3.68,0,0,0,1.85.56c1,0,1.51-.51,1.51-1.15s-.4-1-1.44-1.43c-1.39-.49-2-1.26-2-2.19a2.39,2.39,0,0,1,2.67-2.27,3.82,3.82,0,0,1,1.91.48l-.35,1a3.07,3.07,0,0,0-1.59-.45c-.83,0-1.3.48-1.3,1.06s.47.93,1.48,1.31c1.34.51,2,1.19,2,2.34,0,1.36-1.06,2.32-2.9,2.32a4.37,4.37,0,0,1-2.17-.53Z"/><path class="cls-1" d="M622.22,123.07c0,.8,0,1.5.06,2.11H621l-.08-1.27h0a2.9,2.9,0,0,1-2.56,1.45c-1.22,0-2.67-.68-2.67-3.4v-4.53h1.41v4.29c0,1.47.44,2.47,1.72,2.47a2,2,0,0,0,1.86-1.28,2.09,2.09,0,0,0,.13-.72v-4.76h1.41Z"/><path class="cls-1" d="M624.55,119.53c0-.8,0-1.46-.06-2.1h1.23l.06,1.25h.05a2.67,2.67,0,0,1,2.44-1.42,2.3,2.3,0,0,1,2.19,1.55h0a3.21,3.21,0,0,1,.86-1,2.68,2.68,0,0,1,1.72-.54c1,0,2.54.67,2.54,3.36v4.56h-1.37v-4.39c0-1.49-.55-2.38-1.68-2.38a1.82,1.82,0,0,0-1.67,1.28,2.45,2.45,0,0,0-.11.7v4.79H629.4v-4.64c0-1.24-.54-2.13-1.62-2.13a2.09,2.09,0,0,0-1.85,2.1v4.67h-1.38Z"/><path class="cls-1" d="M638.68,121.56a2.48,2.48,0,0,0,2.66,2.69,5.13,5.13,0,0,0,2.14-.4l.24,1a6.29,6.29,0,0,1-2.57.48,3.6,3.6,0,0,1-3.81-3.91c0-2.33,1.37-4.17,3.63-4.17,2.53,0,3.2,2.22,3.2,3.65a4.51,4.51,0,0,1,0,.65Zm4.13-1a2,2,0,0,0-1.95-2.29,2.33,2.33,0,0,0-2.16,2.29Z"/><path class="cls-1" d="M645.91,119.85c0-.91,0-1.7-.06-2.42h1.23l0,1.52h.06a2.32,2.32,0,0,1,2.15-1.69,1.64,1.64,0,0,1,.4,0v1.33a2.28,2.28,0,0,0-.48,0,2,2,0,0,0-1.89,1.81,4.31,4.31,0,0,0-.07.66v4.13h-1.39Z"/><path class="cls-1" d="M651,123.74a3.72,3.72,0,0,0,1.86.56c1,0,1.5-.51,1.5-1.15s-.4-1-1.44-1.43c-1.39-.49-2-1.26-2-2.19a2.39,2.39,0,0,1,2.68-2.27,3.81,3.81,0,0,1,1.9.48l-.35,1a3.07,3.07,0,0,0-1.59-.45c-.83,0-1.29.48-1.29,1.06s.46.93,1.47,1.31c1.35.51,2,1.19,2,2.34,0,1.36-1,2.32-2.89,2.32a4.42,4.42,0,0,1-2.18-.53Z"/><path class="cls-1" d="M171,22.94V16.26h-1.09V15.19H171v-.42a3.11,3.11,0,0,1,3.38-3.38,3.86,3.86,0,0,1,2,.52l-.4,1.07a3,3,0,0,0-1.63-.45c-1.49,0-1.93,1-1.93,2.27v.39h4.5v7.75h-1.39V16.26h-3.11v6.68Z"/><path class="cls-1" d="M179.19,11.57h1.4V22.94h-1.4Z"/><path class="cls-1" d="M184.66,13v2.23h2v1.07h-2v4.18c0,1,.27,1.5,1.05,1.5a3.58,3.58,0,0,0,.82-.09l.06,1a3.22,3.22,0,0,1-1.24.2,1.92,1.92,0,0,1-1.52-.6,2.84,2.84,0,0,1-.55-2V16.26h-1.2V15.19h1.2V13.33Z"/><path class="cls-1" d="M189,19.32A2.48,2.48,0,0,0,191.6,22a5.19,5.19,0,0,0,2.15-.4l.24,1a6.19,6.19,0,0,1-2.58.49,3.6,3.6,0,0,1-3.81-3.91c0-2.34,1.38-4.18,3.63-4.18,2.53,0,3.21,2.23,3.21,3.65,0,.29,0,.51-.05.66Zm4.13-1a2,2,0,0,0-2-2.29A2.33,2.33,0,0,0,189,18.31Z"/><path class="cls-1" d="M196.18,17.6c0-.91,0-1.69-.07-2.41h1.24l0,1.52h.07A2.32,2.32,0,0,1,199.6,15a1.56,1.56,0,0,1,.4.05v1.33a2.14,2.14,0,0,0-.48-.05,2,2,0,0,0-1.89,1.81,4.25,4.25,0,0,0-.06.66v4.13h-1.39Z"/></svg>