<svg id="Layer_1" data-name="Layer 1" xmlns="http://www.w3.org/2000/svg" xmlns:xlink="http://www.w3.org/1999/xlink" viewBox="0 0 758.26 246.73"><defs><style>.cls-1,.cls-11,.cls-33,.cls-34,.cls-35,.cls-36,.cls-37,.cls-38,.cls-39,.cls-40,.cls-41,.cls-42,.cls-43,.cls-44,.cls-45,.cls-46,.cls-8{fill:none;}.cls-2{fill:#c6bdd6;}.cls-3{fill:#fafafd;}.cls-4{isolation:isolate;}.cls-5{clip-path:url(#clip-path);}.cls-6{fill:#669;}.cls-12,.cls-7{fill:#fff;}.cls-8{stroke:#46348e;stroke-width:2.5px;}.cls-11,.cls-33,.cls-34,.cls-35,.cls-36,.cls-37,.cls-38,.cls-39,.cls-40,.cls-41,.cls-42,.cls-43,.cls-44,.cls-45,.cls-46,.cls-8{stroke-linecap:round;stroke-linejoin:round;}.cls-9{clip-path:url(#clip-path-2);}.cls-10{fill:#bcbec0;}.cls-11{stroke:#45328d;}.cls-11,.cls-33,.cls-34,.cls-35,.cls-36,.cls-37,.cls-38,.cls-39,.cls-40,.cls-41,.cls-42,.cls-43,.cls-44,.cls-45,.cls-46{stroke-width:3px;}.cls-12{stroke:#669;stroke-miterlimit:10;stroke-width:4px;}.cls-13{fill:#2bb673;}.cls-14{fill:#c4e5da;}.cls-15,.cls-28{fill:#39945f;}.cls-16{clip-path:url(#clip-path-3);}.cls-17{clip-path:url(#clip-path-4);}.cls-18{clip-path:url(#clip-path-5);}.cls-19{clip-path:url(#clip-path-6);}.cls-20{clip-path:url(#clip-path-7);}.cls-21{clip-path:url(#clip-path-8);}.cls-22{clip-path:url(#clip-path-9);}.cls-23{font-size:20.54px;fill:#45328d;}.cls-23,.cls-28{font-family:AvenirNext-Regular, Avenir Next;}.cls-24{letter-spacing:-0.01em;}.cls-25{letter-spacing:-0.01em;}.cls-26{letter-spacing:-0.02em;}.cls-27{letter-spacing:-0.01em;}.cls-28{font-size:21.06px;}.cls-29{letter-spacing:-0.01em;}.cls-30{letter-spacing:-0.01em;}.cls-31{letter-spacing:-0.02em;}.cls-32{letter-spacing:-0.01em;}.cls-33,.cls-34,.cls-35,.cls-36,.cls-37,.cls-38,.cls-39,.cls-40,.cls-41,.cls-42,.cls-43,.cls-44,.cls-45,.cls-46{stroke:#39b54a;}.cls-34{stroke-dasharray:0.96 7.67;}.cls-35{stroke-dasharray:1 8.03;}.cls-36{stroke-dasharray:0.94 7.54;}.cls-37{stroke-dasharray:1.02 8.14;}.cls-38{stroke-dasharray:1.09 8.74;}.cls-39{stroke-dasharray:1.05 8.42;}.cls-40{stroke-dasharray:0.98 7.85;}.cls-41{stroke-dasharray:0.97 7.76;}.cls-42{stroke-dasharray:1 7.99;}.cls-43{stroke-dasharray:0.91 7.31;}.cls-44{stroke-dasharray:0.92 7.34;}.cls-45{stroke-dasharray:0.92 7.34;}.cls-46{stroke-dasharray:0.87 6.99;}</style><clipPath id="clip-path" transform="translate(-24.26 -51.57)"><polygon class="cls-1" points="204.58 54.09 207.03 130.76 61.97 247.34 59.52 170.67 204.58 54.09"/></clipPath><clipPath id="clip-path-2" transform="translate(-24.26 -51.57)"><polygon class="cls-1" points="764.21 74.62 767.28 154.8 638.26 263.3 635.19 183.13 764.21 74.62"/></clipPath><clipPath id="clip-path-3" transform="translate(-24.26 -51.57)"><polygon class="cls-1" points="302.06 83.88 329.4 63.48 331.07 125.14 303.72 145.53 302.06 83.88"/></clipPath><clipPath id="clip-path-4" transform="translate(-24.26 -51.57)"><polygon class="cls-1" points="337.44 83.88 364.79 63.48 366.45 125.14 339.1 145.53 337.44 83.88"/></clipPath><clipPath id="clip-path-5" transform="translate(-24.26 -51.57)"><polygon class="cls-1" points="504.52 117.98 531.87 97.58 533.53 159.24 506.19 179.63 504.52 117.98"/></clipPath><clipPath id="clip-path-6" transform="translate(-24.26 -51.57)"><polygon class="cls-1" points="540.39 119.09 567.74 98.7 569.4 160.35 542.06 180.75 540.39 119.09"/></clipPath><clipPath id="clip-path-7" transform="translate(-24.26 -51.57)"><polygon class="cls-1" points="576.27 119.09 603.62 98.7 605.28 160.35 577.93 180.75 576.27 119.09"/></clipPath><clipPath id="clip-path-8" transform="translate(-24.26 -51.57)"><polygon class="cls-1" points="203.68 155.63 231.02 135.23 232.69 196.89 205.34 217.29 203.68 155.63"/></clipPath><clipPath id="clip-path-9" transform="translate(-24.26 -51.57)"><polygon class="cls-1" points="237.99 156.28 265.34 135.9 267 197.56 239.66 217.95 237.99 156.28"/></clipPath></defs><path class="cls-2" d="M205.31,51.57,207.87,132l-.39.32L61.24,249.86l-2.56-80.45.39-.31ZM62,247.34,207,130.76l-2.45-76.67L59.52,170.67,62,247.34" transform="translate(-24.26 -51.57)"/><polygon class="cls-3" points="180.32 2.52 182.77 79.19 37.71 195.77 35.26 119.1 180.32 2.52"/><g class="cls-4"><g class="cls-5"><path class="cls-6" d="M112.18,161.65c-1.94,1.61-3,4.56-2.91,7.92.13,3.6,1.32,3.63,3.2,2.56,2.25-1.31,2.45-.67,2.49.41a4.92,4.92,0,0,1-1.95,4.35c-1.81,1.49-2.24.74-2.45-1.35,0-.24-.1-.34-.21-.25l-.88.73a1,1,0,0,0-.19.66c.11,2.82.84,5.62,3.82,3.15,2.16-1.78,3.32-4.86,3.2-8.52s-1.15-3.7-3.27-2.64-2.37.9-2.41-.3a4.37,4.37,0,0,1,1.67-3.78c1.39-1.15,1.95-.84,2.24,1.27,0,.19.11.28.19.22l.89-.74.13-.28a1.46,1.46,0,0,0,0-.41c-.28-3.86-1.42-4.8-3.6-3m-2.33-12a2.71,2.71,0,0,0-.7,1l-6.45,15.19a9.09,9.09,0,0,0-.61,3.62l.69,19.09c0,1.24.36,2.18.82,2.43l1.88,1a1.34,1.34,0,0,0,1.61-.27c1.27-1.05,1.94-3.57,1.82-6.83L108.23,166c0-.29-.12-.41-.22-.33l-.87.72a1,1,0,0,0-.19.67l.68,18.86a4,4,0,0,1-.84,2.87.67.67,0,0,1-.73.13l-2-1.08c-.07,0-.11-.2-.12-.36l-.68-19.11a1.31,1.31,0,0,1,.08-.53l6.46-15.16a.39.39,0,0,1,.1-.14.11.11,0,0,1,.11,0l7.14,3.91c.07,0,.11.17.11.37l.69,19.1a1.14,1.14,0,0,1-.09.54l-6.45,15.2a.38.38,0,0,1-.09.14s-.08,0-.11,0l-1.83-1.08s-.08,0-.11,0a.14.14,0,0,0-.06.1,12.86,12.86,0,0,1-1,2c-.1.17-.27.47.09.65l2.38,1.4a.67.67,0,0,0,.73-.14,2.94,2.94,0,0,0,.7-1l6.46-15.2a9.15,9.15,0,0,0,.61-3.62l-.69-19.1c0-1.24-.36-2.18-.82-2.43l-7.15-3.94a.64.64,0,0,0-.73.16" transform="translate(-24.26 -51.57)"/><path class="cls-6" d="M139.9,163.93a.24.24,0,0,1-.11.06c-.29.09-.5-.44-.46-1.2a2.27,2.27,0,0,1,.48-1.44l.12-.06c.29-.09.49.44.46,1.2a2.35,2.35,0,0,1-.49,1.44M132,170.39c-.24.2-.47,0-.55-.59a3.06,3.06,0,0,1,.35-1.87.43.43,0,0,1,.11-.12c.24-.2.48.05.55.59a3,3,0,0,1-.35,1.86.5.5,0,0,1-.11.13m2.12-12.22-.11-2.91,1.69-1.39c.15-.13.83-.57,1.12,1.33.09.6.31,2.55.44,3.14s.6,1.81,1,1.45l2.66-2.2.1-.11c-.16.76-.34,1.51-.54,2.21l-1.15.32-.1.05a2.16,2.16,0,0,0-.45,1.36l-.15,3.24a10.93,10.93,0,0,1-2.67,3.65,3,3,0,0,1-2.81.81l-.36-2.81c-.07-.54-.29-.74-.53-.54a.45.45,0,0,0-.09.1l-1.07,1.48a10.06,10.06,0,0,1-.63-1.14l5.35-4.43a.25.25,0,0,0,.1-.23l-.17-4.6c0-.13,0-.12-.1-.07l-1.56,1.29m-.27-7.28-.1-3,2.2-1.82c.11-.09.81-.36.86.93a2.78,2.78,0,0,1-.92,2.21l-2,1.69M129.32,162a32.9,32.9,0,0,1-.41-4.17c0-.58,0-1.17,0-1.74l1.1-2.17a3,3,0,0,0,.19-1.78L129.9,151l.93-.77.37,10.16L129.32,162m12.32-18.25a.28.28,0,0,1-.22.08c-.27-.06-.42-.73-.32-1.5a2,2,0,0,1,.46-1.18.25.25,0,0,1,.22-.07c.27.05.43.72.32,1.49a1.89,1.89,0,0,1-.46,1.18M129,154.13c-.21.17-.41.05-.52-.38a3.26,3.26,0,0,1,.2-1.92.76.76,0,0,1,.2-.27c.2-.17.42-.05.52.36a3.37,3.37,0,0,1-.19,1.93,1.13,1.13,0,0,1-.21.28m6-14.95a1.22,1.22,0,0,0,.32-.61l.84-2.9c1.94-.72,3.67.84,4.76,4.05l-.5,3.95c-.1.67,0,1.28.3,1.35l1.26.31c0,.57.06,1.08.08,1.61s0,.79,0,1.19l-.67.55a.52.52,0,0,0-.08.36l0,.74a3.83,3.83,0,0,1-.69,2.87l-.1.09c-.31.25-.64.11-.7-.32-.3-2.59-.66-2.89-1.23-3.46a14.5,14.5,0,0,0,1.19-5.64c-.08-2.18-.75-3-1.19-3.35a1.2,1.2,0,0,0-1.45,0l-7,5.75a23.33,23.33,0,0,1,3.48-8.06l.9,1.41c.11.16.24.17.36.07m-.05-2c-.14.12-.28.1-.4-.08a2.69,2.69,0,0,1-.05-1.85,1.46,1.46,0,0,1,.36-.67.23.23,0,0,1,.39.07,2.77,2.77,0,0,1,.06,1.85,1.45,1.45,0,0,1-.36.68m-.21-6.47a.74.74,0,0,0-.2.48l-.4,2.21a1.51,1.51,0,0,1-.23.26l-.66-1.06c-.05-.08-.12-.11-.19-.06a.28.28,0,0,0-.06.08,1.07,1.07,0,0,0-.17.54l-.24,2.28c-.07.13-.14.21-.21.33l-.76-.66a.12.12,0,0,0-.15,0,.42.42,0,0,0-.11.14,1.62,1.62,0,0,0-.13.62l-.06,2.23c-.06.13-.13.26-.19.4l-.84-.22a.1.1,0,0,0-.1,0,.49.49,0,0,0-.15.25,1.66,1.66,0,0,0-.1.64l.1,2.12c-.05.17-.1.31-.15.47l-.87.22-.07,0a.63.63,0,0,0-.16.31,1.57,1.57,0,0,0-.05.64l.28,1.91-.12.51-.89.66a.9.9,0,0,0-.21.47,1.49,1.49,0,0,0,0,.63l.44,1.66c0,.18-.06.37-.08.58l-.86,1a1.37,1.37,0,0,0-.14,1.13l.58,1.32c0,.2,0,.37,0,.57l-.8,1.45a1.43,1.43,0,0,0-.15.6,1,1,0,0,0,.1.52l.71.89c0,.18,0,.38,0,.57l-.71,1.76a1.47,1.47,0,0,0-.11.63c0,.21.06.38.14.42l.8.5a4.55,4.55,0,0,1,0,.52l-.59,2a1.56,1.56,0,0,0,0,.64c0,.2.09.34.18.33l.86.08c0,.16.05.3.08.46l-.46,2.17a2,2,0,0,0,0,.64c0,.18.13.24.22.2l.88-.39c0,.13.07.26.12.42l-.3,2.26a1.18,1.18,0,0,0,.05.58c.06.15.15.18.24.1l.87-.8a2.52,2.52,0,0,0,.16.29l-.13,2.24a1,1,0,0,0,.08.53.11.11,0,0,0,.18,0,.27.27,0,0,0,.07-.08l.84-1.2c.06.08.12.12.18.2l0,2.17a.6.6,0,0,0,.13.45.11.11,0,0,0,.15,0,.34.34,0,0,0,.1-.13l.78-1.56a.48.48,0,0,0,.21.07l.21,2c0,.2.09.34.17.37a.17.17,0,0,0,.11,0,.52.52,0,0,0,.14-.24l.67-1.84a.55.55,0,0,0,.22,0l.39,1.75c0,.2.11.29.2.24l0,0a.75.75,0,0,0,.19-.35l.54-2.06c.08,0,.15-.09.22-.11l.53,1.45c.06.14.14.2.23.13a.87.87,0,0,0,.2-.49l.4-2.21c.07-.1.15-.16.21-.25l.66,1.07c.06.08.12.11.19.05a.22.22,0,0,0,.06-.07,1.11,1.11,0,0,0,.17-.55l.25-2.28c.07-.13.13-.21.2-.33l.76.65a.11.11,0,0,0,.16,0,.42.42,0,0,0,.1-.14,1.32,1.32,0,0,0,.13-.62l.06-2.22c.07-.14.13-.29.2-.41l.84.22a.09.09,0,0,0,.09,0,.59.59,0,0,0,.16-.24,1.71,1.71,0,0,0,.09-.64l-.1-2.13c0-.17.1-.31.15-.47l.87-.22a.09.09,0,0,0,.07,0,.85.85,0,0,0,.17-.32,1.7,1.7,0,0,0,0-.63l-.28-1.92c.05-.15.08-.34.13-.51l.88-.66a.89.89,0,0,0,.22-.47,1.67,1.67,0,0,0,0-.63l-.44-1.65a5.21,5.21,0,0,0,.09-.59l.85-1.05A1.13,1.13,0,0,0,144,154a1.24,1.24,0,0,0-.05-.6l-.58-1.31c0-.2,0-.37.05-.57l.8-1.45a1.21,1.21,0,0,0,.15-.6,1,1,0,0,0-.09-.52l-.7-.94c0-.19,0-.38,0-.54l.71-1.76a1.58,1.58,0,0,0,.1-.62.54.54,0,0,0-.15-.44l-.8-.51c0-.17,0-.36,0-.49l.59-2a1.45,1.45,0,0,0,0-.65c0-.2-.09-.34-.18-.32l-.86-.08c0-.16,0-.31-.08-.47l.46-2.17a1.72,1.72,0,0,0,0-.64c0-.18-.12-.24-.22-.19l-.88.38c0-.12-.07-.26-.11-.42l.29-2.26a1.19,1.19,0,0,0-.05-.58c-.06-.15-.15-.17-.23-.1l-.88.8a2.52,2.52,0,0,0-.16-.29l.13-2.24a.87.87,0,0,0-.08-.53c-.05-.08-.12-.09-.18,0a.19.19,0,0,0-.07.08l-.83,1.19c-.06-.08-.12-.12-.18-.2l-.05-2.17a.66.66,0,0,0-.14-.45.1.1,0,0,0-.15,0,.36.36,0,0,0-.1.13l-.78,1.56a.39.39,0,0,0-.2-.08l-.22-2c0-.2-.09-.34-.17-.37a.14.14,0,0,0-.1,0,.65.65,0,0,0-.15.23l-.67,1.85c-.08,0-.14,0-.22,0l-.39-1.76c0-.2-.11-.29-.2-.24l0,0a.67.67,0,0,0-.18.35l-.53,2a1,1,0,0,1-.23.11l-.53-1.44c-.05-.15-.13-.21-.22-.13" transform="translate(-24.26 -51.57)"/><path class="cls-6" d="M158.52,102.77s-.05,0-.07.09a.91.91,0,0,0-.07.5,21.19,21.19,0,0,1-.2,5.46,22.4,22.4,0,0,1-1.29,4.21,36,36,0,0,0-2.21,8.11c-.76,5.75,2.29,8.81,2.42,8.93h.1l.1-.18a1,1,0,0,0,0-.51,34,34,0,0,1-1.3-7.53,19.62,19.62,0,0,1,1.3-5.23,46.15,46.15,0,0,0,1.73-6.16,14.52,14.52,0,0,0-.4-7.64c0-.08-.08-.1-.13-.06" transform="translate(-24.26 -51.57)"/><path class="cls-6" d="M160.58,111a.1.1,0,0,0-.05.06c-.15.27-3.58,6.52-3.43,10.55a9.5,9.5,0,0,0,1,4.59,3.08,3.08,0,0,1,.34.85,15.62,15.62,0,0,1-.15,3.26.57.57,0,0,0,.05.42h.1l.09-.14a16.51,16.51,0,0,0,1-6.54,8.52,8.52,0,0,0-.62-2.24,4.92,4.92,0,0,1-.32-3.27,64.42,64.42,0,0,1,2-6.94,1,1,0,0,0,0-.53c0-.11-.09-.13-.15-.08" transform="translate(-24.26 -51.57)"/><path class="cls-6" d="M155.2,131.53c-.49.4-2.93,2.52-3.12,4.62a2.45,2.45,0,0,0,.13,1.2c.43,1,1.81.56,3.9-1.17.28-.23.58-.49.89-.77a17.11,17.11,0,0,0,4.52-6.75,1,1,0,0,0,0-.51c0-.1-.09-.12-.14-.08l-.05.05a27.41,27.41,0,0,1-4.85,5.11c-1.7,1.4-2.58,1.83-2.81,1.78a10.26,10.26,0,0,1,1.57-2.75.82.82,0,0,0,.11-.52c0-.19-.09-.28-.17-.21" transform="translate(-24.26 -51.57)"/><path class="cls-6" d="M163.16,124.3a6.71,6.71,0,0,0-1.34,2,1,1,0,0,0-.07.49c0,.16.1.23.17.17s1.47-1.19,1.67.72c.18,1.65-1.21,5.71-1.76,7.12a1,1,0,0,0,0,.53c0,.12.09.17.15.11l0,0c.14-.19,3.33-4.63,2.83-9-.31-2.65-1.07-2.64-1.64-2.16" transform="translate(-24.26 -51.57)"/><path class="cls-6" d="M154.69,137.52l0,0a4.7,4.7,0,0,0-1.07,2.85c.1,1.4,1.49,1,2.65.24a4.2,4.2,0,0,0,.53-.39,31,31,0,0,0,4.35-5.13.82.82,0,0,0,.11-.39.49.49,0,0,0-.08-.33l-.82-.7-.14.07a27.64,27.64,0,0,1-2,2.5,13.93,13.93,0,0,1-1.52,1.46c-1.18,1-2,1.28-2.09,1.12v-.11a1.6,1.6,0,0,1,.19-.53,1,1,0,0,0,.07-.55c0-.15-.09-.21-.16-.15" transform="translate(-24.26 -51.57)"/><path class="cls-6" d="M155.34,142.06a3.32,3.32,0,0,0-1,2.43,2.3,2.3,0,0,0,.19,1c.37.67,1.28.5,2.8-.53a5,5,0,0,0,.53-.41,14.28,14.28,0,0,0,3.21-4.21,1.06,1.06,0,0,0,.08-.4c0-.14,0-.26-.09-.29l-1-.65-.12.05s-.62.85-1.56,1.94a6.79,6.79,0,0,1-.66.63,4.77,4.77,0,0,1-2.22,1.2l0-.18a.92.92,0,0,0,.05-.49c0-.14-.09-.19-.16-.13" transform="translate(-24.26 -51.57)"/><path class="cls-6" d="M153.89,146.63s0,0,0,0l-.17.18c-1.24,1.21-2.65,2.8-2.67,4.41a2.27,2.27,0,0,0,.22,1.14c.36.64,1.37,1.05,5.84-2.65s6.68-7.48,7.09-9a3.55,3.55,0,0,0,.13-1.22c-.06-.61-.32-.81-.35-.82s-.06,0-.09,0a.54.54,0,0,0-.11.24.76.76,0,0,0,0,.5.67.67,0,0,1,0,.45,24.2,24.2,0,0,1-5,6.22c-.42.4-.85.78-1.3,1.16-2.73,2.25-4.75,3-5,2.68a9.15,9.15,0,0,1,1.51-2.52.9.9,0,0,0,.11-.54c0-.18-.09-.26-.17-.2" transform="translate(-24.26 -51.57)"/><path class="cls-6" d="M165,140.32a.56.56,0,0,0-.11.22,16.34,16.34,0,0,1-2.56,4.88,27.74,27.74,0,0,1-4.21,4.06c-2.06,1.7-4,3.12-4.05,3.13h0a.81.81,0,0,0-.14.46c0,.2.06.35.14.33a14,14,0,0,0,4.91-2.86,25.91,25.91,0,0,0,3.87-4,10.68,10.68,0,0,0,2.33-5.92c0-.18,0-.31-.11-.33l-.06,0" transform="translate(-24.26 -51.57)"/><path class="cls-6" d="M85.32,179.72c-.21.17-.4-.11-.41-.61a1.73,1.73,0,0,1,.34-1.22c.21-.17.39.09.41.6a1.79,1.79,0,0,1-.34,1.23m2.1-8.54-.64.54c-1.68,1.38-2.92,5.81-2.78,9.9,0,.61.25.94.5.73L87.38,180l.06,1.78L83,185.42c-1.68,1.39-2.92,5.82-2.77,9.9l.06,1.57c.14,4.08,1.63,6.26,3.3,4.88l.58-.48a2.16,2.16,0,0,0,.41-1.48l-.18-5.05a2.14,2.14,0,0,1,.42-1.48l5.88-4.87a2.18,2.18,0,0,0,.42-1.48l-.39-10.87c-.15-4.09-1.63-6.27-3.31-4.88" transform="translate(-24.26 -51.57)"/><path class="cls-6" d="M91.08,204.76c-.21.17-.39-.1-.41-.61a1.8,1.8,0,0,1,.34-1.22c.21-.17.39.1.41.6a1.83,1.83,0,0,1-.34,1.23m1.66-23.88-.58.47a2.18,2.18,0,0,0-.42,1.48l.19,5.06a2.18,2.18,0,0,1-.42,1.48l-5.89,4.87a2.12,2.12,0,0,0-.41,1.47l.39,10.87c.15,4.1,1.63,6.27,3.31,4.88l.64-.53c1.68-1.39,2.92-5.82,2.77-9.91,0-.6-.24-.93-.49-.73L89,202.68l-.06-1.78,4.43-3.67c1.68-1.39,2.92-5.83,2.78-9.91L96,185.76c-.15-4.09-1.62-6.27-3.3-4.88" transform="translate(-24.26 -51.57)"/><path class="cls-6" d="M181.64,92.24c1.89,4.14,2.79,10.18,2.41,16.58,0,.52-.08,1.16-.14,1.7a1.58,1.58,0,0,1-.33-.22s-4-2.58-8.46-9.23h0a72.22,72.22,0,0,0,5.32,10.64,32.87,32.87,0,0,1-7.29-6.94,15,15,0,0,0,1.06,2.37c2,4.14,4.61,9.07,7.63,12a13.39,13.39,0,0,1-3.48,5.24,4.4,4.4,0,0,1-4.14,1.06,5.07,5.07,0,0,1-2.07-1.23c1.34,3.51,3.34,6.1,5.61,6.48a4.55,4.55,0,0,0,3.89-1.15,13.13,13.13,0,0,0,3.34-4.83l0,0a3.52,3.52,0,0,0,.22-.59,7.45,7.45,0,0,1,1.62-2.41c.78-.65,1.62-.52,2.28,1.66,0,.1.06.13.08.11.27-.22.33-6-1.61-9.78,0-.22,0-.41.07-.63.61-9.76-2-18.42-6.05-20.77" transform="translate(-24.26 -51.57)"/></g></g><g class="cls-4"><path class="cls-2" d="M219.87,136,763,145.47,616.51,263.86l-543.1-9.48Zm395.26,127.4L760.5,145.88l-539.25-9.41L75.88,254l539.25,9.42" transform="translate(-24.26 -51.57)"/><polygon class="cls-7" points="736.24 94.31 590.87 211.81 51.62 202.4 196.99 84.89 736.24 94.31"/></g><path class="cls-8" d="M-57.52,185.54" transform="translate(-24.26 -51.57)"/><path class="cls-2" d="M764.92,72.08,768.14,156l-.39.33L637.55,265.84l-3.22-83.93.39-.33ZM638.26,263.3l129-108.5-3.07-80.18-129,108.51,3.07,80.17" transform="translate(-24.26 -51.57)"/><polygon class="cls-7" points="739.95 23.04 743.02 103.23 614 211.73 610.93 131.55 739.95 23.04"/><g class="cls-4"><g class="cls-9"><path class="cls-6" d="M681,179.14c-1.86,1.58-2.89,4.52-2.75,7.87.14,3.59,1.29,3.65,3.08,2.6,2.15-1.28,2.34-.63,2.39.44a4.89,4.89,0,0,1-1.85,4.32c-1.72,1.47-2.14.7-2.35-1.38,0-.25-.1-.34-.2-.26l-.84.72a1,1,0,0,0-.18.66c.11,2.81.83,5.62,3.68,3.2,2.06-1.76,3.15-4.82,3-8.47s-1.13-3.71-3.15-2.67-2.27.86-2.32-.34a4.4,4.4,0,0,1,1.58-3.75c1.33-1.13,1.87-.81,2.16,1.3,0,.18.11.28.19.21l.85-.72.12-.28a1.93,1.93,0,0,0,0-.41c-.29-3.85-1.38-4.81-3.46-3m-2.31-12a2.77,2.77,0,0,0-.66,1L672,183.19a9.18,9.18,0,0,0-.56,3.6l.77,19.07c.05,1.25.35,2.19.8,2.45l1.81,1a1.23,1.23,0,0,0,1.54-.24c1.21-1,1.84-3.54,1.71-6.8l-.76-18.84c0-.28-.12-.41-.21-.33l-.83.7a1,1,0,0,0-.18.67l.76,18.84a4.14,4.14,0,0,1-.79,2.86.65.65,0,0,1-.71.12l-1.88-1.1c-.06,0-.11-.2-.11-.37l-.77-19.09a1.34,1.34,0,0,1,.08-.53l6.11-15a.27.27,0,0,1,.09-.15s.07,0,.1,0l6.87,4c.08,0,.11.16.12.36l.77,19.09a1.41,1.41,0,0,1-.08.53l-6.11,15.09a.28.28,0,0,1-.09.14.1.1,0,0,1-.1,0l-1.76-1.11s-.08,0-.11,0a.29.29,0,0,0-.06.1,11.19,11.19,0,0,1-.93,1.95c-.09.17-.24.47.1.65l2.29,1.43a.61.61,0,0,0,.7-.13,2.86,2.86,0,0,0,.67-.95l6.11-15.09a9.42,9.42,0,0,0,.56-3.61l-.77-19.07c-.05-1.25-.36-2.18-.8-2.44l-6.88-4a.61.61,0,0,0-.7.14" transform="translate(-24.26 -51.57)"/><path class="cls-6" d="M707.63,181.78a.21.21,0,0,1-.1.06c-.28.09-.48-.44-.45-1.2a2.29,2.29,0,0,1,.45-1.43l.11-.06c.29-.08.48.45.45,1.2a2.3,2.3,0,0,1-.46,1.43m-7.52,6.35c-.23.19-.45-.06-.53-.6a3,3,0,0,1,.32-1.85.65.65,0,0,1,.11-.12c.23-.21.46.05.53.59a3.09,3.09,0,0,1-.32,1.86.65.65,0,0,1-.11.12m2-12.17-.11-2.91,1.6-1.36c.15-.13.8-.56,1.09,1.34.09.6.32,2.55.44,3.14s.58,1.81,1,1.46l2.55-2.16.09-.11c-.15.76-.32,1.5-.5,2.2l-1.11.3a.24.24,0,0,0-.09.06,2.1,2.1,0,0,0-.43,1.34l-.13,3.23a10.52,10.52,0,0,1-2.53,3.62,2.81,2.81,0,0,1-2.69.77l-.37-2.81c-.07-.54-.28-.74-.5-.55a.45.45,0,0,0-.09.1l-1,1.46a8.23,8.23,0,0,1-.61-1.15l5.11-4.35a.26.26,0,0,0,.09-.23l-.19-4.59c0-.13,0-.12-.1-.07L702.07,176m-.29-7.28-.12-3,2.1-1.79c.11-.09.78-.34.83.94a2.74,2.74,0,0,1-.87,2.19l-1.94,1.66m-4.31,11a33.08,33.08,0,0,1-.41-4.17c0-.59,0-1.17,0-1.74l1.05-2.15a3.13,3.13,0,0,0,.18-1.77l-.28-1.09.89-.76.41,10.15-1.8,1.53m11.72-18.06a.26.26,0,0,1-.21.07c-.26-.06-.41-.73-.32-1.49a2,2,0,0,1,.44-1.18.26.26,0,0,1,.21-.07c.26.06.41.73.31,1.49a2,2,0,0,1-.43,1.18M697.1,171.85c-.19.17-.39.05-.5-.38a3.33,3.33,0,0,1,.18-1.92,1,1,0,0,1,.19-.27c.2-.16.4,0,.51.38a3.3,3.3,0,0,1-.18,1.91.81.81,0,0,1-.2.28M702.74,157a1.22,1.22,0,0,0,.3-.6l.79-2.88c1.86-.7,3.53.89,4.59,4.1l-.46,3.94c-.09.67,0,1.28.3,1.35l1.2.33c0,.57.07,1.08.09,1.6s0,.8,0,1.2l-.64.54a.63.63,0,0,0-.07.36l0,.73c.07,1.77-.31,2.48-.64,2.86l-.09.09c-.3.25-.62.1-.68-.32-.31-2.6-.65-2.91-1.2-3.48a14.73,14.73,0,0,0,1.11-5.62c-.09-2.18-.73-3-1.16-3.35a1.1,1.1,0,0,0-1.39,0l-6.63,5.64a23.25,23.25,0,0,1,3.29-8l.87,1.42c.1.16.23.18.35.07m-.07-2c-.13.12-.27.1-.37-.08a2.69,2.69,0,0,1-.06-1.85,1.37,1.37,0,0,1,.34-.67.22.22,0,0,1,.37.08,2.89,2.89,0,0,1,.07,1.85,1.37,1.37,0,0,1-.35.67m-.23-6.47a.8.8,0,0,0-.2.48l-.37,2.21a1.84,1.84,0,0,1-.21.25l-.64-1.07c0-.08-.11-.11-.18-.06a.28.28,0,0,0-.06.08,1.08,1.08,0,0,0-.16.54l-.22,2.27c-.07.13-.13.21-.2.33l-.73-.67a.11.11,0,0,0-.15,0,.48.48,0,0,0-.09.13,1.71,1.71,0,0,0-.13.62l-.05,2.22a3.52,3.52,0,0,1-.18.4l-.8-.23a.1.1,0,0,0-.1,0,.58.58,0,0,0-.14.24,1.74,1.74,0,0,0-.09.65l.11,2.12c-.05.17-.1.3-.14.46l-.84.21-.06,0a.63.63,0,0,0-.16.31,1.55,1.55,0,0,0,0,.64l.28,1.9c0,.16-.07.35-.12.52l-.84.65a.82.82,0,0,0-.2.46,1.34,1.34,0,0,0,0,.63l.42,1.66a4.85,4.85,0,0,0-.07.58l-.82,1a1.26,1.26,0,0,0-.18.53,1.51,1.51,0,0,0,0,.59l.56,1.33c0,.2,0,.37,0,.57l-.77,1.43a1.43,1.43,0,0,0-.14.6,1,1,0,0,0,.1.52l.68.9c0,.18,0,.38,0,.57l-.68,1.75a2.06,2.06,0,0,0-.1.62c0,.22.07.39.15.42l.76.51c0,.17,0,.35.05.53l-.56,2a1.75,1.75,0,0,0,0,.64c0,.2.09.34.18.33l.82.1c0,.15.06.3.09.45l-.43,2.17a2,2,0,0,0,0,.64c0,.18.13.23.21.2l.84-.38c0,.13.07.26.12.42l-.27,2.25a1.23,1.23,0,0,0,.05.59c0,.15.14.17.23.1l.83-.79c.06.11.1.22.15.29l-.11,2.24a1,1,0,0,0,.09.53.1.1,0,0,0,.17,0l.06-.08.8-1.18c.05.07.12.12.17.19l.06,2.17c0,.21.05.4.13.45a.09.09,0,0,0,.15,0,.36.36,0,0,0,.09-.13l.74-1.54a.48.48,0,0,0,.2.07l.22,2c0,.2.08.34.16.38a.14.14,0,0,0,.1,0,.66.66,0,0,0,.14-.24l.63-1.83a.49.49,0,0,0,.21,0l.39,1.76c0,.19.1.29.19.24l0,0a.67.67,0,0,0,.17-.35l.52-2.05a1.24,1.24,0,0,1,.2-.1L704,192c.06.15.14.21.22.14a.87.87,0,0,0,.19-.48l.37-2.21c.07-.1.15-.16.2-.24l.64,1.07c0,.08.12.11.18.06a.28.28,0,0,0,.06-.08,1,1,0,0,0,.16-.54l.22-2.27c.07-.14.13-.21.2-.33l.73.66a.11.11,0,0,0,.15,0,.49.49,0,0,0,.1-.13,1.52,1.52,0,0,0,.12-.62l0-2.22a3.89,3.89,0,0,1,.18-.41l.81.24a.09.09,0,0,0,.09,0,.68.68,0,0,0,.15-.25,1.85,1.85,0,0,0,.08-.63l-.11-2.13c0-.17.1-.3.14-.46l.84-.21.07,0a.63.63,0,0,0,.15-.31,1.52,1.52,0,0,0,0-.63l-.27-1.92c0-.15.07-.34.11-.51l.84-.64a.83.83,0,0,0,.21-.48,1.61,1.61,0,0,0,0-.62l-.43-1.66c0-.19.06-.37.08-.58l.81-1a1.26,1.26,0,0,0,.18-.53,1.21,1.21,0,0,0,0-.59l-.56-1.32c0-.2,0-.37,0-.57l.76-1.44a1.43,1.43,0,0,0,.14-.6,1,1,0,0,0-.1-.52l-.67-.95v-.53l.68-1.75a1.58,1.58,0,0,0,.1-.62c0-.21-.08-.4-.16-.43l-.76-.53c0-.17,0-.36-.05-.49l.56-2a1.77,1.77,0,0,0,0-.64c0-.21-.09-.34-.18-.33l-.82-.08c0-.17,0-.32-.08-.48l.42-2.16a1.66,1.66,0,0,0,0-.63c0-.19-.12-.25-.21-.21l-.84.38c0-.13-.07-.26-.12-.42l.27-2.25a1.23,1.23,0,0,0-.05-.59c0-.14-.14-.17-.22-.1l-.84.79c-.06-.11-.1-.21-.15-.29l.11-2.24a.86.86,0,0,0-.09-.53.1.1,0,0,0-.17,0l-.06.08-.79,1.18a1.63,1.63,0,0,1-.17-.2l-.07-2.16a.59.59,0,0,0-.13-.45.09.09,0,0,0-.15,0,.36.36,0,0,0-.09.13l-.74,1.54a.43.43,0,0,0-.2-.07l-.21-2c0-.2-.09-.34-.17-.37a.1.1,0,0,0-.1,0,.53.53,0,0,0-.13.23l-.64,1.84a1.49,1.49,0,0,1-.21,0l-.38-1.76c0-.19-.11-.29-.2-.24l-.05,0a.67.67,0,0,0-.17.34l-.49,2a.51.51,0,0,1-.22.11l-.52-1.45c0-.14-.13-.2-.21-.13" transform="translate(-24.26 -51.57)"/><path class="cls-6" d="M725.14,121l-.06.09a1,1,0,0,0-.07.5,21.77,21.77,0,0,1-.15,5.45,23.84,23.84,0,0,1-1.21,4.19,35.92,35.92,0,0,0-2.08,8.07c-.7,5.72,2.25,8.82,2.37,9h.1l.09-.17a1,1,0,0,0,0-.51,34.42,34.42,0,0,1-1.29-7.54,19.45,19.45,0,0,1,1.22-5.2,47.7,47.7,0,0,0,1.62-6.13,15,15,0,0,0-.43-7.63c0-.09-.08-.11-.13-.07" transform="translate(-24.26 -51.57)"/><path class="cls-6" d="M727.17,129.24a.18.18,0,0,0,0,.07c-.14.26-3.39,6.46-3.23,10.48a9.72,9.72,0,0,0,1,4.6,3.22,3.22,0,0,1,.32.85,15,15,0,0,1-.12,3.26.57.57,0,0,0,0,.42l.1,0,.09-.15a16.9,16.9,0,0,0,.95-6.52,8.42,8.42,0,0,0-.61-2.24,5.17,5.17,0,0,1-.32-3.26,61.4,61.4,0,0,1,1.92-6.91,1,1,0,0,0,0-.53c0-.11-.09-.13-.14-.09" transform="translate(-24.26 -51.57)"/><path class="cls-6" d="M722.12,149.63c-.46.4-2.79,2.48-3,4.58a2.59,2.59,0,0,0,.13,1.2c.41,1,1.74.58,3.74-1.11l.84-.76a16.65,16.65,0,0,0,4.3-6.69,1,1,0,0,0,0-.5c0-.1-.09-.13-.14-.09l0,.05a26.28,26.28,0,0,1-4.63,5c-1.63,1.38-2.47,1.79-2.68,1.74a10.21,10.21,0,0,1,1.48-2.72.84.84,0,0,0,.11-.52c0-.19-.09-.28-.17-.22" transform="translate(-24.26 -51.57)"/><path class="cls-6" d="M729.72,142.52a6.52,6.52,0,0,0-1.27,2,1,1,0,0,0-.07.49c0,.16.09.23.16.17s1.41-1.17,1.62.74c.17,1.65-1.14,5.68-1.66,7.09a1.07,1.07,0,0,0,0,.53c0,.12.08.17.15.11l0,0c.13-.19,3.17-4.58,2.66-8.91-.31-2.65-1-2.64-1.58-2.18" transform="translate(-24.26 -51.57)"/><path class="cls-6" d="M721.67,155.61l0,0a4.76,4.76,0,0,0-1,2.83c.1,1.4,1.44,1,2.55.27a4.42,4.42,0,0,0,.5-.38,30.12,30.12,0,0,0,4.15-5.06,1,1,0,0,0,.1-.39.51.51,0,0,0-.08-.33l-.8-.7-.13.06a24.8,24.8,0,0,1-1.88,2.47,13.14,13.14,0,0,1-1.45,1.44c-1.13,1-1.88,1.25-2,1.09v-.11a1.58,1.58,0,0,1,.18-.53,1,1,0,0,0,.07-.55c0-.15-.09-.2-.16-.15" transform="translate(-24.26 -51.57)"/><path class="cls-6" d="M722.31,160.15a3.43,3.43,0,0,0-1,2.42,2.38,2.38,0,0,0,.2,1c.35.68,1.23.52,2.67-.49a6,6,0,0,0,.52-.4,14,14,0,0,0,3-4.16,1,1,0,0,0,.07-.4c0-.14,0-.26-.08-.29l-1-.66-.12.05s-.59.83-1.48,1.91a5.31,5.31,0,0,1-.63.62,4.33,4.33,0,0,1-2.12,1.17l0-.18a1,1,0,0,0,.05-.49c0-.14-.1-.19-.17-.13" transform="translate(-24.26 -51.57)"/><path class="cls-6" d="M721,164.7v0l-.17.18c-1.18,1.18-2.52,2.76-2.54,4.36a2.51,2.51,0,0,0,.22,1.14c.36.64,1.33,1.07,5.59-2.56s6.37-7.38,6.75-9a3.7,3.7,0,0,0,.12-1.21c-.06-.61-.31-.82-.34-.83a.08.08,0,0,0-.09,0,.45.45,0,0,0-.1.24.73.73,0,0,0,0,.49.79.79,0,0,1,0,.46,23.6,23.6,0,0,1-4.75,6.14c-.4.4-.81.77-1.24,1.14-2.6,2.21-4.54,2.94-4.81,2.61a9.22,9.22,0,0,1,1.43-2.49.94.94,0,0,0,.11-.55c0-.17-.09-.25-.17-.19" transform="translate(-24.26 -51.57)"/><path class="cls-6" d="M731.57,158.55a.32.32,0,0,0-.11.22A16.26,16.26,0,0,1,729,163.6a27.17,27.17,0,0,1-4,4c-2,1.67-3.84,3.06-3.86,3.07h0a.66.66,0,0,0-.14.46c0,.2.06.35.13.33a12.9,12.9,0,0,0,4.7-2.79,25.5,25.5,0,0,0,3.69-3.94,10.78,10.78,0,0,0,2.2-5.89c0-.17,0-.3-.11-.33l0,0" transform="translate(-24.26 -51.57)"/><path class="cls-6" d="M655.37,196.82c-.2.17-.38-.1-.4-.6a1.78,1.78,0,0,1,.33-1.22c.2-.17.37.09.39.6a1.8,1.8,0,0,1-.32,1.22m2-8.49-.62.52c-1.6,1.37-2.77,5.77-2.6,9.86,0,.6.24.94.48.73l2.75-2.34.07,1.78-4.24,3.61c-1.6,1.36-2.77,5.77-2.6,9.85l.06,1.56c.17,4.08,1.6,6.28,3.2,4.92l.55-.47a2.21,2.21,0,0,0,.39-1.47l-.2-5a2.2,2.2,0,0,1,.38-1.47l5.62-4.78a2.17,2.17,0,0,0,.39-1.48l-.43-10.86c-.17-4.09-1.6-6.27-3.2-4.91" transform="translate(-24.26 -51.57)"/><path class="cls-6" d="M661,221.9c-.19.17-.37-.1-.39-.61a1.83,1.83,0,0,1,.32-1.21c.2-.17.38.11.4.6a1.78,1.78,0,0,1-.33,1.22m1.46-23.82-.55.47a2.19,2.19,0,0,0-.39,1.47l.2,5a2.14,2.14,0,0,1-.39,1.47l-5.62,4.79a2.16,2.16,0,0,0-.38,1.47l.43,10.86c.17,4.09,1.6,6.27,3.2,4.91l.62-.52c1.6-1.37,2.76-5.78,2.6-9.86,0-.6-.24-.93-.48-.73L659,219.8l-.07-1.78,4.24-3.61c1.6-1.36,2.76-5.77,2.6-9.85l-.06-1.56c-.17-4.08-1.6-6.29-3.2-4.92" transform="translate(-24.26 -51.57)"/><path class="cls-6" d="M747.26,110.75c1.84,4.16,2.74,10.21,2.41,16.6,0,.51-.07,1.15-.12,1.68a1.26,1.26,0,0,1-.32-.21s-3.87-2.63-8.17-9.33h0a74.69,74.69,0,0,0,5.16,10.7,32.82,32.82,0,0,1-7-7,16.08,16.08,0,0,0,1,2.39c1.95,4.16,4.47,9.11,7.38,12a13.09,13.09,0,0,1-3.3,5.19,4.11,4.11,0,0,1-4,1,5,5,0,0,1-2-1.26c1.31,3.52,3.24,6.14,5.42,6.55a4.17,4.17,0,0,0,3.72-1.1,12.64,12.64,0,0,0,3.18-4.78l0,0a3.51,3.51,0,0,0,.2-.58,7.27,7.27,0,0,1,1.55-2.39c.74-.63,1.55-.49,2.19,1.68,0,.11.06.14.08.12.26-.21.28-6-1.6-9.78,0-.23,0-.42.06-.64.53-9.74-2-18.41-5.92-20.82" transform="translate(-24.26 -51.57)"/></g></g><g id="stream2"><g class="cls-4"><polygon class="cls-10" points="178.99 178.46 311.34 180.77 311.38 181.74 179.03 179.43 178.99 178.46"/><polygon class="cls-10" points="311.03 180.82 311.07 181.79 179.21 179.49 179.16 178.52 311.03 180.82"/><polygon class="cls-10" points="156.38 196.73 178.99 178.46 179.03 179.43 156.43 197.7 156.38 196.73"/><polygon class="cls-10" points="179.16 178.52 179.21 179.49 156.74 197.65 156.7 196.68 179.16 178.52"/><polygon class="cls-10" points="156.7 196.68 288.56 198.98 288.61 199.95 156.74 197.65 156.7 196.68"/><polygon class="cls-10" points="288.56 198.98 311.03 180.82 311.07 181.79 288.61 199.95 288.56 198.98"/><polygon class="cls-10" points="288.74 199.04 288.78 200.01 156.43 197.7 156.38 196.73 288.74 199.04"/><polygon class="cls-10" points="311.34 180.77 311.38 181.74 288.78 200.01 288.74 199.04 311.34 180.77"/></g><g class="cls-4"><polygon class="cls-6" points="195.49 175.51 195.67 179.42 179.95 179.14 179.77 175.24 195.49 175.51"/><polygon class="cls-6" points="179.77 175.24 179.95 179.14 158.44 196.53 158.26 192.63 179.77 175.24"/><polygon class="cls-2" points="173.98 192.9 174.16 196.8 158.44 196.53 158.26 192.63 173.98 192.9"/><path class="cls-6" d="M203.85,226.76l16.21.28-21.64,17.5-16.21-.29Zm-5.61,17.72,21.51-17.39L204,226.81,182.52,244.2l15.72.28" transform="translate(-24.26 -51.57)"/><polygon class="cls-2" points="195.49 175.51 173.98 192.9 158.26 192.63 179.77 175.24 195.49 175.51"/><polygon class="cls-6" points="174.16 192.96 174.34 196.86 158.13 196.58 157.95 192.68 174.16 192.96"/><polygon class="cls-2" points="195.49 175.51 195.67 179.42 174.16 196.8 173.98 192.9 195.49 175.51"/><polygon class="cls-6" points="195.8 175.47 195.98 179.37 174.34 196.86 174.16 192.96 195.8 175.47"/></g><g class="cls-4"><polygon class="cls-6" points="213.42 176.14 213.6 180.04 199.07 179.79 198.89 175.89 213.42 176.14"/><polygon class="cls-6" points="198.89 175.89 199.07 179.79 177.91 196.9 177.73 193 198.89 175.89"/><polygon class="cls-2" points="192.25 193.25 192.43 197.15 177.91 196.9 177.73 193 192.25 193.25"/><polygon class="cls-2" points="213.42 176.14 213.6 180.04 192.43 197.15 192.25 193.25 213.42 176.14"/><path class="cls-6" d="M222.12,227.11l17.41.3-22,17.77-17.42-.3Zm-5.61,17.72,21.17-17.11-14.53-.26L202,244.57l14.52.26" transform="translate(-24.26 -51.57)"/><polygon class="cls-2" points="213.42 176.14 192.25 193.25 177.73 193 198.89 175.89 213.42 176.14"/><polygon class="cls-6" points="193.28 193.61 193.47 197.51 176.05 197.21 175.87 193.31 193.28 193.61"/><polygon class="cls-6" points="215.27 175.84 215.45 179.74 193.47 197.51 193.28 193.61 215.27 175.84"/></g><g class="cls-4"><polygon class="cls-6" points="233.1 176.02 233.28 179.92 217.56 179.65 217.38 175.74 233.1 176.02"/><polygon class="cls-6" points="217.38 175.74 217.56 179.65 196.05 197.03 195.87 193.13 217.38 175.74"/><polygon class="cls-2" points="211.59 193.41 211.78 197.31 196.05 197.03 195.87 193.13 211.59 193.41"/><path class="cls-6" d="M241.46,227.26l16.21.28L236,245l-16.21-.28ZM235.86,245l21.51-17.39-15.73-.27L220.13,244.7l15.73.28" transform="translate(-24.26 -51.57)"/><polygon class="cls-2" points="233.1 176.02 211.59 193.41 195.87 193.13 217.38 175.74 233.1 176.02"/><polygon class="cls-6" points="211.77 193.47 211.95 197.37 195.74 197.08 195.56 193.18 211.77 193.47"/><polygon class="cls-2" points="233.1 176.02 233.28 179.92 211.78 197.31 211.59 193.41 233.1 176.02"/><polygon class="cls-6" points="233.41 175.97 233.59 179.87 211.95 197.37 211.77 193.47 233.41 175.97"/></g><g class="cls-4"><polygon class="cls-6" points="252.06 176.53 252.25 180.43 236.52 180.15 236.34 176.25 252.06 176.53"/><polygon class="cls-6" points="236.34 176.25 236.52 180.15 215.01 197.54 214.83 193.63 236.34 176.25"/><polygon class="cls-2" points="230.56 193.91 230.74 197.81 215.01 197.54 214.83 193.63 230.56 193.91"/><polygon class="cls-2" points="252.06 176.53 230.56 193.91 214.83 193.63 236.34 176.25 252.06 176.53"/><polygon class="cls-6" points="230.73 193.97 230.91 197.87 214.7 197.59 214.52 193.69 230.73 193.97"/><path class="cls-6" d="M260.43,227.76l16.21.29L255,245.54l-16.21-.28Zm-5.61,17.72,21.51-17.38-15.73-.28-21.51,17.39,15.73.27" transform="translate(-24.26 -51.57)"/><polygon class="cls-2" points="252.06 176.53 252.25 180.43 230.74 197.81 230.56 193.91 252.06 176.53"/><polygon class="cls-6" points="252.38 176.47 252.56 180.38 230.91 197.87 230.73 193.97 252.38 176.47"/></g><g class="cls-4"><polygon class="cls-6" points="310.19 180.53 310.24 181.5 294.51 181.23 294.47 180.25 310.19 180.53"/><polygon class="cls-6" points="294.47 180.25 294.51 181.23 273 198.61 272.96 197.64 294.47 180.25"/><polygon class="cls-7" points="288.68 197.91 288.73 198.89 273 198.61 272.96 197.64 288.68 197.91"/><polygon class="cls-7" points="310.19 180.53 288.68 197.91 272.96 197.64 294.47 180.25 310.19 180.53"/><polygon class="cls-6" points="288.86 197.97 288.9 198.95 272.69 198.66 272.65 197.69 288.86 197.97"/><path class="cls-6" d="M318.55,231.77l16.21.28-21.64,17.49-16.21-.28Zm-5.61,17.72,21.51-17.39-15.72-.27-21.51,17.38,15.72.28" transform="translate(-24.26 -51.57)"/><polygon class="cls-7" points="310.19 180.53 310.24 181.5 288.73 198.89 288.68 197.91 310.19 180.53"/><polygon class="cls-6" points="310.5 180.47 310.55 181.45 288.9 198.95 288.86 197.97 310.5 180.47"/></g><g class="cls-4"><polygon class="cls-6" points="271.63 176.97 271.81 180.88 256.08 180.6 255.9 176.7 271.63 176.97"/><polygon class="cls-6" points="255.9 176.7 256.08 180.6 234.57 197.99 234.39 194.09 255.9 176.7"/><polygon class="cls-2" points="250.12 194.36 250.3 198.26 234.57 197.99 234.39 194.09 250.12 194.36"/><path class="cls-6" d="M280,228.21l16.2.29L274.55,246l-16.2-.28Zm-5.61,17.72,21.51-17.38-15.73-.28-21.51,17.39,15.73.27" transform="translate(-24.26 -51.57)"/><polygon class="cls-2" points="271.63 176.97 250.12 194.36 234.39 194.09 255.9 176.7 271.63 176.97"/><polygon class="cls-6" points="250.29 194.42 250.47 198.32 234.27 198.04 234.09 194.14 250.29 194.42"/><polygon class="cls-2" points="271.63 176.97 271.81 180.88 250.3 198.26 250.12 194.36 271.63 176.97"/><polygon class="cls-6" points="271.93 176.92 272.11 180.82 250.47 198.32 250.29 194.42 271.93 176.92"/></g><g class="cls-4"><polygon class="cls-6" points="290.94 176.97 291.13 180.88 275.39 180.6 275.21 176.7 290.94 176.97"/><polygon class="cls-6" points="275.21 176.7 275.39 180.6 253.88 197.99 253.7 194.09 275.21 176.7"/><polygon class="cls-2" points="269.44 194.36 269.62 198.26 253.88 197.99 253.7 194.09 269.44 194.36"/><polygon class="cls-2" points="290.94 176.97 269.44 194.36 253.7 194.09 275.21 176.7 290.94 176.97"/><polygon class="cls-6" points="269.6 194.42 269.78 198.32 253.58 198.04 253.4 194.14 269.6 194.42"/><path class="cls-6" d="M299.31,228.21l16.2.29L293.86,246l-16.2-.28Zm-5.61,17.72,21.51-17.38-15.74-.28L278,245.66l15.74.27" transform="translate(-24.26 -51.57)"/><polygon class="cls-2" points="290.94 176.97 291.13 180.88 269.62 198.26 269.44 194.36 290.94 176.97"/><polygon class="cls-6" points="291.25 176.92 291.43 180.82 269.78 198.32 269.6 194.42 291.25 176.92"/></g></g><path class="cls-11" d="M116.9,491.69" transform="translate(-24.26 -51.57)"/><path class="cls-11" d="M183.45,515" transform="translate(-24.26 -51.57)"/><g id="stream2-2" data-name="stream2"><g class="cls-4"><polygon class="cls-10" points="283.81 106.43 416.92 108.75 416.97 109.72 283.85 107.4 283.81 106.43"/><polygon class="cls-10" points="416.61 108.8 416.66 109.77 284.03 107.46 283.98 106.48 416.61 108.8"/><polygon class="cls-10" points="261.21 124.69 283.81 106.43 283.85 107.4 261.25 125.67 261.21 124.69"/><polygon class="cls-10" points="283.98 106.48 284.03 107.46 261.56 125.62 261.52 124.64 283.98 106.48"/><polygon class="cls-10" points="261.52 124.64 394.15 126.96 394.19 127.93 261.56 125.62 261.52 124.64"/><polygon class="cls-10" points="394.15 126.96 416.61 108.8 416.66 109.77 394.19 127.93 394.15 126.96"/><polygon class="cls-10" points="394.32 127.02 394.37 127.99 261.25 125.67 261.21 124.69 394.32 127.02"/><polygon class="cls-10" points="416.92 108.75 416.97 109.72 394.37 127.99 394.32 127.02 416.92 108.75"/></g><g class="cls-4"><polygon class="cls-6" points="300.3 103.49 300.48 107.39 284.74 107.11 284.56 103.21 300.3 103.49"/><polygon class="cls-6" points="284.56 103.21 284.74 107.11 263.23 124.5 263.05 120.6 284.56 103.21"/><polygon class="cls-2" points="278.79 120.87 278.97 124.77 263.23 124.5 263.05 120.6 278.79 120.87"/><polygon class="cls-2" points="300.3 103.49 278.79 120.87 263.05 120.6 284.56 103.21 300.3 103.49"/><polygon class="cls-6" points="278.95 120.93 279.13 124.83 262.93 124.55 262.75 120.65 278.95 120.93"/><path class="cls-6" d="M308.66,154.73l16.2.28L303.21,172.5l-16.2-.28Zm-5.61,17.71,21.51-17.38-15.74-.28-21.5,17.39,15.73.27" transform="translate(-24.26 -51.57)"/><polygon class="cls-2" points="300.3 103.49 300.48 107.39 278.97 124.77 278.79 120.87 300.3 103.49"/><polygon class="cls-6" points="300.6 103.43 300.78 107.34 279.13 124.83 278.95 120.93 300.6 103.43"/></g><g class="cls-4"><polygon class="cls-6" points="318.99 103.99 319.17 107.89 303.44 107.62 303.26 103.72 318.99 103.99"/><polygon class="cls-6" points="303.26 103.72 303.44 107.62 281.94 125 281.76 121.1 303.26 103.72"/><polygon class="cls-2" points="297.48 121.37 297.66 125.28 281.94 125 281.76 121.1 297.48 121.37"/><polygon class="cls-2" points="318.99 103.99 297.48 121.37 281.76 121.1 303.26 103.72 318.99 103.99"/><polygon class="cls-6" points="297.65 121.43 297.83 125.33 281.63 125.05 281.44 121.15 297.65 121.43"/><path class="cls-6" d="M327.35,155.23l16.21.28L321.92,173l-16.21-.28ZM321.74,173l21.51-17.39-15.73-.27L306,172.67l15.72.28" transform="translate(-24.26 -51.57)"/><polygon class="cls-2" points="318.99 103.99 319.17 107.89 297.66 125.28 297.48 121.37 318.99 103.99"/><polygon class="cls-6" points="319.3 103.94 319.48 107.84 297.83 125.33 297.65 121.43 319.3 103.94"/></g><g class="cls-4"><polygon class="cls-6" points="337.91 103.99 338.09 107.89 322.35 107.62 322.17 103.72 337.91 103.99"/><polygon class="cls-6" points="322.17 103.72 322.35 107.62 300.85 125 300.67 121.1 322.17 103.72"/><polygon class="cls-2" points="316.4 121.38 316.58 125.28 300.85 125 300.67 121.1 316.4 121.38"/><path class="cls-6" d="M346.27,155.23l16.2.28L340.83,173l-16.21-.28ZM340.66,173l21.51-17.39-15.74-.27-21.5,17.38,15.73.28" transform="translate(-24.26 -51.57)"/><polygon class="cls-2" points="337.91 103.99 316.4 121.38 300.67 121.1 322.17 103.72 337.91 103.99"/><polygon class="cls-6" points="316.56 121.43 316.74 125.33 300.54 125.05 300.36 121.15 316.56 121.43"/><polygon class="cls-2" points="337.91 103.99 338.09 107.89 316.58 125.28 316.4 121.38 337.91 103.99"/><polygon class="cls-6" points="338.21 103.94 338.39 107.84 316.74 125.33 316.56 121.43 338.21 103.94"/></g><g class="cls-4"><polygon class="cls-6" points="415 108.5 415.04 109.48 399.32 109.2 399.27 108.23 415 108.5"/><polygon class="cls-6" points="399.27 108.23 399.32 109.2 377.81 126.59 377.76 125.61 399.27 108.23"/><polygon class="cls-7" points="393.49 125.89 393.53 126.86 377.81 126.59 377.76 125.61 393.49 125.89"/><path class="cls-6" d="M423.36,159.74l16.21.29-21.65,17.49-16.21-.28Zm-5.61,17.72,21.51-17.38-15.73-.28L402,177.19l15.73.27" transform="translate(-24.26 -51.57)"/><polygon class="cls-7" points="415 108.5 393.49 125.89 377.76 125.61 399.27 108.23 415 108.5"/><polygon class="cls-6" points="393.66 125.95 393.71 126.92 377.5 126.64 377.45 125.67 393.66 125.95"/><polygon class="cls-7" points="415 108.5 415.04 109.48 393.53 126.86 393.49 125.89 415 108.5"/><polygon class="cls-6" points="415.31 108.45 415.35 109.43 393.71 126.92 393.66 125.95 415.31 108.45"/></g><g class="cls-4"><polygon class="cls-6" points="395.89 108.16 395.94 109.14 380.21 108.86 380.16 107.89 395.89 108.16"/><polygon class="cls-6" points="380.16 107.89 380.21 108.86 358.7 126.25 358.65 125.27 380.16 107.89"/><polygon class="cls-7" points="374.38 125.55 374.43 126.52 358.7 126.25 358.65 125.27 374.38 125.55"/><path class="cls-6" d="M404.25,159.4l16.21.28-21.64,17.5-16.21-.28Zm-5.61,17.72,21.51-17.38-15.72-.28-21.51,17.39,15.72.27" transform="translate(-24.26 -51.57)"/><polygon class="cls-7" points="395.89 108.16 374.38 125.55 358.65 125.27 380.16 107.89 395.89 108.16"/><polygon class="cls-6" points="374.56 125.61 374.6 126.58 358.39 126.3 358.35 125.32 374.56 125.61"/><polygon class="cls-7" points="395.89 108.16 395.94 109.14 374.43 126.52 374.38 125.55 395.89 108.16"/><polygon class="cls-6" points="396.2 108.11 396.25 109.09 374.6 126.58 374.56 125.61 396.2 108.11"/></g><g class="cls-4"><polygon class="cls-6" points="376.5 107.77 376.54 108.74 360.81 108.47 360.77 107.5 376.5 107.77"/><polygon class="cls-6" points="360.77 107.5 360.81 108.47 339.31 125.86 339.26 124.88 360.77 107.5"/><polygon class="cls-7" points="354.99 125.16 355.03 126.13 339.31 125.86 339.26 124.88 354.99 125.16"/><path class="cls-6" d="M384.86,159l16.21.28-21.65,17.5-16.21-.28Zm-5.61,17.72,21.51-17.39L385,159.07l-21.51,17.39,15.73.27" transform="translate(-24.26 -51.57)"/><polygon class="cls-7" points="376.5 107.77 354.99 125.16 339.26 124.88 360.77 107.5 376.5 107.77"/><polygon class="cls-6" points="355.16 125.22 355.2 126.19 338.99 125.91 338.95 124.93 355.16 125.22"/><polygon class="cls-7" points="376.5 107.77 376.54 108.74 355.03 126.13 354.99 125.16 376.5 107.77"/><polygon class="cls-6" points="376.81 107.72 376.85 108.69 355.2 126.19 355.16 125.22 376.81 107.72"/></g><g class="cls-4"><polygon class="cls-6" points="356.72 107.49 356.77 108.47 341.04 108.19 341 107.22 356.72 107.49"/><polygon class="cls-6" points="341 107.22 341.04 108.19 319.53 125.58 319.49 124.61 341 107.22"/><polygon class="cls-7" points="335.21 124.88 335.26 125.86 319.53 125.58 319.49 124.61 335.21 124.88"/><path class="cls-6" d="M365.08,158.74l16.21.28-21.64,17.49-16.21-.28Zm-5.6,17.71L381,159.07l-15.73-.28-21.51,17.39,15.73.27" transform="translate(-24.26 -51.57)"/><polygon class="cls-7" points="356.72 107.49 335.21 124.88 319.49 124.61 341 107.22 356.72 107.49"/><polygon class="cls-6" points="335.39 124.94 335.43 125.92 319.22 125.63 319.18 124.66 335.39 124.94"/><polygon class="cls-7" points="356.72 107.49 356.77 108.47 335.26 125.86 335.21 124.88 356.72 107.49"/><polygon class="cls-6" points="357.03 107.44 357.08 108.42 335.43 125.92 335.39 124.94 357.03 107.44"/></g></g><g id="stream2-3" data-name="stream2"><g class="cls-4"><polygon class="cls-10" points="462.22 137.23 595.5 139.56 595.55 140.53 462.27 138.21 462.22 137.23"/><polygon class="cls-10" points="595.2 139.61 595.24 140.59 462.45 138.27 462.4 137.29 595.2 139.61"/><polygon class="cls-10" points="439.63 155.5 462.22 137.23 462.27 138.21 439.67 156.48 439.63 155.5"/><polygon class="cls-10" points="462.4 137.29 462.45 138.27 439.98 156.43 439.93 155.45 462.4 137.29"/><polygon class="cls-10" points="439.93 155.45 572.73 157.77 572.77 158.74 439.98 156.43 439.93 155.45"/><polygon class="cls-10" points="572.73 157.77 595.2 139.61 595.24 140.59 572.77 158.74 572.73 157.77"/><polygon class="cls-10" points="572.91 157.83 572.95 158.8 439.67 156.48 439.63 155.5 572.91 157.83"/><polygon class="cls-10" points="595.5 139.56 595.55 140.53 572.95 158.8 572.91 157.83 595.5 139.56"/></g><g class="cls-4"><polygon class="cls-6" points="478.71 134.29 478.89 138.2 463.16 137.92 462.98 134.02 478.71 134.29"/><polygon class="cls-6" points="462.98 134.02 463.16 137.92 441.65 155.31 441.47 151.41 462.98 134.02"/><polygon class="cls-2" points="457.2 151.68 457.38 155.58 441.65 155.31 441.47 151.41 457.2 151.68"/><path class="cls-6" d="M487.07,185.53l16.21.29-21.65,17.49-16.2-.28Zm-5.6,17.72L503,185.87l-15.73-.28L465.73,203l15.74.27" transform="translate(-24.26 -51.57)"/><polygon class="cls-2" points="478.71 134.29 457.2 151.68 441.47 151.41 462.98 134.02 478.71 134.29"/><polygon class="cls-6" points="457.37 151.74 457.55 155.64 441.35 155.36 441.17 151.46 457.37 151.74"/><polygon class="cls-2" points="478.71 134.29 478.89 138.2 457.38 155.58 457.2 151.68 478.71 134.29"/><polygon class="cls-6" points="479.01 134.24 479.19 138.14 457.55 155.64 457.37 151.74 479.01 134.24"/></g><g class="cls-4"><polygon class="cls-6" points="593.41 139.31 593.46 140.29 577.73 140.01 577.69 139.04 593.41 139.31"/><polygon class="cls-6" points="577.69 139.04 577.73 140.01 556.22 157.4 556.18 156.42 577.69 139.04"/><polygon class="cls-7" points="571.9 156.7 571.95 157.67 556.22 157.4 556.18 156.42 571.9 156.7"/><polygon class="cls-7" points="593.41 139.31 571.9 156.7 556.18 156.42 577.69 139.04 593.41 139.31"/><polygon class="cls-6" points="572.08 156.76 572.12 157.73 555.91 157.45 555.87 156.47 572.08 156.76"/><path class="cls-6" d="M601.77,190.55l16.21.29-21.64,17.49-16.21-.28Zm-5.6,17.72,21.5-17.38L602,190.61,580.44,208l15.73.27" transform="translate(-24.26 -51.57)"/><polygon class="cls-7" points="593.41 139.31 593.46 140.29 571.95 157.67 571.9 156.7 593.41 139.31"/><polygon class="cls-6" points="593.72 139.26 593.77 140.24 572.12 157.73 572.08 156.76 593.72 139.26"/></g><g class="cls-4"><polygon class="cls-6" points="574.31 138.97 574.35 139.95 558.63 139.68 558.58 138.7 574.31 138.97"/><polygon class="cls-6" points="558.58 138.7 558.63 139.68 537.12 157.06 537.07 156.09 558.58 138.7"/><polygon class="cls-7" points="552.8 156.36 552.84 157.34 537.12 157.06 537.07 156.09 552.8 156.36"/><polygon class="cls-7" points="574.31 138.97 552.8 156.36 537.07 156.09 558.58 138.7 574.31 138.97"/><polygon class="cls-6" points="552.97 156.42 553.01 157.4 536.8 157.11 536.76 156.14 552.97 156.42"/><path class="cls-6" d="M582.67,190.21l16.21.29L577.23,208,561,207.71Zm-5.61,17.72,21.51-17.38-15.73-.28-21.51,17.39,15.73.27" transform="translate(-24.26 -51.57)"/><polygon class="cls-7" points="574.31 138.97 574.35 139.95 552.84 157.34 552.8 156.36 574.31 138.97"/><polygon class="cls-6" points="574.62 138.92 574.66 139.9 553.01 157.4 552.97 156.42 574.62 138.92"/></g><g class="cls-4"><polygon class="cls-6" points="554.91 138.58 554.96 139.56 539.23 139.28 539.19 138.31 554.91 138.58"/><polygon class="cls-6" points="539.19 138.31 539.23 139.28 517.72 156.67 517.68 155.69 539.19 138.31"/><polygon class="cls-7" points="533.4 155.97 533.45 156.94 517.72 156.67 517.68 155.69 533.4 155.97"/><polygon class="cls-7" points="554.91 138.58 533.4 155.97 517.68 155.69 539.19 138.31 554.91 138.58"/><polygon class="cls-6" points="533.58 156.03 533.62 157 517.41 156.72 517.37 155.75 533.58 156.03"/><path class="cls-6" d="M563.27,189.82l16.21.29L557.84,207.6l-16.21-.28Zm-5.61,17.72,21.51-17.38-15.72-.28-21.51,17.39,15.72.27" transform="translate(-24.26 -51.57)"/><polygon class="cls-7" points="554.91 138.58 554.96 139.56 533.45 156.94 533.4 155.97 554.91 138.58"/><polygon class="cls-6" points="555.22 138.53 555.27 139.51 533.62 157 533.58 156.03 555.22 138.53"/></g><g class="cls-4"><polygon class="cls-6" points="535.46 138.3 535.51 139.28 519.77 139 519.73 138.03 535.46 138.3"/><polygon class="cls-6" points="519.73 138.03 519.77 139 498.26 156.39 498.22 155.41 519.73 138.03"/><polygon class="cls-7" points="513.95 155.69 514 156.66 498.26 156.39 498.22 155.41 513.95 155.69"/><path class="cls-6" d="M543.82,189.54l16.2.29-21.64,17.49-16.2-.28Zm-5.6,17.72,21.51-17.38L544,189.6,522.48,207l15.74.27" transform="translate(-24.26 -51.57)"/><polygon class="cls-7" points="535.46 138.3 513.95 155.69 498.22 155.41 519.73 138.03 535.46 138.3"/><polygon class="cls-6" points="514.12 155.75 514.16 156.72 497.96 156.44 497.92 155.47 514.12 155.75"/><polygon class="cls-7" points="535.46 138.3 535.51 139.28 514 156.66 513.95 155.69 535.46 138.3"/><polygon class="cls-6" points="535.76 138.25 535.81 139.23 514.16 156.72 514.12 155.75 535.76 138.25"/></g><g class="cls-4"><polygon class="cls-6" points="516.4 137.88 516.45 138.86 500.72 138.58 500.67 137.61 516.4 137.88"/><polygon class="cls-6" points="500.67 137.61 500.72 138.58 479.21 155.97 479.17 154.99 500.67 137.61"/><polygon class="cls-7" points="494.89 155.27 494.94 156.24 479.21 155.97 479.17 154.99 494.89 155.27"/><polygon class="cls-7" points="516.4 137.88 494.89 155.27 479.17 154.99 500.67 137.61 516.4 137.88"/><polygon class="cls-6" points="495.07 155.33 495.11 156.3 478.91 156.02 478.86 155.04 495.07 155.33"/><path class="cls-6" d="M524.77,189.12l16.2.28-21.64,17.5-16.2-.28Zm-5.62,17.72,21.51-17.38-15.72-.28-21.51,17.39,15.72.27" transform="translate(-24.26 -51.57)"/><polygon class="cls-7" points="516.4 137.88 516.45 138.86 494.94 156.24 494.89 155.27 516.4 137.88"/><polygon class="cls-6" points="516.71 137.83 516.76 138.81 495.11 156.3 495.07 155.33 516.71 137.83"/></g><g class="cls-4"><polygon class="cls-6" points="496.83 137.48 496.88 138.45 481.15 138.18 481.11 137.2 496.83 137.48"/><polygon class="cls-6" points="481.11 137.2 481.15 138.18 459.64 155.56 459.6 154.59 481.11 137.2"/><polygon class="cls-7" points="475.33 154.86 475.37 155.84 459.64 155.56 459.6 154.59 475.33 154.86"/><polygon class="cls-7" points="496.83 137.48 475.33 154.86 459.6 154.59 481.11 137.2 496.83 137.48"/><polygon class="cls-6" points="475.49 154.92 475.54 155.9 459.33 155.61 459.29 154.64 475.49 154.92"/><path class="cls-6" d="M505.2,188.72l16.2.28-21.65,17.49-16.2-.28Zm-5.61,17.72,21.5-17.39-15.72-.27-21.51,17.38,15.73.28" transform="translate(-24.26 -51.57)"/><polygon class="cls-7" points="496.83 137.48 496.88 138.45 475.37 155.84 475.33 154.86 496.83 137.48"/><polygon class="cls-6" points="497.14 137.43 497.18 138.4 475.54 155.9 475.49 154.92 497.14 137.43"/></g></g><path class="cls-12" d="M128.4,235.11" transform="translate(-24.26 -51.57)"/><path class="cls-13" d="M319.58,126.7,454,129.05l-25.85,20.89-134.4-2.35Zm107.18,22.77,24.76-20L321,127.17l-24.76,20,130.56,2.28" transform="translate(-24.26 -51.57)"/><polygon class="cls-14" points="427.26 77.88 402.5 97.89 271.94 95.61 296.7 75.6 427.26 77.88"/><path class="cls-15" d="M301.17,82.61l29-21.64L332,126.4l-29,21.64Zm29.9,42.53L329.4,63.48l-27.35,20.4,1.67,61.65,27.35-20.39" transform="translate(-24.26 -51.57)"/><polygon class="cls-7" points="277.79 32.31 305.14 11.91 306.81 73.57 279.46 93.96 277.79 32.31"/><g class="cls-4"><g class="cls-16"><path class="cls-15" d="M310.13,105.25l-.79.7.52,9,.79-.7-.52-9m-.64-4a1.47,1.47,0,0,0-.36.6,2.21,2.21,0,0,0-.14.82c0,.27.09.44.22.51s.25,0,.39-.09a1.42,1.42,0,0,0,.36-.59,2,2,0,0,0,.14-.82q0-.4-.21-.51a.33.33,0,0,0-.4.08m-1.8.17a4.7,4.7,0,0,0-1.33,2.13,8,8,0,0,0-.31,2.82l.15,2.46-1.13,1,.06,1.1,1.13-1,.46,7.9.78-.71-.46-7.89L308.3,108l-.06-1.09L307,108.08l-.13-2.3c0-.32,0-.63,0-.94a4.93,4.93,0,0,1,.11-.87,2.71,2.71,0,0,1,.28-.77,2.36,2.36,0,0,1,.5-.64,1.48,1.48,0,0,1,.29-.21l.26-.14.07-1.27a1.09,1.09,0,0,0-.33.18l-.32.26" transform="translate(-24.26 -51.57)"/><polyline class="cls-15" points="288.44 45.53 287.66 46.24 288.5 60.76 289.28 60.06 288.44 45.53"/><path class="cls-15" d="M315.87,97.4l-.78.71.15,2.54-1.11,1,.06,1.09,1.11-1,.33,5.61a3.26,3.26,0,0,0,.2,1.1.73.73,0,0,0,.38.41.56.56,0,0,0,.47,0,2.44,2.44,0,0,0,.47-.32,4.66,4.66,0,0,0,.48-.51,4.32,4.32,0,0,0,.42-.58l-.1-1.11a3.3,3.3,0,0,1-.33.52,2.14,2.14,0,0,1-.33.38,1.35,1.35,0,0,1-.33.22.28.28,0,0,1-.27,0,.61.61,0,0,1-.19-.36,3.36,3.36,0,0,1-.11-.78l-.3-5.25,1.51-1.36-.06-1.1L316,99.94l-.15-2.54" transform="translate(-24.26 -51.57)"/><path class="cls-15" d="M319.41,100.89a7.08,7.08,0,0,1,.11-1.26,7.34,7.34,0,0,1,.35-1.3,6.72,6.72,0,0,1,.54-1.18,4.48,4.48,0,0,1,.71-.9c.57-.5,1-.61,1.35-.32a2.5,2.5,0,0,1,.61,1.66l-3.67,3.3m1.65-5.73A5.76,5.76,0,0,0,320,96.48a9.59,9.59,0,0,0-.8,1.77,11.8,11.8,0,0,0-.49,2,10.25,10.25,0,0,0-.09,2.06A5.47,5.47,0,0,0,319,104a2,2,0,0,0,.67,1,1.13,1.13,0,0,0,.93.2,2.53,2.53,0,0,0,1.13-.64A6.41,6.41,0,0,0,322.9,103a11.14,11.14,0,0,0,1-2.42l-.63-.24a8.24,8.24,0,0,1-.61,1.69,4.52,4.52,0,0,1-1,1.42,1.54,1.54,0,0,1-.78.43.84.84,0,0,1-.66-.15,1.33,1.33,0,0,1-.47-.66,3.8,3.8,0,0,1-.24-1.12l4.46-4c0-.12,0-.23,0-.33V97.3a6.72,6.72,0,0,0-.27-1.58,2.1,2.1,0,0,0-.57-1,1,1,0,0,0-.86-.23,2.3,2.3,0,0,0-1.14.64" transform="translate(-24.26 -51.57)"/><path class="cls-15" d="M327.81,89.08a4.55,4.55,0,0,0-1,1.43,7.67,7.67,0,0,0-.61,1.9h0c0-.18,0-.43-.06-.71s-.05-.55-.08-.78l-.74.67c0,.3.06.64.09,1s.05.69.06.93l.41,7,.78-.71-.26-4.59a8.63,8.63,0,0,1,.32-3,4.62,4.62,0,0,1,.47-1,3.45,3.45,0,0,1,.58-.73l.33-.26.23-.12,0-1.34a.83.83,0,0,0-.25.15,3.4,3.4,0,0,0-.27.21" transform="translate(-24.26 -51.57)"/></g></g><path class="cls-15" d="M336.55,82.61l29-21.64,1.77,65.43-29,21.64Zm29.9,42.53-1.67-61.66-27.34,20.4,1.66,61.65,27.35-20.39" transform="translate(-24.26 -51.57)"/><polygon class="cls-7" points="313.18 32.31 340.52 11.91 342.19 73.57 314.84 93.96 313.18 32.31"/><g class="cls-4"><g class="cls-17"><path class="cls-15" d="M347.61,103.19a4,4,0,0,0-1,1.47,9.68,9.68,0,0,0-.58,2.19,2.7,2.7,0,0,0-.35-.79.87.87,0,0,0-.41-.33.54.54,0,0,0-.43,0,1.71,1.71,0,0,0-.41.27,3.92,3.92,0,0,0-.92,1.42,8.16,8.16,0,0,0-.55,2l0,0c0-.22,0-.49-.06-.82s0-.62-.08-.88l-.66.59c0,.35.06.73.09,1.15s.06.78.07,1.06l.46,7.93.7-.63-.3-5.22a12.94,12.94,0,0,1,0-1.88,10.4,10.4,0,0,1,.25-1.53,5.87,5.87,0,0,1,.41-1.13,2.36,2.36,0,0,1,.49-.69.85.85,0,0,1,.58-.29.52.52,0,0,1,.39.34,2.76,2.76,0,0,1,.25.87c.05.37.1.8.13,1.29l.34,5.93.69-.62-.31-5.41a11.85,11.85,0,0,1,0-1.46,10.35,10.35,0,0,1,.15-1.4,5.71,5.71,0,0,1,.38-1.25,2.49,2.49,0,0,1,.62-.9c.45-.41.79-.37,1,.11A7.25,7.25,0,0,1,349,107l.32,5.62.7-.63-.36-6.23a5.29,5.29,0,0,0-.63-2.63c-.35-.49-.83-.47-1.44.08" transform="translate(-24.26 -51.57)"/><path class="cls-15" d="M353.28,108.05a1.38,1.38,0,0,1-.41.27.46.46,0,0,1-.38,0,.66.66,0,0,1-.3-.36,2.5,2.5,0,0,1-.15-.82,3.59,3.59,0,0,1,.16-1.36,5.31,5.31,0,0,1,.54-1.19,8.52,8.52,0,0,1,.77-1c.29-.3.58-.59.87-.85l.2-.19.05.77a10.75,10.75,0,0,1,0,1.38,9.21,9.21,0,0,1-.24,1.33,5.66,5.66,0,0,1-.44,1.18,2.88,2.88,0,0,1-.64.86m-.22-9.77A5.16,5.16,0,0,0,352,99.7a8.2,8.2,0,0,0-.72,1.74l.44.63a7.35,7.35,0,0,1,.58-1.44,3.68,3.68,0,0,1,.78-1c.42-.37.75-.43,1-.2a2.69,2.69,0,0,1,.45,1.66v.32c-.44.4-.86.81-1.26,1.25a8.67,8.67,0,0,0-1.06,1.41,6.31,6.31,0,0,0-.69,1.7,6.81,6.81,0,0,0-.17,2.12,3.89,3.89,0,0,0,.24,1.29,1.24,1.24,0,0,0,.45.6.67.67,0,0,0,.57.06,1.73,1.73,0,0,0,.58-.36,4.33,4.33,0,0,0,1-1.35,9.14,9.14,0,0,0,.66-2.13l0,0c0,.28,0,.56.07.83s.07.53.1.76l.63-.57c-.05-.26-.09-.6-.13-1s-.07-.81-.09-1.2l-.26-4.45a5.45,5.45,0,0,0-.24-1.5,1.7,1.7,0,0,0-.46-.8.74.74,0,0,0-.64-.14,1.62,1.62,0,0,0-.74.42" transform="translate(-24.26 -51.57)"/><path class="cls-15" d="M359.73,102.2a1.17,1.17,0,0,1-.75.35.9.9,0,0,1-.64-.33,2.63,2.63,0,0,1-.46-1,6.58,6.58,0,0,1-.23-1.5A9.1,9.1,0,0,1,357.7,98a10.09,10.09,0,0,1,.3-1.65,8,8,0,0,1,.54-1.41,3.32,3.32,0,0,1,.72-1,1.1,1.1,0,0,1,.79-.36.8.8,0,0,1,.62.37,2.64,2.64,0,0,1,.43,1,7.63,7.63,0,0,1,.21,1.48,9.9,9.9,0,0,1,0,1.72,10.53,10.53,0,0,1-.27,1.62,6.83,6.83,0,0,1-.53,1.38,3.46,3.46,0,0,1-.75,1m-.47-9.5a4.79,4.79,0,0,0-1,1.42,8.71,8.71,0,0,0-.71,2.23l0,0-.1-1.76-.7.63.89,15.39.7-.63-.4-6.93,0,0a1.18,1.18,0,0,0,.88.75,1.31,1.31,0,0,0,1-.4,4.88,4.88,0,0,0,1-1.33,10.1,10.1,0,0,0,.71-1.83,13,13,0,0,0,.4-2.15,12.33,12.33,0,0,0,.06-2.27,8.51,8.51,0,0,0-.3-1.94,3.38,3.38,0,0,0-.6-1.25,1.06,1.06,0,0,0-.84-.42,1.56,1.56,0,0,0-1.05.5" transform="translate(-24.26 -51.57)"/></g></g><polygon class="cls-14" points="604.92 111.45 580.16 131.47 451.1 129.22 475.86 109.2 604.92 111.45"/><path class="cls-13" d="M498.75,160.3l132.9,2.32L605.8,183.51,472.9,181.2ZM604.42,183l24.76-20-129.06-2.26-24.76,20L604.42,183" transform="translate(-24.26 -51.57)"/><polygon class="cls-7" points="480.26 66.41 507.61 46.01 509.27 107.67 481.93 128.06 480.26 66.41"/><g class="cls-4"><g class="cls-18"><path class="cls-15" d="M510.66,142.4l-.84.76.6,10.34a7,7,0,0,1,0,.79,3.84,3.84,0,0,1-.08.7,2.39,2.39,0,0,1-.22.6,2,2,0,0,1-.41.52,2.69,2.69,0,0,1-.27.2,1,1,0,0,1-.27.16l-.06,1.19a2.7,2.7,0,0,0,.35-.21l.32-.26a3.88,3.88,0,0,0,.79-1,4.84,4.84,0,0,0,.47-1.07,6.17,6.17,0,0,0,.2-1.11,8.17,8.17,0,0,0,0-1.1l-.61-10.55m-.67-3.91a1.62,1.62,0,0,0-.39.63,1.71,1.71,0,0,0-.15.81c0,.26.09.42.22.48a.38.38,0,0,0,.42-.11,1.58,1.58,0,0,0,.39-.62,1.84,1.84,0,0,0,.15-.81c0-.26-.09-.43-.22-.48a.37.37,0,0,0-.42.1" transform="translate(-24.26 -51.57)"/><path class="cls-15" d="M516,146a2.1,2.1,0,0,1-.92.54.85.85,0,0,1-.72-.14,1.51,1.51,0,0,1-.5-.73,4.27,4.27,0,0,1-.24-1.25,8.3,8.3,0,0,1,.45-3,7.49,7.49,0,0,1,.63-1.38,5.09,5.09,0,0,1,.89-1.09,2.15,2.15,0,0,1,.92-.54.94.94,0,0,1,.74.15,1.52,1.52,0,0,1,.5.73,4,4,0,0,1,.23,1.24,7.13,7.13,0,0,1-.07,1.52,8.75,8.75,0,0,1-.37,1.53,6.88,6.88,0,0,1-.65,1.37A4.56,4.56,0,0,1,516,146m-.47-8.17a6.88,6.88,0,0,0-1.21,1.47,9.27,9.27,0,0,0-.91,1.84,10.15,10.15,0,0,0-.55,2,8.9,8.9,0,0,0-.12,2,5.11,5.11,0,0,0,.33,1.65,1.79,1.79,0,0,0,.72.89,1.31,1.31,0,0,0,1,.1,3.29,3.29,0,0,0,1.26-.77,7.07,7.07,0,0,0,1.21-1.46,9.59,9.59,0,0,0,.92-1.84,10.57,10.57,0,0,0,.55-2,9.43,9.43,0,0,0,.12-2,5,5,0,0,0-.33-1.64,1.92,1.92,0,0,0-.72-.9,1.29,1.29,0,0,0-1-.09,3.33,3.33,0,0,0-1.26.76" transform="translate(-24.26 -51.57)"/><path class="cls-15" d="M521.24,132.88l-.84.75.51,8.8.84-.76-.51-8.79m-.67-3.91a1.58,1.58,0,0,0-.39.62,1.84,1.84,0,0,0-.15.81c0,.27.09.43.22.49a.38.38,0,0,0,.42-.12,1.53,1.53,0,0,0,.39-.61,1.75,1.75,0,0,0,.15-.82c0-.26-.09-.42-.22-.48a.38.38,0,0,0-.42.11" transform="translate(-24.26 -51.57)"/><path class="cls-15" d="M526.24,128.14a5.64,5.64,0,0,0-1.14,1.53,7.17,7.17,0,0,0-.73,2l0,0c0-.19,0-.42-.06-.7s0-.53-.08-.76l-.8.72c0,.29.07.62.1,1s0,.67.06.92l.4,6.85.84-.75-.26-4.51a8.34,8.34,0,0,1,.05-1.67,8.22,8.22,0,0,1,.33-1.42,6.27,6.27,0,0,1,.52-1.13,3.84,3.84,0,0,1,.64-.79,1.76,1.76,0,0,1,.77-.46.52.52,0,0,1,.51.2,1.69,1.69,0,0,1,.31.75,8.15,8.15,0,0,1,.15,1.19l.28,4.87.84-.76-.32-5.39a3,3,0,0,0-.7-2.14c-.4-.33-1-.18-1.69.48" transform="translate(-24.26 -51.57)"/></g></g><path class="cls-15" d="M503.63,116.72l29-21.65,1.77,65.43-29,21.64Zm29.9,42.52-1.66-61.66L504.52,118l1.67,61.65,27.34-20.39" transform="translate(-24.26 -51.57)"/><path class="cls-15" d="M539.5,117.83l29-21.64,1.77,65.43-29,21.64Zm29.9,42.52L567.74,98.7l-27.35,20.39,1.67,61.66,27.34-20.4" transform="translate(-24.26 -51.57)"/><polygon class="cls-7" points="516.13 67.51 543.48 47.12 545.14 108.78 517.8 129.17 516.13 67.51"/><g class="cls-4"><g class="cls-19"><polyline class="cls-15" points="523.99 88.2 523.11 88.99 521.99 94.26 520.4 91.44 519.47 92.27 521.61 95.75 519.97 103 520.84 102.21 522.1 96.42 523.84 99.51 524.77 98.67 522.48 94.9 523.99 88.2"/><polyline class="cls-15" points="525.65 79.83 524.92 80.48 525.92 97.64 526.64 96.98 525.65 79.83"/><path class="cls-15" d="M554.32,144.44a1.34,1.34,0,0,1-.43.27.41.41,0,0,1-.39,0,.68.68,0,0,1-.31-.38,3,3,0,0,1-.16-.86,4.14,4.14,0,0,1,.17-1.42,5.06,5.06,0,0,1,.56-1.23,8.18,8.18,0,0,1,.8-1.06c.3-.32.6-.62.89-.88l.22-.2,0,.8a8.7,8.7,0,0,1,0,1.44,8.89,8.89,0,0,1-.24,1.4,6.39,6.39,0,0,1-.46,1.23,2.91,2.91,0,0,1-.66.89m-.23-10.21A5.19,5.19,0,0,0,553,135.7a9,9,0,0,0-.75,1.82l.46.66a8.38,8.38,0,0,1,.6-1.5,4,4,0,0,1,.81-1.09c.43-.39.77-.45,1-.21a2.85,2.85,0,0,1,.47,1.75v.33c-.45.41-.89.84-1.31,1.29a9.33,9.33,0,0,0-1.09,1.47,6.84,6.84,0,0,0-.72,1.77,7.39,7.39,0,0,0-.17,2.21,3.9,3.9,0,0,0,.25,1.35,1.18,1.18,0,0,0,.47.62.63.63,0,0,0,.58.07,1.72,1.72,0,0,0,.6-.36,4.35,4.35,0,0,0,1-1.4,9.47,9.47,0,0,0,.68-2.22l0,0c0,.29,0,.58.08.86s.06.56.1.79l.65-.58c0-.28-.09-.63-.13-1.05s-.07-.85-.1-1.26l-.27-4.65a6.4,6.4,0,0,0-.24-1.56,1.74,1.74,0,0,0-.49-.84.73.73,0,0,0-.65-.15,1.55,1.55,0,0,0-.77.43" transform="translate(-24.26 -51.57)"/><path class="cls-15" d="M558.45,127.43l-.72.65.18,3-1,.93.08,1.29,1-.93.39,6.64a5.25,5.25,0,0,0,.2,1.32,1.12,1.12,0,0,0,.36.57.47.47,0,0,0,.44.07,1.72,1.72,0,0,0,.44-.28,3,3,0,0,0,.44-.49,4,4,0,0,0,.39-.59l-.11-1.31a4.52,4.52,0,0,1-.3.54,2,2,0,0,1-.31.36,1.11,1.11,0,0,1-.3.2.29.29,0,0,1-.26-.08,1.25,1.25,0,0,1-.19-.47,5.78,5.78,0,0,1-.11-.93l-.36-6.2,1.4-1.26-.07-1.29-1.4,1.26-.18-3" transform="translate(-24.26 -51.57)"/><path class="cls-15" d="M561.82,132.28a10.25,10.25,0,0,1,.08-1.44,10.94,10.94,0,0,1,.31-1.45,7.35,7.35,0,0,1,.5-1.26,3.15,3.15,0,0,1,.65-.89c.52-.46.94-.49,1.25-.08a4,4,0,0,1,.6,2.07l-3.39,3.05m1.47-6.33a4.6,4.6,0,0,0-1,1.31,9.67,9.67,0,0,0-.72,1.89,12.82,12.82,0,0,0-.43,2.25,14.66,14.66,0,0,0-.07,2.39,9.15,9.15,0,0,0,.33,2.05,3.45,3.45,0,0,0,.64,1.29,1.1,1.1,0,0,0,.88.43,1.64,1.64,0,0,0,1-.5,5.31,5.31,0,0,0,1.12-1.56,11.8,11.8,0,0,0,.88-2.61l-.59-.42a9.47,9.47,0,0,1-.55,1.85,3.71,3.71,0,0,1-.94,1.42,1.1,1.1,0,0,1-.73.35.88.88,0,0,1-.62-.32,2.54,2.54,0,0,1-.46-.89,6.72,6.72,0,0,1-.23-1.36l4.12-3.71c0-.15,0-.27,0-.39l0-.34a9.85,9.85,0,0,0-.27-1.91,3.37,3.37,0,0,0-.55-1.26,1,1,0,0,0-.81-.46,1.51,1.51,0,0,0-1.05.5" transform="translate(-24.26 -51.57)"/></g></g><path class="cls-15" d="M575.38,117.83l29-21.64,1.77,65.43-29,21.64Zm29.9,42.52L603.62,98.7l-27.35,20.39,1.66,61.66,27.35-20.4" transform="translate(-24.26 -51.57)"/><polygon class="cls-7" points="552 67.51 579.35 47.12 581.02 108.78 553.67 129.18 552 67.51"/><g class="cls-4"><g class="cls-20"><path class="cls-15" d="M579.92,144.67l-.68.61.62,10.65.67-.61-.61-10.65m-.64-4.88a1.42,1.42,0,0,0-.32.61,2.61,2.61,0,0,0-.1.92,1,1,0,0,0,.2.65.21.21,0,0,0,.34,0,1.37,1.37,0,0,0,.32-.6,2.86,2.86,0,0,0,.1-.93,1,1,0,0,0-.2-.64.22.22,0,0,0-.34,0" transform="translate(-24.26 -51.57)"/><path class="cls-15" d="M584,140.73a4,4,0,0,0-.91,1.44,8.07,8.07,0,0,0-.57,2.09l0,0c0-.22,0-.51-.06-.86s0-.64-.08-.93l-.65.59c0,.36.07.76.1,1.2s.05.82.07,1.12l.48,8.29.68-.61-.31-5.46a14.12,14.12,0,0,1,0-2,9.65,9.65,0,0,1,.25-1.59,5,5,0,0,1,.41-1.17,2.37,2.37,0,0,1,.5-.72.79.79,0,0,1,.64-.28.66.66,0,0,1,.43.4,3.8,3.8,0,0,1,.28,1c.06.41.11.9.14,1.47l.35,5.88.67-.61-.38-6.52a6.16,6.16,0,0,0-.62-2.79c-.35-.53-.81-.54-1.41,0" transform="translate(-24.26 -51.57)"/><path class="cls-15" d="M588.24,137.18l-.68.61.72,12.52c0,.33,0,.64,0,.94a6.35,6.35,0,0,1,0,.8,2.69,2.69,0,0,1-.18.64,1.19,1.19,0,0,1-.32.48,1.12,1.12,0,0,1-.22.16.77.77,0,0,1-.23.1l0,1.38a.81.81,0,0,0,.29-.13,2,2,0,0,0,.26-.2,2.56,2.56,0,0,0,.64-.87,4.74,4.74,0,0,0,.36-1.12,8.22,8.22,0,0,0,.15-1.25c0-.44,0-.87,0-1.3l-.74-12.76m-.64-4.88a1.54,1.54,0,0,0-.32.61,2.86,2.86,0,0,0-.1.92,1,1,0,0,0,.19.65.23.23,0,0,0,.35,0,1.37,1.37,0,0,0,.32-.6,2.89,2.89,0,0,0,.1-.93,1,1,0,0,0-.2-.64.22.22,0,0,0-.34,0" transform="translate(-24.26 -51.57)"/><path class="cls-15" d="M590.69,139.71a9.46,9.46,0,0,1,.36-2.86,6.07,6.07,0,0,1,.46-1.23,2.85,2.85,0,0,1,.62-.86c.49-.44.88-.45,1.18,0a4.35,4.35,0,0,1,.57,2.1l-3.19,2.87m1.36-6.25a4.31,4.31,0,0,0-.9,1.27,9,9,0,0,0-.69,1.84,14.77,14.77,0,0,0-.39,2.23,14.53,14.53,0,0,0-.06,2.38,9.92,9.92,0,0,0,.32,2.06,3.84,3.84,0,0,0,.61,1.33,1.11,1.11,0,0,0,.83.47,1.41,1.41,0,0,0,1-.44,4.83,4.83,0,0,0,1-1.5,11.41,11.41,0,0,0,.83-2.57l-.56-.44a10.23,10.23,0,0,1-.51,1.81,3.58,3.58,0,0,1-.89,1.38.9.9,0,0,1-.68.3.86.86,0,0,1-.59-.35,2.41,2.41,0,0,1-.43-.91,7,7,0,0,1-.23-1.37l3.88-3.5c0-.14,0-.27,0-.38l0-.35a10.76,10.76,0,0,0-.26-1.91,4,4,0,0,0-.53-1.3,1,1,0,0,0-.76-.49,1.35,1.35,0,0,0-1,.44" transform="translate(-24.26 -51.57)"/><path class="cls-15" d="M597.91,128.18a4.71,4.71,0,0,0-1,1.36,9.2,9.2,0,0,0-.72,1.88,13.48,13.48,0,0,0-.4,2.22,14.68,14.68,0,0,0,0,2.39,9.54,9.54,0,0,0,.31,2.07,3.79,3.79,0,0,0,.6,1.32,1.15,1.15,0,0,0,.86.46,1.6,1.6,0,0,0,1-.51,4.29,4.29,0,0,0,1-1.43,10.77,10.77,0,0,0,.66-2l-.56-.4a7.47,7.47,0,0,1-.46,1.45,3,3,0,0,1-.74,1.08,1,1,0,0,1-.75.33.84.84,0,0,1-.62-.4,3.29,3.29,0,0,1-.43-1,8,8,0,0,1-.22-1.57,11.49,11.49,0,0,1,.3-3.49,7.37,7.37,0,0,1,.52-1.42,3.22,3.22,0,0,1,.72-1,.73.73,0,0,1,.72-.23.91.91,0,0,1,.56.56l.48-1.34a1.07,1.07,0,0,0-.87-.67,1.34,1.34,0,0,0-1,.39" transform="translate(-24.26 -51.57)"/><path class="cls-15" d="M601.38,122.19l-.67.61.17,3-1,.87L600,128l1-.88.39,6.65a5.26,5.26,0,0,0,.2,1.33,1.18,1.18,0,0,0,.34.6.43.43,0,0,0,.42.08,1.61,1.61,0,0,0,.41-.25,3.7,3.7,0,0,0,.42-.46,5.06,5.06,0,0,0,.35-.57l-.1-1.32a5,5,0,0,1-.28.52,2.24,2.24,0,0,1-.29.35,1,1,0,0,1-.29.18.24.24,0,0,1-.24-.1,1.2,1.2,0,0,1-.18-.47,7.41,7.41,0,0,1-.11-.94l-.36-6.2L603,125.3l-.07-1.3-1.32,1.19-.18-3" transform="translate(-24.26 -51.57)"/></g></g><path class="cls-13" d="M214.89,198.49l136.56,2.39L325.6,221.77,189,219.39ZM324.22,221.3l24.76-20L216.27,199l-24.76,20,132.71,2.32" transform="translate(-24.26 -51.57)"/><polygon class="cls-14" points="324.72 149.71 299.96 169.72 167.25 167.41 192.01 147.39 324.72 149.71"/><path class="cls-15" d="M202.79,154.36l29-21.63,1.77,65.43-29,21.63Zm29.9,42.53L231,135.23l-27.34,20.4,1.66,61.66,27.35-20.4" transform="translate(-24.26 -51.57)"/><polygon class="cls-7" points="179.41 104.05 206.76 83.66 208.43 145.32 181.08 165.72 179.41 104.05"/><g class="cls-4"><g class="cls-21"><path class="cls-15" d="M211.19,179.17l-.82.74.61,10.52.82-.74-.61-10.52m-.69-4.77a1.5,1.5,0,0,0-.38.67,2.29,2.29,0,0,0-.14.93.82.82,0,0,0,.23.62.3.3,0,0,0,.41-.06,1.45,1.45,0,0,0,.38-.66,2.34,2.34,0,0,0,.14-.94.79.79,0,0,0-.23-.61.29.29,0,0,0-.41.05m-1.9,0a4.74,4.74,0,0,0-1.39,2.34,9.68,9.68,0,0,0-.31,3.26l.17,2.87-1.18,1.06.07,1.29,1.19-1.07.53,9.24.82-.74-.53-9.24,1.32-1.19-.08-1.28-1.32,1.19-.15-2.7a8,8,0,0,1,0-1.09,5.38,5.38,0,0,1,.1-1,3.3,3.3,0,0,1,.29-.87,2.12,2.12,0,0,1,.53-.69,1.61,1.61,0,0,1,.3-.22l.28-.13.06-1.48a1.17,1.17,0,0,0-.35.18,3,3,0,0,0-.33.27" transform="translate(-24.26 -51.57)"/><polyline class="cls-15" points="189.59 118.38 188.77 119.12 189.76 136.13 190.58 135.38 189.59 118.38"/><path class="cls-15" d="M217.2,170.63l-.82.74.17,3-1.16,1,.07,1.28,1.17-1,.38,6.58a4.32,4.32,0,0,0,.22,1.29,1,1,0,0,0,.41.53.56.56,0,0,0,.49,0,2.34,2.34,0,0,0,.49-.33,4.27,4.27,0,0,0,.5-.54,4.53,4.53,0,0,0,.45-.64l-.12-1.3a5.22,5.22,0,0,1-.34.58,2.93,2.93,0,0,1-.35.4,1.45,1.45,0,0,1-.34.23.32.32,0,0,1-.29,0,.94.94,0,0,1-.21-.45,6.53,6.53,0,0,1-.12-.92l-.35-6.14,1.59-1.43-.08-1.28-1.59,1.43-.17-3" transform="translate(-24.26 -51.57)"/><path class="cls-15" d="M221,175.06a8.1,8.1,0,0,1,.1-1.45,9.13,9.13,0,0,1,.36-1.48,7.18,7.18,0,0,1,.57-1.31,3.93,3.93,0,0,1,.74-1c.59-.53,1.06-.61,1.42-.24a3.37,3.37,0,0,1,.65,2L221,175.06m1.7-6.5a5.56,5.56,0,0,0-1.1,1.43,10.62,10.62,0,0,0-.84,2,13.24,13.24,0,0,0-.49,2.29,12,12,0,0,0-.09,2.39,7.2,7.2,0,0,0,.35,2,2.85,2.85,0,0,0,.71,1.2,1.22,1.22,0,0,0,1,.33,2.22,2.22,0,0,0,1.18-.63,6.45,6.45,0,0,0,1.28-1.69,12,12,0,0,0,1-2.72l-.66-.34a9.28,9.28,0,0,1-.63,1.91,4.73,4.73,0,0,1-1.07,1.54,1.48,1.48,0,0,1-.83.43.94.94,0,0,1-.7-.25,1.83,1.83,0,0,1-.5-.82,5.22,5.22,0,0,1-.26-1.33l4.68-4.21c0-.14,0-.27,0-.39l0-.34a8.45,8.45,0,0,0-.29-1.86,2.75,2.75,0,0,0-.61-1.2,1.06,1.06,0,0,0-.91-.36,2.13,2.13,0,0,0-1.19.63" transform="translate(-24.26 -51.57)"/><path class="cls-15" d="M229.73,162.19a4.52,4.52,0,0,0-1,1.56,8.41,8.41,0,0,0-.63,2.14l0,0c0-.22,0-.51-.06-.84s-.06-.64-.09-.92l-.78.71c0,.35.07.74.11,1.18s.05.81.07,1.1l.48,8.2.82-.74-.32-5.38a12.19,12.19,0,0,1,0-1.93,11.49,11.49,0,0,1,.29-1.56,5.9,5.9,0,0,1,.49-1.18,3,3,0,0,1,.61-.78,2.5,2.5,0,0,1,.34-.27.87.87,0,0,1,.25-.12l0-1.56a.94.94,0,0,0-.26.14c-.09.06-.18.14-.29.23" transform="translate(-24.26 -51.57)"/></g></g><polygon class="cls-7" points="213.73 104.71 241.08 84.32 242.74 145.98 215.4 166.37 213.73 104.71"/><g class="cls-4"><g class="cls-22"><path class="cls-15" d="M242,180.58a3.38,3.38,0,0,0-.76,1,6.26,6.26,0,0,0-.55,1.44,11.33,11.33,0,0,0-.3,1.73,12.67,12.67,0,0,0,0,1.85,8.33,8.33,0,0,0,.24,1.61,3.07,3.07,0,0,0,.46,1,.87.87,0,0,0,.65.37,1.16,1.16,0,0,0,.8-.37,3.23,3.23,0,0,0,.77-1.1,8.05,8.05,0,0,0,.5-1.55l-.43-.32a5.24,5.24,0,0,1-.34,1.12,2.2,2.2,0,0,1-.56.82.76.76,0,0,1-.58.25.67.67,0,0,1-.46-.32,2.83,2.83,0,0,1-.33-.81,6.63,6.63,0,0,1-.17-1.23,9.33,9.33,0,0,1,0-1.4,8.41,8.41,0,0,1,.21-1.3,5.25,5.25,0,0,1,.39-1.1,2.39,2.39,0,0,1,.54-.76.57.57,0,0,1,.56-.18.73.73,0,0,1,.41.46l.37-1a.86.86,0,0,0-.66-.53,1,1,0,0,0-.74.28" transform="translate(-24.26 -51.57)"/><path class="cls-15" d="M247.24,176.12l-.51.46.24,4.25a11.14,11.14,0,0,1,0,1.53,7.83,7.83,0,0,1-.19,1.22,4.19,4.19,0,0,1-.31.91,1.9,1.9,0,0,1-.39.55.57.57,0,0,1-.47.2c-.14,0-.25-.13-.33-.32a2.79,2.79,0,0,1-.21-.77q-.07-.5-.12-1.14l-.26-4.59-.52.47.29,5.07a5,5,0,0,0,.49,2.18c.26.42.61.42,1.06,0a3,3,0,0,0,.7-1.1,6,6,0,0,0,.42-1.62h0c0,.17,0,.4,0,.66s.05.51.07.72l.49-.44c0-.27-.05-.58-.07-.94s-.05-.62-.06-.85l-.38-6.46" transform="translate(-24.26 -51.57)"/><path class="cls-15" d="M249.63,173.74a3.08,3.08,0,0,0-.46.57,4.26,4.26,0,0,0-.38.8,4.88,4.88,0,0,0-.24,1,5.68,5.68,0,0,0,0,1.18,2.81,2.81,0,0,0,.15.88.88.88,0,0,0,.29.42.39.39,0,0,0,.35.09,1.81,1.81,0,0,0,.35-.07,1.48,1.48,0,0,1,.81-.1q.3.09.33.75a2.9,2.9,0,0,1,0,.73,3.31,3.31,0,0,1-.15.62,1.75,1.75,0,0,1-.26.49,2.17,2.17,0,0,1-.31.36.52.52,0,0,1-.6.15.92.92,0,0,1-.46-.56l-.37,1.08q.3.62.69.66a1,1,0,0,0,.81-.32,2.72,2.72,0,0,0,.47-.56,4,4,0,0,0,.41-.83,5.42,5.42,0,0,0,.25-1.07,6.07,6.07,0,0,0,0-1.3,1.86,1.86,0,0,0-.39-1.28c-.22-.21-.55-.21-1,0a.75.75,0,0,1-.67.06c-.15-.09-.23-.32-.26-.71a3.35,3.35,0,0,1,0-.64,4.14,4.14,0,0,1,.15-.56,2.37,2.37,0,0,1,.23-.45,2.26,2.26,0,0,1,.27-.32.48.48,0,0,1,.55-.14.85.85,0,0,1,.39.52l.35-1c-.14-.37-.34-.57-.58-.62a.83.83,0,0,0-.75.25" transform="translate(-24.26 -51.57)"/><path class="cls-15" d="M252.44,169l-.52.47.14,2.33-.74.67.06,1,.74-.66.3,5.17a4,4,0,0,0,.15,1,1,1,0,0,0,.26.46.33.33,0,0,0,.32.08.89.89,0,0,0,.3-.19,2.11,2.11,0,0,0,.32-.35,3.7,3.7,0,0,0,.28-.44l-.09-1a1.88,1.88,0,0,1-.21.4,1.06,1.06,0,0,1-.22.27.55.55,0,0,1-.21.13.18.18,0,0,1-.19-.07,1,1,0,0,1-.14-.37c0-.19-.06-.42-.08-.73l-.28-4.83,1-.9-.06-1-1,.9-.13-2.34" transform="translate(-24.26 -51.57)"/><path class="cls-15" d="M256.44,175.69a.75.75,0,0,1-.57.25.69.69,0,0,1-.46-.33,2.33,2.33,0,0,1-.33-.82,5.88,5.88,0,0,1-.17-1.22,8,8,0,0,1,0-1.38,7.52,7.52,0,0,1,.2-1.3,6.16,6.16,0,0,1,.38-1.1,2.75,2.75,0,0,1,.54-.77.78.78,0,0,1,.58-.24.72.72,0,0,1,.47.34,2.78,2.78,0,0,1,.33.82,7.83,7.83,0,0,1,.17,1.21,10.77,10.77,0,0,1,0,1.39,8.61,8.61,0,0,1-.21,1.3,5.36,5.36,0,0,1-.38,1.09,2.3,2.3,0,0,1-.55.76M256,168a3.45,3.45,0,0,0-.74,1,6.84,6.84,0,0,0-.55,1.45,11.31,11.31,0,0,0-.31,1.73,11.53,11.53,0,0,0,0,1.86,8.22,8.22,0,0,0,.24,1.6,2.92,2.92,0,0,0,.47,1,.87.87,0,0,0,.65.37,1.14,1.14,0,0,0,.78-.35,3.46,3.46,0,0,0,.75-1,7.05,7.05,0,0,0,.54-1.45,9.87,9.87,0,0,0,.31-1.73,10.47,10.47,0,0,0,0-1.86,6.93,6.93,0,0,0-.24-1.6,2.83,2.83,0,0,0-.47-1,.82.82,0,0,0-.65-.37,1.16,1.16,0,0,0-.78.35" transform="translate(-24.26 -51.57)"/><path class="cls-15" d="M263,161.7a2.83,2.83,0,0,0-.72,1.13,7.65,7.65,0,0,0-.42,1.74,2.43,2.43,0,0,0-.27-.67.81.81,0,0,0-.3-.29.36.36,0,0,0-.32,0,1.13,1.13,0,0,0-.31.19,2.91,2.91,0,0,0-.67,1.09,6.62,6.62,0,0,0-.4,1.59l0,0c0-.18,0-.4,0-.67s0-.5-.07-.72l-.49.44c0,.28,0,.59.08.94s0,.63.06.86l.37,6.45.51-.46-.24-4.25a10.9,10.9,0,0,1,0-1.52,6.71,6.71,0,0,1,.18-1.22,3.85,3.85,0,0,1,.3-.89,1.67,1.67,0,0,1,.35-.53.55.55,0,0,1,.44-.2c.12,0,.21.12.29.3a2.5,2.5,0,0,1,.18.72,9.83,9.83,0,0,1,.1,1.06l.28,4.83.52-.47-.26-4.4c0-.39,0-.78,0-1.18a8.15,8.15,0,0,1,.12-1.13,5,5,0,0,1,.26-1,1.94,1.94,0,0,1,.46-.7c.34-.3.59-.25.76.16a6.31,6.31,0,0,1,.33,1.92l.27,4.58.51-.46-.29-5.08a4.76,4.76,0,0,0-.49-2.17c-.26-.42-.61-.43-1.06,0" transform="translate(-24.26 -51.57)"/></g></g><path class="cls-15" d="M237.1,155l29-21.64,1.77,65.42-29,21.65ZM267,197.56l-1.67-61.66L238,156.29,239.66,218,267,197.56" transform="translate(-24.26 -51.57)"/><text class="cls-23" transform="translate(195.66 238.29) scale(0.97 1)">D<tspan class="cls-24" x="15.55" y="0">a</tspan><tspan x="26.31" y="0">ta</tspan><tspan class="cls-25" x="43.8" y="0">S</tspan><tspan x="55.26" y="0">t</tspan><tspan class="cls-26" x="61.77" y="0">r</tspan><tspan class="cls-27" x="68.79" y="0">e</tspan><tspan x="80.42" y="0">ams</tspan></text><text class="cls-28" transform="translate(371.91 47.21) scale(0.89 1)">Sma<tspan class="cls-29" x="41.72" y="0">r</tspan><tspan x="49.04" y="0">t</tspan><tspan class="cls-30" x="55.72" y="0">S</tspan><tspan x="67.47" y="0">t</tspan><tspan class="cls-31" x="74.14" y="0">r</tspan><tspan class="cls-32" x="81.34" y="0">e</tspan><tspan x="93.26" y="0">ams</tspan></text><line class="cls-33" x1="176.96" y1="73.01" x2="177.46" y2="73.04"/><polyline class="cls-34" points="185.12 73.47 201.37 74.39 222.52 58.7 262.41 58.95"/><line class="cls-33" x1="266.25" y1="58.98" x2="266.75" y2="58.98"/><line class="cls-33" x1="235.14" y1="132.6" x2="235.64" y2="132.62"/><line class="cls-35" x1="243.66" y1="132.92" x2="393.02" y2="138.53"/><polyline class="cls-33" points="397.03 138.68 397.53 138.69 397.9 138.35"/><line class="cls-36" x1="403.43" y1="133.22" x2="437.99" y2="101.15"/><line class="cls-33" x1="440.75" y1="98.58" x2="441.12" y2="98.24"/><line class="cls-33" x1="336.98" y1="61.23" x2="337.48" y2="61.25"/><line class="cls-37" x1="345.61" y1="61.52" x2="469.68" y2="65.68"/><polyline class="cls-33" points="473.75 65.81 474.25 65.83 473.9 66.19"/><line class="cls-38" x1="467.77" y1="72.42" x2="450.14" y2="90.33"/><line class="cls-33" x1="447.07" y1="93.44" x2="446.72" y2="93.8"/><line class="cls-33" x1="109.02" y1="131.48" x2="109.52" y2="131.48"/><line class="cls-39" x1="117.93" y1="131.53" x2="170.53" y2="131.8"/><line class="cls-33" x1="174.74" y1="131.82" x2="175.24" y2="131.82"/><line class="cls-33" x1="577.11" y1="98.6" x2="577.61" y2="98.6"/><line class="cls-40" x1="585.46" y1="98.6" x2="634.53" y2="98.6"/><line class="cls-33" x1="638.45" y1="98.6" x2="638.95" y2="98.6"/><path class="cls-1" d="M645.77,163.43" transform="translate(-24.26 -51.57)"/><path class="cls-1" d="M621.74,147.19" transform="translate(-24.26 -51.57)"/><line class="cls-33" x1="451.87" y1="93.59" x2="452.37" y2="93.6"/><line class="cls-41" x1="460.14" y1="93.72" x2="473.72" y2="93.94"/><line class="cls-33" x1="477.6" y1="94" x2="478.1" y2="94.01"/><line class="cls-33" x1="371.91" y1="164.08" x2="372.41" y2="164.1"/><line class="cls-42" x1="380.39" y1="164.4" x2="600.83" y2="172.68"/><line class="cls-33" x1="604.82" y1="172.83" x2="605.32" y2="172.85"/><line class="cls-33" x1="395.51" y1="141.08" x2="395.15" y2="141.42"/><line class="cls-43" x1="389.92" y1="146.52" x2="374.88" y2="161.18"/><line class="cls-33" x1="372.27" y1="163.73" x2="371.91" y2="164.08"/><line class="cls-33" x1="715.37" y1="111.86" x2="715.87" y2="111.86"/><line class="cls-44" x1="723.21" y1="111.86" x2="752.58" y2="111.86"/><line class="cls-33" x1="756.26" y1="111.86" x2="756.76" y2="111.86"/><line class="cls-33" x1="696.77" y1="133.88" x2="697.27" y2="133.88"/><line class="cls-44" x1="704.61" y1="133.88" x2="733.99" y2="133.88"/><line class="cls-33" x1="737.66" y1="133.88" x2="738.16" y2="133.88"/><line class="cls-33" x1="672.54" y1="154.58" x2="673.04" y2="154.58"/><line class="cls-44" x1="680.39" y1="154.58" x2="709.76" y2="154.58"/><line class="cls-33" x1="713.43" y1="154.58" x2="713.93" y2="154.58"/><line class="cls-33" x1="63.04" y1="66.55" x2="63.54" y2="66.55"/><line class="cls-45" x1="70.88" y1="66.55" x2="92" y2="66.55"/><line class="cls-33" x1="95.67" y1="66.55" x2="96.17" y2="66.55"/><line class="cls-33" x1="34.6" y1="88.13" x2="35.1" y2="88.13"/><line class="cls-46" x1="42.09" y1="88.13" x2="62.18" y2="88.13"/><line class="cls-33" x1="65.68" y1="88.13" x2="66.18" y2="88.13"/><line class="cls-33" x1="1.5" y1="118.29" x2="2" y2="118.29"/><line class="cls-46" x1="8.99" y1="118.29" x2="29.08" y2="118.29"/><line class="cls-33" x1="32.57" y1="118.29" x2="33.07" y2="118.29"/></svg>