<svg id="Layer_1" data-name="Layer 1" xmlns="http://www.w3.org/2000/svg" xmlns:xlink="http://www.w3.org/1999/xlink" viewBox="0 0 522.54 361.88"><defs><style>.cls-1,.cls-12,.cls-21,.cls-4,.cls-6{fill:none;}.cls-2{clip-path:url(#clip-path);}.cls-10,.cls-3,.cls-7{fill:#fff;}.cls-12,.cls-21,.cls-4,.cls-6{stroke:#45338e;}.cls-12,.cls-4,.cls-6{stroke-linecap:round;stroke-linejoin:round;}.cls-5{fill:#8266a8;}.cls-21,.cls-6{stroke-width:1.25px;}.cls-13,.cls-7{font-size:16px;}.cls-10,.cls-13,.cls-7{font-family:AvenirNext-Regular, Avenir Next;}.cls-8{letter-spacing:-0.02em;}.cls-9{letter-spacing:0em;}.cls-10{font-size:15px;}.cls-11{letter-spacing:-0.02em;}.cls-12{stroke-width:1.5px;}.cls-13{fill:#45338e;}.cls-14{letter-spacing:-0.01em;}.cls-15{letter-spacing:-0.02em;}.cls-16{letter-spacing:-0.01em;}.cls-17{letter-spacing:-0.05em;}.cls-18{letter-spacing:-0.02em;}.cls-19{letter-spacing:-0.05em;}.cls-20{letter-spacing:-0.01em;}.cls-21{stroke-miterlimit:10;}</style><clipPath id="clip-path" transform="translate(-91.38 -49.73)"><rect class="cls-1" x="91.12" y="48.73" width="523" height="363"/></clipPath></defs><g class="cls-2"><rect class="cls-3" x="0.63" y="0.63" width="521.29" height="360.75" rx="6"/><rect class="cls-4" x="0.63" y="0.63" width="521.29" height="360.75" rx="6"/><rect class="cls-5" x="39.24" y="298.84" width="444.06" height="31.03"/><rect class="cls-6" x="39.24" y="298.84" width="444.06" height="31.03"/><text class="cls-7" transform="translate(204.21 319.36)">Internal<tspan class="cls-8" x="55.31" y="0"> </tspan><tspan class="cls-9" x="59.04" y="0">API - SC</tspan></text><rect class="cls-5" x="273.31" y="241.81" width="136.76" height="31.03"/><rect class="cls-6" x="273.31" y="241.81" width="136.76" height="31.03"/><text class="cls-10" transform="translate(282.42 262.33)">Internal<tspan class="cls-11" x="51.85" y="0"> </tspan><tspan x="55.33" y="0">API - SPU</tspan></text><rect class="cls-3" x="356.2" y="102.63" width="127.1" height="82.05"/><rect class="cls-12" x="356.2" y="102.63" width="127.1" height="82.05"/><text class="cls-13" transform="translate(382.44 129.03)"><tspan class="cls-14">S</tspan><tspan x="8.93" y="0">t</tspan><tspan class="cls-15" x="14" y="0">r</tspan><tspan class="cls-16" x="19.49" y="0">e</tspan><tspan x="28.56" y="0">aming </tspan></text><text class="cls-13" transform="translate(363.62 151.03)"><tspan class="cls-17">P</tspan><tspan class="cls-18" x="8.53" y="0">r</tspan><tspan x="14.02" y="0">ocessing Unit</tspan></text><text class="cls-13" transform="translate(400.12 173.03)">(SPU)</text><rect class="cls-3" x="197.72" y="102.63" width="127.1" height="82.05"/><rect class="cls-12" x="197.72" y="102.63" width="127.1" height="82.05"/><text class="cls-13" transform="translate(223.97 129.03)"><tspan class="cls-16">S</tspan><tspan x="8.94" y="0">t</tspan><tspan class="cls-8" x="14.02" y="0">r</tspan><tspan class="cls-16" x="19.5" y="0">e</tspan><tspan x="28.58" y="0">aming </tspan></text><text class="cls-13" transform="translate(205.14 151.03)"><tspan class="cls-19">P</tspan><tspan class="cls-8" x="8.53" y="0">r</tspan><tspan x="14.02" y="0">ocessing Unit</tspan></text><text class="cls-13" transform="translate(241.64 173.03)">(SPU)</text><rect class="cls-3" x="39.24" y="102.63" width="127.1" height="82.05"/><rect class="cls-12" x="39.24" y="102.63" width="127.1" height="82.05"/><text class="cls-13" transform="translate(65.49 129.03)"><tspan class="cls-16">S</tspan><tspan x="8.94" y="0">t</tspan><tspan class="cls-8" x="14.02" y="0">r</tspan><tspan class="cls-16" x="19.5" y="0">e</tspan><tspan x="28.58" y="0">aming </tspan></text><text class="cls-13" transform="translate(65.94 151.03)"><tspan class="cls-20">C</tspan><tspan x="11.34" y="0">ont</tspan><tspan class="cls-8" x="35.49" y="0">r</tspan><tspan x="40.98" y="0">oller</tspan></text><text class="cls-13" transform="translate(87.72 173.03)">(SC)</text><line class="cls-21" x1="106.81" y1="280.84" x2="106.81" y2="200.33"/><path class="cls-21" d="M195.05,250.06l3.15-8.4,3.15,8.4m-3.15-8.4v8.4" transform="translate(-91.38 -49.73)"/><path class="cls-21" d="M201.35,330.58,198.2,339l-3.15-8.4m3.15,8.4v-8.4" transform="translate(-91.38 -49.73)"/><line class="cls-21" x1="225.87" y1="280.84" x2="225.87" y2="200.33"/><path class="cls-21" d="M314.11,250.06l3.15-8.4,3.15,8.4m-3.15-8.4v8.4" transform="translate(-91.38 -49.73)"/><path class="cls-21" d="M320.41,330.58l-3.15,8.4-3.15-8.4m3.15,8.4v-8.4" transform="translate(-91.38 -49.73)"/><line class="cls-21" x1="457.56" y1="280.84" x2="457.56" y2="200.33"/><path class="cls-21" d="M545.79,250.06l3.15-8.4,3.15,8.4m-3.15-8.4v8.4" transform="translate(-91.38 -49.73)"/><path class="cls-21" d="M552.09,330.58l-3.15,8.4-3.15-8.4m3.15,8.4v-8.4" transform="translate(-91.38 -49.73)"/><line class="cls-21" x1="304.71" y1="225.49" x2="304.71" y2="200.33"/><path class="cls-21" d="M392.94,250.06l3.15-8.4,3.15,8.4m-3.15-8.4v8.4" transform="translate(-91.38 -49.73)"/><path class="cls-21" d="M399.24,275.22l-3.15,8.4-3.15-8.4m3.15,8.4v-8.4" transform="translate(-91.38 -49.73)"/><line class="cls-21" x1="381.13" y1="225.35" x2="381.13" y2="200.19"/><path class="cls-21" d="M469.37,249.93l3.15-8.4,3.15,8.4m-3.15-8.4v8.4" transform="translate(-91.38 -49.73)"/><path class="cls-21" d="M475.67,275.09l-3.15,8.4-3.15-8.4m3.15,8.4v-8.4" transform="translate(-91.38 -49.73)"/><rect class="cls-3" x="0.63" y="0.63" width="521.29" height="27.03"/><rect class="cls-6" x="0.63" y="0.63" width="521.29" height="27.03"/><text class="cls-13" transform="translate(219.17 19.92)">External<tspan class="cls-15" x="59.07" y="0"> </tspan><tspan x="62.8" y="0">API</tspan></text><line class="cls-21" x1="106.81" y1="82.99" x2="106.81" y2="48.54"/><path class="cls-21" d="M195.05,98.27l3.15-8.4,3.15,8.4m-3.15-8.4v8.4" transform="translate(-91.38 -49.73)"/><path class="cls-21" d="M201.35,132.72l-3.15,8.4-3.15-8.4m3.15,8.4v-8.4" transform="translate(-91.38 -49.73)"/><line class="cls-21" x1="262.38" y1="82.99" x2="262.38" y2="48.54"/><path class="cls-21" d="M350.61,98.27l3.15-8.4,3.15,8.4m-3.15-8.4v8.4" transform="translate(-91.38 -49.73)"/><path class="cls-21" d="M356.91,132.72l-3.15,8.4-3.15-8.4m3.15,8.4v-8.4" transform="translate(-91.38 -49.73)"/><line class="cls-21" x1="417.49" y1="82.99" x2="417.49" y2="48.54"/><path class="cls-21" d="M505.72,98.27l3.15-8.4,3.15,8.4m-3.15-8.4v8.4" transform="translate(-91.38 -49.73)"/><path class="cls-21" d="M512,132.72l-3.15,8.4-3.15-8.4m3.15,8.4v-8.4" transform="translate(-91.38 -49.73)"/></g></svg>