<svg id="Layer_1" data-name="Layer 1" xmlns="http://www.w3.org/2000/svg" xmlns:xlink="http://www.w3.org/1999/xlink" viewBox="0 0 499.68 222.05"><defs><style>.cls-1,.cls-4{fill:none;}.cls-2{clip-path:url(#clip-path);}.cls-3{font-size:24px;}.cls-3,.cls-5,.cls-6{fill:#45338e;}.cls-3,.cls-5{font-family:AvenirNext-Regular, Avenir Next;}.cls-4{stroke:#45338e;stroke-linecap:round;stroke-linejoin:round;stroke-width:1.5px;}.cls-5,.cls-6{font-size:18px;}.cls-6{font-family:AvenirNext-Bold, Avenir Next;font-weight:700;}.cls-7{fill:#06aa90;}</style><clipPath id="clip-path" transform="translate(-193.07 -134.25)"><rect class="cls-1" x="177.61" y="130.19" width="527" height="230"/></clipPath></defs><g class="cls-2"><text class="cls-3" transform="translate(35.39 20.5)">SPU - 1</text><line class="cls-4" x1="0.75" y1="34.86" x2="498.93" y2="34.86"/><text class="cls-3" transform="translate(215.24 20.5)">SPU - 2</text><text class="cls-3" transform="translate(391.37 20.5)">SPU - 3</text><text class="cls-5" transform="translate(38.52 61.83)">topic-a/</text><text class="cls-6" transform="translate(102.19 61.83)">0</text><text class="cls-5" transform="translate(217.24 61.83)">topic-a/0</text><text class="cls-5" transform="translate(398.5 61.83)">topic-a/0</text><text class="cls-5" transform="translate(38.52 91.95)">topic-a/1</text><text class="cls-5" transform="translate(217.24 91.95)">topic-a/</text><text class="cls-6" transform="translate(280.91 91.95)">1</text><text class="cls-5" transform="translate(398.5 91.95)">topic-a/1</text><text class="cls-5" transform="translate(38.52 122.3)">topic-a/2</text><text class="cls-5" transform="translate(217.24 122.3)">topic-a/2</text><text class="cls-5" transform="translate(398.5 122.3)">topic-a/</text><text class="cls-6" transform="translate(462.16 122.3)">2</text><text class="cls-5" transform="translate(38.52 153.34)">topic-a/</text><text class="cls-6" transform="translate(102.19 153.34)">3</text><text class="cls-5" transform="translate(217.24 153.34)">topic-a/3</text><text class="cls-5" transform="translate(398.5 153.34)">topic-a/3</text><text class="cls-5" transform="translate(38.52 183.72)">topic-a/4</text><text class="cls-5" transform="translate(217.24 183.72)">topic-a/</text><text class="cls-6" transform="translate(280.91 183.72)">4</text><text class="cls-5" transform="translate(398.5 183.72)">topic-a/4</text><text class="cls-5" transform="translate(38.52 213.3)">topic-a/5</text><text class="cls-5" transform="translate(217.24 213.3)">topic-a/5</text><text class="cls-5" transform="translate(398.5 213.3)">topic-a/</text><text class="cls-6" transform="translate(462.16 213.3)">5</text><polygon class="cls-7" points="210.01 76.79 212.24 79.69 199.24 96.11 192.92 88.38 195.15 85.48 199.24 90.31 210.01 76.79"/><polygon class="cls-7" points="31.29 46.67 33.52 49.56 20.52 65.98 14.21 58.26 16.44 55.36 20.52 60.19 31.29 46.67"/><polygon class="cls-7" points="31.29 137.85 33.52 140.75 20.52 157.16 14.21 149.44 16.44 146.54 20.52 151.37 31.29 137.85"/><polygon class="cls-7" points="392.22 108.09 394.45 110.99 381.45 127.41 375.13 119.68 377.36 116.78 381.45 121.61 392.22 108.09"/><polygon class="cls-7" points="210.01 168.56 212.24 171.45 199.24 187.87 192.92 180.15 195.15 177.25 199.24 182.08 210.01 168.56"/><polygon class="cls-7" points="392.22 198.14 394.45 201.04 381.45 217.46 375.13 209.73 377.36 206.83 381.45 211.66 392.22 198.14"/></g></svg>