<svg id="Layer_1" data-name="Layer 1" xmlns="http://www.w3.org/2000/svg" xmlns:xlink="http://www.w3.org/1999/xlink" viewBox="0 0 494.97 260.88"><defs><style>.cls-1,.cls-24,.cls-4{fill:none;}.cls-2{clip-path:url(#clip-path);}.cls-3{fill:#fff;}.cls-24,.cls-4{stroke:#45338e;}.cls-4{stroke-linecap:round;stroke-linejoin:round;}.cls-5,.cls-9{font-size:20px;}.cls-11,.cls-17,.cls-25,.cls-5,.cls-9{font-family:AvenirNext-Regular, Avenir Next;}.cls-6{letter-spacing:-0.06em;}.cls-7{letter-spacing:-0.01em;}.cls-8{letter-spacing:0em;}.cls-17,.cls-9{fill:#45338e;}.cls-10{letter-spacing:-0.02em;}.cls-11{font-size:18px;}.cls-12{letter-spacing:-0.02em;}.cls-13{letter-spacing:0em;}.cls-14{letter-spacing:-0.01em;}.cls-15{letter-spacing:0em;}.cls-16{letter-spacing:-0.02em;}.cls-17,.cls-25{font-size:17px;}.cls-18{letter-spacing:-0.06em;}.cls-19{letter-spacing:-0.01em;}.cls-20{letter-spacing:0em;}.cls-21{letter-spacing:-0.01em;}.cls-22{letter-spacing:-0.01em;}.cls-23{letter-spacing:-0.02em;}.cls-24{stroke-miterlimit:10;}.cls-26{letter-spacing:-0.01em;}.cls-27{letter-spacing:0em;}.cls-28{letter-spacing:-0.03em;}.cls-29{letter-spacing:-0.05em;}.cls-30{letter-spacing:-0.01em;}.cls-31{letter-spacing:-0.03em;}</style><clipPath id="clip-path" transform="translate(-227.42 -107.94)"><rect class="cls-1" x="226.54" y="107.07" width="501" height="262"/></clipPath></defs><g class="cls-2"><rect class="cls-3" x="0.5" y="0.5" width="212.63" height="39.68"/><rect class="cls-4" x="0.5" y="0.5" width="212.63" height="39.68"/><text class="cls-5" transform="translate(20.97 26.84)"><tspan class="cls-6">P</tspan><tspan x="10.42" y="0">a</tspan><tspan class="cls-7" x="21.1" y="0">r</tspan><tspan class="cls-8" x="28.08" y="0">tition </tspan></text><text class="cls-9" transform="translate(100.53 26.84)"><tspan class="cls-7">C</tspan><tspan x="14.18" y="0">ont</tspan><tspan class="cls-10" x="44.36" y="0">r</tspan><tspan x="51.22" y="0">oller</tspan></text><rect class="cls-3" x="0.5" y="40.18" width="212.63" height="220.2"/><rect class="cls-4" x="0.5" y="40.18" width="212.63" height="220.2"/><text class="cls-11" transform="translate(36.59 74.37)">K<tspan class="cls-12" x="11.3" y="0">V</tspan><tspan class="cls-13" x="22.21" y="0"> </tspan><tspan class="cls-14" x="26.71" y="0">S</tspan><tspan class="cls-15" x="36.76" y="0">to</tspan><tspan class="cls-16" x="53.46" y="0">r</tspan><tspan x="59.63" y="0">e</tspan></text><text class="cls-17" transform="translate(46.95 102.62)"><tspan xml:space="preserve">add  </tspan><tspan class="cls-18" x="39.24" y="0">P</tspan><tspan x="48.09" y="0">a</tspan><tspan class="cls-19" x="57.17" y="0">r</tspan><tspan x="63.1" y="0">tition</tspan></text><text class="cls-17" transform="translate(46.95 128.63)">modify <tspan class="cls-18" x="58.04" y="0">P</tspan><tspan x="66.89" y="0">a</tspan><tspan class="cls-19" x="75.97" y="0">r</tspan><tspan x="81.91" y="0">tition</tspan></text><text class="cls-17" transform="translate(46.95 154.62)">delete <tspan class="cls-18" x="53.92" y="0">P</tspan><tspan class="cls-20" x="62.78" y="0">a</tspan><tspan class="cls-21" x="71.86" y="0">r</tspan><tspan x="77.79" y="0">tition</tspan></text><text class="cls-17" transform="translate(46.95 180.62)">modify SPU</text><polygon points="15.13 64.56 28.44 68.88 15.13 73.19 15.13 64.56"/><text class="cls-5" transform="translate(393.93 229.5)">K<tspan class="cls-10" x="12.56" y="0">V</tspan><tspan x="24.68" y="0"> </tspan></text><text class="cls-9" transform="translate(423.59 229.5)"><tspan class="cls-22">S</tspan><tspan x="11.18" y="0">to</tspan><tspan class="cls-23" x="29.74" y="0">r</tspan><tspan x="36.6" y="0">e</tspan></text><line class="cls-24" x1="236.75" y1="222.5" x2="363.93" y2="222.5"/><path class="cls-24" d="M591.35,327.44l8,3-8,3m8-3h-8" transform="translate(-227.42 -107.94)"/><text class="cls-25" transform="translate(268.73 109.12)">notify</text><line class="cls-24" x1="236.75" y1="119.13" x2="363.93" y2="119.13"/><path class="cls-24" d="M591.35,224.07l8,3-8,3m8-3h-8" transform="translate(-227.42 -107.94)"/><text class="cls-25" transform="translate(268.73 211.5)">upd<tspan class="cls-26" x="31.5" y="0">a</tspan><tspan class="cls-27" x="40.41" y="0">te</tspan></text><text class="cls-5" transform="translate(393.93 126.12)"><tspan class="cls-7">C</tspan><tspan x="14.18" y="0">onn</tspan><tspan class="cls-28" x="49.64" y="0">.</tspan><tspan x="54.24" y="0"> </tspan></text><text class="cls-9" transform="translate(453.15 126.12)">Mg<tspan class="cls-29" x="30.36" y="0">r</tspan><tspan x="36.62" y="0">.</tspan></text><text class="cls-17" transform="translate(49.59 240.95)">change LRS </text><polygon points="15.13 201.19 28.44 205.5 15.13 209.81 15.13 201.19"/><text class="cls-11" transform="translate(36.59 212.5)"><tspan class="cls-30">C</tspan><tspan x="12.76" y="0">onn</tspan><tspan class="cls-31" x="44.68" y="0">.</tspan><tspan x="48.82" y="0" xml:space="preserve"> Manager</tspan></text></g></svg>