<svg id="Layer_1" data-name="Layer 1" xmlns="http://www.w3.org/2000/svg" xmlns:xlink="http://www.w3.org/1999/xlink" viewBox="0 0 413.87 313.62"><defs><style>.cls-1,.cls-11,.cls-13,.cls-19,.cls-20,.cls-21,.cls-22,.cls-3,.cls-4,.cls-6,.cls-8,.cls-9{fill:none;}.cls-2{clip-path:url(#clip-path);}.cls-3,.cls-4,.cls-6{stroke:#a5a4a4;}.cls-19,.cls-20,.cls-22,.cls-3,.cls-4,.cls-8{stroke-miterlimit:10;}.cls-19,.cls-3{stroke-dasharray:4 4;}.cls-5{fill:#fff;}.cls-11,.cls-13,.cls-21,.cls-6,.cls-9{stroke-linecap:round;stroke-linejoin:round;}.cls-14,.cls-17,.cls-7{font-size:16px;}.cls-7{fill:#a5a4a4;}.cls-10,.cls-12,.cls-7{font-family:HelveticaNeue, Helvetica Neue;}.cls-8,.cls-9{stroke:#45338e;}.cls-10,.cls-12{font-size:15px;}.cls-10{fill:#45338e;}.cls-11{stroke:#8266a8;}.cls-12{fill:#8266a8;}.cls-13{stroke:#06aa90;}.cls-13,.cls-21,.cls-22{stroke-width:1.5px;}.cls-14,.cls-17{font-family:AvenirNext-Regular, Avenir Next;}.cls-15{letter-spacing:-0.05em;}.cls-16{letter-spacing:-0.02em;}.cls-17{letter-spacing:-0.01em;}.cls-18{letter-spacing:0em;}.cls-19,.cls-20{stroke:#d6d6d5;stroke-width:2px;}.cls-21,.cls-22{stroke:#ee3324;}</style><clipPath id="clip-path" transform="translate(-269.54 -196.61)"><rect class="cls-1" x="269.54" y="196.49" width="414" height="314"/></clipPath></defs><g class="cls-2"><line class="cls-3" x1="311.22" y1="169.5" x2="270.37" y2="169.5"/><path class="cls-4" d="M580.77,363.11l8,3-8,3m8-3h-8" transform="translate(-269.54 -196.61)"/><rect class="cls-5" x="0.5" y="131.25" width="86.63" height="58.5" rx="4"/><rect class="cls-6" x="0.5" y="131.25" width="86.63" height="58.5" rx="4"/><text class="cls-7" transform="translate(21 157.05)">SPU 1</text><text class="cls-7" transform="translate(19.07 175.5)">Leader</text><line class="cls-8" x1="216.35" y1="116.29" x2="170.12" y2="73.72"/><path class="cls-8" d="M487.92,310.7l3.85,7.63-7.91-3.22m7.91,3.22-5.88-5.42" transform="translate(-269.54 -196.61)"/><line class="cls-8" x1="178.42" y1="242.85" x2="222.25" y2="198"/><path class="cls-8" d="M450.11,441.56l-7.74,3.62,3.45-7.82m-3.45,7.82,5.59-5.72" transform="translate(-269.54 -196.61)"/><line class="cls-3" x1="161.73" y1="157.75" x2="95.63" y2="157.75"/><path class="cls-4" d="M431.27,351.36l8,3-8,3m8-3h-8" transform="translate(-269.54 -196.61)"/><rect class="cls-5" x="178.25" y="131.25" width="86.62" height="58.5" rx="4"/><rect class="cls-9" x="178.25" y="131.25" width="86.62" height="58.5" rx="4"/><text class="cls-10" transform="translate(200.17 157.08)">SPU 2</text><text class="cls-10" transform="translate(193.11 174.5)">Follower</text><rect class="cls-5" x="326.75" y="131.25" width="86.63" height="58.5" rx="4"/><rect class="cls-11" x="326.75" y="131.25" width="86.63" height="58.5" rx="4"/><text class="cls-12" transform="translate(348.67 157.08)">SPU 3</text><text class="cls-12" transform="translate(341.61 174.5)">Follower</text><path class="cls-5" d="M359.49,235l21.82-37.16a1,1,0,0,1,.87-.5h43.66a1,1,0,0,1,.86.5L448.52,235a1,1,0,0,1,0,1L426.7,273.19a1,1,0,0,1-.86.49H382.18a1,1,0,0,1-.87-.49L359.49,236A1,1,0,0,1,359.49,235Z" transform="translate(-269.54 -196.61)"/><path class="cls-13" d="M359.49,235l21.82-37.16a1,1,0,0,1,.87-.5h43.66a1,1,0,0,1,.86.5L448.52,235a1,1,0,0,1,0,1L426.7,273.19a1,1,0,0,1-.86.49H382.18a1,1,0,0,1-.87-.49L359.49,236A1,1,0,0,1,359.49,235Z" transform="translate(-269.54 -196.61)"/><text class="cls-14" transform="translate(101.39 43.91)"><tspan class="cls-15">P</tspan><tspan class="cls-16" x="8.53" y="0">r</tspan><tspan x="14.02" y="0">oducer</tspan></text><path class="cls-5" d="M358.25,470.81l21.82-37.16a1,1,0,0,1,.86-.49H424.6a1,1,0,0,1,.86.49l21.82,37.16a1,1,0,0,1,0,1L425.46,509a1,1,0,0,1-.86.49H380.93a1,1,0,0,1-.86-.49l-21.82-37.16A1,1,0,0,1,358.25,470.81Z" transform="translate(-269.54 -196.61)"/><path class="cls-13" d="M358.25,470.81l21.82-37.16a1,1,0,0,1,.86-.49H424.6a1,1,0,0,1,.86.49l21.82,37.16a1,1,0,0,1,0,1L425.46,509a1,1,0,0,1-.86.49H380.93a1,1,0,0,1-.86-.49l-21.82-37.16A1,1,0,0,1,358.25,470.81Z" transform="translate(-269.54 -196.61)"/><text class="cls-17" transform="translate(95.3 279.71)">C<tspan class="cls-18" x="11.34" y="0">onsumer</tspan></text><line class="cls-3" x1="172.47" y1="169.5" x2="96.47" y2="169.5"/><line class="cls-8" x1="216.9" y1="116.84" x2="170.67" y2="74.27"/><path class="cls-8" d="M488.47,311.25l3.85,7.63-7.91-3.22m7.91,3.22-5.88-5.42" transform="translate(-269.54 -196.61)"/><line class="cls-19" x1="54.27" y1="114.09" x2="93.88" y2="71.33"/><path class="cls-20" d="M326.45,313.15l-9.17,4.59,3.89-9.49m-3.89,9.49,6.53-7" transform="translate(-269.54 -196.61)"/><path class="cls-5" d="M348.75,282.78a10.56,10.56,0,0,1,0,14.32,9.19,9.19,0,0,1-13.53,0,10.56,10.56,0,0,1,0-14.32,9.21,9.21,0,0,1,13.53,0" transform="translate(-269.54 -196.61)"/><path class="cls-21" d="M348.75,282.78a10.56,10.56,0,0,1,0,14.32,9.19,9.19,0,0,1-13.53,0,10.56,10.56,0,0,1,0-14.32,9.21,9.21,0,0,1,13.53,0" transform="translate(-269.54 -196.61)"/><line class="cls-22" x1="66.76" y1="99.42" x2="78.37" y2="86.96"/><line class="cls-22" x1="78.37" y1="99.42" x2="66.76" y2="86.96"/><line class="cls-19" x1="85.98" y1="239.77" x2="50.64" y2="197.45"/><path class="cls-20" d="M358.29,434.08l3.39,9.67-8.92-5.06m8.92,5.06-6.16-7.36" transform="translate(-269.54 -196.61)"/><path class="cls-5" d="M344,408.57a10.56,10.56,0,0,1,0,14.32,9.18,9.18,0,0,1-13.52,0,10.54,10.54,0,0,1,0-14.32,9.19,9.19,0,0,1,13.52,0" transform="translate(-269.54 -196.61)"/><path class="cls-21" d="M344,408.57a10.56,10.56,0,0,1,0,14.32,9.18,9.18,0,0,1-13.52,0,10.54,10.54,0,0,1,0-14.32,9.19,9.19,0,0,1,13.52,0" transform="translate(-269.54 -196.61)"/><line class="cls-22" x1="62" y1="225.21" x2="73.61" y2="212.75"/><line class="cls-22" x1="73.61" y1="225.21" x2="62" y2="212.75"/><path class="cls-5" d="M410.77,353.33a10.56,10.56,0,0,1,0,14.32,9.19,9.19,0,0,1-13.52,0,10.54,10.54,0,0,1,0-14.32,9.19,9.19,0,0,1,13.52,0" transform="translate(-269.54 -196.61)"/><path class="cls-21" d="M410.77,353.33a10.56,10.56,0,0,1,0,14.32,9.19,9.19,0,0,1-13.52,0,10.54,10.54,0,0,1,0-14.32,9.19,9.19,0,0,1,13.52,0" transform="translate(-269.54 -196.61)"/><line class="cls-22" x1="128.78" y1="169.97" x2="140.39" y2="157.51"/><line class="cls-22" x1="140.39" y1="169.97" x2="128.78" y2="157.51"/></g></svg>