<svg id="Layer_1" data-name="Layer 1" xmlns="http://www.w3.org/2000/svg" xmlns:xlink="http://www.w3.org/1999/xlink" viewBox="0 0 413.88 313.62"><defs><style>.cls-1,.cls-3,.cls-5,.cls-7,.cls-9{fill:none;}.cls-2{clip-path:url(#clip-path);}.cls-3,.cls-5{stroke:#45338e;}.cls-3{stroke-miterlimit:10;}.cls-4{fill:#fff;}.cls-5,.cls-7,.cls-9{stroke-linecap:round;stroke-linejoin:round;}.cls-10,.cls-13,.cls-6{font-size:16px;}.cls-6{fill:#45338e;}.cls-6,.cls-8{font-family:HelveticaNeue, Helvetica Neue;}.cls-7{stroke:#8266a8;}.cls-8{font-size:15px;fill:#8266a8;}.cls-9{stroke:#06aa90;stroke-width:1.5px;}.cls-10,.cls-13{font-family:AvenirNext-Regular, Avenir Next;}.cls-11{letter-spacing:-0.05em;}.cls-12{letter-spacing:-0.02em;}.cls-13{letter-spacing:-0.01em;}.cls-14{letter-spacing:0em;}</style><clipPath id="clip-path" transform="translate(-278.29 -187.64)"><rect class="cls-1" x="277.92" y="187.26" width="415" height="314"/></clipPath></defs><g class="cls-2"><line class="cls-3" x1="311.22" y1="169.5" x2="270.38" y2="169.5"/><path class="cls-3" d="M589.52,354.14l8,3-8,3m8-3h-8" transform="translate(-278.29 -187.64)"/><rect class="cls-4" x="0.5" y="131.25" width="86.63" height="58.5" rx="4"/><rect class="cls-5" x="0.5" y="131.25" width="86.63" height="58.5" rx="4"/><text class="cls-6" transform="translate(21 157.05)">SPU 1</text><text class="cls-6" transform="translate(19.07 175.5)">Leader</text><line class="cls-3" x1="51.1" y1="114.08" x2="92.75" y2="69.13"/><path class="cls-3" d="M331.59,303.76,324,307.59l3.23-7.91M324,307.59l5.43-5.87" transform="translate(-278.29 -187.64)"/><line class="cls-3" x1="84.02" y1="244.28" x2="46.76" y2="199.65"/><path class="cls-3" d="M364.62,430l2.82,8.06L360,433.83m7.43,4.22-5.13-6.14" transform="translate(-278.29 -187.64)"/><line class="cls-3" x1="161.73" y1="157.75" x2="95.63" y2="157.75"/><path class="cls-3" d="M440,342.39l8,3-8,3m8-3h-8" transform="translate(-278.29 -187.64)"/><rect class="cls-4" x="178.25" y="131.25" width="86.63" height="58.5" rx="4"/><rect class="cls-7" x="178.25" y="131.25" width="86.63" height="58.5" rx="4"/><text class="cls-8" transform="translate(200.17 157.08)">SPU 2</text><text class="cls-8" transform="translate(193.11 174.5)">Follower</text><rect class="cls-4" x="326.75" y="131.25" width="86.63" height="58.5" rx="4"/><rect class="cls-7" x="326.75" y="131.25" width="86.63" height="58.5" rx="4"/><text class="cls-8" transform="translate(348.67 157.08)">SPU 3</text><text class="cls-8" transform="translate(341.61 174.5)">Follower</text><path class="cls-4" d="M368.24,226l21.82-37.16a1,1,0,0,1,.87-.49h43.66a1,1,0,0,1,.87.49L457.27,226a1,1,0,0,1,0,1l-21.81,37.16a1,1,0,0,1-.87.5H390.93a1,1,0,0,1-.87-.5l-21.82-37.16A1,1,0,0,1,368.24,226Z" transform="translate(-278.29 -187.64)"/><path class="cls-9" d="M368.24,226l21.82-37.16a1,1,0,0,1,.87-.49h43.66a1,1,0,0,1,.87.49L457.27,226a1,1,0,0,1,0,1l-21.81,37.16a1,1,0,0,1-.87.5H390.93a1,1,0,0,1-.87-.5l-21.82-37.16A1,1,0,0,1,368.24,226Z" transform="translate(-278.29 -187.64)"/><text class="cls-10" transform="translate(101.39 43.91)"><tspan class="cls-11">P</tspan><tspan class="cls-12" x="8.53" y="0">r</tspan><tspan x="14.02" y="0">oducer</tspan></text><path class="cls-4" d="M367,461.84l21.82-37.16a1,1,0,0,1,.86-.5h43.67a1,1,0,0,1,.86.5L456,461.84a1,1,0,0,1,0,1L434.21,500a1,1,0,0,1-.86.49H389.68a1,1,0,0,1-.86-.49L367,462.85A1,1,0,0,1,367,461.84Z" transform="translate(-278.29 -187.64)"/><path class="cls-9" d="M367,461.84l21.82-37.16a1,1,0,0,1,.86-.5h43.67a1,1,0,0,1,.86.5L456,461.84a1,1,0,0,1,0,1L434.21,500a1,1,0,0,1-.86.49H389.68a1,1,0,0,1-.86-.49L367,462.85A1,1,0,0,1,367,461.84Z" transform="translate(-278.29 -187.64)"/><text class="cls-13" transform="translate(95.3 279.71)">C<tspan class="cls-14" x="11.34" y="0">onsumer</tspan></text><line class="cls-3" x1="172.47" y1="169.5" x2="96.47" y2="169.5"/></g></svg>