<svg id="Layer_1" data-name="Layer 1" xmlns="http://www.w3.org/2000/svg" xmlns:xlink="http://www.w3.org/1999/xlink" viewBox="0 0 555.06 337.36"><defs><style>.cls-1,.cls-15,.cls-4,.cls-6,.cls-7,.cls-9{fill:none;}.cls-2{clip-path:url(#clip-path);}.cls-10,.cls-3{fill:#fff;}.cls-4,.cls-7{stroke:#45338e;}.cls-15,.cls-4,.cls-9{stroke-linecap:round;}.cls-15,.cls-4,.cls-6,.cls-9{stroke-linejoin:round;}.cls-11,.cls-12,.cls-16,.cls-5{fill:#45338e;}.cls-15,.cls-6{stroke:#fff;}.cls-6{stroke-width:0.25px;}.cls-7{stroke-miterlimit:10;}.cls-7,.cls-9{stroke-width:1.5px;}.cls-8{fill:#8266a8;}.cls-9{stroke:#538bc2;}.cls-10,.cls-11,.cls-16{font-size:18px;}.cls-10,.cls-11{font-family:AvenirNext-Regular, Avenir Next;}.cls-12{font-size:15px;font-family:HelveticaNeue, Helvetica Neue;}.cls-13{letter-spacing:-0.02em;}.cls-14{letter-spacing:0em;}.cls-15{stroke-width:2px;}.cls-16{font-family:MontserratAlternates-Regular, Montserrat Alternates;}</style><clipPath id="clip-path" transform="translate(-85.02 -76.53)"><rect class="cls-1" x="85.02" y="75.62" width="556" height="339"/></clipPath></defs><g class="cls-2"><rect class="cls-3" x="348.13" y="62.35" width="64.69" height="56.84" rx="4"/><rect class="cls-4" x="348.13" y="62.35" width="64.69" height="56.84" rx="4"/><path class="cls-5" d="M453.49,168.67c0,1,1,.49,1.48.25s.5,0,.62-.61V167.2a2.59,2.59,0,0,0-1.86.49c-.37.13-.86.74-.24,1" transform="translate(-85.02 -76.53)"/><path class="cls-5" d="M455.34,167.2a2.21,2.21,0,0,0-1.48.49,1.17,1.17,0,0,0-.5.74c0,.12.13.12.13.24a.9.9,0,0,0,.24.49,1,1,0,0,0,1.12-.36.43.43,0,0,1,.37-.13c.12,0,.12,0,.25-.36v-1ZM454,169.41c-.12,0-.25,0-.25-.12a.7.7,0,0,1-.37-.62.27.27,0,0,1-.25-.24,1.24,1.24,0,0,1,.5-.86,2.84,2.84,0,0,1,2-.49h.12v1.23c0,.36-.12.49-.37.49s-.25.12-.37.12A2.56,2.56,0,0,1,454,169.41Z" transform="translate(-85.02 -76.53)"/><path class="cls-5" d="M455.71,156.91c-3.83-1-1-5.76,2.11-3.8Z" transform="translate(-85.02 -76.53)"/><path class="cls-5" d="M456.33,152.75a2.48,2.48,0,0,0-1.24.36A2.28,2.28,0,0,0,454,155.2a2.11,2.11,0,0,0,1.73,1.59l2-3.68A2.53,2.53,0,0,0,456.33,152.75Zm-.49,4.28c-1.24-.24-1.86-.85-2-1.71a2.73,2.73,0,0,1,1.11-2.45,2.45,2.45,0,0,1,2.85.12h.12Z" transform="translate(-85.02 -76.53)"/><path class="cls-5" d="M472.67,152.75c3-2.09,5.69,2.57,2.22,3.79Z" transform="translate(-85.02 -76.53)"/><path class="cls-5" d="M472.79,152.75l2.1,3.67a2.12,2.12,0,0,0,1.49-1.71,2.62,2.62,0,0,0-1.11-2.21A2.51,2.51,0,0,0,472.79,152.75Zm2,3.92-2.35-3.92h.12a2.45,2.45,0,0,1,2.73-.25,2.3,2.3,0,0,1,1.23,2.33C476.5,155.32,476.26,156.18,474.77,156.67Z" transform="translate(-85.02 -76.53)"/><path class="cls-5" d="M473.29,180.68c.74.49,2.1,1.84,1,2.57-1.12,1-1.74-1.1-2.73-1.34A3,3,0,0,1,473.29,180.68Z" transform="translate(-85.02 -76.53)"/><path class="cls-5" d="M471.68,181.91a2.79,2.79,0,0,1,.86.85,1.92,1.92,0,0,0,1,.74.64.64,0,0,0,.5-.25.66.66,0,0,0,.37-.61c0-.61-.87-1.47-1.36-1.84A3.88,3.88,0,0,0,471.68,181.91Zm2,1.71c-.5,0-.87-.49-1.24-.86a3.39,3.39,0,0,0-1-.85h-.12l.12-.13a2.55,2.55,0,0,1,1.73-1.22h.13a3,3,0,0,1,1.48,2,.82.82,0,0,1-.49.73A.69.69,0,0,1,473.66,183.62Z" transform="translate(-85.02 -76.53)"/><path class="cls-5" d="M474.28,183.38h0c-.13-.13-.25-.25-.25-.37s-.13-.49-.37-.61v-.13h.12c.12.25.37.49.37.74s.13.24.13.37C474.4,183.25,474.4,183.38,474.28,183.38Z" transform="translate(-85.02 -76.53)"/><path class="cls-5" d="M459.67,182.4c-.86.12-1.36,1-2.1,1.34a.6.6,0,0,1-.87,0,.42.42,0,0,1-.12-.24c-.12,0-.25,0-.25-.12-.62-1,.62-1.72,1.36-2.33C458.56,180.8,459.05,181.66,459.67,182.4Z" transform="translate(-85.02 -76.53)"/><path class="cls-5" d="M456.33,183.38h.13v.12l.37.37a.7.7,0,0,0,.49-.13,2.88,2.88,0,0,0,.74-.61,2.59,2.59,0,0,1,1.24-.73c-.49-.62-1-1.35-1.85-1.11h-.13c-.74.49-1.61,1.11-1.11,2Zm.62.49h-.12a2,2,0,0,1-.5-.37c-.12,0-.25,0-.25-.12-.61-1,.5-1.72,1.12-2.21l.25-.12c1-.25,1.6.61,2.1,1.22l.25.25h-.13a3,3,0,0,0-1.36.73,4.78,4.78,0,0,1-.86.49C457.32,183.87,457.2,184,457,183.87Z" transform="translate(-85.02 -76.53)"/><path class="cls-5" d="M456.46,183.5h0l-.13-.12a1.81,1.81,0,0,1,.25-.74.27.27,0,0,0,.25-.24s.12-.13.12,0,.12.12,0,.12-.12.24-.25.37a2.17,2.17,0,0,1-.24.61Z" transform="translate(-85.02 -76.53)"/><path class="cls-5" d="M477.49,168.55c0,1-1,.49-1.48.25s-.5,0-.62-.62v-1.1a2.54,2.54,0,0,1,1.86.49c.24.12.74.74.24,1" transform="translate(-85.02 -76.53)"/><path class="cls-5" d="M475.51,167.08v1c0,.37,0,.37.25.37s.25.12.37.12a1.72,1.72,0,0,0,1.12.37.64.64,0,0,0,.24-.49v-.12c.13,0,.13-.13.13-.25s-.25-.49-.5-.73A6.83,6.83,0,0,0,475.51,167.08Zm1.49,2.08a1.44,1.44,0,0,1-1-.36.45.45,0,0,0-.37-.13c-.25-.12-.25-.12-.37-.49V167h.12a2.84,2.84,0,0,1,2,.49,1.21,1.21,0,0,1,.49.86c0,.12-.12.24-.24.36a.7.7,0,0,1-.37.62C477.25,169.16,477.12,169.29,477,169.16Z" transform="translate(-85.02 -76.53)"/><path class="cls-5" d="M465.12,150.79c3.83,0,7.3.49,9.28,4.16,1.61,4,1,8.46,1.36,12.74.25,3.68.74,8-1,11.4s-6.31,4.41-10,4.29c-3-.13-6.44-1-8.17-3.68-2-3.06-1-7.72-.87-11.15.13-4-1.11-8.21.25-12.25,1.24-4.29,5.07-5.27,9.16-5.51" transform="translate(-85.02 -76.53)"/><path class="cls-5" d="M465.12,150.79c-4,.36-7.8,1.22-9.28,5.39-.87,2.57-.62,5.26-.37,7.84a27.09,27.09,0,0,1,.12,4.41,12.81,12.81,0,0,1-.12,2.08c-.25,3.06-.5,6.5,1,9,.61,1,2.72,3.43,8,3.67,2.35.12,7.92-.12,10-4.29,1.49-3.06,1.24-6.86,1.12-10.17a3.22,3.22,0,0,0-.13-1.1c0-1.1-.12-2.33-.12-3.43,0-3.06,0-6.25-1.24-9.19a6.6,6.6,0,0,0-3.83-3.43A18.4,18.4,0,0,0,465.12,150.79Zm.12,32.59h-.74a14.46,14.46,0,0,1-4.58-.86,7.43,7.43,0,0,1-3.59-2.82c-1.61-2.57-1.24-6-1-9.07a12.5,12.5,0,0,0,.13-2.2,26.1,26.1,0,0,0-.25-4.41,18.76,18.76,0,0,1,.49-7.84,6.93,6.93,0,0,1,3.59-4.29,13.11,13.11,0,0,1,5.69-1.23c3.72,0,7.43.49,9.41,4.17,1.24,2.94,1.24,6.12,1.24,9.19,0,1.1,0,2.33.12,3.55a3.41,3.41,0,0,0,.12,1.1c.25,3.43.5,7.23-1.11,10.3C472.79,182.89,467.84,183.38,465.24,183.38Z" transform="translate(-85.02 -76.53)"/><path class="cls-3" d="M465.74,155.81c.74,3.92,7.17,2.94,6.18-1.1-.74-3.56-6.43-2.58-6.18,1.1" transform="translate(-85.02 -76.53)"/><path class="cls-5" d="M465.86,155.81a2.8,2.8,0,0,0,1.86,2.2,3.84,3.84,0,0,0,3.46-.61,2.53,2.53,0,0,0,.74-2.57,3.11,3.11,0,0,0-6.06,1Zm3,2.57a4.53,4.53,0,0,1-1.24-.24,2.74,2.74,0,0,1-1.11-4.66,3.07,3.07,0,0,1,2.1-1,3.12,3.12,0,0,1,2.11.37,2.59,2.59,0,0,1,1.36,1.84,2.73,2.73,0,0,1-.87,2.81A3.92,3.92,0,0,1,468.83,158.38Z" transform="translate(-85.02 -76.53)"/><path class="cls-3" d="M458.06,156.42c.87,3.43,6.32,2.57,6.19-.86-.25-4.16-7.05-3.3-6.19.86" transform="translate(-85.02 -76.53)"/><path class="cls-5" d="M458.06,156.42a2.88,2.88,0,0,0,3.47,2.08,2.85,2.85,0,0,0,2.6-2.94,2.5,2.5,0,0,0-1.61-2.32,3.28,3.28,0,0,0-3.47.49A2.58,2.58,0,0,0,458.06,156.42Zm2.85,2.21a4,4,0,0,1-1.61-.37,2.64,2.64,0,0,1-1.36-1.84,3,3,0,0,1,1-2.94,3.7,3.7,0,0,1,3.71-.49,2.85,2.85,0,0,1,1.61,2.57,2.9,2.9,0,0,1-2.72,3.07Z" transform="translate(-85.02 -76.53)"/><path class="cls-3" d="M466.48,160.46v1.6a.68.68,0,0,1-.62.36,1,1,0,0,1-.74-.49V160.1Z" transform="translate(-85.02 -76.53)"/><path class="cls-5" d="M465.37,161.93a1.19,1.19,0,0,0,.61.49h.13c.12,0,.25-.12.37-.24v-1.47l-1.11-.49v1.71Zm.61.62a.79.79,0,0,1-.74-.62v-2l1.36.49v1.6c-.12.12-.24.36-.49.36Z" transform="translate(-85.02 -76.53)"/><ellipse class="cls-5" cx="374.53" cy="79.28" rx="0.99" ry="0.98"/><path class="cls-3" d="M460.1,155.88a.25.25,0,1,1-.35.35.25.25,0,0,1,.35-.35Z" transform="translate(-85.02 -76.53)"/><path class="cls-5" d="M468,154.87a1.07,1.07,0,0,1,0,1.39.81.81,0,0,1-1.23,0,1.07,1.07,0,0,1,0-1.39A.81.81,0,0,1,468,154.87Z" transform="translate(-85.02 -76.53)"/><path class="cls-3" d="M467.89,155.64a.23.23,0,0,1,0,.34.24.24,0,0,1-.35,0,.23.23,0,0,1,0-.34A.24.24,0,0,1,467.89,155.64Z" transform="translate(-85.02 -76.53)"/><path class="cls-3" d="M463.88,160.46c-.37,1,.25,2.95,1.36,1.47V160.1Z" transform="translate(-85.02 -76.53)"/><path class="cls-5" d="M464,160.46c-.24.62-.12,1.6.25,1.84s.62-.12.87-.37v-1.71Zm.5,2.09c-.12,0-.25,0-.25-.13-.49-.24-.74-1.22-.49-2.08l1.61-.37v2.09A1.29,1.29,0,0,1,464.5,162.55Z" transform="translate(-85.02 -76.53)"/><path class="cls-5" d="M464,158.5a1.46,1.46,0,0,0-1.11,1.35.46.46,0,0,0,.12.37c.5,1,1.74-.12,2.48,0s1.48.86,2.23.12-.37-1.59-1.12-2Z" transform="translate(-85.02 -76.53)"/><path class="cls-3" d="M465.49,160.1a1.86,1.86,0,0,1,.87.24c.49.25.86.37,1.23,0a.9.9,0,0,0,.25-.61c-.12-.49-.74-.86-1.36-1.1l-2.48.12a1.23,1.23,0,0,0-.86.49,1.28,1.28,0,0,0,0,1c.25.49.86.37,1.36.12A3,3,0,0,1,465.49,160.1Zm1.61.73a1.74,1.74,0,0,1-.74-.24,3,3,0,0,0-.87-.25,1.91,1.91,0,0,0-.87.12c-.62.25-1.23.49-1.61-.24a1,1,0,0,1-.12-1,2,2,0,0,1,1-.74l2.48-.12c.61.25,1.36.74,1.48,1.23A.87.87,0,0,1,467.1,160.83Z" transform="translate(-85.02 -76.53)"/><path class="cls-5" d="M463.88,158.5c0-1.34,2.48-1.47,2.72-.36S464,159.48,463.88,158.5Z" transform="translate(-85.02 -76.53)"/><path class="cls-6" d="M463.88,158.5c0-1.34,2.48-1.47,2.72-.36S464,159.48,463.88,158.5Z" transform="translate(-85.02 -76.53)"/><rect class="cls-3" x="0.5" y="126.08" width="84" height="68" rx="4"/><rect class="cls-4" x="0.5" y="126.08" width="84" height="68" rx="4"/><line class="cls-7" x1="124.05" y1="265.04" x2="222.24" y2="206.85"/><path class="cls-7" d="M210.75,344.41l-9.25,1.64,5.88-7.32m-5.88,7.32,7.57-4.48" transform="translate(-85.02 -76.53)"/><line class="cls-7" x1="378.93" y1="265.04" x2="280.74" y2="206.85"/><path class="cls-7" d="M465.63,338.73l5.89,7.32-9.25-1.64m9.25,1.64L464,341.57" transform="translate(-85.02 -76.53)"/><line class="cls-7" x1="246.35" y1="259.45" x2="246.35" y2="206.85"/><path class="cls-7" d="M334.67,336l-3.3,8.8-3.3-8.8m3.3,8.8V336" transform="translate(-85.02 -76.53)"/><rect class="cls-8" x="196.97" y="136.91" width="103.42" height="47.53"/><rect class="cls-9" x="196.97" y="136.91" width="103.42" height="47.53"/><text class="cls-10" transform="translate(237.12 166.18)">SC</text><rect class="cls-3" x="54.82" y="289.33" width="103.42" height="47.53"/><rect class="cls-4" x="54.82" y="289.33" width="103.42" height="47.53"/><text class="cls-11" transform="translate(89.85 318.6)">SPU</text><line class="cls-7" x1="248.18" y1="70.24" x2="248.18" y2="115.68"/><path class="cls-7" d="M336.5,192.21l-3.3,8.8-3.3-8.8m3.3,8.8v-8.8" transform="translate(-85.02 -76.53)"/><rect class="cls-3" x="195.45" y="289.33" width="103.42" height="47.53"/><rect class="cls-4" x="195.45" y="289.33" width="103.42" height="47.53"/><text class="cls-11" transform="translate(230.47 318.6)">SPU</text><rect class="cls-3" x="335.45" y="289.33" width="103.42" height="47.53"/><rect class="cls-4" x="335.45" y="289.33" width="103.42" height="47.53"/><text class="cls-11" transform="translate(370.47 318.6)">SPU</text><path class="cls-3" d="M297.5,77h72.4c8.56,0,15.51,13.42,15.51,30s-7,30-15.51,30H297.5c-8.56,0-15.51-13.42-15.51-30S288.94,77,297.5,77Z" transform="translate(-85.02 -76.53)"/><path class="cls-4" d="M297.5,77h72.4c8.56,0,15.51,13.42,15.51,30s-7,30-15.51,30H297.5c-8.56,0-15.51-13.42-15.51-30S288.94,77,297.5,77Z" transform="translate(-85.02 -76.53)"/><text class="cls-12" transform="translate(219.09 51.99)">KV Sto<tspan class="cls-13" x="46.39" y="0">r</tspan><tspan class="cls-14" x="51.13" y="0">e</tspan></text><text class="cls-11" transform="translate(29.09 179.47)">CLI</text><rect class="cls-8" x="185.42" y="148.02" width="103.42" height="47.53"/><rect class="cls-15" x="185.42" y="148.02" width="103.42" height="47.53"/><text class="cls-10" transform="translate(225.58 177.29)">SC</text><line class="cls-7" x1="95.43" y1="164.54" x2="163.09" y2="164.54"/><path class="cls-7" d="M248.11,237.77l8.8,3.3-8.8,3.3m8.8-3.3h-8.8" transform="translate(-85.02 -76.53)"/><line class="cls-7" x1="327.29" y1="164.1" x2="394.94" y2="164.1"/><path class="cls-7" d="M412.31,243.93l-8.8-3.3,8.8-3.3m-8.8,3.3h8.8" transform="translate(-85.02 -76.53)"/><text class="cls-16" transform="translate(15.3 157.19)">Fluvio</text><path class="cls-5" d="M332.63,95.62a1.95,1.95,0,1,1-1.95-1.94A1.89,1.89,0,0,1,332.63,95.62Zm2.53,0a1.95,1.95,0,1,0,1.94-1.94A1.89,1.89,0,0,0,335.16,95.62Zm3.21,7.17a17.67,17.67,0,0,1-4.48.59,17.08,17.08,0,0,1-4.47-.59,19.58,19.58,0,0,1-1.95-4.07,14,14,0,0,1-.77-4.46,16.75,16.75,0,0,1,3.3-3.1A15.81,15.81,0,0,1,334,89a19.81,19.81,0,0,1,4,2.13,20.13,20.13,0,0,1,3.31,3.1,22.62,22.62,0,0,1-.78,4.46A27,27,0,0,1,338.37,102.79Zm9.72-5.13h-.38a5.41,5.41,0,0,1-2.44-.58,15.8,15.8,0,0,0,.3-4.27,30,30,0,0,0-2.73-3.3,4.89,4.89,0,0,1,2-2l.39-.2-.39-.29a12.78,12.78,0,0,0-5.06-3.68l-.39-.19-.1.38A4.87,4.87,0,0,1,337.88,86a20.31,20.31,0,0,0-4-1.64,20.23,20.23,0,0,0-4,1.64,4.89,4.89,0,0,1-1.37-2.52l-.09-.38-.39.19A13.64,13.64,0,0,0,323,87l-.29.29.39.2a5.54,5.54,0,0,1,1.94,2,17.75,17.75,0,0,0-2.72,3.3,32.36,32.36,0,0,0,.29,4.27,5.69,5.69,0,0,1-2.43.58h-.88V98a15.08,15.08,0,0,0,1.95,6l.19.39.29-.29a5.44,5.44,0,0,1,2.63-1.16,16.87,16.87,0,0,0,2.24,3.59,29.73,29.73,0,0,0,4.18,1.06,5.47,5.47,0,0,1-.39,2.81l-.19.39.39.1a18.61,18.61,0,0,0,3.11.39l3.11-.39.39-.1-.19-.39a5.85,5.85,0,0,1-.39-2.91,20.33,20.33,0,0,0,4.18-1.06,27.91,27.91,0,0,0,2.24-3.59,6.53,6.53,0,0,1,2.62,1.16l.29.3.2-.39a14.52,14.52,0,0,0,1.94-6v-.29Z" transform="translate(-85.02 -76.53)"/><rect class="cls-3" x="381.88" y="92.63" width="64.69" height="56.84" rx="4"/><rect class="cls-4" x="381.88" y="92.63" width="64.69" height="56.84" rx="4"/><path class="cls-5" d="M494.08,186.39a.81.81,0,0,1-.79-.71.73.73,0,0,1,.79-.71.8.8,0,0,1,.79.71C495,186,494.61,186.39,494.08,186.39Zm11.77.59a6.33,6.33,0,0,0-6.61-6h-1.46a6.33,6.33,0,0,0-6.61,6,1,1,0,0,0,.93,1h6.34v1.42h-9.65a6.32,6.32,0,0,0-6.61,6v1.3a6.33,6.33,0,0,0,6.61,6h1.32a.89.89,0,0,0,.93-.95v-4.14a1,1,0,0,1,.92-.95h12.83a.89.89,0,0,0,.93-.95Z" transform="translate(-85.02 -76.53)"/><path class="cls-5" d="M504.39,208.65a.81.81,0,0,1,.8.71.73.73,0,0,1-.8.71.82.82,0,0,1-.79-.71A.81.81,0,0,1,504.39,208.65Zm5.43-16.46h-1.33a.89.89,0,0,0-.92.95v4.14a1,1,0,0,1-.93.95h-13a.88.88,0,0,0-.92.94v9a6.32,6.32,0,0,0,6.61,6h1.32a6.32,6.32,0,0,0,6.61-6,1,1,0,0,0-.92-.95H500V205.8h9.65a6.32,6.32,0,0,0,6.62-6v-1.31A6.25,6.25,0,0,0,509.82,192.19Z" transform="translate(-85.02 -76.53)"/><rect class="cls-3" x="417.88" y="124.38" width="64.69" height="56.81" rx="4"/><rect class="cls-4" x="417.88" y="124.38" width="64.69" height="56.81" rx="4"/><path class="cls-5" d="M539.11,236.38c-5.58,0-6.71-2.48-6.71-4.64,0-.22.11-.32.34-.32h1.7c.23,0,.34.1.34.32.23,1.62,1,2.48,4.44,2.48,2.73,0,3.87-.54,3.87-1.94,0-.76-.34-1.4-4.55-1.83-3.53-.33-5.69-1.08-5.69-3.78,0-2.48,2.16-4,5.8-4,4.1,0,6.14,1.4,6.37,4.32a.39.39,0,0,1-.11.32c-.12.11-.12.11-.23.11H543a.36.36,0,0,1-.34-.33c-.34-1.72-1.36-2.26-4-2.26-3,0-3.3,1-3.3,1.72s.46,1.19,4.44,1.73,5.8,1.19,5.8,3.88S543.2,236.38,539.11,236.38Zm-3.87,9.81a3.26,3.26,0,0,1-1.37-.32l-4.2-2.48c-.69-.33-.35-.44-.12-.54a7.89,7.89,0,0,0,1.94-.87c.11-.1.22,0,.34,0l3.3,2c.11.1.34.1.34,0l12.74-7.23c.11-.11.22-.21.22-.32V222.14c0-.1-.11-.32-.22-.32l-12.86-7.12c-.11-.1-.34-.1-.34,0l-12.74,7.12c-.11.11-.23.22-.23.32v14.35c0,.1.12.32.23.32l3.53,1.94c1.93,1,3.07-.11,3.07-1.29v-14c0-.22.11-.33.34-.33h1.59c.23,0,.34.11.34.33v14.12c0,2.48-1.36,3.89-3.75,3.89a5.81,5.81,0,0,1-3-.76L521,238.86a2.83,2.83,0,0,1-1.25-2.37V222.25a2.4,2.4,0,0,1,1.37-2.26l12.73-7.23a3,3,0,0,1,2.73,0L549.34,220a2.6,2.6,0,0,1,1.37,2.26v14.34a2.41,2.41,0,0,1-1.37,2.27l-12.74,7.22A5.68,5.68,0,0,1,535.24,246.19Z" transform="translate(-85.02 -76.53)"/><rect class="cls-3" x="452.19" y="152.82" width="64.69" height="56.84" rx="4"/><rect class="cls-4" x="452.19" y="152.82" width="64.69" height="56.84" rx="4"/><path class="cls-5" d="M569.34,245.39c-1.83,1.32-3.79,2.76-4.89,5.05-1.84,4.2,3.91,8.65,4.16,8.89a.42.42,0,0,0,.24.12c.12,0,.12,0,.25-.12a.44.44,0,0,0,.12-.36s-2.08-4.09-2-7c0-1,1.47-2.17,2.94-3.37a16.43,16.43,0,0,0,3.79-3.84c1.71-3.25-.49-6.49-.49-6.49a.47.47,0,0,0-.37-.12c-.12.12-.24.24-.12.36a6.59,6.59,0,0,1-.74,4.33A10.22,10.22,0,0,1,569.34,245.39Z" transform="translate(-85.02 -76.53)"/><path class="cls-5" d="M576.92,246.83a.44.44,0,0,0,.12-.36c-.12-.12-.24-.24-.36-.12s-7.46,2.88-7.46,6.25a6.6,6.6,0,0,0,1.71,4.44,4.27,4.27,0,0,1,.61,1c.25.73-.37,2.05-.49,2.53-.12.12,0,.24.12.36a.46.46,0,0,0,.25.12h.12c.12-.12,3.06-2.16,2.45-4.57a5.92,5.92,0,0,0-1.1-2.28c-.62-1-1.1-1.56-.37-2.88C573.25,249.59,576.92,246.83,576.92,246.83Z" transform="translate(-85.02 -76.53)"/><path class="cls-5" d="M558.33,260.89a1.14,1.14,0,0,0,.13,1.08c.73,1.08,3.54,1.68,7.7,1.68H568c6.73-.24,9.3-2.4,9.3-2.4a.44.44,0,0,0,.12-.36c-.12-.12-.24-.24-.37-.12a49.82,49.82,0,0,1-9.9.84c-3.43,0-5.14-.24-5.63-.48a7.64,7.64,0,0,1,3.31-1.2c.12,0,.24-.24.24-.36s-.12-.24-.37-.24C563.71,259.33,558.82,259.33,558.33,260.89Z" transform="translate(-85.02 -76.53)"/><path class="cls-5" d="M580.83,258.73a8.47,8.47,0,0,0-2.81.72c-.12.12-.24.24-.12.36s.12.24.37.24c0,0,2.93,0,3.17,1.68.25,1.44-2.81,3.84-3.91,4.56a.47.47,0,0,0-.12.37.26.26,0,0,0,.24.24h.13c.24-.12,6.84-1.57,6.11-5.41C583.4,259.21,581.93,258.73,580.83,258.73Z" transform="translate(-85.02 -76.53)"/><path class="cls-5" d="M576.31,265.93a.44.44,0,0,0-.12-.36l-1.59-1.08c-.12,0-.12-.12-.25,0a26.66,26.66,0,0,1-4,.72,25.09,25.09,0,0,1-3.06.12c-2.44,0-3.91-.24-4.16-.48v-.12c0-.12.25-.24.37-.36s.24-.24.24-.36-.24-.24-.36-.24c-1.59.36-2.33,1-2.33,1.56.13,1.21,2.82,1.81,5.14,1.93h1.1a48.27,48.27,0,0,0,8.93-1.21C576.19,266.17,576.31,266.05,576.31,265.93Z" transform="translate(-85.02 -76.53)"/><path class="cls-5" d="M564.45,268.46a.44.44,0,0,0,.12-.36c0-.12-.12-.24-.37-.24s-2.07.12-2.2,1.32a2.26,2.26,0,0,0,.25,1q.91,1.26,5.5,1.44h1.1a14.8,14.8,0,0,0,6.6-1.32c.13,0,.13-.12.13-.24s0-.24-.13-.24l-2-1.2h-.25s-1.22.24-3.18.48c-.36,0-.85.12-1.34.12a20.77,20.77,0,0,1-4.4-.48C564.33,268.58,564.33,268.58,564.45,268.46Z" transform="translate(-85.02 -76.53)"/><path class="cls-5" d="M567.14,275.31c8.8,0,13.57-1.57,14.55-2.65a.88.88,0,0,0,.37-.84c-.13-.48-.62-.84-.62-1s-.36-.12-.36,0a.22.22,0,0,0,0,.36c0,.12.12.24-.12.36-.37.36-4,1.44-10.15,1.68-.86,0-1.71.12-2.57.12-5.5,0-9.54-.72-10-1.2a10.91,10.91,0,0,1,3.18-1.08c.12,0,.25-.24.25-.36-.25,0-.37-.12-.62-.12h-.36c-2.45.12-5.38.48-5.5,1.8a1.94,1.94,0,0,0,.36,1.08C556.13,274.34,558.09,275.31,567.14,275.31Z" transform="translate(-85.02 -76.53)"/><path class="cls-5" d="M583.4,273a.47.47,0,0,0-.37.12s-1.34,1.45-5.38,2.29a46.31,46.31,0,0,1-8.55.48c-4.16,0-8.08-.12-8.2-.12s-.36.12-.36.24.12.36.24.36a48.1,48.1,0,0,0,9.78,1,54.53,54.53,0,0,0,7.83-.6c4.64-.84,5-3.13,5-3.25C583.65,273.14,583.52,273,583.4,273Z" transform="translate(-85.02 -76.53)"/><rect class="cls-3" x="489.88" y="183.19" width="64.69" height="56.84" rx="4"/><rect class="cls-4" x="489.88" y="183.19" width="64.69" height="56.84" rx="4"/><path class="cls-5" d="M620.32,283.24a1.34,1.34,0,0,1,1.63-.64,1.17,1.17,0,0,1,.54,1.55,1.34,1.34,0,0,1-1.63.64A1.17,1.17,0,0,1,620.32,283.24Zm-14-10.95a1.28,1.28,0,0,1,1.63,0,1.17,1.17,0,1,1-1.63,0ZM622,287.88v1h-1.5c-.13,0-.13.13-.13.26v.64a1.86,1.86,0,0,1-1.77,2.07c-.81.12-1.63-.26-1.76-.78a4.8,4.8,0,0,0-2.45-3.86c1.5-.9,3-2.19,3-4a4.55,4.55,0,0,0-2.31-3.73,6,6,0,0,0-3.12-1H596.41a15.38,15.38,0,0,1,8.15-4.51l1.9,1.8a1.11,1.11,0,0,0,1.5,0l2-1.93a14.64,14.64,0,0,1,10,7l-1.36,3.09a1.05,1.05,0,0,0,.54,1.41l2.72,1.16Zm-18.07-2.32v-2.7h5c.27,0,1.76.25,1.76,1.41,0,.91-1.22,1.29-2.17,1.29Zm-11.14.9,2.45-1.16a1.05,1.05,0,0,0,.54-1.41l-.4-1.16h2v9.15h-4.21a12.61,12.61,0,0,1-.54-3.87A6.25,6.25,0,0,1,592.74,286.46Zm1.36-3.22a1.22,1.22,0,0,1-.54,1.55,1.27,1.27,0,0,1-1.63-.64,1.18,1.18,0,1,1,2.17-.91Zm4.49,17.91a1.11,1.11,0,0,1-1.36-.9,1.19,1.19,0,0,1,.95-1.42,1.12,1.12,0,0,1,1.36.91A1.19,1.19,0,0,1,598.59,301.15Zm16.57-3.73a1.2,1.2,0,0,0-1.36.77l-.54,2.7a16.07,16.07,0,0,1-6.12,1.29,15.52,15.52,0,0,1-6.11-1.29l-.54-2.7a1.13,1.13,0,0,0-1.36-.77l-2.45.51c-.4-.51-.81-.9-1.22-1.42h11.95c.14,0,.28,0,.28-.12v-4.13c0-.13-.14-.13-.28-.13h-3.53v-2.57h3.81a2.4,2.4,0,0,1,2.31,1.93c.13.51.54,2.45.67,3.09.28.65,1.23,2.06,2.18,2.06h6.25a14.51,14.51,0,0,1-1.36,1.55Zm.68,3.73a1.18,1.18,0,1,1,1.35-.9A1.18,1.18,0,0,1,615.84,301.15Zm11.27-13.53-1.77-1v-.51l1.5-1.29c.13-.13.27-.39.13-.52a.42.42,0,0,0-.4-.38l-1.91-.65c0-.13-.13-.25-.13-.51l1.22-1.55a.36.36,0,0,0,0-.51l-.41-.39-1.9-.26c-.13-.13-.13-.26-.27-.38l.82-1.81c.13-.13,0-.38,0-.51a.74.74,0,0,0-.55-.26h-2c-.13-.13-.13-.26-.27-.39l.41-1.8a.74.74,0,0,0-.14-.52c-.13-.13-.27-.13-.54-.13l-1.9.39c-.14-.13-.27-.13-.41-.26v-1.93a.94.94,0,0,0-.27-.52.45.45,0,0,0-.54,0l-1.77.78c-.13-.13-.27-.26-.41-.26l-.27-1.93c0-.13-.13-.39-.27-.39s-.41,0-.54,0l-1.63,1.16c-.14,0-.27-.13-.55-.13l-.67-1.8c0-.13-.28-.39-.41-.39a.86.86,0,0,0-.55.13l-1.35,1.42h-.55l-1.08-1.68c0-.13-.28-.26-.41-.26a1,1,0,0,0-.54.26l-1.09,1.68h-.54l-1.36-1.42a.58.58,0,0,0-1,.26l-.55,1.8c-.13,0-.27.13-.54.13l-1.63-1.16a.42.42,0,0,0-.54,0c-.14.13-.28.26-.28.39l-.4,1.93c-.14.13-.27.13-.41.26l-1.77-.78c-.13-.12-.4,0-.54,0s-.27.26-.27.52v1.93c-.14.13-.27.13-.41.26l-1.9-.39a.82.82,0,0,0-.54.13c-.14.13-.14.26-.14.52l.41,1.8c0,.13-.14.26-.27.39h-2a1,1,0,0,0-.54.26,1,1,0,0,0,.13.51l.82,1.81c-.14,0-.28.12-.28.38l-1.9.26a.42.42,0,0,0-.4.39c-.14.13,0,.38,0,.51l1.08,1.55c0,.13-.13.26-.13.51l-1.9.65c-.14,0-.28.26-.41.38a.78.78,0,0,0,.13.52l1.5,1.29v.51l-1.63,1a.65.65,0,0,0-.27.52.88.88,0,0,0,.27.51l1.63,1v.51l-1.5,1.29c-.13.13-.27.39-.13.51a.42.42,0,0,0,.41.39l2,.65c0,.12.14.25.14.51l-1.22,1.55a.36.36,0,0,0,0,.51l.4.39,1.9.26c.14.13.14.25.28.38l-.82,1.81c-.13.13,0,.38,0,.51a.72.72,0,0,0,.54.26h2c.14.13.14.26.27.39l-.4,1.8a.78.78,0,0,0,.13.52c.14.12.27.12.55.12l1.9-.38c.13.13.27.13.4.26v1.93a.94.94,0,0,0,.28.51.42.42,0,0,0,.54,0l1.77-.77c.13.13.27.13.4.26l.27,1.93c0,.13.14.39.28.39s.4,0,.54,0l1.63-1.16c.14,0,.27.13.54.13l.68,1.8a.6.6,0,0,0,.41.39.82.82,0,0,0,.54-.13l1.36-1.42h.54l1.09,1.68a.75.75,0,0,0,.54.25,1.13,1.13,0,0,0,.55-.25l1.08-1.68h.55l1.36,1.42a.41.41,0,0,0,.54.13.43.43,0,0,0,.41-.39l.68-1.8c.13,0,.27-.13.54-.13l1.63,1.16a.42.42,0,0,0,.54,0c.14-.13.27-.26.27-.39l.28-1.93c.13-.13.27-.13.4-.26l1.77.77c.13.13.41,0,.54,0s.27-.25.27-.51v-1.93c.14-.13.28-.13.41-.26l1.9.38a.92.92,0,0,0,.55-.12.78.78,0,0,0,.13-.52l-.68-1.93c.14-.13.14-.26.27-.39h2a1.07,1.07,0,0,0,.55-.26.38.38,0,0,0,0-.51l-.82-1.81c.14-.12.14-.25.27-.38l1.9-.26a.43.43,0,0,0,.41-.39c.14-.13,0-.38,0-.51l-1.22-1.55c0-.13.13-.26.13-.51l1.91-.65c.13,0,.27-.26.4-.38s0-.39-.13-.52l-1.5-1.29v-.51l1.63-1a.66.66,0,0,0,.28-.52C627.38,287.88,627.25,287.75,627.11,287.62Z" transform="translate(-85.02 -76.53)"/></g></svg>