<svg id="Layer_1" data-name="Layer 1" xmlns="http://www.w3.org/2000/svg" xmlns:xlink="http://www.w3.org/1999/xlink" viewBox="0 0 476.23 255.68"><defs><style>.cls-1,.cls-11,.cls-13,.cls-16,.cls-17,.cls-18,.cls-4{fill:none;}.cls-2{clip-path:url(#clip-path);}.cls-3{fill:#fff;}.cls-11,.cls-13,.cls-16,.cls-4{stroke:#2a1b3c;stroke-linejoin:round;}.cls-11,.cls-4{stroke-linecap:round;stroke-width:1.5px;}.cls-4{stroke-dasharray:6 6;}.cls-5{font-size:16px;fill:#45338e;font-family:AvenirNext-Regular, Avenir Next;}.cls-6{letter-spacing:-0.01em;}.cls-7{letter-spacing:-0.02em;}.cls-8{letter-spacing:-0.01em;}.cls-9{letter-spacing:-0.05em;}.cls-10{letter-spacing:-0.02em;}.cls-12{letter-spacing:-0.02em;}.cls-13{stroke-width:3px;stroke-dasharray:3 9;}.cls-14{letter-spacing:-0.01em;}.cls-15{letter-spacing:-0.01em;}.cls-16{stroke-width:2px;}.cls-17,.cls-18{stroke:#45338e;stroke-miterlimit:10;stroke-width:1.25px;}.cls-18{stroke-dasharray:5 5;}</style><clipPath id="clip-path" transform="translate(-0.13 -0.38)"><rect class="cls-1" width="477" height="257"/></clipPath></defs><g class="cls-2"><rect class="cls-3" x="348.38" y="172.87" width="127.1" height="82.05"/><rect class="cls-4" x="348.38" y="172.87" width="127.1" height="82.05"/><text class="cls-5" transform="translate(374.62 197.78)"><tspan class="cls-6">S</tspan><tspan x="8.93" y="0">t</tspan><tspan class="cls-7" x="14" y="0">r</tspan><tspan class="cls-8" x="19.49" y="0">e</tspan><tspan x="28.56" y="0">aming </tspan></text><text class="cls-5" transform="translate(355.8 219.78)"><tspan class="cls-9">P</tspan><tspan class="cls-10" x="8.53" y="0">r</tspan><tspan x="14.02" y="0">ocessing Unit</tspan></text><text class="cls-5" transform="translate(392.29 241.78)">(SPU)</text><rect class="cls-3" x="174.56" y="172.87" width="127.1" height="82.05"/><rect class="cls-11" x="174.56" y="172.87" width="127.1" height="82.05"/><text class="cls-5" transform="translate(200.81 197.78)"><tspan class="cls-8">S</tspan><tspan x="8.94" y="0">t</tspan><tspan class="cls-12" x="14.02" y="0">r</tspan><tspan class="cls-8" x="19.5" y="0">e</tspan><tspan x="28.58" y="0">aming </tspan></text><text class="cls-5" transform="translate(181.99 219.78)"><tspan class="cls-9">P</tspan><tspan class="cls-12" x="8.53" y="0">r</tspan><tspan x="14.02" y="0">ocessing Unit</tspan></text><text class="cls-5" transform="translate(218.48 241.78)">(SPU)</text><line class="cls-13" x1="301.67" y1="213.9" x2="348.38" y2="213.9"/><rect class="cls-3" x="174.56" y="0.75" width="127.1" height="82.05"/><rect class="cls-11" x="174.56" y="0.75" width="127.1" height="82.05"/><text class="cls-5" transform="translate(200.81 25.19)"><tspan class="cls-8">S</tspan><tspan x="8.94" y="0">t</tspan><tspan class="cls-12" x="14.02" y="0">r</tspan><tspan class="cls-8" x="19.5" y="0">e</tspan><tspan x="28.58" y="0">aming </tspan></text><text class="cls-5" transform="translate(201.27 47.19)"><tspan class="cls-14">C</tspan><tspan x="11.34" y="0">ont</tspan><tspan class="cls-12" x="35.49" y="0">r</tspan><tspan x="40.98" y="0">oller</tspan></text><text class="cls-5" transform="translate(223.04 69.19)">(SC)</text><rect class="cls-3" x="0.75" y="172.87" width="127.1" height="82.05"/><rect class="cls-11" x="0.75" y="172.87" width="127.1" height="82.05"/><text class="cls-5" transform="translate(27 197.78)"><tspan class="cls-15">S</tspan><tspan x="8.93" y="0">t</tspan><tspan class="cls-12" x="14" y="0">r</tspan><tspan class="cls-8" x="19.49" y="0">e</tspan><tspan x="28.56" y="0">aming </tspan></text><text class="cls-5" transform="translate(8.17 219.78)"><tspan class="cls-9">P</tspan><tspan class="cls-12" x="8.53" y="0">r</tspan><tspan x="14.02" y="0">ocessing Unit</tspan></text><text class="cls-5" transform="translate(44.67 241.78)">(SPU)</text><line class="cls-16" x1="127.85" y1="213.9" x2="174.56" y2="213.9"/><line class="cls-17" x1="94.04" y1="153.2" x2="183.71" y2="100.05"/><path class="cls-17" d="M182.23,97.72l8.83-1.57-5.62,7m5.62-7-7.22,4.28" transform="translate(-0.13 -0.38)"/><path class="cls-17" d="M95.77,156.28l-8.83,1.57,5.62-7m-5.62,7,7.22-4.28" transform="translate(-0.13 -0.38)"/><line class="cls-18" x1="381.71" y1="153.2" x2="292.04" y2="100.05"/><path class="cls-17" d="M290.56,103.14l-5.62-7,8.83,1.57m-8.83-1.57,7.22,4.28" transform="translate(-0.13 -0.38)"/><path class="cls-17" d="M383.44,150.86l5.62,7-8.83-1.57m8.83,1.57-7.22-4.28" transform="translate(-0.13 -0.38)"/><line class="cls-17" x1="238.11" y1="147.98" x2="238.11" y2="105.27"/><path class="cls-17" d="M235.09,105.65l3.15-8.4,3.15,8.4m-3.15-8.4v8.4" transform="translate(-0.13 -0.38)"/><path class="cls-17" d="M241.39,148.35l-3.15,8.4-3.15-8.4m3.15,8.4v-8.4" transform="translate(-0.13 -0.38)"/></g></svg>