<svg id="Layer_1" data-name="Layer 1" xmlns="http://www.w3.org/2000/svg" xmlns:xlink="http://www.w3.org/1999/xlink" viewBox="0 0 943.51 362.36"><defs><style>.cls-1,.cls-17,.cls-24,.cls-26,.cls-33,.cls-4{fill:none;}.cls-2{clip-path:url(#clip-path);}.cls-3{fill:#fff;}.cls-24,.cls-4{stroke:#45338e;}.cls-17,.cls-26,.cls-4{stroke-linecap:round;stroke-linejoin:round;}.cls-25,.cls-28,.cls-5,.cls-8{font-size:20px;}.cls-18,.cls-25,.cls-28,.cls-5,.cls-8{font-family:AvenirNext-Regular, Avenir Next;}.cls-6{letter-spacing:-0.01em;}.cls-7{letter-spacing:-0.01em;}.cls-32,.cls-8{fill:#45338e;}.cls-9{letter-spacing:-0.02em;}.cls-10{letter-spacing:-0.01em;}.cls-11{letter-spacing:-0.02em;}.cls-12{letter-spacing:-0.01em;}.cls-13{letter-spacing:-0.01em;}.cls-14{letter-spacing:0em;}.cls-15{letter-spacing:-0.01em;}.cls-16{letter-spacing:0em;}.cls-17,.cls-26{stroke:#389460;}.cls-17{stroke-width:2px;}.cls-18{font-size:22px;fill:#389460;}.cls-19{letter-spacing:-0.02em;}.cls-20{letter-spacing:0em;}.cls-21{letter-spacing:0em;}.cls-22{letter-spacing:-0.01em;}.cls-23{letter-spacing:0em;}.cls-24,.cls-33{stroke-miterlimit:10;stroke-width:1.5px;}.cls-25{fill:#0d5ba9;}.cls-27{letter-spacing:-0.09em;}.cls-28{fill:#666766;}.cls-29{letter-spacing:-0.01em;}.cls-30{letter-spacing:-0.06em;}.cls-31{letter-spacing:-0.01em;}.cls-33{stroke:#666766;}</style><clipPath id="clip-path" transform="translate(-6.8 -55.99)"><rect class="cls-1" x="6.68" y="55.99" width="944" height="363"/></clipPath></defs><g class="cls-2"><rect class="cls-3" x="112.95" y="0.5" width="120.73" height="71.22" rx="10"/><rect class="cls-4" x="112.95" y="0.5" width="120.73" height="71.22" rx="10"/><text class="cls-5" transform="translate(150.07 27.5)"><tspan class="cls-6">R</tspan><tspan class="cls-7" x="11.74" y="0">e</tspan><tspan x="23.08" y="0">ad </tspan></text><text class="cls-8" transform="translate(134.48 56.5)">K<tspan class="cls-9" x="12.56" y="0">V</tspan><tspan x="24.68" y="0"> </tspan><tspan class="cls-10" x="29.68" y="0">S</tspan><tspan x="40.84" y="0">to</tspan><tspan class="cls-11" x="59.4" y="0">r</tspan><tspan x="66.26" y="0">e</tspan></text><rect class="cls-3" x="710.19" y="290.64" width="120.73" height="71.22" rx="10"/><rect class="cls-4" x="710.19" y="290.64" width="120.73" height="71.22" rx="10"/><text class="cls-5" transform="translate(736.6 317.64)">Upd<tspan class="cls-12" x="39.64" y="0">a</tspan><tspan x="50.12" y="0">te</tspan></text><text class="cls-8" transform="translate(747.57 346.64)">SPUs</text><rect class="cls-3" x="295.75" y="9.36" width="353.25" height="46.11"/><rect class="cls-4" x="295.75" y="9.36" width="353.25" height="46.11"/><text class="cls-5" transform="translate(377.25 38.91)">Metad<tspan class="cls-13" x="58.92" y="0">a</tspan><tspan class="cls-14" x="69.4" y="0">ta </tspan></text><text class="cls-8" transform="translate(468.67 38.91)">Disp<tspan class="cls-12" x="41.72" y="0">a</tspan><tspan x="52.2" y="0">tcher</tspan></text><text class="cls-5" transform="translate(567.5 38.91)"> </text><rect class="cls-3" x="112.95" y="290.64" width="120.73" height="71.22" rx="10"/><rect class="cls-4" x="112.95" y="290.64" width="120.73" height="71.22" rx="10"/><text class="cls-5" transform="translate(139.36 317.64)">Upd<tspan class="cls-15" x="39.64" y="0">a</tspan><tspan class="cls-16" x="50.14" y="0">te</tspan></text><text class="cls-8" transform="translate(134.48 346.64)">K<tspan class="cls-9" x="12.56" y="0">V</tspan><tspan x="24.68" y="0"> </tspan><tspan class="cls-10" x="29.68" y="0">S</tspan><tspan x="40.84" y="0">to</tspan><tspan class="cls-11" x="59.4" y="0">r</tspan><tspan x="66.26" y="0">e</tspan></text><path class="cls-3" d="M25.91,198.27h84.51c10,0,18.11,15.95,18.11,35.61s-8.11,35.6-18.11,35.6H25.91c-10,0-18.11-16-18.11-35.6S15.92,198.27,25.91,198.27Z" transform="translate(-6.8 -55.99)"/><path class="cls-17" d="M25.91,198.27h84.51c10,0,18.11,15.95,18.11,35.61s-8.11,35.6-18.11,35.6H25.91c-10,0-18.11-16-18.11-35.6S15.92,198.27,25.91,198.27Z" transform="translate(-6.8 -55.99)"/><text class="cls-18" transform="translate(18.65 184.89)">K<tspan class="cls-19" x="13.82" y="0">V</tspan><tspan x="27.15" y="0"> </tspan><tspan class="cls-20" x="32.65" y="0">S</tspan><tspan x="44.95" y="0">to</tspan><tspan class="cls-19" x="65.36" y="0">r</tspan><tspan class="cls-21" x="72.91" y="0">e</tspan></text><rect class="cls-3" x="710.34" y="0.5" width="120.73" height="71.22" rx="10"/><rect class="cls-4" x="710.34" y="0.5" width="120.73" height="71.22" rx="10"/><text class="cls-5" transform="translate(747.46 27.5)"><tspan class="cls-22">R</tspan><tspan class="cls-23" x="11.76" y="0">e</tspan><tspan x="23.1" y="0">ad</tspan></text><text class="cls-8" transform="translate(715.71 56.5)">SPU Upd<tspan class="cls-13" x="81.72" y="0">a</tspan><tspan x="92.2" y="0">te</tspan></text><line class="cls-24" x1="247.05" y1="35.61" x2="273.15" y2="35.61"/><path class="cls-24" d="M280,88.3l8.8,3.3L280,94.9m8.8-3.3H280" transform="translate(-6.8 -55.99)"/><line class="cls-24" x1="671.6" y1="35.61" x2="697.7" y2="35.61"/><path class="cls-24" d="M678.4,94.9l-8.8-3.3,8.8-3.3m-8.8,3.3h8.8" transform="translate(-6.8 -55.99)"/><rect class="cls-3" x="295.75" y="302.63" width="353.25" height="47.25"/><rect class="cls-4" x="295.75" y="302.63" width="353.25" height="47.25"/><text class="cls-5" transform="translate(388.37 332.75)">Action </text><text class="cls-25" transform="translate(452.54 332.75)"> </text><text class="cls-8" transform="translate(457.54 332.75)">Disp<tspan class="cls-12" x="41.72" y="0">a</tspan><tspan x="52.2" y="0">tcher</tspan></text><rect class="cls-3" x="419.94" y="127.32" width="104.87" height="91.47"/><rect class="cls-26" x="419.94" y="127.32" width="104.87" height="91.47"/><text class="cls-5" transform="translate(447.67 162.56)"><tspan class="cls-27">T</tspan><tspan x="9.5" y="0">opic</tspan></text><text class="cls-28" transform="translate(497.08 162.56)"> </text><text class="cls-8" transform="translate(426.32 196.56)"><tspan class="cls-29">C</tspan><tspan x="14.18" y="0">ont</tspan><tspan class="cls-11" x="44.36" y="0">r</tspan><tspan x="51.22" y="0">oller</tspan></text><rect class="cls-3" x="544.13" y="127.32" width="104.87" height="91.47"/><rect class="cls-26" x="544.13" y="127.32" width="104.87" height="91.47"/><text class="cls-5" transform="translate(559.29 162.56)"><tspan class="cls-30">P</tspan><tspan x="10.42" y="0">a</tspan><tspan class="cls-22" x="21.1" y="0">r</tspan><tspan x="28.08" y="0">tition</tspan></text><text class="cls-8" transform="translate(550.51 196.56)"><tspan class="cls-29">C</tspan><tspan x="14.18" y="0">ont</tspan><tspan class="cls-11" x="44.36" y="0">r</tspan><tspan x="51.22" y="0">oller</tspan></text><rect class="cls-3" x="295.75" y="127.32" width="104.87" height="91.47"/><rect class="cls-26" x="295.75" y="127.32" width="104.87" height="91.47"/><text class="cls-5" transform="translate(329.64 162.56)">SPU </text><text class="cls-8" transform="translate(302.12 196.56)"><tspan class="cls-31">C</tspan><tspan x="14.18" y="0">ont</tspan><tspan class="cls-9" x="44.36" y="0">r</tspan><tspan x="51.22" y="0">oller</tspan></text><line class="cls-24" x1="347.68" y1="67.67" x2="347.68" y2="103.72"/><path class="cls-24" d="M357.79,159.71l-3.3,8.8-3.3-8.8m3.3,8.8v-8.8" transform="translate(-6.8 -55.99)"/><line class="cls-24" x1="473.75" y1="67.67" x2="473.75" y2="103.72"/><path class="cls-24" d="M483.86,159.71l-3.3,8.8-3.3-8.8m3.3,8.8v-8.8" transform="translate(-6.8 -55.99)"/><line class="cls-24" x1="596.07" y1="67.67" x2="596.07" y2="103.72"/><path class="cls-24" d="M606.17,159.71l-3.3,8.8-3.3-8.8m3.3,8.8v-8.8" transform="translate(-6.8 -55.99)"/><rect class="cls-3" x="852.48" y="132.62" width="90.03" height="53.07"/><rect class="cls-17" x="852.48" y="132.62" width="90.03" height="53.07"/><rect class="cls-3" x="842.03" y="146.95" width="90.03" height="53.07"/><rect class="cls-17" x="842.03" y="146.95" width="90.03" height="53.07"/><rect class="cls-3" x="831.25" y="160.42" width="90.03" height="53.07"/><rect class="cls-17" x="831.25" y="160.42" width="90.03" height="53.07"/><text class="cls-18" transform="translate(855.87 193.96)">SPU</text><polyline class="cls-24" points="842.03 326.75 883.11 326.75 883.11 250.43"/><path class="cls-24" d="M886.62,306.42l3.3-8.8,3.3,8.8m-3.3-8.8v8.8" transform="translate(-6.8 -55.99)"/><line class="cls-24" x1="659.71" y1="325.75" x2="685.81" y2="325.75"/><path class="cls-24" d="M692.62,378.44l8.8,3.3-8.8,3.3m8.8-3.3h-8.8" transform="translate(-6.8 -55.99)"/><line class="cls-24" x1="257.36" y1="325.75" x2="283.46" y2="325.75"/><path class="cls-24" d="M264.17,385l-8.8-3.3,8.8-3.3m-8.8,3.3h8.8" transform="translate(-6.8 -55.99)"/><path class="cls-32" d="M628.59,75.15a1.33,1.33,0,0,1,1.34,1.32v3.74a1.25,1.25,0,0,1-.39.92,1.27,1.27,0,0,1-.95.39H599.73a1.25,1.25,0,0,1-.92-.39,1.28,1.28,0,0,1-.38-.92V76.47a1.3,1.3,0,0,1,.38-.93,1.25,1.25,0,0,1,.92-.39Zm0,10.08a1.27,1.27,0,0,1,.95.39,1.24,1.24,0,0,1,.39.9v3.71a1.3,1.3,0,0,1-.39,1,1.27,1.27,0,0,1-.95.39H599.73a1.25,1.25,0,0,1-.92-.39,1.34,1.34,0,0,1-.38-1V86.52a1.25,1.25,0,0,1,.38-.91,1.28,1.28,0,0,1,.92-.38Zm0,10.06a1.31,1.31,0,0,1,1.34,1.31v3.74a1.25,1.25,0,0,1-.39.92,1.27,1.27,0,0,1-.95.39H599.73a1.25,1.25,0,0,1-.92-.39,1.28,1.28,0,0,1-.38-.92V96.6a1.32,1.32,0,0,1,.38-.93,1.28,1.28,0,0,1,.92-.38Zm-.24-8.23H611.28v2.66h17.07Zm0,10.07H616.53v2.64h11.82Zm0-20.09h-6.58v2.63h6.58Z" transform="translate(-6.8 -55.99)"/><line class="cls-24" x1="347.68" y1="239.58" x2="347.68" y2="275.63"/><path class="cls-24" d="M357.79,331.62l-3.3,8.8-3.3-8.8m3.3,8.8v-8.8" transform="translate(-6.8 -55.99)"/><line class="cls-24" x1="474.95" y1="239.03" x2="474.95" y2="275.09"/><path class="cls-24" d="M485.06,331.08l-3.3,8.8-3.3-8.8m3.3,8.8v-8.8" transform="translate(-6.8 -55.99)"/><line class="cls-24" x1="596.07" y1="239.03" x2="596.07" y2="275.09"/><path class="cls-24" d="M606.17,331.08l-3.3,8.8-3.3-8.8m3.3,8.8v-8.8" transform="translate(-6.8 -55.99)"/><polyline class="cls-33" points="883.11 121.87 883.11 35.61 853.43 35.61"/><path class="cls-33" d="M860.23,94.9l-8.8-3.3,8.8-3.3m-8.8,3.3h8.8" transform="translate(-6.8 -55.99)"/><polyline class="cls-24" points="62.33 121.87 62.33 35.61 92.01 35.61"/><path class="cls-24" d="M98.82,88.3l8.8,3.3-8.8,3.3m8.8-3.3h-8.8" transform="translate(-6.8 -55.99)"/><polyline class="cls-24" points="100.66 327.3 59.58 327.3 59.58 250.98"/><path class="cls-24" d="M63.08,307l3.3-8.8,3.3,8.8m-3.3-8.8V307" transform="translate(-6.8 -55.99)"/></g></svg>