<svg id="Layer_1" data-name="Layer 1" xmlns="http://www.w3.org/2000/svg" xmlns:xlink="http://www.w3.org/1999/xlink" viewBox="0 0 655.19 340.58"><defs><style>.cls-1,.cls-10,.cls-11,.cls-12,.cls-13,.cls-14,.cls-15,.cls-17,.cls-18,.cls-3,.cls-5,.cls-6,.cls-8,.cls-9{fill:none;}.cls-2{clip-path:url(#clip-path);}.cls-10,.cls-12,.cls-3,.cls-6{stroke:#45338e;}.cls-11,.cls-12,.cls-14,.cls-15,.cls-17,.cls-18,.cls-3,.cls-5,.cls-6,.cls-9{stroke-linejoin:round;}.cls-3{stroke-width:3px;}.cls-4{fill:#fff;}.cls-5{stroke:#389460;}.cls-12,.cls-13,.cls-18,.cls-5,.cls-6,.cls-8{stroke-linecap:round;}.cls-7{font-size:16px;fill:#8266a8;font-family:AvenirNext-Regular, Avenir Next;}.cls-13,.cls-14,.cls-8,.cls-9{stroke:#000;}.cls-10,.cls-13,.cls-8{stroke-miterlimit:10;}.cls-13,.cls-8{stroke-width:1.5px;}.cls-14,.cls-9{stroke-width:0.5px;}.cls-11{stroke:#0d5ba9;stroke-width:2px;stroke-dasharray:2 8;}.cls-12{stroke-dasharray:4 4;}.cls-13{stroke-dasharray:1.5 6;}.cls-14{stroke-dasharray:1 4;}.cls-15,.cls-17,.cls-18{stroke:#37945f;}.cls-16{fill:#37945f;}.cls-17{stroke-width:0.25px;}</style><clipPath id="clip-path" transform="translate(-114.1 -139.03)"><rect class="cls-1" x="113.6" y="138.15" width="656" height="342"/></clipPath></defs><g class="cls-2"><line class="cls-3" x1="58.29" y1="185.38" x2="443.92" y2="185.38"/><path class="cls-4" d="M245.59,191.88,258,170.72a1,1,0,0,1,.86-.5h24.88a1,1,0,0,1,.86.5L297,191.88a1,1,0,0,1,0,1l-12.42,21.16a1,1,0,0,1-.86.49H258.88a1,1,0,0,1-.86-.49l-12.43-21.16A1,1,0,0,1,245.59,191.88Z" transform="translate(-114.1 -139.03)"/><path class="cls-5" d="M245.59,191.88,258,170.72a1,1,0,0,1,.86-.5h24.88a1,1,0,0,1,.86.5L297,191.88a1,1,0,0,1,0,1l-12.42,21.16a1,1,0,0,1-.86.49H258.88a1,1,0,0,1-.86-.49l-12.43-21.16A1,1,0,0,1,245.59,191.88Z" transform="translate(-114.1 -139.03)"/><path class="cls-4" d="M293.11,161.18,305.54,140a1,1,0,0,1,.86-.49h24.88a1,1,0,0,1,.86.49l12.42,21.16a1,1,0,0,1,0,1l-12.42,21.16a1,1,0,0,1-.86.5H306.4a1,1,0,0,1-.86-.5l-12.43-21.16A1,1,0,0,1,293.11,161.18Z" transform="translate(-114.1 -139.03)"/><path class="cls-5" d="M293.11,161.18,305.54,140a1,1,0,0,1,.86-.49h24.88a1,1,0,0,1,.86.49l12.42,21.16a1,1,0,0,1,0,1l-12.42,21.16a1,1,0,0,1-.86.5H306.4a1,1,0,0,1-.86-.5l-12.43-21.16A1,1,0,0,1,293.11,161.18Z" transform="translate(-114.1 -139.03)"/><path class="cls-4" d="M335.94,191.88l12.43-21.16a1,1,0,0,1,.86-.5h24.88a1,1,0,0,1,.86.5l12.42,21.16a1,1,0,0,1,0,1L375,214.05a1,1,0,0,1-.86.49H349.23a1,1,0,0,1-.86-.49l-12.43-21.16A1,1,0,0,1,335.94,191.88Z" transform="translate(-114.1 -139.03)"/><path class="cls-5" d="M335.94,191.88l12.43-21.16a1,1,0,0,1,.86-.5h24.88a1,1,0,0,1,.86.5l12.42,21.16a1,1,0,0,1,0,1L375,214.05a1,1,0,0,1-.86.49H349.23a1,1,0,0,1-.86-.49l-12.43-21.16A1,1,0,0,1,335.94,191.88Z" transform="translate(-114.1 -139.03)"/><path class="cls-4" d="M221.54,456.44,234,435.28a1,1,0,0,1,.87-.49H259.7a1,1,0,0,1,.87.49L273,456.44a1,1,0,0,1,0,1l-12.42,21.16a1,1,0,0,1-.87.5H234.83a1,1,0,0,1-.87-.5l-12.42-21.16A1,1,0,0,1,221.54,456.44Z" transform="translate(-114.1 -139.03)"/><path class="cls-5" d="M221.54,456.44,234,435.28a1,1,0,0,1,.87-.49H259.7a1,1,0,0,1,.87.49L273,456.44a1,1,0,0,1,0,1l-12.42,21.16a1,1,0,0,1-.87.5H234.83a1,1,0,0,1-.87-.5l-12.42-21.16A1,1,0,0,1,221.54,456.44Z" transform="translate(-114.1 -139.03)"/><path class="cls-4" d="M282.47,456.44l12.42-21.16a1,1,0,0,1,.86-.49h24.88a1,1,0,0,1,.87.49l12.42,21.16a1,1,0,0,1,0,1L321.5,478.61a1,1,0,0,1-.87.5H295.75a1,1,0,0,1-.86-.5l-12.42-21.16A1,1,0,0,1,282.47,456.44Z" transform="translate(-114.1 -139.03)"/><path class="cls-5" d="M282.47,456.44l12.42-21.16a1,1,0,0,1,.86-.49h24.88a1,1,0,0,1,.87.49l12.42,21.16a1,1,0,0,1,0,1L321.5,478.61a1,1,0,0,1-.87.5H295.75a1,1,0,0,1-.86-.5l-12.42-21.16A1,1,0,0,1,282.47,456.44Z" transform="translate(-114.1 -139.03)"/><path class="cls-4" d="M488.22,191.88l12.43-21.16a1,1,0,0,1,.86-.5h24.88a1,1,0,0,1,.86.5l12.42,21.16a1,1,0,0,1,0,1l-12.42,21.16a1,1,0,0,1-.86.49H501.51a1,1,0,0,1-.86-.49l-12.43-21.16A1,1,0,0,1,488.22,191.88Z" transform="translate(-114.1 -139.03)"/><path class="cls-5" d="M488.22,191.88l12.43-21.16a1,1,0,0,1,.86-.5h24.88a1,1,0,0,1,.86.5l12.42,21.16a1,1,0,0,1,0,1l-12.42,21.16a1,1,0,0,1-.86.49H501.51a1,1,0,0,1-.86-.49l-12.43-21.16A1,1,0,0,1,488.22,191.88Z" transform="translate(-114.1 -139.03)"/><path class="cls-4" d="M533.24,161.18,545.66,140a1,1,0,0,1,.87-.49H571.4a1,1,0,0,1,.87.49l12.42,21.16a1,1,0,0,1,0,1l-12.42,21.16a1,1,0,0,1-.87.5H546.53a1,1,0,0,1-.87-.5l-12.42-21.16A1,1,0,0,1,533.24,161.18Z" transform="translate(-114.1 -139.03)"/><path class="cls-5" d="M533.24,161.18,545.66,140a1,1,0,0,1,.87-.49H571.4a1,1,0,0,1,.87.49l12.42,21.16a1,1,0,0,1,0,1l-12.42,21.16a1,1,0,0,1-.87.5H546.53a1,1,0,0,1-.87-.5l-12.42-21.16A1,1,0,0,1,533.24,161.18Z" transform="translate(-114.1 -139.03)"/><path class="cls-4" d="M578,191.88l12.43-21.16a1,1,0,0,1,.86-.5h24.88a1,1,0,0,1,.86.5l12.42,21.16a1,1,0,0,1,0,1l-12.42,21.16a1,1,0,0,1-.86.49H591.33a1,1,0,0,1-.86-.49L578,192.89A1,1,0,0,1,578,191.88Z" transform="translate(-114.1 -139.03)"/><path class="cls-5" d="M578,191.88l12.43-21.16a1,1,0,0,1,.86-.5h24.88a1,1,0,0,1,.86.5l12.42,21.16a1,1,0,0,1,0,1l-12.42,21.16a1,1,0,0,1-.86.49H591.33a1,1,0,0,1-.86-.49L578,192.89A1,1,0,0,1,578,191.88Z" transform="translate(-114.1 -139.03)"/><rect class="cls-4" x="0.5" y="158.78" width="74.76" height="53.72" rx="2"/><rect class="cls-6" x="0.5" y="158.78" width="74.76" height="53.72" rx="2"/><text class="cls-7" transform="translate(27.61 190.64)">SC</text><rect class="cls-4" x="252" y="157.99" width="112.97" height="53.72" rx="2"/><rect class="cls-6" x="252" y="157.99" width="112.97" height="53.72" rx="2"/><text class="cls-7" transform="translate(264.45 179.64)">SPU</text><text class="cls-7" transform="translate(274.64 201.64)">2</text><rect class="cls-4" x="107.15" y="157.87" width="112.97" height="53.72" rx="2"/><rect class="cls-6" x="107.15" y="157.87" width="112.97" height="53.72" rx="2"/><rect class="cls-8" x="166.62" y="166.07" width="20.02" height="38"/><rect class="cls-4" x="166.62" y="166.21" width="20.02" height="37.86"/><rect x="168.81" y="168.34" width="15.64" height="5.28"/><line class="cls-9" x1="166.62" y1="175.95" x2="186.64" y2="175.95"/><line class="cls-9" x1="166.62" y1="186.9" x2="186.64" y2="186.9"/><line class="cls-9" x1="166.62" y1="195.94" x2="186.64" y2="195.94"/><rect x="168.81" y="178.68" width="15.64" height="5.28"/><text class="cls-7" transform="translate(118.61 179.07)">SPU</text><text class="cls-7" transform="translate(128.8 201.07)">1</text><rect class="cls-4" x="396.86" y="157.75" width="112.97" height="53.72" rx="2"/><rect class="cls-6" x="396.86" y="157.75" width="112.97" height="53.72" rx="2"/><text class="cls-7" transform="translate(410.84 179.64)">SPU</text><text class="cls-7" transform="translate(421.03 201.64)">3</text><path class="cls-4" d="M366.11,456.44l12.43-21.16a1,1,0,0,1,.86-.49h24.88a1,1,0,0,1,.86.49l12.43,21.16a1,1,0,0,1,0,1l-12.43,21.16a1,1,0,0,1-.86.5H379.4a1,1,0,0,1-.86-.5l-12.43-21.16A1,1,0,0,1,366.11,456.44Z" transform="translate(-114.1 -139.03)"/><path class="cls-5" d="M366.11,456.44l12.43-21.16a1,1,0,0,1,.86-.49h24.88a1,1,0,0,1,.86.49l12.43,21.16a1,1,0,0,1,0,1l-12.43,21.16a1,1,0,0,1-.86.5H379.4a1,1,0,0,1-.86-.5l-12.43-21.16A1,1,0,0,1,366.11,456.44Z" transform="translate(-114.1 -139.03)"/><path class="cls-4" d="M427,456.44l12.43-21.16a1,1,0,0,1,.86-.49h24.88a1,1,0,0,1,.86.49l12.42,21.16a1,1,0,0,1,0,1l-12.42,21.16a1,1,0,0,1-.86.5H440.33a1,1,0,0,1-.86-.5L427,457.45A1,1,0,0,1,427,456.44Z" transform="translate(-114.1 -139.03)"/><path class="cls-5" d="M427,456.44l12.43-21.16a1,1,0,0,1,.86-.49h24.88a1,1,0,0,1,.86.49l12.42,21.16a1,1,0,0,1,0,1l-12.42,21.16a1,1,0,0,1-.86.5H440.33a1,1,0,0,1-.86-.5L427,457.45A1,1,0,0,1,427,456.44Z" transform="translate(-114.1 -139.03)"/><path class="cls-4" d="M510.69,456.44l12.42-21.16a1,1,0,0,1,.86-.49h24.88a1,1,0,0,1,.87.49l12.42,21.16a1,1,0,0,1,0,1l-12.42,21.16a1,1,0,0,1-.87.5H524a1,1,0,0,1-.86-.5l-12.42-21.16A1,1,0,0,1,510.69,456.44Z" transform="translate(-114.1 -139.03)"/><path class="cls-5" d="M510.69,456.44l12.42-21.16a1,1,0,0,1,.86-.49h24.88a1,1,0,0,1,.87.49l12.42,21.16a1,1,0,0,1,0,1l-12.42,21.16a1,1,0,0,1-.87.5H524a1,1,0,0,1-.86-.5l-12.42-21.16A1,1,0,0,1,510.69,456.44Z" transform="translate(-114.1 -139.03)"/><path class="cls-4" d="M571.62,456.44,584,435.28a1,1,0,0,1,.86-.49h24.88a1,1,0,0,1,.86.49l12.43,21.16a1,1,0,0,1,0,1l-12.43,21.16a1,1,0,0,1-.86.5H584.9a1,1,0,0,1-.86-.5l-12.42-21.16A1,1,0,0,1,571.62,456.44Z" transform="translate(-114.1 -139.03)"/><path class="cls-5" d="M571.62,456.44,584,435.28a1,1,0,0,1,.86-.49h24.88a1,1,0,0,1,.86.49l12.43,21.16a1,1,0,0,1,0,1l-12.43,21.16a1,1,0,0,1-.86.5H584.9a1,1,0,0,1-.86-.5l-12.42-21.16A1,1,0,0,1,571.62,456.44Z" transform="translate(-114.1 -139.03)"/><path class="cls-6" d="M274,222.74c8.48,21,9.18,20.43,11.56,60.44" transform="translate(-114.1 -139.03)"/><path class="cls-10" d="M288.54,283,286,291.16l-3.46-7.81m3.46,7.81-.46-8" transform="translate(-114.1 -139.03)"/><path class="cls-6" d="M511,221.93c-3.23,42.87-66.45,8.17-72.06,62.05" transform="translate(-114.1 -139.03)"/><path class="cls-10" d="M441.89,284.09l-3.3,7.88-2.69-8.11m2.69,8.11.31-8" transform="translate(-114.1 -139.03)"/><path class="cls-6" d="M605,221.93c5,23.91-.23,43.54-1.11,58" transform="translate(-114.1 -139.03)"/><path class="cls-10" d="M606.85,279.81l-2.67,8.12-3.32-7.87m3.32,7.87-.33-8" transform="translate(-114.1 -139.03)"/><path class="cls-6" d="M285.55,356A206.66,206.66,0,0,1,266,419.55" transform="translate(-114.1 -139.03)"/><path class="cls-10" d="M268.67,420.94l-6.36,5.71,1-8.48m-1,8.48,3.7-7.1" transform="translate(-114.1 -139.03)"/><path class="cls-6" d="M291.66,356a344.47,344.47,0,0,0,6.21,61.8" transform="translate(-114.1 -139.03)"/><path class="cls-10" d="M300.81,417.16l-1.29,8.45-4.58-7.21m4.58,7.21-1.65-7.83" transform="translate(-114.1 -139.03)"/><path class="cls-6" d="M318.13,356.41c.71,25.23.27,45.9-1.86,61.31" transform="translate(-114.1 -139.03)"/><path class="cls-10" d="M319.23,418.25l-4.36,7.35-1.55-8.4m1.55,8.4,1.4-7.88" transform="translate(-114.1 -139.03)"/><path class="cls-6" d="M430,355.12a206.66,206.66,0,0,1-19.54,63.57" transform="translate(-114.1 -139.03)"/><path class="cls-10" d="M413.14,420.08l-6.36,5.7,1-8.48m-1,8.48,3.7-7.09" transform="translate(-114.1 -139.03)"/><path class="cls-6" d="M438.52,355.05c.31,24.64.35,42.93,5.38,62.08" transform="translate(-114.1 -139.03)"/><path class="cls-10" d="M446.77,416.26l-.55,8.53L441,418m5.19,6.78-2.32-7.65" transform="translate(-114.1 -139.03)"/><path class="cls-6" d="M574.49,356.41A206.84,206.84,0,0,1,555,420" transform="translate(-114.1 -139.03)"/><path class="cls-10" d="M557.61,421.37l-6.36,5.71,1-8.48m-1,8.48L555,420" transform="translate(-114.1 -139.03)"/><path class="cls-6" d="M608.55,357.7c.71,25.23.27,45.9-1.86,61.31" transform="translate(-114.1 -139.03)"/><path class="cls-10" d="M609.65,419.54l-4.36,7.35-1.55-8.4m1.55,8.4,1.4-7.88" transform="translate(-114.1 -139.03)"/><path class="cls-6" d="M559.39,192c-4.09,32.4,7.21,69.16,12.69,89" transform="translate(-114.1 -139.03)"/><path class="cls-10" d="M575,280.3l-1,8.49-4.85-7m4.85,7L572.08,281" transform="translate(-114.1 -139.03)"/><path class="cls-6" d="M318.45,192c9.07,19.81.78,66.59-.29,89.52" transform="translate(-114.1 -139.03)"/><path class="cls-10" d="M321.16,281.46l-2.77,8.08-3.23-7.91m3.23,7.91-.23-8" transform="translate(-114.1 -139.03)"/><path class="cls-6" d="M358.42,221.13c-3.23,42.87,59.51,8.75,67.22,62.72" transform="translate(-114.1 -139.03)"/><path class="cls-10" d="M428.63,283.63l-2.38,8.2-3.6-7.74m3.6,7.74-.61-8" transform="translate(-114.1 -139.03)"/><rect class="cls-8" x="194.08" y="166.07" width="20.02" height="38"/><rect class="cls-4" x="194.08" y="166.21" width="20.02" height="37.86"/><rect x="196.27" y="168.34" width="15.64" height="5.28"/><line class="cls-9" x1="194.08" y1="175.95" x2="214.1" y2="175.95"/><line class="cls-9" x1="194.08" y1="186.9" x2="214.1" y2="186.9"/><line class="cls-9" x1="194.08" y1="195.94" x2="214.1" y2="195.94"/><rect class="cls-8" x="335.46" y="166.24" width="20.02" height="38"/><rect class="cls-4" x="335.46" y="166.38" width="20.02" height="37.86"/><line class="cls-9" x1="335.46" y1="176.12" x2="355.47" y2="176.12"/><line class="cls-9" x1="335.46" y1="187.07" x2="355.47" y2="187.07"/><line class="cls-9" x1="335.46" y1="196.11" x2="355.47" y2="196.11"/><rect class="cls-8" x="307.64" y="166.24" width="20.02" height="38"/><rect class="cls-4" x="307.64" y="166.38" width="20.02" height="37.86"/><rect x="309.82" y="168.51" width="15.64" height="5.28"/><line class="cls-9" x1="307.64" y1="176.12" x2="327.65" y2="176.12"/><line class="cls-9" x1="307.64" y1="187.07" x2="327.65" y2="187.07"/><line class="cls-9" x1="307.64" y1="196.11" x2="327.65" y2="196.11"/><rect x="309.82" y="178.85" width="15.64" height="5.28"/><rect x="309.82" y="188.8" width="15.64" height="5.28"/><rect class="cls-8" x="453.45" y="166.07" width="20.02" height="38"/><rect class="cls-4" x="453.45" y="166.21" width="20.02" height="37.86"/><rect x="455.63" y="168.34" width="15.64" height="5.28"/><line class="cls-9" x1="453.45" y1="175.95" x2="473.46" y2="175.95"/><line class="cls-9" x1="453.45" y1="186.9" x2="473.46" y2="186.9"/><line class="cls-9" x1="453.45" y1="195.94" x2="473.46" y2="195.94"/><rect x="455.63" y="178.68" width="15.64" height="5.28"/><rect x="455.63" y="188.8" width="15.64" height="5.28"/><rect class="cls-8" x="481.32" y="166.07" width="20.02" height="38"/><rect class="cls-4" x="481.32" y="166.21" width="20.02" height="37.86"/><rect x="483.51" y="168.34" width="15.64" height="5.28"/><line class="cls-9" x1="481.32" y1="175.95" x2="501.33" y2="175.95"/><line class="cls-9" x1="481.32" y1="186.9" x2="501.33" y2="186.9"/><line class="cls-9" x1="481.32" y1="195.94" x2="501.33" y2="195.94"/><rect x="483.51" y="178.65" width="15.64" height="5.28"/><line class="cls-11" x1="510.33" y1="184.61" x2="588.77" y2="184.6"/><rect class="cls-4" x="541.72" y="156.96" width="112.97" height="53.72" rx="2"/><rect class="cls-12" x="541.72" y="156.96" width="112.97" height="53.72" rx="2"/><text class="cls-7" transform="translate(555.7 178.85)">SPU</text><text class="cls-7" transform="translate(565.88 200.85)">n</text><rect class="cls-13" x="600.69" y="164.82" width="20.02" height="38"/><rect class="cls-4" x="600.69" y="164.96" width="20.02" height="37.86"/><line class="cls-14" x1="600.69" y1="174.7" x2="620.7" y2="174.7"/><line class="cls-14" x1="600.69" y1="185.66" x2="620.7" y2="185.66"/><line class="cls-14" x1="600.69" y1="194.69" x2="620.7" y2="194.69"/><path class="cls-15" d="M558.6,155.61a6.82,6.82,0,0,0-1.9-.2c-5,0-9.1,3.1-9.2,6.9-3.2.6-5.4,2.9-5.4,5.4,0,3.1,3.3,5.6,7.3,5.6h.1" transform="translate(-114.1 -139.03)"/><line class="cls-15" x1="435.3" y1="34.29" x2="443.9" y2="34.29"/><rect class="cls-15" x="446.4" y="8.29" width="10.3" height="24.4"/><line class="cls-15" x1="445.1" y1="34.29" x2="458" y2="34.29"/><line class="cls-15" x1="449.9" y1="8.09" x2="449.9" y2="32.49"/><line class="cls-15" x1="446.8" y1="17.79" x2="457.1" y2="17.89"/><line class="cls-15" x1="446.2" y1="22.59" x2="456.5" y2="22.69"/><line class="cls-15" x1="446.7" y1="27.39" x2="457" y2="27.49"/><line class="cls-15" x1="446.2" y1="12.99" x2="456.5" y2="13.09"/><line class="cls-15" x1="447.5" y1="6.69" x2="455.5" y2="6.69"/><line class="cls-15" x1="453.1" y1="8.39" x2="453.1" y2="32.79"/><path class="cls-15" d="M558,157.51c-4.4-.7-8.1,1.5-8.3,5.5" transform="translate(-114.1 -139.03)"/><path class="cls-16" d="M327.7,158.56l-.59.7,2.73,2.56a3.18,3.18,0,0,1,1,2.38v11.29h.85V164.2a4.57,4.57,0,0,0-1.28-3.09Z" transform="translate(-114.1 -139.03)"/><path class="cls-16" d="M325.48,150.62H311.2v-.44a1.37,1.37,0,0,1,1.37-1.41h11.54a1.37,1.37,0,0,1,1.37,1.41Zm0,12.26-.51-.53a2.34,2.34,0,0,0-4,1.59,2.94,2.94,0,0,0,.68,1.85l2.82,2.91a11.8,11.8,0,0,0-1.62,5.91H312.57a1.38,1.38,0,0,1-1.37-1.42v-1.41h11.12v-.88H311.2V151.59h14.28Zm-1.37-15H312.57a2.29,2.29,0,0,0-2.22,2.29v22.93a2.3,2.3,0,0,0,2.22,2.29h11.12v-.79a10.87,10.87,0,0,1,1.71-5.82.57.57,0,0,0-.09-.62L322.23,165a1.72,1.72,0,0,1-.43-1.14,1.28,1.28,0,0,1,.52-1.06,1.41,1.41,0,0,1,2,.18l4.36,4.49.6-.61-2.82-3.09V150.18A2.36,2.36,0,0,0,324.11,147.89Z" transform="translate(-114.1 -139.03)"/><path class="cls-16" d="M313,153.35h1.79v1.86H313Zm0,2.83h1.79a.88.88,0,0,0,.86-.89v-1.94a.87.87,0,0,0-.86-.88H313a.87.87,0,0,0-.86.88v1.86A.9.9,0,0,0,313,156.18Z" transform="translate(-114.1 -139.03)"/><path class="cls-16" d="M317.44,153.35h1.8v1.86h-1.8Zm0,2.83h1.8a.88.88,0,0,0,.85-.89v-1.94a.86.86,0,0,0-.85-.88h-1.8a.87.87,0,0,0-.85.88v1.86A1,1,0,0,0,317.44,156.18Z" transform="translate(-114.1 -139.03)"/><path class="cls-16" d="M321.89,153.35h1.8v1.86h-1.8Zm0,2.83h1.8a.88.88,0,0,0,.85-.89v-1.94a.87.87,0,0,0-.85-.88h-1.8a.88.88,0,0,0-.86.88v1.86A1,1,0,0,0,321.89,156.18Z" transform="translate(-114.1 -139.03)"/><path class="cls-16" d="M313,158h1.79v1.85H313Zm0,2.73h1.79a.87.87,0,0,0,.86-.88V158a.87.87,0,0,0-.86-.88H313a.87.87,0,0,0-.86.88v1.85A.87.87,0,0,0,313,160.76Z" transform="translate(-114.1 -139.03)"/><path class="cls-16" d="M313,162.61h1.79v1.85H313Zm0,2.74h1.79a.87.87,0,0,0,.86-.89v-1.85a.87.87,0,0,0-.86-.88H313a.87.87,0,0,0-.86.88v1.85A.87.87,0,0,0,313,165.35Z" transform="translate(-114.1 -139.03)"/><path class="cls-16" d="M317.44,158h1.8v1.85h-1.8Zm0,2.73h1.8a.87.87,0,0,0,.85-.88V158a.86.86,0,0,0-.85-.88h-1.8a.87.87,0,0,0-.85.88v1.85A.93.93,0,0,0,317.44,160.76Z" transform="translate(-114.1 -139.03)"/><path class="cls-16" d="M321.89,158h1.8v1.85h-1.8Zm0,2.73h1.8a.87.87,0,0,0,.85-.88V158a.87.87,0,0,0-.85-.88h-1.8a.88.88,0,0,0-.86.88v1.85A.94.94,0,0,0,321.89,160.76Z" transform="translate(-114.1 -139.03)"/><path class="cls-16" d="M317.44,162.61h1.8v1.85h-1.8Zm0,2.74h1.8a.87.87,0,0,0,.85-.89v-1.85a.86.86,0,0,0-.85-.88h-1.8a.87.87,0,0,0-.85.88v1.85A.94.94,0,0,0,317.44,165.35Z" transform="translate(-114.1 -139.03)"/><path class="cls-16" d="M313,167.2h1.79v1.85H313Zm0,2.73h1.79a.87.87,0,0,0,.86-.88V167.2a.87.87,0,0,0-.86-.88H313a.87.87,0,0,0-.86.88v1.85A.87.87,0,0,0,313,169.93Z" transform="translate(-114.1 -139.03)"/><path class="cls-16" d="M317.44,167.2h1.8v1.85h-1.8Zm0,2.73h1.8a.87.87,0,0,0,.85-.88V167.2a.86.86,0,0,0-.85-.88h-1.8a.87.87,0,0,0-.85.88v1.85A.93.93,0,0,0,317.44,169.93Z" transform="translate(-114.1 -139.03)"/><rect class="cls-16" x="203.86" y="33.64" width="0.85" height="0.88"/><path class="cls-16" d="M392.63,455.87c.77-.1,1.69-.1,2.53-.19a14.32,14.32,0,0,0,5.31-1.39c1.84-.89,2.07-1.38,2-3.85v-.1c0-.79-.16-.89-.69-.49a11.68,11.68,0,0,1-5.85,2,49.79,49.79,0,0,1-6.69,0,12.1,12.1,0,0,1-6.22-2c-.39-.3-.54-.2-.62.49-.15,2.27.08,3,1.77,3.85a8.16,8.16,0,0,0,1.07.5A23.38,23.38,0,0,0,392.63,455.87Zm-.31,9.39a18.7,18.7,0,0,0,8.07-1.48c1.92-.89,2.15-1.39,2.15-4v-.19c0-.69-.15-.79-.69-.5a12.9,12.9,0,0,1-1.61.89,21.9,21.9,0,0,1-10.38,1.19,13.71,13.71,0,0,1-6.92-2.18c-.08,0-.46.1-.46.3a3.63,3.63,0,0,0,1.15,3.95,2.46,2.46,0,0,0,.69.4A18.06,18.06,0,0,0,392.32,465.26Zm.92,4.74a33,33,0,0,0,4.23-.59,17.63,17.63,0,0,0,3.92-1.49,1.88,1.88,0,0,0,1.15-1.67v-2c0-.69-.23-.69-.61-.4a10.14,10.14,0,0,1-2.08,1.09,37.78,37.78,0,0,1-5.69,1.09c-3.84.29-7.61,0-11.14-2.18-.39-.19-.54-.09-.62.4-.31,2.27.08,3.26,1.77,4.05C386.86,469.7,389.63,469.9,393.24,470Zm.08-9.39c1.07-.19,2.92-.29,4.69-.69a14,14,0,0,0,3.77-1.68,1.85,1.85,0,0,0,.76-1.38,8.12,8.12,0,0,0,0-2c0-.6-.23-.7-.61-.5a12.19,12.19,0,0,1-1.54.89,17.82,17.82,0,0,1-7.15,1.38c-3.54,0-7-.19-10.3-2.27-.39-.3-.54,0-.54.5-.23,2.27.08,3.16,1.77,4.05.23.09.46.19.77.29A23.26,23.26,0,0,0,393.32,460.61ZM392.4,444a18.62,18.62,0,0,0-6.46,1,11.81,11.81,0,0,0-2.92,1.48,1.35,1.35,0,0,0-.08,2.17,13.82,13.82,0,0,0,1.46,1.09,15.41,15.41,0,0,0,7.15,1.48,38.85,38.85,0,0,0,5.77-.49,8.08,8.08,0,0,0,4.46-1.88,1.42,1.42,0,0,0-.08-2.47,9.25,9.25,0,0,0-2.31-1.28A19.8,19.8,0,0,0,392.4,444Zm10.76,13v9a2.58,2.58,0,0,1-.92,2.17,8.64,8.64,0,0,1-4.15,1.88,23.28,23.28,0,0,1-12.77-.5,10.77,10.77,0,0,1-2.69-1.58,2.33,2.33,0,0,1-.85-2V447.87a2.67,2.67,0,0,1,1.16-2.37,10.24,10.24,0,0,1,4.23-1.78,24.11,24.11,0,0,1,12.68.59,9.61,9.61,0,0,1,2.31,1.29,2.29,2.29,0,0,1,.92,2.27C403.08,451,403.16,454.09,403.16,457.06Z" transform="translate(-114.1 -139.03)"/><path class="cls-17" d="M392.63,455.87c.77-.1,1.69-.1,2.53-.19a14.32,14.32,0,0,0,5.31-1.39c1.84-.89,2.07-1.38,2-3.85v-.1c0-.79-.16-.89-.69-.49a11.68,11.68,0,0,1-5.85,2,49.79,49.79,0,0,1-6.69,0,12.1,12.1,0,0,1-6.22-2c-.39-.3-.54-.2-.62.49-.15,2.27.08,3,1.77,3.85a8.16,8.16,0,0,0,1.07.5A23.38,23.38,0,0,0,392.63,455.87Zm-.31,9.39a18.7,18.7,0,0,0,8.07-1.48c1.92-.89,2.15-1.39,2.15-4v-.19c0-.69-.15-.79-.69-.5a12.9,12.9,0,0,1-1.61.89,22,22,0,0,1-10.38,1.19,13.71,13.71,0,0,1-6.92-2.18c-.08,0-.46.1-.46.3a3.63,3.63,0,0,0,1.15,3.95,2.46,2.46,0,0,0,.69.4A18.06,18.06,0,0,0,392.32,465.26Zm.92,4.74a33,33,0,0,0,4.23-.59,17.63,17.63,0,0,0,3.92-1.49,1.88,1.88,0,0,0,1.15-1.67v-2c0-.69-.23-.69-.61-.4a10.14,10.14,0,0,1-2.08,1.09,37.78,37.78,0,0,1-5.69,1.09c-3.84.29-7.61,0-11.14-2.18-.39-.19-.54-.09-.62.4-.31,2.27.08,3.26,1.77,4.05C386.86,469.7,389.63,469.9,393.24,470Zm.08-9.39c1.07-.19,2.92-.29,4.69-.69a14,14,0,0,0,3.77-1.68,1.85,1.85,0,0,0,.76-1.38,8.12,8.12,0,0,0,0-2c0-.6-.23-.7-.61-.5a12.19,12.19,0,0,1-1.54.89,17.82,17.82,0,0,1-7.15,1.38c-3.54,0-7-.19-10.3-2.27-.39-.3-.54,0-.54.5-.23,2.27.08,3.16,1.77,4.05.23.09.46.19.77.29A23.26,23.26,0,0,0,393.32,460.61ZM392.4,444a18.62,18.62,0,0,0-6.46,1,11.81,11.81,0,0,0-2.92,1.48,1.35,1.35,0,0,0-.08,2.17,13.82,13.82,0,0,0,1.46,1.09,15.41,15.41,0,0,0,7.15,1.48,38.85,38.85,0,0,0,5.77-.49,8.08,8.08,0,0,0,4.46-1.88,1.42,1.42,0,0,0-.08-2.47,9.25,9.25,0,0,0-2.31-1.28A19.8,19.8,0,0,0,392.4,444Zm10.76,13v9a2.58,2.58,0,0,1-.92,2.17,8.64,8.64,0,0,1-4.15,1.88,23.28,23.28,0,0,1-12.77-.5,10.77,10.77,0,0,1-2.69-1.58,2.33,2.33,0,0,1-.85-2V447.87a2.67,2.67,0,0,1,1.16-2.37,10.24,10.24,0,0,1,4.23-1.78,24.11,24.11,0,0,1,12.68.59,9.61,9.61,0,0,1,2.31,1.29,2.29,2.29,0,0,1,.92,2.27C403.08,451,403.16,454.09,403.16,457.06Z" transform="translate(-114.1 -139.03)"/><path class="cls-18" d="M362.17,180.08a1.2,1.2,0,1,1-1.7,1.69,1.19,1.19,0,0,1,0-1.69,1.2,1.2,0,0,1,1.7,0" transform="translate(-114.1 -139.03)"/><path class="cls-18" d="M359.22,177.63a3.82,3.82,0,0,0-1.8,3.2,4,4,0,0,0,1.7,3.2" transform="translate(-114.1 -139.03)"/><path class="cls-18" d="M363.62,177.63a3.86,3.86,0,0,1,1.8,3.3,4,4,0,0,1-1.7,3.2" transform="translate(-114.1 -139.03)"/><path class="cls-18" d="M357.72,175.53a6.6,6.6,0,0,0-3,5.5,6.34,6.34,0,0,0,2.9,5.4" transform="translate(-114.1 -139.03)"/><path class="cls-18" d="M365,175.53a6.6,6.6,0,0,1,3,5.5,6.34,6.34,0,0,1-2.9,5.4" transform="translate(-114.1 -139.03)"/><path class="cls-18" d="M357,199.4l11.6,8.2-4.2-14.2-1.7-6.1h-2.6l-5.4,20.2,11.4-8.5" transform="translate(-114.1 -139.03)"/><line class="cls-18" x1="250.32" y1="54.37" x2="244.42" y2="54.37"/><path class="cls-18" d="M276.9,203H260.78a3.23,3.23,0,0,1-3.32-3V181.62a3.18,3.18,0,0,1,3.32-3h21.07a3.24,3.24,0,0,1,3.33,3v18.31a3.18,3.18,0,0,1-3.33,3h-1.36" transform="translate(-114.1 -139.03)"/><line class="cls-18" x1="146.26" y1="67.16" x2="168.69" y2="67.16"/><path class="cls-16" d="M269.44,195a2.75,2.75,0,0,0,1,1.65c.52.37.94.65.94.65l.09.09.08-.09a4.26,4.26,0,0,0,.94-.74,2.54,2.54,0,0,0,.68-.74,1.7,1.7,0,0,0,.34-.82,19.62,19.62,0,0,1,2.05.92,7,7,0,0,1,1.62,1.1,1.75,1.75,0,0,1,.68,1.29v1.19H265.09V198.3a2.17,2.17,0,0,1,.68-1.29,6.82,6.82,0,0,1,1.71-1.1A14,14,0,0,1,269.44,195Zm.6-1.38a2.43,2.43,0,0,0,.85.36.91.91,0,0,0,.68.28.94.94,0,0,0,.69-.28,4,4,0,0,0,.93-.36v1.28a1.42,1.42,0,0,1-.25.56,3.91,3.91,0,0,1-.6.64c-.43.37-.68.55-.77.64-.08-.09-.34-.18-.76-.46A2,2,0,0,1,270,195v-1.38Zm3.41-8.84c.08,0,.26.1.51.37a2.69,2.69,0,0,1,.6,1.75v1.93l.42-.27a.27.27,0,0,1,.18-.1c.08,0,.17.1.17.28a1,1,0,0,1-.09.37.36.36,0,0,1-.08.27v.28a.19.19,0,0,1-.18.18h-.51v.28a3.24,3.24,0,0,1-2.39,3.31H272l-.09.09a.56.56,0,0,1-.34.19.42.42,0,0,1-.34-.19l-.08-.09h-.09a3.25,3.25,0,0,1-2.39-3.31v-.46h-.51a.19.19,0,0,1-.17-.18v-.28a.3.3,0,0,0-.08-.18.94.94,0,0,0-.09-.37c0-.09.09-.19.17-.28s.09.09.17.09l.43.28v-.92a2.14,2.14,0,0,1,.77-1.66,2.39,2.39,0,0,1,1.36-.55,5.68,5.68,0,0,0,2.13-.46A1.34,1.34,0,0,0,273.45,184.77Zm-2.22-3.12a2.07,2.07,0,0,1,1.54.55,1.22,1.22,0,0,1,.42.55l.09.18h.17a1.77,1.77,0,0,1,1.19.56,2.79,2.79,0,0,1,.69,1.93,14.83,14.83,0,0,1-.26,2.48V187a3.18,3.18,0,0,0-.77-2.21,1.8,1.8,0,0,0-.77-.55l-.17-.09-.08.09a1.76,1.76,0,0,1-.6.37,4.41,4.41,0,0,1-1.87.46,2.81,2.81,0,0,0-1.71.64,2.57,2.57,0,0,0-.94,2.12,8.2,8.2,0,0,1-.25-2.21,4.13,4.13,0,0,1,.85-2.67A3.09,3.09,0,0,1,271.23,181.65Zm0-.65a3.43,3.43,0,0,0-2.9,1.47,5.27,5.27,0,0,0-1,3.13,14.06,14.06,0,0,0,.25,2.49,1.08,1.08,0,0,0-.25.55c0,.18.08.37.08.55s0,.18.09.18v.1a.69.69,0,0,0,.68.73,4.42,4.42,0,0,0,1.28,3v1.1a11.09,11.09,0,0,0-2.22,1,12.08,12.08,0,0,0-1.7,1.2,2.28,2.28,0,0,0-.85,1.75v1.84h13.81v-1.84a2.43,2.43,0,0,0-.85-1.75,7.35,7.35,0,0,0-1.71-1.2,21.55,21.55,0,0,0-2.21-1v-1.1a4.07,4.07,0,0,0,1.27-3,.76.76,0,0,0,.69-.73v-.1c0-.09,0-.09.08-.18s.09-.37.09-.55a.89.89,0,0,0-.26-.65,16.17,16.17,0,0,0,.26-2.66,3.14,3.14,0,0,0-.86-2.4,1.86,1.86,0,0,0-1.36-.64c-.09-.09-.17-.37-.43-.55A2.82,2.82,0,0,0,271.23,181Z" transform="translate(-114.1 -139.03)"/><path class="cls-17" d="M269.44,195a2.75,2.75,0,0,0,1,1.65c.52.37.94.65.94.65l.09.09.08-.09a4.26,4.26,0,0,0,.94-.74,2.54,2.54,0,0,0,.68-.74,1.7,1.7,0,0,0,.34-.82,19.62,19.62,0,0,1,2.05.92,7,7,0,0,1,1.62,1.1,1.75,1.75,0,0,1,.68,1.29v1.19H265.09V198.3a2.17,2.17,0,0,1,.68-1.29,6.82,6.82,0,0,1,1.71-1.1A14,14,0,0,1,269.44,195Zm.6-1.38a2.43,2.43,0,0,0,.85.36.91.91,0,0,0,.68.28.94.94,0,0,0,.69-.28,4,4,0,0,0,.93-.36v1.28a1.42,1.42,0,0,1-.25.56,3.91,3.91,0,0,1-.6.64c-.43.37-.68.55-.77.64-.08-.09-.34-.18-.76-.46A2,2,0,0,1,270,195v-1.38Zm3.41-8.84c.08,0,.26.1.51.37a2.69,2.69,0,0,1,.6,1.75v1.93l.42-.27a.27.27,0,0,1,.18-.1c.08,0,.17.1.17.28a1,1,0,0,1-.09.37.36.36,0,0,1-.08.27v.28a.19.19,0,0,1-.18.18h-.51v.28a3.24,3.24,0,0,1-2.39,3.31H272l-.09.09a.56.56,0,0,1-.34.19.42.42,0,0,1-.34-.19l-.08-.09h-.09a3.25,3.25,0,0,1-2.39-3.31v-.46h-.51a.19.19,0,0,1-.17-.18v-.28a.3.3,0,0,0-.08-.18.94.94,0,0,0-.09-.37c0-.09.09-.19.17-.28s.09.09.17.09l.43.28v-.92a2.14,2.14,0,0,1,.77-1.66,2.39,2.39,0,0,1,1.36-.55,5.68,5.68,0,0,0,2.13-.46A1.34,1.34,0,0,0,273.45,184.77Zm-2.22-3.12a2.07,2.07,0,0,1,1.54.55,1.22,1.22,0,0,1,.42.55l.09.18h.17a1.77,1.77,0,0,1,1.19.56,2.79,2.79,0,0,1,.69,1.93,14.83,14.83,0,0,1-.26,2.48V187a3.18,3.18,0,0,0-.77-2.21,1.8,1.8,0,0,0-.77-.55l-.17-.09-.08.09a1.76,1.76,0,0,1-.6.37,4.41,4.41,0,0,1-1.87.46,2.81,2.81,0,0,0-1.71.64,2.57,2.57,0,0,0-.94,2.12,8.2,8.2,0,0,1-.25-2.21,4.13,4.13,0,0,1,.85-2.67A3.09,3.09,0,0,1,271.23,181.65Zm0-.65a3.43,3.43,0,0,0-2.9,1.47,5.27,5.27,0,0,0-1,3.13,14.06,14.06,0,0,0,.25,2.49,1.08,1.08,0,0,0-.25.55c0,.18.08.37.08.55s0,.18.09.18v.1a.69.69,0,0,0,.68.73,4.42,4.42,0,0,0,1.28,3v1.1a11.09,11.09,0,0,0-2.22,1,12.08,12.08,0,0,0-1.7,1.2,2.28,2.28,0,0,0-.85,1.75v1.84h13.81v-1.84a2.43,2.43,0,0,0-.85-1.75,7.35,7.35,0,0,0-1.71-1.2,21.55,21.55,0,0,0-2.21-1v-1.1a4.07,4.07,0,0,0,1.27-3,.76.76,0,0,0,.69-.73v-.1c0-.09,0-.09.08-.18s.09-.37.09-.55a.89.89,0,0,0-.26-.65,16.17,16.17,0,0,0,.26-2.66,3.14,3.14,0,0,0-.86-2.4,1.86,1.86,0,0,0-1.36-.64c-.09-.09-.17-.37-.43-.55A2.82,2.82,0,0,0,271.23,181Z" transform="translate(-114.1 -139.03)"/><path class="cls-16" d="M589.67,182.68V180a.36.36,0,0,1,.3-.36h27.67a.36.36,0,0,1,.3.36v2.67Zm28-4.1H589.89a1.28,1.28,0,0,0-1.12,1.34v24.93a1.27,1.27,0,0,0,1.12,1.33h1a.54.54,0,0,0,0-1.06h-1a.36.36,0,0,1-.3-.36v-21.1h28.2v1.16a.54.54,0,0,0,.45.53.61.61,0,0,0,.53-.53v-4.9A1.29,1.29,0,0,0,617.64,178.58Z" transform="translate(-114.1 -139.03)"/><path class="cls-16" d="M618.32,186.69a.52.52,0,0,0-.45.53v17.63a.35.35,0,0,1-.3.35H593a.54.54,0,0,0-.45.54.45.45,0,0,0,.45.44h24.67a1.28,1.28,0,0,0,1.13-1.33V187.22A.53.53,0,0,0,618.32,186.69Z" transform="translate(-114.1 -139.03)"/><path class="cls-16" d="M607.14,180.63H591.69a.54.54,0,0,0,0,1.07h15.38a.54.54,0,0,0,.45-.53C607.52,180.9,607.37,180.63,607.14,180.63Z" transform="translate(-114.1 -139.03)"/><path class="cls-16" d="M615.77,180.63h-.23a.54.54,0,0,0,0,1.07h.23a.54.54,0,0,0,.45-.53A.48.48,0,0,0,615.77,180.63Z" transform="translate(-114.1 -139.03)"/><path class="cls-16" d="M614.12,180.63h-.23a.54.54,0,0,0,0,1.07h.23a.54.54,0,0,0,0-1.07Z" transform="translate(-114.1 -139.03)"/><path class="cls-16" d="M612.47,180.63h-.23a.54.54,0,0,0,0,1.07h.23a.54.54,0,0,0,0-1.07Z" transform="translate(-114.1 -139.03)"/><path class="cls-16" d="M601,198.62h.6a.57.57,0,0,0,.53-.63v-.71a.53.53,0,0,0-.45-.53.52.52,0,0,0-.45.53v.27h-.3a.53.53,0,0,0-.45.53C600.54,198.44,600.69,198.62,601,198.62Z" transform="translate(-114.1 -139.03)"/><path class="cls-16" d="M599.19,197.64h-1.5a.53.53,0,0,0-.45.53.54.54,0,0,0,.45.54h1.5a.54.54,0,0,0,.45-.54A.47.47,0,0,0,599.19,197.64Z" transform="translate(-114.1 -139.03)"/><path class="cls-16" d="M594.39,198.62h1.5a.54.54,0,0,0,0-1.07h-1.5a.54.54,0,0,0-.45.53Q594.06,198.62,594.39,198.62Z" transform="translate(-114.1 -139.03)"/><path class="cls-16" d="M593.12,198.08a.54.54,0,0,0-.45-.53h-.3v-.27a.53.53,0,0,0-.45-.53.52.52,0,0,0-.45.53v.62a.57.57,0,0,0,.52.63h.6C592.89,198.62,593.12,198.44,593.12,198.08Z" transform="translate(-114.1 -139.03)"/><path class="cls-16" d="M591.47,195.5a.52.52,0,0,0,.45.53.53.53,0,0,0,.45-.53v-1.42a.54.54,0,0,0-.45-.54.54.54,0,0,0-.45.54Z" transform="translate(-114.1 -139.03)"/><path class="cls-16" d="M591.47,192.38a.54.54,0,0,0,.45.54.54.54,0,0,0,.45-.54V191a.53.53,0,0,0-.45-.53.52.52,0,0,0-.45.53Z" transform="translate(-114.1 -139.03)"/><path class="cls-16" d="M591.92,189.62a.53.53,0,0,0,.45-.53v-.27h.3a.53.53,0,0,0,.45-.53.54.54,0,0,0-.45-.54H592a.57.57,0,0,0-.52.63V189C591.47,189.45,591.69,189.62,591.92,189.62Z" transform="translate(-114.1 -139.03)"/><path class="cls-16" d="M599.19,187.75h-1.5a.54.54,0,0,0-.45.54.53.53,0,0,0,.45.53h1.5a.52.52,0,0,0,.45-.53A.54.54,0,0,0,599.19,187.75Z" transform="translate(-114.1 -139.03)"/><path class="cls-16" d="M595.89,187.75h-1.5a.54.54,0,0,0-.45.54.53.53,0,0,0,.45.53h1.5a.52.52,0,0,0,.45-.53A.54.54,0,0,0,595.89,187.75Z" transform="translate(-114.1 -139.03)"/><path class="cls-16" d="M602.12,188.47a.57.57,0,0,0-.53-.63H601a.54.54,0,0,0,0,1.07h.3v.27a.53.53,0,0,0,.45.53.52.52,0,0,0,.45-.53v-.71Z" transform="translate(-114.1 -139.03)"/><path class="cls-16" d="M601.67,193.54a.54.54,0,0,0-.45.54v1.42a.52.52,0,0,0,.45.53.53.53,0,0,0,.45-.53v-1.42A.48.48,0,0,0,601.67,193.54Z" transform="translate(-114.1 -139.03)"/><path class="cls-16" d="M602.12,190.87a.53.53,0,0,0-.45-.53.52.52,0,0,0-.45.53v1.43a.53.53,0,0,0,.45.53.54.54,0,0,0,.45-.53Z" transform="translate(-114.1 -139.03)"/><path class="cls-16" d="M613.82,197.46a.92.92,0,0,0-.3.8l.15,1.42-3.38-3.47,4.43.36Zm-2.7,1.78H604v-1.42l3.08-2.59,2.1.89c.07.09.07.27.22.36l1.8,1.78Zm0-6.68v2.67l-1.35-.17a.66.66,0,0,0-.38.08l-2.17-1a.52.52,0,0,0-.6.09l-2.7,2.23v-4h7.2Zm.15-1.07h-7.58a.75.75,0,0,0-.67.81v7.21a.74.74,0,0,0,.67.8h7.58a.74.74,0,0,0,.67-.8v-.36l1.65,1.69a1,1,0,0,0,.45.18c.08,0,.23,0,.3-.09a1,1,0,0,0,.38-.8l-.3-2,1.35-1.16a.89.89,0,0,0,.22-.89.59.59,0,0,0-.6-.53l-3.45-.27v-2.94C611.94,191.85,611.64,191.49,611.27,191.49Z" transform="translate(-114.1 -139.03)"/><path class="cls-16" d="M596.79,190.87a.54.54,0,0,0-.45.53v1.25h-1.05a.54.54,0,0,0,0,1.07h1.13v1.34a.53.53,0,0,0,.45.53.54.54,0,0,0,.45-.53v-1.34h1a.54.54,0,0,0,0-1.07h-1V191.4C597.24,191.14,597.09,190.87,596.79,190.87Z" transform="translate(-114.1 -139.03)"/><path class="cls-16" d="M515.05,192.26c.77-.1,1.69-.1,2.54-.2a14.11,14.11,0,0,0,5.3-1.38c1.85-.89,2.08-1.38,2-3.85v-.1c0-.79-.15-.89-.69-.5a11.66,11.66,0,0,1-5.84,2,49.79,49.79,0,0,1-6.69,0,12.06,12.06,0,0,1-6.23-2c-.38-.29-.54-.19-.61.5-.16,2.27.07,3,1.76,3.85a7,7,0,0,0,1.08.49A23.28,23.28,0,0,0,515.05,192.26Zm-.31,9.39a18.58,18.58,0,0,0,8.08-1.49c1.92-.89,2.15-1.38,2.15-3.95V196c0-.69-.15-.79-.69-.49a13,13,0,0,1-1.62.89,21.88,21.88,0,0,1-10.38,1.18,13.76,13.76,0,0,1-6.92-2.17c-.07,0-.46.1-.46.3a3.63,3.63,0,0,0,1.16,3.95,2.2,2.2,0,0,0,.69.39A17.92,17.92,0,0,0,514.74,201.65Zm.93,4.74a31.83,31.83,0,0,0,4.23-.6,17.13,17.13,0,0,0,3.92-1.48,1.92,1.92,0,0,0,1.15-1.68v-2c0-.69-.23-.69-.61-.4a10.68,10.68,0,0,1-2.08,1.09,39.33,39.33,0,0,1-5.69,1.09c-3.84.29-7.61,0-11.15-2.18-.38-.2-.54-.1-.61.4-.31,2.27.07,3.26,1.76,4.05C509.29,206.09,512.05,206.29,515.67,206.39Zm.07-9.39c1.08-.2,2.93-.29,4.69-.69a14.67,14.67,0,0,0,3.77-1.68,1.88,1.88,0,0,0,.77-1.38,8.74,8.74,0,0,0,0-2c0-.59-.23-.69-.61-.49a13.54,13.54,0,0,1-1.54.89,17.85,17.85,0,0,1-7.15,1.38c-3.54,0-7-.2-10.31-2.27-.38-.3-.53,0-.53.49-.23,2.27.07,3.16,1.76,4,.23.1.47.2.77.3A23.48,23.48,0,0,0,515.74,197Zm-.92-16.59a18.67,18.67,0,0,0-6.46,1,11.85,11.85,0,0,0-2.92,1.49,1.35,1.35,0,0,0-.08,2.17,16.73,16.73,0,0,0,1.46,1.09,15.42,15.42,0,0,0,7.16,1.48,37.34,37.34,0,0,0,5.76-.5,8,8,0,0,0,4.46-1.87,1.42,1.42,0,0,0-.08-2.47,9.4,9.4,0,0,0-2.3-1.29A20,20,0,0,0,514.82,180.41Zm10.77,13v9a2.58,2.58,0,0,1-.93,2.17,8.64,8.64,0,0,1-4.15,1.88,23.44,23.44,0,0,1-12.76-.5,10.72,10.72,0,0,1-2.69-1.58,2.34,2.34,0,0,1-.85-2V184.26a2.65,2.65,0,0,1,1.15-2.37,10.24,10.24,0,0,1,4.23-1.78,24.15,24.15,0,0,1,12.69.59,9.46,9.46,0,0,1,2.31,1.29,2.29,2.29,0,0,1,.92,2.27C525.51,187.42,525.59,190.48,525.59,193.45Z" transform="translate(-114.1 -139.03)"/><path class="cls-17" d="M515.05,192.26c.77-.1,1.69-.1,2.54-.2a14.11,14.11,0,0,0,5.3-1.38c1.85-.89,2.08-1.38,2-3.85v-.1c0-.79-.15-.89-.69-.5a11.66,11.66,0,0,1-5.84,2,49.79,49.79,0,0,1-6.69,0,12.06,12.06,0,0,1-6.23-2c-.38-.29-.54-.19-.61.5-.16,2.27.07,3,1.76,3.85a8.23,8.23,0,0,0,1.08.5A23.55,23.55,0,0,0,515.05,192.26Zm-.31,9.39a18.58,18.58,0,0,0,8.08-1.49c1.92-.89,2.15-1.38,2.15-3.95V196c0-.69-.15-.79-.69-.49a13,13,0,0,1-1.62.89,21.88,21.88,0,0,1-10.38,1.18,13.76,13.76,0,0,1-6.92-2.17c-.07,0-.46.1-.46.3a3.63,3.63,0,0,0,1.16,3.95,2.2,2.2,0,0,0,.69.39A17.92,17.92,0,0,0,514.74,201.65Zm.93,4.74a31.83,31.83,0,0,0,4.23-.6,17.13,17.13,0,0,0,3.92-1.48,1.92,1.92,0,0,0,1.15-1.68v-2c0-.69-.23-.69-.61-.4a10.68,10.68,0,0,1-2.08,1.09,39.33,39.33,0,0,1-5.69,1.09c-3.84.29-7.61,0-11.15-2.18-.38-.2-.54-.1-.61.4-.31,2.27.07,3.26,1.76,4.05C509.29,206.09,512.05,206.29,515.67,206.39Zm.07-9.39c1.08-.2,2.93-.29,4.69-.69a14.67,14.67,0,0,0,3.77-1.68,1.88,1.88,0,0,0,.77-1.38,8.74,8.74,0,0,0,0-2c0-.59-.23-.69-.61-.49a12.19,12.19,0,0,1-1.54.89,17.85,17.85,0,0,1-7.15,1.38c-3.54,0-7-.2-10.31-2.27-.38-.3-.53,0-.53.49-.23,2.27.07,3.16,1.76,4,.23.1.47.2.77.3A23.48,23.48,0,0,0,515.74,197Zm-.92-16.59a18.67,18.67,0,0,0-6.46,1,11.85,11.85,0,0,0-2.92,1.49,1.35,1.35,0,0,0-.08,2.17,16.73,16.73,0,0,0,1.46,1.09,15.42,15.42,0,0,0,7.16,1.48,37.34,37.34,0,0,0,5.76-.5,8,8,0,0,0,4.46-1.87,1.42,1.42,0,0,0-.08-2.47,9.4,9.4,0,0,0-2.3-1.29A20,20,0,0,0,514.82,180.41Zm10.77,13v9a2.58,2.58,0,0,1-.93,2.17,8.64,8.64,0,0,1-4.15,1.88,23.44,23.44,0,0,1-12.76-.5,10.72,10.72,0,0,1-2.69-1.58,2.34,2.34,0,0,1-.85-2V184.26a2.65,2.65,0,0,1,1.15-2.37,10.24,10.24,0,0,1,4.23-1.78,24.15,24.15,0,0,1,12.69.59,9.46,9.46,0,0,1,2.31,1.29,2.29,2.29,0,0,1,.92,2.27C525.51,187.42,525.59,190.48,525.59,193.45Z" transform="translate(-114.1 -139.03)"/><path class="cls-16" d="M460.29,465.27a18.15,18.15,0,0,0,2.1,6.2H451a6.31,6.31,0,0,0-.8-2.3,7.43,7.43,0,0,0,3.4-2.2.48.48,0,0,0-.1-.7.49.49,0,0,0-.7.1c-1.5,1.9-7.5,3.4-8.9,2.9-.9-.3-.8-.6-.7-1.4v-.7a1.17,1.17,0,0,0-.9-1.3c-.1,0-.2-.1-.3-.1.1-.1.2-.2.3-.2a.51.51,0,0,0,.4-.5.66.66,0,0,0-.5-.4h-.5v-1a1.5,1.5,0,0,0-.4-1.1,1.61,1.61,0,0,0-1.1-.5,3.22,3.22,0,0,1-.6-.2,9,9,0,0,1,.7-1.4,5.45,5.45,0,0,0,1.3-3.1,12.25,12.25,0,0,0-.2-1.9,5.24,5.24,0,0,1,1.9-1.1,2.2,2.2,0,0,1,.8.1.51.51,0,1,0,.2-1,5.28,5.28,0,0,0-1.3-.1,5.38,5.38,0,0,0-2,1,2.77,2.77,0,0,1-.1-.9,9.86,9.86,0,0,1,.3-2.4,11.46,11.46,0,0,1,8.4-8.2,12.77,12.77,0,0,1,9.2,1.1c4.4,2.6,5.6,8.2,4.8,12.2a22.88,22.88,0,0,1-2.7,7.3c-.3.5-.5,1-.7,1.4A.76.76,0,0,1,460.29,465.27Zm4.4-8.8c.8-4.4-.5-10.4-5.3-13.3a13.38,13.38,0,0,0-10-1.3,12.58,12.58,0,0,0-9.1,9,12.41,12.41,0,0,0-.3,2.7c.1.6.2,1.1.3,1.7a7.61,7.61,0,0,1,.3,2.1,5.41,5.41,0,0,1-1.1,2.6c-.6.9-1.1,1.6-.8,2.3a1.56,1.56,0,0,0,1.3.8h.1a.4.4,0,0,1,.5.5c0,1.1,0,1.6.5,1.9,0,.1-.1.2-.1.3a1.14,1.14,0,0,0,.3.8,1.23,1.23,0,0,0,.8.4h.1v.8a2,2,0,0,0,1.4,2.5,3.4,3.4,0,0,0,1,.1,17.86,17.86,0,0,0,4.6-.9,6.81,6.81,0,0,1,.8,2.4.76.76,0,0,0,.2.4.52.52,0,0,0,.4.2h12.9a.51.51,0,0,0,.5-.4c.1-.2,0-.4-.2-.6a19.09,19.09,0,0,1-2.4-6.2l.6-1.2A24.59,24.59,0,0,0,464.69,456.47Z" transform="translate(-114.1 -139.03)"/><path class="cls-16" d="M459.79,458a.5.5,0,1,1,.5-.5A.47.47,0,0,1,459.79,458Zm-1.1-5.3,1-2.5h.3l.6,1.3a1.6,1.6,0,0,0-.8,1.4v.1l-.7.3A1.27,1.27,0,0,0,458.69,452.67Zm-.5,4.8a.9.9,0,0,0,.1.5l-.9.7a1.49,1.49,0,0,0-1.5-.7l-1.7-2.5a.86.86,0,0,0,.3-.6l1.7-.3a1.43,1.43,0,0,0,2,.8l.6.9A1.56,1.56,0,0,0,458.19,457.47Zm-2,2.6a.5.5,0,1,1,.5-.5A.54.54,0,0,1,456.19,460.07Zm-.9-8.5,1.4,1.2a1.79,1.79,0,0,0-.5.7l-1.7.3a1.38,1.38,0,0,0-.3-.4Zm-2.2,3.3a.5.5,0,1,1,.5-.5A.54.54,0,0,1,453.09,454.87Zm-.6-4.6h1.2a1.78,1.78,0,0,0,.7.8l-1.1,1.8H453l-.9-2C452.19,450.67,452.39,450.47,452.49,450.27Zm-.9,3.6h-2.8c-.1-.2-.1-.3-.2-.4l2.5-2.1.9,1.9A2.09,2.09,0,0,0,451.59,453.87Zm-3.9-1h-.4l-.7-1.7a1.76,1.76,0,0,0,.8-.9h2.3a1.79,1.79,0,0,0,.5.7Zm-.3,2a.5.5,0,1,1,.5-.5A.47.47,0,0,1,447.39,454.87Zm-1.6-4.6a.5.5,0,1,1,.5-.5A.47.47,0,0,1,445.79,450.27Zm1.5-2.7a1.7,1.7,0,0,0,1,0l1.6,1a2.09,2.09,0,0,0-.4.6h-2.2a1.34,1.34,0,0,0-.6-.7Zm.6-2a.5.5,0,0,1,0,1,.46.46,0,0,1-.5-.4A.56.56,0,0,1,447.89,445.57Zm3.6,4.2a.5.5,0,1,1-.5-.5A.47.47,0,0,1,451.49,449.77Zm-2.1-3.7,1.7-.3a1.41,1.41,0,0,0,.6.7l-.9,1.6-1.6-1A2,2,0,0,0,449.39,446.07Zm3.2.9,1.6,1.5a1.79,1.79,0,0,0-.5.7h-1.2a1.78,1.78,0,0,0-.7-.8Zm-.1-2.4a.5.5,0,1,1-.5.5A.54.54,0,0,1,452.49,444.57Zm3.1,5.2a.5.5,0,1,1-.5-.5A.47.47,0,0,1,455.59,449.77Zm-1.6-4,1.2.3v.1a1.47,1.47,0,0,0,1.5,1.5,2.35,2.35,0,0,0,.8-.2l.9.7a1.09,1.09,0,0,0-.1.5v.1l-1.7.4a1.59,1.59,0,0,0-1.2-.9l-1.9-1.9A2.65,2.65,0,0,0,454,445.77Zm2.7-.2a.5.5,0,1,1-.5.5A.54.54,0,0,1,456.69,445.57Zm1.5,8.4a.68.68,0,0,1-.6.4c-.3,0-.4-.3-.4-.5a.47.47,0,0,1,.5-.5h.2A.45.45,0,0,1,458.19,454Zm.6-4.1-1,2.4-1.7-1.3a1.79,1.79,0,0,0,.5-.7l2-.4C458.69,449.77,458.69,449.87,458.79,449.87Zm.5-1.3c0-.2.3-.4.5-.4a.5.5,0,0,1,0,1h-.2A.42.42,0,0,1,459.29,448.57Zm2,3.8a.46.46,0,0,1,.5.4.55.55,0,0,1-.4.6c-.2.1-.5-.1-.6-.3v-.2A.47.47,0,0,1,461.29,452.37Zm0,5.3A1.62,1.62,0,0,0,460,456l-1-1.4c.1-.1.1-.2.1-.4l1-.4a1.54,1.54,0,0,0,2.7-1.2,1.6,1.6,0,0,0-1.2-1.4l-.8-1.5a1.53,1.53,0,0,0,.1-2,1.55,1.55,0,0,0-2-.4l-.9-.7a1.09,1.09,0,0,0,.1-.5,1.5,1.5,0,0,0-1-1.4,1.31,1.31,0,0,0-1.5.4l-1.5-.4a1.5,1.5,0,0,0-1.5-1.1,1.63,1.63,0,0,0-1.5,1.1l-2,.4a1.56,1.56,0,0,0-2.1-.2,1.45,1.45,0,0,0-.4,2l-1,1.4a1.41,1.41,0,0,0-1.3,1.4,1.51,1.51,0,0,0,1.2,1.5l.8,2a1.36,1.36,0,0,0-.3,1.7,1.42,1.42,0,0,0,1.5.9,1.5,1.5,0,0,0,1.4-1h2.7a1.55,1.55,0,0,0,1.7,1l1.7,2.6a1.68,1.68,0,0,0-.2,1.8,1.55,1.55,0,0,0,1.6.8,1.59,1.59,0,0,0,1.3-1.3l1.3-1a1.08,1.08,0,0,0,.8.2A1.24,1.24,0,0,0,461.29,457.67Z" transform="translate(-114.1 -139.03)"/><path class="cls-16" d="M260.71,469.59h-20V463.8h20.95v4.63A1,1,0,0,1,260.71,469.59Zm-27-1.16V448.84h6V469.5h-5C234.19,469.59,233.73,469.05,233.73,468.43Zm1-24.13h26a1.12,1.12,0,0,1,1,1.16v2.32h-28v-2.32A1.11,1.11,0,0,1,234.73,444.3Zm25.83,10.51-2-2.32c-.23-.26-.54-.26-.7,0l-4.64,5.35-2.16-2.5c-.23-.26-.54-.26-.7,0l-4.17,4.81-1.63-1.87c-.23-.27-.54-.27-.69,0l-3.17,3.56V448.93h20.95v13.8H241.38l2.79-3.2,1.62,1.87c.23.27.54.27.7,0l4.17-4.81,2.17,2.49c.23.27.54.27.69,0l4.64-5.34,1.62,1.87a.52.52,0,0,0,.7,0A.63.63,0,0,0,260.56,454.81Zm.15-11.66h-26a2.21,2.21,0,0,0-2,2.31v23a2.22,2.22,0,0,0,2,2.32h26a2.22,2.22,0,0,0,2-2.32v-23A2.21,2.21,0,0,0,260.71,443.15Z" transform="translate(-114.1 -139.03)"/><path class="cls-16" d="M235.52,445.62a.56.56,0,0,1,0,.75.41.41,0,0,1-.65,0,.59.59,0,0,1,0-.75A.41.41,0,0,1,235.52,445.62Z" transform="translate(-114.1 -139.03)"/><path class="cls-16" d="M237.53,445.62a.56.56,0,0,1,0,.75.41.41,0,0,1-.65,0,.59.59,0,0,1,0-.75A.41.41,0,0,1,237.53,445.62Z" transform="translate(-114.1 -139.03)"/><path class="cls-16" d="M239.55,445.62a.59.59,0,0,1,0,.75.42.42,0,0,1-.66,0,.59.59,0,0,1,0-.75A.42.42,0,0,1,239.55,445.62Z" transform="translate(-114.1 -139.03)"/><path class="cls-16" d="M235.2,451.78h3a.48.48,0,0,0,.47-.53.49.49,0,0,0-.47-.54h-3c-.24-.08-.47.18-.47.45A.56.56,0,0,0,235.2,451.78Z" transform="translate(-114.1 -139.03)"/><path class="cls-16" d="M235.2,454.1h1.47a.49.49,0,0,0,.46-.54.48.48,0,0,0-.46-.53H235.2a.49.49,0,0,0-.47.53A.54.54,0,0,0,235.2,454.1Z" transform="translate(-114.1 -139.03)"/><path class="cls-16" d="M238.21,455.25h-3a.49.49,0,0,0-.47.54.47.47,0,0,0,.47.53h3a.48.48,0,0,0,.47-.53A.49.49,0,0,0,238.21,455.25Z" transform="translate(-114.1 -139.03)"/><path class="cls-16" d="M235.2,458.64h1.47a.49.49,0,0,0,.46-.54.54.54,0,0,0-.46-.53H235.2a.49.49,0,0,0-.47.53A.54.54,0,0,0,235.2,458.64Z" transform="translate(-114.1 -139.03)"/><path class="cls-16" d="M238.21,459.8h-3a.48.48,0,0,0-.47.53c0,.27.23.62.47.62h3a.48.48,0,0,0,.47-.53C238.68,460.15,238.52,459.8,238.21,459.8Z" transform="translate(-114.1 -139.03)"/><path class="cls-16" d="M235.2,463.27h1.47a.49.49,0,0,0,.46-.54.54.54,0,0,0-.46-.53H235.2a.49.49,0,0,0-.47.53A.54.54,0,0,0,235.2,463.27Z" transform="translate(-114.1 -139.03)"/><path class="cls-16" d="M238.21,464.43h-3a.48.48,0,0,0-.47.53.47.47,0,0,0,.47.53h3a.53.53,0,0,0,0-1.06Z" transform="translate(-114.1 -139.03)"/><path class="cls-16" d="M236.74,466.74H235.2a.49.49,0,0,0-.47.53.48.48,0,0,0,.47.54h1.47a.49.49,0,0,0,.46-.54A.43.43,0,0,0,236.74,466.74Z" transform="translate(-114.1 -139.03)"/><path class="cls-16" d="M246.72,465h-4a.49.49,0,0,0-.47.53.48.48,0,0,0,.47.54h4a.49.49,0,0,0,.46-.54A.54.54,0,0,0,246.72,465Z" transform="translate(-114.1 -139.03)"/><path class="cls-16" d="M246.72,467.27h-4a.49.49,0,0,0-.47.54.48.48,0,0,0,.47.53h4a.48.48,0,0,0,.46-.53A.54.54,0,0,0,246.72,467.27Z" transform="translate(-114.1 -139.03)"/><path class="cls-16" d="M253.21,465h-4a.54.54,0,0,0,0,1.07h4a.49.49,0,0,0,.47-.54A.55.55,0,0,0,253.21,465Z" transform="translate(-114.1 -139.03)"/><path class="cls-16" d="M253.21,467.27h-4a.49.49,0,0,0-.46.54.48.48,0,0,0,.46.53h4a.48.48,0,0,0,.47-.53A.55.55,0,0,0,253.21,467.27Z" transform="translate(-114.1 -139.03)"/><path class="cls-16" d="M259.71,465h-4a.49.49,0,0,0-.47.53.48.48,0,0,0,.47.54h4a.49.49,0,0,0,.46-.54A.54.54,0,0,0,259.71,465Z" transform="translate(-114.1 -139.03)"/><path class="cls-16" d="M259.71,467.27h-4a.49.49,0,0,0-.47.54.48.48,0,0,0,.47.53h4a.48.48,0,0,0,.46-.53A.54.54,0,0,0,259.71,467.27Z" transform="translate(-114.1 -139.03)"/><path class="cls-16" d="M306.12,464.57a2.71,2.71,0,0,0,1,1.66c.51.37.93.64.93.64l.09.09.09-.09a3.88,3.88,0,0,0,.93-.73,2.71,2.71,0,0,0,.69-.74,1.73,1.73,0,0,0,.34-.83c.42.19,1.19.46,2,.92a7.33,7.33,0,0,1,1.62,1.11,1.73,1.73,0,0,1,.69,1.28v1.2h-12.8v-1.2a2.15,2.15,0,0,1,.69-1.28,6.91,6.91,0,0,1,1.7-1.11A16,16,0,0,1,306.12,464.57Zm.6-1.38a2.34,2.34,0,0,0,.85.37,1,1,0,0,0,1.37,0,3.82,3.82,0,0,0,.94-.37v1.29a1.49,1.49,0,0,1-.26.55,4,4,0,0,1-.6.65c-.42.36-.68.55-.76.64-.09-.09-.35-.18-.77-.46a2,2,0,0,1-.85-1.29v-1.38Zm3.41-8.83c.09,0,.26.09.51.37a2.69,2.69,0,0,1,.6,1.75v1.93l.43-.28a.25.25,0,0,1,.17-.09c.08,0,.17.09.17.28a.9.9,0,0,1-.09.36.37.37,0,0,1-.08.28v.28a.19.19,0,0,1-.17.18h-.51v.28a3.27,3.27,0,0,1-2.39,3.31h-.09l-.08.09a.67.67,0,0,1-.34.18.45.45,0,0,1-.35-.18l-.08-.09h-.09a3.26,3.26,0,0,1-2.38-3.31v-.46h-.52a.2.2,0,0,1-.17-.19v-.27a.31.31,0,0,0-.08-.19,1,1,0,0,0-.09-.37c0-.09.09-.18.17-.27s.09.09.17.09l.43.28v-.92a2.14,2.14,0,0,1,.77-1.66,2.32,2.32,0,0,1,1.36-.55,5.88,5.88,0,0,0,2.13-.46A1.47,1.47,0,0,0,310.13,454.36Zm-2.22-3.13a2.11,2.11,0,0,1,1.54.55,1.36,1.36,0,0,1,.43.56l.08.18h.17a1.8,1.8,0,0,1,1.2.55A2.81,2.81,0,0,1,312,455a15,15,0,0,1-.26,2.49v-.92a3.18,3.18,0,0,0-.77-2.21,1.81,1.81,0,0,0-.76-.55l-.17-.09-.09.09a2,2,0,0,1-.6.37,4.41,4.41,0,0,1-1.87.46,2.83,2.83,0,0,0-1.71.64,2.56,2.56,0,0,0-.94,2.12,8.25,8.25,0,0,1-.25-2.21,4.13,4.13,0,0,1,.85-2.67A3.08,3.08,0,0,1,307.91,451.23Zm0-.64a3.46,3.46,0,0,0-2.9,1.47,5.25,5.25,0,0,0-1,3.13,12.83,12.83,0,0,0,.26,2.48,1,1,0,0,0-.26.55c0,.19.09.37.09.56s0,.18.08.18v.09a.7.7,0,0,0,.68.74,4.44,4.44,0,0,0,1.28,2.94v1.11a10.83,10.83,0,0,0-2.21,1A11.57,11.57,0,0,0,302.2,466a2.3,2.3,0,0,0-.85,1.75v1.84h13.81v-1.84a2.45,2.45,0,0,0-.85-1.75,7,7,0,0,0-1.71-1.19,20.6,20.6,0,0,0-2.21-1v-1.11a4,4,0,0,0,1.28-2.94.77.77,0,0,0,.68-.74V459c0-.09,0-.09.08-.18s.09-.37.09-.56a.87.87,0,0,0-.26-.64,16.44,16.44,0,0,0,.26-2.67,3.17,3.17,0,0,0-.85-2.39,1.89,1.89,0,0,0-1.37-.64,1.94,1.94,0,0,0-.42-.56A2.91,2.91,0,0,0,307.91,450.59Z" transform="translate(-114.1 -139.03)"/><path class="cls-17" d="M306.12,464.57a2.71,2.71,0,0,0,1,1.66c.51.37.93.64.93.64l.09.09.09-.09a3.88,3.88,0,0,0,.93-.73,2.71,2.71,0,0,0,.69-.74,1.73,1.73,0,0,0,.34-.83c.42.19,1.19.46,2,.92a7.33,7.33,0,0,1,1.62,1.11,1.73,1.73,0,0,1,.69,1.28v1.2h-12.8v-1.2a2.15,2.15,0,0,1,.69-1.28,6.91,6.91,0,0,1,1.7-1.11A16,16,0,0,1,306.12,464.57Zm.6-1.38a2.34,2.34,0,0,0,.85.37,1,1,0,0,0,1.37,0,3.82,3.82,0,0,0,.94-.37v1.29a1.49,1.49,0,0,1-.26.55,4,4,0,0,1-.6.65c-.42.36-.68.55-.76.64-.09-.09-.35-.18-.77-.46a2,2,0,0,1-.85-1.29v-1.38Zm3.41-8.83c.09,0,.26.09.51.37a2.69,2.69,0,0,1,.6,1.75v1.93l.43-.28a.25.25,0,0,1,.17-.09c.08,0,.17.09.17.28a.9.9,0,0,1-.09.36.37.37,0,0,1-.08.28v.28a.19.19,0,0,1-.17.18h-.51v.28a3.27,3.27,0,0,1-2.39,3.31h-.09l-.08.09a.67.67,0,0,1-.34.18.45.45,0,0,1-.35-.18l-.08-.09h-.09a3.26,3.26,0,0,1-2.38-3.31v-.46h-.52a.2.2,0,0,1-.17-.19v-.27a.31.31,0,0,0-.08-.19,1,1,0,0,0-.09-.37c0-.09.09-.18.17-.27s.09.09.17.09l.43.28v-.92a2.14,2.14,0,0,1,.77-1.66,2.32,2.32,0,0,1,1.36-.55,5.88,5.88,0,0,0,2.13-.46A1.47,1.47,0,0,0,310.13,454.36Zm-2.22-3.13a2.11,2.11,0,0,1,1.54.55,1.36,1.36,0,0,1,.43.56l.08.18h.17a1.8,1.8,0,0,1,1.2.55A2.81,2.81,0,0,1,312,455a15,15,0,0,1-.26,2.49v-.92a3.18,3.18,0,0,0-.77-2.21,1.81,1.81,0,0,0-.76-.55l-.17-.09-.09.09a2,2,0,0,1-.6.37,4.41,4.41,0,0,1-1.87.46,2.83,2.83,0,0,0-1.71.64,2.56,2.56,0,0,0-.94,2.12,8.25,8.25,0,0,1-.25-2.21,4.13,4.13,0,0,1,.85-2.67A3.08,3.08,0,0,1,307.91,451.23Zm0-.64a3.46,3.46,0,0,0-2.9,1.47,5.25,5.25,0,0,0-1,3.13,12.83,12.83,0,0,0,.26,2.48,1,1,0,0,0-.26.55c0,.19.09.37.09.56s0,.18.08.18v.09a.7.7,0,0,0,.68.74,4.44,4.44,0,0,0,1.28,2.94v1.11a10.83,10.83,0,0,0-2.21,1A11.57,11.57,0,0,0,302.2,466a2.3,2.3,0,0,0-.85,1.75v1.84h13.81v-1.84a2.45,2.45,0,0,0-.85-1.75,7,7,0,0,0-1.71-1.19,20.6,20.6,0,0,0-2.21-1v-1.11a4,4,0,0,0,1.28-2.94.77.77,0,0,0,.68-.74V459c0-.09,0-.09.08-.18s.09-.37.09-.56a.87.87,0,0,0-.26-.64,16.44,16.44,0,0,0,.26-2.67,3.17,3.17,0,0,0-.85-2.39,1.89,1.89,0,0,0-1.37-.64,1.94,1.94,0,0,0-.42-.56A2.91,2.91,0,0,0,307.91,450.59Z" transform="translate(-114.1 -139.03)"/><path class="cls-16" d="M317.94,457.13a2.66,2.66,0,0,0,1,1.66c.51.36.94.64.94.64l.08.09.09-.09a4.26,4.26,0,0,0,.94-.74,2.79,2.79,0,0,0,.68-.73,1.73,1.73,0,0,0,.34-.83,20.61,20.61,0,0,1,2.05.92,8.21,8.21,0,0,1,1.62,1.1,1.79,1.79,0,0,1,.68,1.29v1.2H313.59v-1.2a2.12,2.12,0,0,1,.68-1.29,7.06,7.06,0,0,1,1.7-1.1A14.06,14.06,0,0,1,317.94,457.13Zm.59-1.38a2.49,2.49,0,0,0,.86.37.93.93,0,0,0,.68.27.94.94,0,0,0,.68-.27,4.08,4.08,0,0,0,.94-.37V457a1.56,1.56,0,0,1-.26.55,4.3,4.3,0,0,1-.59.64c-.43.37-.69.56-.77.65-.09-.09-.34-.19-.77-.46a2,2,0,0,1-.85-1.29v-1.38Zm3.41-8.83c.09,0,.26.09.52.37a2.69,2.69,0,0,1,.59,1.74V451l.43-.28a.25.25,0,0,1,.17-.09c.09,0,.17.09.17.27a1,1,0,0,1-.08.37.35.35,0,0,1-.09.28v.27a.19.19,0,0,1-.17.19H323v.27a3.27,3.27,0,0,1-2.39,3.32h-.09l-.08.09a.67.67,0,0,1-.34.18.43.43,0,0,1-.34-.18l-.09-.09h-.08a3.26,3.26,0,0,1-2.39-3.32v-.46h-.51a.18.18,0,0,1-.17-.18v-.28a.28.28,0,0,0-.09-.18,1.11,1.11,0,0,0-.08-.37.45.45,0,0,1,.17-.27c.08,0,.08.09.17.09l.42.27V450a2.13,2.13,0,0,1,.77-1.65,2.35,2.35,0,0,1,1.37-.55,5.93,5.93,0,0,0,2.13-.46A1.48,1.48,0,0,0,321.94,446.92Zm-2.21-3.13a2.08,2.08,0,0,1,1.53.55,1.37,1.37,0,0,1,.43.55l.08.19h.17a1.76,1.76,0,0,1,1.2.55,2.81,2.81,0,0,1,.68,1.93,15,15,0,0,1-.26,2.49v-.92a3.2,3.2,0,0,0-.76-2.21,1.86,1.86,0,0,0-.77-.55l-.17-.1-.09.1a1.88,1.88,0,0,1-.59.36,4.36,4.36,0,0,1-1.88.46,2.85,2.85,0,0,0-1.71.65,2.55,2.55,0,0,0-.93,2.11,8.14,8.14,0,0,1-.26-2.2,4.14,4.14,0,0,1,.85-2.67A3.09,3.09,0,0,1,319.73,443.79Zm0-.64a3.43,3.43,0,0,0-2.9,1.47,5.2,5.2,0,0,0-1,3.13,12.83,12.83,0,0,0,.26,2.48,1,1,0,0,0-.26.55c0,.19.09.37.09.55s0,.19.08.19v.09a.71.71,0,0,0,.69.74,4.37,4.37,0,0,0,1.28,2.94v1.1a11,11,0,0,0-2.22,1A10.86,10.86,0,0,0,314,458.6a2.28,2.28,0,0,0-.85,1.75v1.84H327v-1.84a2.46,2.46,0,0,0-.86-1.75,7.16,7.16,0,0,0-1.7-1.19,22.16,22.16,0,0,0-2.22-1v-1.1a4,4,0,0,0,1.28-2.94.77.77,0,0,0,.68-.74v-.09c0-.09,0-.09.09-.19s.08-.36.08-.55a.86.86,0,0,0-.25-.64,17.92,17.92,0,0,0,.25-2.67,3.17,3.17,0,0,0-.85-2.39,1.91,1.91,0,0,0-1.37-.65,2.08,2.08,0,0,0-.42-.55A2.86,2.86,0,0,0,319.73,443.15Z" transform="translate(-114.1 -139.03)"/><path class="cls-17" d="M317.94,457.13a2.66,2.66,0,0,0,1,1.66c.51.36.94.64.94.64l.08.09.09-.09a4.26,4.26,0,0,0,.94-.74,2.79,2.79,0,0,0,.68-.73,1.73,1.73,0,0,0,.34-.83,20.61,20.61,0,0,1,2.05.92,8.21,8.21,0,0,1,1.62,1.1,1.79,1.79,0,0,1,.68,1.29v1.2H313.59v-1.2a2.12,2.12,0,0,1,.68-1.29,7.06,7.06,0,0,1,1.7-1.1A14.06,14.06,0,0,1,317.94,457.13Zm.59-1.38a2.49,2.49,0,0,0,.86.37.93.93,0,0,0,.68.27.94.94,0,0,0,.68-.27,4.08,4.08,0,0,0,.94-.37V457a1.56,1.56,0,0,1-.26.55,4.3,4.3,0,0,1-.59.64c-.43.37-.69.56-.77.65-.09-.09-.34-.19-.77-.46a2,2,0,0,1-.85-1.29v-1.38Zm3.41-8.83c.09,0,.26.09.52.37a2.69,2.69,0,0,1,.59,1.74V451l.43-.28a.25.25,0,0,1,.17-.09c.09,0,.17.09.17.27a1,1,0,0,1-.08.37.35.35,0,0,1-.09.28v.27a.19.19,0,0,1-.17.19H323v.27a3.27,3.27,0,0,1-2.39,3.32h-.09l-.08.09a.67.67,0,0,1-.34.18.43.43,0,0,1-.34-.18l-.09-.09h-.08a3.26,3.26,0,0,1-2.39-3.32v-.46h-.51a.18.18,0,0,1-.17-.18v-.28a.28.28,0,0,0-.09-.18,1.11,1.11,0,0,0-.08-.37.45.45,0,0,1,.17-.27c.08,0,.08.09.17.09l.42.27V450a2.13,2.13,0,0,1,.77-1.65,2.35,2.35,0,0,1,1.37-.55,5.93,5.93,0,0,0,2.13-.46A1.48,1.48,0,0,0,321.94,446.92Zm-2.21-3.13a2.08,2.08,0,0,1,1.53.55,1.37,1.37,0,0,1,.43.55l.08.19h.17a1.76,1.76,0,0,1,1.2.55,2.81,2.81,0,0,1,.68,1.93,15,15,0,0,1-.26,2.49v-.92a3.2,3.2,0,0,0-.76-2.21,1.86,1.86,0,0,0-.77-.55l-.17-.1-.09.1a1.88,1.88,0,0,1-.59.36,4.36,4.36,0,0,1-1.88.46,2.85,2.85,0,0,0-1.71.65,2.55,2.55,0,0,0-.93,2.11,8.14,8.14,0,0,1-.26-2.2,4.14,4.14,0,0,1,.85-2.67A3.09,3.09,0,0,1,319.73,443.79Zm0-.64a3.43,3.43,0,0,0-2.9,1.47,5.2,5.2,0,0,0-1,3.13,12.83,12.83,0,0,0,.26,2.48,1,1,0,0,0-.26.55c0,.19.09.37.09.55s0,.19.08.19v.09a.71.71,0,0,0,.69.74,4.37,4.37,0,0,0,1.28,2.94v1.1a11,11,0,0,0-2.22,1A10.86,10.86,0,0,0,314,458.6a2.28,2.28,0,0,0-.85,1.75v1.84H327v-1.84a2.46,2.46,0,0,0-.86-1.75,7.16,7.16,0,0,0-1.7-1.19,22.16,22.16,0,0,0-2.22-1v-1.1a4,4,0,0,0,1.28-2.94.77.77,0,0,0,.68-.74v-.09c0-.09,0-.09.09-.19s.08-.36.08-.55a.86.86,0,0,0-.25-.64,17.92,17.92,0,0,0,.25-2.67,3.17,3.17,0,0,0-.85-2.39,1.91,1.91,0,0,0-1.37-.65,2.08,2.08,0,0,0-.42-.55A2.86,2.86,0,0,0,319.73,443.15Z" transform="translate(-114.1 -139.03)"/><path class="cls-16" d="M293.75,458.39a2.71,2.71,0,0,0,1,1.65c.51.37.94.65.94.65l.09.09.08-.09a4.26,4.26,0,0,0,.94-.74,2.68,2.68,0,0,0,.68-.74,1.7,1.7,0,0,0,.34-.82,19.62,19.62,0,0,1,2.05.92,7.2,7.2,0,0,1,1.62,1.1,1.75,1.75,0,0,1,.68,1.29v1.19H289.4V461.7a2.12,2.12,0,0,1,.68-1.29,6.65,6.65,0,0,1,1.71-1.1A13.53,13.53,0,0,1,293.75,458.39Zm.6-1.38a2.43,2.43,0,0,0,.85.36,1,1,0,0,0,1.36,0,4,4,0,0,0,.94-.36v1.28a1.35,1.35,0,0,1-.26.56,4.3,4.3,0,0,1-.59.64c-.43.37-.68.55-.77.64-.08-.09-.34-.18-.77-.46a2,2,0,0,1-.85-1.28V457Zm3.41-8.84c.08,0,.25.1.51.37a2.75,2.75,0,0,1,.6,1.75v1.93l.42-.27a.26.26,0,0,1,.17-.1c.09,0,.17.1.17.28a1.06,1.06,0,0,1-.08.37.33.33,0,0,1-.09.27v.28a.18.18,0,0,1-.17.18h-.51v.28a3.24,3.24,0,0,1-2.39,3.31h-.08l-.09.09a.56.56,0,0,1-.34.19.41.41,0,0,1-.34-.19l-.09-.09h-.08a3.24,3.24,0,0,1-2.39-3.31v-.46h-.51a.18.18,0,0,1-.17-.18v-.28a.28.28,0,0,0-.09-.18,1,1,0,0,0-.08-.37.47.47,0,0,1,.17-.28c.08,0,.08.09.17.09l.43.28v-.92a2.17,2.17,0,0,1,.76-1.66A2.45,2.45,0,0,1,295,449a5.68,5.68,0,0,0,2.13-.46A1.34,1.34,0,0,0,297.76,448.17Zm-2.22-3.12a2,2,0,0,1,1.53.55,1.2,1.2,0,0,1,.43.55l.09.18h.17a1.77,1.77,0,0,1,1.19.56,2.79,2.79,0,0,1,.68,1.93,16.19,16.19,0,0,1-.25,2.48v-.92a3.18,3.18,0,0,0-.77-2.21,1.86,1.86,0,0,0-.77-.55l-.17-.09-.08.09a1.76,1.76,0,0,1-.6.37,4.47,4.47,0,0,1-1.88.46,2.78,2.78,0,0,0-1.7.64,2.57,2.57,0,0,0-.94,2.12,8.17,8.17,0,0,1-.26-2.21,4.13,4.13,0,0,1,.86-2.67A3.07,3.07,0,0,1,295.54,445.05Zm0-.65a3.43,3.43,0,0,0-2.9,1.47,5.27,5.27,0,0,0-1,3.13,14.06,14.06,0,0,0,.25,2.49,1.08,1.08,0,0,0-.25.55c0,.18.08.37.08.55s0,.18.09.18v.1a.69.69,0,0,0,.68.73,4.37,4.37,0,0,0,1.28,2.95v1.1a11.09,11.09,0,0,0-2.22,1,11.53,11.53,0,0,0-1.7,1.2,2.26,2.26,0,0,0-.86,1.75v1.84h13.82v-1.84a2.43,2.43,0,0,0-.85-1.75,7.56,7.56,0,0,0-1.71-1.2,21.43,21.43,0,0,0-2.22-1v-1.1a4,4,0,0,0,1.28-2.95.76.76,0,0,0,.68-.73v-.1c0-.09,0-.09.09-.18s.08-.37.08-.55a.88.88,0,0,0-.25-.65,17.62,17.62,0,0,0,.25-2.66,3.18,3.18,0,0,0-.85-2.4,1.87,1.87,0,0,0-1.36-.64c-.09-.09-.17-.37-.43-.55A2.84,2.84,0,0,0,295.54,444.4Z" transform="translate(-114.1 -139.03)"/><path class="cls-17" d="M293.75,458.39a2.71,2.71,0,0,0,1,1.65c.51.37.94.65.94.65l.09.09.08-.09a4.26,4.26,0,0,0,.94-.74,2.68,2.68,0,0,0,.68-.74,1.7,1.7,0,0,0,.34-.82,19.62,19.62,0,0,1,2.05.92,7.2,7.2,0,0,1,1.62,1.1,1.75,1.75,0,0,1,.68,1.29v1.19H289.4V461.7a2.12,2.12,0,0,1,.68-1.29,6.65,6.65,0,0,1,1.71-1.1A13.53,13.53,0,0,1,293.75,458.39Zm.6-1.38a2.43,2.43,0,0,0,.85.36,1,1,0,0,0,1.36,0,4,4,0,0,0,.94-.36v1.28a1.35,1.35,0,0,1-.26.56,4.3,4.3,0,0,1-.59.64c-.43.37-.68.55-.77.64-.08-.09-.34-.18-.77-.46a2,2,0,0,1-.85-1.28V457Zm3.41-8.84c.08,0,.25.1.51.37a2.75,2.75,0,0,1,.6,1.75v1.93l.42-.27a.26.26,0,0,1,.17-.1c.09,0,.17.1.17.28a1.06,1.06,0,0,1-.08.37.33.33,0,0,1-.09.27v.28a.18.18,0,0,1-.17.18h-.51v.28a3.24,3.24,0,0,1-2.39,3.31h-.08l-.09.09a.56.56,0,0,1-.34.19.41.41,0,0,1-.34-.19l-.09-.09h-.08a3.24,3.24,0,0,1-2.39-3.31v-.46h-.51a.18.18,0,0,1-.17-.18v-.28a.28.28,0,0,0-.09-.18,1,1,0,0,0-.08-.37.47.47,0,0,1,.17-.28c.08,0,.08.09.17.09l.43.28v-.92a2.17,2.17,0,0,1,.76-1.66A2.45,2.45,0,0,1,295,449a5.68,5.68,0,0,0,2.13-.46A1.34,1.34,0,0,0,297.76,448.17Zm-2.22-3.12a2,2,0,0,1,1.53.55,1.2,1.2,0,0,1,.43.55l.09.18h.17a1.77,1.77,0,0,1,1.19.56,2.79,2.79,0,0,1,.68,1.93,16.19,16.19,0,0,1-.25,2.48v-.92a3.18,3.18,0,0,0-.77-2.21,1.86,1.86,0,0,0-.77-.55l-.17-.09-.08.09a1.76,1.76,0,0,1-.6.37,4.47,4.47,0,0,1-1.88.46,2.78,2.78,0,0,0-1.7.64,2.57,2.57,0,0,0-.94,2.12,8.17,8.17,0,0,1-.26-2.21,4.13,4.13,0,0,1,.86-2.67A3.07,3.07,0,0,1,295.54,445.05Zm0-.65a3.43,3.43,0,0,0-2.9,1.47,5.27,5.27,0,0,0-1,3.13,14.06,14.06,0,0,0,.25,2.49,1.08,1.08,0,0,0-.25.55c0,.18.08.37.08.55s0,.18.09.18v.1a.69.69,0,0,0,.68.73,4.37,4.37,0,0,0,1.28,2.95v1.1a11.09,11.09,0,0,0-2.22,1,11.53,11.53,0,0,0-1.7,1.2,2.26,2.26,0,0,0-.86,1.75v1.84h13.82v-1.84a2.43,2.43,0,0,0-.85-1.75,7.56,7.56,0,0,0-1.71-1.2,21.43,21.43,0,0,0-2.22-1v-1.1a4,4,0,0,0,1.28-2.95.76.76,0,0,0,.68-.73v-.1c0-.09,0-.09.09-.18s.08-.37.08-.55a.88.88,0,0,0-.25-.65,17.62,17.62,0,0,0,.25-2.66,3.18,3.18,0,0,0-.85-2.4,1.87,1.87,0,0,0-1.36-.64c-.09-.09-.17-.37-.43-.55A2.84,2.84,0,0,0,295.54,444.4Z" transform="translate(-114.1 -139.03)"/><path class="cls-16" d="M547.52,457h-3.31a.56.56,0,0,0-.51.53v2.76a.56.56,0,0,0,.51.53.55.55,0,0,0,.51-.53V458H547v11.58h-2.29V463.8a.55.55,0,0,0-.51-.53.56.56,0,0,0-.51.53v5.79h-1.44v-6.77a.57.57,0,0,0-.51-.53h-3.22a.56.56,0,0,0-.51.53v6.77h-1.45V458.28a.55.55,0,0,0-.51-.53h-3.31a.56.56,0,0,0-.51.53v11.31H530.8v-5.43a.56.56,0,0,0-.51-.54H527a.57.57,0,0,0-.51.54v1.51h-.59a.78.78,0,0,1-.76-.8V448h24.27v16.92a.78.78,0,0,1-.77.8H548v-8.28A.55.55,0,0,0,547.52,457Zm-6.28,12.73H539v-6.23h2.29Zm-5.77,0h-2.29V458.82h2.29Zm-5.69,0h-2.29v-4.81h2.29Zm-4.66-23.86a1.56,1.56,0,0,1,1.52-1.61h21.22a1.57,1.57,0,0,1,1.53,1.61V447H525.12Zm23.5,21.1a1.79,1.79,0,0,0,1.79-1.87V445.82a2.61,2.61,0,0,0-2.55-2.67H526.64a2.67,2.67,0,0,0-2.54,2.67V465a1.78,1.78,0,0,0,1.78,1.87h.59v2.76h-1.86a.56.56,0,0,0-.51.53c0,.27.25.63.51.63H549.9a.54.54,0,0,0,0-1.07H548v-2.76Z" transform="translate(-114.1 -139.03)"/><path class="cls-16" d="M547.1,445.11H535.47a.53.53,0,0,0,0,1.06H547.1a.56.56,0,0,0,.51-.53A.5.5,0,0,0,547.1,445.11Z" transform="translate(-114.1 -139.03)"/><path class="cls-16" d="M529.78,445.28c-.08-.17-.17-.17-.34-.17s-.25,0-.34.17a.47.47,0,0,0,0,.72.47.47,0,0,0,.34.17.45.45,0,0,0,.34-.17.47.47,0,0,0,0-.72Z" transform="translate(-114.1 -139.03)"/><path class="cls-16" d="M527.75,445.28a.35.35,0,0,0-.34-.17.42.42,0,0,0-.34.17c-.17.09-.17.18-.17.36a.46.46,0,0,0,.17.36.65.65,0,0,0,.34.17.47.47,0,0,0,.34-.17.47.47,0,0,0,0-.72Z" transform="translate(-114.1 -139.03)"/><path class="cls-16" d="M531.82,445.28c-.08-.17-.17-.17-.34-.17a.43.43,0,0,0-.34.17.47.47,0,0,0,0,.72.73.73,0,0,0,.34.17.65.65,0,0,0,.34-.17.66.66,0,0,0,.17-.36A.37.37,0,0,0,531.82,445.28Z" transform="translate(-114.1 -139.03)"/><path class="cls-16" d="M544.64,461.75a.73.73,0,0,0-.34-.17.65.65,0,0,0-.34.17.47.47,0,0,0,0,.72.58.58,0,0,0,.34.17.64.64,0,0,0,.34-.17.74.74,0,0,0,.17-.36C544.72,462,544.72,461.84,544.64,461.75Z" transform="translate(-114.1 -139.03)"/><path class="cls-16" d="M545.91,453.3a.89.89,0,0,1,0-1.78.82.82,0,0,1,.85.89C546.67,452.85,546.33,453.3,545.91,453.3Zm-5.86,6.41a.88.88,0,0,1-.85-.89.82.82,0,0,1,.85-.89.86.86,0,0,1,.85.89A.82.82,0,0,1,540.05,459.71Zm-5.94-6.41a.89.89,0,0,1,0-1.78.86.86,0,0,1,.85.89C534.88,452.85,534.54,453.3,534.11,453.3Zm-5.51,5.87a.86.86,0,0,1-.85-.89.88.88,0,0,1,.85-.89.82.82,0,0,1,.84.89A.86.86,0,0,1,528.6,459.17Zm17.31-8.72a1.93,1.93,0,0,0-1.87,2,2.58,2.58,0,0,0,.34,1.15L541,457.12a1.75,1.75,0,0,0-.94-.26,2.94,2.94,0,0,0-.85.18l-3.56-3.74a1.88,1.88,0,0,0,.25-1,1.87,1.87,0,1,0-3.73,0,1.88,1.88,0,0,0,.25,1l-3,3.2c-.17,0-.43-.09-.76-.09a2,2,0,1,0,1.86,2,2.1,2.1,0,0,0-.25-1l3-3.2a2.42,2.42,0,0,0,.85.17,1.86,1.86,0,0,0,.94-.26l3.56,3.74a1.83,1.83,0,0,0-.25,1,1.87,1.87,0,1,0,3.73,0,2.08,2.08,0,0,0-.26-1l3.48-3.65a1.55,1.55,0,0,0,.68.17,1.93,1.93,0,0,0,1.87-1.95A2.06,2.06,0,0,0,545.91,450.45Z" transform="translate(-114.1 -139.03)"/><path class="cls-16" d="M531.74,450.09a.67.67,0,0,0-.34-.18.43.43,0,0,0-.34.18.49.49,0,0,0-.26.36,1,1,0,0,0,.17.44.67.67,0,0,0,.34.18.43.43,0,0,0,.34-.18.64.64,0,0,0,.17-.35A.9.9,0,0,0,531.74,450.09Z" transform="translate(-114.1 -139.03)"/><path class="cls-16" d="M529.44,449.91H527a.54.54,0,0,0,0,1.07h2.46a.54.54,0,0,0,0-1.07Z" transform="translate(-114.1 -139.03)"/><path class="cls-16" d="M529.44,452.49H527a.57.57,0,0,0-.51.54.56.56,0,0,0,.51.53h2.46A.55.55,0,0,0,530,453,.56.56,0,0,0,529.44,452.49Z" transform="translate(-114.1 -139.03)"/><path class="cls-15" d="M598,451.33a6.82,6.82,0,0,0-1.9-.2c-5,0-9.1,3.1-9.2,6.9-3.2.6-5.4,2.9-5.4,5.4,0,3.1,3.3,5.6,7.3,5.6h.1" transform="translate(-114.1 -139.03)"/><line class="cls-15" x1="474.67" y1="330" x2="483.28" y2="330"/><rect class="cls-15" x="485.78" y="304" width="10.3" height="24.4"/><line class="cls-15" x1="484.47" y1="330" x2="497.38" y2="330"/><line class="cls-15" x1="489.28" y1="303.8" x2="489.28" y2="328.2"/><line class="cls-15" x1="486.17" y1="313.5" x2="496.47" y2="313.6"/><line class="cls-15" x1="485.58" y1="318.3" x2="495.88" y2="318.4"/><line class="cls-15" x1="486.08" y1="323.1" x2="496.38" y2="323.2"/><line class="cls-15" x1="485.58" y1="308.7" x2="495.88" y2="308.8"/><line class="cls-15" x1="486.88" y1="302.4" x2="494.88" y2="302.4"/><line class="cls-15" x1="492.47" y1="304.1" x2="492.47" y2="328.5"/><path class="cls-15" d="M597.37,453.23c-4.4-.7-8.1,1.5-8.3,5.5" transform="translate(-114.1 -139.03)"/></g></svg>