<svg id="Layer_1" data-name="Layer 1" xmlns="http://www.w3.org/2000/svg" xmlns:xlink="http://www.w3.org/1999/xlink" viewBox="0 0 494.97 264.25"><defs><style>.cls-1,.cls-22,.cls-4{fill:none;}.cls-2{clip-path:url(#clip-path);}.cls-3{fill:#fff;}.cls-22,.cls-4{stroke:#45338e;}.cls-4{stroke-linecap:round;stroke-linejoin:round;}.cls-5,.cls-6{font-size:20px;}.cls-15,.cls-23,.cls-5,.cls-6,.cls-9{font-family:AvenirNext-Regular, Avenir Next;}.cls-15,.cls-6{fill:#45338e;}.cls-7{letter-spacing:-0.01em;}.cls-8{letter-spacing:-0.02em;}.cls-9{font-size:18px;}.cls-10{letter-spacing:-0.02em;}.cls-11{letter-spacing:0em;}.cls-12{letter-spacing:-0.01em;}.cls-13{letter-spacing:0em;}.cls-14{letter-spacing:-0.02em;}.cls-15,.cls-23{font-size:17px;}.cls-16{letter-spacing:-0.01em;}.cls-17{letter-spacing:-0.03em;}.cls-18{letter-spacing:-0.02em;}.cls-19{letter-spacing:-0.02em;}.cls-20{letter-spacing:-0.01em;}.cls-21{letter-spacing:-0.02em;}.cls-22{stroke-miterlimit:10;}.cls-24{letter-spacing:-0.02em;}.cls-25{letter-spacing:-0.01em;}.cls-26{letter-spacing:0em;}.cls-27{letter-spacing:-0.03em;}.cls-28{letter-spacing:-0.05em;}</style><clipPath id="clip-path" transform="translate(-227.42 -105.94)"><rect class="cls-1" x="226.54" y="105.07" width="501" height="266"/></clipPath></defs><g class="cls-2"><rect class="cls-3" x="0.5" y="0.5" width="212.63" height="39.68"/><rect class="cls-4" x="0.5" y="0.5" width="212.63" height="39.68"/><text class="cls-5" transform="translate(39.71 26.84)">SPU </text><text class="cls-6" transform="translate(81.79 26.84)"><tspan class="cls-7">C</tspan><tspan x="14.18" y="0">ont</tspan><tspan class="cls-8" x="44.36" y="0">r</tspan><tspan x="51.22" y="0">oller</tspan></text><rect class="cls-3" x="0.5" y="40.18" width="212.63" height="223.57"/><rect class="cls-4" x="0.5" y="40.18" width="212.63" height="223.57"/><text class="cls-9" transform="translate(36.59 74.37)">K<tspan class="cls-10" x="11.3" y="0">V</tspan><tspan class="cls-11" x="22.21" y="0"> </tspan><tspan class="cls-12" x="26.71" y="0">S</tspan><tspan class="cls-13" x="36.76" y="0">to</tspan><tspan class="cls-14" x="53.46" y="0">r</tspan><tspan x="59.63" y="0">e</tspan></text><text class="cls-15" transform="translate(46.95 102.62)"><tspan xml:space="preserve">add  SPU</tspan></text><text class="cls-15" transform="translate(46.95 128.63)">modify SPU </text><text class="cls-15" transform="translate(46.95 154.62)">delete SPU </text><polygon points="15.13 64.56 28.44 68.88 15.13 73.19 15.13 64.56"/><text class="cls-9" transform="translate(36.59 189.78)"><tspan class="cls-16">C</tspan><tspan x="12.76" y="0">onn</tspan><tspan class="cls-17" x="44.68" y="0">.</tspan><tspan x="48.82" y="0" xml:space="preserve"> Manager</tspan></text><text class="cls-15" transform="translate(49.59 219.72)">SPU online</text><text class="cls-15" transform="translate(49.59 245.72)">SPU o<tspan class="cls-18" x="46.15" y="0">f</tspan><tspan x="50.86" y="0">ﬂine </tspan></text><polygon points="15.13 179.96 28.44 184.28 15.13 188.59 15.13 179.96"/><text class="cls-5" transform="translate(393.93 206.57)">K<tspan class="cls-19" x="12.56" y="0">V</tspan><tspan x="24.68" y="0"> </tspan></text><text class="cls-6" transform="translate(423.59 206.57)"><tspan class="cls-20">S</tspan><tspan x="11.18" y="0">to</tspan><tspan class="cls-21" x="29.74" y="0">r</tspan><tspan x="36.6" y="0">e</tspan></text><line class="cls-22" x1="236.75" y1="200.6" x2="363.93" y2="200.6"/><path class="cls-22" d="M591.35,303.54l8,3-8,3m8-3h-8" transform="translate(-227.42 -105.94)"/><text class="cls-23" transform="translate(268.73 67.75)">add</text><text class="cls-23" transform="translate(268.73 90.75)"><tspan class="cls-24">r</tspan><tspan x="5.83" y="0">emove</tspan></text><line class="cls-22" x1="236.75" y1="101.75" x2="363.93" y2="101.75"/><path class="cls-22" d="M591.35,204.69l8,3-8,3m8-3h-8" transform="translate(-227.42 -105.94)"/><text class="cls-23" transform="translate(268.73 189.6)">upd<tspan class="cls-25" x="31.5" y="0">a</tspan><tspan class="cls-26" x="40.41" y="0">te</tspan></text><text class="cls-5" transform="translate(393.93 105.62)"><tspan class="cls-7">C</tspan><tspan x="14.18" y="0">onn</tspan><tspan class="cls-27" x="49.64" y="0">.</tspan><tspan x="54.24" y="0"> </tspan></text><text class="cls-6" transform="translate(453.15 105.62)">Mg<tspan class="cls-28" x="30.36" y="0">r</tspan><tspan x="36.62" y="0">.</tspan></text></g></svg>