<svg id="Layer_1" data-name="Layer 1" xmlns="http://www.w3.org/2000/svg" xmlns:xlink="http://www.w3.org/1999/xlink" viewBox="0 0 899.15 596.85"><defs><style>.cls-1,.cls-12,.cls-18,.cls-3,.cls-5{fill:none;}.cls-2{clip-path:url(#clip-path);}.cls-18,.cls-3{stroke:#45338e;stroke-width:1.5px;}.cls-3{stroke-miterlimit:10;}.cls-4{fill:#fff;}.cls-12,.cls-5{stroke:#389460;}.cls-12,.cls-18,.cls-5{stroke-linecap:round;stroke-linejoin:round;}.cls-19,.cls-26,.cls-6,.cls-8{font-size:18.29px;}.cls-13,.cls-14,.cls-19,.cls-26,.cls-31,.cls-33,.cls-6,.cls-8{font-family:AvenirNext-Regular, Avenir Next;}.cls-7{letter-spacing:-0.05em;}.cls-19,.cls-8{fill:#8266a8;}.cls-19,.cls-9{letter-spacing:-0.01em;}.cls-10{letter-spacing:0em;}.cls-11{letter-spacing:-0.02em;}.cls-12{stroke-width:2px;}.cls-13,.cls-14,.cls-31,.cls-33{font-size:20.12px;}.cls-13,.cls-14{fill:#389460;}.cls-14{letter-spacing:-0.05em;}.cls-15{letter-spacing:-0.02em;}.cls-16{letter-spacing:0em;}.cls-17{letter-spacing:-0.01em;}.cls-20{letter-spacing:0em;}.cls-21{letter-spacing:-0.01em;}.cls-22{letter-spacing:-0.01em;}.cls-23{letter-spacing:-0.06em;}.cls-24{letter-spacing:0em;}.cls-25{letter-spacing:-0.01em;}.cls-26{letter-spacing:-0.02em;}.cls-27{letter-spacing:-0.01em;}.cls-28{letter-spacing:0em;}.cls-29{fill:#ebebeb;}.cls-30{fill:#0d5ba9;}.cls-31,.cls-33{fill:#45338e;}.cls-31{letter-spacing:-0.03em;}.cls-32{letter-spacing:0em;}</style><clipPath id="clip-path" transform="translate(-30.93 -50.97)"><rect class="cls-1" x="30.45" y="50.94" width="900" height="597.26"/></clipPath></defs><g class="cls-2"><line class="cls-3" x1="228.71" y1="178.94" x2="520.39" y2="300.15"/><path class="cls-3" d="M552.48,348.33l6.27,5.88-8.59-.3m8.59.3-7.43-3.09" transform="translate(-30.93 -50.97)"/><line class="cls-3" x1="568.72" y1="177.96" x2="494.84" y2="231.13"/><path class="cls-3" d="M527.54,284.55l-8.3,2.26,4.77-7.15m-4.77,7.15,6.54-4.7" transform="translate(-30.93 -50.97)"/><rect class="cls-4" x="577.52" y="251.45" width="159.21" height="68.64"/><rect class="cls-5" x="577.52" y="251.45" width="159.21" height="68.64"/><rect class="cls-4" x="563.3" y="262.69" width="159.21" height="68.64"/><rect class="cls-5" x="563.3" y="262.69" width="159.21" height="68.64"/><rect class="cls-4" x="547.38" y="275.24" width="159.23" height="68.68"/><rect class="cls-5" x="547.38" y="275.24" width="159.23" height="68.68"/><text class="cls-6" transform="translate(561.1 301.8)"><tspan class="cls-7">F</tspan><tspan x="9.4" y="0">ollower </tspan></text><text class="cls-8" transform="translate(561.1 329.24)"><tspan class="cls-9">C</tspan><tspan class="cls-10" x="12.97" y="0">ont</tspan><tspan class="cls-11" x="40.57" y="0">r</tspan><tspan x="46.85" y="0">oller</tspan></text><rect class="cls-4" x="805.61" y="255.31" width="92.54" height="48.54"/><rect class="cls-12" x="805.61" y="255.31" width="92.54" height="48.54"/><rect class="cls-4" x="794.87" y="268.41" width="92.54" height="48.54"/><rect class="cls-12" x="794.87" y="268.41" width="92.54" height="48.54"/><rect class="cls-4" x="783.79" y="280.74" width="92.54" height="48.54"/><rect class="cls-12" x="783.79" y="280.74" width="92.54" height="48.54"/><text class="cls-13" transform="translate(811.41 311.41)">SPU</text><polyline class="cls-3" points="735.13 460.75 845.55 460.75 845.55 355.71"/><path class="cls-3" d="M873.47,406.68l3-8.05,3,8.05m-3-8.05v8.05" transform="translate(-30.93 -50.97)"/><polyline class="cls-3" points="847.52 235.11 847.52 133.77 743.59 134.21"/><path class="cls-3" d="M774.53,188.2l-8.06-3,8-3.05m-8,3.05,8,0" transform="translate(-30.93 -50.97)"/><rect class="cls-4" x="367.04" y="1" width="112.71" height="55.94" rx="9.15"/><rect class="cls-12" x="367.04" y="1" width="112.71" height="55.94" rx="9.15"/><rect class="cls-4" x="356.43" y="14.56" width="112.71" height="55.94" rx="9.15"/><rect class="cls-12" x="356.43" y="14.56" width="112.71" height="55.94" rx="9.15"/><rect class="cls-4" x="341.59" y="29.44" width="112.71" height="55.94" rx="9.15"/><rect class="cls-12" x="341.59" y="29.44" width="112.71" height="55.94" rx="9.15"/><text class="cls-14" transform="translate(356.34 63.81)">P<tspan class="cls-15" x="10.72" y="0">r</tspan><tspan class="cls-16" x="17.63" y="0">oducer</tspan></text><rect class="cls-4" x="1" y="275.68" width="100.39" height="48.54"/><rect class="cls-12" x="1" y="275.68" width="100.39" height="48.54"/><text class="cls-13" transform="translate(38.28 306.36)">SC</text><rect class="cls-4" x="367.04" y="511.48" width="112.71" height="55.94" rx="9.15"/><rect class="cls-12" x="367.04" y="511.48" width="112.71" height="55.94" rx="9.15"/><rect class="cls-4" x="356.43" y="525.03" width="112.71" height="55.94" rx="9.15"/><rect class="cls-12" x="356.43" y="525.03" width="112.71" height="55.94" rx="9.15"/><rect class="cls-4" x="341.59" y="539.91" width="112.71" height="55.94" rx="9.15"/><rect class="cls-12" x="341.59" y="539.91" width="112.71" height="55.94" rx="9.15"/><text class="cls-13" transform="translate(350.26 574.29)"><tspan class="cls-17">C</tspan><tspan x="14.27" y="0">onsumer</tspan></text><polyline class="cls-3" points="46.18 261.37 46.18 139.19 90.96 138.94"/><path class="cls-3" d="M121.88,186.89l8.07,3-8,3.06m8-3.06-8,0" transform="translate(-30.93 -50.97)"/><rect class="cls-4" x="583.33" y="432.4" width="133.49" height="65.14" rx="10.98"/><rect class="cls-18" x="583.33" y="432.4" width="133.49" height="65.14" rx="10.98"/><text class="cls-6" transform="translate(612.75 457.19)">Multicast</text><text class="cls-19" transform="translate(601.35 484.63)">R<tspan class="cls-20" x="10.76" y="0">eplica Info</tspan></text><rect class="cls-4" x="583.33" y="102.87" width="133.49" height="65.14" rx="10.98"/><rect class="cls-18" x="583.33" y="102.87" width="133.49" height="65.14" rx="10.98"/><text class="cls-6" transform="translate(613.4 127.66)">Disp<tspan class="cls-21" x="38.16" y="0">a</tspan><tspan x="47.74" y="0">tch</tspan></text><text class="cls-19" transform="translate(601.35 155.1)">R<tspan class="cls-20" x="10.76" y="0">eplica Info</tspan></text><rect class="cls-4" x="118.34" y="102.87" width="133.49" height="65.14" rx="10.98"/><rect class="cls-18" x="118.34" y="102.87" width="133.49" height="65.14" rx="10.98"/><text class="cls-6" transform="translate(148.4 127.66)">Disp<tspan class="cls-22" x="38.16" y="0">a</tspan><tspan x="47.76" y="0">tch</tspan></text><text class="cls-8" transform="translate(130.64 155.1)">SPU/<tspan class="cls-23" x="40.68" y="0">P</tspan><tspan class="cls-24" x="50.21" y="0">a</tspan><tspan class="cls-9" x="59.98" y="0">r</tspan><tspan x="66.36" y="0">tition</tspan></text><rect class="cls-4" x="118.34" y="432.4" width="133.49" height="65.14" rx="10.98"/><rect class="cls-18" x="118.34" y="432.4" width="133.49" height="65.14" rx="10.98"/><text class="cls-6" transform="translate(154.03 457.19)">Upd<tspan class="cls-25" x="36.26" y="0">a</tspan><tspan class="cls-24" x="45.84" y="0">te</tspan></text><text class="cls-8" transform="translate(169.78 484.63)">LRS</text><line class="cls-3" x1="649.62" y1="359.05" x2="649.62" y2="410.21"/><path class="cls-3" d="M683.57,461.18l-3,8.05-3-8.05m3,8.05v-8.05" transform="translate(-30.93 -50.97)"/><line class="cls-3" x1="457.07" y1="362.23" x2="574.99" y2="417.1"/><path class="cls-3" d="M607.2,465.34l6,6.13-8.57-.66m8.57.66-7.3-3.4" transform="translate(-30.93 -50.97)"/><line class="cls-3" x1="343.36" y1="361.86" x2="257.68" y2="418.51"/><path class="cls-3" d="M290.28,472l-8.38,1.92L287,467m-5.05,6.95,6.71-4.43" transform="translate(-30.93 -50.97)"/><line class="cls-3" x1="190.61" y1="183.75" x2="293.72" y2="227.37"/><path class="cls-3" d="M325.83,275.56l6.24,5.92-8.59-.36m8.59.36-7.42-3.14" transform="translate(-30.93 -50.97)"/><polyline class="cls-3" points="101.39 460.75 47.19 460.72 47.19 348.97"/><path class="cls-3" d="M75.1,399.94l3-8.05,3,8.05m-3-8.05v8.05" transform="translate(-30.93 -50.97)"/><line class="cls-3" x1="390.98" y1="361.86" x2="390.98" y2="487.85"/><path class="cls-3" d="M424.93,538.82l-3,8-3-8m3,8v-8" transform="translate(-30.93 -50.97)"/><line class="cls-3" x1="404.74" y1="362.23" x2="404.74" y2="488.22"/><path class="cls-3" d="M438.69,539.19l-3,8-3-8m3,8v-8" transform="translate(-30.93 -50.97)"/><line class="cls-3" x1="418.5" y1="362.23" x2="418.5" y2="488.22"/><path class="cls-3" d="M452.45,539.19l-3,8-3-8m3,8v-8" transform="translate(-30.93 -50.97)"/><rect class="cls-4" x="471.23" y="255.5" width="8.23" height="69.62"/><rect class="cls-4" x="319.67" y="255.31" width="151.56" height="68.3"/><rect class="cls-5" x="319.67" y="255.31" width="151.56" height="68.3"/><rect class="cls-4" x="306.62" y="267.91" width="151.56" height="68.3"/><rect class="cls-5" x="306.62" y="267.91" width="151.56" height="68.3"/><rect class="cls-4" x="284.06" y="280.49" width="159.23" height="68.3"/><rect class="cls-5" x="284.06" y="280.49" width="159.23" height="68.3"/><text class="cls-26" transform="translate(297.78 306.87)">L<tspan class="cls-27" x="9" y="0">e</tspan><tspan class="cls-24" x="19.37" y="0">ader </tspan></text><text class="cls-8" transform="translate(297.78 334.31)"><tspan class="cls-9">C</tspan><tspan x="12.97" y="0">ont</tspan><tspan class="cls-11" x="40.57" y="0">r</tspan><tspan class="cls-28" x="46.85" y="0">oller</tspan></text><rect class="cls-4" x="274.54" y="280.37" width="8.91" height="68.89"/><rect class="cls-29" x="397.4" y="298.8" width="23.62" height="29.88" rx="7.32"/><path class="cls-30" d="M440.21,349.77a28.59,28.59,0,0,0-8,1.06,9.94,9.94,0,0,0-2.69,1.19,2.3,2.3,0,0,0-1.2,1.8v21.35a2.84,2.84,0,0,0,1.35,2.22,9.86,9.86,0,0,0,3,1.3,31.08,31.08,0,0,0,7.92,1,26.81,26.81,0,0,0,7.18-1,9.65,9.65,0,0,0,2.87-1.32,2.85,2.85,0,0,0,1.3-2.22h0l0-21.32a2.35,2.35,0,0,0-1.19-1.84,9.71,9.71,0,0,0-2.68-1.18A28.35,28.35,0,0,0,440.21,349.77Zm0,1.15a27.8,27.8,0,0,1,7.49,1,8.49,8.49,0,0,1,2.33,1c.53.37.71.67.71.91a1.61,1.61,0,0,1-.51.57,7.91,7.91,0,0,1-2,1,23.79,23.79,0,0,1-7.88,1.17,25.45,25.45,0,0,1-8.33-1.17,7.16,7.16,0,0,1-2-1,1.48,1.48,0,0,1-.5-.58c0-.2.17-.51.69-.87a8.8,8.8,0,0,1,2.35-1A27.36,27.36,0,0,1,440.21,350.92Zm10.53,4.49,0,19.74a1.66,1.66,0,0,1-.83,1.31,8.67,8.67,0,0,1-2.49,1.14,26,26,0,0,1-6.83.91,30.41,30.41,0,0,1-7.59-.92,8.83,8.83,0,0,1-2.63-1.13,1.62,1.62,0,0,1-.86-1.29V355.45a9,9,0,0,0,2.06,1,26.65,26.65,0,0,0,8.75,1.24,25,25,0,0,0,8.31-1.24A9.86,9.86,0,0,0,450.74,355.41Z" transform="translate(-30.93 -50.97)"/><rect class="cls-29" x="670.26" y="289.25" width="23.62" height="27.88" rx="7.32"/><path class="cls-30" d="M713.07,340.22a30.41,30.41,0,0,0-8,1,10.4,10.4,0,0,0-2.68,1.11,2.12,2.12,0,0,0-1.2,1.67v19.93a2.62,2.62,0,0,0,1.35,2.07,10.38,10.38,0,0,0,3,1.21,33,33,0,0,0,7.92.9,28.43,28.43,0,0,0,7.18-.9,9.42,9.42,0,0,0,2.86-1.23,2.62,2.62,0,0,0,1.31-2.07h0l0-19.9a2.18,2.18,0,0,0-1.2-1.71,9.85,9.85,0,0,0-2.67-1.1A30.6,30.6,0,0,0,713.07,340.22Zm0,1.07a29.35,29.35,0,0,1,7.49.91,8.82,8.82,0,0,1,2.33.95c.53.34.7.62.7.84a1.32,1.32,0,0,1-.51.54,7.88,7.88,0,0,1-2,.93,25.22,25.22,0,0,1-7.88,1.1,26.93,26.93,0,0,1-8.33-1.1,7.66,7.66,0,0,1-2-.92,1.33,1.33,0,0,1-.49-.55c0-.18.17-.47.69-.8a8.82,8.82,0,0,1,2.35-1A29.52,29.52,0,0,1,713.07,341.29Zm10.52,4.19,0,18.42c0,.44-.26.82-.84,1.22a8.29,8.29,0,0,1-2.48,1.06,27.25,27.25,0,0,1-6.83.85,32.39,32.39,0,0,1-7.59-.85,8.93,8.93,0,0,1-2.63-1.06c-.6-.4-.86-.78-.86-1.2v-18.4a9.09,9.09,0,0,0,2.06,1,28.43,28.43,0,0,0,8.75,1.16,26.59,26.59,0,0,0,8.3-1.16A9.53,9.53,0,0,0,723.59,345.48Z" transform="translate(-30.93 -50.97)"/><rect class="cls-29" x="661" y="304.39" width="23.62" height="27.88" rx="7.32"/><path class="cls-30" d="M703.81,355.36a30.41,30.41,0,0,0-8,1,10.06,10.06,0,0,0-2.68,1.11,2.12,2.12,0,0,0-1.2,1.67v19.93a2.59,2.59,0,0,0,1.35,2.06,10.15,10.15,0,0,0,3,1.22,33.13,33.13,0,0,0,7.93.9,28.49,28.49,0,0,0,7.18-.9,9.67,9.67,0,0,0,2.86-1.23,2.61,2.61,0,0,0,1.3-2.07h0l0-19.9a2.18,2.18,0,0,0-1.2-1.71,10,10,0,0,0-2.67-1.1A30.16,30.16,0,0,0,703.81,355.36Zm0,1.07a29.35,29.35,0,0,1,7.49.91,8.82,8.82,0,0,1,2.33,1c.52.34.7.62.7.84a1.32,1.32,0,0,1-.51.54,7.88,7.88,0,0,1-2,.93,25.22,25.22,0,0,1-7.88,1.1,26.93,26.93,0,0,1-8.33-1.1,7.31,7.31,0,0,1-2-.93,1.28,1.28,0,0,1-.49-.54c0-.18.17-.47.69-.81a9.2,9.2,0,0,1,2.35-.95A29.52,29.52,0,0,1,703.81,356.43Zm10.52,4.19,0,18.42c0,.44-.26.82-.84,1.22a8.41,8.41,0,0,1-2.48,1.06,27.31,27.31,0,0,1-6.83.85,32.38,32.38,0,0,1-7.59-.86,8.68,8.68,0,0,1-2.63-1.05c-.61-.4-.86-.78-.86-1.2v-18.4a9.54,9.54,0,0,0,2.06.95,28.43,28.43,0,0,0,8.75,1.16,26.59,26.59,0,0,0,8.3-1.16A10,10,0,0,0,714.33,360.62Z" transform="translate(-30.93 -50.97)"/><line class="cls-3" x1="649.62" y1="178.94" x2="649.62" y2="230.1"/><path class="cls-3" d="M683.57,281.07l-3,8.05-3-8.05m3,8.05v-8.05" transform="translate(-30.93 -50.97)"/><rect class="cls-4" x="328.11" y="231.49" width="133.49" height="23.12"/><line class="cls-3" x1="394.39" y1="97.4" x2="394.39" y2="228.55"/><path class="cls-3" d="M428.35,279.52l-3,8.05-3-8.05m3,8.05v-8.05" transform="translate(-30.93 -50.97)"/><line class="cls-3" x1="408.16" y1="97.78" x2="408.16" y2="228.93"/><path class="cls-3" d="M442.11,279.9l-3,8.05-3-8.05m3,8.05V279.9" transform="translate(-30.93 -50.97)"/><line class="cls-3" x1="421.92" y1="97.78" x2="421.92" y2="228.93"/><path class="cls-3" d="M455.87,279.9l-3,8.05-3-8.05m3,8.05V279.9" transform="translate(-30.93 -50.97)"/><text class="cls-31" transform="translate(436.7 247.43)">L<tspan class="cls-32" x="9.66" y="0">Cs</tspan></text><text class="cls-33" transform="translate(700.58 243.57)">FCs</text></g></svg>