<svg id="Layer_1" data-name="Layer 1" xmlns="http://www.w3.org/2000/svg" xmlns:xlink="http://www.w3.org/1999/xlink" viewBox="0 0 861.44 284.14"><defs><style>.cls-1,.cls-3,.cls-5{fill:none;}.cls-2{clip-path:url(#clip-path);}.cls-3,.cls-5{stroke:#45338e;}.cls-3{stroke-miterlimit:10;stroke-width:1.25px;}.cls-4{fill:#fff;}.cls-5{stroke-linecap:round;stroke-linejoin:round;stroke-width:1.5px;}.cls-6{font-size:20px;}.cls-6,.cls-8{fill:#45338e;font-family:AvenirNext-Regular, Avenir Next;}.cls-7{letter-spacing:-0.01em;}.cls-8{font-size:18px;}.cls-9{letter-spacing:-0.02em;}.cls-10{letter-spacing:-0.01em;}.cls-11{letter-spacing:-0.01em;}</style><clipPath id="clip-path" transform="translate(-9.15 -112.14)"><rect class="cls-1" x="9.03" y="111.64" width="862" height="285"/></clipPath></defs><g class="cls-2"><line class="cls-3" x1="651.45" y1="189.22" x2="690" y2="120.73"/><path class="cls-3" d="M696.41,231.32l6.87-5.77-1.38,8.86m1.38-8.86-4.12,7.32" transform="translate(-9.15 -112.14)"/><path class="cls-3" d="M663.35,302.9l-6.87,5.77,1.38-8.86m-1.38,8.86,4.12-7.32" transform="translate(-9.15 -112.14)"/><line class="cls-3" x1="775.32" y1="189.25" x2="736.87" y2="121.75"/><path class="cls-3" d="M743.28,235.45l-1.42-8.86,6.9,5.74m-6.9-5.74,4.16,7.3" transform="translate(-9.15 -112.14)"/><path class="cls-3" d="M787.21,299.82l1.43,8.86-6.9-5.74m6.9,5.74-4.16-7.3" transform="translate(-9.15 -112.14)"/><rect class="cls-4" x="576.75" y="211.13" width="120.73" height="71.22"/><rect class="cls-5" x="576.75" y="211.13" width="120.73" height="71.22"/><text class="cls-6" transform="translate(592.13 238.13)">GrpB<tspan class="cls-7" x="48.2" y="0">-</tspan><tspan x="54.38" y="0">Spu</tspan></text><text class="cls-8" transform="translate(621.45 268.62)">200 </text><rect class="cls-4" x="739.97" y="211.13" width="120.73" height="71.22"/><rect class="cls-5" x="739.97" y="211.13" width="120.73" height="71.22"/><text class="cls-6" transform="translate(755.35 238.13)">GrpB<tspan class="cls-7" x="48.2" y="0">-</tspan><tspan x="54.38" y="0">Spu</tspan></text><text class="cls-8" transform="translate(784.67 268.62)">201</text><line class="cls-3" x1="95.36" y1="191.43" x2="168.51" y2="117.46"/><path class="cls-3" d="M175.42,227.38l8.15-3.76-3.67,8.19m3.67-8.19-5.91,6" transform="translate(-9.15 -112.14)"/><path class="cls-3" d="M106.76,305.78l-8.15,3.76,3.67-8.19m-3.67,8.19,5.91-6" transform="translate(-9.15 -112.14)"/><rect class="cls-4" x="155.71" y="0.75" width="132.75" height="99"/><rect class="cls-5" x="155.71" y="0.75" width="132.75" height="99"/><text class="cls-6" transform="translate(197.52 27.75)">Grp<tspan class="cls-9" x="35.48" y="0">A</tspan><tspan x="49.12" y="0"> </tspan></text><text class="cls-8" transform="translate(166.71 61.09)"><tspan class="cls-7">R</tspan><tspan x="10.58" y="0" xml:space="preserve">eplicas:      3 </tspan></text><text class="cls-8" transform="translate(166.71 88.09)"><tspan xml:space="preserve">Min-id:     100</tspan></text><line class="cls-3" x1="343.82" y1="191.02" x2="280.05" y2="118.87"/><path class="cls-3" d="M286.84,233.09l-3.2-8.38,7.92,4.2m-7.92-4.2L289.2,231" transform="translate(-9.15 -112.14)"/><path class="cls-3" d="M355.33,301.07l3.21,8.38-7.93-4.21m7.93,4.21L353,303.16" transform="translate(-9.15 -112.14)"/><rect class="cls-4" x="0.75" y="212.17" width="120.73" height="71.22"/><rect class="cls-5" x="0.75" y="212.17" width="120.73" height="71.22"/><text class="cls-6" transform="translate(15.49 239.17)">GrpA<tspan class="cls-10" x="49.48" y="0">-</tspan><tspan x="55.66" y="0">Spu</tspan></text><text class="cls-8" transform="translate(45.45 269.66)">100 </text><rect class="cls-4" x="163.97" y="212.17" width="120.73" height="71.22"/><rect class="cls-5" x="163.97" y="212.17" width="120.73" height="71.22"/><text class="cls-6" transform="translate(178.71 239.17)">GrpA<tspan class="cls-10" x="49.48" y="0">-</tspan><tspan x="55.66" y="0">Spu</tspan></text><text class="cls-8" transform="translate(208.67 269.66)">101</text><rect class="cls-4" x="327.18" y="212.17" width="120.73" height="71.22"/><rect class="cls-5" x="327.18" y="212.17" width="120.73" height="71.22"/><text class="cls-6" transform="translate(341.93 239.17)">GrpA<tspan class="cls-10" x="49.48" y="0">-</tspan><tspan x="55.66" y="0">Spu</tspan></text><text class="cls-8" transform="translate(371.89 269.66)">102</text><line class="cls-3" x1="221.58" y1="189.35" x2="221.58" y2="121.54"/><path class="cls-3" d="M227.58,233.67l3.15-8.4,3.15,8.4m-3.15-8.4v8.4" transform="translate(-9.15 -112.14)"/><path class="cls-3" d="M233.88,301.49l-3.15,8.4-3.15-8.4m3.15,8.4v-8.4" transform="translate(-9.15 -112.14)"/><rect class="cls-4" x="646.23" y="0.75" width="132.75" height="99"/><rect class="cls-5" x="646.23" y="0.75" width="132.75" height="99"/><text class="cls-6" transform="translate(688.5 27.75)">GrpB</text><text class="cls-8" transform="translate(657.23 61.09)"><tspan class="cls-11">R</tspan><tspan x="10.57" y="0" xml:space="preserve">eplicas:      2 </tspan></text><text class="cls-8" transform="translate(657.23 88.09)"><tspan xml:space="preserve">Min-id:     200</tspan></text></g></svg>