<svg id="Layer_1" data-name="Layer 1" xmlns="http://www.w3.org/2000/svg" xmlns:xlink="http://www.w3.org/1999/xlink" viewBox="0 0 382.5 371.52"><defs><style>.cls-1,.cls-12,.cls-13,.cls-4,.cls-5,.cls-6,.cls-7,.cls-8{fill:none;}.cls-2{clip-path:url(#clip-path);}.cls-3{fill:#fff;}.cls-4{stroke:#45338e;}.cls-12,.cls-4,.cls-5,.cls-6,.cls-7{stroke-linecap:round;}.cls-12,.cls-4,.cls-5,.cls-6,.cls-8{stroke-linejoin:round;}.cls-4,.cls-5,.cls-7{stroke-width:1.5px;}.cls-5{stroke:#06aa90;}.cls-6{stroke:#8266a8;stroke-width:1.25px;}.cls-12,.cls-13,.cls-7,.cls-8{stroke:#000;}.cls-13,.cls-7{stroke-miterlimit:10;}.cls-8{stroke-width:0.5px;}.cls-9{font-size:18px;fill:#45338e;}.cls-14,.cls-9{font-family:AvenirNext-Regular, Avenir Next;}.cls-10{letter-spacing:-0.02em;}.cls-11{letter-spacing:0em;}.cls-14{font-size:16px;}.cls-15{letter-spacing:-0.05em;}.cls-16{letter-spacing:-0.02em;}.cls-17{letter-spacing:-0.01em;}.cls-18{letter-spacing:-0.05em;}</style><clipPath id="clip-path" transform="translate(-55.35 -39.97)"><rect class="cls-1" x="54.73" y="39.1" width="384" height="373"/></clipPath></defs><g class="cls-2"><rect class="cls-3" x="0.75" y="127.69" width="381" height="109.15"/><rect class="cls-4" x="0.75" y="127.69" width="381" height="109.15"/><path class="cls-3" d="M142.39,78.38l21.82-37.16a1,1,0,0,1,.86-.5h43.67a1,1,0,0,1,.86.5l21.82,37.16a1,1,0,0,1,0,1L209.6,116.55a1,1,0,0,1-.86.49H165.07a1,1,0,0,1-.86-.49L142.39,79.39A1,1,0,0,1,142.39,78.38Z" transform="translate(-55.35 -39.97)"/><path class="cls-5" d="M142.39,78.38l21.82-37.16a1,1,0,0,1,.86-.5h43.67a1,1,0,0,1,.86.5l21.82,37.16a1,1,0,0,1,0,1L209.6,116.55a1,1,0,0,1-.86.49H165.07a1,1,0,0,1-.86-.49L142.39,79.39A1,1,0,0,1,142.39,78.38Z" transform="translate(-55.35 -39.97)"/><rect class="cls-3" x="28.88" y="150.51" width="132.51" height="64.9" rx="2"/><rect class="cls-6" x="28.88" y="150.51" width="132.51" height="64.9" rx="2"/><rect class="cls-7" x="121.29" y="161.22" width="24.71" height="42.73"/><rect class="cls-3" x="121.29" y="161.37" width="24.71" height="42.58"/><rect x="123.99" y="163.77" width="19.32" height="5.93"/><line class="cls-8" x1="121.29" y1="172.33" x2="146" y2="172.33"/><line class="cls-8" x1="121.29" y1="184.65" x2="146" y2="184.65"/><line class="cls-8" x1="121.29" y1="194.81" x2="146" y2="194.81"/><rect x="123.99" y="175.4" width="19.32" height="5.93"/><text class="cls-9" transform="translate(58.05 175.27)">SPU</text><text class="cls-9" transform="translate(46.29 200.27)"><tspan class="cls-10">L</tspan><tspan class="cls-11" x="8.86" y="0">e</tspan><tspan x="19.06" y="0">ader</tspan></text><line class="cls-12" x1="131.05" y1="85.04" x2="131.05" y2="132.81"/><path class="cls-13" d="M189.4,172.78l-3,8-3-8m3,8v-8" transform="translate(-55.35 -39.97)"/><text class="cls-14" transform="translate(98.47 43.91)"><tspan class="cls-15">P</tspan><tspan class="cls-16" x="8.53" y="0">r</tspan><tspan x="14.02" y="0">oducer</tspan></text><rect x="175.96" y="166.89" width="19.32" height="5.93"/><line class="cls-12" x1="130.56" y1="222.3" x2="130.56" y2="277.67"/><path class="cls-13" d="M188.92,317.64l-3,8-3-8m3,8v-8" transform="translate(-55.35 -39.97)"/><line class="cls-12" x1="165.88" y1="178.1" x2="212.96" y2="178.1"/><path class="cls-13" d="M268.31,215.08l8,3-8,3m8-3h-8" transform="translate(-55.35 -39.97)"/><rect x="116.63" y="96.14" width="5.93" height="19.32"/><rect x="116.63" y="245.33" width="5.93" height="19.32"/><path class="cls-3" d="M141.9,372.08l21.82-37.16a1,1,0,0,1,.86-.49h43.67a1,1,0,0,1,.86.49l21.82,37.16a1,1,0,0,1,0,1l-21.82,37.16a1,1,0,0,1-.86.5H164.58a1,1,0,0,1-.86-.5L141.9,373.09A1,1,0,0,1,141.9,372.08Z" transform="translate(-55.35 -39.97)"/><path class="cls-5" d="M141.9,372.08l21.82-37.16a1,1,0,0,1,.86-.49h43.67a1,1,0,0,1,.86.49l21.82,37.16a1,1,0,0,1,0,1l-21.82,37.16a1,1,0,0,1-.86.5H164.58a1,1,0,0,1-.86-.5L141.9,373.09A1,1,0,0,1,141.9,372.08Z" transform="translate(-55.35 -39.97)"/><text class="cls-14" transform="translate(93.14 337.61)"><tspan class="cls-17">C</tspan><tspan x="11.34" y="0">onsumer</tspan></text><rect class="cls-3" x="227.35" y="147.6" width="132.51" height="64.9" rx="2"/><rect class="cls-6" x="227.35" y="147.6" width="132.51" height="64.9" rx="2"/><rect class="cls-7" x="242.74" y="157.24" width="24.71" height="42.73"/><rect class="cls-3" x="242.74" y="157.39" width="24.71" height="42.58"/><rect x="245.43" y="159.79" width="19.32" height="5.93"/><line class="cls-8" x1="242.74" y1="168.35" x2="267.45" y2="168.35"/><line class="cls-8" x1="242.74" y1="179.55" x2="267.45" y2="179.55"/><line class="cls-8" x1="242.74" y1="190.83" x2="267.45" y2="190.83"/><text class="cls-9" transform="translate(301.05 173.05)">SPU</text><text class="cls-9" transform="translate(282.47 198.05)"><tspan class="cls-18">F</tspan><tspan x="9.27" y="0">ollower</tspan></text></g></svg>