<svg id="Layer_1" data-name="Layer 1" xmlns="http://www.w3.org/2000/svg" xmlns:xlink="http://www.w3.org/1999/xlink" viewBox="0 0 698.74 303.57"><defs><style>.cls-1,.cls-10,.cls-14,.cls-16,.cls-4,.cls-6,.cls-7,.cls-9{fill:none;}.cls-2{clip-path:url(#clip-path);}.cls-3{fill:#fff;}.cls-4{stroke:#45338e;}.cls-14,.cls-4,.cls-6,.cls-9{stroke-linecap:round;}.cls-10,.cls-16,.cls-4,.cls-6{stroke-linejoin:round;}.cls-14,.cls-4,.cls-9{stroke-width:1.5px;}.cls-5{font-size:18px;}.cls-5,.cls-8{fill:#45338e;}.cls-11,.cls-12,.cls-5,.cls-8{font-family:AvenirNext-Regular, Avenir Next;}.cls-10,.cls-6,.cls-7,.cls-9{stroke:#000;}.cls-14,.cls-7,.cls-9{stroke-miterlimit:10;}.cls-8{font-size:16px;}.cls-10,.cls-16{stroke-width:0.5px;}.cls-11,.cls-12{font-size:12px;}.cls-12{fill:#a5a4a4;}.cls-13{fill:#06aa90;}.cls-14,.cls-16{stroke:#a5a4a4;}.cls-15{fill:#929191;}</style><clipPath id="clip-path" transform="translate(-8.24 -64.12)"><rect class="cls-1" x="7.25" y="63.59" width="700" height="306"/></clipPath></defs><g class="cls-2"><rect class="cls-3" x="0.75" y="86.07" width="294.76" height="130.5"/><rect class="cls-4" x="0.75" y="86.07" width="294.76" height="130.5"/><text class="cls-5" transform="translate(5.75 76.94)">SPU - 1 </text><line class="cls-6" x1="98.08" y1="0.5" x2="98.08" y2="65"/><path class="cls-7" d="M109.33,129.12l-3,8-3-8m3,8v-8" transform="translate(-8.24 -64.12)"/><text class="cls-8" transform="translate(59.13 117.86)">/topic1/0</text><rect class="cls-9" x="78.38" y="131.94" width="37.17" height="64.9"/><rect class="cls-3" x="78.38" y="132.18" width="37.17" height="64.67"/><rect x="82.44" y="135.82" width="29.05" height="9.01"/><line class="cls-10" x1="78.38" y1="148.81" x2="115.55" y2="148.81"/><line class="cls-10" x1="78.38" y1="167.22" x2="115.55" y2="167.22"/><line class="cls-10" x1="78.38" y1="183.94" x2="115.55" y2="183.94"/><rect x="82.44" y="153.48" width="29.05" height="9.01"/><rect x="82.44" y="171.3" width="29.05" height="9.01"/><text class="cls-11" transform="translate(66.42 143.78)">0</text><text class="cls-11" transform="translate(66.42 161.51)">1</text><text class="cls-11" transform="translate(66.42 179.84)">2</text><text class="cls-8" transform="translate(179.49 117.86)">/topic1/1</text><text class="cls-12" transform="translate(184.07 143.78)">0</text><text class="cls-12" transform="translate(184.07 161.51)">1</text><rect class="cls-3" x="403.24" y="86.07" width="294.76" height="130.5"/><rect class="cls-4" x="403.24" y="86.07" width="294.76" height="130.5"/><text class="cls-5" transform="translate(408.24 76.94)">SPU - 2 </text><text class="cls-8" transform="translate(471.06 117.65)">/topic1/1</text><text class="cls-11" transform="translate(475.03 145.04)">0</text><text class="cls-11" transform="translate(475.03 162.77)">1</text><text class="cls-11" transform="translate(475.03 181.1)">2</text><line class="cls-6" x1="431.84" y1="175.34" x2="276.16" y2="175.34"/><path class="cls-7" d="M284.4,242.46l-8-3,8-3m-8,3h8" transform="translate(-8.24 -64.12)"/><rect x="80.36" y="20.22" width="9.01" height="29.05"/><line class="cls-6" x1="98.08" y1="229.65" x2="98.08" y2="294.15"/><path class="cls-7" d="M109.33,358.27l-3,8-3-8m3,8v-8" transform="translate(-8.24 -64.12)"/><rect x="80.36" y="249.37" width="9.01" height="29.05"/><rect x="486.73" y="249.37" width="9.01" height="29.05"/><line class="cls-6" x1="504.46" y1="0.5" x2="504.46" y2="65"/><path class="cls-7" d="M515.7,129.12l-3,8-3-8m3,8v-8" transform="translate(-8.24 -64.12)"/><rect x="486.73" y="20.22" width="9.01" height="29.05"/><polygon class="cls-13" points="49.82 102.99 52.05 105.89 39.05 122.3 32.74 114.58 34.97 111.68 39.05 116.51 49.82 102.99"/><polygon class="cls-13" points="457.72 102.99 459.95 105.89 446.95 122.3 440.63 114.58 442.86 111.68 446.95 116.51 457.72 102.99"/><rect class="cls-14" x="196.03" y="130.86" width="37.17" height="64.9"/><rect class="cls-3" x="196.03" y="131.09" width="37.17" height="64.67"/><rect class="cls-15" x="200.09" y="134.73" width="29.05" height="9.01"/><line class="cls-16" x1="196.03" y1="147.73" x2="233.2" y2="147.73"/><line class="cls-16" x1="196.03" y1="166.14" x2="233.2" y2="166.14"/><line class="cls-16" x1="196.03" y1="182.86" x2="233.2" y2="182.86"/><rect class="cls-15" x="200.09" y="152.4" width="29.05" height="9.01"/><rect x="351.76" y="159.88" width="29.05" height="9.01"/><rect class="cls-9" x="486.17" y="130.86" width="37.17" height="64.9"/><rect class="cls-3" x="486.17" y="131.09" width="37.17" height="64.67"/><rect x="490.23" y="134.73" width="29.05" height="9.01"/><line class="cls-10" x1="486.17" y1="147.73" x2="523.35" y2="147.73"/><line class="cls-10" x1="486.17" y1="166.14" x2="523.35" y2="166.14"/><line class="cls-10" x1="486.17" y1="182.86" x2="523.35" y2="182.86"/><rect x="490.23" y="152.4" width="29.05" height="9.01"/><rect x="490.23" y="170.22" width="29.05" height="9.01"/><line class="cls-6" x1="504.26" y1="229.65" x2="504.26" y2="294.15"/><path class="cls-7" d="M515.5,358.27l-3,8-3-8m3,8v-8" transform="translate(-8.24 -64.12)"/></g></svg>