<svg id="Layer_1" data-name="Layer 1" xmlns="http://www.w3.org/2000/svg" xmlns:xlink="http://www.w3.org/1999/xlink" viewBox="0 0 474.7 177.63"><defs><style>.cls-1,.cls-21,.cls-4{fill:none;}.cls-2{clip-path:url(#clip-path);}.cls-3{fill:#fff;}.cls-21,.cls-4{stroke:#45338e;}.cls-4{stroke-linecap:round;stroke-linejoin:round;}.cls-5,.cls-7{font-size:20px;}.cls-10,.cls-16,.cls-24,.cls-5,.cls-7{font-family:AvenirNext-Regular, Avenir Next;}.cls-6{letter-spacing:-0.09em;}.cls-16,.cls-7{fill:#45338e;}.cls-8{letter-spacing:-0.01em;}.cls-9{letter-spacing:-0.02em;}.cls-10{font-size:18px;}.cls-11{letter-spacing:-0.02em;}.cls-12{letter-spacing:0em;}.cls-13{letter-spacing:-0.01em;}.cls-14{letter-spacing:0em;}.cls-15{letter-spacing:-0.02em;}.cls-16,.cls-24{font-size:17px;}.cls-17{letter-spacing:-0.02em;}.cls-18{letter-spacing:-0.09em;}.cls-19{letter-spacing:-0.02em;}.cls-20{letter-spacing:-0.1em;}.cls-21{stroke-miterlimit:10;}.cls-22{letter-spacing:-0.01em;}.cls-23{letter-spacing:-0.02em;}.cls-25{letter-spacing:-0.01em;}</style><clipPath id="clip-path" transform="translate(-237.55 -149.44)"><rect class="cls-1" x="236.68" y="148.57" width="481" height="179"/></clipPath></defs><g class="cls-2"><rect class="cls-3" x="0.5" y="0.5" width="212.63" height="39.68"/><rect class="cls-4" x="0.5" y="0.5" width="212.63" height="39.68"/><text class="cls-5" transform="translate(33.55 26.84)"><tspan class="cls-6">T</tspan><tspan x="9.5" y="0">opic </tspan></text><text class="cls-7" transform="translate(87.95 26.84)"><tspan class="cls-8">C</tspan><tspan x="14.18" y="0">ont</tspan><tspan class="cls-9" x="44.36" y="0">r</tspan><tspan x="51.22" y="0">oller</tspan></text><rect class="cls-3" x="0.5" y="40.18" width="212.63" height="136.95"/><rect class="cls-4" x="0.5" y="40.18" width="212.63" height="136.95"/><text class="cls-10" transform="translate(36.59 74.37)">K<tspan class="cls-11" x="11.3" y="0">V</tspan><tspan class="cls-12" x="22.21" y="0"> </tspan><tspan class="cls-13" x="26.71" y="0">S</tspan><tspan class="cls-14" x="36.76" y="0">to</tspan><tspan class="cls-15" x="53.46" y="0">r</tspan><tspan x="59.63" y="0">e</tspan></text><text class="cls-16" transform="translate(46.95 102.62)">add<tspan class="cls-17" x="30.74" y="0"> </tspan><tspan class="cls-18" x="34.59" y="0">T</tspan><tspan x="42.67" y="0">opic</tspan></text><text class="cls-16" transform="translate(46.95 128.62)">modify<tspan class="cls-19" x="53.79" y="0"> </tspan><tspan class="cls-20" x="57.63" y="0">T</tspan><tspan x="65.7" y="0">opic </tspan></text><text class="cls-16" transform="translate(46.95 154.62)">add SPU </text><polygon points="15.13 64.56 28.44 68.88 15.13 73.19 15.13 64.56"/><line class="cls-21" x1="235.63" y1="138.56" x2="362.8" y2="138.56"/><path class="cls-21" d="M600.36,285l8,3-8,3m8-3h-8" transform="translate(-237.55 -149.44)"/><text class="cls-5" transform="translate(397 142.44)">K<tspan class="cls-9" x="12.56" y="0">V</tspan><tspan x="24.68" y="0"> </tspan></text><text class="cls-7" transform="translate(426.66 142.44)"><tspan class="cls-22">S</tspan><tspan x="11.18" y="0">to</tspan><tspan class="cls-23" x="29.74" y="0">r</tspan><tspan x="36.6" y="0">e</tspan></text><text class="cls-24" transform="translate(268.75 101.65)">add</text><text class="cls-24" transform="translate(268.75 126.65)">upd<tspan class="cls-25" x="31.5" y="0">a</tspan><tspan x="40.43" y="0">te</tspan></text></g></svg>