<svg id="Layer_1" data-name="Layer 1" xmlns="http://www.w3.org/2000/svg" xmlns:xlink="http://www.w3.org/1999/xlink" viewBox="0 0 669.25 512.63"><defs><style>.cls-1,.cls-23,.cls-4{fill:none;}.cls-2{clip-path:url(#clip-path);}.cls-3{fill:#fff;}.cls-23,.cls-4{stroke:#45338e;}.cls-4{stroke-linecap:round;stroke-linejoin:round;}.cls-5{font-size:18px;}.cls-12,.cls-24,.cls-26,.cls-5,.cls-6{font-family:AvenirNext-Regular, Avenir Next;}.cls-6{font-size:16px;}.cls-12,.cls-24,.cls-26,.cls-6{fill:#45338e;}.cls-7{letter-spacing:-0.01em;}.cls-8{letter-spacing:-0.02em;}.cls-9{letter-spacing:0em;}.cls-10{letter-spacing:-0.01em;}.cls-11{letter-spacing:-0.03em;}.cls-12{font-size:20px;}.cls-13{letter-spacing:-0.02em;}.cls-14{letter-spacing:-0.01em;}.cls-15{letter-spacing:-0.01em;}.cls-16{letter-spacing:0em;}.cls-17{letter-spacing:-0.01em;}.cls-18{letter-spacing:-0.03em;}.cls-19{letter-spacing:-0.02em;}.cls-20{letter-spacing:-0.03em;}.cls-21{letter-spacing:-0.01em;}.cls-22{letter-spacing:-0.01em;}.cls-23{stroke-miterlimit:10;stroke-width:1.25px;}.cls-24,.cls-26{font-size:24px;}.cls-24{letter-spacing:-0.09em;}.cls-25{letter-spacing:0em;}.cls-27{letter-spacing:-0.06em;}.cls-28{letter-spacing:0em;}.cls-29{letter-spacing:-0.01em;}</style><clipPath id="clip-path" transform="translate(-141.21 -105.78)"><rect class="cls-1" x="141.09" y="97.15" width="670" height="522"/></clipPath></defs><g class="cls-2"><rect class="cls-3" x="0.5" y="76.12" width="185.63" height="163.13"/><rect class="cls-4" x="0.5" y="76.12" width="185.63" height="163.13"/><text class="cls-5" transform="translate(7.5 101.12)">Spec</text><text class="cls-6" transform="translate(7.5 126.12)"><tspan xml:space="preserve">    pa</tspan><tspan class="cls-7" x="34.7" y="0">r</tspan><tspan x="40.29" y="0">titions: 2</tspan></text><text class="cls-6" transform="translate(7.5 150.12)"><tspan xml:space="preserve">    </tspan><tspan class="cls-8" x="16" y="0">r</tspan><tspan x="21.49" y="0" xml:space="preserve">eplicas:    2</tspan></text><text class="cls-5" transform="translate(7.5 176.12)"><tspan class="cls-9">S</tspan><tspan x="10.06" y="0">t</tspan><tspan class="cls-10" x="15.77" y="0">a</tspan><tspan x="25.2" y="0">tus</tspan></text><text class="cls-6" transform="translate(7.5 201.12)"><tspan xml:space="preserve">    0: [101</tspan><tspan class="cls-11" x="66.72" y="0">,</tspan><tspan x="70.4" y="0" xml:space="preserve"> 102]</tspan></text><text class="cls-6" transform="translate(7.5 225.12)"><tspan xml:space="preserve">    1: [102</tspan><tspan class="cls-11" x="66.72" y="0">,</tspan><tspan x="70.4" y="0" xml:space="preserve"> 103]</tspan></text><rect class="cls-3" x="0.5" y="34.5" width="185.63" height="41.63"/><rect class="cls-4" x="0.5" y="34.5" width="185.63" height="41.63"/><text class="cls-12" transform="translate(61.64 61.5)">topic-a</text><rect class="cls-3" x="264.88" y="301.75" width="185.63" height="210.38"/><rect class="cls-4" x="264.88" y="301.75" width="185.63" height="210.38"/><text class="cls-5" transform="translate(271.88 326.75)">Spec</text><text class="cls-6" transform="translate(271.88 351.75)"><tspan xml:space="preserve">    initial</tspan><tspan class="cls-13" x="54.94" y="0">L</tspan><tspan class="cls-14" x="62.83" y="0">e</tspan><tspan x="71.9" y="0">ader: 101</tspan></text><text class="cls-6" transform="translate(271.88 375.75)"><tspan xml:space="preserve">    </tspan><tspan class="cls-13" x="16" y="0">r</tspan><tspan x="21.49" y="0">eplicas: [101</tspan><tspan class="cls-11" x="113.92" y="0">,</tspan><tspan x="117.6" y="0" xml:space="preserve"> 102]</tspan></text><text class="cls-5" transform="translate(271.88 401.75)"><tspan class="cls-15">S</tspan><tspan class="cls-16" x="10.04" y="0">t</tspan><tspan class="cls-17" x="15.75" y="0">a</tspan><tspan x="25.2" y="0">tus</tspan></text><text class="cls-6" transform="translate(271.88 426.75)"><tspan xml:space="preserve">    l</tspan><tspan class="cls-14" x="20.03" y="0">e</tspan><tspan x="29.1" y="0">ader: 101</tspan></text><text class="cls-6" transform="translate(271.88 450.75)"><tspan xml:space="preserve">    lrs: [101</tspan><tspan class="cls-18" x="74.33" y="0">,</tspan><tspan x="78.01" y="0" xml:space="preserve"> 102]</tspan></text><text class="cls-6" transform="translate(271.88 474.75)"><tspan xml:space="preserve">    hw: 119</tspan></text><text class="cls-6" transform="translate(271.88 498.75)"><tspan xml:space="preserve">    leo: 120</tspan></text><rect class="cls-3" x="264.88" y="260.13" width="185.63" height="41.63"/><rect class="cls-4" x="264.88" y="260.13" width="185.63" height="41.63"/><text class="cls-12" transform="translate(312.22 287.13)">topic-a : 0</text><rect class="cls-3" x="483.13" y="301.75" width="185.63" height="210.38"/><rect class="cls-4" x="483.13" y="301.75" width="185.63" height="210.38"/><text class="cls-5" transform="translate(490.13 326.75)">Spec</text><text class="cls-6" transform="translate(490.13 351.75)"><tspan xml:space="preserve">    initial</tspan><tspan class="cls-19" x="54.94" y="0">L</tspan><tspan class="cls-14" x="62.82" y="0">e</tspan><tspan x="71.89" y="0">ader: 102</tspan></text><text class="cls-6" transform="translate(490.13 375.75)"><tspan xml:space="preserve">    </tspan><tspan class="cls-13" x="16" y="0">r</tspan><tspan x="21.49" y="0">eplicas: [102</tspan><tspan class="cls-20" x="113.92" y="0">,</tspan><tspan x="117.61" y="0" xml:space="preserve"> 103]</tspan></text><text class="cls-5" transform="translate(490.13 401.75)"><tspan class="cls-21">S</tspan><tspan x="10.06" y="0">t</tspan><tspan class="cls-22" x="15.77" y="0">a</tspan><tspan x="25.22" y="0">tus</tspan></text><text class="cls-6" transform="translate(490.13 426.75)"><tspan xml:space="preserve">    l</tspan><tspan class="cls-14" x="20.03" y="0">e</tspan><tspan x="29.1" y="0">ader: 102</tspan></text><text class="cls-6" transform="translate(490.13 450.75)"><tspan xml:space="preserve">    lrs: [102</tspan><tspan class="cls-20" x="74.33" y="0">,</tspan><tspan x="78.03" y="0" xml:space="preserve"> 103]</tspan></text><text class="cls-6" transform="translate(490.13 474.75)"><tspan xml:space="preserve">    hw: 34</tspan></text><text class="cls-6" transform="translate(490.13 498.75)"><tspan xml:space="preserve">    leo:  34</tspan></text><rect class="cls-3" x="483.13" y="260.13" width="185.63" height="41.63"/><rect class="cls-4" x="483.13" y="260.13" width="185.63" height="41.63"/><text class="cls-12" transform="translate(530.47 287.13)">topic-a : 1</text><polyline class="cls-23" points="195.13 216.81 575.36 214 575.36 243.35"/><path class="cls-23" d="M719.72,349.13l-3.15,8.4-3.15-8.4m3.15,8.4v-8.4" transform="translate(-141.21 -105.78)"/><text class="cls-24" transform="translate(58.38 20.5)">T<tspan class="cls-25" x="11.4" y="0">opic</tspan></text><text class="cls-26" transform="translate(407.13 193.88)"><tspan class="cls-27">P</tspan><tspan class="cls-28" x="12.5" y="0">a</tspan><tspan class="cls-29" x="25.32" y="0">r</tspan><tspan x="33.7" y="0">titions</tspan></text><polyline class="cls-23" points="195.13 193.75 370.61 193.75 370.92 243.35"/><path class="cls-23" d="M515.28,349.11l-3.1,8.42-3.2-8.38m3.2,8.38,0-8.4" transform="translate(-141.21 -105.78)"/></g></svg>