<svg id="Layer_1" data-name="Layer 1" xmlns="http://www.w3.org/2000/svg" xmlns:xlink="http://www.w3.org/1999/xlink" viewBox="0 0 672.5 391.96"><defs><style>.cls-1,.cls-10,.cls-11,.cls-12,.cls-14,.cls-3,.cls-4,.cls-9{fill:none;}.cls-2{clip-path:url(#clip-path);}.cls-10,.cls-11,.cls-3,.cls-4{stroke:#000;}.cls-10,.cls-12,.cls-3,.cls-9{stroke-linecap:round;}.cls-11,.cls-14,.cls-3,.cls-9{stroke-linejoin:round;}.cls-10,.cls-12,.cls-4{stroke-miterlimit:10;}.cls-5{fill:#fff;}.cls-6{font-size:20px;}.cls-6,.cls-8{fill:#45338e;font-family:AvenirNext-Regular, Avenir Next;}.cls-7{fill:#06aa90;}.cls-8{font-size:17px;}.cls-9{stroke:#45338e;}.cls-10,.cls-12,.cls-9{stroke-width:1.5px;}.cls-11,.cls-14{stroke-width:0.5px;}.cls-12,.cls-14{stroke:#a5a4a4;}.cls-13{fill:#929191;}.cls-15{fill:#929292;}</style><clipPath id="clip-path" transform="translate(-17.95 -35.15)"><rect class="cls-1" x="17.7" y="31.73" width="673" height="397"/></clipPath></defs><g class="cls-2"><line class="cls-3" x1="112.56" y1="346.44" x2="473.17" y2="346.44"/><path class="cls-4" d="M130.51,384.59l-8-3,8-3m-8,3h8" transform="translate(-17.95 -35.15)"/><rect class="cls-5" x="257.21" y="322.35" width="86.09" height="42.1"/><text class="cls-6" transform="translate(43.25 17.08)">SPU - 1</text><rect x="143.2" y="96.68" width="19.32" height="5.93"/><polygon class="cls-7" points="27.3 56.02 29.53 58.92 16.53 75.34 10.22 67.61 12.45 64.72 16.53 69.54 27.3 56.02"/><text class="cls-6" transform="translate(272.64 17.08)">SPU - 2</text><text class="cls-8" transform="translate(260.23 174.43)">topic-a / 1</text><text class="cls-8" transform="translate(261.25 71.57)">topic-a / 0</text><polygon class="cls-7" points="250.95 160.67 253.18 163.57 240.18 179.99 233.87 172.26 236.09 169.37 240.18 174.19 250.95 160.67"/><line class="cls-3" x1="128.49" y1="107.93" x2="235.39" y2="107.93"/><path class="cls-4" d="M253.33,140.08l8,3-8,3m8-3h-8" transform="translate(-17.95 -35.15)"/><text class="cls-8" transform="translate(514.48 299.3)">topic-b / 0</text><polygon class="cls-7" points="503.96 285.55 506.19 288.44 493.19 304.86 486.88 297.14 489.1 294.24 493.19 299.07 503.96 285.55"/><text class="cls-8" transform="translate(514.48 173.82)">topic-a / 1</text><text class="cls-8" transform="translate(36.44 299.3)">topic-b / 0</text><line class="cls-9" x1="671.75" y1="254.38" x2="0.75" y2="254.38"/><line class="cls-9" x1="671.75" y1="31.54" x2="0.75" y2="31.54"/><line class="cls-9" x1="671.75" y1="391.21" x2="0.75" y2="391.21"/><text class="cls-8" transform="translate(36.44 72.58)">topic-a / 0</text><text class="cls-8" transform="translate(261.25 299.3)">topic-b / 0</text><text class="cls-6" transform="translate(525.87 17.08)">SPU - 3</text><rect class="cls-10" x="60.5" y="90.71" width="24.71" height="42.73"/><rect class="cls-5" x="60.5" y="90.86" width="24.71" height="42.58"/><rect x="63.2" y="93.26" width="19.32" height="5.93"/><line class="cls-11" x1="60.5" y1="101.82" x2="85.21" y2="101.82"/><line class="cls-11" x1="60.5" y1="114.14" x2="85.21" y2="114.14"/><line class="cls-11" x1="60.5" y1="124.3" x2="85.21" y2="124.3"/><rect x="63.2" y="104.89" width="19.32" height="5.93"/><rect class="cls-12" x="288.57" y="90.71" width="24.71" height="42.73"/><rect class="cls-5" x="288.57" y="90.71" width="24.71" height="42.58"/><rect class="cls-13" x="291.27" y="93.26" width="19.32" height="5.93"/><line class="cls-14" x1="288.57" y1="101.82" x2="313.28" y2="101.82"/><line class="cls-14" x1="288.57" y1="113.12" x2="313.28" y2="113.12"/><line class="cls-14" x1="288.57" y1="123.8" x2="313.28" y2="123.8"/><rect class="cls-12" x="543.13" y="186.4" width="24.71" height="42.73"/><rect class="cls-5" x="543.13" y="186.4" width="24.71" height="42.58"/><rect class="cls-15" x="545.82" y="188.95" width="19.32" height="5.93"/><line class="cls-14" x1="543.13" y1="197.51" x2="567.84" y2="197.51"/><line class="cls-14" x1="543.13" y1="208.82" x2="567.84" y2="208.82"/><line class="cls-14" x1="543.13" y1="219.5" x2="567.84" y2="219.5"/><rect class="cls-13" x="545.82" y="199.95" width="19.32" height="5.93"/><rect class="cls-10" x="290.29" y="186.4" width="24.71" height="42.73"/><rect class="cls-5" x="290.29" y="186.56" width="24.71" height="42.58"/><rect x="292.99" y="188.95" width="19.32" height="5.93"/><line class="cls-11" x1="290.29" y1="197.51" x2="315" y2="197.51"/><line class="cls-11" x1="290.29" y1="209.24" x2="315" y2="209.24"/><line class="cls-11" x1="290.29" y1="219.99" x2="315" y2="219.99"/><rect x="292.99" y="200.58" width="19.32" height="5.93"/><rect x="292.99" y="211.47" width="19.32" height="5.93"/><rect x="371.08" y="202.53" width="19.32" height="5.93"/><line class="cls-3" x1="356.38" y1="213.78" x2="463.27" y2="213.78"/><path class="cls-4" d="M481.21,245.93l8,3-8,3m8-3h-8" transform="translate(-17.95 -35.15)"/><rect class="cls-10" x="543.13" y="321.72" width="24.71" height="42.73"/><rect class="cls-5" x="543.13" y="321.87" width="24.71" height="42.58"/><rect x="545.82" y="324.27" width="19.32" height="5.93"/><line class="cls-11" x1="543.13" y1="333.39" x2="567.84" y2="333.39"/><line class="cls-11" x1="543.13" y1="344.56" x2="567.84" y2="344.56"/><line class="cls-11" x1="543.13" y1="355.31" x2="567.84" y2="355.31"/><rect class="cls-12" x="65.08" y="321.72" width="24.71" height="42.73"/><rect class="cls-5" x="65.08" y="321.72" width="24.71" height="42.58"/><line class="cls-14" x1="65.08" y1="332.62" x2="89.8" y2="332.62"/><line class="cls-14" x1="65.08" y1="343.92" x2="89.8" y2="343.92"/><line class="cls-14" x1="65.08" y1="354.61" x2="89.8" y2="354.61"/><rect x="436.25" y="334.16" width="19.32" height="5.93"/><line class="cls-3" x1="366.28" y1="328.93" x2="473.17" y2="328.93"/><path class="cls-4" d="M384.22,367.08l-8-3,8-3m-8,3h8" transform="translate(-17.95 -35.15)"/><rect class="cls-12" x="290.29" y="321.72" width="24.71" height="42.73"/><rect class="cls-5" x="290.29" y="321.72" width="24.71" height="42.58"/><line class="cls-14" x1="290.29" y1="332.62" x2="315" y2="332.62"/><line class="cls-14" x1="290.29" y1="343.92" x2="315" y2="343.92"/><line class="cls-14" x1="290.29" y1="354.61" x2="315" y2="354.61"/></g></svg>