<svg id="Layer_1" data-name="Layer 1" xmlns="http://www.w3.org/2000/svg" viewBox="0 0 379.75 239.03"><defs><style>.cls-1{fill:#92278f;}.cls-2,.cls-4,.cls-6,.cls-7,.cls-9{fill:none;}.cls-2,.cls-6{stroke:#6d6e71;}.cls-2,.cls-7,.cls-9{stroke-miterlimit:10;}.cls-3{fill:#6d6e71;}.cls-4,.cls-9{stroke:#92278f;}.cls-4,.cls-5,.cls-6{stroke-linecap:round;stroke-linejoin:round;}.cls-4{stroke-dasharray:4 4;}.cls-5{fill:#e6e7e8;stroke:#414042;}.cls-7{stroke:#231f20;}.cls-8{fill:#231f20;}</style></defs><path class="cls-1" d="M199.51,108.38a4,4,0,0,0,2,.57c1.16,0,1.84-.61,1.84-1.49s-.47-1.29-1.66-1.75c-1.43-.5-2.31-1.24-2.31-2.48s1.13-2.38,2.83-2.38a4,4,0,0,1,1.94.43l-.31.92a3.58,3.58,0,0,0-1.66-.41c-1.2,0-1.66.71-1.66,1.31,0,.82.54,1.22,1.75,1.69,1.48.57,2.23,1.29,2.23,2.57s-1,2.53-3.07,2.53a4.55,4.55,0,0,1-2.23-.56Z"/><path class="cls-1" d="M206,105.17c0-.65,0-1.19,0-1.71h1l0,1h0a2.17,2.17,0,0,1,2-1.16,1.87,1.87,0,0,1,1.78,1.26h0a2.75,2.75,0,0,1,.71-.82,2.16,2.16,0,0,1,1.39-.44c.83,0,2.06.55,2.06,2.73v3.71h-1.11v-3.57c0-1.21-.45-1.93-1.37-1.93a1.47,1.47,0,0,0-1.35,1,1.89,1.89,0,0,0-.09.57v3.89H210V106c0-1-.44-1.73-1.31-1.73a1.56,1.56,0,0,0-1.42,1.14,1.46,1.46,0,0,0-.09.56v3.8H206Z"/><path class="cls-1" d="M220.37,109.76l-.09-.8h0a2.34,2.34,0,0,1-1.93.94,1.79,1.79,0,0,1-1.92-1.81c0-1.52,1.35-2.35,3.78-2.34v-.13a1.29,1.29,0,0,0-1.43-1.45,3.23,3.23,0,0,0-1.64.46l-.26-.75a3.91,3.91,0,0,1,2.07-.56c1.92,0,2.39,1.31,2.39,2.57v2.36a8.7,8.7,0,0,0,.11,1.51Zm-.17-3.21c-1.25,0-2.67.19-2.67,1.41a1,1,0,0,0,1.08,1.09,1.56,1.56,0,0,0,1.52-1,1.21,1.21,0,0,0,.07-.36Z"/><path class="cls-1" d="M223.15,105.43c0-.74,0-1.38-.05-2h1l0,1.24h.05a1.87,1.87,0,0,1,1.74-1.38,1.15,1.15,0,0,1,.33,0v1.08a1.56,1.56,0,0,0-.39,0,1.61,1.61,0,0,0-1.54,1.47,4,4,0,0,0-.05.53v3.36h-1.13Z"/><path class="cls-1" d="M228.78,101.66v1.8h1.64v.88h-1.64v3.39c0,.78.22,1.22.85,1.22a2.52,2.52,0,0,0,.67-.08l0,.86a2.79,2.79,0,0,1-1,.16,1.59,1.59,0,0,1-1.24-.48,2.37,2.37,0,0,1-.44-1.64v-3.43h-1v-.88h1V102Z"/><path class="cls-1" d="M241.88,105.91c-.06-1.22-.14-2.69-.13-3.78h0c-.3,1-.66,2.11-1.1,3.32l-1.55,4.25h-.86l-1.41-4.17c-.42-1.23-.77-2.36-1-3.4h0c0,1.09-.1,2.56-.17,3.87l-.24,3.76h-1.08l.61-8.77h1.45l1.49,4.24c.37,1.08.67,2,.89,3h0c.22-.88.53-1.84.92-3l1.56-4.24h1.44l.55,8.77H242.1Z"/><path class="cls-1" d="M250.6,106.56a3.07,3.07,0,0,1-3.13,3.34,3,3,0,0,1-3-3.24,3.07,3.07,0,0,1,3.12-3.34A3,3,0,0,1,250.6,106.56Zm-5,.06c0,1.38.8,2.42,1.91,2.42s1.91-1,1.91-2.44c0-1.07-.53-2.42-1.88-2.42S245.61,105.43,245.61,106.62Z"/><path class="cls-1" d="M257.48,100.53v7.6c0,.56,0,1.2,0,1.63h-1l-.06-1.1h0a2.32,2.32,0,0,1-2.15,1.24c-1.52,0-2.69-1.29-2.69-3.2,0-2.09,1.29-3.38,2.82-3.38a2.12,2.12,0,0,1,1.9,1h0v-3.75ZM256.34,106a2.7,2.7,0,0,0,0-.48,1.69,1.69,0,0,0-1.66-1.32c-1.18,0-1.88,1-1.88,2.43s.62,2.33,1.86,2.33a1.73,1.73,0,0,0,1.68-1.37,2.46,2.46,0,0,0,0-.49Z"/><path class="cls-1" d="M264.64,108c0,.65,0,1.22.06,1.72h-1l-.06-1h0a2.36,2.36,0,0,1-2.08,1.17c-1,0-2.17-.55-2.17-2.76v-3.68h1.14V107c0,1.19.37,2,1.41,2a1.66,1.66,0,0,0,1.51-1,1.81,1.81,0,0,0,.1-.58v-3.87h1.14Z"/><path class="cls-1" d="M266.54,100.53h1.15v9.23h-1.15Z"/><path class="cls-1" d="M270.25,106.82A2,2,0,0,0,272.4,109a4.22,4.22,0,0,0,1.75-.32l.19.82a5.11,5.11,0,0,1-2.09.39,2.93,2.93,0,0,1-3.1-3.18c0-1.89,1.12-3.39,3-3.39,2.05,0,2.6,1.81,2.6,3a5,5,0,0,1,0,.53Zm3.35-.82a1.63,1.63,0,0,0-1.59-1.86,1.9,1.9,0,0,0-1.75,1.86Z"/><path class="cls-1" d="M276,108.59a3,3,0,0,0,1.5.45c.84,0,1.23-.41,1.23-.94s-.33-.84-1.17-1.15c-1.13-.4-1.67-1-1.67-1.78a1.94,1.94,0,0,1,2.17-1.85,3.12,3.12,0,0,1,1.55.39l-.29.83a2.47,2.47,0,0,0-1.28-.36c-.68,0-1.05.39-1.05.86s.37.75,1.19,1.06c1.09.42,1.65,1,1.65,1.9,0,1.11-.86,1.89-2.35,1.89a3.59,3.59,0,0,1-1.77-.43Z"/><path class="cls-1" d="M218,184v-4.72H219v3.58h2.91v-3.31h.94v3.31h4V184Z"/><path class="cls-1" d="M218.7,176.44a.71.71,0,0,1,0,1.42.7.7,0,0,1-.71-.72A.67.67,0,0,1,218.7,176.44Zm8.06,1.27h-6.29v-1.14h6.29Z"/><path class="cls-1" d="M217.53,174.67v-1.14h9.23v1.14Z"/><path class="cls-1" d="M218.66,170.22h1.81v-1.63h.87v1.63h3.39c.78,0,1.23-.22,1.23-.85a2.58,2.58,0,0,0-.08-.67l.86,0a2.85,2.85,0,0,1,.15,1,1.58,1.58,0,0,1-.48,1.23,2.32,2.32,0,0,1-1.64.44h-3.43v1h-.87v-1H219Z"/><path class="cls-1" d="M223.82,166.66a2,2,0,0,0,2.19-2.15,4.2,4.2,0,0,0-.33-1.75l.82-.19a5.11,5.11,0,0,1,.39,2.09,2.92,2.92,0,0,1-3.17,3.1c-1.9,0-3.39-1.12-3.39-3,0-2.05,1.8-2.6,3-2.6a4.82,4.82,0,0,1,.53,0Zm-.82-3.35a1.63,1.63,0,0,0-1.85,1.59,1.89,1.89,0,0,0,1.85,1.75Z"/><path class="cls-1" d="M222.43,160.79c-.74,0-1.38,0-2,.05v-1l1.23,0v-.05a1.89,1.89,0,0,1-1.37-1.74,1.06,1.06,0,0,1,0-.33h1.07a2.21,2.21,0,0,0,0,.39,1.59,1.59,0,0,0,1.46,1.53,2.87,2.87,0,0,0,.54.06h3.35v1.13Z"/><path class="cls-1" d="M258.92,184.61a4,4,0,0,0,.57-2c0-1.16-.61-1.84-1.49-1.84s-1.29.47-1.75,1.65c-.5,1.43-1.24,2.32-2.48,2.32s-2.38-1.13-2.38-2.84a4,4,0,0,1,.43-1.93l.92.31a3.58,3.58,0,0,0-.41,1.66c0,1.2.71,1.65,1.31,1.65.82,0,1.22-.53,1.69-1.74.57-1.48,1.29-2.23,2.58-2.23s2.52,1,2.52,3.06a4.56,4.56,0,0,1-.56,2.24Z"/><path class="cls-1" d="M251.07,178.09v-1.15H255v0a2.1,2.1,0,0,1-.8-.82,2.31,2.31,0,0,1-.33-1.17c0-.85.52-2.2,2.69-2.2h3.75v1.15h-3.62c-1,0-1.87.37-1.87,1.45a1.65,1.65,0,0,0,1.15,1.54,1.45,1.45,0,0,0,.54.07h3.8v1.15Z"/><path class="cls-1" d="M260.3,167.39l-.8.09v0a2.33,2.33,0,0,1,.94,1.92,1.8,1.8,0,0,1-1.81,1.93c-1.52,0-2.35-1.35-2.34-3.79h-.13a1.3,1.3,0,0,0-1.45,1.43,3.09,3.09,0,0,0,.47,1.64l-.76.26a3.87,3.87,0,0,1-.56-2.06c0-1.93,1.32-2.4,2.58-2.4h2.35a8.69,8.69,0,0,0,1.51-.1Zm-3.21.17c0,1.25.19,2.66,1.41,2.66a1,1,0,0,0,1.1-1.08,1.58,1.58,0,0,0-1.06-1.52,1.09,1.09,0,0,0-.36-.06Z"/><path class="cls-1" d="M256.06,164.61c-.81,0-1.46,0-2.05,0v-1l1.07,0v0a2.49,2.49,0,0,1-1.22-2.24c0-1.52,1.29-2.67,3.2-2.67,2.26,0,3.38,1.38,3.38,2.86a2.19,2.19,0,0,1-1,1.94v0h3.42v1.13Zm1.68-1.13a3.39,3.39,0,0,0,.47,0,1.77,1.77,0,0,0,1.33-1.72c0-1.21-1-1.91-2.43-1.91-1.26,0-2.34.66-2.34,1.87a1.83,1.83,0,0,0,1.42,1.73,1.78,1.78,0,0,0,.47.08Z"/><path class="cls-1" d="M257.36,156.57a2,2,0,0,0,2.18-2.15,4.22,4.22,0,0,0-.32-1.75l.82-.19a5.11,5.11,0,0,1,.39,2.09,2.93,2.93,0,0,1-3.17,3.1c-1.9,0-3.4-1.12-3.4-3,0-2.05,1.81-2.6,3-2.6a5,5,0,0,1,.53,0Zm-.82-3.35a1.63,1.63,0,0,0-1.86,1.59,1.9,1.9,0,0,0,1.86,1.75Z"/><path d="M117.44,109.44a5.6,5.6,0,0,1-2.32.42,4.09,4.09,0,0,1-4.33-4.43,4.36,4.36,0,0,1,4.58-4.6,4.65,4.65,0,0,1,2.08.39l-.27.92a4.09,4.09,0,0,0-1.77-.37,3.27,3.27,0,0,0-3.42,3.62,3.18,3.18,0,0,0,3.37,3.52,4.5,4.5,0,0,0,1.84-.36Z"/><path d="M124.51,106.53a3.07,3.07,0,0,1-3.13,3.34,3,3,0,0,1-3-3.23,3.07,3.07,0,0,1,3.12-3.34A3,3,0,0,1,124.51,106.53Zm-5,.07c0,1.38.79,2.42,1.91,2.42s1.91-1,1.91-2.45c0-1.06-.53-2.42-1.89-2.42S119.52,105.4,119.52,106.6Z"/><path d="M126,105.14c0-.65,0-1.18,0-1.7h1l.07,1h0a2.32,2.32,0,0,1,2.08-1.18c.88,0,2.23.52,2.23,2.67v3.76h-1.15V106.1c0-1-.37-1.86-1.45-1.86a1.64,1.64,0,0,0-1.54,1.17,1.77,1.77,0,0,0-.07.54v3.78H126Z"/><path d="M133.17,105.14c0-.65,0-1.18-.06-1.7h1l.06,1h0a2.31,2.31,0,0,1,2.08-1.18c.87,0,2.22.52,2.22,2.67v3.76h-1.14V106.1c0-1-.38-1.86-1.46-1.86a1.63,1.63,0,0,0-1.53,1.17,1.75,1.75,0,0,0-.08.54v3.78h-1.14Z"/><path d="M141,106.79a2,2,0,0,0,2.16,2.19,4.15,4.15,0,0,0,1.74-.33l.19.82a5.11,5.11,0,0,1-2.09.39,2.91,2.91,0,0,1-3.09-3.17c0-1.9,1.11-3.39,2.95-3.39,2.05,0,2.6,1.8,2.6,3a4.82,4.82,0,0,1,0,.53Zm3.35-.82a1.63,1.63,0,0,0-1.58-1.86A1.9,1.9,0,0,0,141,106Z"/><path d="M151.38,109.5a4.32,4.32,0,0,1-1.81.36,3,3,0,0,1-3.13-3.21,3.2,3.2,0,0,1,3.38-3.34,4,4,0,0,1,1.59.32l-.26.89a2.66,2.66,0,0,0-1.33-.3,2.37,2.37,0,0,0,0,4.73,3.26,3.26,0,0,0,1.4-.31Z"/><path d="M154.1,101.63v1.81h1.63v.87H154.1v3.39c0,.78.22,1.23.85,1.23a2.58,2.58,0,0,0,.67-.08l0,.85a2.59,2.59,0,0,1-1,.16,1.59,1.59,0,0,1-1.24-.48,2.37,2.37,0,0,1-.44-1.64v-3.43h-1v-.87h1v-1.51Z"/><path d="M162.72,106.53a3.08,3.08,0,0,1-3.14,3.34,3,3,0,0,1-3-3.23,3.07,3.07,0,0,1,3.12-3.34A3,3,0,0,1,162.72,106.53Zm-5,.07c0,1.38.8,2.42,1.91,2.42s1.92-1,1.92-2.45c0-1.06-.54-2.42-1.89-2.42S157.72,105.4,157.72,106.6Z"/><path d="M164.16,105.4c0-.74,0-1.38,0-2h1l0,1.23h0a1.88,1.88,0,0,1,1.74-1.37,1.69,1.69,0,0,1,.33,0v1.08a2.25,2.25,0,0,0-.4,0,1.62,1.62,0,0,0-1.53,1.47,4.15,4.15,0,0,0-.05.54v3.35h-1.13Z"/><line class="cls-2" x1="8.12" y1="157.13" x2="66.62" y2="157.13"/><polygon class="cls-3" points="60.71 160.31 60.37 159.37 66.53 157.13 60.37 154.89 60.71 153.95 69.45 157.13 60.71 160.31"/><line class="cls-2" x1="308.43" y1="157.13" x2="366.94" y2="157.13"/><polygon class="cls-3" points="361.02 160.31 360.68 159.37 366.84 157.13 360.68 154.89 361.02 153.95 369.76 157.13 361.02 160.31"/><rect class="cls-4" x="207.67" y="122.07" width="26.65" height="76.89" rx="4.54"/><rect class="cls-4" x="242.81" y="122.07" width="26.65" height="76.89" rx="4.54"/><rect class="cls-5" x="140.93" y="123.4" width="26.65" height="76.89" rx="4.54"/><path d="M155.05,180.28v3.41h3.16v-3.8h.95v4.93H150.4v-4.73h.94v3.6h2.77v-3.41Z"/><path d="M152.87,177.93l1.35-.9c.35-.23.67-.43,1-.64v0c-.38-.21-.71-.42-1-.63l-1.34-.88v-1.24l3,2.15,3.25-2.21v1.3l-1.42.92c-.36.25-.71.46-1.09.68v0c.38.21.71.43,1.09.67l1.42.91v1.26L156,177.07l-3.08,2.13Z"/><path d="M151.06,171.06h1.81v-1.63h.87v1.63h3.39c.78,0,1.22-.22,1.22-.85a2.58,2.58,0,0,0-.08-.67l.86,0a2.81,2.81,0,0,1,.16,1,1.58,1.58,0,0,1-.48,1.23,2.32,2.32,0,0,1-1.64.44h-3.43v1h-.87v-1h-1.51Z"/><path d="M154.83,168.14c-.74,0-1.38,0-2,.05v-1l1.23,0v-.05a1.89,1.89,0,0,1-1.38-1.74,1.66,1.66,0,0,1,0-.33h1.08a2.23,2.23,0,0,0,0,.39,1.61,1.61,0,0,0,1.47,1.54,4.15,4.15,0,0,0,.53,0h3.36v1.13Z"/><path d="M159.16,160.41l-.79.09v0a2.34,2.34,0,0,1,.93,1.92,1.79,1.79,0,0,1-1.81,1.92c-1.52,0-2.35-1.35-2.34-3.78H155a1.29,1.29,0,0,0-1.45,1.43,3.09,3.09,0,0,0,.47,1.64l-.76.26a3.91,3.91,0,0,1-.56-2.07c0-1.92,1.32-2.39,2.58-2.39h2.35a9.8,9.8,0,0,0,1.51-.1Zm-3.21.16c0,1.25.19,2.67,1.41,2.67a1,1,0,0,0,1.1-1.08,1.56,1.56,0,0,0-1.06-1.52,1.1,1.1,0,0,0-.36-.07Z"/><path d="M158.92,153.14a4.14,4.14,0,0,1,.37,1.81,3,3,0,0,1-3.21,3.13,3.2,3.2,0,0,1-3.34-3.38,3.93,3.93,0,0,1,.32-1.59l.89.26a2.63,2.63,0,0,0-.3,1.33,2.37,2.37,0,0,0,4.73,0,3.35,3.35,0,0,0-.31-1.41Z"/><path d="M151.06,150.42h1.81v-1.64h.87v1.64h3.39c.78,0,1.22-.22,1.22-.86a2.44,2.44,0,0,0-.08-.66l.86-.05a2.79,2.79,0,0,1,.16,1,1.6,1.6,0,0,1-.48,1.24,2.37,2.37,0,0,1-1.64.44h-3.43v1h-.87v-1h-1.51Z"/><rect class="cls-5" x="108.01" y="123.44" width="26.65" height="76.89" rx="4.54"/><path d="M117,184.86a13.13,13.13,0,0,1-.17-2.17,3.59,3.59,0,0,1,.73-2.46,2.35,2.35,0,0,1,1.83-.76,2.56,2.56,0,0,1,1.87.67,3.64,3.64,0,0,1,1,2.68,4.16,4.16,0,0,1-.08.91h3.51v1.13Zm4.23-1.13a4.06,4.06,0,0,0,.09-.93c0-1.37-.67-2.2-1.87-2.2s-1.72.82-1.72,2.07a4.82,4.82,0,0,0,.09,1.06Z"/><path d="M121.28,178c-.74,0-1.38,0-2,0v-1l1.23,0V177a1.91,1.91,0,0,1-1.38-1.75,1.47,1.47,0,0,1,0-.32h1.08a2.13,2.13,0,0,0,0,.39,1.6,1.6,0,0,0,1.47,1.53,2.89,2.89,0,0,0,.53,0h3.36V178Z"/><path d="M122.41,168a3.07,3.07,0,0,1,3.34,3.13,3,3,0,0,1-3.23,3,3.08,3.08,0,0,1-3.35-3.12A3,3,0,0,1,122.41,168Zm.07,5c1.37,0,2.41-.79,2.41-1.91s-1-1.91-2.44-1.91c-1.07,0-2.42.53-2.42,1.89S121.28,173,122.48,173Z"/><path d="M117.51,165.22h1.81v-1.64h.87v1.64h3.39c.78,0,1.22-.22,1.22-.86a3.06,3.06,0,0,0-.07-.66l.85,0a2.79,2.79,0,0,1,.16,1,1.62,1.62,0,0,1-.48,1.24,2.37,2.37,0,0,1-1.64.44h-3.43v1h-.87v-1h-1.51Z"/><path d="M122.41,156.6a3.07,3.07,0,0,1,3.34,3.13,3,3,0,0,1-3.23,3,3.08,3.08,0,0,1-3.35-3.12A3,3,0,0,1,122.41,156.6Zm.07,5c1.37,0,2.41-.79,2.41-1.91s-1-1.91-2.44-1.91c-1.07,0-2.42.53-2.42,1.89S121.28,161.59,122.48,161.59Z"/><path d="M125.37,150.67a4.14,4.14,0,0,1,.37,1.81,3,3,0,0,1-3.21,3.13,3.19,3.19,0,0,1-3.34-3.38,3.92,3.92,0,0,1,.32-1.58l.89.26a2.59,2.59,0,0,0-.3,1.32,2.37,2.37,0,0,0,4.73,0,3.26,3.26,0,0,0-.31-1.4Z"/><path d="M122.41,143.64a3.07,3.07,0,0,1,3.34,3.13,3,3,0,0,1-3.23,3,3.08,3.08,0,0,1-3.35-3.12A3,3,0,0,1,122.41,143.64Zm.07,5c1.37,0,2.41-.79,2.41-1.91s-1-1.91-2.44-1.91c-1.07,0-2.42.53-2.42,1.88S121.28,148.63,122.48,148.63Z"/><path d="M116.38,142.2v-1.15h9.23v1.15Z"/><rect class="cls-6" x="77.25" y="80.4" width="224.13" height="140.93" rx="4.54"/><line class="cls-7" x1="135.71" y1="39.89" x2="135.71" y2="69.11"/><polygon class="cls-8" points="132.53 63.2 133.47 62.85 135.71 69.01 137.95 62.85 138.89 63.2 135.71 71.93 132.53 63.2"/><line class="cls-9" x1="239.67" y1="37.46" x2="239.67" y2="66.68"/><polygon class="cls-1" points="236.49 60.77 237.43 60.43 239.67 66.58 241.91 60.43 242.85 60.77 239.67 69.51 236.49 60.77"/><path class="cls-8" d="M114.55,18.54a5.25,5.25,0,0,1-2.14.38,3.77,3.77,0,0,1-4-4.09,4,4,0,0,1,4.22-4.24,4.26,4.26,0,0,1,1.92.36l-.25.85a3.84,3.84,0,0,0-1.63-.34,3,3,0,0,0-3.16,3.34,2.94,2.94,0,0,0,3.11,3.25,4.08,4.08,0,0,0,1.7-.34Z"/><path class="cls-8" d="M120.94,15.85a2.83,2.83,0,0,1-2.89,3.08,2.76,2.76,0,0,1-2.78-3,2.83,2.83,0,0,1,2.88-3.08A2.74,2.74,0,0,1,120.94,15.85Zm-4.6.06c0,1.27.73,2.23,1.76,2.23s1.76-.94,1.76-2.25c0-1-.49-2.23-1.73-2.23S116.34,14.81,116.34,15.91Z"/><path class="cls-8" d="M122.28,14.57c0-.6,0-1.09,0-1.57h.94l.06,1h0a2.14,2.14,0,0,1,1.92-1.09c.8,0,2,.48,2,2.47V18.8h-1.06V15.46c0-.94-.34-1.72-1.34-1.72a1.5,1.5,0,0,0-1.41,1.08,1.44,1.44,0,0,0-.08.49V18.8h-1Z"/><path class="cls-8" d="M128.94,14.57c0-.6,0-1.09-.05-1.57h.94l.06,1h0a2.14,2.14,0,0,1,1.92-1.09c.8,0,2,.48,2,2.47V18.8h-1.06V15.46c0-.94-.34-1.72-1.34-1.72a1.5,1.5,0,0,0-1.41,1.08,1.44,1.44,0,0,0-.08.49V18.8h-1.05Z"/><path class="cls-8" d="M136.19,16.09a1.86,1.86,0,0,0,2,2,3.75,3.75,0,0,0,1.6-.3l.18.75a4.63,4.63,0,0,1-1.93.36A2.69,2.69,0,0,1,135.18,16c0-1.75,1-3.13,2.72-3.13a2.45,2.45,0,0,1,2.4,2.73,2.72,2.72,0,0,1,0,.49Zm3.09-.75a1.51,1.51,0,0,0-1.46-1.72,1.75,1.75,0,0,0-1.62,1.72Z"/><path class="cls-8" d="M145.75,18.59a4,4,0,0,1-1.67.33,2.75,2.75,0,0,1-2.89-3,2.94,2.94,0,0,1,3.12-3.08,3.44,3.44,0,0,1,1.46.3l-.24.81a2.5,2.5,0,0,0-1.22-.27,2,2,0,0,0-2.05,2.19,2,2,0,0,0,2,2.17,3.07,3.07,0,0,0,1.3-.28Z"/><path class="cls-8" d="M148.41,11.33V13h1.51v.8h-1.51v3.13c0,.72.21,1.13.8,1.13a2.76,2.76,0,0,0,.61-.07l0,.79a2.63,2.63,0,0,1-.93.14,1.45,1.45,0,0,1-1.14-.44,2.15,2.15,0,0,1-.41-1.51V13.8h-.9V13h.9V11.61Z"/><path class="cls-8" d="M156.29,15.85a2.83,2.83,0,0,1-2.89,3.08,2.76,2.76,0,0,1-2.78-3,2.83,2.83,0,0,1,2.88-3.08A2.74,2.74,0,0,1,156.29,15.85Zm-4.6.06c0,1.27.73,2.23,1.76,2.23s1.77-.94,1.77-2.25c0-1-.5-2.23-1.74-2.23S151.69,14.81,151.69,15.91Z"/><path class="cls-8" d="M157.63,14.81c0-.68,0-1.27,0-1.81h.93l0,1.14h.05a1.74,1.74,0,0,1,1.61-1.27,1.39,1.39,0,0,1,.3,0v1a1.32,1.32,0,0,0-.36,0,1.49,1.49,0,0,0-1.42,1.36,3.37,3.37,0,0,0-.05.49V18.8h-1Z"/><path class="cls-8" d="M124.66,31.64a5.2,5.2,0,0,1-2.13.38,3.78,3.78,0,0,1-4-4.09,4,4,0,0,1,4.23-4.24,4.29,4.29,0,0,1,1.92.36l-.26.85a3.8,3.8,0,0,0-1.63-.34,3,3,0,0,0-3.15,3.34,2.94,2.94,0,0,0,3.1,3.25,4.1,4.1,0,0,0,1.71-.34Z"/><path class="cls-8" d="M126.39,29.19a1.87,1.87,0,0,0,2,2,3.75,3.75,0,0,0,1.6-.3l.18.75a4.67,4.67,0,0,1-1.93.36,2.69,2.69,0,0,1-2.85-2.92c0-1.75,1-3.13,2.72-3.13a2.46,2.46,0,0,1,2.4,2.73,4.15,4.15,0,0,1,0,.49Zm3.1-.75A1.51,1.51,0,0,0,128,26.72a1.75,1.75,0,0,0-1.62,1.72Z"/><path class="cls-8" d="M131.82,27.67c0-.6,0-1.09,0-1.57h.94l.06,1h0A2.14,2.14,0,0,1,134.71,26c.8,0,2,.48,2,2.47V31.9H135.7V28.56c0-.94-.34-1.72-1.34-1.72A1.5,1.5,0,0,0,133,27.92a1.44,1.44,0,0,0-.08.49V31.9h-1.05Z"/><path class="cls-8" d="M139.7,24.43V26.1h1.51v.8H139.7V30c0,.72.21,1.13.79,1.13a2.6,2.6,0,0,0,.61-.07l.05.79a2.67,2.67,0,0,1-.93.14,1.45,1.45,0,0,1-1.14-.44,2.15,2.15,0,0,1-.41-1.51V26.9h-.9v-.8h.9V24.71Z"/><path class="cls-8" d="M142.4,27.91c0-.68,0-1.27-.05-1.81h.93l0,1.14h.05A1.75,1.75,0,0,1,145,26a1.39,1.39,0,0,1,.3,0v1a1.32,1.32,0,0,0-.36,0,1.5,1.5,0,0,0-1.42,1.36,3.47,3.47,0,0,0,0,.49V31.9h-1Z"/><path class="cls-8" d="M147.55,24.47a.62.62,0,0,1-.67.65.63.63,0,0,1-.64-.65.65.65,0,0,1,.66-.66A.63.63,0,0,1,147.55,24.47Zm-1.18,7.43V26.1h1.06v5.8Z"/><path class="cls-8" d="M153.32,31.69a4,4,0,0,1-1.67.33,2.75,2.75,0,0,1-2.89-3A3,3,0,0,1,151.88,26a3.4,3.4,0,0,1,1.46.3l-.24.81a2.47,2.47,0,0,0-1.22-.27,2,2,0,0,0-2,2.19,2,2,0,0,0,2,2.17,3.07,3.07,0,0,0,1.3-.28Z"/><path class="cls-1" d="M228.81,9.65A15.81,15.81,0,0,1,231,9.48a4.6,4.6,0,0,1,3.27,1,3.73,3.73,0,0,1,1.14,2.9,4.28,4.28,0,0,1-1.16,3.15,5,5,0,0,1-3.57,1.16,16.77,16.77,0,0,1-1.9-.1Zm1.05,7.15a6.25,6.25,0,0,0,1,.06,3.11,3.11,0,0,0,3.44-3.43c0-1.91-1.06-3.12-3.27-3.12a5.82,5.82,0,0,0-1.22.11Z"/><path class="cls-1" d="M240,17.63l-.08-.73h0a2.17,2.17,0,0,1-1.77.86,1.66,1.66,0,0,1-1.78-1.67c0-1.4,1.25-2.17,3.49-2.16v-.12a1.19,1.19,0,0,0-1.32-1.34,2.93,2.93,0,0,0-1.51.43l-.24-.69a3.55,3.55,0,0,1,1.91-.52c1.77,0,2.21,1.21,2.21,2.38v2.17a8.47,8.47,0,0,0,.09,1.39Zm-.15-3c-1.16,0-2.46.18-2.46,1.3a.93.93,0,0,0,1,1,1.45,1.45,0,0,0,1.41-1,1.35,1.35,0,0,0,.06-.34Z"/><path class="cls-1" d="M243.78,10.16v1.66h1.51v.81h-1.51v3.13c0,.72.2,1.12.79,1.12a2.21,2.21,0,0,0,.61-.07l0,.79a2.48,2.48,0,0,1-.94.15,1.46,1.46,0,0,1-1.14-.45,2.13,2.13,0,0,1-.41-1.51V12.63h-.9v-.81h.9V10.43Z"/><path class="cls-1" d="M249.69,17.63l-.08-.73h0a2.18,2.18,0,0,1-1.78.86A1.65,1.65,0,0,1,246,16.09c0-1.4,1.25-2.17,3.49-2.16v-.12a1.19,1.19,0,0,0-1.32-1.34,2.93,2.93,0,0,0-1.51.43l-.24-.69a3.55,3.55,0,0,1,1.91-.52c1.77,0,2.2,1.21,2.2,2.38v2.17a8.4,8.4,0,0,0,.1,1.39Zm-.16-3c-1.15,0-2.45.18-2.45,1.3a.93.93,0,0,0,1,1,1.43,1.43,0,0,0,1.4-1,1,1,0,0,0,.06-.34Z"/><path class="cls-1" d="M228.41,30.46a5,5,0,0,1-2.13.39,3.78,3.78,0,0,1-4-4.09,4,4,0,0,1,4.23-4.25,4.35,4.35,0,0,1,1.91.36l-.25.85a3.82,3.82,0,0,0-1.63-.33,3,3,0,0,0-3.15,3.33,2.94,2.94,0,0,0,3.1,3.25,4.27,4.27,0,0,0,1.71-.33Z"/><path class="cls-1" d="M230.14,28a1.86,1.86,0,0,0,2,2,3.76,3.76,0,0,0,1.61-.3l.18.76a4.67,4.67,0,0,1-1.93.36,2.69,2.69,0,0,1-2.85-2.93c0-1.75,1-3.13,2.72-3.13a2.47,2.47,0,0,1,2.4,2.74,4.35,4.35,0,0,1,0,.49Zm3.1-.76a1.5,1.5,0,0,0-1.47-1.71,1.74,1.74,0,0,0-1.61,1.71Z"/><path class="cls-1" d="M235.57,26.49c0-.6,0-1.09,0-1.57h.94l.06,1h0a2.14,2.14,0,0,1,1.92-1.09c.8,0,2,.48,2,2.47v3.47h-1.06V27.38c0-.93-.34-1.71-1.34-1.71a1.48,1.48,0,0,0-1.41,1.08,1.44,1.44,0,0,0-.08.49v3.49h-1.05Z"/><path class="cls-1" d="M243.45,23.26v1.66H245v.81h-1.51v3.13c0,.72.2,1.12.79,1.12a2.15,2.15,0,0,0,.61-.07l.05.79a2.42,2.42,0,0,1-.93.15,1.45,1.45,0,0,1-1.14-.45,2.13,2.13,0,0,1-.41-1.51V25.73h-.9v-.81h.9V23.53Z"/><path class="cls-1" d="M246.15,26.73c0-.68,0-1.27-.05-1.81H247l0,1.14h.05a1.74,1.74,0,0,1,1.61-1.27,1,1,0,0,1,.3,0v1a1.94,1.94,0,0,0-.36,0,1.48,1.48,0,0,0-1.42,1.35,3.6,3.6,0,0,0,0,.49v3.1h-1Z"/><path class="cls-1" d="M251.3,23.29a.66.66,0,0,1-1.31,0,.65.65,0,0,1,.66-.66A.63.63,0,0,1,251.3,23.29Zm-1.18,7.44V24.92h1.06v5.81Z"/><path class="cls-1" d="M257.07,30.51a3.81,3.81,0,0,1-1.67.34,2.76,2.76,0,0,1-2.89-3,3,3,0,0,1,3.12-3.09,3.56,3.56,0,0,1,1.46.3l-.24.82a2.35,2.35,0,0,0-1.22-.28,2,2,0,0,0-2,2.2,2,2,0,0,0,2,2.17,3,3,0,0,0,1.3-.29Z"/></svg>