<svg id="Layer_1" data-name="Layer 1" xmlns="http://www.w3.org/2000/svg" viewBox="0 0 379.75 223.15"><defs><style>.cls-1{fill:#92278f;}.cls-2,.cls-4,.cls-6,.cls-7,.cls-9{fill:none;}.cls-2,.cls-6{stroke:#6d6e71;}.cls-2,.cls-7,.cls-9{stroke-miterlimit:10;}.cls-3{fill:#6d6e71;}.cls-4,.cls-9{stroke:#92278f;}.cls-4,.cls-5,.cls-6{stroke-linecap:round;stroke-linejoin:round;}.cls-4{stroke-dasharray:4 4;}.cls-5{fill:#e6e7e8;stroke:#414042;}.cls-7{stroke:#231f20;}.cls-8{fill:#231f20;}</style></defs><path class="cls-1" d="M218,168.13v-4.72H219V167h2.91v-3.31h.94V167h4v1.14Z"/><path class="cls-1" d="M218.7,160.56a.71.71,0,0,1,0,1.42.7.7,0,0,1-.71-.72A.67.67,0,0,1,218.7,160.56Zm8.06,1.27h-6.29v-1.14h6.29Z"/><path class="cls-1" d="M217.53,158.79v-1.14h9.23v1.14Z"/><path class="cls-1" d="M218.66,154.35h1.81v-1.64h.87v1.64h3.39c.78,0,1.23-.23,1.23-.86a2.58,2.58,0,0,0-.08-.67l.86,0a2.85,2.85,0,0,1,.15,1,1.58,1.58,0,0,1-.48,1.23,2.32,2.32,0,0,1-1.64.44h-3.43v1h-.87v-1H219Z"/><path class="cls-1" d="M223.82,150.78a2,2,0,0,0,2.19-2.15,4.2,4.2,0,0,0-.33-1.75l.82-.19a5.11,5.11,0,0,1,.39,2.09,2.92,2.92,0,0,1-3.17,3.1c-1.9,0-3.39-1.12-3.39-3,0-2,1.8-2.6,3-2.6a4.82,4.82,0,0,1,.53,0Zm-.82-3.35a1.63,1.63,0,0,0-1.85,1.59,1.89,1.89,0,0,0,1.85,1.75Z"/><path class="cls-1" d="M222.43,144.91c-.74,0-1.38,0-2,.05v-1l1.23,0v0a1.89,1.89,0,0,1-1.37-1.74,1.11,1.11,0,0,1,0-.33h1.07a2.21,2.21,0,0,0,0,.39,1.59,1.59,0,0,0,1.46,1.53,2.87,2.87,0,0,0,.54.06h3.35v1.13Z"/><path class="cls-1" d="M264.44,169.67a4,4,0,0,0,.58-2c0-1.16-.62-1.83-1.5-1.83s-1.29.47-1.74,1.65c-.51,1.43-1.25,2.31-2.49,2.31s-2.37-1.13-2.37-2.83a4,4,0,0,1,.42-1.94l.93.31a3.45,3.45,0,0,0-.42,1.67c0,1.19.72,1.65,1.31,1.65.82,0,1.23-.53,1.69-1.74.58-1.49,1.29-2.24,2.58-2.24s2.52,1,2.52,3.07a4.52,4.52,0,0,1-.56,2.23Z"/><path class="cls-1" d="M256.59,163.14V162h3.93v0a2.13,2.13,0,0,1-.81-.82,2.41,2.41,0,0,1-.32-1.17c0-.84.52-2.19,2.69-2.19h3.74v1.14h-3.61c-1,0-1.88.38-1.88,1.46a1.64,1.64,0,0,0,1.15,1.53,1.26,1.26,0,0,0,.54.08h3.8v1.14Z"/><path class="cls-1" d="M265.82,152.44l-.79.09v0a2.36,2.36,0,0,1,.93,1.93,1.79,1.79,0,0,1-1.8,1.92c-1.52,0-2.36-1.35-2.34-3.78h-.13a1.3,1.3,0,0,0-1.46,1.43,3.14,3.14,0,0,0,.47,1.64l-.76.26a4,4,0,0,1-.55-2.07c0-1.92,1.31-2.39,2.57-2.39h2.35a8.62,8.62,0,0,0,1.51-.11Zm-3.21.17c0,1.25.2,2.67,1.42,2.67a1,1,0,0,0,1.09-1.08,1.56,1.56,0,0,0-1.05-1.52,1.21,1.21,0,0,0-.37-.07Z"/><path class="cls-1" d="M261.58,149.66c-.8,0-1.45,0-2.05.05v-1l1.08-.06v0a2.47,2.47,0,0,1-1.22-2.24c0-1.52,1.28-2.66,3.19-2.66,2.27,0,3.38,1.38,3.38,2.86a2.19,2.19,0,0,1-1,1.93v0h3.41v1.13Zm1.68-1.13a3.39,3.39,0,0,0,.47-.05,1.77,1.77,0,0,0,1.34-1.72c0-1.21-1-1.91-2.43-1.91-1.27,0-2.34.66-2.34,1.87a1.82,1.82,0,0,0,1.41,1.73,1.85,1.85,0,0,0,.47.08Z"/><path class="cls-1" d="M262.88,141.63a2,2,0,0,0,2.19-2.16,4.15,4.15,0,0,0-.33-1.74l.82-.2a5.16,5.16,0,0,1,.39,2.1,2.92,2.92,0,0,1-3.17,3.09c-1.9,0-3.39-1.12-3.39-2.95,0-2.06,1.8-2.6,3-2.6a3.17,3.17,0,0,1,.53,0Zm-.82-3.36a1.64,1.64,0,0,0-1.86,1.59,1.89,1.89,0,0,0,1.86,1.75Z"/><line class="cls-2" x1="8.12" y1="141.25" x2="66.62" y2="141.25"/><polygon class="cls-3" points="60.71 144.43 60.37 143.49 66.53 141.25 60.37 139.01 60.71 138.07 69.45 141.25 60.71 144.43"/><line class="cls-2" x1="308.43" y1="141.25" x2="366.94" y2="141.25"/><polygon class="cls-3" points="361.02 144.43 360.68 143.49 366.84 141.25 360.68 139.01 361.02 138.07 369.76 141.25 361.02 144.43"/><rect class="cls-4" x="207.67" y="106.19" width="26.65" height="76.89" rx="4.54"/><rect class="cls-4" x="248.33" y="107.12" width="26.65" height="76.89" rx="4.54"/><rect class="cls-5" x="147.74" y="107.52" width="26.65" height="76.89" rx="4.54"/><path d="M161.86,164.4v3.41H165V164h1v4.93H157.2v-4.73h1v3.6h2.77V164.4Z"/><path d="M159.67,162.05l1.35-.9c.35-.23.68-.43,1-.63v0c-.38-.21-.7-.42-1-.63l-1.34-.88v-1.24l3,2.15,3.25-2.21V159l-1.41.92c-.37.25-.72.46-1.1.68v0c.38.21.72.43,1.1.67l1.41.91v1.26l-3.21-2.24-3.08,2.13Z"/><path d="M157.86,155.19h1.81v-1.64h.87v1.64h3.4c.78,0,1.22-.23,1.22-.86a2.58,2.58,0,0,0-.08-.67l.86,0a2.85,2.85,0,0,1,.15,1,1.58,1.58,0,0,1-.48,1.23,2.3,2.3,0,0,1-1.64.44h-3.43v1h-.87v-1h-1.51Z"/><path d="M161.63,152.26c-.74,0-1.37,0-2,.05v-1l1.24,0v-.05a1.88,1.88,0,0,1-1.38-1.74,1.15,1.15,0,0,1,0-.33h1.08a1.56,1.56,0,0,0,0,.39,1.61,1.61,0,0,0,1.47,1.54,3.83,3.83,0,0,0,.53,0H166v1.13Z"/><path d="M166,144.53l-.79.09v0a2.34,2.34,0,0,1,.94,1.92,1.79,1.79,0,0,1-1.81,1.92c-1.52,0-2.35-1.35-2.34-3.78h-.13a1.3,1.3,0,0,0-1.46,1.43,3.18,3.18,0,0,0,.47,1.64l-.75.26a3.91,3.91,0,0,1-.56-2.07c0-1.92,1.31-2.39,2.57-2.39h2.36a9.75,9.75,0,0,0,1.5-.1Zm-3.21.16c0,1.25.2,2.67,1.42,2.67a1,1,0,0,0,1.09-1.08,1.56,1.56,0,0,0-1-1.52,1.21,1.21,0,0,0-.37-.07Z"/><path d="M165.73,137.26a4.17,4.17,0,0,1,.36,1.81,3,3,0,0,1-3.21,3.13,3.2,3.2,0,0,1-3.34-3.38,3.75,3.75,0,0,1,.33-1.59l.88.26a2.66,2.66,0,0,0-.3,1.33,2.18,2.18,0,0,0,2.38,2.22,2.15,2.15,0,0,0,2.35-2.18,3.35,3.35,0,0,0-.31-1.41Z"/><path d="M157.86,134.54h1.81V132.9h.87v1.64h3.4c.78,0,1.22-.22,1.22-.86a2.44,2.44,0,0,0-.08-.66l.86-.05a2.82,2.82,0,0,1,.15,1,1.59,1.59,0,0,1-.48,1.24,2.35,2.35,0,0,1-1.64.44h-3.43v1h-.87v-1h-1.51Z"/><rect class="cls-5" x="108.01" y="107.56" width="26.65" height="76.89" rx="4.54"/><path d="M117,169a13.13,13.13,0,0,1-.17-2.17,3.59,3.59,0,0,1,.73-2.46,2.35,2.35,0,0,1,1.83-.76,2.56,2.56,0,0,1,1.87.67,3.64,3.64,0,0,1,1,2.68,4.16,4.16,0,0,1-.08.91h3.51V169Zm4.23-1.13a4.06,4.06,0,0,0,.09-.93c0-1.37-.67-2.2-1.87-2.2s-1.72.82-1.72,2.07a4.82,4.82,0,0,0,.09,1.06Z"/><path d="M121.28,162.11c-.74,0-1.38,0-2,0v-1l1.23,0v-.05a1.91,1.91,0,0,1-1.38-1.75,1.47,1.47,0,0,1,0-.32h1.08a2.13,2.13,0,0,0,0,.39,1.59,1.59,0,0,0,1.47,1.53,2.89,2.89,0,0,0,.53.05h3.36v1.14Z"/><path d="M122.41,152.16a3.07,3.07,0,0,1,3.34,3.13,3,3,0,0,1-3.23,3,3.08,3.08,0,0,1-3.35-3.12A3,3,0,0,1,122.41,152.16Zm.07,5c1.37,0,2.41-.79,2.41-1.91s-1-1.91-2.44-1.91c-1.07,0-2.42.53-2.42,1.89S121.28,157.15,122.48,157.15Z"/><path d="M117.51,149.34h1.81V147.7h.87v1.64h3.39c.78,0,1.22-.22,1.22-.86a3.06,3.06,0,0,0-.07-.66l.85,0a2.79,2.79,0,0,1,.16,1,1.62,1.62,0,0,1-.48,1.24,2.37,2.37,0,0,1-1.64.44h-3.43v1h-.87v-1h-1.51Z"/><path d="M122.41,140.72a3.07,3.07,0,0,1,3.34,3.13,3,3,0,0,1-3.23,3,3.08,3.08,0,0,1-3.35-3.12A3,3,0,0,1,122.41,140.72Zm.07,5c1.37,0,2.41-.79,2.41-1.91s-1-1.91-2.44-1.91c-1.07,0-2.42.53-2.42,1.89S121.28,145.71,122.48,145.71Z"/><path d="M125.37,134.79a4.17,4.17,0,0,1,.37,1.81,3,3,0,0,1-3.21,3.13,3.19,3.19,0,0,1-3.34-3.38,3.92,3.92,0,0,1,.32-1.58l.89.26a2.59,2.59,0,0,0-.3,1.32,2.37,2.37,0,0,0,4.73,0,3.26,3.26,0,0,0-.31-1.4Z"/><path d="M122.41,127.76a3.07,3.07,0,0,1,3.34,3.13,3,3,0,0,1-3.23,3,3.08,3.08,0,0,1-3.35-3.12A3,3,0,0,1,122.41,127.76Zm.07,5c1.37,0,2.41-.79,2.41-1.91s-1-1.91-2.44-1.91c-1.07,0-2.42.53-2.42,1.89S121.28,132.75,122.48,132.75Z"/><path d="M116.38,126.32v-1.15h9.23v1.15Z"/><rect class="cls-6" x="77.25" y="85.26" width="224.13" height="120.18" rx="4.54"/><line class="cls-7" x1="141" y1="43.21" x2="141" y2="72.42"/><polygon class="cls-8" points="137.82 66.51 138.76 66.17 141 72.33 143.24 66.17 144.18 66.51 141 75.25 137.82 66.51"/><line class="cls-9" x1="238.32" y1="43.21" x2="238.32" y2="72.42"/><polygon class="cls-1" points="235.13 66.51 236.08 66.17 238.32 72.33 240.56 66.17 241.5 66.51 238.32 75.25 235.13 66.51"/><path class="cls-8" d="M122.76,12.14a12.81,12.81,0,0,1,2-.15,3.31,3.31,0,0,1,2.26.67,2.15,2.15,0,0,1,.71,1.69,2.42,2.42,0,0,1-.62,1.73,3.34,3.34,0,0,1-2.47.89,3.52,3.52,0,0,1-.84-.08v3.24h-1Zm1,3.9a3.38,3.38,0,0,0,.86.09c1.26,0,2-.62,2-1.73s-.76-1.58-1.91-1.58a4.26,4.26,0,0,0-1,.08Z"/><path class="cls-8" d="M128.92,16.14c0-.69,0-1.27,0-1.81h.92l0,1.14h0a1.75,1.75,0,0,1,1.61-1.28,1.36,1.36,0,0,1,.3,0v1a1.32,1.32,0,0,0-.36,0A1.47,1.47,0,0,0,130,16.55a3.37,3.37,0,0,0,0,.49v3.09h-1Z"/><path class="cls-8" d="M138,17.18a2.83,2.83,0,0,1-2.89,3.08,2.76,2.76,0,0,1-2.79-3,2.84,2.84,0,0,1,2.88-3.09A2.76,2.76,0,0,1,138,17.18Zm-4.61.06c0,1.27.73,2.23,1.76,2.23s1.77-.95,1.77-2.25c0-1-.49-2.23-1.74-2.23S133.37,16.14,133.37,17.24Z"/><path class="cls-8" d="M140.58,12.66v1.67h1.51v.8h-1.51v3.13c0,.72.21,1.13.79,1.13a2.78,2.78,0,0,0,.62-.07l0,.79a2.63,2.63,0,0,1-.93.14,1.45,1.45,0,0,1-1.14-.44,2.15,2.15,0,0,1-.41-1.51V15.13h-.9v-.8h.9V12.94Z"/><path class="cls-8" d="M148.46,17.18a2.83,2.83,0,0,1-2.89,3.08,2.76,2.76,0,0,1-2.78-3,2.84,2.84,0,0,1,2.88-3.09A2.75,2.75,0,0,1,148.46,17.18Zm-4.6.06c0,1.27.73,2.23,1.76,2.23s1.77-.95,1.77-2.25c0-1-.5-2.23-1.74-2.23S143.86,16.14,143.86,17.24Z"/><path class="cls-8" d="M153.94,19.92a4,4,0,0,1-1.67.33,2.76,2.76,0,0,1-2.89-3,2.94,2.94,0,0,1,3.12-3.08,3.44,3.44,0,0,1,1.46.3l-.24.81a2.5,2.5,0,0,0-1.22-.27,2,2,0,0,0-2.05,2.19,2,2,0,0,0,2,2.17,2.9,2.9,0,0,0,1.3-.29Z"/><path class="cls-8" d="M160.36,17.18a2.83,2.83,0,0,1-2.89,3.08,2.76,2.76,0,0,1-2.79-3,2.84,2.84,0,0,1,2.88-3.09A2.76,2.76,0,0,1,160.36,17.18Zm-4.61.06c0,1.27.73,2.23,1.76,2.23s1.77-.95,1.77-2.25c0-1-.49-2.23-1.74-2.23S155.75,16.14,155.75,17.24Z"/><path class="cls-8" d="M161.69,11.62h1.06v8.51h-1.06Z"/><path class="cls-8" d="M107.12,26h-2.46v-.89h6V26h-2.47v7.19h-1Z"/><path class="cls-8" d="M111,29.24c0-.69,0-1.27,0-1.81h.92l0,1.14h.05a1.75,1.75,0,0,1,1.6-1.28,1.28,1.28,0,0,1,.3,0v1a1.23,1.23,0,0,0-.36,0,1.47,1.47,0,0,0-1.41,1.36,3.37,3.37,0,0,0,0,.49v3.09h-1Z"/><path class="cls-8" d="M118.05,33.23,118,32.5h0a2.16,2.16,0,0,1-1.78.86,1.65,1.65,0,0,1-1.77-1.66c0-1.41,1.24-2.17,3.49-2.16v-.12a1.21,1.21,0,0,0-1.32-1.35,2.82,2.82,0,0,0-1.51.44l-.24-.7a3.6,3.6,0,0,1,1.9-.52c1.78,0,2.21,1.22,2.21,2.38v2.17a7.38,7.38,0,0,0,.1,1.39Zm-.16-3c-1.15,0-2.46.18-2.46,1.31a.93.93,0,0,0,1,1,1.45,1.45,0,0,0,1.4-1,1,1,0,0,0,.06-.33Z"/><path class="cls-8" d="M120.62,29c0-.6,0-1.09-.05-1.57h.93l.06,1h0a2.13,2.13,0,0,1,1.92-1.1c.8,0,2,.48,2,2.48v3.46H124.5V29.89c0-.94-.35-1.72-1.34-1.72a1.5,1.5,0,0,0-1.42,1.08,1.75,1.75,0,0,0-.07.49v3.49h-1Z"/><path class="cls-8" d="M127.13,32.15a2.72,2.72,0,0,0,1.39.42c.77,0,1.13-.38,1.13-.86s-.3-.78-1.08-1.07c-1-.37-1.53-.95-1.53-1.64a1.79,1.79,0,0,1,2-1.71,2.94,2.94,0,0,1,1.43.36l-.27.77a2.31,2.31,0,0,0-1.18-.33c-.63,0-1,.36-1,.79s.35.69,1.11,1c1,.39,1.52.89,1.52,1.75,0,1-.79,1.74-2.17,1.74a3.3,3.3,0,0,1-1.63-.39Z"/><path class="cls-8" d="M132.14,33.23v-5h-.82v-.8h.82v-.28a2.76,2.76,0,0,1,.67-2,2,2,0,0,1,1.41-.54,2.52,2.52,0,0,1,.9.17l-.14.82a1.62,1.62,0,0,0-.67-.13c-.9,0-1.13.79-1.13,1.67v.32h1.4v.8h-1.4v5Z"/><path class="cls-8" d="M140.63,30.28a2.83,2.83,0,0,1-2.89,3.08,2.76,2.76,0,0,1-2.78-3,2.83,2.83,0,0,1,2.87-3.09A2.76,2.76,0,0,1,140.63,30.28Zm-4.61.06c0,1.27.74,2.23,1.77,2.23s1.76-.95,1.76-2.25c0-1-.49-2.23-1.74-2.23S136,29.24,136,30.34Z"/><path class="cls-8" d="M142,29.24c0-.69,0-1.27,0-1.81h.92l0,1.14h0a1.76,1.76,0,0,1,1.61-1.28,1.36,1.36,0,0,1,.3,0v1a1.32,1.32,0,0,0-.36,0,1.47,1.47,0,0,0-1.41,1.36,2.38,2.38,0,0,0-.05.49v3.09h-1Z"/><path class="cls-8" d="M145.94,29c0-.6,0-1.09-.05-1.57h.92l.05.93h0a2,2,0,0,1,1.82-1.07,1.71,1.71,0,0,1,1.64,1.17h0a2.33,2.33,0,0,1,.64-.76,2,2,0,0,1,1.29-.41c.76,0,1.9.51,1.9,2.52v3.42h-1V30c0-1.12-.41-1.79-1.26-1.79a1.34,1.34,0,0,0-1.24,1,1.63,1.63,0,0,0-.09.53v3.58h-1V29.75c0-.92-.41-1.59-1.21-1.59a1.45,1.45,0,0,0-1.31,1.05,1.49,1.49,0,0,0-.08.52v3.5h-1Z"/><path class="cls-8" d="M159.16,33.23l-.09-.73h0a2.16,2.16,0,0,1-1.78.86,1.65,1.65,0,0,1-1.77-1.66c0-1.41,1.25-2.17,3.49-2.16v-.12a1.2,1.2,0,0,0-1.32-1.35,2.84,2.84,0,0,0-1.51.44l-.24-.7a3.61,3.61,0,0,1,1.91-.52c1.77,0,2.2,1.22,2.2,2.38v2.17a8.32,8.32,0,0,0,.1,1.39Zm-.16-3c-1.15,0-2.46.18-2.46,1.31a.93.93,0,0,0,1,1,1.45,1.45,0,0,0,1.4-1,1,1,0,0,0,.06-.33Z"/><path class="cls-8" d="M163,25.76v1.67h1.51v.8H163v3.13c0,.72.2,1.13.79,1.13a2.6,2.6,0,0,0,.61-.07l.05.79a2.67,2.67,0,0,1-.93.14,1.45,1.45,0,0,1-1.14-.44,2.15,2.15,0,0,1-.41-1.51V28.23H161v-.8h.9V26Z"/><path class="cls-8" d="M166.83,25.8a.66.66,0,0,1-1.31,0,.64.64,0,0,1,.66-.66A.63.63,0,0,1,166.83,25.8Zm-1.18,7.43v-5.8h1.06v5.8Z"/><path class="cls-8" d="M173.71,30.28a2.83,2.83,0,0,1-2.89,3.08,2.76,2.76,0,0,1-2.78-3,2.84,2.84,0,0,1,2.88-3.09A2.75,2.75,0,0,1,173.71,30.28Zm-4.6.06c0,1.27.73,2.23,1.76,2.23s1.76-.95,1.76-2.25c0-1-.49-2.23-1.74-2.23S169.11,29.24,169.11,30.34Z"/><path class="cls-8" d="M175.05,29c0-.6,0-1.09-.05-1.57h.94l.05,1h0a2.13,2.13,0,0,1,1.92-1.1c.8,0,2.05.48,2.05,2.48v3.46h-1.06V29.89c0-.94-.34-1.72-1.34-1.72a1.5,1.5,0,0,0-1.42,1.08,1.75,1.75,0,0,0-.07.49v3.49h-1Z"/><path class="cls-1" d="M208.06,12.05v4.78c0,1.81.81,2.58,1.89,2.58s2-.79,2-2.58V12.05H213v4.71c0,2.48-1.31,3.5-3.06,3.5s-2.9-.94-2.9-3.45V12.05Z"/><path class="cls-1" d="M214.53,19.05a2.72,2.72,0,0,0,1.39.42c.77,0,1.13-.38,1.13-.86s-.3-.78-1.08-1.07c-1-.37-1.53-.95-1.53-1.64a1.79,1.79,0,0,1,2-1.71,2.94,2.94,0,0,1,1.43.36l-.27.77a2.25,2.25,0,0,0-1.18-.33c-.63,0-1,.36-1,.79s.35.69,1.11,1c1,.38,1.52.89,1.52,1.75,0,1-.79,1.74-2.17,1.74a3.3,3.3,0,0,1-1.63-.39Z"/><path class="cls-1" d="M220,17.42a1.86,1.86,0,0,0,2,2,3.91,3.91,0,0,0,1.6-.3l.18.75a4.63,4.63,0,0,1-1.93.36A2.69,2.69,0,0,1,219,17.32c0-1.75,1-3.13,2.72-3.13a2.46,2.46,0,0,1,2.4,2.74,2.81,2.81,0,0,1,0,.49Zm3.09-.75A1.51,1.51,0,0,0,221.65,15,1.74,1.74,0,0,0,220,16.67Z"/><path class="cls-1" d="M225.44,16.14c0-.69,0-1.27-.05-1.81h.93l0,1.14h.05A1.75,1.75,0,0,1,228,14.19a1.36,1.36,0,0,1,.3,0v1a1.32,1.32,0,0,0-.36,0,1.48,1.48,0,0,0-1.42,1.36,3.37,3.37,0,0,0-.05.49v3.09h-1Z"/><path class="cls-1" d="M231.75,16.5v.78h-3V16.5Z"/><path class="cls-1" d="M238.22,11.62v7c0,.52,0,1.11.05,1.5h-1l0-1h0a2.16,2.16,0,0,1-2,1.14c-1.41,0-2.49-1.18-2.49-3,0-1.93,1.19-3.12,2.61-3.12a2,2,0,0,1,1.75.89h0V11.62Zm-1.06,5.07a1.65,1.65,0,0,0,0-.44A1.54,1.54,0,0,0,235.59,15c-1.09,0-1.74,1-1.74,2.25s.58,2.14,1.72,2.14a1.59,1.59,0,0,0,1.54-1.26,1.64,1.64,0,0,0,0-.45Z"/><path class="cls-1" d="M240.56,17.42a1.86,1.86,0,0,0,2,2,4,4,0,0,0,1.61-.3l.18.75a4.67,4.67,0,0,1-1.93.36,2.7,2.7,0,0,1-2.86-2.93c0-1.75,1-3.13,2.72-3.13a2.46,2.46,0,0,1,2.4,2.74,4.88,4.88,0,0,1,0,.49Zm3.09-.75A1.49,1.49,0,0,0,242.19,15a1.75,1.75,0,0,0-1.62,1.72Z"/><path class="cls-1" d="M246.09,20.13v-5h-.81v-.8h.81V14a2.33,2.33,0,0,1,2.53-2.53,2.88,2.88,0,0,1,1.48.39l-.3.8a2.23,2.23,0,0,0-1.23-.33c-1.11,0-1.43.78-1.43,1.7v.29h3.37v5.8h-1v-5h-2.32v5Z"/><path class="cls-1" d="M252.26,15.9c0-.6,0-1.09,0-1.57h.94l.06,1h0a2.13,2.13,0,0,1,1.92-1.1c.8,0,2,.48,2,2.48v3.46h-1.05V16.79c0-.94-.35-1.72-1.35-1.72a1.5,1.5,0,0,0-1.41,1.08,1.45,1.45,0,0,0-.07.49v3.49h-1.06Z"/><path class="cls-1" d="M259.51,17.42a1.86,1.86,0,0,0,2,2,4,4,0,0,0,1.61-.3l.18.75a4.71,4.71,0,0,1-1.93.36,2.7,2.7,0,0,1-2.86-2.93c0-1.75,1-3.13,2.72-3.13a2.46,2.46,0,0,1,2.4,2.74,4.88,4.88,0,0,1,0,.49Zm3.09-.75A1.5,1.5,0,0,0,261.14,15a1.74,1.74,0,0,0-1.62,1.72Z"/><path class="cls-1" d="M269.94,11.62v7c0,.52,0,1.11.05,1.5h-.94l-.05-1h0a2.14,2.14,0,0,1-2,1.14c-1.4,0-2.48-1.18-2.48-3,0-1.93,1.19-3.12,2.6-3.12a2,2,0,0,1,1.76.89h0V11.62Zm-1.05,5.07a1.65,1.65,0,0,0-.05-.44A1.54,1.54,0,0,0,267.32,15c-1.09,0-1.74,1-1.74,2.25s.57,2.14,1.71,2.14a1.59,1.59,0,0,0,1.55-1.26,1.64,1.64,0,0,0,.05-.45Z"/><path class="cls-1" d="M202.83,26h-2.46v-.89h6V26h-2.47v7.19h-1.06Z"/><path class="cls-1" d="M206.68,29.24c0-.69,0-1.27-.05-1.81h.93l0,1.14h0a1.76,1.76,0,0,1,1.61-1.28,1.36,1.36,0,0,1,.3,0v1a1.32,1.32,0,0,0-.36,0,1.49,1.49,0,0,0-1.42,1.36,3.47,3.47,0,0,0,0,.49v3.09h-1Z"/><path class="cls-1" d="M213.76,33.23l-.08-.73h0a2.14,2.14,0,0,1-1.77.86,1.65,1.65,0,0,1-1.78-1.66c0-1.41,1.25-2.17,3.49-2.16v-.12a1.2,1.2,0,0,0-1.32-1.35,2.84,2.84,0,0,0-1.51.44l-.24-.7a3.64,3.64,0,0,1,1.91-.52c1.77,0,2.21,1.22,2.21,2.38v2.17a8.39,8.39,0,0,0,.09,1.39Zm-.15-3c-1.16,0-2.46.18-2.46,1.31a.93.93,0,0,0,1,1,1.45,1.45,0,0,0,1.41-1,1.36,1.36,0,0,0,.06-.33Z"/><path class="cls-1" d="M216.33,29c0-.6,0-1.09-.05-1.57h.94l.06,1h0a2.13,2.13,0,0,1,1.92-1.1c.81,0,2.05.48,2.05,2.48v3.46h-1.05V29.89c0-.94-.35-1.72-1.35-1.72a1.5,1.5,0,0,0-1.41,1.08,1.45,1.45,0,0,0-.07.49v3.49h-1.06Z"/><path class="cls-1" d="M222.85,32.15a2.69,2.69,0,0,0,1.39.42c.77,0,1.13-.38,1.13-.86s-.3-.78-1.08-1.07c-1-.37-1.54-.95-1.54-1.64a1.79,1.79,0,0,1,2-1.71,2.91,2.91,0,0,1,1.43.36l-.26.77a2.32,2.32,0,0,0-1.19-.33c-.62,0-1,.36-1,.79s.35.69,1.1,1c1,.39,1.53.89,1.53,1.75,0,1-.8,1.74-2.18,1.74a3.33,3.33,0,0,1-1.63-.39Z"/><path class="cls-1" d="M227.85,33.23v-5H227v-.8h.81v-.28a2.76,2.76,0,0,1,.67-2,2.06,2.06,0,0,1,1.42-.54,2.57,2.57,0,0,1,.9.17l-.15.82a1.58,1.58,0,0,0-.67-.13c-.9,0-1.12.79-1.12,1.67v.32h1.4v.8h-1.4v5Z"/><path class="cls-1" d="M236.35,30.28a2.84,2.84,0,0,1-2.9,3.08,2.76,2.76,0,0,1-2.78-3,2.84,2.84,0,0,1,2.88-3.09A2.76,2.76,0,0,1,236.35,30.28Zm-4.61.06c0,1.27.73,2.23,1.76,2.23s1.77-.95,1.77-2.25c0-1-.5-2.23-1.74-2.23S231.74,29.24,231.74,30.34Z"/><path class="cls-1" d="M237.68,29.24c0-.69,0-1.27-.05-1.81h.93l0,1.14h0a1.75,1.75,0,0,1,1.61-1.28,1.36,1.36,0,0,1,.3,0v1a1.32,1.32,0,0,0-.36,0,1.47,1.47,0,0,0-1.42,1.36,3.37,3.37,0,0,0-.05.49v3.09h-1Z"/><path class="cls-1" d="M241.65,29c0-.6,0-1.09-.05-1.57h.93l0,.93h0a2,2,0,0,1,1.82-1.07,1.72,1.72,0,0,1,1.65,1.17h0a2.35,2.35,0,0,1,.65-.76,2,2,0,0,1,1.28-.41c.77,0,1.91.51,1.91,2.52v3.42h-1V30c0-1.12-.41-1.79-1.26-1.79a1.36,1.36,0,0,0-1.25,1,1.64,1.64,0,0,0-.08.53v3.58h-1V29.75c0-.92-.41-1.59-1.22-1.59a1.44,1.44,0,0,0-1.3,1.05,1.5,1.5,0,0,0-.09.52v3.5h-1Z"/><path class="cls-1" d="M254.87,33.23l-.08-.73h0a2.13,2.13,0,0,1-1.77.86,1.65,1.65,0,0,1-1.78-1.66c0-1.41,1.25-2.17,3.49-2.16v-.12a1.2,1.2,0,0,0-1.32-1.35,2.84,2.84,0,0,0-1.51.44l-.24-.7a3.64,3.64,0,0,1,1.91-.52c1.78,0,2.21,1.22,2.21,2.38v2.17a8.39,8.39,0,0,0,.09,1.39Zm-.15-3c-1.15,0-2.46.18-2.46,1.31a.93.93,0,0,0,1,1,1.45,1.45,0,0,0,1.41-1,1.36,1.36,0,0,0,.06-.33Z"/><path class="cls-1" d="M258.67,25.76v1.67h1.51v.8h-1.51v3.13c0,.72.2,1.13.79,1.13a2.68,2.68,0,0,0,.61-.07l.05.79a2.73,2.73,0,0,1-.94.14,1.47,1.47,0,0,1-1.14-.44,2.15,2.15,0,0,1-.4-1.51V28.23h-.9v-.8h.9V26Z"/><path class="cls-1" d="M262.54,25.8a.62.62,0,0,1-.67.64.63.63,0,0,1-.64-.64.64.64,0,0,1,.67-.66A.62.62,0,0,1,262.54,25.8Zm-1.17,7.43v-5.8h1.05v5.8Z"/><path class="cls-1" d="M269.43,30.28a2.83,2.83,0,0,1-2.89,3.08,2.76,2.76,0,0,1-2.78-3,2.83,2.83,0,0,1,2.87-3.09A2.76,2.76,0,0,1,269.43,30.28Zm-4.61.06c0,1.27.74,2.23,1.77,2.23s1.76-.95,1.76-2.25c0-1-.49-2.23-1.74-2.23S264.82,29.24,264.82,30.34Z"/><path class="cls-1" d="M270.76,29c0-.6,0-1.09,0-1.57h.93l.06,1h0a2.13,2.13,0,0,1,1.92-1.1c.81,0,2.05.48,2.05,2.48v3.46h-1.05V29.89c0-.94-.35-1.72-1.34-1.72a1.5,1.5,0,0,0-1.42,1.08,1.45,1.45,0,0,0-.07.49v3.49h-1.06Z"/></svg>