<?xml version="1.0" encoding="UTF-8" standalone="no"?>
<!DOCTYPE svg PUBLIC "-//W3C//DTD SVG 1.1//EN" "http://www.w3.org/Graphics/SVG/1.1/DTD/svg11.dtd">
<svg xmlns="http://www.w3.org/2000/svg" xmlns:xl="http://www.w3.org/1999/xlink" xmlns:dc="http://purl.org/dc/elements/1.1/" version="1.1" viewBox="305 -1 299 228" width="299" height="228">
  <defs>
    <marker orient="auto" overflow="visible" markerUnits="strokeWidth" id="StickArrow_Marker" stroke-linejoin="miter" stroke-miterlimit="10" viewBox="-1 -4 10 8" markerWidth="10" markerHeight="8" color="#929292">
      <g>
        <path d="M 8 0 L 0 0 M 0 -3 L 8 0 L 0 3" fill="none" stroke="currentColor" stroke-width="1"/>
      </g>
    </marker>
    <marker orient="auto" overflow="visible" markerUnits="strokeWidth" id="StickArrow_Marker_2" stroke-linejoin="miter" stroke-miterlimit="10" viewBox="-9 -4 10 8" markerWidth="10" markerHeight="8" color="#929292">
      <g>
        <path d="M -8 0 L 0 0 M 0 3 L -8 0 L 0 -3" fill="none" stroke="currentColor" stroke-width="1"/>
      </g>
    </marker>
    <marker orient="auto" overflow="visible" markerUnits="strokeWidth" id="StickArrow_Marker_3" stroke-linejoin="miter" stroke-miterlimit="10" viewBox="-9 -4 10 8" markerWidth="10" markerHeight="8" color="#095aaa">
      <g>
        <path d="M -8 0 L 0 0 M 0 3 L -8 0 L 0 -3" fill="none" stroke="currentColor" stroke-width="1"/>
      </g>
    </marker>
  </defs>
  <metadata> Produced by OmniGraffle 7.12.1 
    <dc:date>2019-11-12 15:39:55 +0000</dc:date>
  </metadata>
  <g id="Fluvio_-_DDI_(abstract)" stroke="none" stroke-opacity="1" stroke-dasharray="none" fill="none" fill-opacity="1">
    <title>Fluvio - DDI (abstract)</title>
    <g id="Fluvio_-_DDI_(abstract): Layer 1">
      <title>Layer 1</title>
      <g id="Graphic_504">
        <rect x="307.0797" y="178.80612" width="288.0453" height="46.895996" fill="white"/>
        <rect x="307.0797" y="178.80612" width="288.0453" height="46.895996" stroke="#095aaa" stroke-linecap="round" stroke-linejoin="round" stroke-width="1"/>
      </g>
      <g id="Group_909">
        <g id="Group_905">
          <g id="Graphic_908">
            <rect x="398.3357" y="169.3125" width="12.366735" height="5.791843" fill="white"/>
            <rect x="398.3357" y="169.3125" width="12.366735" height="5.791843" stroke="#095aaa" stroke-linecap="round" stroke-linejoin="miter" stroke-width=".75"/>
          </g>
          <g id="Graphic_907">
            <rect x="398.344" y="175.27595" width="12.366735" height="5.791843" fill="white"/>
            <rect x="398.344" y="175.27595" width="12.366735" height="5.791843" stroke="#095aaa" stroke-linecap="round" stroke-linejoin="miter" stroke-width=".75"/>
          </g>
          <g id="Graphic_906">
            <rect x="398.344" y="181.2394" width="12.366735" height="5.791843" fill="white"/>
            <rect x="398.344" y="181.2394" width="12.366735" height="5.791843" stroke="#095aaa" stroke-linecap="round" stroke-linejoin="miter" stroke-width=".75"/>
          </g>
        </g>
        <g id="Group_904">
          <g id="Graphic_900">
            <rect x="394.6652" y="171.5625" width="12.366735" height="5.791843" fill="white"/>
            <rect x="394.6652" y="171.5625" width="12.366735" height="5.791843" stroke="#095aaa" stroke-linecap="round" stroke-linejoin="miter" stroke-width=".75"/>
          </g>
          <g id="Graphic_899">
            <rect x="394.67344" y="177.52595" width="12.366735" height="5.791843" fill="white"/>
            <rect x="394.67344" y="177.52595" width="12.366735" height="5.791843" stroke="#095aaa" stroke-linecap="round" stroke-linejoin="miter" stroke-width=".75"/>
          </g>
          <g id="Graphic_898">
            <rect x="394.67344" y="183.4894" width="12.366735" height="5.791843" fill="white"/>
            <rect x="394.67344" y="183.4894" width="12.366735" height="5.791843" stroke="#095aaa" stroke-linecap="round" stroke-linejoin="miter" stroke-width=".75"/>
          </g>
        </g>
        <g id="Group_871">
          <g id="Graphic_514">
            <rect x="390.99464" y="173.83736" width="12.375" height="17.97875" fill="white"/>
            <rect x="390.99464" y="173.83736" width="12.375" height="17.97875" stroke="#095aaa" stroke-linecap="round" stroke-linejoin="miter" stroke-width=".75"/>
          </g>
          <g id="Graphic_598">
            <rect x="391.73837" y="180.30486" width="10.6875" height="5.0625" fill="#095aaa"/>
            <rect x="391.73837" y="180.30486" width="10.6875" height="5.0625" stroke="white" stroke-linecap="round" stroke-linejoin="round" stroke-width=".75"/>
          </g>
          <g id="Graphic_597">
            <rect x="391.73837" y="185.51736" width="10.6875" height="5.0625" fill="#095aaa"/>
            <rect x="391.73837" y="185.51736" width="10.6875" height="5.0625" stroke="white" stroke-linecap="round" stroke-linejoin="round" stroke-width=".75"/>
          </g>
          <g id="Graphic_591">
            <rect x="391.86123" y="174.86264" width="10.6875" height="5.0625" fill="#095aaa"/>
            <rect x="391.86123" y="174.86264" width="10.6875" height="5.0625" stroke="white" stroke-linecap="butt" stroke-linejoin="miter" stroke-width=".75"/>
          </g>
          <g id="Graphic_590">
            <rect x="391.86837" y="180.28498" width="10.6875" height="5.0625" fill="#095aaa"/>
            <rect x="391.86837" y="180.28498" width="10.6875" height="5.0625" stroke="white" stroke-linecap="round" stroke-linejoin="miter" stroke-width=".75"/>
          </g>
          <g id="Graphic_589">
            <rect x="391.86837" y="185.7073" width="10.6875" height="5.0625" fill="#095aaa"/>
            <rect x="391.86837" y="185.7073" width="10.6875" height="5.0625" stroke="white" stroke-linecap="round" stroke-linejoin="miter" stroke-width=".75"/>
          </g>
        </g>
      </g>
      <g id="Line_680">
        <line x1="513.16723" y1="150.1787" x2="513.16723" y2="157.5823" marker-end="url(#StickArrow_Marker)" marker-start="url(#StickArrow_Marker_2)" stroke="#929292" stroke-linecap="round" stroke-linejoin="round" stroke-width=".75"/>
      </g>
      <g id="Line_705">
        <line x1="400.3527" y1="150.1787" x2="400.3527" y2="157.5823" marker-end="url(#StickArrow_Marker)" marker-start="url(#StickArrow_Marker_2)" stroke="#929292" stroke-linecap="round" stroke-linejoin="round" stroke-width=".75"/>
      </g>
      <g id="Line_708">
        <line x1="456.75996" y1="121.933" x2="456.75996" y2="157.5823" marker-end="url(#StickArrow_Marker)" marker-start="url(#StickArrow_Marker_2)" stroke="#929292" stroke-linecap="round" stroke-linejoin="round" stroke-width=".75"/>
      </g>
      <g id="Line_709">
        <line x1="321.03175" y1="210.9375" x2="582.63396" y2="210.9375" stroke="#095aaa" stroke-linecap="round" stroke-linejoin="round" stroke-width="4"/>
      </g>
      <g id="Line_886">
        <line x1="569.64435" y1="121.933" x2="569.64435" y2="157.5823" marker-end="url(#StickArrow_Marker)" marker-start="url(#StickArrow_Marker_2)" stroke="#929292" stroke-linecap="round" stroke-linejoin="round" stroke-width=".75"/>
      </g>
      <g id="Group_910">
        <g id="Group_922">
          <g id="Graphic_925">
            <rect x="454.743" y="169.3125" width="12.366735" height="5.791843" fill="white"/>
            <rect x="454.743" y="169.3125" width="12.366735" height="5.791843" stroke="#095aaa" stroke-linecap="round" stroke-linejoin="miter" stroke-width=".75"/>
          </g>
          <g id="Graphic_924">
            <rect x="454.75126" y="175.27595" width="12.366735" height="5.791843" fill="white"/>
            <rect x="454.75126" y="175.27595" width="12.366735" height="5.791843" stroke="#095aaa" stroke-linecap="round" stroke-linejoin="miter" stroke-width=".75"/>
          </g>
          <g id="Graphic_923">
            <rect x="454.75126" y="181.2394" width="12.366735" height="5.791843" fill="white"/>
            <rect x="454.75126" y="181.2394" width="12.366735" height="5.791843" stroke="#095aaa" stroke-linecap="round" stroke-linejoin="miter" stroke-width=".75"/>
          </g>
        </g>
        <g id="Group_918">
          <g id="Graphic_921">
            <rect x="451.07246" y="171.5625" width="12.366735" height="5.791843" fill="white"/>
            <rect x="451.07246" y="171.5625" width="12.366735" height="5.791843" stroke="#095aaa" stroke-linecap="round" stroke-linejoin="miter" stroke-width=".75"/>
          </g>
          <g id="Graphic_920">
            <rect x="451.0807" y="177.52595" width="12.366735" height="5.791843" fill="white"/>
            <rect x="451.0807" y="177.52595" width="12.366735" height="5.791843" stroke="#095aaa" stroke-linecap="round" stroke-linejoin="miter" stroke-width=".75"/>
          </g>
          <g id="Graphic_919">
            <rect x="451.0807" y="183.4894" width="12.366735" height="5.791843" fill="white"/>
            <rect x="451.0807" y="183.4894" width="12.366735" height="5.791843" stroke="#095aaa" stroke-linecap="round" stroke-linejoin="miter" stroke-width=".75"/>
          </g>
        </g>
        <g id="Group_911">
          <g id="Graphic_917">
            <rect x="447.4019" y="173.83736" width="12.375" height="17.97875" fill="white"/>
            <rect x="447.4019" y="173.83736" width="12.375" height="17.97875" stroke="#095aaa" stroke-linecap="round" stroke-linejoin="miter" stroke-width=".75"/>
          </g>
          <g id="Graphic_916">
            <rect x="448.14565" y="180.30486" width="10.6875" height="5.0625" fill="#095aaa"/>
            <rect x="448.14565" y="180.30486" width="10.6875" height="5.0625" stroke="white" stroke-linecap="round" stroke-linejoin="round" stroke-width=".75"/>
          </g>
          <g id="Graphic_915">
            <rect x="448.14565" y="185.51736" width="10.6875" height="5.0625" fill="#095aaa"/>
            <rect x="448.14565" y="185.51736" width="10.6875" height="5.0625" stroke="white" stroke-linecap="round" stroke-linejoin="round" stroke-width=".75"/>
          </g>
          <g id="Graphic_914">
            <rect x="448.2685" y="174.86264" width="10.6875" height="5.0625" fill="#095aaa"/>
            <rect x="448.2685" y="174.86264" width="10.6875" height="5.0625" stroke="white" stroke-linecap="butt" stroke-linejoin="miter" stroke-width=".75"/>
          </g>
          <g id="Graphic_913">
            <rect x="448.27565" y="180.28498" width="10.6875" height="5.0625" fill="#095aaa"/>
            <rect x="448.27565" y="180.28498" width="10.6875" height="5.0625" stroke="white" stroke-linecap="round" stroke-linejoin="miter" stroke-width=".75"/>
          </g>
          <g id="Graphic_912">
            <rect x="448.27565" y="185.7073" width="10.6875" height="5.0625" fill="#095aaa"/>
            <rect x="448.27565" y="185.7073" width="10.6875" height="5.0625" stroke="white" stroke-linecap="round" stroke-linejoin="miter" stroke-width=".75"/>
          </g>
        </g>
      </g>
      <g id="Group_926">
        <g id="Group_938">
          <g id="Graphic_941">
            <rect x="511.15027" y="169.3125" width="12.366735" height="5.791843" fill="white"/>
            <rect x="511.15027" y="169.3125" width="12.366735" height="5.791843" stroke="#095aaa" stroke-linecap="round" stroke-linejoin="miter" stroke-width=".75"/>
          </g>
          <g id="Graphic_940">
            <rect x="511.15853" y="175.27595" width="12.366735" height="5.791843" fill="white"/>
            <rect x="511.15853" y="175.27595" width="12.366735" height="5.791843" stroke="#095aaa" stroke-linecap="round" stroke-linejoin="miter" stroke-width=".75"/>
          </g>
          <g id="Graphic_939">
            <rect x="511.15853" y="181.2394" width="12.366735" height="5.791843" fill="white"/>
            <rect x="511.15853" y="181.2394" width="12.366735" height="5.791843" stroke="#095aaa" stroke-linecap="round" stroke-linejoin="miter" stroke-width=".75"/>
          </g>
        </g>
        <g id="Group_934">
          <g id="Graphic_937">
            <rect x="507.47973" y="171.5625" width="12.366735" height="5.791843" fill="white"/>
            <rect x="507.47973" y="171.5625" width="12.366735" height="5.791843" stroke="#095aaa" stroke-linecap="round" stroke-linejoin="miter" stroke-width=".75"/>
          </g>
          <g id="Graphic_936">
            <rect x="507.488" y="177.52595" width="12.366735" height="5.791843" fill="white"/>
            <rect x="507.488" y="177.52595" width="12.366735" height="5.791843" stroke="#095aaa" stroke-linecap="round" stroke-linejoin="miter" stroke-width=".75"/>
          </g>
          <g id="Graphic_935">
            <rect x="507.488" y="183.4894" width="12.366735" height="5.791843" fill="white"/>
            <rect x="507.488" y="183.4894" width="12.366735" height="5.791843" stroke="#095aaa" stroke-linecap="round" stroke-linejoin="miter" stroke-width=".75"/>
          </g>
        </g>
        <g id="Group_927">
          <g id="Graphic_933">
            <rect x="503.8092" y="173.83736" width="12.375" height="17.97875" fill="white"/>
            <rect x="503.8092" y="173.83736" width="12.375" height="17.97875" stroke="#095aaa" stroke-linecap="round" stroke-linejoin="miter" stroke-width=".75"/>
          </g>
          <g id="Graphic_932">
            <rect x="504.5529" y="180.30486" width="10.6875" height="5.0625" fill="#095aaa"/>
            <rect x="504.5529" y="180.30486" width="10.6875" height="5.0625" stroke="white" stroke-linecap="round" stroke-linejoin="round" stroke-width=".75"/>
          </g>
          <g id="Graphic_931">
            <rect x="504.5529" y="185.51736" width="10.6875" height="5.0625" fill="#095aaa"/>
            <rect x="504.5529" y="185.51736" width="10.6875" height="5.0625" stroke="white" stroke-linecap="round" stroke-linejoin="round" stroke-width=".75"/>
          </g>
          <g id="Graphic_930">
            <rect x="504.6758" y="174.86264" width="10.6875" height="5.0625" fill="#095aaa"/>
            <rect x="504.6758" y="174.86264" width="10.6875" height="5.0625" stroke="white" stroke-linecap="butt" stroke-linejoin="miter" stroke-width=".75"/>
          </g>
          <g id="Graphic_929">
            <rect x="504.6829" y="180.28498" width="10.6875" height="5.0625" fill="#095aaa"/>
            <rect x="504.6829" y="180.28498" width="10.6875" height="5.0625" stroke="white" stroke-linecap="round" stroke-linejoin="miter" stroke-width=".75"/>
          </g>
          <g id="Graphic_928">
            <rect x="504.6829" y="185.7073" width="10.6875" height="5.0625" fill="#095aaa"/>
            <rect x="504.6829" y="185.7073" width="10.6875" height="5.0625" stroke="white" stroke-linecap="round" stroke-linejoin="miter" stroke-width=".75"/>
          </g>
        </g>
      </g>
      <g id="Group_942">
        <g id="Group_954">
          <g id="Graphic_957">
            <rect x="567.6274" y="169.3125" width="12.366735" height="5.791843" fill="white"/>
            <rect x="567.6274" y="169.3125" width="12.366735" height="5.791843" stroke="#095aaa" stroke-linecap="round" stroke-linejoin="miter" stroke-width=".75"/>
          </g>
          <g id="Graphic_956">
            <rect x="567.63565" y="175.27595" width="12.366735" height="5.791843" fill="white"/>
            <rect x="567.63565" y="175.27595" width="12.366735" height="5.791843" stroke="#095aaa" stroke-linecap="round" stroke-linejoin="miter" stroke-width=".75"/>
          </g>
          <g id="Graphic_955">
            <rect x="567.63565" y="181.2394" width="12.366735" height="5.791843" fill="white"/>
            <rect x="567.63565" y="181.2394" width="12.366735" height="5.791843" stroke="#095aaa" stroke-linecap="round" stroke-linejoin="miter" stroke-width=".75"/>
          </g>
        </g>
        <g id="Group_950">
          <g id="Graphic_953">
            <rect x="563.95685" y="171.5625" width="12.366735" height="5.791843" fill="white"/>
            <rect x="563.95685" y="171.5625" width="12.366735" height="5.791843" stroke="#095aaa" stroke-linecap="round" stroke-linejoin="miter" stroke-width=".75"/>
          </g>
          <g id="Graphic_952">
            <rect x="563.9651" y="177.52595" width="12.366735" height="5.791843" fill="white"/>
            <rect x="563.9651" y="177.52595" width="12.366735" height="5.791843" stroke="#095aaa" stroke-linecap="round" stroke-linejoin="miter" stroke-width=".75"/>
          </g>
          <g id="Graphic_951">
            <rect x="563.9651" y="183.4894" width="12.366735" height="5.791843" fill="white"/>
            <rect x="563.9651" y="183.4894" width="12.366735" height="5.791843" stroke="#095aaa" stroke-linecap="round" stroke-linejoin="miter" stroke-width=".75"/>
          </g>
        </g>
        <g id="Group_943">
          <g id="Graphic_949">
            <rect x="560.2863" y="173.83736" width="12.375" height="17.97875" fill="white"/>
            <rect x="560.2863" y="173.83736" width="12.375" height="17.97875" stroke="#095aaa" stroke-linecap="round" stroke-linejoin="miter" stroke-width=".75"/>
          </g>
          <g id="Graphic_948">
            <rect x="561.03004" y="180.30486" width="10.6875" height="5.0625" fill="#095aaa"/>
            <rect x="561.03004" y="180.30486" width="10.6875" height="5.0625" stroke="white" stroke-linecap="round" stroke-linejoin="round" stroke-width=".75"/>
          </g>
          <g id="Graphic_947">
            <rect x="561.03004" y="185.51736" width="10.6875" height="5.0625" fill="#095aaa"/>
            <rect x="561.03004" y="185.51736" width="10.6875" height="5.0625" stroke="white" stroke-linecap="round" stroke-linejoin="round" stroke-width=".75"/>
          </g>
          <g id="Graphic_946">
            <rect x="561.1529" y="174.86264" width="10.6875" height="5.0625" fill="#095aaa"/>
            <rect x="561.1529" y="174.86264" width="10.6875" height="5.0625" stroke="white" stroke-linecap="butt" stroke-linejoin="miter" stroke-width=".75"/>
          </g>
          <g id="Graphic_945">
            <rect x="561.16004" y="180.28498" width="10.6875" height="5.0625" fill="#095aaa"/>
            <rect x="561.16004" y="180.28498" width="10.6875" height="5.0625" stroke="white" stroke-linecap="round" stroke-linejoin="miter" stroke-width=".75"/>
          </g>
          <g id="Graphic_944">
            <rect x="561.16004" y="185.7073" width="10.6875" height="5.0625" fill="#095aaa"/>
            <rect x="561.16004" y="185.7073" width="10.6875" height="5.0625" stroke="white" stroke-linecap="round" stroke-linejoin="miter" stroke-width=".75"/>
          </g>
        </g>
      </g>
      <g id="Group_962">
        <g id="Line_718">
          <line x1="395.98584" y1="206.99668" x2="395.98584" y2="195.8266" stroke="#9dbedd" stroke-linecap="round" stroke-linejoin="round" stroke-width=".75"/>
        </g>
        <g id="Line_960">
          <line x1="402.159" y1="205.10584" x2="402.159" y2="193.93576" stroke="#9dbedd" stroke-linecap="round" stroke-linejoin="round" stroke-width=".75"/>
        </g>
        <g id="Line_961">
          <line x1="407.5266" y1="202.53045" x2="407.5266" y2="191.36037" stroke="#9dbedd" stroke-linecap="round" stroke-linejoin="round" stroke-width=".75"/>
        </g>
      </g>
      <g id="Group_963">
        <g id="Line_966">
          <line x1="452.06174" y1="206.99668" x2="452.06174" y2="195.8266" stroke="#9dbedd" stroke-linecap="round" stroke-linejoin="round" stroke-width=".75"/>
        </g>
        <g id="Line_965">
          <line x1="458.2349" y1="205.10584" x2="458.2349" y2="193.93576" stroke="#9dbedd" stroke-linecap="round" stroke-linejoin="round" stroke-width=".75"/>
        </g>
        <g id="Line_964">
          <line x1="463.60247" y1="202.53045" x2="463.60247" y2="191.36037" stroke="#9dbedd" stroke-linecap="round" stroke-linejoin="round" stroke-width=".75"/>
        </g>
      </g>
      <g id="Group_971">
        <g id="Line_974">
          <line x1="507.99796" y1="207.89773" x2="507.99796" y2="196.72765" stroke="#9dbedd" stroke-linecap="round" stroke-linejoin="round" stroke-width=".75"/>
        </g>
        <g id="Line_973">
          <line x1="514.1711" y1="206.00689" x2="514.1711" y2="194.8368" stroke="#9dbedd" stroke-linecap="round" stroke-linejoin="round" stroke-width=".75"/>
        </g>
        <g id="Line_972">
          <line x1="519.5387" y1="203.4315" x2="519.5387" y2="192.26143" stroke="#9dbedd" stroke-linecap="round" stroke-linejoin="round" stroke-width=".75"/>
        </g>
      </g>
      <g id="Group_975">
        <g id="Line_978">
          <line x1="564.004" y1="207.87058" x2="564.004" y2="196.7005" stroke="#9dbedd" stroke-linecap="round" stroke-linejoin="round" stroke-width=".75"/>
        </g>
        <g id="Line_977">
          <line x1="570.1772" y1="205.97973" x2="570.1772" y2="194.80966" stroke="#9dbedd" stroke-linecap="round" stroke-linejoin="round" stroke-width=".75"/>
        </g>
        <g id="Line_976">
          <line x1="575.54475" y1="203.40435" x2="575.54475" y2="192.23427" stroke="#9dbedd" stroke-linecap="round" stroke-linejoin="round" stroke-width=".75"/>
        </g>
      </g>
      <g id="Group_989">
        <g id="Graphic_502">
          <path d="M 368.88353 111.48602 L 383.4812 88.32977 C 384.0306 87.45825 384.98876 86.9296 386.019 86.9296 L 415.68636 86.9296 C 416.7166 86.9296 417.67477 87.45825 418.2242 88.32977 L 432.8218 111.48602 C 433.43807 112.46356 433.43807 113.70815 432.8218 114.68569 L 418.2242 137.84194 C 417.67477 138.71346 416.7166 139.2421 415.68636 139.2421 L 386.019 139.2421 C 384.98876 139.2421 384.0306 138.71346 383.4812 137.84194 L 368.88353 114.68569 C 368.2673 113.70815 368.2673 112.46356 368.88353 111.48602 Z" fill="white"/>
          <path d="M 368.88353 111.48602 L 383.4812 88.32977 C 384.0306 87.45825 384.98876 86.9296 386.019 86.9296 L 415.68636 86.9296 C 416.7166 86.9296 417.67477 87.45825 418.2242 88.32977 L 432.8218 111.48602 C 433.43807 112.46356 433.43807 113.70815 432.8218 114.68569 L 418.2242 137.84194 C 417.67477 138.71346 416.7166 139.2421 415.68636 139.2421 L 386.019 139.2421 C 384.98876 139.2421 384.0306 138.71346 383.4812 137.84194 L 368.88353 114.68569 C 368.2673 113.70815 368.2673 112.46356 368.88353 111.48602 Z" stroke="#929292" stroke-linecap="round" stroke-linejoin="round" stroke-width="1.25"/>
        </g>
        <g id="Line_515">
          <line x1="400.78006" y1="118.36797" x2="400.6095" y2="108.8088" stroke="#a5a5a5" stroke-linecap="round" stroke-linejoin="round" stroke-width="1"/>
        </g>
        <g id="Graphic_517">
          <path d="M 394.6895 93.05881 L 406.5295 93.05881 C 407.63407 93.05881 408.5295 93.95424 408.5295 95.05881 L 408.5295 106.8088 C 408.5295 107.91338 407.63407 108.8088 406.5295 108.8088 L 394.6895 108.8088 C 393.58493 108.8088 392.6895 107.91338 392.6895 106.8088 L 392.6895 95.05881 C 392.6895 93.95424 393.58493 93.05881 394.6895 93.05881 Z" fill="#06aa90"/>
        </g>
        <g id="Group_983">
          <g id="Graphic_988">
            <rect x="394.2198" y="122.27012" width="13.265717" height="9.065572" fill="#06aa90"/>
            <rect x="394.2198" y="122.27012" width="13.265717" height="9.065572" stroke="white" stroke-linecap="round" stroke-linejoin="round" stroke-width="1"/>
          </g>
          <g id="Graphic_987">
            <ellipse cx="400.8527" cy="131.24979" rx="6.68779776336299" ry="3.56998776720178" fill="#06aa90"/>
            <ellipse cx="400.8527" cy="131.24979" rx="6.68779776336299" ry="3.56998776720178" stroke="white" stroke-linecap="round" stroke-linejoin="round" stroke-width="1"/>
          </g>
          <g id="Graphic_986">
            <ellipse cx="400.8527" cy="128.34628" rx="6.68779776336299" ry="3.56998776720179" fill="#06aa90"/>
            <ellipse cx="400.8527" cy="128.34628" rx="6.68779776336299" ry="3.56998776720179" stroke="white" stroke-linecap="round" stroke-linejoin="round" stroke-width="1"/>
          </g>
          <g id="Graphic_985">
            <ellipse cx="400.88014" cy="125.59071" rx="6.66033349550471" ry="3.32059436366051" fill="#06aa90"/>
            <ellipse cx="400.88014" cy="125.59071" rx="6.66033349550471" ry="3.32059436366051" stroke="white" stroke-linecap="round" stroke-linejoin="round" stroke-width="1"/>
          </g>
          <g id="Graphic_984">
            <ellipse cx="400.8527" cy="122.43771" rx="6.68779776336299" ry="3.56998776720178" fill="#06aa90"/>
            <ellipse cx="400.8527" cy="122.43771" rx="6.68779776336299" ry="3.56998776720178" stroke="white" stroke-linecap="round" stroke-linejoin="round" stroke-width="1"/>
          </g>
        </g>
      </g>
      <g id="Group_990">
        <g id="Graphic_999">
          <path d="M 425.2908 79.45031 L 439.88846 56.294056 C 440.43786 55.422535 441.39604 54.89389 442.4263 54.89389 L 472.09364 54.89389 C 473.1239 54.89389 474.08205 55.422535 474.63146 56.294056 L 489.2291 79.45031 C 489.84534 80.42785 489.84534 81.67243 489.2291 82.64998 L 474.63146 105.80623 C 474.08205 106.67775 473.1239 107.20639 472.09364 107.20639 L 442.4263 107.20639 C 441.39604 107.20639 440.43786 106.67775 439.88846 105.80623 L 425.2908 82.64998 C 424.67457 81.67243 424.67457 80.42785 425.2908 79.45031 Z" fill="white"/>
          <path d="M 425.2908 79.45031 L 439.88846 56.294056 C 440.43786 55.422535 441.39604 54.89389 442.4263 54.89389 L 472.09364 54.89389 C 473.1239 54.89389 474.08205 55.422535 474.63146 56.294056 L 489.2291 79.45031 C 489.84534 80.42785 489.84534 81.67243 489.2291 82.64998 L 474.63146 105.80623 C 474.08205 106.67775 473.1239 107.20639 472.09364 107.20639 L 442.4263 107.20639 C 441.39604 107.20639 440.43786 106.67775 439.88846 105.80623 L 425.2908 82.64998 C 424.67457 81.67243 424.67457 80.42785 425.2908 79.45031 Z" stroke="#929292" stroke-linecap="round" stroke-linejoin="round" stroke-width="1.25"/>
        </g>
        <g id="Line_998">
          <line x1="457.18734" y1="86.33226" x2="457.0168" y2="76.773095" stroke="#a5a5a5" stroke-linecap="round" stroke-linejoin="round" stroke-width="1"/>
        </g>
        <g id="Graphic_997">
          <path d="M 451.0968 61.023095 L 462.9368 61.023095 C 464.04135 61.023095 464.9368 61.918525 464.9368 63.023095 L 464.9368 74.773095 C 464.9368 75.87766 464.04135 76.773095 462.9368 76.773095 L 451.0968 76.773095 C 449.9922 76.773095 449.0968 75.87766 449.0968 74.773095 L 449.0968 63.023095 C 449.0968 61.918525 449.9922 61.023095 451.0968 61.023095 Z" fill="#06aa90"/>
        </g>
        <g id="Group_991">
          <g id="Graphic_996">
            <rect x="450.6271" y="90.23441" width="13.265717" height="9.065572" fill="#06aa90"/>
            <rect x="450.6271" y="90.23441" width="13.265717" height="9.065572" stroke="white" stroke-linecap="round" stroke-linejoin="round" stroke-width="1"/>
          </g>
          <g id="Graphic_995">
            <ellipse cx="457.25996" cy="99.21408" rx="6.68779776336294" ry="3.56998776720178" fill="#06aa90"/>
            <ellipse cx="457.25996" cy="99.21408" rx="6.68779776336294" ry="3.56998776720178" stroke="white" stroke-linecap="round" stroke-linejoin="round" stroke-width="1"/>
          </g>
          <g id="Graphic_994">
            <ellipse cx="457.25996" cy="96.31056" rx="6.68779776336294" ry="3.56998776720177" fill="#06aa90"/>
            <ellipse cx="457.25996" cy="96.31056" rx="6.68779776336294" ry="3.56998776720177" stroke="white" stroke-linecap="round" stroke-linejoin="round" stroke-width="1"/>
          </g>
          <g id="Graphic_993">
            <ellipse cx="457.2874" cy="93.555" rx="6.66033349550472" ry="3.32059436366051" fill="#06aa90"/>
            <ellipse cx="457.2874" cy="93.555" rx="6.66033349550472" ry="3.32059436366051" stroke="white" stroke-linecap="round" stroke-linejoin="round" stroke-width="1"/>
          </g>
          <g id="Graphic_992">
            <ellipse cx="457.25996" cy="90.402" rx="6.68779776336294" ry="3.56998776720178" fill="#06aa90"/>
            <ellipse cx="457.25996" cy="90.402" rx="6.68779776336294" ry="3.56998776720178" stroke="white" stroke-linecap="round" stroke-linejoin="round" stroke-width="1"/>
          </g>
        </g>
      </g>
      <g id="Group_1010">
        <g id="Graphic_1019">
          <path d="M 481.5584 110.69241 L 496.15606 87.53616 C 496.70546 86.66464 497.66364 86.13599 498.6939 86.13599 L 528.36124 86.13599 C 529.3915 86.13599 530.34965 86.66464 530.89906 87.53616 L 545.4967 110.69241 C 546.11295 111.66995 546.11295 112.91454 545.4967 113.89208 L 530.89906 137.04833 C 530.34965 137.91985 529.3915 138.4485 528.36124 138.4485 L 498.6939 138.4485 C 497.66364 138.4485 496.70546 137.91985 496.15606 137.04833 L 481.5584 113.89208 C 480.9422 112.91454 480.9422 111.66995 481.5584 110.69241 Z" fill="white"/>
          <path d="M 481.5584 110.69241 L 496.15606 87.53616 C 496.70546 86.66464 497.66364 86.13599 498.6939 86.13599 L 528.36124 86.13599 C 529.3915 86.13599 530.34965 86.66464 530.89906 87.53616 L 545.4967 110.69241 C 546.11295 111.66995 546.11295 112.91454 545.4967 113.89208 L 530.89906 137.04833 C 530.34965 137.91985 529.3915 138.4485 528.36124 138.4485 L 498.6939 138.4485 C 497.66364 138.4485 496.70546 137.91985 496.15606 137.04833 L 481.5584 113.89208 C 480.9422 112.91454 480.9422 111.66995 481.5584 110.69241 Z" stroke="#929292" stroke-linecap="round" stroke-linejoin="round" stroke-width="1.25"/>
        </g>
        <g id="Line_1018">
          <line x1="513.45494" y1="117.57436" x2="513.2844" y2="108.0152" stroke="#a5a5a5" stroke-linecap="round" stroke-linejoin="round" stroke-width="1"/>
        </g>
        <g id="Graphic_1017">
          <path d="M 507.3644 92.2652 L 519.2044 92.2652 C 520.30895 92.2652 521.2044 93.16063 521.2044 94.2652 L 521.2044 106.0152 C 521.2044 107.11977 520.30895 108.0152 519.2044 108.0152 L 507.3644 108.0152 C 506.2598 108.0152 505.3644 107.11977 505.3644 106.0152 L 505.3644 94.2652 C 505.3644 93.16063 506.2598 92.2652 507.3644 92.2652 Z" fill="#06aa90"/>
        </g>
        <g id="Group_1011">
          <g id="Graphic_1016">
            <rect x="506.8947" y="121.47651" width="13.265717" height="9.065572" fill="#06aa90"/>
            <rect x="506.8947" y="121.47651" width="13.265717" height="9.065572" stroke="white" stroke-linecap="round" stroke-linejoin="round" stroke-width="1"/>
          </g>
          <g id="Graphic_1015">
            <ellipse cx="513.52756" cy="130.45618" rx="6.68779776336294" ry="3.56998776720178" fill="#06aa90"/>
            <ellipse cx="513.52756" cy="130.45618" rx="6.68779776336294" ry="3.56998776720178" stroke="white" stroke-linecap="round" stroke-linejoin="round" stroke-width="1"/>
          </g>
          <g id="Graphic_1014">
            <ellipse cx="513.52756" cy="127.55267" rx="6.68779776336294" ry="3.56998776720178" fill="#06aa90"/>
            <ellipse cx="513.52756" cy="127.55267" rx="6.68779776336294" ry="3.56998776720178" stroke="white" stroke-linecap="round" stroke-linejoin="round" stroke-width="1"/>
          </g>
          <g id="Graphic_1013">
            <ellipse cx="513.555" cy="124.7971" rx="6.66033349550474" ry="3.32059436366051" fill="#06aa90"/>
            <ellipse cx="513.555" cy="124.7971" rx="6.66033349550474" ry="3.32059436366051" stroke="white" stroke-linecap="round" stroke-linejoin="round" stroke-width="1"/>
          </g>
          <g id="Graphic_1012">
            <ellipse cx="513.52756" cy="121.6441" rx="6.68779776336294" ry="3.56998776720178" fill="#06aa90"/>
            <ellipse cx="513.52756" cy="121.6441" rx="6.68779776336294" ry="3.56998776720178" stroke="white" stroke-linecap="round" stroke-linejoin="round" stroke-width="1"/>
          </g>
        </g>
      </g>
      <g id="Group_1000">
        <g id="Graphic_1009">
          <path d="M 537.89585 79.45031 L 552.4935 56.294056 C 553.0429 55.422535 554.0011 54.89389 555.0313 54.89389 L 584.6987 54.89389 C 585.7289 54.89389 586.6871 55.422535 587.2365 56.294056 L 601.83415 79.45031 C 602.4504 80.42785 602.4504 81.67243 601.83415 82.64998 L 587.2365 105.80623 C 586.6871 106.67775 585.7289 107.20639 584.6987 107.20639 L 555.0313 107.20639 C 554.0011 107.20639 553.0429 106.67775 552.4935 105.80623 L 537.89585 82.64998 C 537.2796 81.67243 537.2796 80.42785 537.89585 79.45031 Z" fill="white"/>
          <path d="M 537.89585 79.45031 L 552.4935 56.294056 C 553.0429 55.422535 554.0011 54.89389 555.0313 54.89389 L 584.6987 54.89389 C 585.7289 54.89389 586.6871 55.422535 587.2365 56.294056 L 601.83415 79.45031 C 602.4504 80.42785 602.4504 81.67243 601.83415 82.64998 L 587.2365 105.80623 C 586.6871 106.67775 585.7289 107.20639 584.6987 107.20639 L 555.0313 107.20639 C 554.0011 107.20639 553.0429 106.67775 552.4935 105.80623 L 537.89585 82.64998 C 537.2796 81.67243 537.2796 80.42785 537.89585 79.45031 Z" stroke="#929292" stroke-linecap="round" stroke-linejoin="round" stroke-width="1.25"/>
        </g>
        <g id="Line_1008">
          <line x1="569.7924" y1="86.33226" x2="569.6218" y2="76.773095" stroke="#a5a5a5" stroke-linecap="round" stroke-linejoin="round" stroke-width="1"/>
        </g>
        <g id="Graphic_1007">
          <path d="M 563.7018 61.023095 L 575.5418 61.023095 C 576.6464 61.023095 577.5418 61.918525 577.5418 63.023095 L 577.5418 74.773095 C 577.5418 75.87766 576.6464 76.773095 575.5418 76.773095 L 563.7018 76.773095 C 562.59725 76.773095 561.7018 75.87766 561.7018 74.773095 L 561.7018 63.023095 C 561.7018 61.918525 562.59725 61.023095 563.7018 61.023095 Z" fill="#06aa90"/>
        </g>
        <g id="Group_1001">
          <g id="Graphic_1006">
            <rect x="563.23214" y="90.23441" width="13.265717" height="9.065572" fill="#06aa90"/>
            <rect x="563.23214" y="90.23441" width="13.265717" height="9.065572" stroke="white" stroke-linecap="round" stroke-linejoin="round" stroke-width="1"/>
          </g>
          <g id="Graphic_1005">
            <ellipse cx="569.865" cy="99.21408" rx="6.68779776336293" ry="3.56998776720178" fill="#06aa90"/>
            <ellipse cx="569.865" cy="99.21408" rx="6.68779776336293" ry="3.56998776720178" stroke="white" stroke-linecap="round" stroke-linejoin="round" stroke-width="1"/>
          </g>
          <g id="Graphic_1004">
            <ellipse cx="569.865" cy="96.31056" rx="6.68779776336293" ry="3.56998776720179" fill="#06aa90"/>
            <ellipse cx="569.865" cy="96.31056" rx="6.68779776336293" ry="3.56998776720179" stroke="white" stroke-linecap="round" stroke-linejoin="round" stroke-width="1"/>
          </g>
          <g id="Graphic_1003">
            <ellipse cx="569.89246" cy="93.555" rx="6.66033349550465" ry="3.32059436366052" fill="#06aa90"/>
            <ellipse cx="569.89246" cy="93.555" rx="6.66033349550465" ry="3.32059436366052" stroke="white" stroke-linecap="round" stroke-linejoin="round" stroke-width="1"/>
          </g>
          <g id="Graphic_1002">
            <ellipse cx="569.865" cy="90.402" rx="6.68779776336293" ry="3.56998776720178" fill="#06aa90"/>
            <ellipse cx="569.865" cy="90.402" rx="6.68779776336293" ry="3.56998776720178" stroke="white" stroke-linecap="round" stroke-linejoin="round" stroke-width="1"/>
          </g>
        </g>
      </g>
      <g id="Group_1031">
        <g id="Graphic_1028">
          <rect x="307.0797" y=".47405247" width="65.95536" height="52.53582" fill="white"/>
          <rect x="307.0797" y=".47405247" width="65.95536" height="52.53582" stroke="#095aaa" stroke-linecap="round" stroke-linejoin="round" stroke-width="1.5"/>
        </g>
        <g id="Graphic_1021">
          <title>icon-cogs</title>
          <path d="M 349.5453 18.054236 C 349.5453 18.730574 349.75435 19.294189 350.17665 19.74959 C 350.5948 20.20499 351.10908 20.430436 351.707 20.430436 C 352.3342 20.430436 352.86103 20.20499 353.2875 19.74959 C 353.714 19.294189 353.92725 18.7441 353.92725 18.099325 C 353.92725 17.422987 353.7182 16.854864 353.29588 16.394954 C 352.87775 15.930535 352.35928 15.70509 351.74463 15.70509 C 351.11744 15.70509 350.5948 15.930535 350.17665 16.394954 C 349.75435 16.854864 349.5453 17.40946 349.5453 18.054236 M 348.5627 36.166563 C 348.5627 36.874464 348.79266 37.483168 349.25678 38.001693 C 349.7167 38.52022 350.277 38.777227 350.946 38.777227 C 351.5983 38.777227 352.16276 38.529237 352.6394 38.037765 C 353.1119 37.532766 353.35024 36.919553 353.35024 36.166563 C 353.35024 35.458663 353.1161 34.863486 352.65615 34.362996 C 352.1962 33.867015 351.62755 33.619024 350.946 33.619024 C 350.29373 33.619024 349.72926 33.867015 349.26514 34.362996 C 348.79684 34.863486 348.5627 35.458663 348.5627 36.166563 M 357.05066 20.04267 C 356.87504 20.561195 356.67016 21.012087 356.42765 21.399854 C 356.4569 21.46298 356.51127 21.575702 356.5907 21.756058 C 356.67016 21.936415 356.76215 22.1303 356.8625 22.342218 C 356.95867 22.549628 357.0423 22.739003 357.11337 22.91485 C 357.1761 23.08168 357.20954 23.189895 357.20954 23.216948 C 357.20954 23.302618 357.059 23.469448 356.76215 23.721947 C 356.4611 23.974447 356.1266 24.235964 355.75864 24.50199 C 355.3907 24.763507 355.04783 25.00248 354.73005 25.2144 C 354.4081 25.42181 354.23666 25.521006 354.2074 25.521006 C 354.1572 25.521006 354.06105 25.45788 353.92725 25.318104 C 353.79763 25.182837 353.6513 25.029534 353.4966 24.853686 C 353.34605 24.686856 353.20807 24.515517 353.0868 24.348687 C 352.96556 24.181857 352.88193 24.069134 352.82758 24.015027 C 352.6394 24.069134 352.45126 24.114223 352.25474 24.145785 C 352.0624 24.17284 351.8659 24.17284 351.6652 24.145785 L 351.38504 24.145785 C 351.33487 24.199893 351.25124 24.321633 351.1467 24.50199 C 351.038 24.677838 350.9251 24.867213 350.7955 25.061096 C 350.67004 25.25498 350.5446 25.426318 350.42335 25.566095 C 350.30627 25.71038 350.21847 25.787032 350.1641 25.787032 C 350.11394 25.787032 349.90905 25.70587 349.5662 25.54806 C 349.21914 25.390247 348.85537 25.20538 348.4749 24.993462 C 348.0944 24.786052 347.74734 24.578642 347.43374 24.366723 C 347.12015 24.159312 346.96126 24.015027 346.96126 23.929357 C 346.96126 23.902304 346.98217 23.79409 347.0198 23.613733 C 347.0616 23.433376 347.11597 23.239493 347.18287 23.0411 C 347.24977 22.842708 347.3083 22.644315 347.36266 22.450432 C 347.417 22.256548 347.45465 22.1303 347.4839 22.071683 C 347.1787 21.738023 346.92363 21.314184 346.72293 20.795659 C 346.0163 20.768605 345.51454 20.732534 345.22185 20.687445 C 344.92917 20.642355 344.73265 20.511597 344.64066 20.29066 C 344.54867 20.065214 344.51522 19.690974 344.5403 19.154412 C 344.56958 18.626869 344.5403 17.842317 344.46086 16.805265 C 344.46086 16.715087 344.5445 16.633927 344.71174 16.543748 C 344.879 16.458079 345.0755 16.390445 345.3013 16.32732 C 345.5271 16.268704 345.75288 16.232633 345.9745 16.20107 C 346.1919 16.169508 346.34243 16.142454 346.42188 16.110892 C 346.55568 15.641964 346.76056 15.177546 347.0407 14.735672 C 347.0156 14.672547 346.96126 14.550806 346.8818 14.356923 C 346.80237 14.163039 346.71875 13.964647 346.63094 13.761745 C 346.5473 13.558844 346.46787 13.378487 346.40515 13.211657 C 346.33407 13.044827 346.3048 12.932104 346.3048 12.877997 C 346.3048 12.787819 346.44697 12.630007 346.7313 12.391034 C 347.0198 12.152061 347.34594 11.899562 347.7139 11.633535 C 348.07766 11.372018 348.4247 11.133045 348.74666 10.934653 C 349.06444 10.731752 349.2526 10.632555 349.30277 10.632555 C 349.35713 10.632555 349.44493 10.69568 349.5662 10.82193 C 349.68327 10.957198 349.82125 11.110501 349.97595 11.290858 C 350.13066 11.466705 350.26446 11.638044 350.3857 11.795857 C 350.5028 11.953669 350.5906 12.061883 350.64496 12.120499 C 350.8331 12.061883 351.02545 12.021303 351.2136 11.98974 C 351.41013 11.958178 351.60665 11.958178 351.80735 11.98974 L 352.0875 11.98974 C 352.1126 11.935633 352.18784 11.813892 352.3091 11.633535 C 352.42618 11.453179 352.5516 11.272822 352.67705 11.083447 C 352.8025 10.894073 352.91956 10.727243 353.02828 10.578448 C 353.1328 10.429654 353.21225 10.348494 353.2666 10.348494 C 353.32097 10.348494 353.52167 10.434163 353.8687 10.600993 C 354.21576 10.763314 354.5879 10.952689 354.98093 11.160099 C 355.37397 11.372018 355.72938 11.57041 356.0388 11.773312 C 356.3524 11.976213 356.51127 12.120499 356.51127 12.206168 C 356.51127 12.264784 356.4862 12.372998 356.42765 12.539828 C 356.37747 12.706658 356.3231 12.891524 356.26876 13.103443 C 356.2186 13.310853 356.16005 13.509246 356.1015 13.694111 C 356.0388 13.883486 355.99698 14.005227 355.9719 14.063843 C 356.2395 14.424556 356.49873 14.857413 356.7496 15.357903 C 357.43115 15.416518 357.92454 15.466117 358.23395 15.511206 C 358.5392 15.551786 358.73152 15.687054 358.81097 15.903482 C 358.8904 16.133437 358.92804 16.503168 358.9113 17.030711 C 358.89877 17.558255 358.9197 18.324771 358.97404 19.33026 C 358.97404 19.41593 358.8904 19.506108 358.72316 19.600795 C 358.5559 19.690974 358.36357 19.772134 358.1545 19.82624 C 357.9371 19.884857 357.72384 19.929946 357.50223 19.957 C 357.28063 19.984053 357.1301 20.015616 357.05066 20.04267 M 357.01302 37.420043 C 356.89177 37.96562 356.73706 38.47513 356.5489 38.953075 C 356.57817 39.034236 356.65344 39.17401 356.77887 39.34986 C 356.9085 39.530217 357.03393 39.72861 357.151 39.93602 C 357.27226 40.13892 357.3768 40.337313 357.47296 40.52669 C 357.56495 40.711554 357.61095 40.84682 357.61095 40.914455 C 357.61095 40.97307 357.4855 41.1399 357.243 41.423963 C 356.9963 41.703516 356.7078 42.001104 356.38165 42.30771 C 356.0555 42.614317 355.73774 42.907397 355.44087 43.17793 C 355.1398 43.452976 354.94748 43.64235 354.86803 43.741547 L 354.70915 43.831725 C 354.6548 43.831725 354.54608 43.7686 354.37883 43.64686 C 354.21158 43.52061 354.04014 43.380834 353.8687 43.22302 C 353.6973 43.06521 353.52585 42.911906 353.3586 42.758603 C 353.19135 42.6053 353.08263 42.506103 353.02828 42.447487 C 352.5349 42.618826 352.01223 42.758603 351.4645 42.8578 C 351.4394 42.94347 351.37668 43.10128 351.28887 43.32222 C 351.1927 43.543155 351.08817 43.76409 350.97528 43.98052 C 350.8624 44.19695 350.75367 44.39534 350.64496 44.57119 C 350.54042 44.756054 350.44426 44.841723 350.3648 44.841723 C 350.28537 44.841723 350.0512 44.792125 349.66654 44.6794 C 349.2777 44.57119 348.85956 44.44043 348.41216 44.27811 C 347.96895 44.120296 347.56754 43.953466 347.21214 43.77311 C 346.85673 43.592753 346.6811 43.43494 346.6811 43.290655 C 346.6811 42.956995 346.71457 42.614317 346.78147 42.26262 C 346.84837 41.910926 346.9111 41.577266 346.96126 41.257133 C 346.748 41.085794 346.55986 40.89642 346.3926 40.68901 C 346.22536 40.4816 346.07483 40.26066 345.94103 40.030707 C 345.6358 40.06227 345.33057 40.080305 345.0295 40.09834 C 344.73265 40.111867 344.4316 40.116376 344.1431 40.116376 L 343.8504 40.116376 C 343.7626 40.116376 343.70824 40.035216 343.67897 39.877404 C 343.6539 39.76017 343.59952 39.50767 343.52008 39.110887 C 343.44064 38.714103 343.34865 38.29928 343.2483 37.861917 C 343.14795 37.420043 343.06432 37.02326 343.0016 36.662544 C 342.93052 36.30183 342.90125 36.09442 342.90125 36.035805 C 342.90125 35.950135 342.98906 35.85545 343.16885 35.75625 C 343.34865 35.657055 343.5577 35.55335 343.79186 35.440627 C 344.02183 35.332413 344.2476 35.246744 344.46086 35.1746 C 344.6741 35.10246 344.82045 35.05286 344.8999 35.025807 C 344.95425 34.687638 345.01697 34.412594 345.09224 34.17813 C 345.1633 33.948175 345.26785 33.686658 345.40165 33.38005 C 345.3473 33.325944 345.26367 33.199695 345.1424 33.01483 C 345.02115 32.825454 344.8999 32.627062 344.77028 32.42416 C 344.64484 32.21675 344.53195 32.01385 344.43996 31.819965 C 344.34797 31.626082 344.30198 31.495323 344.30198 31.441216 C 344.30198 31.3826 344.42323 31.21126 344.66993 30.9272 C 344.91662 30.652155 345.20513 30.359076 345.53127 30.04796 C 345.8574 29.741354 346.171 29.448274 346.47205 29.186757 C 346.7731 28.91622 346.96126 28.740374 347.0407 28.659213 L 347.20377 28.569035 C 347.25813 28.569035 347.36684 28.63216 347.5341 28.7539 C 347.70135 28.871133 347.8686 29.015418 348.0442 29.17323 C 348.21564 29.331042 348.38707 29.484345 348.55432 29.63314 C 348.72157 29.790952 348.8303 29.890148 348.88464 29.953273 C 349.35295 29.777425 349.85888 29.642158 350.40662 29.538453 C 350.4317 29.452783 350.49443 29.29948 350.5864 29.074034 C 350.6784 28.853097 350.7871 28.63216 350.91674 28.42024 C 351.04218 28.199304 351.15925 28.00542 351.26796 27.820554 C 351.3725 27.644707 351.4645 27.554528 351.5481 27.554528 C 351.5983 27.554528 351.82407 27.604126 352.22966 27.70783 C 352.62688 27.80252 353.0492 27.937786 353.4966 28.104616 C 353.94397 28.271446 354.34956 28.438276 354.70915 28.614124 C 355.06874 28.785463 355.24853 28.947784 355.24853 29.105596 C 355.24853 29.439256 355.2109 29.777425 355.1398 30.124612 C 355.06455 30.46729 355.00184 30.80546 354.94748 31.13461 C 355.16072 31.30595 355.35306 31.499832 355.5203 31.707243 C 355.68756 31.914653 355.8381 32.13559 355.9719 32.365545 C 356.3022 32.33849 356.63253 32.315947 356.95867 32.30242 C 357.289 32.284384 357.60676 32.279875 357.912 32.279875 C 358.01653 32.279875 358.1378 32.46925 358.2716 32.852508 C 358.4054 33.235766 358.52246 33.668622 358.6228 34.160094 C 358.72316 34.647058 358.8068 35.111476 358.8737 35.55335 C 358.9406 35.990715 358.97404 36.274777 358.97404 36.401027 C 358.97404 36.491205 358.88205 36.581384 358.70226 36.68509 C 358.52246 36.784285 358.32594 36.878973 358.1127 36.960133 C 357.89945 37.05031 357.68203 37.14049 357.4604 37.235177 C 357.243 37.325355 357.09247 37.38848 357.01302 37.420043 M 332.6488 28.785463 C 333.14636 28.785463 333.61048 28.681758 334.0495 28.483365 C 334.49273 28.280464 334.8774 28.00542 335.20354 27.653724 C 335.5297 27.30203 335.78474 26.887208 335.9729 26.413772 C 336.16105 25.935826 336.25304 25.435336 336.25304 24.898775 C 336.25304 24.366723 336.16105 23.857215 335.9729 23.37927 C 335.78474 22.896815 335.5297 22.472977 335.20354 22.12128 C 334.8774 21.769585 334.49273 21.49454 334.0495 21.282622 C 333.61048 21.075212 333.14636 20.966998 332.6488 20.966998 C 331.63692 20.966998 330.7756 21.350256 330.06895 22.112263 C 329.3623 22.87427 329.0069 23.803108 329.0069 24.898775 C 329.0069 25.435336 329.10307 25.935826 329.2996 26.413772 C 329.49193 26.887208 329.75117 27.30203 330.0773 27.653724 C 330.40345 28.00542 330.7923 28.280464 331.2397 28.483365 C 331.6871 28.681758 332.1554 28.785463 332.6488 28.785463 M 340.55974 20.173428 C 340.86498 20.732534 341.1242 21.395345 341.33746 22.157352 C 341.47126 22.184406 341.71795 22.220477 342.07754 22.265566 C 342.43713 22.306147 342.80926 22.369271 343.18976 22.450432 C 343.57025 22.527084 343.90894 22.612753 344.21 22.693914 C 344.51104 22.784092 344.66156 22.883288 344.66156 23.00052 L 344.66156 26.84212 C 344.66156 26.981895 344.51104 27.108145 344.21 27.193815 C 343.90894 27.29301 343.57025 27.369663 343.18976 27.446314 C 342.80926 27.518457 342.43295 27.568055 342.05664 27.59511 C 341.6845 27.62667 341.442 27.653724 341.33746 27.685287 C 341.1493 28.30301 340.9068 28.934257 340.59737 29.58354 C 340.9068 30.029925 341.19948 30.46278 341.488 30.89113 C 341.7765 31.310458 342.09845 31.734296 342.45804 32.153625 L 342.49985 32.365545 C 342.49985 32.451214 342.36187 32.667642 342.0901 33.01483 C 341.81412 33.362016 341.49635 33.72273 341.13676 34.105987 C 340.77717 34.489245 340.4385 34.822905 340.12907 35.120494 C 339.8113 35.413574 339.61478 35.56237 339.53533 35.56237 C 339.51025 35.56237 339.37226 35.46317 339.12557 35.26929 C 338.87887 35.075405 338.6071 34.85447 338.30604 34.60197 C 338.005 34.34947 337.72484 34.119514 337.4656 33.898577 C 337.2022 33.686658 337.03494 33.542373 336.9555 33.46572 C 336.3534 33.79938 335.768 34.065407 335.191 34.26831 C 335.191 34.412594 335.1701 34.67862 335.13246 35.06188 C 335.09065 35.454154 335.04047 35.859957 334.97357 36.283795 C 334.90667 36.712143 334.82305 37.086383 334.7227 37.406516 C 334.62235 37.73116 334.5178 37.89348 334.4133 37.89348 L 330.85084 37.89348 C 330.74213 37.89348 330.6418 37.73116 330.54143 37.406516 C 330.44108 37.086383 330.36164 36.712143 330.30728 36.283795 C 330.2571 35.859957 330.20693 35.454154 330.1693 35.075405 C 330.1275 34.692147 330.11076 34.42612 330.11076 34.26831 C 329.50866 34.09697 328.9191 33.826434 328.34627 33.46572 C 327.93232 33.79938 327.52256 34.13304 327.11697 34.47121 C 326.7114 34.813888 326.31 35.156565 325.9253 35.51728 L 325.7246 35.56237 C 325.67444 35.56237 325.49046 35.413574 325.1727 35.120494 C 324.8591 34.822905 324.53295 34.489245 324.19427 34.105987 C 323.8514 33.72273 323.54617 33.362016 323.2744 33.01483 C 322.99843 32.667642 322.86463 32.451214 322.86463 32.365545 C 322.86463 32.33849 322.94825 32.189697 323.12386 31.92367 C 323.2953 31.662153 323.496 31.369074 323.71342 31.062467 C 323.93503 30.75135 324.1399 30.453763 324.33225 30.17421 C 324.52877 29.894657 324.65003 29.7143 324.7044 29.624122 C 324.39497 29.01091 324.13573 28.330062 323.9225 27.59511 C 323.7887 27.568055 323.542 27.531984 323.1824 27.486894 C 322.8228 27.446314 322.45486 27.396716 322.0702 27.3381 C 321.6897 27.279484 321.351 27.202833 321.04996 27.112654 C 320.7489 27.017967 320.60256 26.914262 320.60256 26.79703 L 320.60256 22.91485 C 320.60256 22.802128 320.7489 22.684896 321.04996 22.58119 C 321.351 22.468468 321.69805 22.387307 322.0911 22.32869 C 322.48413 22.274584 322.86463 22.220477 323.2242 22.179897 C 323.5838 22.134808 323.8305 22.112263 323.9643 22.112263 C 324.1232 21.408872 324.3699 20.777623 324.7044 20.214008 C 324.39497 19.772134 324.0939 19.325751 323.79287 18.888386 C 323.496 18.45102 323.1824 18.018165 322.86463 17.603344 L 322.7852 17.386916 C 322.7852 17.301247 322.919 17.089327 323.19077 16.751158 C 323.46673 16.41299 323.78032 16.056785 324.13155 15.673527 C 324.48696 15.290269 324.82146 14.9521 325.13505 14.654511 C 325.44865 14.36594 325.64517 14.212637 325.7246 14.212637 C 325.7539 14.212637 325.8877 14.307324 326.13438 14.496699 C 326.38107 14.681565 326.65703 14.902502 326.9581 15.150492 C 327.25496 15.402992 327.54346 15.650982 327.81524 15.889955 C 328.0912 16.124419 328.25428 16.268704 328.30445 16.32732 C 328.88147 15.966607 329.48357 15.70509 330.11076 15.529241 C 330.11076 15.416518 330.1275 15.145983 330.1693 14.735672 C 330.20693 14.316342 330.2571 13.901522 330.30728 13.49121 C 330.36164 13.07639 330.4327 12.706658 330.52052 12.36849 C 330.60415 12.03032 330.71704 11.86349 330.85084 11.86349 L 334.4133 11.86349 C 334.5178 11.86349 334.62235 12.03032 334.7227 12.36849 C 334.82305 12.706658 334.8983 13.07639 334.95267 13.49121 C 335.00702 13.901522 335.053 14.316342 335.09065 14.735672 C 335.13246 15.145983 335.1659 15.416518 335.191 15.529241 C 335.7931 15.70509 336.36593 15.957589 336.91368 16.28223 C 337.32762 15.957589 337.74575 15.628438 338.16388 15.308304 C 338.5862 14.979153 338.99177 14.645493 339.37644 14.302815 L 339.53533 14.212637 C 339.5897 14.212637 339.77367 14.37045 340.08726 14.677056 C 340.40086 14.988171 340.73118 15.32634 341.0782 15.696071 C 341.42527 16.061294 341.74304 16.41299 342.02737 16.751158 C 342.31587 17.089327 342.45804 17.301247 342.45804 17.386916 C 342.45804 17.445532 342.37023 17.603344 342.19044 17.87388 C 342.00646 18.139905 341.80576 18.423967 341.58833 18.735083 C 341.36673 19.046198 341.1535 19.339278 340.9486 19.62334 C 340.73954 19.902893 340.6099 20.08325 340.55974 20.173428" fill="#095aaa"/>
        </g>
        <g id="Graphic_1030">
          <rect x="307.0797" y="58.740105" width="65.95536" height="1" fill="white"/>
          <rect x="307.0797" y="58.740105" width="65.95536" height="1" stroke="#095aaa" stroke-linecap="round" stroke-linejoin="miter" stroke-width="3"/>
        </g>
      </g>
      <g id="Line_1032">
        <line x1="339.55737" y1="165.45747" x2="339.55737" y2="62.7444" marker-start="url(#StickArrow_Marker_3)" stroke="#095aaa" stroke-linecap="butt" stroke-linejoin="miter" stroke-dasharray="4.0,4.0" stroke-width="1"/>
      </g>
    </g>
  </g>
</svg>
