<svg id="Layer_1" data-name="Layer 1" xmlns="http://www.w3.org/2000/svg" viewBox="0 0 114.5 112.05"><defs><style>.cls-1{fill:#45328d;}.cls-2{fill:none;stroke:#45328d;stroke-miterlimit:10;stroke-width:3px;}</style></defs><path class="cls-1" d="M112.24,37.65a25,25,0,0,0-11.37-7.17c-.19-9.41-9.06-17-19.94-17a22.69,22.69,0,0,0-5.06.57A31,31,0,0,0,65.93,7,34.32,34.32,0,0,0,51.81,4C35.1,4,21.46,15.57,21,30,10.33,32.42,2.75,40.88,2.75,50.54c0,11.73,11,21.27,24.49,21.27h.42a27.62,27.62,0,0,1-.07-3h-.35c-11.59,0-21-8.18-21-18.25,0-8.65,7.08-16.17,16.83-17.88l1.42-.25,0-1.26c0-.09,0-.18,0-.27a.34.34,0,0,1,0-.1C24.43,17.67,36.71,7,51.81,7a28.64,28.64,0,0,1,22,9.68l.75.88,1.19-.35a18.93,18.93,0,0,1,5.17-.73c9.08,0,16.46,6.42,16.46,14.3,0,.13,0,.27,0,.42s0,.2,0,.3l-.07,1.19L98.6,33a21.55,21.55,0,0,1,10.87,6.47,16.59,16.59,0,0,1,4.3,11c0,10.07-9.42,18.25-21,18.25h-.24a25.34,25.34,0,0,1-.13,3h.37c13.5,0,24.49-9.54,24.49-21.27A19.34,19.34,0,0,0,112.24,37.65Z" transform="translate(-2.75 -3.97)"/><path class="cls-1" d="M92.76,66.66" transform="translate(-2.75 -3.97)"/><polyline class="cls-2" points="102.12 107.8 102.12 89.42 75.06 89.22 75.06 37.92"/><polygon class="cls-1" points="107.21 101.83 102.12 106.91 97.03 101.83 97.03 106.14 102.12 111.23 107.21 106.14 107.21 101.83"/><polyline class="cls-2" points="13.35 108.62 13.35 90.23 40.29 90.04 40.29 60.03"/><polygon class="cls-1" points="18.44 102.64 13.35 107.73 8.27 102.64 8.27 106.96 13.35 112.05 18.44 106.96 18.44 102.64"/><line class="cls-2" x1="57.72" y1="50.42" x2="57.72" y2="107.8"/><polygon class="cls-1" points="52.63 101.83 57.72 106.91 62.8 101.83 62.8 106.14 57.72 111.23 52.63 106.14 52.63 101.83"/></svg>