<svg id="Layer_1" data-name="Layer 1" xmlns="http://www.w3.org/2000/svg" viewBox="0 0 114.5 108.05"><defs><style>.cls-1{fill:#45328d;}.cls-2{fill:none;stroke:#45328d;stroke-miterlimit:10;stroke-width:3px;}</style></defs><path class="cls-1" d="M111.77,37.65a25,25,0,0,0-11.37-7.17c-.19-9.41-9.06-17-19.94-17A22.69,22.69,0,0,0,75.4,14,30.92,30.92,0,0,0,65.46,7,34.25,34.25,0,0,0,51.34,4C34.64,4,21,15.57,20.5,30,9.86,32.42,2.28,40.88,2.28,50.54c0,11.73,11,21.27,24.49,21.27h.42a27.62,27.62,0,0,1-.07-3h-.35c-11.58,0-21-8.18-21-18.25,0-8.65,7.08-16.17,16.83-17.88L24,32.41l0-1.26a2.44,2.44,0,0,0,0-.27s0-.07,0-.1C24,17.67,36.24,7,51.34,7a28.62,28.62,0,0,1,22,9.68l.75.88,1.19-.35a18.93,18.93,0,0,1,5.17-.73c9.08,0,16.46,6.42,16.46,14.3,0,.13,0,.27,0,.42s0,.2,0,.3l-.07,1.19,1.32.33A21.55,21.55,0,0,1,109,39.49a16.55,16.55,0,0,1,4.3,11c0,10.07-9.42,18.25-21,18.25h-.24a25.34,25.34,0,0,1-.13,3h.37c13.51,0,24.49-9.54,24.49-21.27A19.34,19.34,0,0,0,111.77,37.65Z" transform="translate(-2.28 -3.97)"/><path class="cls-1" d="M92.29,66.66" transform="translate(-2.28 -3.97)"/><polyline class="cls-2" points="102.12 107.23 102.12 85.42 75.06 85.22 75.06 65.16"/><circle class="cls-2" cx="75.06" cy="57.53" r="7.63"/><circle class="cls-2" cx="57.72" cy="31.94" r="7.63"/><polyline class="cls-2" points="13.35 108.05 13.35 86.23 40.29 86.04 40.29 60.86"/><circle class="cls-2" cx="40.29" cy="53.23" r="7.63"/><line class="cls-2" x1="57.72" y1="39.58" x2="57.72" y2="107.23"/></svg>