<svg id="Layer_1" data-name="Layer 1" xmlns="http://www.w3.org/2000/svg" viewBox="0 0 108.43 108.43"><defs><style>.cls-1,.cls-2,.cls-3{fill:none;stroke:#45328d;stroke-miterlimit:10;stroke-width:3px;}.cls-1{fill-rule:evenodd;}.cls-3{stroke-linecap:round;}.cls-4{fill:#45328d;}</style></defs><path class="cls-1" d="M84,96.84l-2.24-5.63a37.29,37.29,0,0,0,8.17-7.94l5.57,2.4a1.72,1.72,0,0,0,2.27-.9l5.7-13.22a1.72,1.72,0,0,0-.9-2.27L97,66.88a37.19,37.19,0,0,0,.18-11.39l5.62-2.23a1.74,1.74,0,0,0,1-2.25L98.44,37.63a1.73,1.73,0,0,0-2.24-1L90.57,38.9a37.29,37.29,0,0,0-7.94-8.17L85,25.17a1.73,1.73,0,0,0-.9-2.27L70.91,17.19a1.73,1.73,0,0,0-2.27.9l-2.4,5.57a36.88,36.88,0,0,0-11.39-.17l-2.24-5.63a1.72,1.72,0,0,0-2.24-1L37,22.2a1.74,1.74,0,0,0-1,2.25l2.24,5.63A37,37,0,0,0,30.09,38l-5.57-2.4a1.72,1.72,0,0,0-1.32,0,1.75,1.75,0,0,0-.95.92l-5.7,13.22a1.72,1.72,0,0,0,.9,2.27L23,54.4a37.19,37.19,0,0,0-.17,11.39L17.21,68a1.72,1.72,0,0,0-1,2.24l5.31,13.38a1.73,1.73,0,0,0,2.24,1l5.63-2.23a37.47,37.47,0,0,0,7.94,8.16L35,96.12a1.73,1.73,0,0,0,.9,2.27l13.22,5.7a1.72,1.72,0,0,0,2.27-.9l2.4-5.56a37.19,37.19,0,0,0,11.39.17l2.24,5.63a1.72,1.72,0,0,0,2.24,1L83,99.08A1.73,1.73,0,0,0,84,96.84Z" transform="translate(-5.06 -5.27)"/><circle class="cls-2" cx="55.56" cy="55.13" r="18.3"/><line class="cls-3" x1="88.43" y1="88.43" x2="106" y2="106"/><polygon class="cls-4" points="98.18 105.38 105.38 105.38 105.38 98.18 108.43 101.24 108.43 108.43 101.24 108.43 98.18 105.38"/><path class="cls-3" d="M93.49,93.7" transform="translate(-5.06 -5.27)"/><line class="cls-3" x1="1.5" y1="1.5" x2="22.3" y2="22.3"/><line class="cls-3" x1="64.18" y1="46.43" x2="52.8" y2="63.22"/><line class="cls-3" x1="46.34" y1="56.84" x2="52.23" y2="63.29"/></svg>