<svg id="Layer_1" data-name="Layer 1" xmlns="http://www.w3.org/2000/svg" viewBox="0 0 120 120"><defs><style>.cls-1,.cls-3{fill:none;}.cls-2{fill:#fff;}.cls-3{stroke:#fff;stroke-miterlimit:10;stroke-width:3px;}</style></defs><rect class="cls-1" width="120" height="120"/><path class="cls-2" d="M111.77,44.5a25,25,0,0,0-11.37-7.17c-.19-9.41-9.06-17-19.94-17a22.69,22.69,0,0,0-5.06.57,30.92,30.92,0,0,0-9.94-7.08,34.25,34.25,0,0,0-14.12-3c-16.7,0-30.35,11.6-30.84,26C9.86,39.27,2.28,47.73,2.28,57.39c0,11.73,11,21.27,24.49,21.27h.42a27.62,27.62,0,0,1-.07-3h-.35c-11.58,0-21-8.18-21-18.25,0-8.65,7.08-16.17,16.83-17.88L24,39.26,24,38a2.44,2.44,0,0,0,0-.27s0-.07,0-.1c0-13.11,12.28-23.78,27.38-23.78a28.62,28.62,0,0,1,22,9.68l.75.88,1.19-.35a18.93,18.93,0,0,1,5.17-.73c9.08,0,16.46,6.42,16.46,14.3,0,.13,0,.27,0,.42s0,.2,0,.3l-.07,1.19,1.32.33A21.55,21.55,0,0,1,109,46.34a16.55,16.55,0,0,1,4.3,11c0,10.07-9.42,18.25-21,18.25h-.24a25.34,25.34,0,0,1-.13,3h.37c13.51,0,24.49-9.54,24.49-21.27A19.34,19.34,0,0,0,111.77,44.5Z"/><path class="cls-2" d="M92.29,73.51"/><path class="cls-1" d="M44.37,67.27"/><polyline class="cls-3" points="41.38 64.74 41.38 95.13 16.33 95.13 16.33 112.26"/><polygon class="cls-2" points="36.29 70.71 41.38 65.63 46.46 70.71 46.46 66.39 41.38 61.31 36.29 66.39 36.29 70.71"/><line class="cls-3" x1="59.53" y1="91.71" x2="59.53" y2="53.02"/><polygon class="cls-2" points="64.62 58.99 59.53 53.9 54.45 58.99 54.45 54.67 59.53 49.59 64.62 54.67 64.62 58.99"/><polyline class="cls-3" points="77.13 64.74 77.13 95.13 102.17 95.13 102.17 112.26"/><polygon class="cls-2" points="72.04 70.71 77.13 65.63 82.21 70.71 82.21 66.39 77.13 61.31 72.04 66.39 72.04 70.71"/></svg>