<svg id="Layer_1" data-name="Layer 1" xmlns="http://www.w3.org/2000/svg" viewBox="0 0 116.82 117.68"><defs><style>.cls-1,.cls-2,.cls-3,.cls-4,.cls-5{fill:none;stroke:#45328d;stroke-width:3px;}.cls-1,.cls-2,.cls-5{stroke-miterlimit:10;}.cls-1{fill-rule:evenodd;}.cls-3,.cls-4{stroke-linejoin:round;}.cls-4,.cls-5{stroke-linecap:round;}</style></defs><path class="cls-1" d="M64.23,110.06l-2-5.13a33.62,33.62,0,0,0,7.44-7.24l5.08,2.19a1.57,1.57,0,0,0,2.07-.82L82,87a1.58,1.58,0,0,0-.82-2.07l-5.08-2.19a33.78,33.78,0,0,0,.16-10.38l5.13-2a1.58,1.58,0,0,0,.88-2l-4.84-12.2a1.59,1.59,0,0,0-2-.88l-5.13,2A33.88,33.88,0,0,0,63,49.79l2.19-5.07a1.57,1.57,0,0,0-.82-2.07l-12.05-5.2a1.57,1.57,0,0,0-2.07.82l-2.19,5.07a34.09,34.09,0,0,0-10.38-.15l-2-5.13a1.58,1.58,0,0,0-2-.89L21.4,42a1.58,1.58,0,0,0-.89,2l2,5.14a33.83,33.83,0,0,0-7.45,7.23L10,54.24A1.59,1.59,0,0,0,8,55.07L2.76,67.12a1.58,1.58,0,0,0,.82,2.07l5.08,2.19A33.77,33.77,0,0,0,8.5,81.76l-5.13,2a1.56,1.56,0,0,0-.88,2L7.33,98a1.57,1.57,0,0,0,2,.88l5.14-2a33.57,33.57,0,0,0,7.23,7.44l-2.19,5.08a1.59,1.59,0,0,0,.83,2.07l12.05,5.2a1.58,1.58,0,0,0,2.07-.83l2.19-5.07a33.77,33.77,0,0,0,10.38.16l2,5.13a1.57,1.57,0,0,0,2,.88l12.2-4.84A1.57,1.57,0,0,0,64.23,110.06Z" transform="translate(-0.87 -0.89)"/><circle class="cls-2" cx="41.5" cy="76.18" r="16.69"/><path class="cls-3" d="M46.19,28.35A36.63,36.63,0,0,1,54.56,14c13.67-14.56,36.33-15.5,50.6-2.09s14.76,36.07,1.09,50.63a36.6,36.6,0,0,1-13.84,9.25" transform="translate(-0.87 -0.89)"/><ellipse class="cls-4" cx="80.5" cy="36.68" rx="4.3" ry="4.21" transform="translate(-2.21 69.37) rotate(-46.8)"/><line class="cls-4" x1="93.19" y1="42.55" x2="84.64" y2="38.64"/><line class="cls-3" x1="94.29" y1="64.89" x2="91.66" y2="58.7"/><line class="cls-3" x1="99.8" y1="11.19" x2="95.37" y2="16.43"/><line class="cls-3" x1="70.01" y1="6.35" x2="72.67" y2="12.59"/><line class="cls-3" x1="112.12" y1="36.18" x2="105.33" y2="36.18"/><line class="cls-3" x1="55.67" y1="28.21" x2="49.18" y2="26.42"/><line class="cls-5" x1="49" y1="69.75" x2="39.43" y2="83.87"/><line class="cls-5" x1="34" y1="78.51" x2="38.95" y2="83.92"/></svg>