<svg id="Layer_1" data-name="Layer 1" xmlns="http://www.w3.org/2000/svg" viewBox="0 0 116.31 117.52"><defs><style>.cls-1{fill:none;stroke:#45328d;stroke-linecap:round;stroke-miterlimit:10;stroke-width:3px;}</style></defs><path class="cls-1" d="M47.57,31H5.5A1.34,1.34,0,0,0,4.16,32.3V72.48A1.34,1.34,0,0,0,5.5,73.81H20.65c-1.11-3.9,1-8.84,6.21-8.84s7.31,4.94,6.2,8.84H47.57" transform="translate(-2.66 -0.64)"/><path class="cls-1" d="M47.57,116.66H5.5a1.34,1.34,0,0,1-1.34-1.34V73.06" transform="translate(-2.66 -0.64)"/><path class="cls-1" d="M48.9,116.66V100.31a6.47,6.47,0,0,0,3.83,1.14c8.67,0,8.68-13.39,0-13.39a6.4,6.4,0,0,0-3.83,1.15V73.81" transform="translate(-2.66 -0.64)"/><path class="cls-1" d="M116.54,15.09,76.49,2.21a1.33,1.33,0,0,0-1.68.86l-4.7,14.62a6.58,6.58,0,0,1,3.62.19C82,20.53,77.85,33.36,69.6,30.71a6.7,6.7,0,0,1-3-2l-4,12.57A1.34,1.34,0,0,0,63.37,43l14.3,4.6c-.14-4.21,3.42-8.7,8.62-7S91.78,48,89.2,51.3l14.23,4.58A1.33,1.33,0,0,0,105.1,55l12.3-38.26A1.32,1.32,0,0,0,116.54,15.09Z" transform="translate(-2.66 -0.64)"/><path class="cls-1" d="M93,73.79H76.54A6.5,6.5,0,0,0,77.69,70c0-8.67-13.47-8.68-13.47,0a6.44,6.44,0,0,0,1.16,3.84H49.9" transform="translate(-2.66 -0.64)"/><path class="cls-1" d="M48.9,73.81V57.46a6.47,6.47,0,0,0,3.83,1.15c8.67,0,8.68-13.4,0-13.4a6.47,6.47,0,0,0-3.83,1.15V31" transform="translate(-2.66 -0.64)"/><path class="cls-1" d="M47.57,116.66H91.81a1.34,1.34,0,0,0,1.33-1.34l.28-41.53" transform="translate(-2.66 -0.64)"/></svg>