<svg id="Layer_1" data-name="Layer 1" xmlns="http://www.w3.org/2000/svg" viewBox="0 0 120 120"><defs><style>.cls-1,.cls-3,.cls-4{fill:none;}.cls-2{fill:#fff;}.cls-3,.cls-4{stroke:#fff;stroke-width:3px;}.cls-3{stroke-linecap:round;stroke-linejoin:round;}.cls-4{stroke-miterlimit:10;}</style></defs><rect class="cls-1" width="120" height="120"/><path class="cls-2" d="M52.13,71.48h2a.85.85,0,0,1,.51.14.64.64,0,0,1,.27.39L57,79.53c0,.19.09.39.13.61s.09.45.14.69a7,7,0,0,1,.15-.69,4.87,4.87,0,0,1,.18-.61L60.09,72a.79.79,0,0,1,.27-.37.77.77,0,0,1,.5-.16h.69a.87.87,0,0,1,.5.14.93.93,0,0,1,.28.39l2.47,7.52a11.72,11.72,0,0,1,.33,1.25c.07-.46.16-.87.25-1.25L67.52,72a.66.66,0,0,1,.27-.38.84.84,0,0,1,.5-.15h1.84L66.22,84.06H64.11l-2.75-8.6a3.58,3.58,0,0,1-.11-.35c0-.13-.07-.27-.11-.4,0,.13-.06.27-.1.4s-.07.24-.11.35l-2.77,8.6H56Z" transform="translate(0)"/><path class="cls-2" d="M81.64,84.06H79.83a.78.78,0,0,1-.5-.15,1,1,0,0,1-.29-.38L78.1,81H72.89L72,83.53a.93.93,0,0,1-.27.37.75.75,0,0,1-.5.16H69.36l5-12.58h2.38Zm-8.15-4.75h4L76,75.12c-.07-.18-.15-.4-.23-.65s-.17-.53-.25-.83c-.08.3-.16.57-.24.83s-.15.48-.23.67Z" transform="translate(0)"/><path class="cls-3" d="M68.69,41.59A8.46,8.46,0,0,1,60.2,47.8a8.44,8.44,0,0,1-8.49-6.21H37V88.17H84.4V41.59Z" transform="translate(0)"/><path class="cls-3" d="M8,64.88a54.82,54.82,0,0,1,36.1-49.25,49.91,49.91,0,0,1,22.54-2.55" transform="translate(0)"/><path class="cls-3" d="M9.56,79A51.11,51.11,0,0,1,8.39,72.7" transform="translate(0)"/><path class="cls-3" d="M14.65,91.66a53.86,53.86,0,0,1-2.71-5.56" transform="translate(0)"/><path class="cls-3" d="M23.16,102.88a48.34,48.34,0,0,1-3.77-4.19" transform="translate(0)"/><path class="cls-3" d="M34.93,111.26a43.25,43.25,0,0,1-5.4-3.12" transform="translate(0)"/><path class="cls-3" d="M48.45,116.66a50.31,50.31,0,0,1-6-1.86" transform="translate(0)"/><path class="cls-3" d="M113,63.52c1.42,30.39-26,57.78-57.22,54.38" transform="translate(0)"/><path class="cls-3" d="M111,50.44c.47,1.65.85,3.32,1.16,5" transform="translate(0)"/><path class="cls-3" d="M105.49,37.8a50.12,50.12,0,0,1,2.8,5.27" transform="translate(0)"/><path class="cls-3" d="M97,27.24c1.26,1.21,2.47,2.47,3.61,3.8" transform="translate(0)"/><path class="cls-3" d="M85.94,19.16a54.35,54.35,0,0,1,4.67,2.9" transform="translate(0)"/><path class="cls-3" d="M73.67,14.33a50.44,50.44,0,0,1,5.08,1.56" transform="translate(0)"/><line class="cls-4" x1="104.08" y1="64.98" x2="88.97" y2="64.98"/><polygon class="cls-2" points="98.11 59.89 103.2 64.98 98.11 70.06 102.43 70.06 107.51 64.98 102.43 59.89 98.11 59.89"/><line class="cls-4" x1="16.11" y1="64.98" x2="31.22" y2="64.98"/><polygon class="cls-2" points="22.08 70.06 16.99 64.98 22.08 59.89 17.76 59.89 12.68 64.98 17.76 70.06 22.08 70.06"/><line class="cls-4" x1="60.35" y1="21.69" x2="60.35" y2="36.81"/><polygon class="cls-2" points="55.26 27.67 60.35 22.58 65.44 27.67 65.44 23.35 60.35 18.27 55.26 23.35 55.26 27.67"/><line class="cls-4" x1="60.35" y1="108.26" x2="60.35" y2="93.14"/><polygon class="cls-2" points="65.44 102.28 60.35 107.37 55.26 102.28 55.26 106.6 60.35 111.69 65.44 106.6 65.44 102.28"/></svg>