<svg id="Layer_1" data-name="Layer 1" xmlns="http://www.w3.org/2000/svg" viewBox="0 0 114.44 109.84"><defs><style>.cls-1{fill:none;stroke:#45328d;stroke-miterlimit:10;stroke-width:3px;}</style></defs><path class="cls-1" d="M66.42,47a32.78,32.78,0,0,0-7.18-.81c-18.76,0-34.08,11.53-34.63,25.87C12.67,74.49,4.17,82.9,4.17,92.51c0,11.66,12.33,21.15,27.49,21.15h.47" transform="translate(-2.67 -5.33)"/><line class="cls-1" x1="28.99" y1="108.34" x2="61.5" y2="108.34"/><rect class="cls-1" x="72.92" y="6.7" width="38.71" height="95.57"/><line class="cls-1" x1="68.93" y1="108.34" x2="114.44" y2="108.34"/><line class="cls-1" x1="85.78" y1="6.7" x2="85.78" y2="101.68"/><line class="cls-1" x1="74.33" y1="45.23" x2="113.04" y2="45.55"/><line class="cls-1" x1="72.13" y1="64.51" x2="110.84" y2="64.83"/><line class="cls-1" x1="74.03" y1="82.55" x2="112.73" y2="82.86"/><line class="cls-1" x1="72.13" y1="25.96" x2="110.84" y2="26.27"/><line class="cls-1" x1="76.98" y1="1.5" x2="107.08" y2="1.5"/><line class="cls-1" x1="98.07" y1="7.75" x2="98.07" y2="102.69"/><path class="cls-1" d="M64.17,54.45C47.54,51.72,33.54,60.2,33.08,75.28" transform="translate(-2.67 -5.33)"/></svg>