<svg id="Layer_1" data-name="Layer 1" xmlns="http://www.w3.org/2000/svg" viewBox="0 0 114.45 111.19"><defs><style>.cls-1{fill:none;stroke:#45328d;stroke-linecap:round;stroke-linejoin:round;stroke-width:3px;}</style></defs><rect class="cls-1" x="32.95" y="29.69" width="80" height="80"/><path class="cls-1" d="M68.41,60.66h8.08A12.84,12.84,0,0,1,89.34,73.51V89a4.42,4.42,0,0,1-4.42,4.42H61A4.42,4.42,0,0,1,56.56,89V72.51A11.85,11.85,0,0,1,68.41,60.66Z"/><line class="cls-1" x1="72.95" y1="81.5" x2="72.95" y2="86.84"/><circle class="cls-1" cx="72.95" cy="74.42" r="2.63"/><path class="cls-1" d="M61.45,70.68v-9.8A11.5,11.5,0,0,1,72.92,49.41h3.3A12,12,0,0,1,88.14,61.34l.08,8.85" transform="translate(-2.42 -5.81)"/><path class="cls-1" d="M95.88,29V21.43H19.05v80h9.89" transform="translate(-2.42 -5.81)"/><path class="cls-1" d="M80.74,14.85V7.31H3.92v80h9.89" transform="translate(-2.42 -5.81)"/></svg>