<svg id="Layer_1" data-name="Layer 1" xmlns="http://www.w3.org/2000/svg" viewBox="0 0 118.52 117.97"><defs><style>.cls-1{fill:none;stroke:#45328d;stroke-linecap:round;stroke-linejoin:round;stroke-width:3px;}.cls-2{fill:#45328d;}</style></defs><line class="cls-1" x1="64.91" y1="81.51" x2="53.68" y2="81.51"/><path class="cls-1" d="M36.7,63.94V43.3a9.28,9.28,0,0,1,9.14-9.36H74.56A9.28,9.28,0,0,1,83.7,43.3V64" transform="translate(-0.85 -0.58)"/><rect class="cls-1" x="1.5" y="68.32" width="47" height="48.15" rx="9.34"/><path class="cls-2" d="M25.85,110.43a2.62,2.62,0,0,1-1.28-.35l-4-2.46c-.61-.34-.31-.46-.13-.53a7.08,7.08,0,0,0,1.83-.84.28.28,0,0,1,.3,0l3.11,1.9a.33.33,0,0,0,.36,0L38.13,101a.35.35,0,0,0,.19-.34V86.28a.35.35,0,0,0-.19-.34L26,78.78a.33.33,0,0,0-.36,0L13.5,85.94a.39.39,0,0,0-.18.34v14.37a.39.39,0,0,0,.18.34l3.32,2c1.79.94,2.92-.16,2.92-1.25V87.53a.37.37,0,0,1,.36-.37h1.55a.38.38,0,0,1,.37.37V101.7c0,2.47-1.31,3.9-3.59,3.9a5.12,5.12,0,0,1-2.8-.78L12.44,103a2.65,2.65,0,0,1-1.28-2.27V86.31A2.65,2.65,0,0,1,12.44,84l12.13-7.2a2.7,2.7,0,0,1,2.56,0L39.26,84a2.65,2.65,0,0,1,1.28,2.27v14.37A2.65,2.65,0,0,1,39.26,103l-12.13,7.2a3.21,3.21,0,0,1-1.28.28Zm3.74-9.88c-5.32,0-6.42-2.49-6.42-4.61a.37.37,0,0,1,.37-.37h1.58a.31.31,0,0,1,.33.31c.25,1.65.95,2.46,4.17,2.46,2.55,0,3.65-.59,3.65-2,0-.81-.31-1.41-4.29-1.81-3.31-.34-5.38-1.09-5.38-3.8,0-2.52,2.07-4,5.53-4,3.89,0,5.81,1.37,6.05,4.36a.51.51,0,0,1-.09.28.38.38,0,0,1-.24.13H33.27a.37.37,0,0,1-.34-.28c-.36-1.72-1.3-2.28-3.8-2.28-2.8,0-3.13,1-3.13,1.75s.4,1.18,4.17,1.68,5.5,1.21,5.5,3.89-2.22,4.3-6.08,4.3Z" transform="translate(-0.85 -0.58)"/><rect class="cls-1" x="70.02" y="68.32" width="47" height="48.15" rx="9.34"/><path id="path3" class="cls-2" d="M76,56.24l-1.35-.85a3.74,3.74,0,0,0,0-.39l1.15-1.11a.43.43,0,0,0,.13-.43.42.42,0,0,0-.29-.35l-1.48-.57c0-.14-.07-.26-.11-.4l.92-1.31a.47.47,0,0,0,0-.46.44.44,0,0,0-.36-.27L73,49.84c-.07-.11-.11-.23-.18-.37L73.48,48a.48.48,0,0,0,0-.46.48.48,0,0,0-.41-.21l-1.57.05a2.65,2.65,0,0,0-.25-.3l.36-1.57a.42.42,0,0,0-.11-.43A.43.43,0,0,0,71,45l-1.52.37c-.09-.09-.21-.16-.3-.25l.05-1.61a.5.5,0,0,0-.2-.42.45.45,0,0,0-.45,0l-1.44.66a2,2,0,0,0-.36-.18l-.25-1.59a.49.49,0,0,0-.27-.37.46.46,0,0,0-.45,0l-1.28.94-.38-.11-.56-1.52a.42.42,0,0,0-.34-.3.5.5,0,0,0-.43.14l-1,1.17a1.83,1.83,0,0,1-.4,0l-.83-1.38a.49.49,0,0,0-.39-.23.46.46,0,0,0-.38.23L59,41.85a1.9,1.9,0,0,1-.4,0l-1.08-1.17a.42.42,0,0,0-.43-.14.42.42,0,0,0-.34.3l-.56,1.52-.38.11-1.28-.94a.45.45,0,0,0-.72.32l-.25,1.59a4,4,0,0,1-.36.18L51.75,43a.46.46,0,0,0-.45,0,.5.5,0,0,0-.2.42l0,1.61a2.65,2.65,0,0,0-.3.25L49.33,45a.43.43,0,0,0-.43.12.42.42,0,0,0-.11.43l.36,1.57c-.09.09-.16.21-.25.3l-1.57-.05a.48.48,0,0,0-.41.21.47.47,0,0,0,0,.46l.65,1.47a1.59,1.59,0,0,0-.18.37l-1.55.26a.48.48,0,0,0-.36.27.47.47,0,0,0,0,.46l.93,1.31a3,3,0,0,0-.12.4l-1.48.57a.42.42,0,0,0-.29.35.51.51,0,0,0,.13.43L45.82,55a3,3,0,0,1,0,.41l-1.35.85a.47.47,0,0,0-.23.39.46.46,0,0,0,.23.4l1.35.85a2.71,2.71,0,0,1,0,.41L44.68,59.4a.47.47,0,0,0,.15.78l1.49.57c0,.14.06.26.11.4l-.92,1.31a.47.47,0,0,0,0,.46.44.44,0,0,0,.36.27l1.55.26c.07.11.11.23.18.37l-.65,1.47a.48.48,0,0,0,0,.46.48.48,0,0,0,.41.21l1.57,0a2.65,2.65,0,0,0,.25.3l-.36,1.57a.45.45,0,0,0,.11.43.43.43,0,0,0,.43.12L50.88,68c.09.09.2.16.29.25l-.05,1.61a.49.49,0,0,0,.21.42.45.45,0,0,0,.45,0l1.43-.66a1.73,1.73,0,0,0,.36.18l.25,1.59a.52.52,0,0,0,.27.37.45.45,0,0,0,.45-.05l1.28-.94a3.18,3.18,0,0,0,.38.11l.57,1.52a.39.39,0,0,0,.33.3.49.49,0,0,0,.43-.14l1.08-1.17c.13,0,.27,0,.38,0l.83,1.38a.46.46,0,0,0,.38.23.44.44,0,0,0,.39-.23l.83-1.38c.13,0,.27,0,.38,0l1.08,1.17a.45.45,0,0,0,.76-.16l.56-1.52.39-.11,1.28.94a.45.45,0,0,0,.45.05.49.49,0,0,0,.27-.37l.24-1.59a1.52,1.52,0,0,1,.36-.18l1.44.66a.46.46,0,0,0,.45,0,.5.5,0,0,0,.2-.42l0-1.61a3.74,3.74,0,0,0,.29-.25l1.53.37a.42.42,0,0,0,.42-.12.43.43,0,0,0,.12-.43l-.36-1.57c.09-.09.15-.21.24-.3l1.58,0a.48.48,0,0,0,.4-.21.5.5,0,0,0,.05-.46l-.66-1.47a1.59,1.59,0,0,0,.18-.37l1.56-.26a.46.46,0,0,0,.35-.27.47.47,0,0,0,0-.46L74,61.15l.11-.4,1.48-.57a.45.45,0,0,0,.3-.35.52.52,0,0,0-.14-.43l-1.14-1.11c0-.14,0-.28,0-.39L76,57.05a.48.48,0,0,0,.22-.39.52.52,0,0,0-.24-.42Zm-9,11.4a1,1,0,0,1-.72-1.15.93.93,0,0,1,1.12-.74,1,1,0,0,1,.72,1.15A1,1,0,0,1,67,67.64Zm-.47-3.16a.9.9,0,0,0-1,.69L65,67.45a11.27,11.27,0,0,1-4.83,1.06,11.51,11.51,0,0,1-4.92-1.1l-.47-2.28a.87.87,0,0,0-1-.69l-2,.43a11.89,11.89,0,0,1-1-1.22h9.55c.11,0,.18,0,.18-.11V60.09c0-.1-.07-.12-.18-.12H57.55V57.78h3a1.94,1.94,0,0,1,1.87,1.66c.11.49.38,2.05.56,2.56s.92,1.68,1.69,1.68h4.76a.45.45,0,0,0,.18,0,11.52,11.52,0,0,1-1.08,1.29l-2-.46ZM53.33,67.59a1,1,0,0,1-1.13-.74,1,1,0,0,1,.72-1.15,1,1,0,0,1,.41,1.89ZM49.71,52.54a1,1,0,0,1-.47,1.29A1,1,0,0,1,48,53.32,1,1,0,0,1,48.45,52,1,1,0,0,1,49.71,52.54Zm-1.12,2.71,2-.92a.92.92,0,0,0,.45-1.17l-.43-1h1.67v7.64H49a12.16,12.16,0,0,1-.45-3.29A10.91,10.91,0,0,1,48.59,55.25Zm9-.76V52.24h3.93c.21,0,1.44.23,1.44,1.19,0,.79-.94,1.06-1.73,1.06Zm14.34,2c0,.3,0,.6,0,.9H70.68c-.12,0-.16.09-.16.2v.56c0,1.33-.74,1.61-1.37,1.68s-1.28-.26-1.37-.65a4.23,4.23,0,0,0-1.91-3.27c1.16-.76,2.4-1.88,2.4-3.4a3.87,3.87,0,0,0-1.84-3.16,5.07,5.07,0,0,0-2.52-.85H51.51a11.53,11.53,0,0,1,6.54-3.77l1.46,1.56a.83.83,0,0,0,1.21,0l1.64-1.61a11.72,11.72,0,0,1,8,5.83l-1.12,2.57a.89.89,0,0,0,.45,1.18l2.15,1c0,.44,0,.83,0,1.22ZM59.51,43.42a.93.93,0,0,1,1.34,0,1,1,0,0,1,0,1.38.94.94,0,0,1-1.35,0A1,1,0,0,1,59.51,43.42Zm11.1,9.16a1,1,0,0,1,1.26-.5,1,1,0,0,1,.47,1.28,1,1,0,0,1-1.26.51A1,1,0,0,1,70.61,52.58Z" transform="translate(-0.85 -0.58)"/><path class="cls-2" d="M95.46,81a11.74,11.74,0,0,0-4.35,4.58c-1.67,3.74,3.43,7.81,3.64,8a.27.27,0,0,0,.17.06.34.34,0,0,0,.19-.07.29.29,0,0,0,.06-.36s-1.84-3.67-1.78-6.28c0-.91,1.27-2,2.59-3a15.14,15.14,0,0,0,3.37-3.46,5.68,5.68,0,0,0-.22-5.82.28.28,0,0,0-.34-.1.3.3,0,0,0-.16.33A6.28,6.28,0,0,1,98,78.67,8.28,8.28,0,0,1,95.46,81Z" transform="translate(-0.85 -0.58)"/><path class="cls-2" d="M102.14,82.25a.29.29,0,0,0-.27-.5c-.27.11-6.6,2.61-6.6,5.63a5.78,5.78,0,0,0,1.51,4,3.35,3.35,0,0,1,.53.82,4.17,4.17,0,0,1-.47,2.29.29.29,0,0,0,.07.35.29.29,0,0,0,.18.07.25.25,0,0,0,.16-.06c.11-.07,2.66-1.92,2.2-4.15a5.59,5.59,0,0,0-.93-2c-.56-.84-1-1.45-.35-2.58C98.88,84.78,102.11,82.28,102.14,82.25Z" transform="translate(-0.85 -0.58)"/><path class="cls-2" d="M85.67,94.93a1.06,1.06,0,0,0,.14,1c.69,1,3.12,1.51,6.85,1.51h0l1.58,0c6-.22,8.17-2.12,8.26-2.2a.29.29,0,0,0,.07-.35.29.29,0,0,0-.32-.15,39.89,39.89,0,0,1-8.74.8,18.58,18.58,0,0,1-5-.39A6.88,6.88,0,0,1,91.42,94a.3.3,0,0,0,.23-.31.29.29,0,0,0-.28-.26C90.5,93.45,86.12,93.52,85.67,94.93Z" transform="translate(-0.85 -0.58)"/><path class="cls-2" d="M105.61,93a6,6,0,0,0-2.45.65A.31.31,0,0,0,103,94a.29.29,0,0,0,.28.22s2.62,0,2.85,1.54c.21,1.31-2.45,3.43-3.5,4.14a.29.29,0,0,0-.1.35.28.28,0,0,0,.26.18h.06c.24,0,6.06-1.37,5.44-4.83C107.94,93.42,106.63,93,105.61,93Z" transform="translate(-0.85 -0.58)"/><path class="cls-2" d="M101.62,99.43a.28.28,0,0,0-.12-.28l-1.39-1a.28.28,0,0,0-.23-.05,25.74,25.74,0,0,1-3.59.64,23.48,23.48,0,0,1-2.72.15,9.87,9.87,0,0,1-3.7-.44.13.13,0,0,1,0-.09c0-.11.24-.23.36-.28a.29.29,0,0,0,.17-.36.27.27,0,0,0-.33-.19c-1.4.34-2.08.83-2,1.44.08,1.07,2.52,1.63,4.58,1.77.3,0,.62,0,1,0h0a39.15,39.15,0,0,0,7.86-1.11A.28.28,0,0,0,101.62,99.43Z" transform="translate(-0.85 -0.58)"/><path class="cls-2" d="M91.11,101.75a.28.28,0,0,0,.11-.33.28.28,0,0,0-.27-.2c-.19,0-1.84.08-2,1.15a1.08,1.08,0,0,0,.27.87c.59.72,2.18,1.15,4.87,1.31l1,0a14.29,14.29,0,0,0,5.83-1.15.3.3,0,0,0,.16-.24.29.29,0,0,0-.14-.26l-1.76-1.11a.28.28,0,0,0-.2,0s-1.13.24-2.82.47a8,8,0,0,1-1.19.07,14.14,14.14,0,0,1-3.92-.47A.1.1,0,0,1,91.11,101.75Z" transform="translate(-0.85 -0.58)"/><path class="cls-2" d="M93.51,107.89c7.84,0,12-1.43,12.85-2.33a1,1,0,0,0,.29-.82,1.29,1.29,0,0,0-.53-.81.28.28,0,0,0-.37,0,.29.29,0,0,0,0,.38c0,.06.07.17-.07.32-.32.31-3.59,1.25-9,1.53-.74,0-1.53.06-2.32.06-4.87,0-8.43-.68-8.9-1.08a6.75,6.75,0,0,1,2.78-.93.29.29,0,0,0,.23-.33.28.28,0,0,0-.32-.24l-.31,0c-2.21.14-4.77.45-4.9,1.62a1.22,1.22,0,0,0,.3,1c.6.69,2.32,1.6,10.3,1.6Z" transform="translate(-0.85 -0.58)"/><path class="cls-2" d="M107.9,105.81a.26.26,0,0,0-.32.07s-1.19,1.27-4.74,2a44.54,44.54,0,0,1-7.56.42c-3.67,0-7.16-.15-7.2-.15a.29.29,0,0,0-.08.57,40.85,40.85,0,0,0,8.71.89,39.05,39.05,0,0,0,6.94-.6c4.11-.74,4.4-2.83,4.41-2.91A.28.28,0,0,0,107.9,105.81Z" transform="translate(-0.85 -0.58)"/><path class="cls-1" d="M70.87,27.54V11.44A9.28,9.28,0,0,1,80,2.08h28.72a9.28,9.28,0,0,1,9.14,9.36V40.86a9.28,9.28,0,0,1-9.14,9.37h-20" transform="translate(-0.85 -0.58)"/><path class="cls-1" d="M49.35,29.15V11.44a9.28,9.28,0,0,0-9.14-9.36H11.49a9.28,9.28,0,0,0-9.14,9.36V40.86a9.28,9.28,0,0,0,9.14,9.37H31.3" transform="translate(-0.85 -0.58)"/><path class="cls-1" d="M-1.13,3.93" transform="translate(-0.85 -0.58)"/><path class="cls-1" d="M59.7,79.82" transform="translate(-0.85 -0.58)"/><path class="cls-2" d="M31.24,15.55A5.5,5.5,0,0,0,25.81,10H24.67a5.5,5.5,0,0,0-5.43,5.56h0a.82.82,0,0,0,.81.83h5.14v1.34H17.27a5.49,5.49,0,0,0-5.42,5.56v1.18A5.5,5.5,0,0,0,17.28,30h1a.82.82,0,0,0,.81-.83v-3.8a.83.83,0,0,1,.82-.83h10.5a.82.82,0,0,0,.81-.83Zm-9.6-.6a.67.67,0,0,1-.68-.68.68.68,0,1,1,1.35,0A.67.67,0,0,1,21.64,15Z" transform="translate(-0.85 -0.58)"/><path class="cls-2" d="M34.42,20.28h-1a.82.82,0,0,0-.81.83v3.8a.82.82,0,0,1-.81.83H21.26a.82.82,0,0,0-.81.83v8.18a5.5,5.5,0,0,0,5.43,5.56H27a5.5,5.5,0,0,0,5.43-5.56h0a.82.82,0,0,0-.81-.83H26.5V32.58h7.92A5.5,5.5,0,0,0,39.85,27V25.84A5.5,5.5,0,0,0,34.42,20.28ZM30.06,35.34a.69.69,0,1,1-.67.69A.68.68,0,0,1,30.06,35.34Z" transform="translate(-0.85 -0.58)"/><path class="cls-2" d="M108.13,28.25c.07-.15.07-.29.14-.43C110,21.07,106,13.17,99.08,9a16.8,16.8,0,0,1,3.16,13.57,7.2,7.2,0,0,1-.35,1.15,6.65,6.65,0,0,1-.56-.36A85.73,85.73,0,0,1,87.24,11.52a86.13,86.13,0,0,0,8.55,11A92.89,92.89,0,0,1,83.59,13a16.53,16.53,0,0,0,1.69,2.37c3.22,4.24,7.43,9.41,12.47,13.36-3.57,2.23-8.55,2.37-13.6,0a19.87,19.87,0,0,1-3.5-2.15A20.88,20.88,0,0,0,90,34.71c4.7,2.08,9.47,1.94,12.9,0h.07a1.33,1.33,0,0,0,.42-.29c1.68-.86,5-1.79,6.8,1.8.49,1,1.4-3.66-2-8Z" transform="translate(-0.85 -0.58)"/><line class="cls-1" x1="70.02" y1="28.57" x2="70.02" y2="10.86"/></svg>