<svg id="Layer_1" data-name="Layer 1" xmlns="http://www.w3.org/2000/svg" viewBox="0 0 118.52 117.97"><defs><style>.cls-1{fill:none;stroke:#45328d;stroke-linecap:round;stroke-linejoin:round;stroke-width:3px;}.cls-2,.cls-4{fill:#45328d;}.cls-3{fill:#fff;}.cls-4{stroke:#fff;stroke-miterlimit:10;stroke-width:0.25px;}</style></defs><line class="cls-1" x1="64.91" y1="81.51" x2="53.68" y2="81.51"/><path class="cls-1" d="M36.7,63.94V39.06c0-5.15-.08-5.12,4.95-5.12h37c5,0,5,.12,5,5.27V64" transform="translate(-0.85 -0.58)"/><path class="cls-1" d="M44,117H7.61c-5.14,0-5.26-.09-5.26-5.22V74.37c0-5.14,0-5.17,5.18-5.17L44,68.89c5.13,0,5.35.13,5.35,5.26v37.59C49.35,116.88,49.13,117,44,117Z" transform="translate(-0.85 -0.58)"/><path class="cls-2" d="M25.85,110.43a2.62,2.62,0,0,1-1.28-.35l-4-2.46c-.61-.34-.31-.46-.13-.53a7.08,7.08,0,0,0,1.83-.84.28.28,0,0,1,.3,0l3.11,1.9a.33.33,0,0,0,.36,0L38.13,101a.35.35,0,0,0,.19-.34V86.28a.35.35,0,0,0-.19-.34L26,78.78a.33.33,0,0,0-.36,0L13.5,85.94a.39.39,0,0,0-.18.34v14.37a.39.39,0,0,0,.18.34l3.32,2c1.79.94,2.92-.16,2.92-1.25V87.53a.37.37,0,0,1,.36-.37h1.55a.38.38,0,0,1,.37.37V101.7c0,2.47-1.31,3.9-3.59,3.9a5.12,5.12,0,0,1-2.8-.78L12.44,103a2.65,2.65,0,0,1-1.28-2.27V86.31A2.65,2.65,0,0,1,12.44,84l12.13-7.2a2.7,2.7,0,0,1,2.56,0L39.26,84a2.65,2.65,0,0,1,1.28,2.27v14.37A2.65,2.65,0,0,1,39.26,103l-12.13,7.2a3.21,3.21,0,0,1-1.28.28Zm3.74-9.88c-5.32,0-6.42-2.49-6.42-4.61a.37.37,0,0,1,.37-.37h1.58a.31.31,0,0,1,.33.31c.25,1.65.95,2.46,4.17,2.46,2.55,0,3.65-.59,3.65-2,0-.81-.31-1.41-4.29-1.81-3.31-.34-5.38-1.09-5.38-3.8,0-2.52,2.07-4,5.53-4,3.89,0,5.81,1.37,6.05,4.36a.51.51,0,0,1-.09.28.38.38,0,0,1-.24.13H33.27a.37.37,0,0,1-.34-.28c-.36-1.72-1.3-2.28-3.8-2.28-2.8,0-3.13,1-3.13,1.75s.4,1.18,4.17,1.68,5.5,1.21,5.5,3.89-2.22,4.3-6.08,4.3Z" transform="translate(-0.85 -0.58)"/><path class="cls-1" d="M112.66,117H76.07c-5.14,0-5.2-.1-5.2-5.23L71,74c0-5.13.07-5.15,5.2-5.15h36.63c5.14,0,5,.06,5,5.19v37.81C117.87,117,117.79,117,112.66,117Z" transform="translate(-0.85 -0.58)"/><path id="path3" class="cls-2" d="M76.13,54.94l-1.34-.86c0-.13,0-.27-.05-.39l1.15-1.1a.46.46,0,0,0,.13-.44.4.4,0,0,0-.29-.34l-1.48-.58c0-.14-.07-.25-.12-.39l.93-1.31a.47.47,0,0,0,0-.46.43.43,0,0,0-.36-.28l-1.55-.25c-.07-.12-.11-.23-.18-.37l.65-1.47a.47.47,0,0,0-.45-.67l-1.57,0-.25-.3.36-1.56a.45.45,0,0,0-.11-.44.42.42,0,0,0-.43-.11L69.69,44c-.09-.09-.21-.16-.3-.25l0-1.61a.5.5,0,0,0-.2-.41.43.43,0,0,0-.45,0l-1.44.67a2,2,0,0,0-.36-.19l-.25-1.59a.48.48,0,0,0-.27-.36.45.45,0,0,0-.45,0l-1.28.95-.38-.12-.56-1.52a.43.43,0,0,0-.34-.3.53.53,0,0,0-.43.14l-1,1.17a2.71,2.71,0,0,1-.4,0l-.84-1.38a.45.45,0,0,0-.38-.23.43.43,0,0,0-.38.23l-.83,1.38a2.85,2.85,0,0,1-.41,0l-1.07-1.17a.47.47,0,0,0-.43-.14.43.43,0,0,0-.34.3l-.56,1.52-.38.12-1.28-.95a.45.45,0,0,0-.45,0,.44.44,0,0,0-.27.36l-.25,1.59a3.94,3.94,0,0,1-.36.19l-1.44-.67a.44.44,0,0,0-.45,0,.5.5,0,0,0-.2.41l0,1.61A2.65,2.65,0,0,0,51,44l-1.52-.36a.42.42,0,0,0-.43.11.45.45,0,0,0-.11.44l.36,1.56c-.09.1-.16.21-.25.3l-1.57,0a.5.5,0,0,0-.41.2.49.49,0,0,0,0,.47l.65,1.47a1.41,1.41,0,0,0-.18.37L46,48.79a.49.49,0,0,0-.36.28.47.47,0,0,0,0,.46l.92,1.31a2.85,2.85,0,0,0-.11.39L45,51.81a.4.4,0,0,0-.29.34.51.51,0,0,0,.13.44L46,53.67a2.71,2.71,0,0,1,0,.41l-1.35.86a.47.47,0,0,0-.23.39.44.44,0,0,0,.23.39l1.35.85A3,3,0,0,1,46,57l-1.15,1.1a.46.46,0,0,0-.13.44.4.4,0,0,0,.29.34l1.48.58c0,.14.07.25.12.39l-.92,1.31a.47.47,0,0,0,0,.46.45.45,0,0,0,.36.28l1.55.25c.07.12.11.23.18.37L47.08,64a.47.47,0,0,0,0,.46.48.48,0,0,0,.41.21l1.57-.05a2.65,2.65,0,0,0,.25.3L49,66.47a.45.45,0,0,0,.11.44.42.42,0,0,0,.43.11l1.53-.37c.09.1.2.16.29.26l-.05,1.61a.48.48,0,0,0,.21.41A.45.45,0,0,0,52,69l1.43-.67a2.47,2.47,0,0,0,.36.19L54,70.08a.49.49,0,0,0,.27.37.45.45,0,0,0,.45,0l1.28-1a2.78,2.78,0,0,0,.38.12l.56,1.52a.43.43,0,0,0,.34.3.52.52,0,0,0,.43-.14l1.08-1.18c.13,0,.27,0,.38,0L60,71.51a.45.45,0,0,0,.38.23.42.42,0,0,0,.38-.23l.84-1.38c.13,0,.27,0,.38,0l1.08,1.18a.45.45,0,0,0,.42.14.42.42,0,0,0,.34-.3l.56-1.52.38-.12,1.28,1a.46.46,0,0,0,.72-.33L67,68.5a2,2,0,0,1,.36-.19l1.44.67a.46.46,0,0,0,.45,0,.5.5,0,0,0,.2-.41l0-1.61a3.79,3.79,0,0,0,.29-.26l1.53.37a.41.41,0,0,0,.42-.11.45.45,0,0,0,.12-.44l-.36-1.57c.09-.09.15-.2.24-.3l1.58.05a.48.48,0,0,0,.4-.21.5.5,0,0,0,0-.46L73,62.51a1.59,1.59,0,0,0,.18-.37l1.55-.25a.48.48,0,0,0,.32-.74l-.92-1.31c0-.14.06-.25.11-.39l1.48-.58a.4.4,0,0,0,.29-.34.51.51,0,0,0-.13-.44L74.76,57c0-.14,0-.28,0-.4l1.35-.85a.48.48,0,0,0,.22-.39.49.49,0,0,0-.25-.41Zm-9,11.39a1,1,0,0,1-.72-1.15.94.94,0,0,1,1.12-.74,1,1,0,0,1-.4,1.89Zm-.47-3.15a.89.89,0,0,0-1,.69l-.47,2.28a11.27,11.27,0,0,1-4.83,1.06,11.48,11.48,0,0,1-4.92-1.11L55,63.82a.89.89,0,0,0-1-.69l-2,.44a11.89,11.89,0,0,1-1-1.22h9.55c.11,0,.18,0,.18-.12V58.78c0-.09-.07-.11-.18-.11H57.73V56.48h3a1.94,1.94,0,0,1,1.87,1.66c.11.48.38,2,.56,2.55s.92,1.68,1.68,1.68h4.77a.65.65,0,0,0,.18,0,12.49,12.49,0,0,1-1.08,1.29l-2-.46ZM53.51,66.29a1,1,0,0,1-1.13-.74,1,1,0,0,1,.72-1.15.94.94,0,0,1,1.12.73A1,1,0,0,1,53.51,66.29ZM49.89,51.23a1,1,0,0,1-.47,1.29A1,1,0,0,1,48.16,52a1,1,0,0,1,.47-1.29A1,1,0,0,1,49.89,51.23ZM48.76,54,50.81,53a.93.93,0,0,0,.45-1.18l-.43-1h1.66v7.65H49.15a11.83,11.83,0,0,1-.45-3.29C48.7,54.8,48.72,54.36,48.76,54Zm9-.76V50.93h3.93c.21,0,1.44.23,1.44,1.2,0,.78-.94,1.06-1.73,1.06Zm14.34,2c0,.3,0,.6,0,.9H70.85c-.11,0-.15.09-.15.21v.55c0,1.34-.74,1.61-1.37,1.68S68,58.3,68,57.91A4.19,4.19,0,0,0,66,54.64c1.17-.76,2.41-1.89,2.41-3.41a3.85,3.85,0,0,0-1.84-3.15,5,5,0,0,0-2.52-.86H51.69a11.54,11.54,0,0,1,6.53-3.77L59.69,45a.84.84,0,0,0,1.21,0l1.64-1.61a11.73,11.73,0,0,1,8,5.82l-1.12,2.58A.88.88,0,0,0,69.87,53L72,54c0,.44,0,.83,0,1.22ZM59.69,42.11a.94.94,0,0,1,1.34,0,1,1,0,0,1,0,1.38.94.94,0,0,1-1.35,0A1,1,0,0,1,59.69,42.11Zm11.1,9.17A.94.94,0,0,1,72,50.77a1,1,0,1,1-1.25.51Z" transform="translate(-0.85 -0.58)"/><path class="cls-2" d="M95.2,81.24a11.88,11.88,0,0,0-4.35,4.58c-1.67,3.74,3.43,7.82,3.64,8a.3.3,0,0,0,.18.06.27.27,0,0,0,.18-.07.29.29,0,0,0,.07-.35s-1.85-3.68-1.78-6.29c0-.91,1.26-1.94,2.58-3a15.14,15.14,0,0,0,3.37-3.46,5.68,5.68,0,0,0-.22-5.82.27.27,0,0,0-.34-.09.28.28,0,0,0-.16.32,6.32,6.32,0,0,1-.67,3.87A8.34,8.34,0,0,1,95.2,81.24Z" transform="translate(-0.85 -0.58)"/><path class="cls-2" d="M101.88,82.53a.3.3,0,0,0,.08-.37.28.28,0,0,0-.35-.13c-.27.1-6.6,2.6-6.6,5.62a5.78,5.78,0,0,0,1.51,4,3.07,3.07,0,0,1,.53.82,4.17,4.17,0,0,1-.47,2.29.29.29,0,0,0,.07.35.31.31,0,0,0,.18.07.3.3,0,0,0,.16,0c.11-.08,2.66-1.93,2.2-4.15a5.44,5.44,0,0,0-.93-2c-.55-.85-1-1.46-.35-2.59C98.62,85.05,101.85,82.55,101.88,82.53Z" transform="translate(-0.85 -0.58)"/><path class="cls-2" d="M85.41,95.21a1,1,0,0,0,.15,1c.68,1,3.11,1.51,6.84,1.51h0l1.58,0c6-.21,8.17-2.12,8.26-2.2a.29.29,0,0,0,.07-.35A.27.27,0,0,0,102,95a40.55,40.55,0,0,1-8.74.79,18.58,18.58,0,0,1-5-.39,7,7,0,0,1,2.88-1.06.29.29,0,0,0,.23-.31.29.29,0,0,0-.28-.26C90.24,93.72,85.86,93.79,85.41,95.21Z" transform="translate(-0.85 -0.58)"/><path class="cls-2" d="M105.35,93.25a5.75,5.75,0,0,0-2.45.66.29.29,0,0,0-.14.32.3.3,0,0,0,.28.22s2.62,0,2.85,1.54c.21,1.31-2.45,3.43-3.5,4.14a.3.3,0,0,0-.1.35.28.28,0,0,0,.26.18h.06c.25-.05,6.06-1.36,5.44-4.83C107.68,93.69,106.38,93.25,105.35,93.25Z" transform="translate(-0.85 -0.58)"/><path class="cls-2" d="M101.36,99.71a.29.29,0,0,0-.11-.29l-1.4-1a.24.24,0,0,0-.23,0A28.42,28.42,0,0,1,96,99a23.48,23.48,0,0,1-2.72.15,9.64,9.64,0,0,1-3.7-.44.12.12,0,0,1,0-.09c0-.11.24-.23.36-.28a.29.29,0,0,0-.16-.55c-1.4.35-2.08.83-2,1.44.09,1.08,2.52,1.63,4.58,1.77.3,0,.62,0,1,0h0a38.83,38.83,0,0,0,7.86-1.12A.27.27,0,0,0,101.36,99.71Z" transform="translate(-0.85 -0.58)"/><path class="cls-2" d="M90.85,102a.3.3,0,0,0,.12-.33.29.29,0,0,0-.28-.2c-.19,0-1.83.08-2,1.15a1.18,1.18,0,0,0,.27.88c.59.71,2.18,1.14,4.87,1.3.32,0,.65,0,1,0a14.56,14.56,0,0,0,5.82-1.14.31.31,0,0,0,.16-.25.29.29,0,0,0-.14-.26l-1.76-1.1a.28.28,0,0,0-.2,0s-1.13.24-2.82.48a9.89,9.89,0,0,1-1.19.06,14.68,14.68,0,0,1-3.92-.46A.11.11,0,0,1,90.85,102Z" transform="translate(-0.85 -0.58)"/><path class="cls-2" d="M93.25,108.16c7.84,0,12-1.43,12.85-2.33a1,1,0,0,0,.3-.82,1.25,1.25,0,0,0-.54-.81.29.29,0,0,0-.37.43c.05.06.08.17-.07.32-.32.31-3.59,1.25-9,1.53-.74,0-1.52.06-2.32.06-4.87,0-8.43-.68-8.9-1.08a6.91,6.91,0,0,1,2.78-.93.29.29,0,0,0-.09-.57l-.31,0c-2.21.13-4.77.44-4.9,1.61a1.18,1.18,0,0,0,.31,1c.59.69,2.31,1.6,10.29,1.6Z" transform="translate(-0.85 -0.58)"/><path class="cls-2" d="M107.64,106.08a.28.28,0,0,0-.32.07s-1.19,1.27-4.73,2a44.77,44.77,0,0,1-7.57.42c-3.67,0-7.16-.15-7.2-.15a.29.29,0,0,0-.29.25.28.28,0,0,0,.22.32,40.57,40.57,0,0,0,8.7.89,40,40,0,0,0,6.94-.59c4.11-.74,4.4-2.83,4.41-2.92A.29.29,0,0,0,107.64,106.08Z" transform="translate(-0.85 -0.58)"/><path class="cls-1" d="M70.87,27.54V7.48c0-5.15.1-5.4,5.13-5.4h36.68c5,0,5.19,0,5.19,5.15V45.08c0,5.15-.27,5.15-5.3,5.15H88.75" transform="translate(-0.85 -0.58)"/><path class="cls-1" d="M49.35,29.15V7.31c0-5.15-.32-5.23-5.35-5.23H7.35c-5,0-5,.17-5,5.32V45.13c0,5.15.14,5.1,5.17,5.1H31.3" transform="translate(-0.85 -0.58)"/><path class="cls-1" d="M-1.13,3.93" transform="translate(-0.85 -0.58)"/><path class="cls-1" d="M59.7,79.82" transform="translate(-0.85 -0.58)"/><path class="cls-2" d="M28.57,14.56A5.5,5.5,0,0,0,23.14,9H22a5.5,5.5,0,0,0-5.43,5.56h0a.82.82,0,0,0,.81.83h5.15v1.34H14.6a5.5,5.5,0,0,0-5.43,5.56v1.18A5.5,5.5,0,0,0,14.6,29h1a.82.82,0,0,0,.81-.83V24.4a.82.82,0,0,1,.81-.83H27.76a.82.82,0,0,0,.81-.83ZM19,14a.69.69,0,1,1,.67-.69A.68.68,0,0,1,19,14Z" transform="translate(-0.85 -0.58)"/><path class="cls-2" d="M31.74,19.29h-1a.83.83,0,0,0-.82.83v3.8a.82.82,0,0,1-.81.83H18.59a.82.82,0,0,0-.81.83v8.18a5.5,5.5,0,0,0,5.43,5.56h1.14a5.5,5.5,0,0,0,5.43-5.56h0a.82.82,0,0,0-.81-.83H23.83V31.59h7.92A5.49,5.49,0,0,0,37.17,26V24.85A5.5,5.5,0,0,0,31.74,19.29ZM27.38,34.36a.68.68,0,0,1,.68.69.68.68,0,1,1-.68-.69Z" transform="translate(-0.85 -0.58)"/><path class="cls-1" d="M70.87,29.15" transform="translate(-0.85 -0.58)"/><path class="cls-2" d="M85.34,25c0,.88.93.47,1.32.2s.47-.05.52-.56a7,7,0,0,0,0-1,2.49,2.49,0,0,0-1.66.42c-.25.18-.7.74-.23.94" transform="translate(-0.85 -0.58)"/><path class="cls-2" d="M85.79,25.64a.57.57,0,0,1-.25-.06.58.58,0,0,1-.29-.51.41.41,0,0,1-.21-.3,1.11,1.11,0,0,1,.47-.78,2.55,2.55,0,0,1,1.72-.44h.07v.07a7.12,7.12,0,0,1,0,.8v.23c0,.37-.09.42-.28.47a1,1,0,0,0-.28.14A2,2,0,0,1,85.79,25.64ZM87,23.71a2.31,2.31,0,0,0-1.37.42.91.91,0,0,0-.39.63.23.23,0,0,0,.15.19h0V25a.48.48,0,0,0,.2.42,1.19,1.19,0,0,0,1-.29,1.37,1.37,0,0,1,.32-.16c.12,0,.15,0,.17-.34V24.4c0-.24,0-.47,0-.7H87Z" transform="translate(-0.85 -0.58)"/><path class="cls-2" d="M87.37,14.5C84,13.56,86.51,9.25,89.24,11Z" transform="translate(-0.85 -0.58)"/><path class="cls-2" d="M87.41,14.59h-.06A2.06,2.06,0,0,1,85.68,13a2.24,2.24,0,0,1,1-2.11,2.26,2.26,0,0,1,2.54.09l.07,0Zm.47-3.91A2,2,0,0,0,86.8,11a2.07,2.07,0,0,0-1,1.95,1.86,1.86,0,0,0,1.48,1.45l1.77-3.35a2.29,2.29,0,0,0-1.19-.35Z" transform="translate(-0.85 -0.58)"/><path class="cls-2" d="M102.37,10.7c2.67-1.87,5.09,2.33,2,3.42Z" transform="translate(-0.85 -0.58)"/><path class="cls-2" d="M104.32,14.22l-2.06-3.55.06,0a2.22,2.22,0,0,1,2.45-.21,2.28,2.28,0,0,1,1.12,2.1,2,2,0,0,1-1.51,1.68Zm-1.84-3.5,1.91,3.3a1.83,1.83,0,0,0,1.33-1.52,2.1,2.1,0,0,0-1-1.94,2,2,0,0,0-2.21.16Z" transform="translate(-0.85 -0.58)"/><path class="cls-2" d="M103,35.85c.67.42,1.92,1.69.9,2.31-1,.9-1.53-1-2.39-1.24A2.43,2.43,0,0,1,103,35.85Z" transform="translate(-0.85 -0.58)"/><path class="cls-2" d="M103.33,38.48h0c-.39,0-.7-.4-1-.76a2.09,2.09,0,0,0-.84-.72l-.11,0,.07-.11a2.45,2.45,0,0,1,1.53-1.1H103c.44.27,1.33,1,1.33,1.76a.79.79,0,0,1-.42.68A.86.86,0,0,1,103.33,38.48Zm-1.74-1.61a2.73,2.73,0,0,1,.81.74,1.62,1.62,0,0,0,.9.7.6.6,0,0,0,.46-.22.61.61,0,0,0,.35-.54c0-.57-.72-1.28-1.22-1.6a2.16,2.16,0,0,0-1.29.92Z" transform="translate(-0.85 -0.58)"/><path class="cls-2" d="M103.85,38.25a.1.1,0,0,1-.08,0,3.05,3.05,0,0,1-.13-.32,1.33,1.33,0,0,0-.31-.57.08.08,0,0,1,.12-.12,1.66,1.66,0,0,1,.35.62c0,.1.08.2.12.3a.08.08,0,0,1,0,.11Z" transform="translate(-0.85 -0.58)"/><path class="cls-2" d="M90.82,37.29c-.8.12-1.25.84-1.91,1.2a.58.58,0,0,1-.82,0,.52.52,0,0,1-.11-.19.33.33,0,0,1-.25-.11c-.58-.93.6-1.58,1.23-2,.87-.17,1.41.57,1.86,1.17Z" transform="translate(-0.85 -0.58)"/><path class="cls-2" d="M88.49,38.71h-.15a.68.68,0,0,1-.41-.35.28.28,0,0,1-.23-.12c-.56-.88.4-1.55,1-2l.22-.16c.88-.18,1.44.55,1.89,1.14l.12.17h-.14a2.39,2.39,0,0,0-1.18.68,4.54,4.54,0,0,1-.7.52A.88.88,0,0,1,88.49,38.71Zm-.56-.54h.12l0,.08a.54.54,0,0,0,.31.28.62.62,0,0,0,.47-.11,3.65,3.65,0,0,0,.67-.5,2.88,2.88,0,0,1,1.13-.69c-.43-.56-.93-1.17-1.67-1l-.21.15c-.64.47-1.44,1-1,1.76a.14.14,0,0,0,.1.07Z" transform="translate(-0.85 -0.58)"/><path class="cls-2" d="M88,38.36a.08.08,0,0,1-.09-.08,0,0,0,0,1,0,0,1.13,1.13,0,0,1,.27-.61,2.91,2.91,0,0,0,.17-.3.09.09,0,0,1,.12,0,.08.08,0,0,1,0,.11,3.37,3.37,0,0,1-.19.32,1,1,0,0,0-.23.55.08.08,0,0,1-.09.08Z" transform="translate(-0.85 -0.58)"/><path class="cls-2" d="M106.72,24.89c0,.88-.94.46-1.33.19s-.46,0-.52-.56a8.7,8.7,0,0,1,0-1,2.54,2.54,0,0,1,1.67.43c.24.18.69.74.22.93" transform="translate(-0.85 -0.58)"/><path class="cls-2" d="M106.26,25.51a1.9,1.9,0,0,1-.89-.34,1,1,0,0,0-.28-.13c-.19-.07-.26-.12-.28-.47v-.23a5.4,5.4,0,0,1,0-.8v-.11h.07a2.59,2.59,0,0,1,1.73.43,1.08,1.08,0,0,1,.46.78.37.37,0,0,1-.21.3.57.57,0,0,1-.29.52.54.54,0,0,1-.28.05Zm-1.36-1.93c0,.24,0,.47,0,.7v.24c0,.28,0,.29.17.34a1.14,1.14,0,0,1,.31.16,1.25,1.25,0,0,0,1,.29.47.47,0,0,0,.19-.42v-.06h.05a.22.22,0,0,0,.16-.19,1,1,0,0,0-.39-.63,2.43,2.43,0,0,0-1.52-.43Z" transform="translate(-0.85 -0.58)"/><path class="cls-2" d="M95.69,8.91c3.38,0,6.54.47,8.2,3.74,1.48,3.64.93,7.56,1.18,11.41.2,3.3.63,7.11-.9,10.18s-5.65,4-9,3.9c-2.6-.09-5.75-.93-7.22-3.32-1.73-2.81-.91-6.95-.78-10.06.14-3.68-1-7.37.21-11S92,9.2,95.69,8.91" transform="translate(-0.85 -0.58)"/><path class="cls-2" d="M95.78,38.25H95.2a12.59,12.59,0,0,1-4.07-.81,6.5,6.5,0,0,1-3.22-2.56c-1.41-2.26-1.15-5.38-.94-8.13.06-.7.11-1.35.13-2a30,30,0,0,0-.17-3.91,17.36,17.36,0,0,1,.39-7.09A6.17,6.17,0,0,1,90.59,10a13.7,13.7,0,0,1,5.06-1.15c3.34,0,6.62.44,8.32,3.76,1.08,2.66,1.09,5.52,1.11,8.28,0,1,0,2.11.08,3.15,0,.32,0,.64.06,1,.19,3,.42,6.48-1,9.26C102.49,37.74,98.1,38.25,95.78,38.25ZM95.69,9c-3.52.29-6.94,1.05-8.21,4.81a17.31,17.31,0,0,0-.37,7,32.12,32.12,0,0,1,.16,3.93c0,.62-.07,1.28-.13,2-.21,2.73-.46,5.83.91,8,.57.94,2.42,3.12,7.15,3.27,2,.08,7-.16,8.88-3.86,1.37-2.75,1.15-6.16,1-9.17,0-.33,0-.65-.06-1,0-1-.07-2.09-.07-3.13,0-2.74,0-5.6-1.1-8.21a6,6,0,0,0-3.41-3A13.88,13.88,0,0,0,95.69,9Z" transform="translate(-0.85 -0.58)"/><path class="cls-3" d="M96.28,13.45c.61,3.52,6.37,2.59,5.55-1-.75-3.19-5.75-2.3-5.55,1" transform="translate(-0.85 -0.58)"/><path class="cls-2" d="M99,15.75a3.44,3.44,0,0,1-1-.17,2.65,2.65,0,0,1-1.77-2.12,2.72,2.72,0,0,1,.73-2.07,3.14,3.14,0,0,1,1.87-.94,3,3,0,0,1,1.9.33,2.57,2.57,0,0,1,1.21,1.69,2.49,2.49,0,0,1-.72,2.5,3.31,3.31,0,0,1-2.17.78Zm-2.65-2.31a2.44,2.44,0,0,0,1.65,2,3.19,3.19,0,0,0,3.06-.58,2.31,2.31,0,0,0,.67-2.33,2.49,2.49,0,0,0-2.92-1.9,2.7,2.7,0,0,0-2.46,2.83Z" transform="translate(-0.85 -0.58)"/><path class="cls-3" d="M89.39,14c.79,3.07,5.7,2.28,5.52-.8-.22-3.69-6.27-3-5.52.8" transform="translate(-0.85 -0.58)"/><path class="cls-2" d="M92,16a2.86,2.86,0,0,1-1.43-.35,2.6,2.6,0,0,1-.39-4.29A3.3,3.3,0,0,1,93.5,11,2.49,2.49,0,0,1,95,13.22,2.73,2.73,0,0,1,92.55,16,3.13,3.13,0,0,1,92,16Zm-2.53-2a2.75,2.75,0,0,0,5.36-.75,2.33,2.33,0,0,0-1.4-2.11,3.17,3.17,0,0,0-3.14.4A2.42,2.42,0,0,0,89.49,14Z" transform="translate(-0.85 -0.58)"/><path class="cls-3" d="M97,17.7a7.12,7.12,0,0,1,0,1.46.94.94,0,0,1-.55.34A.8.8,0,0,1,95.8,19a11.37,11.37,0,0,1,0-1.65Z" transform="translate(-0.85 -0.58)"/><path class="cls-2" d="M96.47,19.57h0a.9.9,0,0,1-.68-.53,7.1,7.1,0,0,1,0-1.13c0-.18,0-.36,0-.54v-.14l1.26.39v.08a3.77,3.77,0,0,0,0,.47,4.18,4.18,0,0,1,0,1v0a.68.68,0,0,1-.44.32l-.15.06ZM95.92,19a.73.73,0,0,0,.53.42l.13-.06a.55.55,0,0,0,.34-.24,3.62,3.62,0,0,0,0-.93,2,2,0,0,0,0-.43L96,17.46a2.08,2.08,0,0,1,0,.43,5.66,5.66,0,0,0,0,1.09Z" transform="translate(-0.85 -0.58)"/><ellipse class="cls-2" cx="89.9" cy="12.94" rx="0.83" ry="0.9"/><ellipse class="cls-3" cx="90.28" cy="13.14" rx="0.2" ry="0.23"/><ellipse class="cls-2" cx="96.86" cy="12.71" rx="0.82" ry="0.9"/><ellipse class="cls-3" cx="97.23" cy="12.92" rx="0.19" ry="0.23"/><path class="cls-3" d="M94.63,17.63c-.37.88.2,2.63,1.18,1.34a11.37,11.37,0,0,1,0-1.65Z" transform="translate(-0.85 -0.58)"/><path class="cls-2" d="M95.13,19.52a.42.42,0,0,1-.24-.07,1.72,1.72,0,0,1-.36-1.87v0l1.4-.36v.11a3.14,3.14,0,0,1,0,.54,5.06,5.06,0,0,0,0,1.1V19A1,1,0,0,1,95.13,19.52Zm-.46-1.82A1.56,1.56,0,0,0,95,19.3c.25.15.53-.11.73-.36a5.06,5.06,0,0,1,0-1.1,2,2,0,0,1,0-.42Z" transform="translate(-0.85 -0.58)"/><path class="cls-2" d="M94.73,15.94a1.07,1.07,0,0,0-1,1.17,1.16,1.16,0,0,0,.08.32c.47.84,1.51-.07,2.15,0s1.36.79,2,.14-.28-1.4-1-1.73Z" transform="translate(-0.85 -0.58)"/><path class="cls-3" d="M97.43,17.93a2,2,0,0,1-.68-.19,2,2,0,0,0-.74-.21,1.92,1.92,0,0,0-.78.17c-.52.18-1.11.39-1.45-.21a1,1,0,0,1,0-1,1.21,1.21,0,0,1,.93-.64L97,15.77c.55.23,1.18.66,1.29,1.15a.89.89,0,0,1-.77,1ZM96,17.36a2.45,2.45,0,0,1,.79.22c.42.18.75.32,1.09,0A.61.61,0,0,0,98.1,17c-.09-.43-.69-.82-1.17-1L94.76,16a1.05,1.05,0,0,0-.8.55.85.85,0,0,0,0,.82c.27.46.74.31,1.25.14a2,2,0,0,1,.82-.18Z" transform="translate(-0.85 -0.58)"/><path class="cls-4" d="M94.63,15.91c-.06-1.17,2.18-1.32,2.44-.34S94.73,16.78,94.63,15.91Z" transform="translate(-0.85 -0.58)"/></svg>