<svg id="Layer_1" data-name="Layer 1" xmlns="http://www.w3.org/2000/svg" viewBox="0 0 101.5 99.39"><defs><style>.cls-1,.cls-2{fill:none;stroke:#45328d;stroke-linejoin:round;stroke-width:3px;}.cls-2{stroke-linecap:round;}</style></defs><path class="cls-1" d="M33.13,83.12" transform="translate(-9.26 -10.21)"/><polygon class="cls-2" points="43.37 97.89 20.93 97.89 24.91 76.14 47.22 76.14 43.37 97.89"/><line class="cls-1" x1="20.01" y1="81.59" x2="10.6" y2="81.59"/><line class="cls-1" x1="18.12" y1="87.02" x2="4.87" y2="87.02"/><line class="cls-1" x1="16.21" y1="92.44" y2="92.44"/><path class="cls-1" d="M33.2,82.49" transform="translate(-9.26 -10.21)"/><line class="cls-1" x1="72.75" y1="81.59" x2="63.33" y2="81.59"/><line class="cls-1" x1="70.85" y1="87.02" x2="57.61" y2="87.02"/><line class="cls-1" x1="68.94" y1="92.44" x2="52.73" y2="92.44"/><polygon class="cls-2" points="96.15 97.89 73.71 97.89 77.69 76.14 100 76.14 96.15 97.89"/><path class="cls-1" d="M19.82,78.4A46.59,46.59,0,0,1,15,57.75c0-25.43,20.21-46,45.14-46s45.13,20.61,45.13,46a46.62,46.62,0,0,1-4.78,20.65" transform="translate(-9.26 -10.21)"/><ellipse class="cls-2" cx="51.81" cy="44.72" rx="5.94" ry="6.06"/><line class="cls-2" x1="45.81" y1="46.22" x2="32.7" y2="48.15"/><line class="cls-1" x1="22.2" y1="61.08" x2="10.19" y2="66.8"/><line class="cls-1" x1="79.34" y1="60.96" x2="91.34" y2="66.67"/><line class="cls-1" x1="14.73" y1="43.73" x2="5.24" y2="43.73"/><line class="cls-1" x1="96.05" y1="43.73" x2="86.56" y2="43.73"/><line class="cls-1" x1="50.49" y1="0.79" x2="50.49" y2="10.47"/><line class="cls-1" x1="18.4" y1="13.89" x2="25.34" y2="20.48"/><line class="cls-1" x1="82.63" y1="13.89" x2="75.69" y2="20.48"/></svg>