<svg id="Layer_1" data-name="Layer 1" xmlns="http://www.w3.org/2000/svg" viewBox="0 0 115.02 113.07"><defs><style>.cls-1,.cls-2{fill:none;stroke:#45328d;stroke-width:3px;}.cls-1{stroke-linecap:round;stroke-linejoin:round;}.cls-2{stroke-miterlimit:10;}.cls-3{fill:#45328d;}</style></defs><polyline class="cls-1" points="1.5 1.5 26.05 1.5 26.05 111.57 1.5 111.57"/><line class="cls-2" x1="7.65" y1="15.73" x2="20.15" y2="15.73"/><line class="cls-2" x1="1.5" y1="27.86" x2="20.15" y2="27.86"/><line class="cls-2" x1="12.05" y1="39.98" x2="20.15" y2="39.98"/><line class="cls-2" x1="3.95" y1="52.1" x2="20.15" y2="52.1"/><line class="cls-2" x1="9.6" y1="64.23" x2="20.15" y2="64.23"/><line class="cls-2" x1="1.5" y1="76.35" x2="20.15" y2="76.35"/><line class="cls-2" x1="5.28" y1="88.48" x2="20.15" y2="88.48"/><line class="cls-2" x1="9.6" y1="100.6" x2="20.15" y2="100.6"/><line class="cls-2" x1="31.21" y1="32.87" x2="47.64" y2="32.87"/><polygon class="cls-3" points="41.67 37.96 46.76 32.87 41.67 27.79 45.99 27.79 51.07 32.87 45.99 37.96 41.67 37.96"/><line class="cls-2" x1="31.21" y1="85.19" x2="47.64" y2="85.19"/><polygon class="cls-3" points="41.67 90.28 46.76 85.19 41.67 80.11 45.99 80.11 51.07 85.19 45.99 90.28 41.67 90.28"/><rect class="cls-2" x="56.4" y="15.73" width="57.11" height="34.28"/><rect class="cls-2" x="55.87" y="69.18" width="57.11" height="34.28"/><path class="cls-3" d="M70.09,26.05h2.43v9.1h.09c.5-.73,1-1.4,1.48-2l5.77-7.09h3l-6.83,8,7.37,10.86H80.53l-6.21-9.26-1.8,2.07v7.19H70.09Z" transform="translate(-2.54 -3.02)"/><path class="cls-3" d="M83.11,46l7.81-20.29h1.9L85,46Z" transform="translate(-2.54 -3.02)"/><path class="cls-3" d="M99,44.92,92.85,26.05h2.63l2.94,9.3c.82,2.55,1.52,4.84,2,7h.06c.53-2.18,1.31-4.56,2.15-7l3.19-9.33h2.61L101.7,44.92Z" transform="translate(-2.54 -3.02)"/><path class="cls-3" d="M66.31,95.59a8.65,8.65,0,0,0,4.37,1.23c2.49,0,3.94-1.31,3.94-3.22,0-1.76-1-2.77-3.55-3.75-3.08-1.09-5-2.69-5-5.35,0-2.94,2.44-5.12,6.11-5.12a8.53,8.53,0,0,1,4.17.92l-.67,2a7.5,7.5,0,0,0-3.59-.9c-2.57,0-3.55,1.54-3.55,2.83,0,1.77,1.15,2.63,3.75,3.64,3.19,1.23,4.82,2.77,4.82,5.55S75,98.84,70.51,98.84a9.79,9.79,0,0,1-4.82-1.21Z" transform="translate(-2.54 -3.02)"/><path class="cls-3" d="M96,101.33c-2.55-.67-5-1.43-7.23-2.19a3.86,3.86,0,0,0-1.15-.28c-4.48-.16-8.31-3.47-8.31-9.54s3.69-9.94,8.79-9.94,8.46,4,8.46,9.55c0,4.84-2.24,7.95-5.38,9v.11c1.88.48,3.92.93,5.52,1.2ZM94,89c0-3.78-2-7.68-6-7.68s-6.14,3.81-6.11,7.9,2.19,7.62,6,7.62S94,93.35,94,89Z" transform="translate(-2.54 -3.02)"/><path class="cls-3" d="M99.74,79.68h2.44V96.51h8.06v2H99.74Z" transform="translate(-2.54 -3.02)"/></svg>