<svg id="Layer_1" data-name="Layer 1" xmlns="http://www.w3.org/2000/svg" viewBox="0 0 120 120"><defs><style>.cls-1,.cls-2,.cls-3{fill:none;}.cls-2,.cls-3{stroke:#fff;stroke-linecap:round;stroke-width:3px;}.cls-2{stroke-linejoin:round;}</style></defs><rect class="cls-1" width="120" height="120"/><path class="cls-2" d="M84,89.61"/><path class="cls-2" d="M80.25,98H21.9C15.33,98,10,93.52,10,88V26.44c0-5.57,5.33-10.08,11.9-10.08H98.1c6.57,0,11.9,4.51,11.9,10.08V88C110,93.52,104.67,98,98.1,98h-5"/><line class="cls-3" x1="20.35" y1="111.26" x2="101.78" y2="111.26"/><line class="cls-3" x1="26.66" y1="85.76" x2="26.66" y2="47.71"/><line class="cls-3" x1="38.13" y1="85.76" x2="38.13" y2="31.62"/><line class="cls-3" x1="49.59" y1="85.76" x2="49.59" y2="63.04"/><line class="cls-3" x1="61.06" y1="85.76" x2="61.06" y2="55.05"/><line class="cls-3" x1="72.53" y1="85.76" x2="72.53" y2="47.71"/><line class="cls-3" x1="84" y1="85.76" x2="84" y2="58.69"/><line class="cls-3" x1="95.47" y1="85.76" x2="95.47" y2="70.86"/></svg>