<svg id="Layer_1" data-name="Layer 1" xmlns="http://www.w3.org/2000/svg" viewBox="0 0 120 120"><defs><style>.cls-1{fill:none;}.cls-2{fill:#fff;}</style></defs><rect class="cls-1" width="120" height="120"/><path class="cls-2" d="M103.33,58.71a1.47,1.47,0,0,1-1.46-1.27c-.18-1.27-.44-2.65-.82-4.21a1.49,1.49,0,0,1,1.12-1.77,1.48,1.48,0,0,1,1.75,1.09c.4,1.65.68,3.12.87,4.48a1.48,1.48,0,0,1-1.26,1.67Z"/><path class="cls-2" d="M89.83,32.4a1.47,1.47,0,0,1-1-.42,44,44,0,0,0-8.91-6.74,1.48,1.48,0,0,1,1.47-2.56,46.91,46.91,0,0,1,9.51,7.19,1.48,1.48,0,0,1-1,2.53Z"/><path class="cls-2" d="M98.89,44.67a1.5,1.5,0,0,1-1.32-.8c-.61-1.2-1.29-2.4-2.09-3.67A1.48,1.48,0,0,1,98,38.63c.84,1.35,1.57,2.62,2.22,3.89a1.48,1.48,0,0,1-.65,2,1.5,1.5,0,0,1-.67.16Z"/><path class="cls-2" d="M97.65,88.59a1.47,1.47,0,0,1-.74-.2,1.48,1.48,0,0,1-.53-2A43.8,43.8,0,0,0,102.19,68a1.47,1.47,0,0,1,1.59-1.35,1.49,1.49,0,0,1,1.35,1.6,46.71,46.71,0,0,1-6.2,19.64,1.47,1.47,0,0,1-1.28.74Z"/><path class="cls-2" d="M57.66,111.68A47.86,47.86,0,0,1,16.38,87.85a1.48,1.48,0,0,1,2.51-1.55l.05.08a44.87,44.87,0,0,0,38.72,22.34,44.4,44.4,0,0,0,25.68-8.11A1.47,1.47,0,1,1,85,103h0a47.39,47.39,0,0,1-27.37,8.66Z"/><path class="cls-2" d="M11.59,68.68a1.48,1.48,0,0,1-1.48-1.37C10,66.22,10,65.12,10,64A47.71,47.71,0,0,1,57.65,16.37a1.48,1.48,0,1,1,0,2.95A44.76,44.76,0,0,0,13,64c0,1,0,2.07.11,3.09a1.48,1.48,0,0,1-1.38,1.57Z"/><path class="cls-2" d="M49.7,27.28a1.47,1.47,0,0,1-1.48-1.47,1.51,1.51,0,0,1,.43-1l6.93-6.91-6.92-6.92a1.47,1.47,0,0,1,2.08-2.08l8,8a1.47,1.47,0,0,1,0,2.09l-8,8a1.41,1.41,0,0,1-1,.42Z"/><path class="cls-2" d="M14.75,99.46a1.2,1.2,0,0,1-.38,0,1.47,1.47,0,0,1-1-1.81h0l2.91-10.87a1.47,1.47,0,0,1,1.81-1h0L28.92,88.6a1.47,1.47,0,1,1-.76,2.85l-9.45-2.53-2.53,9.45a1.49,1.49,0,0,1-1.43,1.09Z"/><path class="cls-2" d="M97.65,88.59a1.49,1.49,0,0,1-1.43-1.1L93.31,76.62a1.48,1.48,0,1,1,2.83-.84s0,0,0,.07l2.53,9.46,9.45-2.54a1.48,1.48,0,0,1,.77,2.85h0L98,88.54a1.65,1.65,0,0,1-.38,0Z"/><path class="cls-2" d="M59.94,91.39H54.16a2.25,2.25,0,0,1-2.24-1.92l-.49-3.09a24,24,0,0,1-6.94-2.88L42,85.34A2.27,2.27,0,0,1,39,85.12L34.92,81a2.25,2.25,0,0,1-.23-2.93l1.84-2.54a24,24,0,0,1-2.88-6.94l-3.1-.49a2.25,2.25,0,0,1-1.91-2.24V60.1a2.25,2.25,0,0,1,1.91-2.24l3.1-.49a23.82,23.82,0,0,1,2.88-6.93l-1.84-2.55A2.27,2.27,0,0,1,34.92,45L39,40.86a2.25,2.25,0,0,1,2.93-.23l2.55,1.84a23.82,23.82,0,0,1,6.93-2.88l.49-3.09a2.25,2.25,0,0,1,2.24-1.92h5.79a2.25,2.25,0,0,1,2.24,1.92l.49,3.09a23.82,23.82,0,0,1,6.93,2.88l2.55-1.84a2.27,2.27,0,0,1,2.94.23L79.18,45a2.25,2.25,0,0,1,.23,2.93l-1.83,2.55a23.53,23.53,0,0,1,2.87,6.93l3.1.49a2.27,2.27,0,0,1,1.92,2.24v5.79a2.27,2.27,0,0,1-1.92,2.24l-3.1.49a23.53,23.53,0,0,1-2.87,6.93l1.83,2.55A2.24,2.24,0,0,1,79.18,81l-4.09,4.09a2.27,2.27,0,0,1-2.93.24l-2.55-1.84a23.53,23.53,0,0,1-6.93,2.87l-.49,3.1a2.25,2.25,0,0,1-2.25,1.9Zm-5.2-3h4.62l.55-3.51a1.48,1.48,0,0,1,1.19-1.22,20.71,20.71,0,0,0,7.73-3.2,1.47,1.47,0,0,1,1.69,0l2.89,2.08,3.26-3.25-2.09-2.89a1.47,1.47,0,0,1,0-1.69A20.82,20.82,0,0,0,77.76,67,1.49,1.49,0,0,1,79,65.86l3.51-.56V60.68L79,60.12a1.48,1.48,0,0,1-1.22-1.18,20.71,20.71,0,0,0-3.2-7.73,1.47,1.47,0,0,1,0-1.69l2.09-2.89-3.26-3.26-2.89,2.09a1.48,1.48,0,0,1-1.68,0,20.67,20.67,0,0,0-7.74-3.21,1.48,1.48,0,0,1-1.18-1.22l-.56-3.51H54.74l-.56,3.51A1.48,1.48,0,0,1,53,42.28a20.67,20.67,0,0,0-7.74,3.21,1.48,1.48,0,0,1-1.68,0l-2.89-2.09-3.26,3.26,2.09,2.89a1.49,1.49,0,0,1,0,1.69A20.61,20.61,0,0,0,36.34,59a1.48,1.48,0,0,1-1.22,1.18l-3.51.56V65.3l3.51.56A1.48,1.48,0,0,1,36.34,67a20.61,20.61,0,0,0,3.21,7.74,1.49,1.49,0,0,1,0,1.69l-2.09,2.89,3.26,3.25,2.89-2.08a1.46,1.46,0,0,1,1.69,0A20.71,20.71,0,0,0,53,83.7a1.49,1.49,0,0,1,1.19,1.22Z"/><path class="cls-2" d="M57.05,78.85A15.86,15.86,0,1,1,72.91,63,15.86,15.86,0,0,1,57.05,78.85Zm0-28.77A12.91,12.91,0,1,0,70,63h0A12.93,12.93,0,0,0,57.05,50.08Z"/></svg>