<svg id="Layer_1" data-name="Layer 1" xmlns="http://www.w3.org/2000/svg" viewBox="0 0 103 109.9"><defs><style>.cls-1{fill:#45328d;}.cls-2{fill:none;stroke:#45328d;stroke-miterlimit:10;stroke-width:3px;}</style></defs><path id="path3" class="cls-1" d="M87.19,64.27l-2.32-1.45c0-.23,0-.47-.08-.66l2-1.89a.76.76,0,0,0,.23-.74.71.71,0,0,0-.5-.59l-2.55-1c-.08-.24-.11-.43-.19-.67l1.58-2.23a.82.82,0,0,0,.08-.79.79.79,0,0,0-.62-.47l-2.66-.43a6.17,6.17,0,0,1-.31-.63l1.12-2.51a.84.84,0,0,0-.08-.78.81.81,0,0,0-.7-.36l-2.7.08c-.15-.19-.27-.35-.42-.51L79.65,46a.74.74,0,0,0-.19-.74.71.71,0,0,0-.73-.2l-2.63.63c-.15-.16-.35-.27-.5-.43l.08-2.75a.84.84,0,0,0-.35-.7.76.76,0,0,0-.77-.08l-2.48,1.14a2.94,2.94,0,0,0-.61-.32L71,39.84a.86.86,0,0,0-.46-.63.76.76,0,0,0-.77.08l-2.21,1.6c-.23-.07-.42-.11-.65-.19l-1-2.59a.71.71,0,0,0-.58-.51.85.85,0,0,0-.73.23l-1.78,2a4.06,4.06,0,0,1-.69-.08L60.77,37.4a.82.82,0,0,0-.66-.39.77.77,0,0,0-.66.39L58,39.76a4.06,4.06,0,0,1-.69.08l-1.85-2a.77.77,0,0,0-.74-.23.71.71,0,0,0-.58.51l-1,2.59c-.23.08-.43.12-.66.19l-2.2-1.6a.76.76,0,0,0-.77-.08.79.79,0,0,0-.47.63l-.42,2.7c-.2.12-.39.2-.62.32l-2.47-1.14a.77.77,0,0,0-.77.08.81.81,0,0,0-.35.7l.08,2.75a5.75,5.75,0,0,0-.51.43l-2.62-.63a.73.73,0,0,0-.74.2.74.74,0,0,0-.19.74l.62,2.67c-.16.16-.27.35-.43.51L38,49.09a.83.83,0,0,0-.7.36.8.8,0,0,0-.07.78l1.12,2.51a3.08,3.08,0,0,0-.31.63l-2.67.43a.88.88,0,0,0-.62.47.85.85,0,0,0,.08.79l1.59,2.23a4.26,4.26,0,0,0-.2.67l-2.55,1a.71.71,0,0,0-.5.59.87.87,0,0,0,.23.74l2,1.85a4.17,4.17,0,0,1-.08.7L33,64.27a.84.84,0,0,0-.39.67.77.77,0,0,0,.39.67l2.31,1.45a4.29,4.29,0,0,1,.08.71l-2,1.88a.77.77,0,0,0-.23.74.71.71,0,0,0,.5.59l2.55,1c.08.24.12.43.19.67l-1.58,2.24a.83.83,0,0,0-.08.78.77.77,0,0,0,.62.47l2.67.43c.11.2.19.4.31.63l-1.12,2.51a.83.83,0,0,0,.07.79.85.85,0,0,0,.7.35l2.7-.08a5.75,5.75,0,0,0,.43.51l-.62,2.67a.74.74,0,0,0,.19.74.73.73,0,0,0,.74.2l2.62-.63c.16.16.35.28.5.43l-.07,2.75a.86.86,0,0,0,.34.71.8.8,0,0,0,.78.07l2.47-1.13a3.26,3.26,0,0,0,.62.31l.42,2.71a.85.85,0,0,0,.46.62.8.8,0,0,0,.78-.07L52.58,89a3.82,3.82,0,0,0,.66.19l1,2.59a.71.71,0,0,0,.58.51.85.85,0,0,0,.73-.23l1.86-2c.23,0,.46,0,.65.08l1.43,2.35a.82.82,0,0,0,.66.39.77.77,0,0,0,.66-.39l1.43-2.35c.23,0,.46,0,.65-.08l1.86,2a.75.75,0,0,0,.73.23.71.71,0,0,0,.58-.51l1-2.59c.23-.07.42-.11.65-.19l2.2,1.61a.8.8,0,0,0,.78.07.76.76,0,0,0,.46-.62l.42-2.71a2.77,2.77,0,0,1,.62-.31l2.47,1.13a.81.81,0,0,0,.78-.07.86.86,0,0,0,.34-.71l-.07-2.75a5.34,5.34,0,0,0,.5-.43l2.63.63a.71.71,0,0,0,.73-.2.74.74,0,0,0,.19-.74l-.62-2.67c.16-.16.28-.35.43-.51l2.7.08A.82.82,0,0,0,83,79.69l-1.12-2.51a3.05,3.05,0,0,0,.3-.63l2.67-.43a.85.85,0,0,0,.62-.47.83.83,0,0,0-.08-.78l-1.58-2.24c.07-.24.11-.43.19-.67l2.55-1a.71.71,0,0,0,.5-.59.88.88,0,0,0-.23-.74l-2-1.88c0-.24,0-.47.08-.67l2.31-1.45a.8.8,0,0,0,.39-.67.88.88,0,0,0-.42-.71ZM71.77,83.69a1.63,1.63,0,0,1-1.23-2,1.6,1.6,0,0,1,1.93-1.25,1.63,1.63,0,0,1,1.24,2A1.66,1.66,0,0,1,71.77,83.69ZM71,78.32a1.51,1.51,0,0,0-1.77,1.18l-.81,3.88a19.47,19.47,0,0,1-8.31,1.8,19.76,19.76,0,0,1-8.46-1.88l-.81-3.88A1.49,1.49,0,0,0,49,78.24L45.67,79a23.09,23.09,0,0,1-1.74-2.08H60.34c.2,0,.31,0,.31-.2V70.83c0-.16-.11-.2-.31-.2H55.55V66.9h5.18a3.31,3.31,0,0,1,3.2,2.83c.2.82.66,3.49,1,4.35S66.48,77,67.8,77H76a.91.91,0,0,0,.31,0,19.8,19.8,0,0,1-1.85,2.19L71,78.32ZM48.29,83.61a1.63,1.63,0,0,1-1.93-1.25,1.66,1.66,0,0,1,1.24-2,1.64,1.64,0,0,1,.69,3.21ZM42.07,58a1.72,1.72,0,0,1-.81,2.2,1.64,1.64,0,0,1-2.16-.87,1.7,1.7,0,0,1,.81-2.19A1.67,1.67,0,0,1,42.07,58Zm-1.93,4.63L43.66,61a1.57,1.57,0,0,0,.77-2l-.73-1.65h2.85v13H40.8A20.49,20.49,0,0,1,40,64.78,19.58,19.58,0,0,1,40.14,62.59Zm15.41-1.3V57.45h6.76c.35,0,2.47.39,2.47,2,0,1.33-1.62,1.8-3,1.8Zm24.64,3.46c0,.51,0,1,0,1.53h-2c-.19,0-.27.15-.27.35v.94c0,2.28-1.28,2.75-2.36,2.86s-2.2-.43-2.35-1.09c-.62-3.54-1.66-4.28-3.29-5.58,2-1.29,4.14-3.21,4.14-5.8a6.59,6.59,0,0,0-3.17-5.38,8.78,8.78,0,0,0-4.33-1.45H45.16A20,20,0,0,1,56.4,44.7l2.51,2.67a1.46,1.46,0,0,0,2.09,0l2.82-2.75a20.18,20.18,0,0,1,13.75,9.93L75.64,59a1.51,1.51,0,0,0,.77,2l3.71,1.69c0,.74.07,1.41.07,2.08ZM58.91,42.42a1.64,1.64,0,0,1,2.32,0,1.73,1.73,0,0,1,0,2.36,1.64,1.64,0,0,1-2.32,0A1.67,1.67,0,0,1,58.91,42.42ZM78,58a1.63,1.63,0,1,1,.81,2.19A1.66,1.66,0,0,1,78,58Z" transform="translate(-8.5 -5.89)"/><line class="cls-2" x1="51.47" x2="51.47" y2="22.13"/><path class="cls-2" d="M49.46,19.18" transform="translate(-8.5 -5.89)"/><path class="cls-2" d="M71.46,15.6a50,50,0,1,1-23.39.11" transform="translate(-8.5 -5.89)"/></svg>