<svg id="Layer_1" data-name="Layer 1" xmlns="http://www.w3.org/2000/svg" viewBox="0 0 120 120"><defs><style>.cls-1,.cls-2,.cls-3,.cls-4{fill:none;}.cls-2,.cls-3,.cls-4{stroke:#fff;stroke-width:3px;}.cls-2,.cls-3{stroke-linecap:round;}.cls-2{stroke-linejoin:round;}.cls-3,.cls-4{stroke-miterlimit:10;}</style></defs><rect class="cls-1" width="120" height="120"/><path class="cls-2" d="M101.83,66.16a59.09,59.09,0,0,0,.81-9.68V28.56C88.7,27.9,69.75,23.9,60.12,18c-9.63,5.9-28.59,9.9-42.53,10.56V56.48C17.59,87.55,43.46,118,60.12,118c5.3,0,11.55-3.09,17.59-8.31"/><rect class="cls-3" x="73.83" y="82.56" width="30.23" height="19.98" rx="3.88"/><path class="cls-4" d="M98,82.56V76.39a9.07,9.07,0,1,0-18.14,0v6.17"/><polyline class="cls-2" points="38.83 61.49 55.65 78.01 87.96 46.01"/><line class="cls-3" x1="88.94" y1="95.5" x2="88.94" y2="90.09"/></svg>