<svg id="Layer_1" data-name="Layer 1" xmlns="http://www.w3.org/2000/svg" viewBox="0 0 113 114.04"><defs><style>.cls-1,.cls-2{fill:none;stroke:#45328d;}.cls-1{stroke-linecap:round;stroke-linejoin:round;stroke-width:3px;}.cls-2{stroke-miterlimit:10;stroke-width:2px;}.cls-3{fill:#45328d;}</style></defs><rect class="cls-1" x="1.5" y="44.11" width="68.43" height="68.43" rx="2.52"/><line class="cls-2" x1="74.47" y1="67.88" x2="84.79" y2="67.88"/><polygon class="cls-3" points="80.8 71.27 84.2 67.88 80.8 64.49 83.68 64.49 87.07 67.88 83.68 71.27 80.8 71.27"/><line class="cls-2" x1="73.3" y1="40.68" x2="84.48" y2="29.5"/><polygon class="cls-3" points="84.06 34.71 84.06 29.92 79.26 29.92 81.3 27.88 86.09 27.88 86.09 32.68 84.06 34.71"/><line class="cls-2" x1="45.48" y1="39.7" x2="45.48" y2="29.19"/><polygon class="cls-3" points="48.87 33.17 45.48 29.78 42.09 33.17 42.09 30.3 45.48 26.91 48.87 30.3 48.87 33.17"/><path class="cls-1" d="M30.49,42.76V28.18a2.77,2.77,0,0,1,2.77-2.77H91.33a2.76,2.76,0,0,1,2.76,2.77V86.25A2.76,2.76,0,0,1,91.33,89H78" transform="translate(-3.5 -2.98)"/><line class="cls-2" x1="95.38" y1="46.95" x2="105.69" y2="46.95"/><polygon class="cls-3" points="101.71 50.34 105.1 46.95 101.71 43.56 104.59 43.56 107.98 46.95 104.59 50.34 101.71 50.34"/><line class="cls-2" x1="94.2" y1="19.75" x2="105.38" y2="8.57"/><polygon class="cls-3" points="104.96 13.78 104.97 8.99 100.17 8.99 102.2 6.95 107 6.95 107 11.75 104.96 13.78"/><line class="cls-2" x1="66.39" y1="18.77" x2="66.39" y2="8.26"/><polygon class="cls-3" points="69.78 12.24 66.39 8.85 63 12.24 63 9.37 66.39 5.97 69.78 9.37 69.78 12.24"/><path class="cls-1" d="M51.39,21.82V7.25a2.77,2.77,0,0,1,2.77-2.77h58.07A2.77,2.77,0,0,1,115,7.25V65.32a2.77,2.77,0,0,1-2.77,2.77H98.88" transform="translate(-3.5 -2.98)"/><path class="cls-3" d="M17.1,86A4.3,4.3,0,0,0,19,87.54a5.6,5.6,0,0,0,2.33.51,4.75,4.75,0,0,0,1.37-.21,4.14,4.14,0,0,0,1.27-.61,3.48,3.48,0,0,0,.93-1,2.68,2.68,0,0,0,.37-1.4,2.11,2.11,0,0,0-.73-1.72,6.54,6.54,0,0,0-1.8-1c-.72-.26-1.5-.52-2.35-.76a9.67,9.67,0,0,1-2.34-1,5.56,5.56,0,0,1-1.8-1.78,5.37,5.37,0,0,1-.73-3,5.07,5.07,0,0,1,.38-1.82A5,5,0,0,1,17,72a6.53,6.53,0,0,1,2.08-1.33,7.83,7.83,0,0,1,3.06-.54,11,11,0,0,1,3.1.44,5.36,5.36,0,0,1,2.6,1.78l-2.18,2A3.65,3.65,0,0,0,24.28,73a4.63,4.63,0,0,0-2.1-.47,5.17,5.17,0,0,0-1.85.29,3.31,3.31,0,0,0-1.19.74,2.57,2.57,0,0,0-.63,1,2.89,2.89,0,0,0-.18,1,2.43,2.43,0,0,0,.72,1.89,5.64,5.64,0,0,0,1.81,1.07,20.19,20.19,0,0,0,2.34.74,10.36,10.36,0,0,1,2.35.92,5.62,5.62,0,0,1,1.8,1.6,4.66,4.66,0,0,1,.72,2.76A5.75,5.75,0,0,1,27.53,87a5.43,5.43,0,0,1-1.47,1.9,6.49,6.49,0,0,1-2.17,1.18,8.76,8.76,0,0,1-2.69.41,9.91,9.91,0,0,1-3.6-.66,5.91,5.91,0,0,1-2.71-2Z" transform="translate(-3.5 -2.98)"/><path class="cls-3" d="M32,70.58h7a8.23,8.23,0,0,1,3.13.51,5.4,5.4,0,0,1,1.94,1.29,4.47,4.47,0,0,1,1,1.76,6.45,6.45,0,0,1,0,3.76,4.47,4.47,0,0,1-1,1.76A5.4,5.4,0,0,1,42.12,81a8.23,8.23,0,0,1-3.13.51H34.72V90H32Zm2.68,8.57h3.52A10.12,10.12,0,0,0,39.79,79a4.11,4.11,0,0,0,1.36-.45,2.6,2.6,0,0,0,1-1,3.78,3.78,0,0,0,0-3.22,2.57,2.57,0,0,0-1-.94A4.36,4.36,0,0,0,39.79,73a10.12,10.12,0,0,0-1.55-.12H34.72Z" transform="translate(-3.5 -2.98)"/><path class="cls-3" d="M50.91,70.58V82.5a7.84,7.84,0,0,0,.25,1.88,5.49,5.49,0,0,0,.84,1.8,4.49,4.49,0,0,0,1.54,1.35,4.76,4.76,0,0,0,2.34.52,4.83,4.83,0,0,0,2.35-.52,4.55,4.55,0,0,0,1.53-1.35,5.49,5.49,0,0,0,.84-1.8,7.37,7.37,0,0,0,.25-1.88V70.58h2.68V82.91A7.84,7.84,0,0,1,63,86a7.63,7.63,0,0,1-1.62,2.41A7,7,0,0,1,58.9,90a8.54,8.54,0,0,1-6,0,7,7,0,0,1-2.43-1.56A7.31,7.31,0,0,1,48.82,86a7.84,7.84,0,0,1-.59-3.09V70.58Z" transform="translate(-3.5 -2.98)"/></svg>