<svg id="Layer_1" data-name="Layer 1" xmlns="http://www.w3.org/2000/svg" viewBox="0 0 113.88 112.27"><defs><style>.cls-1,.cls-2,.cls-3{fill:none;stroke:#45328d;}.cls-1,.cls-2{stroke-linecap:round;stroke-miterlimit:10;}.cls-1{stroke-width:3px;}.cls-2,.cls-3{stroke-width:5px;stroke-dasharray:5 6;}.cls-3{stroke-linejoin:round;}.cls-4{fill:#45328d;}</style></defs><path class="cls-1" d="M60,37.23c-.39-.64-5.89-6.88-14.11-6.88-7.91,0-12,4.62-13.56,9.51-.92,2.82-.51,5.91.86,9.19" transform="translate(-4.41 -3.19)"/><path class="cls-1" d="M48.44,80.55c3.9,5,7.93,10.11,11.77,15.1" transform="translate(-4.41 -3.19)"/><path class="cls-1" d="M72.4,79.71c-4,5.33-8.14,10.68-12.19,15.94" transform="translate(-4.41 -3.19)"/><path class="cls-1" d="M60,37.23c.37-.64,5.7-6.88,13.67-6.88,7.66,0,11.58,4.62,13.13,9.51a13.54,13.54,0,0,1-.35,8.38" transform="translate(-4.41 -3.19)"/><path class="cls-2" d="M111.67,54.11" transform="translate(-4.41 -3.19)"/><line class="cls-3" x1="15.17" y1="55.14" x2="113.88" y2="55.14"/><line class="cls-3" x1="1.59" y1="67.23" x2="98.23" y2="67.23"/><path class="cls-1" d="M108.37,83.69a53.19,53.19,0,0,1-97.28-2.92" transform="translate(-4.41 -3.19)"/><polygon class="cls-4" points="96.87 83.89 103.58 81.3 106.17 88.01 107.92 84.07 105.33 77.35 98.62 79.94 96.87 83.89"/><path class="cls-1" d="M9,44.89A53.17,53.17,0,0,1,112.6,47.14" transform="translate(-4.41 -3.19)"/><polygon class="cls-4" points="10.88 37.02 4.79 40.84 0.96 34.74 0 38.95 3.82 45.05 9.91 41.22 10.88 37.02"/></svg>