<svg id="Layer_1" data-name="Layer 1" xmlns="http://www.w3.org/2000/svg" viewBox="0 0 114.17 104.17"><defs><style>.cls-1{fill:#45328d;}.cls-2{fill:none;stroke:#45328d;stroke-linecap:round;stroke-miterlimit:10;stroke-width:3px;}</style></defs><path class="cls-1" d="M76.31,46.93a5.3,5.3,0,0,0-1.89,3.16l-.79-1c-2.1-2.56-6.41-3.64-9.2-1.35A5.43,5.43,0,0,0,62.54,51c-2-2.45-6.43-3.45-9.1-1.24a5.3,5.3,0,0,0-1.89,3.16l-6.92-8.4c-2.1-2.55-6.41-3.64-9.2-1.34s-2.54,6.74-.44,9.29L53.55,75a25,25,0,0,0-7.82-2.29c-3.11-.29-6.63,2.43-7.24,5.61-.1,1-.34,4.39,4.92,5.76,4.88,1.34,12.48,6.86,15.8,10.9,7,8.5,15.73,7.74,18.53,7.22l4.73,5.74a1.39,1.39,0,0,0,2.14-1.77l-5.25-6.38a1.33,1.33,0,0,0-1.43-.43c-.41.16-9.48,2.47-16.58-6.15C58.11,89.25,50,82.9,44.07,81.36c-1.53-.34-3.23-1.08-2.88-2.62a4.61,4.61,0,0,1,4.27-3.34c4.86.45,11.86,4.15,14,6.81a1.39,1.39,0,0,0,2.14-1.77L37.13,50.66c-1.22-1.49-1.45-4.16,0-5.4s4.08-.5,5.31,1L61.75,69.64a1.39,1.39,0,0,0,2.14-1.76L55.14,57.24c-1.23-1.49-1.45-4.16,0-5.39s4.07-.51,5.3,1l9.63,11.7a1.39,1.39,0,0,0,2.14-1.77l-6.13-7.44c-1.22-1.49-1.44-4.16.05-5.4s4.08-.51,5.31,1L75.69,56l.18.21,3.5,4.25a1.39,1.39,0,0,0,2.14-1.76l-3.68-4.47c-1-1.47-1.16-4,.23-5.18s4.08-.51,5.3,1L95.62,64.93c6.65,8.08,6.65,8.08,7,14.59a1.31,1.31,0,0,0,.4.92l5.17,6.28a1.3,1.3,0,0,0,1.94.18,1.31,1.31,0,0,0,.2-2l-5-6.06c-.29-6.9-.73-7.43-7.56-15.73L85.5,48.27C83.4,45.72,79.09,44.63,76.31,46.93Z" transform="translate(-3.6 -12.55)"/><line class="cls-2" x1="10.48" y1="5.16" x2="25.01" y2="22.81"/><line class="cls-2" x1="1.5" y1="31.52" x2="18.23" y2="32.79"/><line class="cls-2" x1="38.65" y1="1.5" x2="37.32" y2="19.07"/><line class="cls-2" x1="58.92" y1="15.33" x2="48.99" y2="23.87"/><line class="cls-2" x1="11.23" y1="52.9" x2="21.22" y2="44.32"/><line class="cls-2" x1="80.19" y1="93.96" x2="105.14" y2="73.34"/><line class="cls-2" x1="79.6" y1="95.92" x2="85.35" y2="102.67"/><line class="cls-2" x1="106.85" y1="72.44" x2="112.67" y2="79.42"/><line class="cls-2" x1="85.35" y1="102.67" x2="112.67" y2="79.42"/></svg>