<svg id="Layer_1" data-name="Layer 1" xmlns="http://www.w3.org/2000/svg" viewBox="0 0 113 113"><defs><style>.cls-1,.cls-3,.cls-4{fill:none;stroke:#45328d;stroke-width:3px;}.cls-1{stroke-linecap:round;stroke-linejoin:round;}.cls-2{fill:#45328d;}.cls-3,.cls-4{stroke-miterlimit:10;}.cls-4{stroke-dasharray:4.35 6.52;}</style></defs><path class="cls-1" d="M72.2,5a2.61,2.61,0,0,0-2.56,2.17A10.17,10.17,0,0,1,59.21,16a10.16,10.16,0,0,1-10.43-8.8A2.6,2.6,0,0,0,46.23,5H7.62A2.59,2.59,0,0,0,5,7.6V112.4A2.59,2.59,0,0,0,7.62,115H112.43a2.59,2.59,0,0,0,2.6-2.6V7.6a2.59,2.59,0,0,0-2.6-2.6Z" transform="translate(-3.53 -3.5)"/><path class="cls-2" d="M61.45,87.08H64.6a1.35,1.35,0,0,1,.82.23,1.07,1.07,0,0,1,.44.62L69.3,100c.08.3.15.62.22,1s.14.73.22,1.12c.07-.39.15-.77.24-1.12s.19-.67.29-1l4-12.11a1.33,1.33,0,0,1,.44-.59,1.26,1.26,0,0,1,.8-.26H76.6a1.29,1.29,0,0,1,.8.24,1.42,1.42,0,0,1,.46.61l4,12.11a17.32,17.32,0,0,1,.53,2c.12-.73.26-1.4.41-2L86.2,87.93a1.08,1.08,0,0,1,.43-.6,1.33,1.33,0,0,1,.82-.25h3l-6.28,20.24H80.71L76.29,93.49c-.06-.18-.13-.37-.18-.57s-.11-.42-.17-.65c0,.23-.1.44-.16.65s-.12.39-.18.57l-4.46,13.83H67.72Z" transform="translate(-3.53 -3.5)"/><path class="cls-2" d="M108.91,107.32H106a1.25,1.25,0,0,1-.8-.24,1.52,1.52,0,0,1-.46-.61l-1.51-4.13H94.84l-1.51,4.13a1.32,1.32,0,0,1-.44.58,1.18,1.18,0,0,1-.79.27H89.16l8-20.24H101Zm-13.1-7.64h6.45L99.8,92.94c-.12-.3-.25-.65-.38-1S99.16,91,99,90.56c-.14.48-.26.92-.39,1.33s-.25.77-.37,1.08Z" transform="translate(-3.53 -3.5)"/><polyline class="cls-3" points="49.32 71.57 49.32 73.57 47.32 73.57"/><line class="cls-4" x1="40.8" y1="73.57" x2="22.31" y2="73.57"/><polyline class="cls-3" points="19.05 73.57 17.05 73.57 17.05 71.57"/><line class="cls-4" x1="17.05" y1="65.05" x2="17.05" y2="46.56"/><polyline class="cls-3" points="17.05 43.3 17.05 41.3 19.05 41.3"/><line class="cls-4" x1="25.57" y1="41.3" x2="44.06" y2="41.3"/><polyline class="cls-3" points="47.32 41.3 49.32 41.3 49.32 43.3"/><line class="cls-4" x1="49.32" y1="49.82" x2="49.32" y2="68.31"/><polyline class="cls-3" points="96.75 54.69 96.75 56.69 94.75 56.69"/><line class="cls-4" x1="88.23" y1="56.69" x2="69.74" y2="56.69"/><polyline class="cls-3" points="66.48 56.69 64.48 56.69 64.48 54.69"/><line class="cls-4" x1="64.48" y1="48.17" x2="64.48" y2="29.68"/><polyline class="cls-3" points="64.48 26.42 64.48 24.42 66.48 24.42"/><line class="cls-4" x1="73" y1="24.42" x2="91.49" y2="24.42"/><polyline class="cls-3" points="94.75 24.42 96.75 24.42 96.75 26.42"/><line class="cls-4" x1="96.75" y1="32.94" x2="96.75" y2="51.43"/></svg>