<?xml version="1.0" encoding="UTF-8"?><svg id="Layer_1" xmlns="http://www.w3.org/2000/svg" xmlns:xlink="http://www.w3.org/1999/xlink" viewBox="0 0 540 137"><defs><style>.cls-1,.cls-2,.cls-3,.cls-4{fill:none;}.cls-2,.cls-3{stroke-linecap:round;stroke-linejoin:round;}.cls-2,.cls-3,.cls-4{stroke:#a2a2a2;}.cls-5{clip-path:url(#clippath);}.cls-6{font-family:Avenir-Heavy, Avenir;}.cls-6,.cls-7,.cls-8{fill:#43419a;}.cls-6,.cls-9,.cls-8{font-size:18px;}.cls-3,.cls-4{stroke-width:1.25px;}.cls-4{stroke-miterlimit:10;}.cls-10{fill:#fff;font-family:HelveticaNeue-Medium, 'Helvetica Neue';font-size:16px;}.cls-9{fill:#5f5f5f;}.cls-9,.cls-8{font-family:Avenir-Medium, Avenir;}</style><clipPath id="clippath"><rect class="cls-1" x="19.05" y="25.75" width="503" height="102"/></clipPath></defs><g class="cls-5"><path class="cls-7" d="M76.01,31.24c5.99,5.99,5.99,15.71,0,21.7-5.99,5.99-15.71,5.99-21.7,0-5.99-5.99-5.99-15.71,0-21.7,5.99-5.99,15.71-5.99,21.7,0"/><path class="cls-2" d="M76.01,31.24c5.99,5.99,5.99,15.71,0,21.7s-15.71,5.99-21.7,0c-5.99-5.99-5.99-15.71,0-21.7,5.99-5.99,15.71-5.99,21.7,0"/><text class="cls-10" transform="translate(60.71 48.36)"><tspan x="0" y="0">1</tspan></text><path class="cls-7" d="M283.99,31.24c5.99,5.99,5.99,15.71,0,21.7-5.99,5.99-15.71,5.99-21.7,0-5.99-5.99-5.99-15.71,0-21.7,5.99-5.99,15.71-5.99,21.7,0"/><path class="cls-2" d="M283.99,31.24c5.99,5.99,5.99,15.71,0,21.7-5.99,5.99-15.71,5.99-21.7,0-5.99-5.99-5.99-15.71,0-21.7,5.99-5.99,15.71-5.99,21.7,0"/><text class="cls-10" transform="translate(268.69 48.36)"><tspan x="0" y="0">2</tspan></text><text class="cls-9" transform="translate(256.29 88.75)"><tspan x="0" y="0">Join</tspan></text><text class="cls-8" transform="translate(211.64 115.75)"><tspan x="0" y="0">InfinyOn Cloud</tspan></text><text class="cls-6" transform="translate(334.65 115.75)"><tspan x="0" y="0"> </tspan></text><text class="cls-9" transform="translate(41.34 88.75)"><tspan x="0" y="0">Install</tspan></text><text class="cls-8" transform="translate(24.81 115.75)"><tspan x="0" y="0">Fluvio CLI</tspan></text><text class="cls-9" transform="translate(458.45 88.75)"><tspan x="0" y="0">Login</tspan></text><text class="cls-8" transform="translate(445.6 115.75)"><tspan x="0" y="0">to Cloud</tspan></text><path class="cls-7" d="M491.98,31.24c5.99,5.99,5.99,15.71,0,21.7-5.99,5.99-15.71,5.99-21.7,0-5.99-5.99-5.99-15.71,0-21.7,5.99-5.99,15.71-5.99,21.7,0"/><path class="cls-2" d="M491.98,31.24c5.99,5.99,5.99,15.71,0,21.7-5.99,5.99-15.71,5.99-21.7,0s-5.99-15.71,0-21.7,15.71-5.99,21.7,0"/><text class="cls-10" transform="translate(476.68 48.36)"><tspan x="0" y="0">3</tspan></text><line class="cls-3" x1="109.64" y1="42.69" x2="218.01" y2="42.69"/><path class="cls-4" d="M218.01,39.54l8.4,3.15-8.4,3.15m8.4-3.15h-8.4"/><line class="cls-3" x1="317.62" y1="42.69" x2="426" y2="42.69"/><path class="cls-4" d="M426,39.54l8.4,3.15-8.4,3.15m8.4-3.15h-8.4"/></g></svg>