<svg id="Layer_1" data-name="Layer 1" xmlns="http://www.w3.org/2000/svg" viewBox="0 0 379.75 223.15"><defs><style>.cls-1{fill:#92278f;}.cls-2,.cls-4,.cls-6,.cls-7,.cls-9{fill:none;}.cls-2,.cls-6{stroke:#6d6e71;}.cls-2,.cls-7,.cls-9{stroke-miterlimit:10;}.cls-3{fill:#6d6e71;}.cls-4,.cls-9{stroke:#92278f;}.cls-4,.cls-5,.cls-6{stroke-linecap:round;stroke-linejoin:round;}.cls-4{stroke-dasharray:4 4;}.cls-5{fill:#e6e7e8;stroke:#414042;}.cls-7{stroke:#231f20;}.cls-8{fill:#231f20;}</style></defs><path class="cls-1" d="M218,168.13v-4.72H219V167h2.91v-3.31h.94V167h4v1.14Z"/><path class="cls-1" d="M218.7,160.56a.71.71,0,0,1,0,1.42.7.7,0,0,1-.71-.72A.67.67,0,0,1,218.7,160.56Zm8.06,1.27h-6.29v-1.14h6.29Z"/><path class="cls-1" d="M217.53,158.79v-1.14h9.23v1.14Z"/><path class="cls-1" d="M218.66,154.35h1.81v-1.64h.87v1.64h3.39c.78,0,1.23-.23,1.23-.86a2.58,2.58,0,0,0-.08-.67l.86,0a2.85,2.85,0,0,1,.15,1,1.58,1.58,0,0,1-.48,1.23,2.32,2.32,0,0,1-1.64.44h-3.43v1h-.87v-1H219Z"/><path class="cls-1" d="M223.82,150.78a2,2,0,0,0,2.19-2.15,4.2,4.2,0,0,0-.33-1.75l.82-.19a5.11,5.11,0,0,1,.39,2.09,2.92,2.92,0,0,1-3.17,3.1c-1.9,0-3.39-1.12-3.39-3,0-2,1.8-2.6,3-2.6a4.82,4.82,0,0,1,.53,0Zm-.82-3.35a1.63,1.63,0,0,0-1.85,1.59,1.89,1.89,0,0,0,1.85,1.75Z"/><path class="cls-1" d="M222.43,144.91c-.74,0-1.38,0-2,.05v-1l1.23,0v0a1.89,1.89,0,0,1-1.37-1.74,1.11,1.11,0,0,1,0-.33h1.07a2.21,2.21,0,0,0,0,.39,1.59,1.59,0,0,0,1.46,1.53,2.87,2.87,0,0,0,.54.06h3.35v1.13Z"/><path class="cls-1" d="M264.44,169.67a4,4,0,0,0,.58-2c0-1.16-.62-1.83-1.5-1.83s-1.29.47-1.74,1.65c-.51,1.43-1.25,2.31-2.49,2.31s-2.37-1.13-2.37-2.83a4,4,0,0,1,.42-1.94l.93.31a3.45,3.45,0,0,0-.42,1.67c0,1.19.72,1.65,1.31,1.65.82,0,1.23-.53,1.69-1.74.58-1.49,1.29-2.24,2.58-2.24s2.52,1,2.52,3.07a4.52,4.52,0,0,1-.56,2.23Z"/><path class="cls-1" d="M256.59,163.14V162h3.93v0a2.13,2.13,0,0,1-.81-.82,2.41,2.41,0,0,1-.32-1.17c0-.84.52-2.19,2.69-2.19h3.74v1.14h-3.61c-1,0-1.88.38-1.88,1.46a1.64,1.64,0,0,0,1.15,1.53,1.26,1.26,0,0,0,.54.08h3.8v1.14Z"/><path class="cls-1" d="M265.82,152.44l-.79.09v0a2.36,2.36,0,0,1,.93,1.93,1.79,1.79,0,0,1-1.8,1.92c-1.52,0-2.36-1.35-2.34-3.78h-.13a1.3,1.3,0,0,0-1.46,1.43,3.14,3.14,0,0,0,.47,1.64l-.76.26a4,4,0,0,1-.55-2.07c0-1.92,1.31-2.39,2.57-2.39h2.35a8.62,8.62,0,0,0,1.51-.11Zm-3.21.17c0,1.25.2,2.67,1.42,2.67a1,1,0,0,0,1.09-1.08,1.56,1.56,0,0,0-1.05-1.52,1.21,1.21,0,0,0-.37-.07Z"/><path class="cls-1" d="M261.58,149.66c-.8,0-1.45,0-2.05.05v-1l1.08-.06v0a2.47,2.47,0,0,1-1.22-2.24c0-1.52,1.28-2.66,3.19-2.66,2.27,0,3.38,1.38,3.38,2.86a2.19,2.19,0,0,1-1,1.93v0h3.41v1.13Zm1.68-1.13a3.39,3.39,0,0,0,.47-.05,1.77,1.77,0,0,0,1.34-1.72c0-1.21-1-1.91-2.43-1.91-1.27,0-2.34.66-2.34,1.87a1.82,1.82,0,0,0,1.41,1.73,1.85,1.85,0,0,0,.47.08Z"/><path class="cls-1" d="M262.88,141.63a2,2,0,0,0,2.19-2.16,4.15,4.15,0,0,0-.33-1.74l.82-.2a5.16,5.16,0,0,1,.39,2.1,2.92,2.92,0,0,1-3.17,3.09c-1.9,0-3.39-1.12-3.39-2.95,0-2.06,1.8-2.6,3-2.6a3.17,3.17,0,0,1,.53,0Zm-.82-3.36a1.64,1.64,0,0,0-1.86,1.59,1.89,1.89,0,0,0,1.86,1.75Z"/><line class="cls-2" x1="8.12" y1="141.25" x2="66.62" y2="141.25"/><polygon class="cls-3" points="60.71 144.43 60.37 143.49 66.53 141.25 60.37 139.01 60.71 138.07 69.45 141.25 60.71 144.43"/><line class="cls-2" x1="308.43" y1="141.25" x2="366.94" y2="141.25"/><polygon class="cls-3" points="361.02 144.43 360.68 143.49 366.84 141.25 360.68 139.01 361.02 138.07 369.76 141.25 361.02 144.43"/><rect class="cls-4" x="207.67" y="106.19" width="26.65" height="76.89" rx="4.54"/><rect class="cls-4" x="248.33" y="107.12" width="26.65" height="76.89" rx="4.54"/><rect class="cls-5" x="147.74" y="107.52" width="26.65" height="76.89" rx="4.54"/><path d="M161.86,164.4v3.41H165V164h1v4.93H157.2v-4.73h1v3.6h2.77V164.4Z"/><path d="M159.67,162.05l1.35-.9c.35-.23.68-.43,1-.63v0c-.38-.21-.7-.42-1-.63l-1.34-.88v-1.24l3,2.15,3.25-2.21V159l-1.41.92c-.37.25-.72.46-1.1.68v0c.38.21.72.43,1.1.67l1.41.91v1.26l-3.21-2.24-3.08,2.13Z"/><path d="M157.86,155.19h1.81v-1.64h.87v1.64h3.4c.78,0,1.22-.23,1.22-.86a2.58,2.58,0,0,0-.08-.67l.86,0a2.85,2.85,0,0,1,.15,1,1.58,1.58,0,0,1-.48,1.23,2.3,2.3,0,0,1-1.64.44h-3.43v1h-.87v-1h-1.51Z"/><path d="M161.63,152.26c-.74,0-1.37,0-2,.05v-1l1.24,0v-.05a1.88,1.88,0,0,1-1.38-1.74,1.15,1.15,0,0,1,0-.33h1.08a1.56,1.56,0,0,0,0,.39,1.61,1.61,0,0,0,1.47,1.54,3.83,3.83,0,0,0,.53,0H166v1.13Z"/><path d="M166,144.53l-.79.09v0a2.34,2.34,0,0,1,.94,1.92,1.79,1.79,0,0,1-1.81,1.92c-1.52,0-2.35-1.35-2.34-3.78h-.13a1.3,1.3,0,0,0-1.46,1.43,3.18,3.18,0,0,0,.47,1.64l-.75.26a3.91,3.91,0,0,1-.56-2.07c0-1.92,1.31-2.39,2.57-2.39h2.36a9.75,9.75,0,0,0,1.5-.1Zm-3.21.16c0,1.25.2,2.67,1.42,2.67a1,1,0,0,0,1.09-1.08,1.56,1.56,0,0,0-1-1.52,1.21,1.21,0,0,0-.37-.07Z"/><path d="M165.73,137.26a4.17,4.17,0,0,1,.36,1.81,3,3,0,0,1-3.21,3.13,3.2,3.2,0,0,1-3.34-3.38,3.75,3.75,0,0,1,.33-1.59l.88.26a2.66,2.66,0,0,0-.3,1.33,2.18,2.18,0,0,0,2.38,2.22,2.15,2.15,0,0,0,2.35-2.18,3.35,3.35,0,0,0-.31-1.41Z"/><path d="M157.86,134.54h1.81V132.9h.87v1.64h3.4c.78,0,1.22-.22,1.22-.86a2.44,2.44,0,0,0-.08-.66l.86-.05a2.82,2.82,0,0,1,.15,1,1.59,1.59,0,0,1-.48,1.24,2.35,2.35,0,0,1-1.64.44h-3.43v1h-.87v-1h-1.51Z"/><rect class="cls-5" x="108.01" y="107.56" width="26.65" height="76.89" rx="4.54"/><path d="M117,169a13.13,13.13,0,0,1-.17-2.17,3.59,3.59,0,0,1,.73-2.46,2.35,2.35,0,0,1,1.83-.76,2.56,2.56,0,0,1,1.87.67,3.64,3.64,0,0,1,1,2.68,4.16,4.16,0,0,1-.08.91h3.51V169Zm4.23-1.13a4.06,4.06,0,0,0,.09-.93c0-1.37-.67-2.2-1.87-2.2s-1.72.82-1.72,2.07a4.82,4.82,0,0,0,.09,1.06Z"/><path d="M121.28,162.11c-.74,0-1.38,0-2,0v-1l1.23,0v-.05a1.91,1.91,0,0,1-1.38-1.75,1.47,1.47,0,0,1,0-.32h1.08a2.13,2.13,0,0,0,0,.39,1.59,1.59,0,0,0,1.47,1.53,2.89,2.89,0,0,0,.53.05h3.36v1.14Z"/><path d="M122.41,152.16a3.07,3.07,0,0,1,3.34,3.13,3,3,0,0,1-3.23,3,3.08,3.08,0,0,1-3.35-3.12A3,3,0,0,1,122.41,152.16Zm.07,5c1.37,0,2.41-.79,2.41-1.91s-1-1.91-2.44-1.91c-1.07,0-2.42.53-2.42,1.89S121.28,157.15,122.48,157.15Z"/><path d="M117.51,149.34h1.81V147.7h.87v1.64h3.39c.78,0,1.22-.22,1.22-.86a3.06,3.06,0,0,0-.07-.66l.85,0a2.79,2.79,0,0,1,.16,1,1.62,1.62,0,0,1-.48,1.24,2.37,2.37,0,0,1-1.64.44h-3.43v1h-.87v-1h-1.51Z"/><path d="M122.41,140.72a3.07,3.07,0,0,1,3.34,3.13,3,3,0,0,1-3.23,3,3.08,3.08,0,0,1-3.35-3.12A3,3,0,0,1,122.41,140.72Zm.07,5c1.37,0,2.41-.79,2.41-1.91s-1-1.91-2.44-1.91c-1.07,0-2.42.53-2.42,1.89S121.28,145.71,122.48,145.71Z"/><path d="M125.37,134.79a4.17,4.17,0,0,1,.37,1.81,3,3,0,0,1-3.21,3.13,3.19,3.19,0,0,1-3.34-3.38,3.92,3.92,0,0,1,.32-1.58l.89.26a2.59,2.59,0,0,0-.3,1.32,2.37,2.37,0,0,0,4.73,0,3.26,3.26,0,0,0-.31-1.4Z"/><path d="M122.41,127.76a3.07,3.07,0,0,1,3.34,3.13,3,3,0,0,1-3.23,3,3.08,3.08,0,0,1-3.35-3.12A3,3,0,0,1,122.41,127.76Zm.07,5c1.37,0,2.41-.79,2.41-1.91s-1-1.91-2.44-1.91c-1.07,0-2.42.53-2.42,1.89S121.28,132.75,122.48,132.75Z"/><path d="M116.38,126.32v-1.15h9.23v1.15Z"/><rect class="cls-6" x="77.25" y="85.26" width="224.13" height="120.18" rx="4.54"/><line class="cls-7" x1="141.66" y1="43.21" x2="141.66" y2="72.42"/><polygon class="cls-8" points="138.48 66.51 139.42 66.17 141.66 72.33 143.9 66.17 144.84 66.51 141.66 75.25 138.48 66.51"/><line class="cls-9" x1="242.66" y1="42.8" x2="242.66" y2="72.02"/><polygon class="cls-1" points="239.48 66.1 240.42 65.76 242.66 71.92 244.91 65.76 245.84 66.1 242.66 74.84 239.48 66.1"/><path class="cls-8" d="M122.1,12.14a12.67,12.67,0,0,1,2-.15,3.32,3.32,0,0,1,2.27.67,2.15,2.15,0,0,1,.71,1.69,2.42,2.42,0,0,1-.62,1.73A3.38,3.38,0,0,1,124,17a3.44,3.44,0,0,1-.83-.08v3.24H122.1Zm1.05,3.9a3.38,3.38,0,0,0,.86.09c1.26,0,2-.62,2-1.73s-.76-1.58-1.91-1.58a4.2,4.2,0,0,0-1,.08Z"/><path class="cls-8" d="M128.26,16.14c0-.69,0-1.27,0-1.81h.92l0,1.14h.05a1.75,1.75,0,0,1,1.6-1.28,1.28,1.28,0,0,1,.3,0v1a1.23,1.23,0,0,0-.36,0,1.47,1.47,0,0,0-1.41,1.36,2.38,2.38,0,0,0,0,.49v3.09h-1Z"/><path class="cls-8" d="M137.31,17.18a2.83,2.83,0,0,1-2.89,3.08,2.76,2.76,0,0,1-2.78-3,2.84,2.84,0,0,1,2.88-3.09A2.75,2.75,0,0,1,137.31,17.18Zm-4.6.06c0,1.27.73,2.23,1.76,2.23s1.77-.95,1.77-2.25c0-1-.5-2.23-1.74-2.23S132.71,16.14,132.71,17.24Z"/><path class="cls-8" d="M139.92,12.66v1.67h1.51v.8h-1.51v3.13c0,.72.2,1.13.79,1.13a2.6,2.6,0,0,0,.61-.07l.05.79a2.67,2.67,0,0,1-.93.14,1.44,1.44,0,0,1-1.14-.44,2.15,2.15,0,0,1-.41-1.51V15.13H138v-.8h.9V12.94Z"/><path class="cls-8" d="M147.8,17.18a2.83,2.83,0,0,1-2.89,3.08,2.76,2.76,0,0,1-2.78-3A2.84,2.84,0,0,1,145,14.19,2.75,2.75,0,0,1,147.8,17.18Zm-4.6.06c0,1.27.73,2.23,1.76,2.23s1.76-.95,1.76-2.25c0-1-.49-2.23-1.74-2.23S143.2,16.14,143.2,17.24Z"/><path class="cls-8" d="M153.28,19.92a4,4,0,0,1-1.67.33,2.76,2.76,0,0,1-2.89-3,2.94,2.94,0,0,1,3.12-3.08,3.44,3.44,0,0,1,1.46.3l-.24.81a2.5,2.5,0,0,0-1.22-.27,2,2,0,0,0-2.06,2.19,2,2,0,0,0,2,2.17,2.9,2.9,0,0,0,1.3-.29Z"/><path class="cls-8" d="M159.69,17.18a2.83,2.83,0,0,1-2.89,3.08,2.76,2.76,0,0,1-2.78-3,2.84,2.84,0,0,1,2.88-3.09A2.75,2.75,0,0,1,159.69,17.18Zm-4.6.06c0,1.27.73,2.23,1.76,2.23s1.77-.95,1.77-2.25c0-1-.5-2.23-1.74-2.23S155.09,16.14,155.09,17.24Z"/><path class="cls-8" d="M161,11.62h1.06v8.51H161Z"/><path class="cls-8" d="M106.45,26H104v-.89h6V26h-2.47v7.19h-1.06Z"/><path class="cls-8" d="M110.31,29.24c0-.69,0-1.27,0-1.81h.92l0,1.14h0a1.74,1.74,0,0,1,1.6-1.28,1.28,1.28,0,0,1,.3,0v1a1.28,1.28,0,0,0-.36,0,1.47,1.47,0,0,0-1.41,1.36,2.38,2.38,0,0,0-.05.49v3.09h-1Z"/><path class="cls-8" d="M117.38,33.23l-.08-.73h0a2.13,2.13,0,0,1-1.77.86,1.65,1.65,0,0,1-1.78-1.66c0-1.41,1.25-2.17,3.49-2.16v-.12a1.2,1.2,0,0,0-1.31-1.35,2.88,2.88,0,0,0-1.52.44l-.24-.7a3.64,3.64,0,0,1,1.91-.52c1.78,0,2.21,1.22,2.21,2.38v2.17a8.39,8.39,0,0,0,.09,1.39Zm-.15-3c-1.15,0-2.46.18-2.46,1.31a.93.93,0,0,0,1,1,1.45,1.45,0,0,0,1.4-1,1.36,1.36,0,0,0,.06-.33Z"/><path class="cls-8" d="M120,29c0-.6,0-1.09,0-1.57h.93l.06,1h0a2.1,2.1,0,0,1,1.91-1.1c.81,0,2.06.48,2.06,2.48v3.46h-1.06V29.89c0-.94-.35-1.72-1.34-1.72a1.5,1.5,0,0,0-1.42,1.08,1.45,1.45,0,0,0-.07.49v3.49H120Z"/><path class="cls-8" d="M126.47,32.15a2.69,2.69,0,0,0,1.39.42c.77,0,1.13-.38,1.13-.86s-.3-.78-1.08-1.07c-1-.37-1.54-.95-1.54-1.64a1.8,1.8,0,0,1,2-1.71,2.9,2.9,0,0,1,1.42.36l-.26.77a2.32,2.32,0,0,0-1.19-.33c-.62,0-1,.36-1,.79s.35.69,1.11,1c1,.39,1.52.89,1.52,1.75,0,1-.79,1.74-2.17,1.74a3.27,3.27,0,0,1-1.63-.39Z"/><path class="cls-8" d="M131.47,33.23v-5h-.81v-.8h.81v-.28a2.73,2.73,0,0,1,.68-2,2,2,0,0,1,1.41-.54,2.52,2.52,0,0,1,.9.17l-.14.82a1.67,1.67,0,0,0-.68-.13c-.89,0-1.12.79-1.12,1.67v.32h1.4v.8h-1.4v5Z"/><path class="cls-8" d="M140,30.28a2.83,2.83,0,0,1-2.89,3.08,2.76,2.76,0,0,1-2.79-3,2.84,2.84,0,0,1,2.88-3.09A2.76,2.76,0,0,1,140,30.28Zm-4.61.06c0,1.27.73,2.23,1.76,2.23s1.77-.95,1.77-2.25c0-1-.49-2.23-1.74-2.23S135.36,29.24,135.36,30.34Z"/><path class="cls-8" d="M141.3,29.24c0-.69,0-1.27-.05-1.81h.93l0,1.14h0a1.76,1.76,0,0,1,1.61-1.28,1.36,1.36,0,0,1,.3,0v1a1.32,1.32,0,0,0-.36,0,1.49,1.49,0,0,0-1.42,1.36,3.47,3.47,0,0,0,0,.49v3.09h-1Z"/><path class="cls-8" d="M145.27,29c0-.6,0-1.09,0-1.57h.92l0,.93h0a2,2,0,0,1,1.83-1.07,1.71,1.71,0,0,1,1.64,1.17h0a2.35,2.35,0,0,1,.65-.76,2,2,0,0,1,1.28-.41c.77,0,1.91.51,1.91,2.52v3.42h-1V30c0-1.12-.41-1.79-1.26-1.79a1.36,1.36,0,0,0-1.25,1,2,2,0,0,0-.08.53v3.58h-1V29.75c0-.92-.41-1.59-1.21-1.59a1.45,1.45,0,0,0-1.31,1.05,1.5,1.5,0,0,0-.09.52v3.5h-1Z"/><path class="cls-8" d="M158.5,33.23l-.09-.73h0a2.16,2.16,0,0,1-1.78.86,1.65,1.65,0,0,1-1.77-1.66c0-1.41,1.24-2.17,3.49-2.16v-.12A1.21,1.21,0,0,0,157,28.07a2.82,2.82,0,0,0-1.51.44l-.24-.7a3.6,3.6,0,0,1,1.9-.52c1.78,0,2.21,1.22,2.21,2.38v2.17a7.38,7.38,0,0,0,.1,1.39Zm-.16-3c-1.15,0-2.46.18-2.46,1.31a.93.93,0,0,0,1,1,1.45,1.45,0,0,0,1.4-1,1,1,0,0,0,.06-.33Z"/><path class="cls-8" d="M162.29,25.76v1.67h1.51v.8h-1.51v3.13c0,.72.2,1.13.79,1.13a2.6,2.6,0,0,0,.61-.07l.05.79a2.69,2.69,0,0,1-.94.14,1.43,1.43,0,0,1-1.13-.44,2.15,2.15,0,0,1-.41-1.51V28.23h-.9v-.8h.9V26Z"/><path class="cls-8" d="M166.16,25.8a.65.65,0,0,1-1.3,0,.64.64,0,0,1,.66-.66A.62.62,0,0,1,166.16,25.8ZM165,33.23v-5.8h1.06v5.8Z"/><path class="cls-8" d="M173.05,30.28a2.83,2.83,0,0,1-2.89,3.08,2.76,2.76,0,0,1-2.78-3,2.84,2.84,0,0,1,2.88-3.09A2.76,2.76,0,0,1,173.05,30.28Zm-4.61.06c0,1.27.74,2.23,1.77,2.23s1.76-.95,1.76-2.25c0-1-.49-2.23-1.74-2.23S168.44,29.24,168.44,30.34Z"/><path class="cls-8" d="M174.39,29c0-.6,0-1.09,0-1.57h.93l.06,1h0a2.12,2.12,0,0,1,1.92-1.1c.8,0,2.05.48,2.05,2.48v3.46h-1.06V29.89c0-.94-.35-1.72-1.34-1.72a1.5,1.5,0,0,0-1.42,1.08,1.75,1.75,0,0,0-.07.49v3.49h-1.05Z"/><path class="cls-1" d="M212.69,11.64v4.79c0,1.81.8,2.57,1.88,2.57s2-.79,2-2.57V11.64h1.05v4.71c0,2.49-1.3,3.51-3.05,3.51s-2.91-.95-2.91-3.46V11.64Z"/><path class="cls-1" d="M219.16,18.64a2.69,2.69,0,0,0,1.39.42c.77,0,1.13-.38,1.13-.86s-.3-.78-1.08-1.07c-1-.37-1.54-.94-1.54-1.64a1.79,1.79,0,0,1,2-1.7,2.79,2.79,0,0,1,1.42.36l-.26.76a2.32,2.32,0,0,0-1.19-.33c-.62,0-1,.36-1,.79s.35.7,1.1,1c1,.39,1.53.89,1.53,1.75,0,1-.79,1.74-2.17,1.74a3.27,3.27,0,0,1-1.63-.39Z"/><path class="cls-1" d="M224.64,17a1.87,1.87,0,0,0,2,2,3.8,3.8,0,0,0,1.61-.3l.18.75a4.67,4.67,0,0,1-1.93.36,2.69,2.69,0,0,1-2.85-2.92c0-1.75,1-3.13,2.72-3.13a2.46,2.46,0,0,1,2.4,2.73,4,4,0,0,1,0,.49Zm3.1-.75a1.51,1.51,0,0,0-1.47-1.72,1.77,1.77,0,0,0-1.62,1.72Z"/><path class="cls-1" d="M230.07,15.73c0-.68,0-1.27,0-1.81h.92l0,1.14H231a1.74,1.74,0,0,1,1.6-1.27,1.32,1.32,0,0,1,.3,0v1a1.28,1.28,0,0,0-.36,0,1.48,1.48,0,0,0-1.41,1.36,2.38,2.38,0,0,0,0,.49v3.09h-1Z"/><path class="cls-1" d="M236.38,16.09v.78h-3v-.78Z"/><path class="cls-1" d="M242.84,11.21v7c0,.52,0,1.11,0,1.5h-.95l0-1h0a2.16,2.16,0,0,1-2,1.14c-1.4,0-2.48-1.19-2.48-2.95,0-1.94,1.19-3.12,2.6-3.12a1.94,1.94,0,0,1,1.75.88h0V11.21Zm-1.05,5.07a1.65,1.65,0,0,0,0-.44,1.56,1.56,0,0,0-1.52-1.23c-1.09,0-1.74,1-1.74,2.25s.57,2.14,1.71,2.14a1.67,1.67,0,0,0,1.6-1.71Z"/><path class="cls-1" d="M245.19,17a1.86,1.86,0,0,0,2,2,3.75,3.75,0,0,0,1.6-.3l.18.75a4.63,4.63,0,0,1-1.93.36,2.69,2.69,0,0,1-2.85-2.92c0-1.75,1-3.13,2.72-3.13a2.45,2.45,0,0,1,2.4,2.73,2.63,2.63,0,0,1,0,.49Zm3.09-.75a1.51,1.51,0,0,0-1.46-1.72,1.75,1.75,0,0,0-1.62,1.72Z"/><path class="cls-1" d="M250.72,19.72v-5h-.82v-.8h.82v-.31a2.32,2.32,0,0,1,2.53-2.53,2.84,2.84,0,0,1,1.47.38l-.3.8a2.19,2.19,0,0,0-1.22-.33c-1.12,0-1.44.78-1.44,1.7v.29h3.37v5.8h-1v-5h-2.33v5Z"/><path class="cls-1" d="M256.89,15.49c0-.6,0-1.09-.05-1.57h.93l.06,1h0a2.14,2.14,0,0,1,1.92-1.09c.8,0,2.05.48,2.05,2.47v3.46h-1.06V16.38c0-.94-.35-1.72-1.34-1.72A1.5,1.5,0,0,0,258,15.74a1.75,1.75,0,0,0-.07.49v3.49h-1.05Z"/><path class="cls-1" d="M264.13,17a1.87,1.87,0,0,0,2,2,3.76,3.76,0,0,0,1.61-.3l.18.75a4.67,4.67,0,0,1-1.93.36,2.69,2.69,0,0,1-2.85-2.92c0-1.75,1-3.13,2.72-3.13a2.46,2.46,0,0,1,2.4,2.73,4,4,0,0,1,0,.49Zm3.1-.75a1.51,1.51,0,0,0-1.46-1.72,1.75,1.75,0,0,0-1.62,1.72Z"/><path class="cls-1" d="M274.57,11.21v7c0,.52,0,1.11.05,1.5h-.95l-.05-1h0a2.16,2.16,0,0,1-2,1.14c-1.4,0-2.48-1.19-2.48-2.95,0-1.94,1.19-3.12,2.6-3.12a1.94,1.94,0,0,1,1.75.88h0V11.21Zm-1.05,5.07a2.2,2.2,0,0,0,0-.44A1.56,1.56,0,0,0,272,14.61c-1.1,0-1.74,1-1.74,2.25s.57,2.14,1.71,2.14a1.58,1.58,0,0,0,1.55-1.26,2.06,2.06,0,0,0,0-.45Z"/><path class="cls-1" d="M207.46,25.63H205v-.89h6v.89h-2.47v7.19h-1Z"/><path class="cls-1" d="M211.31,28.83c0-.68,0-1.27-.05-1.81h.92l0,1.14h.05a1.74,1.74,0,0,1,1.61-1.27,1.39,1.39,0,0,1,.3,0v1a1.32,1.32,0,0,0-.36,0,1.48,1.48,0,0,0-1.42,1.36,3.37,3.37,0,0,0-.05.49v3.09h-1Z"/><path class="cls-1" d="M218.39,32.82l-.09-.73h0a2.17,2.17,0,0,1-1.78.87,1.65,1.65,0,0,1-1.77-1.67c0-1.4,1.25-2.17,3.49-2.16V29a1.19,1.19,0,0,0-1.32-1.34,2.84,2.84,0,0,0-1.51.43l-.24-.7a3.6,3.6,0,0,1,1.9-.51c1.78,0,2.21,1.21,2.21,2.37v2.17a8.24,8.24,0,0,0,.1,1.39Zm-.16-3c-1.15,0-2.46.18-2.46,1.31a.94.94,0,0,0,1,1,1.44,1.44,0,0,0,1.4-1,.92.92,0,0,0,.06-.33Z"/><path class="cls-1" d="M221,28.59c0-.6,0-1.09-.05-1.57h.94l.06,1h0a2.14,2.14,0,0,1,1.92-1.09c.8,0,2.05.48,2.05,2.47v3.46h-1.06V29.48c0-.94-.34-1.72-1.34-1.72a1.5,1.5,0,0,0-1.41,1.08,1.44,1.44,0,0,0-.08.49v3.49h-1Z"/><path class="cls-1" d="M227.47,31.74a2.72,2.72,0,0,0,1.39.42c.77,0,1.13-.38,1.13-.86s-.3-.78-1.08-1.07c-1-.37-1.53-.94-1.53-1.64a1.78,1.78,0,0,1,2-1.7,2.83,2.83,0,0,1,1.43.36l-.27.76a2.25,2.25,0,0,0-1.18-.33c-.63,0-1,.36-1,.79s.34.7,1.1,1c1,.39,1.52.89,1.52,1.75,0,1-.79,1.74-2.17,1.74a3.3,3.3,0,0,1-1.63-.39Z"/><path class="cls-1" d="M232.48,32.82v-5h-.82V27h.82v-.28a2.72,2.72,0,0,1,.67-2,2,2,0,0,1,1.41-.54,2.5,2.5,0,0,1,.9.16l-.14.82a1.62,1.62,0,0,0-.67-.13c-.9,0-1.13.79-1.13,1.68V27h1.4v.8h-1.4v5Z"/><path class="cls-1" d="M241,29.87A2.84,2.84,0,0,1,238.08,33a2.76,2.76,0,0,1-2.78-3,2.83,2.83,0,0,1,2.88-3.08A2.75,2.75,0,0,1,241,29.87Zm-4.6.06c0,1.27.73,2.23,1.76,2.23s1.76-.94,1.76-2.25c0-1-.49-2.23-1.74-2.23S236.37,28.83,236.37,29.93Z"/><path class="cls-1" d="M242.31,28.83c0-.68,0-1.27-.05-1.81h.92l0,1.14h.05a1.73,1.73,0,0,1,1.6-1.27,1.32,1.32,0,0,1,.3,0v1a1.28,1.28,0,0,0-.36,0,1.48,1.48,0,0,0-1.41,1.36,2.38,2.38,0,0,0-.05.49v3.09h-1Z"/><path class="cls-1" d="M246.28,28.59c0-.6,0-1.09-.05-1.57h.92l0,.93h0a2,2,0,0,1,1.82-1.06,1.71,1.71,0,0,1,1.64,1.16h0a2.44,2.44,0,0,1,.64-.76,2,2,0,0,1,1.29-.4c.77,0,1.91.5,1.91,2.52v3.41h-1V29.54c0-1.12-.4-1.79-1.26-1.79a1.35,1.35,0,0,0-1.24,1,1.68,1.68,0,0,0-.09.53v3.58h-1V29.35c0-.93-.41-1.6-1.21-1.6a1.45,1.45,0,0,0-1.31,1.06,1.4,1.4,0,0,0-.08.51v3.5h-1Z"/><path class="cls-1" d="M259.5,32.82l-.08-.73h0a2.16,2.16,0,0,1-1.78.87,1.65,1.65,0,0,1-1.77-1.67c0-1.4,1.25-2.17,3.49-2.16V29A1.19,1.19,0,0,0,258,27.67a2.84,2.84,0,0,0-1.51.43l-.24-.7a3.61,3.61,0,0,1,1.91-.51c1.77,0,2.2,1.21,2.2,2.37v2.17a8.24,8.24,0,0,0,.1,1.39Zm-.16-3c-1.15,0-2.45.18-2.45,1.31a.93.93,0,0,0,1,1,1.42,1.42,0,0,0,1.4-1,.92.92,0,0,0,.06-.33Z"/><path class="cls-1" d="M263.29,25.35V27h1.51v.8h-1.51V31c0,.72.21,1.13.79,1.13a2.78,2.78,0,0,0,.62-.07l0,.79a2.63,2.63,0,0,1-.93.14,1.45,1.45,0,0,1-1.14-.44,2.15,2.15,0,0,1-.41-1.51V27.82h-.9V27h.9V25.63Z"/><path class="cls-1" d="M267.17,25.39a.62.62,0,0,1-.67.65.63.63,0,0,1-.64-.65.65.65,0,0,1,.66-.66A.63.63,0,0,1,267.17,25.39ZM266,32.82V27h1.06v5.8Z"/><path class="cls-1" d="M274.06,29.87a2.85,2.85,0,0,1-2.9,3.09,2.76,2.76,0,0,1-2.78-3,2.83,2.83,0,0,1,2.88-3.08A2.75,2.75,0,0,1,274.06,29.87Zm-4.61.06c0,1.27.73,2.23,1.76,2.23s1.77-.94,1.77-2.25c0-1-.5-2.23-1.74-2.23S269.45,28.83,269.45,29.93Z"/><path class="cls-1" d="M275.39,28.59c0-.6,0-1.09-.05-1.57h.94l.06,1h0a2.14,2.14,0,0,1,1.92-1.09c.8,0,2.05.48,2.05,2.47v3.46h-1.05V29.48c0-.94-.35-1.72-1.35-1.72a1.5,1.5,0,0,0-1.41,1.08,1.45,1.45,0,0,0-.07.49v3.49h-1.06Z"/></svg>