<svg id="Layer_1" data-name="Layer 1" xmlns="http://www.w3.org/2000/svg" viewBox="0 0 379.75 173.02"><defs><style>.cls-1{fill:#92278f;}.cls-2,.cls-4,.cls-6{fill:none;}.cls-2,.cls-6{stroke:#6d6e71;}.cls-2{stroke-miterlimit:10;}.cls-3{fill:#6d6e71;}.cls-4{stroke:#92278f;stroke-dasharray:4 4;}.cls-4,.cls-5,.cls-6{stroke-linecap:round;stroke-linejoin:round;}.cls-5{fill:#e6e7e8;stroke:#414042;}</style></defs><path class="cls-1" d="M199.51,42.37a4,4,0,0,0,2,.57c1.16,0,1.84-.61,1.84-1.49s-.47-1.29-1.66-1.74c-1.43-.51-2.31-1.25-2.31-2.49s1.13-2.37,2.83-2.37a4,4,0,0,1,1.94.42l-.31.93a3.44,3.44,0,0,0-1.66-.42c-1.2,0-1.66.72-1.66,1.31,0,.82.54,1.23,1.75,1.69,1.48.58,2.23,1.29,2.23,2.58s-1,2.52-3.07,2.52a4.55,4.55,0,0,1-2.23-.56Z"/><path class="cls-1" d="M206,39.16c0-.65,0-1.18,0-1.7h1l0,1h0a2.17,2.17,0,0,1,2-1.16,1.88,1.88,0,0,1,1.78,1.27h0a2.63,2.63,0,0,1,.71-.82,2.11,2.11,0,0,1,1.39-.45c.83,0,2.06.55,2.06,2.74v3.7h-1.11V40.19c0-1.21-.45-1.94-1.37-1.94a1.47,1.47,0,0,0-1.35,1,2,2,0,0,0-.09.57v3.89H210V40c0-1-.44-1.73-1.31-1.73a1.56,1.56,0,0,0-1.42,1.15,1.41,1.41,0,0,0-.09.55v3.8H206Z"/><path class="cls-1" d="M220.37,43.75l-.09-.79h0a2.36,2.36,0,0,1-1.93.93,1.79,1.79,0,0,1-1.92-1.8c0-1.53,1.35-2.36,3.78-2.34v-.13a1.3,1.3,0,0,0-1.43-1.46,3.14,3.14,0,0,0-1.64.47l-.26-.76a4,4,0,0,1,2.07-.56c1.92,0,2.39,1.32,2.39,2.58v2.35a8.62,8.62,0,0,0,.11,1.51Zm-.17-3.21c-1.25,0-2.67.19-2.67,1.42a1,1,0,0,0,1.08,1.09,1.56,1.56,0,0,0,1.52-1,1.21,1.21,0,0,0,.07-.37Z"/><path class="cls-1" d="M223.15,39.42c0-.74,0-1.38-.05-2h1l0,1.23h.05a1.89,1.89,0,0,1,1.74-1.38,1.66,1.66,0,0,1,.33,0v1.08a2.23,2.23,0,0,0-.39,0,1.62,1.62,0,0,0-1.54,1.47,4.15,4.15,0,0,0-.05.54v3.35h-1.13Z"/><path class="cls-1" d="M228.78,35.65v1.81h1.64v.87h-1.64v3.39c0,.78.22,1.22.85,1.22a2.61,2.61,0,0,0,.67-.07l0,.85a2.59,2.59,0,0,1-1,.16,1.59,1.59,0,0,1-1.24-.48,2.37,2.37,0,0,1-.44-1.64V38.33h-1v-.87h1V36Z"/><path class="cls-1" d="M241.88,39.9c-.06-1.22-.14-2.69-.13-3.78h0c-.3,1-.66,2.12-1.1,3.33l-1.55,4.25h-.86l-1.41-4.18c-.42-1.23-.77-2.36-1-3.4h0c0,1.09-.1,2.56-.17,3.87l-.24,3.76h-1.08l.61-8.76h1.45l1.49,4.24c.37,1.08.67,2,.89,3h0c.22-.89.53-1.85.92-3L241.22,35h1.44l.55,8.76H242.1Z"/><path class="cls-1" d="M250.6,40.55a3.07,3.07,0,0,1-3.13,3.34,3,3,0,0,1-3-3.23,3.07,3.07,0,0,1,3.12-3.35A3,3,0,0,1,250.6,40.55Zm-5,.07c0,1.38.8,2.42,1.91,2.42s1.91-1,1.91-2.45c0-1.07-.53-2.42-1.88-2.42S245.61,39.42,245.61,40.62Z"/><path class="cls-1" d="M257.48,34.52v7.61c0,.55,0,1.19,0,1.62h-1l-.06-1.09h0a2.33,2.33,0,0,1-2.15,1.23c-1.52,0-2.69-1.28-2.69-3.19,0-2.1,1.29-3.39,2.82-3.39a2.1,2.1,0,0,1,1.9,1h0V34.52ZM256.34,40a2.61,2.61,0,0,0,0-.48,1.69,1.69,0,0,0-1.66-1.33c-1.18,0-1.88,1-1.88,2.43s.62,2.33,1.86,2.33a1.73,1.73,0,0,0,1.68-1.37,2.46,2.46,0,0,0,0-.49Z"/><path class="cls-1" d="M264.64,42c0,.65,0,1.23.06,1.72h-1l-.06-1h0a2.36,2.36,0,0,1-2.08,1.17c-1,0-2.17-.54-2.17-2.75V37.46h1.14v3.48c0,1.2.37,2,1.41,2a1.66,1.66,0,0,0,1.51-1,1.72,1.72,0,0,0,.1-.58V37.46h1.14Z"/><path class="cls-1" d="M266.54,34.52h1.15v9.23h-1.15Z"/><path class="cls-1" d="M270.25,40.81A2,2,0,0,0,272.4,43a4.2,4.2,0,0,0,1.75-.33l.19.82a5.11,5.11,0,0,1-2.09.39,2.92,2.92,0,0,1-3.1-3.17c0-1.9,1.12-3.4,3-3.4,2.05,0,2.6,1.81,2.6,3a4.82,4.82,0,0,1,0,.53ZM273.6,40A1.64,1.64,0,0,0,272,38.13,1.9,1.9,0,0,0,270.26,40Z"/><path class="cls-1" d="M276,42.58a3,3,0,0,0,1.5.46c.84,0,1.23-.42,1.23-.94s-.33-.85-1.17-1.16c-1.13-.4-1.67-1-1.67-1.78A2,2,0,0,1,278,37.31a3.11,3.11,0,0,1,1.55.4l-.29.83a2.37,2.37,0,0,0-1.28-.37c-.68,0-1.05.39-1.05.86s.37.76,1.19,1.07c1.09.41,1.65,1,1.65,1.9,0,1.1-.86,1.88-2.35,1.88a3.59,3.59,0,0,1-1.77-.43Z"/><path class="cls-1" d="M218,118v-4.72H219v3.59h2.91v-3.32h.94v3.32h4V118Z"/><path class="cls-1" d="M218.7,110.43a.71.71,0,0,1,0,1.42.69.69,0,0,1-.71-.71A.68.68,0,0,1,218.7,110.43Zm8.06,1.28h-6.29v-1.15h6.29Z"/><path class="cls-1" d="M217.53,108.67v-1.15h9.23v1.15Z"/><path class="cls-1" d="M218.66,104.22h1.81v-1.64h.87v1.64h3.39c.78,0,1.23-.22,1.23-.86a2.44,2.44,0,0,0-.08-.66l.86,0a2.82,2.82,0,0,1,.15,1,1.62,1.62,0,0,1-.48,1.24,2.37,2.37,0,0,1-1.64.44h-3.43v1h-.87v-1H219Z"/><path class="cls-1" d="M223.82,100.66A2,2,0,0,0,226,98.5a4.15,4.15,0,0,0-.33-1.74l.82-.2a5.16,5.16,0,0,1,.39,2.1,2.92,2.92,0,0,1-3.17,3.09c-1.9,0-3.39-1.12-3.39-3,0-2.06,1.8-2.6,3-2.6a3.17,3.17,0,0,1,.53,0ZM223,97.3a1.63,1.63,0,0,0-1.85,1.59,1.88,1.88,0,0,0,1.85,1.75Z"/><path class="cls-1" d="M222.43,94.78c-.74,0-1.38,0-2,0v-1l1.23,0v-.05A1.88,1.88,0,0,1,220.33,92a1.15,1.15,0,0,1,0-.33h1.07a2.29,2.29,0,0,0,0,.39,1.61,1.61,0,0,0,1.46,1.54,4.15,4.15,0,0,0,.54.05h3.35v1.13Z"/><path class="cls-1" d="M258.92,118.61a4,4,0,0,0,.57-2c0-1.16-.61-1.83-1.49-1.83s-1.29.47-1.75,1.65c-.5,1.43-1.24,2.31-2.48,2.31s-2.38-1.13-2.38-2.83a4,4,0,0,1,.43-1.94l.92.31a3.59,3.59,0,0,0-.41,1.67c0,1.19.71,1.65,1.31,1.65.82,0,1.22-.53,1.69-1.74.57-1.49,1.29-2.24,2.58-2.24s2.52,1,2.52,3.07a4.59,4.59,0,0,1-.56,2.24Z"/><path class="cls-1" d="M251.07,112.08v-1.14H255v0a2.1,2.1,0,0,1-.8-.82,2.28,2.28,0,0,1-.33-1.17c0-.84.52-2.19,2.69-2.19h3.75v1.14h-3.62c-1,0-1.87.38-1.87,1.46a1.64,1.64,0,0,0,1.15,1.53,1.26,1.26,0,0,0,.54.08h3.8v1.14Z"/><path class="cls-1" d="M260.3,101.38l-.8.09v0a2.34,2.34,0,0,1,.94,1.93,1.79,1.79,0,0,1-1.81,1.92c-1.52,0-2.35-1.35-2.34-3.78h-.13a1.29,1.29,0,0,0-1.45,1.43,3.14,3.14,0,0,0,.47,1.64l-.76.26a3.91,3.91,0,0,1-.56-2.07c0-1.92,1.32-2.39,2.58-2.39h2.35a8.62,8.62,0,0,0,1.51-.11Zm-3.21.17c0,1.25.19,2.67,1.41,2.67a1,1,0,0,0,1.1-1.08,1.56,1.56,0,0,0-1.06-1.52,1.1,1.1,0,0,0-.36-.07Z"/><path class="cls-1" d="M256.06,98.6c-.81,0-1.46,0-2.05.05v-1l1.07,0v0a2.49,2.49,0,0,1-1.22-2.24c0-1.52,1.29-2.66,3.2-2.66,2.26,0,3.38,1.38,3.38,2.86a2.21,2.21,0,0,1-1,1.94v0h3.42V98.6Zm1.68-1.13a2.34,2.34,0,0,0,.47,0,1.77,1.77,0,0,0,1.33-1.72c0-1.21-1-1.91-2.43-1.91-1.26,0-2.34.67-2.34,1.87a1.83,1.83,0,0,0,1.42,1.73,1.78,1.78,0,0,0,.47.08Z"/><path class="cls-1" d="M257.36,90.57a2,2,0,0,0,2.18-2.16,4.17,4.17,0,0,0-.32-1.74l.82-.2a5.16,5.16,0,0,1,.39,2.1,2.92,2.92,0,0,1-3.17,3.09c-1.9,0-3.4-1.12-3.4-3,0-2,1.81-2.6,3-2.6a5,5,0,0,1,.53,0Zm-.82-3.36a1.63,1.63,0,0,0-1.86,1.59,1.91,1.91,0,0,0,1.86,1.76Z"/><path d="M117.44,43.44a5.63,5.63,0,0,1-2.32.41,4.09,4.09,0,0,1-4.33-4.43,4.36,4.36,0,0,1,4.58-4.6,4.65,4.65,0,0,1,2.08.39l-.27.92a4.1,4.1,0,0,0-1.77-.36A3.26,3.26,0,0,0,112,39.38a3.19,3.19,0,0,0,3.37,3.53,4.49,4.49,0,0,0,1.84-.37Z"/><path d="M124.51,40.53a3.08,3.08,0,0,1-3.13,3.34,3,3,0,0,1-3-3.24,3.07,3.07,0,0,1,3.12-3.34A3,3,0,0,1,124.51,40.53Zm-5,.06c0,1.38.79,2.42,1.91,2.42s1.91-1,1.91-2.44c0-1.07-.53-2.42-1.89-2.42S119.52,39.4,119.52,40.59Z"/><path d="M126,39.14c0-.65,0-1.19,0-1.71h1l.07,1h0a2.32,2.32,0,0,1,2.08-1.18c.88,0,2.23.52,2.23,2.68v3.76h-1.15V40.1c0-1-.37-1.86-1.45-1.86a1.63,1.63,0,0,0-1.54,1.17,1.7,1.7,0,0,0-.07.53v3.79H126Z"/><path d="M133.17,39.14c0-.65,0-1.19-.06-1.71h1l.06,1h0a2.31,2.31,0,0,1,2.08-1.18c.87,0,2.22.52,2.22,2.68v3.76h-1.14V40.1c0-1-.38-1.86-1.46-1.86a1.62,1.62,0,0,0-1.53,1.17,1.69,1.69,0,0,0-.08.53v3.79h-1.14Z"/><path d="M141,40.79A2,2,0,0,0,143.18,43a4.17,4.17,0,0,0,1.74-.32l.19.82a5.14,5.14,0,0,1-2.09.38,2.91,2.91,0,0,1-3.09-3.17c0-1.9,1.11-3.39,2.95-3.39a2.67,2.67,0,0,1,2.6,3,5.05,5.05,0,0,1,0,.54Zm3.35-.82a1.62,1.62,0,0,0-1.58-1.86A1.9,1.9,0,0,0,141,40Z"/><path d="M151.38,43.49a4.17,4.17,0,0,1-1.81.36,3,3,0,0,1-3.13-3.21,3.2,3.2,0,0,1,3.38-3.34,3.79,3.79,0,0,1,1.59.33l-.26.88a2.77,2.77,0,0,0-1.33-.3,2.18,2.18,0,0,0-2.22,2.38,2.15,2.15,0,0,0,2.18,2.35,3.12,3.12,0,0,0,1.4-.31Z"/><path d="M154.1,35.63v1.8h1.63v.87H154.1v3.4c0,.78.22,1.22.85,1.22a2.58,2.58,0,0,0,.67-.08l0,.86a2.82,2.82,0,0,1-1,.15,1.55,1.55,0,0,1-1.24-.48,2.32,2.32,0,0,1-.44-1.63V38.3h-1v-.87h1V35.92Z"/><path d="M162.72,40.53a3.08,3.08,0,0,1-3.14,3.34,3,3,0,0,1-3-3.24,3.07,3.07,0,0,1,3.12-3.34A3,3,0,0,1,162.72,40.53Zm-5,.06c0,1.38.8,2.42,1.91,2.42s1.92-1,1.92-2.44c0-1.07-.54-2.42-1.89-2.42S157.72,39.4,157.72,40.59Z"/><path d="M164.16,39.4c0-.75,0-1.38,0-2h1l0,1.24h0a1.87,1.87,0,0,1,1.74-1.38,1.15,1.15,0,0,1,.33,0v1.08a1.59,1.59,0,0,0-.4,0,1.61,1.61,0,0,0-1.53,1.47,4,4,0,0,0-.05.53v3.36h-1.13Z"/><line class="cls-2" x1="8.12" y1="91.12" x2="66.62" y2="91.12"/><polygon class="cls-3" points="60.71 94.3 60.37 93.36 66.53 91.12 60.37 88.88 60.71 87.94 69.45 91.12 60.71 94.3"/><line class="cls-2" x1="308.43" y1="91.12" x2="366.94" y2="91.12"/><polygon class="cls-3" points="361.02 94.3 360.68 93.36 366.84 91.12 360.68 88.88 361.02 87.94 369.76 91.12 361.02 94.3"/><rect class="cls-4" x="207.67" y="56.06" width="26.65" height="76.89" rx="4.54"/><rect class="cls-4" x="242.81" y="56.06" width="26.65" height="76.89" rx="4.54"/><rect class="cls-5" x="140.93" y="57.39" width="26.65" height="76.89" rx="4.54"/><path d="M155.05,114.28v3.4h3.16v-3.79h.95v4.92H150.4v-4.73h.94v3.6h2.77v-3.4Z"/><path d="M152.87,111.92l1.35-.89c.35-.24.67-.43,1-.64v0c-.38-.21-.71-.42-1-.62l-1.34-.89v-1.23l3,2.14,3.25-2.21v1.3l-1.42.93c-.36.24-.71.45-1.09.67v0c.38.21.71.43,1.09.66l1.42.91v1.26L156,111.06l-3.08,2.14Z"/><path d="M151.06,105.06h1.81v-1.64h.87v1.64h3.39c.78,0,1.22-.22,1.22-.86a2.44,2.44,0,0,0-.08-.66l.86-.05a2.79,2.79,0,0,1,.16,1,1.62,1.62,0,0,1-.48,1.24,2.37,2.37,0,0,1-1.64.44h-3.43v1h-.87v-1h-1.51Z"/><path d="M154.83,102.13c-.74,0-1.38,0-2,.06v-1l1.23,0v-.06a1.89,1.89,0,0,1-1.38-1.74,1.47,1.47,0,0,1,0-.32h1.08a2,2,0,0,0,0,.39,1.6,1.6,0,0,0,1.47,1.53,2.89,2.89,0,0,0,.53,0h3.36v1.13Z"/><path d="M159.16,94.4l-.79.09v0a2.35,2.35,0,0,1,.93,1.92,1.8,1.8,0,0,1-1.81,1.93c-1.52,0-2.35-1.35-2.34-3.79H155A1.3,1.3,0,0,0,153.57,96a3.09,3.09,0,0,0,.47,1.64l-.76.26a3.87,3.87,0,0,1-.56-2.06c0-1.93,1.32-2.4,2.58-2.4h2.35a8.69,8.69,0,0,0,1.51-.1Zm-3.21.17c0,1.25.19,2.66,1.41,2.66a1,1,0,0,0,1.1-1.08,1.58,1.58,0,0,0-1.06-1.52,1.09,1.09,0,0,0-.36-.06Z"/><path d="M158.92,87.13a4.14,4.14,0,0,1,.37,1.81,3,3,0,0,1-3.21,3.13,3.19,3.19,0,0,1-3.34-3.38,3.92,3.92,0,0,1,.32-1.58l.89.26a2.59,2.59,0,0,0-.3,1.32,2.37,2.37,0,0,0,4.73,0,3.26,3.26,0,0,0-.31-1.4Z"/><path d="M151.06,84.42h1.81V82.78h.87v1.64h3.39c.78,0,1.22-.23,1.22-.86a2.58,2.58,0,0,0-.08-.67l.86,0a2.81,2.81,0,0,1,.16,1,1.58,1.58,0,0,1-.48,1.23,2.32,2.32,0,0,1-1.64.44h-3.43v1h-.87v-1h-1.51Z"/><rect class="cls-5" x="108.01" y="57.43" width="26.65" height="76.89" rx="4.54"/><path d="M117,118.86a13.23,13.23,0,0,1-.17-2.17,3.59,3.59,0,0,1,.73-2.46,2.36,2.36,0,0,1,1.83-.77,2.57,2.57,0,0,1,1.87.68,3.62,3.62,0,0,1,1,2.68,4.22,4.22,0,0,1-.08.91h3.51v1.13Zm4.23-1.13a4.1,4.1,0,0,0,.09-.94c0-1.37-.67-2.2-1.87-2.2s-1.72.82-1.72,2.07a5,5,0,0,0,.09,1.07Z"/><path d="M121.28,112c-.74,0-1.38,0-2,0v-1l1.23,0v0a1.9,1.9,0,0,1-1.38-1.74,1.66,1.66,0,0,1,0-.33h1.08a2.23,2.23,0,0,0,0,.39,1.61,1.61,0,0,0,1.47,1.54,4.15,4.15,0,0,0,.53,0h3.36V112Z"/><path d="M122.41,102a3.08,3.08,0,0,1,3.34,3.14,3,3,0,0,1-3.23,3,3.07,3.07,0,0,1-3.35-3.12A3,3,0,0,1,122.41,102Zm.07,5c1.37,0,2.41-.8,2.41-1.91s-1-1.92-2.44-1.92c-1.07,0-2.42.54-2.42,1.89S121.28,107,122.48,107Z"/><path d="M117.51,99.21h1.81V97.58h.87v1.63h3.39c.78,0,1.22-.22,1.22-.85a3.25,3.25,0,0,0-.07-.67l.85,0a2.79,2.79,0,0,1,.16,1,1.59,1.59,0,0,1-.48,1.24,2.37,2.37,0,0,1-1.64.44h-3.43v1h-.87v-1h-1.51Z"/><path d="M122.41,90.59a3.08,3.08,0,0,1,3.34,3.14,3,3,0,0,1-3.23,3,3.07,3.07,0,0,1-3.35-3.12A3,3,0,0,1,122.41,90.59Zm.07,5c1.37,0,2.41-.8,2.41-1.91s-1-1.92-2.44-1.92c-1.07,0-2.42.54-2.42,1.89S121.28,95.59,122.48,95.59Z"/><path d="M125.37,84.67a4.12,4.12,0,0,1,.37,1.8,3,3,0,0,1-3.21,3.14,3.2,3.2,0,0,1-3.34-3.38,3.93,3.93,0,0,1,.32-1.59l.89.26a2.6,2.6,0,0,0-.3,1.33,2.37,2.37,0,0,0,4.73,0,3.35,3.35,0,0,0-.31-1.41Z"/><path d="M122.41,77.63a3.08,3.08,0,0,1,3.34,3.14,3,3,0,0,1-3.23,3,3.08,3.08,0,0,1-3.35-3.12A3,3,0,0,1,122.41,77.63Zm.07,5c1.37,0,2.41-.8,2.41-1.92s-1-1.91-2.44-1.91c-1.07,0-2.42.54-2.42,1.89S121.28,82.63,122.48,82.63Z"/><path d="M116.38,76.19V75.05h9.23v1.14Z"/><rect class="cls-6" x="77.25" y="14.39" width="224.13" height="140.93" rx="4.54"/></svg>