<svg id="Layer_1" data-name="Layer 1" xmlns="http://www.w3.org/2000/svg" viewBox="0 0 403.5 107"><defs><style>.cls-1,.cls-2{fill:none;stroke-miterlimit:10;stroke-width:7px;}.cls-1{stroke:#fff;}.cls-2{stroke:#7f3f98;}.cls-3{fill:#fff;}</style></defs><path class="cls-1" d="M11,69.11a33.88,33.88,0,0,1-.7-4.4" transform="translate(-3.69 -6.87)"/><path class="cls-1" d="M13.12,76.49c-.49-1.31-.93-2.65-1.31-4" transform="translate(-3.69 -6.87)"/><path class="cls-2" d="M13.58,77.47" transform="translate(-3.69 -6.87)"/><path class="cls-1" d="M16.22,83.47c-1.37-2.84-1.57-3.15-1.85-3.78" transform="translate(-3.69 -6.87)"/><path class="cls-2" d="M16.45,83.79" transform="translate(-3.69 -6.87)"/><path class="cls-1" d="M11.41,52.47a50,50,0,1,1,6.66,33.89" transform="translate(-3.69 -6.87)"/><polygon class="cls-3" points="6.47 53.87 0 43.69 14.74 45.96 6.47 53.87"/><path class="cls-1" d="M67.75,37.85c-15,20.52,16.32,21.07-7,52" transform="translate(-3.69 -6.87)"/><path class="cls-1" d="M52.7,27.72c-24.17,32.67,18.27,33-12.59,58" transform="translate(-3.69 -6.87)"/><path class="cls-1" d="M88.18,51.17c-6.7,7.26,8.22,25.77-25.93,37.53" transform="translate(-3.69 -6.87)"/><path class="cls-3" d="M155.74,52.4v8.82h30V67h-30V93.71h-6.66V52.31q0-10.35,6.48-16.25t18.27-5.89q11.41,0,18.35,4.95l-2.43,5.49q-6.12-4.5-15.66-4.5-9.26,0-13.81,4.18T155.74,52.4Z" transform="translate(-3.69 -6.87)"/><path class="cls-3" d="M202.44,80.57V26.93h6.39V80q0,4.23,2,6.43t5.94,2.21a10.47,10.47,0,0,0,4.32-.81l.45,5.31a17.1,17.1,0,0,1-5.76,1q-6.39,0-9.85-3.6T202.44,80.57Z" transform="translate(-3.69 -6.87)"/><path class="cls-3" d="M272.91,93.71h-6.12V85.07a17.51,17.51,0,0,1-6.93,6.7,20.85,20.85,0,0,1-10.08,2.39q-9.27,0-14.62-5.18T229.8,73.82V46.37h6.39V73.19q0,7.47,3.69,11.34t10.53,3.87q7.47,0,11.79-4.55t4.32-12.64V46.37h6.39Z" transform="translate(-3.69 -6.87)"/><path class="cls-3" d="M309.54,93.71H303L282,46.37h6.66l17.73,40.32L324.3,46.37h6.3Z" transform="translate(-3.69 -6.87)"/><path class="cls-3" d="M338.16,31.43a4.32,4.32,0,0,1,1.35-3.15,4.52,4.52,0,0,1,3.33-1.35,4.6,4.6,0,0,1,3.33,1.3,4.18,4.18,0,0,1,1.35,3.11,4.71,4.71,0,0,1-8,3.33A4.42,4.42,0,0,1,338.16,31.43ZM346,46.37V93.71H339.6V46.37Z" transform="translate(-3.69 -6.87)"/><path class="cls-3" d="M362.19,82.46A24.5,24.5,0,0,1,359,70a24.5,24.5,0,0,1,3.15-12.42,22.32,22.32,0,0,1,8.64-8.55,26.37,26.37,0,0,1,24.66,0,21.93,21.93,0,0,1,8.59,8.55A24.68,24.68,0,0,1,407.19,70a24.68,24.68,0,0,1-3.11,12.42,22.23,22.23,0,0,1-8.59,8.59,26,26,0,0,1-24.66,0A22.63,22.63,0,0,1,362.19,82.46Zm36.27-2.79A20.19,20.19,0,0,0,400.71,70a20.19,20.19,0,0,0-2.25-9.63,16,16,0,0,0-6.25-6.53,19,19,0,0,0-18.09,0,16.31,16.31,0,0,0-6.3,6.53,21.31,21.31,0,0,0,0,19.26,16.29,16.29,0,0,0,6.3,6.52,18.94,18.94,0,0,0,18.09,0A16,16,0,0,0,398.46,79.67Z" transform="translate(-3.69 -6.87)"/></svg>