<svg id="Layer_1" data-name="Layer 1" xmlns="http://www.w3.org/2000/svg" viewBox="0 0 453.88 122.32"><defs><style>.cls-1,.cls-2{fill:none;stroke-miterlimit:10;stroke-width:7px;}.cls-1{stroke:#45328d;}.cls-2{stroke:#7f3f98;}.cls-3,.cls-4{fill:#45328d;}.cls-4{font-size:110px;font-family:MontserratAlternates-Regular, Montserrat Alternates;}</style></defs><path class="cls-1" d="M10.52,57.18a49.74,49.74,0,0,1,.54-5.07" transform="translate(-3.69 -5.63)"/><path class="cls-1" d="M11,69.11A39.12,39.12,0,0,1,10.2,64" transform="translate(-3.69 -5.63)"/><path class="cls-1" d="M13.12,76.49c-.49-1.31-.93-2.65-1.31-4" transform="translate(-3.69 -5.63)"/><path class="cls-2" d="M13.58,77.47" transform="translate(-3.69 -5.63)"/><path class="cls-1" d="M16.22,83.47c-1.37-2.84-1.57-3.15-1.85-3.78" transform="translate(-3.69 -5.63)"/><path class="cls-2" d="M16.45,83.79" transform="translate(-3.69 -5.63)"/><path class="cls-1" d="M11.06,52.11A50,50,0,1,1,17.72,86" transform="translate(-3.69 -5.63)"/><polygon class="cls-3" points="6.47 56.31 0 46.13 14.74 48.4 6.47 56.31"/><path class="cls-1" d="M67.75,37.85c-15,20.52,16.32,21.07-7,52" transform="translate(-3.69 -5.63)"/><path class="cls-1" d="M52.7,27.72c-24.17,32.67,18.27,33-12.59,58" transform="translate(-3.69 -5.63)"/><path class="cls-1" d="M88.18,51.17c-6.7,7.26,8.22,25.77-25.93,37.53" transform="translate(-3.69 -5.63)"/><text class="cls-4" transform="translate(121.47 93.5)">Fluvio</text></svg>