<svg id="Layer_1" data-name="Layer 1" xmlns="http://www.w3.org/2000/svg" viewBox="0 0 652.22 388.13"><defs><style>.cls-1{fill:#45328d;}.cls-2,.cls-3{fill:#483391;}.cls-3{stroke:#2b3990;stroke-miterlimit:10;stroke-width:0.2px;}.cls-4{fill:#fff;}.cls-5{fill:#45338e;}.cls-6{fill:none;}</style></defs><path class="cls-1" d="M161.93,22.79V16.11h-1.08V15h1.08v-.41a3.11,3.11,0,0,1,3.38-3.38,3.86,3.86,0,0,1,2,.51l-.4,1.07a3,3,0,0,0-1.63-.45c-1.49,0-1.92,1-1.92,2.28V15h4.5v7.75h-1.4V16.11h-3.1v6.68Z"/><path class="cls-1" d="M170.16,11.42h1.41V22.79h-1.41Z"/><path class="cls-1" d="M175.63,12.82V15h2v1.07h-2v4.18c0,1,.27,1.51,1.06,1.51a2.92,2.92,0,0,0,.81-.1l.07,1.06a3.52,3.52,0,0,1-1.25.19,2,2,0,0,1-1.52-.59,2.89,2.89,0,0,1-.54-2V16.11h-1.21V15h1.21V13.19Z"/><path class="cls-1" d="M179.92,19.17a2.48,2.48,0,0,0,2.66,2.69,5.17,5.17,0,0,0,2.14-.4l.24,1a6.35,6.35,0,0,1-2.58.48A3.6,3.6,0,0,1,178.57,19c0-2.33,1.38-4.17,3.64-4.17,2.53,0,3.2,2.22,3.2,3.65a4.51,4.51,0,0,1,0,.65Zm4.13-1a2,2,0,0,0-2-2.29,2.35,2.35,0,0,0-2.17,2.29Z"/><path class="cls-1" d="M187.15,17.46c0-.91,0-1.7-.06-2.42h1.23l.05,1.52h.06a2.32,2.32,0,0,1,2.15-1.69,1.64,1.64,0,0,1,.4,0v1.33a2.28,2.28,0,0,0-.48,0A2,2,0,0,0,188.61,18a4.31,4.31,0,0,0-.07.66v4.13h-1.39Z"/><rect class="cls-2" x="73.29" y="136.21" width="70.11" height="240"/><path class="cls-2" d="M203.92,84.27H152.18a.7.7,0,0,1-.7-.7l-.26-51a.7.7,0,0,1,.2-.49.7.7,0,0,1,.5-.21h17.73a.7.7,0,0,1,.7.67,9,9,0,0,0,2.23,5.65,7,7,0,0,0,10.68,0,9.09,9.09,0,0,0,2.24-5.65.69.69,0,0,1,.7-.67h17.72a.7.7,0,0,1,.7.7v51A.7.7,0,0,1,203.92,84.27Zm-51-1.4h50.34V33.27H186.85a10.29,10.29,0,0,1-2.55,5.85,8.39,8.39,0,0,1-12.76,0A10.35,10.35,0,0,1,169,33.27H152.62Z"/><path class="cls-3" d="M180.3,77.48h0L183,68.35h1.29l2.66,9.13h0l2.59-9.13h1.14L187.56,79H186.3l-2.67-9.12h0L180.93,79h-1.26l-3.14-10.62h1.14Z"/><path class="cls-3" d="M192.07,79h-1.18l4.59-10.62h1.05L201.09,79h-1.2l-1.17-2.79h-5.49Zm1.56-3.78h4.68L196,69.55Z"/><path class="cls-2" d="M277.72,84.27H226a.7.7,0,0,1-.7-.7l-.26-51a.7.7,0,0,1,.2-.49.69.69,0,0,1,.5-.21h17.73a.7.7,0,0,1,.7.67,9,9,0,0,0,2.23,5.65,7,7,0,0,0,10.68,0,9,9,0,0,0,2.24-5.65.69.69,0,0,1,.7-.67h17.72a.7.7,0,0,1,.7.7v51A.7.7,0,0,1,277.72,84.27Zm-51-1.4H277V33.27H260.65a10.35,10.35,0,0,1-2.55,5.86,8.4,8.4,0,0,1-12.76,0,10.35,10.35,0,0,1-2.54-5.85H226.42Z"/><path class="cls-3" d="M254.1,77.48h0l2.65-9.13h1.29l2.66,9.13h0l2.59-9.13h1.14L261.36,79H260.1l-2.67-9.12h0L254.73,79h-1.26l-3.14-10.62h1.14Z"/><path class="cls-3" d="M265.87,79h-1.18l4.59-10.62h1.05L274.89,79h-1.2l-1.17-2.79H267Zm1.56-3.78h4.68l-2.34-5.64Z"/><path class="cls-2" d="M351.52,84.43H299.78a.7.7,0,0,1-.7-.7l-.26-51a.7.7,0,0,1,.2-.49.69.69,0,0,1,.5-.21h17.73a.71.71,0,0,1,.7.67,9,9,0,0,0,2.23,5.65,7,7,0,0,0,10.68,0,9,9,0,0,0,2.24-5.65.7.7,0,0,1,.7-.67h17.72a.7.7,0,0,1,.7.7v51A.7.7,0,0,1,351.52,84.43Zm-51-1.4h50.34V33.43H334.45a10.35,10.35,0,0,1-2.55,5.86,8.41,8.41,0,0,1-12.76,0,10.41,10.41,0,0,1-2.54-5.86H300.22Z"/><path class="cls-3" d="M327.9,77.65h0l2.65-9.14h1.29l2.66,9.14h0l2.59-9.14h1.14l-3.13,10.62H333.9L331.23,70h0l-2.67,9.12h-1.26l-3.14-10.62h1.14Z"/><path class="cls-3" d="M339.67,79.13h-1.18l4.59-10.62h1.05l4.56,10.62h-1.2l-1.17-2.79h-5.49Zm1.56-3.78h4.68l-2.34-5.64Z"/><path class="cls-2" d="M425.32,82.58H373.58a.7.7,0,0,1-.7-.69l-.26-51a.7.7,0,0,1,.2-.5.73.73,0,0,1,.5-.21h17.73a.71.71,0,0,1,.7.67A9,9,0,0,0,394,36.5,7.13,7.13,0,0,0,399.32,39h0a7.13,7.13,0,0,0,5.34-2.48,9,9,0,0,0,2.24-5.65.7.7,0,0,1,.7-.67h17.72a.7.7,0,0,1,.7.7v51A.7.7,0,0,1,425.32,82.58Zm-51-1.4h50.34V31.58H408.25a10.35,10.35,0,0,1-2.55,5.86,8.53,8.53,0,0,1-6.38,2.94h0a8.54,8.54,0,0,1-6.38-2.94,10.41,10.41,0,0,1-2.54-5.86H374Z"/><path class="cls-3" d="M401.7,75.8h0l2.65-9.14h1.29l2.66,9.14h0L411,66.66h1.14L409,77.28H407.7L405,68.16h0l-2.67,9.12h-1.26l-3.14-10.62h1.14Z"/><path class="cls-3" d="M413.47,77.28h-1.18l4.59-10.62h1.05l4.56,10.62h-1.2l-1.17-2.79h-5.49ZM415,73.5h4.68l-2.34-5.64Z"/><rect class="cls-2" x="151.74" y="302.04" width="349.5" height="74.6"/><path class="cls-4" d="M207.24,322a58.4,58.4,0,0,1-12.5-1.2c-3.77-.88-5.69-2.08-5.69-3.59s1.92-2.71,5.69-3.59a66.11,66.11,0,0,1,25,0h0c3.78.88,5.69,2.09,5.69,3.59s-1.91,2.71-5.69,3.59A58.4,58.4,0,0,1,207.24,322Zm0-8.08a57.38,57.38,0,0,0-12.16,1.16c-3.72.87-4.53,1.83-4.53,2.13s.81,1.27,4.53,2.13a64.18,64.18,0,0,0,24.32,0c3.72-.86,4.53-1.83,4.53-2.13s-.81-1.26-4.53-2.13h0A57.38,57.38,0,0,0,207.24,313.9Z"/><path class="cls-4" d="M224.68,343.46a.75.75,0,0,1-.75-.75V316.85a.75.75,0,0,1,1.5,0v25.86A.76.76,0,0,1,224.68,343.46Z"/><path class="cls-4" d="M189.8,343.81a.76.76,0,0,1-.75-.75V317.2a.75.75,0,0,1,1.5,0v25.86A.75.75,0,0,1,189.8,343.81Z"/><path class="cls-4" d="M207.84,347.63A57.26,57.26,0,0,1,195,346.22c-3.26-.8-5.23-1.73-5.85-2.78a.76.76,0,0,1,.27-1,.75.75,0,0,1,1,.27c.28.48,1.73,1.31,4.91,2.08,7.61,1.86,21.62,2.38,28.92-2.24a.75.75,0,1,1,.8,1.26C220.57,346.65,214,347.63,207.84,347.63Z"/><path class="cls-4" d="M207.84,339.55A57.09,57.09,0,0,1,195,338.14c-3.27-.8-5.24-1.74-5.86-2.79a.75.75,0,0,1,1.3-.75c.28.47,1.73,1.31,4.91,2.08,7.62,1.85,21.62,2.38,28.92-2.24a.74.74,0,0,1,1,.23.74.74,0,0,1-.23,1C220.57,338.56,214,339.55,207.84,339.55Z"/><path class="cls-4" d="M207.79,330.57a57.74,57.74,0,0,1-12.83-1.4c-3.27-.8-5.24-1.74-5.85-2.79a.75.75,0,0,1,1.29-.75c.28.47,1.73,1.3,4.91,2.08,7.62,1.85,21.63,2.38,28.92-2.25a.75.75,0,1,1,.8,1.27C220.52,329.59,214,330.57,207.79,330.57Z"/><path class="cls-4" d="M221.51,322.77a1,1,0,0,1-1.45,1.45,1,1,0,0,1,0-1.45,1,1,0,0,1,1.45,0"/><path class="cls-4" d="M220.78,324.9a1.4,1.4,0,1,1,1-2.4h0a1.41,1.41,0,0,1,0,2,1.39,1.39,0,0,1-1,.41Zm0-2.06a.68.68,0,0,0-.46.19.67.67,0,0,0,0,.93.68.68,0,0,0,.92,0,.67.67,0,0,0,0-.93A.68.68,0,0,0,220.78,322.84Z"/><path class="cls-4" d="M221.51,331.12a1,1,0,1,1-1.45,1.45,1,1,0,0,1,0-1.45,1,1,0,0,1,1.45,0"/><path class="cls-4" d="M220.78,333.25a1.41,1.41,0,0,1-1-.41,1.41,1.41,0,0,1,0-2,1.41,1.41,0,0,1,1-.41h0a1.41,1.41,0,0,1,0,2.81Zm0-2.06a.66.66,0,0,0-.46.19.67.67,0,0,0,0,.93.65.65,0,0,0,.92-.93h0a.66.66,0,0,0-.46-.19Z"/><path class="cls-4" d="M221.51,339.77a1,1,0,0,1-1.45,1.45,1,1,0,0,1,0-1.45,1,1,0,0,1,1.45,0"/><path class="cls-4" d="M220.78,341.9a1.38,1.38,0,0,1-1-.42,1.39,1.39,0,0,1-.41-1,1.43,1.43,0,0,1,.41-1,1.41,1.41,0,0,1,1-.41h0a1.41,1.41,0,0,1,0,2.81Zm0-2.06a.65.65,0,0,0-.46,1.11.67.67,0,0,0,.92,0,.66.66,0,0,0,0-.93h0a.66.66,0,0,0-.46-.19Z"/><path class="cls-4" d="M190.39,363a2.23,2.23,0,0,1-.95.85,2.85,2.85,0,0,1-1.27.3,3.13,3.13,0,0,1-1.29-.26,3,3,0,0,1-1-.69,3.22,3.22,0,0,1-.63-1,3.87,3.87,0,0,1-.22-1.28,3.71,3.71,0,0,1,.22-1.26,3.22,3.22,0,0,1,.63-1,3,3,0,0,1,1-.69,3.22,3.22,0,0,1,1.26-.24,2.62,2.62,0,0,1,1.31.31,2.8,2.8,0,0,1,.88.78h0v-4.59h1.22V364h-1.18v-1Zm-4-2.11a2.62,2.62,0,0,0,.13.83,2,2,0,0,0,1,1.21,1.91,1.91,0,0,0,.89.19,2,2,0,0,0,.85-.18,2,2,0,0,0,.65-.49,2,2,0,0,0,.43-.71,2.32,2.32,0,0,0,.15-.84,2.4,2.4,0,0,0-.15-.84,2,2,0,0,0-.43-.71,2,2,0,0,0-.65-.49,1.86,1.86,0,0,0-.85-.19,1.91,1.91,0,0,0-.89.19,1.79,1.79,0,0,0-.63.49,1.83,1.83,0,0,0-.39.71A2.57,2.57,0,0,0,186.34,360.88Z"/><path class="cls-4" d="M198.07,364c0-.16,0-.33,0-.53s0-.36,0-.49h0a2,2,0,0,1-.79.84,2.29,2.29,0,0,1-1.23.35,2.49,2.49,0,0,1-1-.2,2,2,0,0,1-.72-.54,2.33,2.33,0,0,1-.41-.8,3.39,3.39,0,0,1-.14-1v-3.82h1.22v3.4a4.2,4.2,0,0,0,.06.72,1.71,1.71,0,0,0,.22.61,1.1,1.1,0,0,0,.42.41,1.38,1.38,0,0,0,.71.16,1.46,1.46,0,0,0,1.19-.55,2.22,2.22,0,0,0,.46-1.48v-3.27h1.22v4.83c0,.17,0,.38,0,.64s0,.49,0,.69Z"/><path class="cls-4" d="M201.29,358.49c0-.26,0-.49,0-.68h1.15c0,.15,0,.33,0,.54s0,.37,0,.5h0a2.12,2.12,0,0,1,.77-.88,2,2,0,0,1,1.12-.33,1.68,1.68,0,0,1,.48.05l-.05,1.13a2.45,2.45,0,0,0-.56-.07,1.71,1.71,0,0,0-.77.17,1.61,1.61,0,0,0-.54.43,1.87,1.87,0,0,0-.32.63,3.08,3.08,0,0,0-.1.75V364H201.3v-4.84C201.3,359,201.29,358.75,201.29,358.49Z"/><path class="cls-4" d="M209.67,360a1.24,1.24,0,0,0-.41-1,1.69,1.69,0,0,0-1.11-.34,2.33,2.33,0,0,0-1,.21,2.4,2.4,0,0,0-.78.51l-.65-.78a3.39,3.39,0,0,1,1.12-.68,4,4,0,0,1,1.41-.24,3.35,3.35,0,0,1,1.15.18,2.26,2.26,0,0,1,.8.52,2.18,2.18,0,0,1,.46.76,2.75,2.75,0,0,1,.16.95v2.7c0,.2,0,.42,0,.65a3.68,3.68,0,0,0,.07.57h-1.1a3.87,3.87,0,0,1-.11-.89h0a2.32,2.32,0,0,1-.85.77,2.57,2.57,0,0,1-1.21.27,3.35,3.35,0,0,1-.76-.09,2.53,2.53,0,0,1-.73-.32,1.89,1.89,0,0,1-.53-.59,1.66,1.66,0,0,1-.22-.89,1.62,1.62,0,0,1,.38-1.12,2.36,2.36,0,0,1,1-.62,5.44,5.44,0,0,1,1.37-.28c.51,0,1-.06,1.55-.06Zm-.3,1c-.3,0-.62,0-.94,0a4.35,4.35,0,0,0-.88.15,1.61,1.61,0,0,0-.66.36.79.79,0,0,0-.26.62.88.88,0,0,0,.11.45.76.76,0,0,0,.29.3,1.18,1.18,0,0,0,.4.17,2.32,2.32,0,0,0,.46,0,1.7,1.7,0,0,0,1.32-.51,1.86,1.86,0,0,0,.46-1.3V361Z"/><path class="cls-4" d="M214.09,363v1h-1.18v-9.83h1.22v4.59h0A2.76,2.76,0,0,1,215,358a2.63,2.63,0,0,1,1.32-.31,3.13,3.13,0,0,1,1.25.24,3,3,0,0,1,1,.69,2.9,2.9,0,0,1,.63,1,3.48,3.48,0,0,1,.22,1.26,3.63,3.63,0,0,1-.22,1.28,3,3,0,0,1-.62,1,3,3,0,0,1-1,.69,3.13,3.13,0,0,1-1.29.26,2.71,2.71,0,0,1-1.25-.3,2.32,2.32,0,0,1-1-.85Zm4.1-2.11a2.88,2.88,0,0,0-.13-.83,2.13,2.13,0,0,0-.39-.71,1.86,1.86,0,0,0-.65-.49,1.91,1.91,0,0,0-.89-.19,1.86,1.86,0,0,0-.85.19,2,2,0,0,0-.66.49,2.19,2.19,0,0,0-.42.71,2.4,2.4,0,0,0-.15.84,2.32,2.32,0,0,0,.15.84,2.19,2.19,0,0,0,.42.71,2,2,0,0,0,1.51.67,1.91,1.91,0,0,0,.89-.19,1.89,1.89,0,0,0,.65-.5,2.13,2.13,0,0,0,.39-.71A2.93,2.93,0,0,0,218.19,360.88Z"/><path class="cls-4" d="M222.4,364h-1.22v-9.83h1.22Z"/><path class="cls-4" d="M230.29,360.83V361c0,.07,0,.14,0,.21h-4.91a1.83,1.83,0,0,0,.18.73,1.72,1.72,0,0,0,.44.59,2.05,2.05,0,0,0,.63.4,2.23,2.23,0,0,0,1.84-.13,2.29,2.29,0,0,0,.71-.67l.86.69a3.08,3.08,0,0,1-1.17,1,3.56,3.56,0,0,1-1.48.31,3.42,3.42,0,0,1-1.3-.24,3,3,0,0,1-1-.65,3.25,3.25,0,0,1-.68-1,3.58,3.58,0,0,1-.24-1.33,3.52,3.52,0,0,1,.24-1.32,3,3,0,0,1,1.68-1.7,3.34,3.34,0,0,1,1.27-.24,3.24,3.24,0,0,1,1.23.22,2.55,2.55,0,0,1,.94.63,3.06,3.06,0,0,1,.59,1A4,4,0,0,1,230.29,360.83Zm-1.25-.49a2.48,2.48,0,0,0-.12-.68,1.84,1.84,0,0,0-.33-.56,1.73,1.73,0,0,0-.53-.37,1.9,1.9,0,0,0-.75-.13,2,2,0,0,0-.73.13,2.25,2.25,0,0,0-.6.37,2.11,2.11,0,0,0-.42.56,1.77,1.77,0,0,0-.19.68Z"/><path class="cls-4" d="M313.07,344.72h-1.68v-12h1.68Z"/><path class="cls-4" d="M318.45,336.89a2.8,2.8,0,0,1,1.59-.45,2.92,2.92,0,0,1,1.47.37,2.48,2.48,0,0,1,1,1.24,2.87,2.87,0,0,1,1.14-1.2,3.26,3.26,0,0,1,1.6-.41,3.08,3.08,0,0,1,1.34.26,2.74,2.74,0,0,1,.93.71,2.86,2.86,0,0,1,.56,1,4.45,4.45,0,0,1,.17,1.28v5h-1.59v-4.47a4.69,4.69,0,0,0-.09-.94,2.21,2.21,0,0,0-.29-.78,1.5,1.5,0,0,0-.54-.55,1.75,1.75,0,0,0-.87-.2,1.83,1.83,0,0,0-.93.23,1.91,1.91,0,0,0-.64.59,2.82,2.82,0,0,0-.36.83,4.15,4.15,0,0,0-.11.93v4.36h-1.6v-4.8a3.81,3.81,0,0,0-.08-.86,1.75,1.75,0,0,0-.29-.68,1.53,1.53,0,0,0-.53-.44,1.73,1.73,0,0,0-.8-.16,1.82,1.82,0,0,0-1.47.72,3,3,0,0,0-.58,1.93v4.29h-1.6v-6.33c0-.21,0-.49,0-.83s0-.64-.05-.9h1.51a6.55,6.55,0,0,1,0,.69c0,.25,0,.46,0,.63h.05A2.75,2.75,0,0,1,318.45,336.89Z"/><path class="cls-4" d="M333.53,336.89a2.8,2.8,0,0,1,1.59-.45,2.92,2.92,0,0,1,1.47.37,2.48,2.48,0,0,1,1,1.24,2.87,2.87,0,0,1,1.14-1.2,3.23,3.23,0,0,1,1.6-.41,3.08,3.08,0,0,1,1.34.26,2.74,2.74,0,0,1,.93.71,2.86,2.86,0,0,1,.56,1,4.83,4.83,0,0,1,.17,1.28v5h-1.59v-4.47a4.69,4.69,0,0,0-.09-.94,2.42,2.42,0,0,0-.29-.78,1.58,1.58,0,0,0-.54-.55,1.75,1.75,0,0,0-.87-.2,1.83,1.83,0,0,0-.93.23,1.91,1.91,0,0,0-.64.59,2.58,2.58,0,0,0-.36.83,4.15,4.15,0,0,0-.11.93v4.36h-1.6v-4.8a3.81,3.81,0,0,0-.08-.86,1.75,1.75,0,0,0-.29-.68,1.53,1.53,0,0,0-.53-.44,1.73,1.73,0,0,0-.8-.16,1.82,1.82,0,0,0-1.47.72,3,3,0,0,0-.58,1.93v4.29H331v-6.33c0-.21,0-.49,0-.83s0-.64-.05-.9h1.51a6.55,6.55,0,0,1,.05.69c0,.25,0,.46,0,.63h.05A2.75,2.75,0,0,1,333.53,336.89Z"/><path class="cls-4" d="M351.74,344.72c0-.21,0-.44-.05-.69s0-.47,0-.64h0a2.57,2.57,0,0,1-1,1.1,3,3,0,0,1-1.6.45,3.28,3.28,0,0,1-1.35-.26,2.47,2.47,0,0,1-.94-.7,3.08,3.08,0,0,1-.54-1.05,4.38,4.38,0,0,1-.18-1.27v-5h1.6v4.45a5.82,5.82,0,0,0,.07.95,2.39,2.39,0,0,0,.28.79,1.64,1.64,0,0,0,.57.54,1.75,1.75,0,0,0,.91.2,1.94,1.94,0,0,0,1.57-.72,3,3,0,0,0,.59-1.93v-4.28h1.6V343c0,.22,0,.5,0,.83s0,.65.05.91Z"/><path class="cls-4" d="M359.9,338h-2.14v4.18a1.61,1.61,0,0,0,.27,1.05,1.15,1.15,0,0,0,.87.31,2.8,2.8,0,0,0,.48-.05,2.06,2.06,0,0,0,.46-.14l.05,1.31a4,4,0,0,1-.64.16,4.2,4.2,0,0,1-.72.06,2.29,2.29,0,0,1-1.74-.63,2.58,2.58,0,0,1-.61-1.88V338h-1.55v-1.31h1.55v-2.31h1.58v2.31h2.14Z"/><path class="cls-4" d="M366.57,339.5a1.62,1.62,0,0,0-.54-1.34,2.27,2.27,0,0,0-1.45-.43,3.25,3.25,0,0,0-1.28.26,3.41,3.41,0,0,0-1,.67l-.85-1a4.52,4.52,0,0,1,1.46-.88,5.27,5.27,0,0,1,1.84-.32,4.31,4.31,0,0,1,1.51.24,3,3,0,0,1,1,.67,2.74,2.74,0,0,1,.61,1,3.59,3.59,0,0,1,.21,1.24v3.52c0,.27,0,.56,0,.86a4.28,4.28,0,0,0,.1.74h-1.45a5.09,5.09,0,0,1-.13-1.16h-.05a3.06,3.06,0,0,1-1.12,1,3.33,3.33,0,0,1-1.59.36,3.91,3.91,0,0,1-1-.13,2.88,2.88,0,0,1-.95-.41,2.48,2.48,0,0,1-.7-.77,2.25,2.25,0,0,1-.28-1.17,2.08,2.08,0,0,1,.49-1.46,3.24,3.24,0,0,1,1.29-.81,7.43,7.43,0,0,1,1.81-.37c.66-.05,1.34-.08,2-.08Zm-.39,1.37c-.4,0-.81,0-1.24.06a5.5,5.5,0,0,0-1.15.2,2.09,2.09,0,0,0-.86.46,1,1,0,0,0-.34.81,1.11,1.11,0,0,0,.15.6,1.09,1.09,0,0,0,.38.39,1.58,1.58,0,0,0,.52.21,3.05,3.05,0,0,0,.6.06A2.21,2.21,0,0,0,366,343a2.44,2.44,0,0,0,.6-1.69v-.43Z"/><path class="cls-4" d="M372.35,343.44v1.28H370.8V331.86h1.6v6h.05a3.34,3.34,0,0,1,1.14-1,3.49,3.49,0,0,1,1.73-.41,4.09,4.09,0,0,1,1.63.32,3.86,3.86,0,0,1,1.27.9,4.07,4.07,0,0,1,.83,1.35,4.79,4.79,0,0,1,.29,1.66,4.89,4.89,0,0,1-.29,1.67,4.16,4.16,0,0,1-.82,1.36,3.78,3.78,0,0,1-1.27.91,4.13,4.13,0,0,1-1.68.33,3.75,3.75,0,0,1-1.64-.38,3.17,3.17,0,0,1-1.26-1.12Zm5.35-2.76a3.36,3.36,0,0,0-.17-1.09,2.64,2.64,0,0,0-.51-.93,2.35,2.35,0,0,0-.84-.64,2.64,2.64,0,0,0-1.16-.24,2.56,2.56,0,0,0-2,.88,2.92,2.92,0,0,0-.56.93,3.31,3.31,0,0,0,0,2.21,2.77,2.77,0,0,0,.56.92,2.51,2.51,0,0,0,2,.87,2.64,2.64,0,0,0,1.16-.24,2.37,2.37,0,0,0,.84-.65,2.77,2.77,0,0,0,.51-.94A3.3,3.3,0,0,0,377.7,340.68Z"/><path class="cls-4" d="M383.21,344.72h-1.6V331.86h1.6Z"/><path class="cls-4" d="M393.53,340.62v.27a2.45,2.45,0,0,1,0,.27H387.1a2.42,2.42,0,0,0,.23,1,2.57,2.57,0,0,0,.57.77,2.84,2.84,0,0,0,.83.52,2.72,2.72,0,0,0,1,.18,2.64,2.64,0,0,0,1.41-.35,2.93,2.93,0,0,0,.94-.87l1.12.9a4,4,0,0,1-1.52,1.26,4.6,4.6,0,0,1-1.95.41,4.51,4.51,0,0,1-1.7-.31,3.81,3.81,0,0,1-1.34-.86,4.14,4.14,0,0,1-.89-1.33,4.84,4.84,0,0,1,0-3.46,3.93,3.93,0,0,1,.87-1.35,4,4,0,0,1,1.33-.88,4.34,4.34,0,0,1,1.66-.31,4.19,4.19,0,0,1,1.61.29,3.27,3.27,0,0,1,1.22.83,3.61,3.61,0,0,1,.78,1.32A5.21,5.21,0,0,1,393.53,340.62ZM391.9,340a3.26,3.26,0,0,0-.16-.89,2,2,0,0,0-.43-.72,2,2,0,0,0-.7-.49,2.4,2.4,0,0,0-1-.18,2.59,2.59,0,0,0-1.75.67,2.43,2.43,0,0,0-.54.72,2.52,2.52,0,0,0-.25.89Z"/><path class="cls-4" d="M406.06,334.91a2.68,2.68,0,0,0-1-.81,3,3,0,0,0-1.38-.31,2.94,2.94,0,0,0-.82.11,2.29,2.29,0,0,0-.76.35,2,2,0,0,0-.55.61,1.76,1.76,0,0,0-.21.88,1.58,1.58,0,0,0,.19.82,1.8,1.8,0,0,0,.53.57,3.55,3.55,0,0,0,.78.39l1,.33c.41.12.82.26,1.24.42a4.5,4.5,0,0,1,1.14.63,3.19,3.19,0,0,1,.84,1,3.13,3.13,0,0,1,.32,1.49A3.58,3.58,0,0,1,407,343a3.25,3.25,0,0,1-.93,1.14,4,4,0,0,1-1.33.67,5.45,5.45,0,0,1-1.56.22,5.76,5.76,0,0,1-2.2-.44,4.34,4.34,0,0,1-1.76-1.31l1.31-1.1a3.13,3.13,0,0,0,1.14,1,3.2,3.2,0,0,0,2.4.27,2.41,2.41,0,0,0,.77-.38,2.15,2.15,0,0,0,.57-.63,1.83,1.83,0,0,0,.22-.93,1.71,1.71,0,0,0-.23-.91,2,2,0,0,0-.62-.62,4,4,0,0,0-.91-.43l-1.09-.37a7.79,7.79,0,0,1-1.14-.42,4,4,0,0,1-1-.62,3,3,0,0,1-.71-.95,3.19,3.19,0,0,1-.27-1.39,3.14,3.14,0,0,1,.36-1.55,3.29,3.29,0,0,1,1-1.07,4,4,0,0,1,1.32-.62,5.81,5.81,0,0,1,1.49-.2,5.16,5.16,0,0,1,2,.38,3.91,3.91,0,0,1,1.48,1Z"/><path class="cls-4" d="M413.52,338h-2.14v4.18a1.61,1.61,0,0,0,.27,1.05,1.12,1.12,0,0,0,.87.31,2.69,2.69,0,0,0,.47-.05,1.91,1.91,0,0,0,.46-.14l.05,1.31a3.62,3.62,0,0,1-.63.16,4.4,4.4,0,0,1-.73.06,2.31,2.31,0,0,1-1.74-.63,2.62,2.62,0,0,1-.6-1.88V338h-1.55v-1.31h1.55v-2.31h1.58v2.31h2.14Z"/><path class="cls-4" d="M423.33,340.67a4.39,4.39,0,0,1-.33,1.72,4.07,4.07,0,0,1-2.3,2.23,4.78,4.78,0,0,1-3.44,0,4.12,4.12,0,0,1-1.38-.88A4.44,4.44,0,0,1,415,339a4,4,0,0,1,2.28-2.21,4.93,4.93,0,0,1,3.44,0,4.12,4.12,0,0,1,1.38.88A4,4,0,0,1,423,339,4.34,4.34,0,0,1,423.33,340.67Zm-1.67,0a3.33,3.33,0,0,0-.17-1.1,3,3,0,0,0-.52-.93,2.58,2.58,0,0,0-.85-.63,2.88,2.88,0,0,0-2.3,0,2.44,2.44,0,0,0-.84.63,2.85,2.85,0,0,0-.53.93,3.62,3.62,0,0,0-.17,1.1,3.67,3.67,0,0,0,.17,1.1,2.85,2.85,0,0,0,.53.93,2.37,2.37,0,0,0,.84.65,3,3,0,0,0,2.3,0,2.5,2.5,0,0,0,.85-.65,3,3,0,0,0,.52-.93A3.38,3.38,0,0,0,421.66,340.68Z"/><path class="cls-4" d="M425.52,337.56c0-.34,0-.64,0-.9H427c0,.2,0,.44.05.7s0,.49,0,.66h.05a2.79,2.79,0,0,1,1-1.15,2.59,2.59,0,0,1,1.47-.43,2.28,2.28,0,0,1,.63.07l-.07,1.47a3.4,3.4,0,0,0-.73-.08,2.2,2.2,0,0,0-1,.21,2,2,0,0,0-.71.57,2.32,2.32,0,0,0-.42.83,3.44,3.44,0,0,0-.13,1v4.24h-1.6v-6.33C425.54,338.18,425.53,337.9,425.52,337.56Z"/><path class="cls-4" d="M438.92,340.62v.27a2.45,2.45,0,0,1,0,.27h-6.41a2.44,2.44,0,0,0,.8,1.73,2.84,2.84,0,0,0,.83.52,2.72,2.72,0,0,0,1,.18,2.64,2.64,0,0,0,1.41-.35,2.93,2.93,0,0,0,.94-.87l1.12.9a4,4,0,0,1-1.52,1.26,4.6,4.6,0,0,1-1.95.41,4.51,4.51,0,0,1-1.7-.31,3.81,3.81,0,0,1-1.34-.86,4,4,0,0,1-.89-1.33,4.84,4.84,0,0,1,0-3.46,3.93,3.93,0,0,1,.87-1.35,4,4,0,0,1,1.33-.88,4.3,4.3,0,0,1,1.66-.31,4.19,4.19,0,0,1,1.61.29,3.27,3.27,0,0,1,1.22.83,3.61,3.61,0,0,1,.78,1.32A5.21,5.21,0,0,1,438.92,340.62Zm-1.63-.65a3.26,3.26,0,0,0-.16-.89,2,2,0,0,0-.43-.72,2,2,0,0,0-.7-.49,2.4,2.4,0,0,0-1-.18,2.59,2.59,0,0,0-1.75.67,2.43,2.43,0,0,0-.54.72,2.52,2.52,0,0,0-.25.89Z"/><rect class="cls-2" x="152.43" y="136.43" width="349.5" height="74.6"/><path class="cls-4" d="M166.16,202.56h-1.22v-9.28h1.19v1h0a2.39,2.39,0,0,1,.88-.81,2.74,2.74,0,0,1,1.34-.32,3.17,3.17,0,0,1,1.25.25,3,3,0,0,1,1,.69,3.17,3.17,0,0,1,.63,1,3.57,3.57,0,0,1,.22,1.27,3.53,3.53,0,0,1-.22,1.27,3.09,3.09,0,0,1-.62,1,2.84,2.84,0,0,1-1,.7,3.13,3.13,0,0,1-1.29.25,2.78,2.78,0,0,1-1.24-.28,2.2,2.2,0,0,1-.92-.81h0Zm4.05-6.21a2.57,2.57,0,0,0-.13-.83,1.94,1.94,0,0,0-.39-.72,1.85,1.85,0,0,0-.64-.49,2.08,2.08,0,0,0-.89-.18,2,2,0,0,0-.85.18,2,2,0,0,0-.66.49,2.35,2.35,0,0,0-.42.72,2.46,2.46,0,0,0,0,1.69,2.3,2.3,0,0,0,.42.71,2,2,0,0,0,.66.48,1.83,1.83,0,0,0,.85.19,2.08,2.08,0,0,0,.89-.19,1.88,1.88,0,0,0,.64-.5,1.94,1.94,0,0,0,.39-.72A2.57,2.57,0,0,0,170.21,196.35Z"/><path class="cls-4" d="M173.16,194c0-.26,0-.49,0-.69h1.15c0,.16,0,.34,0,.54s0,.37,0,.5h0a2.21,2.21,0,0,1,.76-.87,2,2,0,0,1,1.13-.34,1.65,1.65,0,0,1,.48.06l-.05,1.13a2,2,0,0,0-.56-.07,1.82,1.82,0,0,0-.77.16,1.56,1.56,0,0,0-.54.44,1.87,1.87,0,0,0-.32.63,2.66,2.66,0,0,0-.1.75v3.23h-1.22v-4.83C173.18,194.44,173.17,194.23,173.16,194Z"/><path class="cls-4" d="M183.9,196.35a3.26,3.26,0,0,1-.25,1.31,3.13,3.13,0,0,1-.7,1,3.24,3.24,0,0,1-1.06.67,3.72,3.72,0,0,1-2.63,0,3,3,0,0,1-1-.67,3.13,3.13,0,0,1-.7-1,3.26,3.26,0,0,1-.25-1.31,3.29,3.29,0,0,1,.25-1.31,3.15,3.15,0,0,1,.7-1,3.32,3.32,0,0,1,1-.67A3.51,3.51,0,0,1,183,194a3.15,3.15,0,0,1,.7,1A3.29,3.29,0,0,1,183.9,196.35Zm-1.27,0a2.55,2.55,0,0,0-.14-.84,2,2,0,0,0-.4-.71,1.83,1.83,0,0,0-.64-.49,2.07,2.07,0,0,0-.88-.18,2,2,0,0,0-.88.18,1.86,1.86,0,0,0-.65.49,2.34,2.34,0,0,0-.4.71,2.55,2.55,0,0,0-.13.84,2.63,2.63,0,0,0,.13.84,2.34,2.34,0,0,0,.4.71,1.91,1.91,0,0,0,1.53.68,2.07,2.07,0,0,0,.88-.18,2.08,2.08,0,0,0,1-1.21A2.64,2.64,0,0,0,182.63,196.36Z"/><path class="cls-4" d="M186.07,200.5a3.16,3.16,0,0,0,1,.73,3,3,0,0,0,1.24.27,2.6,2.6,0,0,0,1-.18,1.58,1.58,0,0,0,.67-.48,1.75,1.75,0,0,0,.36-.72,3.27,3.27,0,0,0,.11-.9v-.79h0a2.17,2.17,0,0,1-.93.79,2.78,2.78,0,0,1-1.24.28,3.28,3.28,0,0,1-1.28-.25,2.78,2.78,0,0,1-1-.68,3.18,3.18,0,0,1-.62-1,3.63,3.63,0,0,1,0-2.49,3.28,3.28,0,0,1,.62-1,3,3,0,0,1,1-.69,3.1,3.1,0,0,1,1.27-.26,2.92,2.92,0,0,1,1.27.29,2.24,2.24,0,0,1,1,.87h0v-1h1.19v5.85a5.09,5.09,0,0,1-.17,1.3,2.94,2.94,0,0,1-.58,1.09,2.88,2.88,0,0,1-1.05.76,4,4,0,0,1-1.61.28,4.62,4.62,0,0,1-1.62-.29,4.14,4.14,0,0,1-1.4-.82Zm.37-4.2a2.51,2.51,0,0,0,.13.82,2.18,2.18,0,0,0,.41.69,2,2,0,0,0,.64.48,2,2,0,0,0,.86.18,2.25,2.25,0,0,0,.87-.17,2,2,0,0,0,.66-.46,2.2,2.2,0,0,0,.42-.69,2.37,2.37,0,0,0,.15-.85,2.27,2.27,0,0,0-.15-.83,2.06,2.06,0,0,0-.43-.69,2,2,0,0,0-.66-.48,2,2,0,0,0-2.77,1.16A2.59,2.59,0,0,0,186.44,196.3Z"/><path class="cls-4" d="M193.8,194c0-.26,0-.49,0-.69h1.15c0,.16,0,.34,0,.54s0,.37,0,.5h0a2.21,2.21,0,0,1,.76-.87,2,2,0,0,1,1.13-.34,1.65,1.65,0,0,1,.48.06l-.05,1.13a2,2,0,0,0-.56-.07,1.82,1.82,0,0,0-.77.16,1.77,1.77,0,0,0-.54.44,1.87,1.87,0,0,0-.32.63,2.66,2.66,0,0,0-.1.75v3.23h-1.22v-4.83C193.81,194.44,193.8,194.23,193.8,194Z"/><path class="cls-4" d="M202.18,195.45a1.22,1.22,0,0,0-.42-1,1.7,1.7,0,0,0-1.1-.33,2.49,2.49,0,0,0-1,.2,2.59,2.59,0,0,0-.78.52l-.65-.78a3.39,3.39,0,0,1,1.12-.68,4,4,0,0,1,1.41-.25,3.34,3.34,0,0,1,1.15.19,2.26,2.26,0,0,1,.8.52,2.1,2.1,0,0,1,.46.76,2.71,2.71,0,0,1,.16.95v2.69c0,.21,0,.43,0,.66a3.38,3.38,0,0,0,.07.56h-1.1a3.72,3.72,0,0,1-.11-.88h0a2.32,2.32,0,0,1-.85.77,2.57,2.57,0,0,1-1.21.27,2.89,2.89,0,0,1-.76-.1,2.27,2.27,0,0,1-.73-.31,2,2,0,0,1-.54-.59,1.76,1.76,0,0,1-.21-.9,1.57,1.57,0,0,1,.38-1.11,2.36,2.36,0,0,1,1-.62,5,5,0,0,1,1.37-.28c.51,0,1-.07,1.55-.07Zm-.3,1.06c-.3,0-.62,0-.94,0a3.93,3.93,0,0,0-.89.15,1.76,1.76,0,0,0-.65.35.92.92,0,0,0-.15,1.08.92.92,0,0,0,.29.3,1.16,1.16,0,0,0,.4.16,2.31,2.31,0,0,0,.46,0,1.7,1.7,0,0,0,1.32-.51,1.88,1.88,0,0,0,.46-1.3v-.32Z"/><path class="cls-4" d="M207.33,193.46a2.16,2.16,0,0,1,1.22-.35,2.2,2.2,0,0,1,1.12.29,1.89,1.89,0,0,1,.79.95,2.27,2.27,0,0,1,.87-.92,2.6,2.6,0,0,1,2.25-.12,2,2,0,0,1,1.14,1.34,3.39,3.39,0,0,1,.14,1v3.82h-1.23V196a4.11,4.11,0,0,0-.06-.72,2.25,2.25,0,0,0-.22-.6,1.27,1.27,0,0,0-.42-.41,1.2,1.2,0,0,0-.66-.16,1.39,1.39,0,0,0-1.2.63,2,2,0,0,0-.28.63,3.45,3.45,0,0,0-.08.72v3.32h-1.22v-3.66a3.26,3.26,0,0,0-.07-.66,1.43,1.43,0,0,0-.22-.52,1.21,1.21,0,0,0-.4-.34,1.41,1.41,0,0,0-.61-.12,1.4,1.4,0,0,0-1.13.55,2.27,2.27,0,0,0-.45,1.48v3.27h-1.22v-4.83c0-.17,0-.38,0-.64s0-.49,0-.69h1.16c0,.16,0,.33,0,.53s0,.36,0,.49h0A2,2,0,0,1,207.33,193.46Z"/><path class="cls-4" d="M218.87,193.46a2.1,2.1,0,0,1,1.21-.35,2.26,2.26,0,0,1,1.13.29,1.93,1.93,0,0,1,.78.95,2.27,2.27,0,0,1,.87-.92,2.6,2.6,0,0,1,2.25-.12,2,2,0,0,1,1.14,1.34,3.39,3.39,0,0,1,.14,1v3.82h-1.23V196a4.11,4.11,0,0,0-.06-.72,2,2,0,0,0-.22-.6,1.27,1.27,0,0,0-.42-.41,1.2,1.2,0,0,0-.66-.16,1.39,1.39,0,0,0-1.2.63,2,2,0,0,0-.28.63,3.45,3.45,0,0,0-.08.72v3.32H221v-3.66a2.67,2.67,0,0,0-.07-.66,1.43,1.43,0,0,0-.22-.52,1.21,1.21,0,0,0-.4-.34,1.41,1.41,0,0,0-.61-.12,1.4,1.4,0,0,0-1.13.55,2.27,2.27,0,0,0-.45,1.48v3.27h-1.22v-4.83c0-.17,0-.38,0-.64s0-.49,0-.69H218c0,.16,0,.33,0,.53s0,.36,0,.49h0A2,2,0,0,1,218.87,193.46Z"/><path class="cls-4" d="M232.29,195.45a1.22,1.22,0,0,0-.42-1,1.72,1.72,0,0,0-1.1-.33,2.45,2.45,0,0,0-1,.2,2.59,2.59,0,0,0-.78.52l-.65-.78a3.35,3.35,0,0,1,1.11-.68,4.1,4.1,0,0,1,1.41-.25,3.25,3.25,0,0,1,1.15.19,2.1,2.1,0,0,1,.8.52,2,2,0,0,1,.47.76,2.71,2.71,0,0,1,.16.95v2.69c0,.21,0,.43,0,.66a2.57,2.57,0,0,0,.07.56h-1.11a3.71,3.71,0,0,1-.1-.88h0a2.4,2.4,0,0,1-.85.77,2.58,2.58,0,0,1-1.22.27,3,3,0,0,1-.76-.1,2.31,2.31,0,0,1-.72-.31,1.92,1.92,0,0,1-.54-.59,1.76,1.76,0,0,1-.21-.9,1.57,1.57,0,0,1,.37-1.11,2.5,2.5,0,0,1,1-.62,5.19,5.19,0,0,1,1.38-.28c.51,0,1-.07,1.55-.07Zm-.3,1.06c-.3,0-.62,0-.94,0a3.93,3.93,0,0,0-.89.15,1.76,1.76,0,0,0-.65.35.92.92,0,0,0-.15,1.08.92.92,0,0,0,.29.3,1.09,1.09,0,0,0,.4.16,2.31,2.31,0,0,0,.46,0,1.7,1.7,0,0,0,1.32-.51,1.93,1.93,0,0,0,.46-1.3v-.32Z"/><path class="cls-4" d="M236.71,198.47v1h-1.19v-9.82h1.23v4.59h0a2.51,2.51,0,0,1,.86-.78,2.7,2.7,0,0,1,1.33-.32,3.17,3.17,0,0,1,1.25.25,3.06,3.06,0,0,1,1,.69,3.17,3.17,0,0,1,.63,1,3.57,3.57,0,0,1,.22,1.27,3.53,3.53,0,0,1-.22,1.27,3.09,3.09,0,0,1-.62,1,2.84,2.84,0,0,1-1,.7,3.16,3.16,0,0,1-1.29.25,2.77,2.77,0,0,1-1.26-.29,2.45,2.45,0,0,1-1-.85Zm4.09-2.11a2.57,2.57,0,0,0-.13-.83,1.94,1.94,0,0,0-1-1.21,2.08,2.08,0,0,0-.89-.18,2,2,0,0,0-.85.18,2,2,0,0,0-.66.49,2.35,2.35,0,0,0-.42.72,2.43,2.43,0,0,0,0,1.68,2.08,2.08,0,0,0,1.08,1.2,2,2,0,0,0,.85.18,2.08,2.08,0,0,0,.89-.19,2,2,0,0,0,1-1.21A2.62,2.62,0,0,0,240.8,196.36Z"/><path class="cls-4" d="M245,199.44h-1.22v-9.82H245Z"/><path class="cls-4" d="M252.91,196.31v.21a1.49,1.49,0,0,1,0,.21H248a1.83,1.83,0,0,0,.18.73,2,2,0,0,0,.43.59,1.86,1.86,0,0,0,.63.39,1.94,1.94,0,0,0,.76.15,2,2,0,0,0,1.08-.28,2.19,2.19,0,0,0,.72-.66l.86.69a3,3,0,0,1-1.17,1,3.43,3.43,0,0,1-1.49.31,3.49,3.49,0,0,1-1.3-.23,2.85,2.85,0,0,1-1-.66,2.9,2.9,0,0,1-.68-1,3.68,3.68,0,0,1,0-2.64,3.13,3.13,0,0,1,.68-1,3.24,3.24,0,0,1,1-.67,3.3,3.3,0,0,1,1.27-.24,3.45,3.45,0,0,1,1.23.22,2.46,2.46,0,0,1,.93.64,2.92,2.92,0,0,1,.6,1A4,4,0,0,1,252.91,196.31Zm-1.25-.49a2.16,2.16,0,0,0-.13-.68,1.55,1.55,0,0,0-.32-.56,1.58,1.58,0,0,0-.53-.37,2,2,0,0,0-.75-.13,2,2,0,0,0-.74.13,1.85,1.85,0,0,0-.59.37,2,2,0,0,0-.42.56,1.77,1.77,0,0,0-.19.68Z"/><path class="cls-4" d="M321.11,170.22a2.65,2.65,0,0,0-1-.81,3,3,0,0,0-1.38-.32,3,3,0,0,0-.83.12,2.24,2.24,0,0,0-.75.35,2.17,2.17,0,0,0-.56.61,1.76,1.76,0,0,0-.21.88,1.58,1.58,0,0,0,.2.82,1.66,1.66,0,0,0,.53.56,3.17,3.17,0,0,0,.78.4l1,.33c.41.12.82.26,1.24.42a4.5,4.5,0,0,1,1.14.63,2.89,2.89,0,0,1,1.15,2.47,3.58,3.58,0,0,1-.34,1.62,3.48,3.48,0,0,1-.93,1.14,4,4,0,0,1-1.34.67,5.38,5.38,0,0,1-1.55.22,5.76,5.76,0,0,1-2.2-.44,4.36,4.36,0,0,1-1.76-1.31l1.31-1.1a3.32,3.32,0,0,0,1.14,1,3.15,3.15,0,0,0,1.54.39,3.06,3.06,0,0,0,.85-.12,2.46,2.46,0,0,0,.78-.38,2.15,2.15,0,0,0,.57-.63,1.94,1.94,0,0,0,.22-.93,1.71,1.71,0,0,0-.23-.91,2.15,2.15,0,0,0-.62-.62,4.26,4.26,0,0,0-.91-.43c-.35-.12-.71-.25-1.1-.37a8.75,8.75,0,0,1-1.14-.42,3.91,3.91,0,0,1-1-.62,3,3,0,0,1-.72-1,3.19,3.19,0,0,1-.27-1.39,3,3,0,0,1,.37-1.55,3.26,3.26,0,0,1,1-1.07,4,4,0,0,1,1.33-.62,5.74,5.74,0,0,1,1.48-.2,5.21,5.21,0,0,1,2,.38,3.87,3.87,0,0,1,1.47,1Z"/><path class="cls-4" d="M327.26,172.2a2.8,2.8,0,0,1,1.59-.45,2.92,2.92,0,0,1,1.47.37,2.48,2.48,0,0,1,1,1.24,2.87,2.87,0,0,1,1.14-1.2,3.26,3.26,0,0,1,1.6-.41,3.08,3.08,0,0,1,1.34.26,2.74,2.74,0,0,1,.93.71,2.86,2.86,0,0,1,.56,1,4.77,4.77,0,0,1,.17,1.28v5H335.5v-4.48a4.66,4.66,0,0,0-.09-.93,2.14,2.14,0,0,0-.29-.78,1.5,1.5,0,0,0-.54-.55,1.75,1.75,0,0,0-.87-.2,1.83,1.83,0,0,0-.93.23,1.91,1.91,0,0,0-.64.59,2.82,2.82,0,0,0-.36.83,4.15,4.15,0,0,0-.11.93V180h-1.6v-4.8a3.9,3.9,0,0,0-.08-.87,1.77,1.77,0,0,0-.29-.67,1.53,1.53,0,0,0-.53-.44,1.73,1.73,0,0,0-.8-.16,1.82,1.82,0,0,0-1.47.72,3,3,0,0,0-.58,1.93V180h-1.6V173.7c0-.21,0-.49,0-.83s0-.64-.05-.9h1.51a6.55,6.55,0,0,1,0,.69c0,.25,0,.46,0,.63h0A2.75,2.75,0,0,1,327.26,172.2Z"/><path class="cls-4" d="M344.81,174.81a1.62,1.62,0,0,0-.54-1.34,2.26,2.26,0,0,0-1.45-.43,3.25,3.25,0,0,0-1.28.26,3.36,3.36,0,0,0-1,.67l-.85-1a4.36,4.36,0,0,1,1.45-.88,5.1,5.1,0,0,1,1.85-.32,4.25,4.25,0,0,1,1.5.24,3,3,0,0,1,1,.67,2.88,2.88,0,0,1,.61,1,3.84,3.84,0,0,1,.2,1.24v3.52c0,.27,0,.56,0,.86a4.39,4.39,0,0,0,.09.74H345a5.18,5.18,0,0,1-.14-1.16h-.05a3.21,3.21,0,0,1-1.11,1,3.33,3.33,0,0,1-1.59.36,4,4,0,0,1-1-.13,2.83,2.83,0,0,1-.94-.41,2.39,2.39,0,0,1-.71-.77,2.35,2.35,0,0,1-.28-1.17,2.13,2.13,0,0,1,.49-1.46,3.21,3.21,0,0,1,1.3-.81,7.25,7.25,0,0,1,1.8-.37c.67-.05,1.34-.08,2-.08Zm-.39,1.37c-.4,0-.81,0-1.23,0a6.32,6.32,0,0,0-1.16.21,2.16,2.16,0,0,0-.86.46,1,1,0,0,0-.34.81,1.11,1.11,0,0,0,.15.6,1.09,1.09,0,0,0,.38.39,1.63,1.63,0,0,0,.53.21,2.88,2.88,0,0,0,.59.06,2.2,2.2,0,0,0,1.73-.67,2.44,2.44,0,0,0,.6-1.69v-.43Z"/><path class="cls-4" d="M349,172.87c0-.34,0-.64-.05-.9h1.52c0,.2,0,.44.05.7s0,.49,0,.66h.05a2.79,2.79,0,0,1,1-1.15,2.61,2.61,0,0,1,1.47-.43,2.8,2.8,0,0,1,.63.06l-.07,1.48a3.4,3.4,0,0,0-.73-.08,2.23,2.23,0,0,0-1,.21,2,2,0,0,0-.71.57,2.55,2.55,0,0,0-.42.82,3.56,3.56,0,0,0-.13,1V180H349V173.7C349,173.49,349,173.21,349,172.87Z"/><path class="cls-4" d="M358.92,173.28h-2.14v4.18a1.56,1.56,0,0,0,.27,1,1.09,1.09,0,0,0,.87.32,2.8,2.8,0,0,0,.48,0,1.83,1.83,0,0,0,.45-.14l.06,1.31a4,4,0,0,1-.64.16,4.28,4.28,0,0,1-.72.06,2.31,2.31,0,0,1-1.75-.63,2.64,2.64,0,0,1-.6-1.88v-4.37h-1.55V172h1.55v-2.31h1.58V172h2.14Z"/><path class="cls-4" d="M370.89,170.22a2.68,2.68,0,0,0-1-.81,3,3,0,0,0-2.2-.2,2.29,2.29,0,0,0-.76.35,2.14,2.14,0,0,0-.55.61,1.76,1.76,0,0,0-.21.88,1.58,1.58,0,0,0,.19.82,1.77,1.77,0,0,0,.53.56,3.17,3.17,0,0,0,.78.4l1,.33c.41.12.83.26,1.24.42a4.5,4.5,0,0,1,1.14.63,3.19,3.19,0,0,1,.84,1,3.13,3.13,0,0,1,.32,1.49,3.58,3.58,0,0,1-.35,1.62,3.25,3.25,0,0,1-.93,1.14,4,4,0,0,1-1.33.67,5.4,5.4,0,0,1-1.56.22,5.8,5.8,0,0,1-2.2-.44,4.43,4.43,0,0,1-1.76-1.31l1.31-1.1a3.52,3.52,0,0,0,1.14,1,3.2,3.2,0,0,0,2.4.27,2.41,2.41,0,0,0,.77-.38,2.15,2.15,0,0,0,.57-.63,1.83,1.83,0,0,0,.22-.93,1.62,1.62,0,0,0-.23-.91,2,2,0,0,0-.62-.62,4,4,0,0,0-.91-.43l-1.09-.37a7.79,7.79,0,0,1-1.14-.42,4,4,0,0,1-1-.62,3,3,0,0,1-.71-1,3.19,3.19,0,0,1-.27-1.39,3.14,3.14,0,0,1,.36-1.55,3.29,3.29,0,0,1,1-1.07,4,4,0,0,1,1.32-.62,5.81,5.81,0,0,1,1.49-.2,5.16,5.16,0,0,1,2,.38,3.91,3.91,0,0,1,1.48,1Z"/><path class="cls-4" d="M378.35,173.28h-2.14v4.18a1.56,1.56,0,0,0,.27,1,1.09,1.09,0,0,0,.87.32,2.8,2.8,0,0,0,.48,0,1.83,1.83,0,0,0,.45-.14l.06,1.31a4,4,0,0,1-.64.16,4.2,4.2,0,0,1-.72.06,2.33,2.33,0,0,1-1.75-.63,2.64,2.64,0,0,1-.6-1.88v-4.37h-1.55V172h1.55v-2.31h1.58V172h2.14Z"/><path class="cls-4" d="M380,172.87c0-.34,0-.64-.06-.9h1.52c0,.2,0,.44.05.7s0,.49,0,.66h.05a2.69,2.69,0,0,1,1-1.15,2.61,2.61,0,0,1,1.47-.43,2.8,2.8,0,0,1,.63.06l-.07,1.48a3.4,3.4,0,0,0-.73-.08,2.23,2.23,0,0,0-1,.21,2,2,0,0,0-.71.57,2.53,2.53,0,0,0-.41.82,3.57,3.57,0,0,0-.14,1V180H380V173.7C380,173.49,380,173.21,380,172.87Z"/><path class="cls-4" d="M393.38,175.93v.27a1.23,1.23,0,0,1,0,.27H387a2.6,2.6,0,0,0,.23,1,2.91,2.91,0,0,0,.57.77,2.84,2.84,0,0,0,.83.52,2.93,2.93,0,0,0,2.4-.17,2.93,2.93,0,0,0,.94-.87l1.12.9a4,4,0,0,1-1.52,1.26,4.57,4.57,0,0,1-1.95.41,4.71,4.71,0,0,1-1.7-.31,3.81,3.81,0,0,1-1.34-.86,4,4,0,0,1-.88-1.33,4.42,4.42,0,0,1-.33-1.74,4.58,4.58,0,0,1,.32-1.72,3.81,3.81,0,0,1,.88-1.35,3.87,3.87,0,0,1,1.32-.88,4.38,4.38,0,0,1,1.66-.31,4.19,4.19,0,0,1,1.61.29,3.27,3.27,0,0,1,1.22.83,3.61,3.61,0,0,1,.78,1.32A5.21,5.21,0,0,1,393.38,175.93Zm-1.63-.65a3.19,3.19,0,0,0-.16-.89,2,2,0,0,0-.43-.72,1.93,1.93,0,0,0-.69-.49,2.48,2.48,0,0,0-1-.18,2.56,2.56,0,0,0-1,.18,2.4,2.4,0,0,0-.78.49,2.3,2.3,0,0,0-.55.72,2.46,2.46,0,0,0-.25.89Z"/><path class="cls-4" d="M400.52,174.81a1.62,1.62,0,0,0-.54-1.34,2.27,2.27,0,0,0-1.45-.43,3.25,3.25,0,0,0-1.28.26,3.36,3.36,0,0,0-1,.67l-.85-1a4.36,4.36,0,0,1,1.45-.88,5.1,5.1,0,0,1,1.85-.32,4.29,4.29,0,0,1,1.5.24,3.11,3.11,0,0,1,1.05.67,2.88,2.88,0,0,1,.61,1,3.84,3.84,0,0,1,.2,1.24v3.52c0,.27,0,.56,0,.86a3.55,3.55,0,0,0,.09.74h-1.44a4.66,4.66,0,0,1-.14-1.16h0a3.16,3.16,0,0,1-1.12,1,3.28,3.28,0,0,1-1.59.36,4,4,0,0,1-1-.13,2.75,2.75,0,0,1-.94-.41,2.39,2.39,0,0,1-.71-.77,2.25,2.25,0,0,1-.28-1.17,2.08,2.08,0,0,1,.49-1.46,3.21,3.21,0,0,1,1.3-.81,7.25,7.25,0,0,1,1.8-.37c.67-.05,1.34-.08,2-.08Zm-.39,1.37c-.4,0-.81,0-1.23,0a6.32,6.32,0,0,0-1.16.21,2.16,2.16,0,0,0-.86.46,1,1,0,0,0-.34.81,1.11,1.11,0,0,0,.15.6,1.09,1.09,0,0,0,.38.39,1.55,1.55,0,0,0,.53.21,2.88,2.88,0,0,0,.59.06,2.2,2.2,0,0,0,1.73-.67,2.44,2.44,0,0,0,.6-1.69v-.43Z"/><path class="cls-4" d="M407.26,172.2a2.8,2.8,0,0,1,1.59-.45,2.92,2.92,0,0,1,1.47.37,2.48,2.48,0,0,1,1,1.24,2.87,2.87,0,0,1,1.14-1.2,3.26,3.26,0,0,1,1.6-.41,3.05,3.05,0,0,1,1.34.26,2.74,2.74,0,0,1,.93.71,2.86,2.86,0,0,1,.56,1,4.4,4.4,0,0,1,.18,1.28v5h-1.6v-4.48a4.66,4.66,0,0,0-.09-.93,2.14,2.14,0,0,0-.29-.78,1.5,1.5,0,0,0-.54-.55,1.75,1.75,0,0,0-.87-.2,1.83,1.83,0,0,0-.93.23,1.91,1.91,0,0,0-.64.59,2.82,2.82,0,0,0-.36.83,4.15,4.15,0,0,0-.11.93V180h-1.6v-4.8a3.9,3.9,0,0,0-.08-.87,1.77,1.77,0,0,0-.29-.67,1.44,1.44,0,0,0-.53-.44,1.73,1.73,0,0,0-.8-.16,1.83,1.83,0,0,0-1.47.72,3,3,0,0,0-.58,1.93V180h-1.6V173.7c0-.21,0-.49,0-.83s0-.64-.05-.9h1.51c0,.2,0,.43.06.69s0,.46,0,.63h0A2.75,2.75,0,0,1,407.26,172.2Z"/><path class="cls-4" d="M424.15,174a2,2,0,0,0-.76-.72,2.19,2.19,0,0,0-1.11-.29,2.48,2.48,0,0,0-.54.06,1.79,1.79,0,0,0-.49.19,1.16,1.16,0,0,0-.34.32.94.94,0,0,0-.13.49.8.8,0,0,0,.46.75,5.63,5.63,0,0,0,1.38.46,7.49,7.49,0,0,1,1.07.32,3.08,3.08,0,0,1,.86.47,2,2,0,0,1,.57.67,1.89,1.89,0,0,1,.2.92,2.47,2.47,0,0,1-.27,1.2,2.34,2.34,0,0,1-.72.81,2.91,2.91,0,0,1-1,.45,5.17,5.17,0,0,1-1.19.14,4.65,4.65,0,0,1-1.79-.36,3.52,3.52,0,0,1-1.46-1.09l1.14-1a2.6,2.6,0,0,0,.9.8,2.43,2.43,0,0,0,1.25.32,2.78,2.78,0,0,0,.58-.06,1.42,1.42,0,0,0,.51-.19,1.06,1.06,0,0,0,.37-.36,1,1,0,0,0,.13-.56.89.89,0,0,0-.53-.83,7.31,7.31,0,0,0-1.58-.51c-.27-.07-.54-.15-.82-.25a2.63,2.63,0,0,1-.76-.4,2.09,2.09,0,0,1-.55-.63,2,2,0,0,1-.21-.95,2.28,2.28,0,0,1,.26-1.11,2.44,2.44,0,0,1,.69-.77,3.07,3.07,0,0,1,1-.44,4.19,4.19,0,0,1,1.12-.14,4.24,4.24,0,0,1,1.68.34,2.79,2.79,0,0,1,1.25,1Z"/><rect class="cls-2" x="151.74" y="219.44" width="349.5" height="74.6"/><path class="cls-4" d="M227.63,258.52a.74.74,0,0,1-.74-.65c-1.18-9.69-8.27-20-21.07-20h-.31c-12.49.17-19,10.17-20,20a.75.75,0,0,1-1.5-.15c1.39-14.58,11.77-21.24,21.44-21.37s21.08,6.5,22.89,21.35a.76.76,0,0,1-.66.84Z"/><path class="cls-4" d="M188.15,252.19a.79.79,0,0,1-.29-.06l-1.51-.64a.75.75,0,0,1,.59-1.38l1.51.64a.75.75,0,0,1-.3,1.44Z"/><path class="cls-4" d="M205.74,240.28a.75.75,0,0,1-.75-.75v-2.3a.75.75,0,0,1,1.5,0v2.3A.76.76,0,0,1,205.74,240.28Z"/><path class="cls-4" d="M198.16,241.63a.76.76,0,0,1-.69-.43l-.84-1.83a.76.76,0,0,1,.37-1,.75.75,0,0,1,1,.37l.84,1.83a.74.74,0,0,1-.37,1A.7.7,0,0,1,198.16,241.63Z"/><path class="cls-4" d="M192.19,245.9a.77.77,0,0,1-.53-.21l-1.5-1.46a.75.75,0,1,1,1-1.08l1.51,1.46a.75.75,0,0,1,0,1.06A.74.74,0,0,1,192.19,245.9Z"/><path class="cls-4" d="M223.82,251.9a.75.75,0,0,1-.69-.46.74.74,0,0,1,.39-1l1.52-.65a.75.75,0,0,1,1,.4.74.74,0,0,1-.39,1l-1.52.65A.79.79,0,0,1,223.82,251.9Z"/><path class="cls-4" d="M213.33,241.49a.92.92,0,0,1-.32-.07.75.75,0,0,1-.36-1l.84-1.83a.75.75,0,0,1,1.37.63l-.85,1.83A.77.77,0,0,1,213.33,241.49Z"/><path class="cls-4" d="M219.62,245.75a.72.72,0,0,1-.54-.23.75.75,0,0,1,0-1.06l1.52-1.46a.75.75,0,0,1,1.06,0,.76.76,0,0,1,0,1.06l-1.52,1.46A.75.75,0,0,1,219.62,245.75Z"/><polygon class="cls-4" points="205.69 253.29 219.9 247.94 207.39 256.55 205.69 253.29"/><path class="cls-4" d="M207.39,257.15l-.14,0a.59.59,0,0,1-.39-.3l-1.7-3.26a.6.6,0,0,1,.32-.84l14.21-5.35a.6.6,0,0,1,.55,1.05L207.73,257A.6.6,0,0,1,207.39,257.15Zm-.86-3.54,1.08,2.06,7.89-5.44Z"/><path class="cls-4" d="M207.49,253.78a1.86,1.86,0,0,1,0,2.53,1.62,1.62,0,0,1-2.37,0,1.86,1.86,0,0,1,0-2.53,1.62,1.62,0,0,1,2.37,0"/><path class="cls-4" d="M206.3,257.43a2.21,2.21,0,0,1-1.62-.71,2.48,2.48,0,0,1,0-3.35,2.21,2.21,0,0,1,1.62-.71h0a2.21,2.21,0,0,1,1.63.71,2.48,2.48,0,0,1,0,3.35A2.21,2.21,0,0,1,206.3,257.43Zm0-3.57a1,1,0,0,0-.75.34,1.26,1.26,0,0,0,0,1.7,1.05,1.05,0,0,0,1.5,0,1.24,1.24,0,0,0,0-1.7,1,1,0,0,0-.75-.34Z"/><path class="cls-4" d="M196.39,271.67h-1.65v5.95h-1.41v-5.95h-1.41v-1.16h1.41V269a4.67,4.67,0,0,1,.14-1.16,2.4,2.4,0,0,1,.47-.93,2.32,2.32,0,0,1,.82-.61,3,3,0,0,1,1.23-.23,3.25,3.25,0,0,1,.88.11l-.16,1.21-.33-.07a2.17,2.17,0,0,0-.38,0,1.33,1.33,0,0,0-.65.14,1.06,1.06,0,0,0-.38.38,1.62,1.62,0,0,0-.18.55,4.48,4.48,0,0,0,0,.64v1.48h1.65Z"/><path class="cls-4" d="M202.12,273a1.43,1.43,0,0,0-.48-1.18,2,2,0,0,0-1.27-.38,2.94,2.94,0,0,0-1.14.23,3,3,0,0,0-.89.59l-.75-.9a3.82,3.82,0,0,1,1.28-.78,4.62,4.62,0,0,1,1.63-.28,3.6,3.6,0,0,1,1.33.22,2.47,2.47,0,0,1,.92.59,2.41,2.41,0,0,1,.54.88,3.3,3.3,0,0,1,.18,1.1v3.1c0,.24,0,.5,0,.76a4.24,4.24,0,0,0,.09.65H202.3a4.44,4.44,0,0,1-.12-1h0a2.73,2.73,0,0,1-1,.89,2.92,2.92,0,0,1-1.4.31,3.48,3.48,0,0,1-.88-.11,2.49,2.49,0,0,1-.83-.37,2,2,0,0,1-.62-.67,2,2,0,0,1-.25-1,1.82,1.82,0,0,1,.44-1.28,2.86,2.86,0,0,1,1.14-.72,6.68,6.68,0,0,1,1.59-.32c.59-.05,1.18-.08,1.78-.08Zm-.34,1.21c-.35,0-.72,0-1.09,0a4.9,4.9,0,0,0-1,.18,1.9,1.9,0,0,0-.76.4.92.92,0,0,0-.3.72,1,1,0,0,0,.13.53,1,1,0,0,0,.34.34,1.25,1.25,0,0,0,.46.19,2.32,2.32,0,0,0,.53.05,1.92,1.92,0,0,0,1.52-.59,2.16,2.16,0,0,0,.53-1.49v-.38Z"/><path class="cls-4" d="M209.67,272.31a1.8,1.8,0,0,0-.68-.63,1.87,1.87,0,0,0-1-.25,2.61,2.61,0,0,0-.48.05,1.38,1.38,0,0,0-.43.17.81.81,0,0,0-.3.28.75.75,0,0,0-.11.43.72.72,0,0,0,.4.67,5.3,5.3,0,0,0,1.22.39,7.43,7.43,0,0,1,.94.29,3.23,3.23,0,0,1,.76.41,1.88,1.88,0,0,1,.5.59,1.73,1.73,0,0,1,.18.81,2.2,2.2,0,0,1-.24,1.07,2,2,0,0,1-.64.71,2.45,2.45,0,0,1-.9.4,4.57,4.57,0,0,1-1,.12,4.22,4.22,0,0,1-1.59-.32,3.12,3.12,0,0,1-1.28-1l1-.85a2.31,2.31,0,0,0,.78.7,2.24,2.24,0,0,0,1.11.29,2.76,2.76,0,0,0,.51-.05,1.51,1.51,0,0,0,.45-.18.9.9,0,0,0,.33-.31,1,1,0,0,0,.12-.5.77.77,0,0,0-.48-.73,6.16,6.16,0,0,0-1.38-.45,6.75,6.75,0,0,1-.73-.22,2.25,2.25,0,0,1-.67-.35,1.89,1.89,0,0,1-.49-.56,1.8,1.8,0,0,1-.18-.84,1.92,1.92,0,0,1,.23-1,2,2,0,0,1,.61-.67,2.45,2.45,0,0,1,.85-.39,3.64,3.64,0,0,1,1-.13,3.8,3.8,0,0,1,1.48.3,2.46,2.46,0,0,1,1.1.87Z"/><path class="cls-4" d="M216,271.67h-1.89v3.69a1.39,1.39,0,0,0,.24.92.93.93,0,0,0,.76.28,2.12,2.12,0,0,0,.42,0,1.64,1.64,0,0,0,.41-.13l0,1.16a3.06,3.06,0,0,1-.56.14,3.39,3.39,0,0,1-.64.05,2,2,0,0,1-1.54-.55,2.34,2.34,0,0,1-.53-1.67v-3.85h-1.36v-1.16h1.36v-2h1.4v2H216Z"/><path class="cls-4" d="M315.55,250.73h4.13a8,8,0,0,1,2.31.34,6.23,6.23,0,0,1,2.1,1.07A5.59,5.59,0,0,1,325.6,254a6.06,6.06,0,0,1,.58,2.74,5.91,5.91,0,0,1-.58,2.68,5.79,5.79,0,0,1-1.51,1.87,6.49,6.49,0,0,1-2.1,1.1,7.44,7.44,0,0,1-2.31.37h-4.13Zm1.68,10.56h2.11a6.25,6.25,0,0,0,2-.31,4.77,4.77,0,0,0,1.6-.88,4.06,4.06,0,0,0,1-1.43,4.73,4.73,0,0,0,.37-1.92,4.81,4.81,0,0,0-.37-2,3.94,3.94,0,0,0-1-1.42,4.76,4.76,0,0,0-1.6-.87,6.53,6.53,0,0,0-2-.3h-2.11Z"/><path class="cls-4" d="M333.42,257.55a1.6,1.6,0,0,0-.55-1.34,2.23,2.23,0,0,0-1.44-.43,3.29,3.29,0,0,0-2.3.94l-.85-1a4.52,4.52,0,0,1,1.46-.88,5.27,5.27,0,0,1,1.84-.32,4.31,4.31,0,0,1,1.51.24,2.85,2.85,0,0,1,1,.68,2.62,2.62,0,0,1,.61,1,3.59,3.59,0,0,1,.21,1.24v3.52c0,.27,0,.56,0,.86a4.28,4.28,0,0,0,.1.74h-1.45a5.09,5.09,0,0,1-.13-1.16h-.05a3.06,3.06,0,0,1-1.12,1,3.33,3.33,0,0,1-1.59.36,3.85,3.85,0,0,1-1-.13,2.88,2.88,0,0,1-.95-.41,2.48,2.48,0,0,1-.7-.77,2.23,2.23,0,0,1-.28-1.17,2,2,0,0,1,.49-1.45,3.15,3.15,0,0,1,1.29-.82,7.43,7.43,0,0,1,1.81-.37c.66-.05,1.34-.08,2-.08Zm-.39,1.38c-.4,0-.81,0-1.24.05a5.5,5.5,0,0,0-1.15.2,2.21,2.21,0,0,0-.86.46,1,1,0,0,0-.34.82,1.2,1.2,0,0,0,.14.59,1.21,1.21,0,0,0,.39.39,1.58,1.58,0,0,0,.52.21,3.05,3.05,0,0,0,.6.06,2.21,2.21,0,0,0,1.73-.67,2.44,2.44,0,0,0,.6-1.69v-.42Z"/><path class="cls-4" d="M341.41,256h-2.14v4.18a1.61,1.61,0,0,0,.27,1.05,1.08,1.08,0,0,0,.86.31,2.8,2.8,0,0,0,.48-.05,1.65,1.65,0,0,0,.46-.14l.05,1.31a3.52,3.52,0,0,1-.64.16,4.2,4.2,0,0,1-.72.06,2.29,2.29,0,0,1-1.74-.63,2.62,2.62,0,0,1-.6-1.88V256h-1.55v-1.31h1.55V252.4h1.58v2.31h2.14Z"/><path class="cls-4" d="M348.07,257.55a1.62,1.62,0,0,0-.54-1.34,2.26,2.26,0,0,0-1.45-.43,3.25,3.25,0,0,0-1.28.26,3.2,3.2,0,0,0-1,.68l-.85-1a4.36,4.36,0,0,1,1.45-.88,5.33,5.33,0,0,1,1.85-.32,4.25,4.25,0,0,1,1.5.24,2.89,2.89,0,0,1,1.05.68,2.75,2.75,0,0,1,.61,1,3.84,3.84,0,0,1,.2,1.24v3.52c0,.27,0,.56,0,.86a4.39,4.39,0,0,0,.09.74h-1.44a5.11,5.11,0,0,1-.14-1.16h-.05a3.12,3.12,0,0,1-1.11,1,3.33,3.33,0,0,1-1.59.36,4,4,0,0,1-1-.13,2.83,2.83,0,0,1-.94-.41,2.39,2.39,0,0,1-.71-.77,2.33,2.33,0,0,1-.28-1.17A2.08,2.08,0,0,1,343,259a3.12,3.12,0,0,1,1.3-.82,7.25,7.25,0,0,1,1.8-.37c.67-.05,1.34-.08,2-.08Zm-.39,1.38c-.4,0-.81,0-1.23.05a5.6,5.6,0,0,0-1.16.2,2.29,2.29,0,0,0-.86.46,1.05,1.05,0,0,0-.34.82,1.11,1.11,0,0,0,.53,1,1.63,1.63,0,0,0,.53.21,2.88,2.88,0,0,0,.59.06,2.2,2.2,0,0,0,1.73-.67,2.44,2.44,0,0,0,.6-1.69v-.42Z"/><path class="cls-4" d="M362.59,253a2.68,2.68,0,0,0-1-.81,3,3,0,0,0-1.38-.31,2.94,2.94,0,0,0-.82.11,2.29,2.29,0,0,0-.76.35,2,2,0,0,0-.55.62,1.7,1.7,0,0,0-.21.87,1.62,1.62,0,0,0,.19.83,1.88,1.88,0,0,0,.53.56,3.55,3.55,0,0,0,.78.39l1,.33c.41.12.82.27,1.24.42a4.5,4.5,0,0,1,1.14.63,3.19,3.19,0,0,1,.84,1,3.13,3.13,0,0,1,.32,1.49,3.58,3.58,0,0,1-.35,1.62,3.25,3.25,0,0,1-.93,1.14,4,4,0,0,1-1.33.67,5.45,5.45,0,0,1-1.56.22,5.58,5.58,0,0,1-2.2-.44,4.34,4.34,0,0,1-1.76-1.31l1.31-1.1a3.13,3.13,0,0,0,1.14,1,3.2,3.2,0,0,0,2.4.27,2.39,2.39,0,0,0,.77-.37,2.19,2.19,0,0,0,.57-.64,1.83,1.83,0,0,0,.22-.93,1.64,1.64,0,0,0-.23-.91,2,2,0,0,0-.62-.62,4,4,0,0,0-.91-.43l-1.09-.37a9.1,9.1,0,0,1-1.14-.41,4.31,4.31,0,0,1-1-.63,3,3,0,0,1-.71-.95,3.19,3.19,0,0,1-.27-1.39,3.14,3.14,0,0,1,.36-1.55,3.29,3.29,0,0,1,1-1.07,4,4,0,0,1,1.32-.62,5.8,5.8,0,0,1,1.49-.19,5.15,5.15,0,0,1,2,.37,3.91,3.91,0,0,1,1.48,1Z"/><path class="cls-4" d="M370.05,256h-2.14v4.18a1.61,1.61,0,0,0,.27,1.05,1.09,1.09,0,0,0,.87.31,2.8,2.8,0,0,0,.48-.05,1.65,1.65,0,0,0,.46-.14l.05,1.31a4,4,0,0,1-.64.16,4.2,4.2,0,0,1-.72.06,2.33,2.33,0,0,1-1.75-.63,2.62,2.62,0,0,1-.6-1.88V256h-1.55v-1.31h1.55V252.4h1.58v2.31h2.14Z"/><path class="cls-4" d="M371.68,255.61c0-.34,0-.64-.05-.9h1.52c0,.2,0,.44.05.7s0,.49,0,.66h.06a2.69,2.69,0,0,1,1-1.15,2.61,2.61,0,0,1,1.47-.43,2.28,2.28,0,0,1,.63.07l-.07,1.47a3.33,3.33,0,0,0-.73-.08,2.23,2.23,0,0,0-1,.21,2,2,0,0,0-.71.57,2.31,2.31,0,0,0-.41.83,3.12,3.12,0,0,0-.14,1v4.24h-1.6v-6.33C371.7,256.23,371.7,256,371.68,255.61Z"/><path class="cls-4" d="M385.1,258.67v.27a2.45,2.45,0,0,1,0,.27h-6.41a2.42,2.42,0,0,0,.23,1,2.31,2.31,0,0,0,.57.77,2.54,2.54,0,0,0,.83.52,2.72,2.72,0,0,0,1,.19,2.69,2.69,0,0,0,1.41-.36,2.93,2.93,0,0,0,.94-.87l1.12.9a4,4,0,0,1-1.52,1.26,4.63,4.63,0,0,1-1.95.41,4.51,4.51,0,0,1-1.7-.31,3.81,3.81,0,0,1-1.34-.86,3.89,3.89,0,0,1-.89-1.33,4.84,4.84,0,0,1,0-3.46,3.93,3.93,0,0,1,.87-1.35,4,4,0,0,1,1.33-.88,4.29,4.29,0,0,1,1.65-.31,4.16,4.16,0,0,1,1.61.29,3.23,3.23,0,0,1,1.23.83,3.6,3.6,0,0,1,.77,1.32A5,5,0,0,1,385.1,258.67Zm-1.63-.65a3.27,3.27,0,0,0-.17-.89,1.85,1.85,0,0,0-.42-.72,2.1,2.1,0,0,0-.7-.49,2.64,2.64,0,0,0-1-.17,2.77,2.77,0,0,0-1,.17,2.58,2.58,0,0,0-.78.49,2.43,2.43,0,0,0-.54.72,2.33,2.33,0,0,0-.25.89Z"/><path class="cls-4" d="M392.22,257.55a1.62,1.62,0,0,0-.54-1.34,2.27,2.27,0,0,0-1.45-.43A3.25,3.25,0,0,0,389,256a3.2,3.2,0,0,0-1,.68l-.85-1a4.36,4.36,0,0,1,1.45-.88,5.33,5.33,0,0,1,1.85-.32,4.29,4.29,0,0,1,1.5.24,3,3,0,0,1,1.05.68,2.75,2.75,0,0,1,.61,1,3.84,3.84,0,0,1,.2,1.24v3.52c0,.27,0,.56,0,.86a3.55,3.55,0,0,0,.09.74h-1.44a4.6,4.6,0,0,1-.14-1.16h-.05a3.06,3.06,0,0,1-1.12,1,3.28,3.28,0,0,1-1.59.36,4,4,0,0,1-1-.13,2.75,2.75,0,0,1-.94-.41,2.39,2.39,0,0,1-.71-.77,2.23,2.23,0,0,1-.28-1.17,2.08,2.08,0,0,1,.49-1.45,3.12,3.12,0,0,1,1.3-.82,7.25,7.25,0,0,1,1.8-.37c.67-.05,1.34-.08,2-.08Zm-.39,1.38c-.4,0-.81,0-1.23.05a5.6,5.6,0,0,0-1.16.2,2.29,2.29,0,0,0-.86.46,1.05,1.05,0,0,0-.34.82,1.11,1.11,0,0,0,.53,1,1.55,1.55,0,0,0,.53.21,2.88,2.88,0,0,0,.59.06,2.2,2.2,0,0,0,1.73-.67,2.44,2.44,0,0,0,.6-1.69v-.42Z"/><path class="cls-4" d="M399,254.94a2.8,2.8,0,0,1,1.59-.45,2.92,2.92,0,0,1,1.47.37,2.48,2.48,0,0,1,1,1.24,2.87,2.87,0,0,1,1.14-1.2,3.26,3.26,0,0,1,1.6-.41,3.2,3.2,0,0,1,1.34.26,2.78,2.78,0,0,1,.94.71,3,3,0,0,1,.55,1,4.45,4.45,0,0,1,.18,1.28v5h-1.6V258.3a4.76,4.76,0,0,0-.09-.94,2.21,2.21,0,0,0-.29-.78,1.5,1.5,0,0,0-.54-.55,1.75,1.75,0,0,0-.87-.2,1.82,1.82,0,0,0-1.57.83,2.65,2.65,0,0,0-.36.82,4.24,4.24,0,0,0-.11.94v4.35h-1.59V258a3.85,3.85,0,0,0-.09-.86,1.71,1.71,0,0,0-.29-.67,1.37,1.37,0,0,0-.53-.45,1.87,1.87,0,0,0-.8-.16,1.85,1.85,0,0,0-1.47.72,3,3,0,0,0-.58,1.93v4.29h-1.6v-6.33c0-.21,0-.49,0-.83s0-.64,0-.9h1.51c0,.2,0,.43.06.69s0,.46,0,.63H398A2.75,2.75,0,0,1,399,254.94Z"/><path class="cls-4" d="M415.85,256.75a2,2,0,0,0-.76-.72,2.18,2.18,0,0,0-1.11-.28,2.48,2.48,0,0,0-.54.06,1.78,1.78,0,0,0-.49.18,1.19,1.19,0,0,0-.34.33.9.9,0,0,0-.13.48.83.83,0,0,0,.46.76,6.16,6.16,0,0,0,1.38.45,9.05,9.05,0,0,1,1.07.32,3.08,3.08,0,0,1,.86.47,2,2,0,0,1,.57.67,1.92,1.92,0,0,1,.2.92,2.45,2.45,0,0,1-.27,1.2,2.34,2.34,0,0,1-.72.81,2.91,2.91,0,0,1-1,.45,5.23,5.23,0,0,1-1.19.14,4.65,4.65,0,0,1-1.79-.36,3.52,3.52,0,0,1-1.46-1.09l1.14-1a2.6,2.6,0,0,0,.9.8,2.4,2.4,0,0,0,1.24.33,2.81,2.81,0,0,0,.59-.06,1.65,1.65,0,0,0,.51-.2,1.06,1.06,0,0,0,.37-.36,1,1,0,0,0,.13-.56.89.89,0,0,0-.53-.83,7.31,7.31,0,0,0-1.58-.51c-.27-.07-.54-.15-.82-.25a2.63,2.63,0,0,1-.76-.4,2.09,2.09,0,0,1-.55-.63A2,2,0,0,1,411,257a2.28,2.28,0,0,1,.26-1.11,2.44,2.44,0,0,1,.69-.77,3.31,3.31,0,0,1,1-.44,4.64,4.64,0,0,1,1.12-.14,4.24,4.24,0,0,1,1.68.34,2.86,2.86,0,0,1,1.25,1Z"/><path class="cls-2" d="M178.57,117.44a.6.6,0,0,1-.6-.6V89.55a.6.6,0,0,1,1.2,0v27.29A.6.6,0,0,1,178.57,117.44Z"/><polygon class="cls-2" points="178.57 126.86 174.89 117.05 176.01 116.63 177.97 121.85 177.97 116.84 179.17 116.84 179.17 121.85 181.13 116.63 182.25 117.05 178.57 126.86"/><path class="cls-2" d="M255.07,117.44a.6.6,0,0,1-.6-.6V89.55a.6.6,0,0,1,1.2,0v27.29A.6.6,0,0,1,255.07,117.44Z"/><polygon class="cls-2" points="255.07 126.86 251.39 117.05 252.51 116.63 254.47 121.85 254.47 116.84 255.67 116.84 255.67 121.85 257.63 116.63 258.75 117.05 255.07 126.86"/><path class="cls-2" d="M331.57,117.6a.59.59,0,0,1-.59-.6V89.71a.6.6,0,1,1,1.19,0V117A.6.6,0,0,1,331.57,117.6Z"/><polygon class="cls-2" points="331.57 127.03 327.89 117.21 329.02 116.79 330.98 122.01 330.98 117 332.17 117 332.17 122.01 334.13 116.79 335.26 117.21 331.57 127.03"/><path class="cls-2" d="M403.38,115.75a.6.6,0,0,1-.6-.6V87.86a.6.6,0,0,1,1.2,0v27.29A.6.6,0,0,1,403.38,115.75Z"/><polygon class="cls-2" points="403.38 125.18 399.7 115.36 400.82 114.94 402.78 120.16 402.78 115.15 403.98 115.15 403.98 120.16 405.94 114.94 407.06 115.36 403.38 125.18"/><path class="cls-4" d="M118.72,163.89a1.11,1.11,0,1,1,0,.84,1,1,0,0,1,0-.82Zm-12.14-10a1,1,0,0,1,1.47,0,1.1,1.1,0,0,1,0,1.51,1,1,0,0,1-.73.32,1,1,0,0,1-.74-.32,1.07,1.07,0,0,1,0-1.49Zm13.55,14.35v1h-1.3c-.13,0-.18.1-.18.22V170c0,1.46-.81,1.8-1.5,1.8s-1.4-.28-1.5-.71a4.61,4.61,0,0,0-2.09-3.59c1.28-.83,2.63-2.06,2.63-3.72a4.24,4.24,0,0,0-2-3.46,5.4,5.4,0,0,0-2.75-.89H97.85a12.73,12.73,0,0,1,7.17-4.14l1.6,1.72a.91.91,0,0,0,1.33,0l1.79-1.8a12.89,12.89,0,0,1,8.75,6.38l-1.23,2.82a1,1,0,0,0,.49,1.28l2.36,1.08c0,.48,0,.9,0,1.34ZM104.48,166v-2.47h4.31c.22,0,1.57.25,1.57,1.31,0,.85-1,1.16-1.89,1.16Zm-9.8.82,2.23-1a1,1,0,0,0,.5-1.29l-.47-1.06h1.79v8.36H95.07a13.1,13.1,0,0,1-.49-3.58c0-.5,0-1,.07-1.43Zm1.23-3a1.09,1.09,0,0,1-.52,1.41,1.06,1.06,0,0,1-.8,0,1,1,0,0,1-.57-.57,1.08,1.08,0,0,1,.52-1.4A1.06,1.06,0,0,1,95.91,163.85Zm3.89,16.47a1,1,0,0,1-1.23-.81,1.06,1.06,0,0,1,.79-1.25,1,1,0,0,1,1.23.8,1.06,1.06,0,0,1-.75,1.26Zm14.43-3.4a1,1,0,0,0-1.13.75l-.52,2.5a12.63,12.63,0,0,1-10.66-.06l-.52-2.49a1,1,0,0,0-1.13-.75l-2.14.48A14.25,14.25,0,0,1,97,176h10.44c.13,0,.2,0,.2-.12v-3.73c0-.1-.07-.13-.2-.13h-3v-2.39h3.3a2.11,2.11,0,0,1,2,1.79c.12.53.42,2.24.61,2.8s1,1.84,1.85,1.84h5.22a.61.61,0,0,0,.19,0,12.24,12.24,0,0,1-1.18,1.41l-2.21-.51Zm.52,3.44a1,1,0,0,1-.66-.46,1,1,0,0,1-.13-.79,1.11,1.11,0,0,1,.45-.67,1,1,0,0,1,.78-.14,1.06,1.06,0,0,1-.44,2.06Zm9.86-12.45-1.48-.9a1.46,1.46,0,0,0,0-.43l1.24-1.2a.53.53,0,0,0,.16-.49.48.48,0,0,0-.33-.37l-1.62-.63a1.32,1.32,0,0,0-.12-.43l1-1.44a.53.53,0,0,0-.34-.81l-1.7-.26c-.07-.13-.14-.27-.2-.41l.71-1.61a.52.52,0,0,0,0-.5.53.53,0,0,0-.45-.23l-1.72.05a2.16,2.16,0,0,0-.27-.33l.39-1.71a.48.48,0,0,0-.12-.48.45.45,0,0,0-.47-.12l-1.67.39c-.1-.1-.22-.17-.32-.27l0-1.79a.5.5,0,0,0-.22-.45.46.46,0,0,0-.49-.05l-1.57.72a2.09,2.09,0,0,0-.4-.19l-.27-1.74a.59.59,0,0,0-.29-.41.5.5,0,0,0-.5.06l-1.4,1c-.14-.06-.27-.07-.41-.13l-.62-1.66a.45.45,0,0,0-.37-.33.52.52,0,0,0-.46.15l-1.13,1.29a3.23,3.23,0,0,1-.44,0l-.9-1.52a.49.49,0,0,0-.41-.25.46.46,0,0,0-.42.25l-.9,1.52a3.38,3.38,0,0,1-.45,0l-1.17-1.29a.52.52,0,0,0-.47-.15.46.46,0,0,0-.37.33l-.62,1.66c-.14.06-.27.07-.41.13l-1.41-1a.46.46,0,0,0-.49,0,.49.49,0,0,0-.29.4l-.27,1.74-.39.19-1.58-.72a.49.49,0,0,0-.48.05.51.51,0,0,0-.23.45l0,1.79c-.12.1-.22.17-.32.27l-1.67-.39a.48.48,0,0,0-.47.12.5.5,0,0,0-.12.48l.4,1.71c-.1.1-.18.23-.28.33l-1.71-.05a.52.52,0,0,0-.45.22.54.54,0,0,0,0,.51l.71,1.61a2.6,2.6,0,0,0-.2.41l-1.69.26a.6.6,0,0,0-.4.31.56.56,0,0,0,.06.5l1,1.44a2.09,2.09,0,0,0-.11.43l-1.63.63a.45.45,0,0,0-.32.37.59.59,0,0,0,.14.49l1.29,1.18c0,.15,0,.3-.05.45l-1.48.9a.5.5,0,0,0,0,.85l1.48.89c0,.16,0,.31.05.46l-1.26,1.21a.48.48,0,0,0-.14.48.47.47,0,0,0,.31.38l1.62.62c.06.16.07.28.13.43l-1,1.44a.53.53,0,0,0,0,.5.51.51,0,0,0,.4.31l1.69.27.2.4-.71,1.61a.52.52,0,0,0,0,.51.55.55,0,0,0,.44.23l1.73-.05a4,4,0,0,0,.26.32l-.39,1.71a.5.5,0,0,0,.13.49.46.46,0,0,0,.46.12l1.68-.4c.09.1.21.17.31.28v1.79a.58.58,0,0,0,.22.46.48.48,0,0,0,.49,0l1.57-.73a2.14,2.14,0,0,0,.4.2l.27,1.74a.57.57,0,0,0,.29.4.46.46,0,0,0,.49-.05l1.4-1a3,3,0,0,0,.43.12l.61,1.66a.44.44,0,0,0,.37.33.54.54,0,0,0,.47-.15l1.17-1.28a1.18,1.18,0,0,1,.43,0L107,186a.5.5,0,0,0,.42.25.48.48,0,0,0,.42-.25l.89-1.51a1.13,1.13,0,0,0,.42,0l1.18,1.28a.49.49,0,0,0,.47.15.48.48,0,0,0,.36-.33l.61-1.66.43-.12,1.39,1a.53.53,0,0,0,.5.05.51.51,0,0,0,.29-.4l.27-1.74a2.14,2.14,0,0,1,.4-.2l1.57.73a.48.48,0,0,0,.49,0,.59.59,0,0,0,.23-.46L117.3,181a3.19,3.19,0,0,0,.32-.28l1.61.44a.46.46,0,0,0,.47-.13.5.5,0,0,0,.12-.48l-.39-1.72c.1-.09.17-.22.27-.32l1.72.05a.54.54,0,0,0,.44-.23.53.53,0,0,0,0-.5l-.72-1.62a1.44,1.44,0,0,0,.2-.39l1.7-.28a.52.52,0,0,0,.39-.3.52.52,0,0,0,0-.51l-1-1.43c0-.15.08-.28.12-.43l1.63-.63a.47.47,0,0,0,.32-.38.58.58,0,0,0-.15-.47l-1.26-1.21a1,1,0,0,1,.06-.43l1.47-.9a.53.53,0,0,0,.25-.43.57.57,0,0,0-.27-.45Z"/><path class="cls-4" d="M102.56,200.51a.79.79,0,0,1-.6-1.35.82.82,0,0,1,.88-.18.8.8,0,0,1,.49.75.78.78,0,0,1-.77.74Zm11.1.7a6.37,6.37,0,0,0-6.27-6.44h-1.34a6.37,6.37,0,0,0-6.27,6.44.94.94,0,0,0,.27.67,1,1,0,0,0,.67.28h6v1.55H97.51a6.36,6.36,0,0,0-6.27,6.43v1.36a6.35,6.35,0,0,0,6.27,6.43H98.7a.93.93,0,0,0,.67-.28,1,1,0,0,0,.27-.68v-4.38a.94.94,0,0,1,.94-1h12.14a1,1,0,0,0,.67-.29.94.94,0,0,0,.27-.67Z"/><path class="cls-4" d="M112.29,224a.82.82,0,0,1,.75.48.8.8,0,0,1-.16.88.8.8,0,0,1-1.37-.56.79.79,0,0,1,.23-.56A.8.8,0,0,1,112.29,224Zm5-17.41h-1.19a.92.92,0,0,0-.66.29.94.94,0,0,0-.27.67V212a.94.94,0,0,1-.27.67,1,1,0,0,1-.67.28H102.12a1,1,0,0,0-.67.29.94.94,0,0,0-.27.68v9.45a6.33,6.33,0,0,0,1.81,4.51,6.27,6.27,0,0,0,4.47,1.91h1.32a6.33,6.33,0,0,0,6.27-6.42.92.92,0,0,0-.93-1h-6v-1.55h9.15a6.35,6.35,0,0,0,6.27-6.42v-1.36A6.36,6.36,0,0,0,117.33,206.63Z"/><path class="cls-4" d="M111.28,265.26c-5.48,0-6.61-2.57-6.61-4.76a.38.38,0,0,1,.37-.38h1.64a.32.32,0,0,1,.24.09.33.33,0,0,1,.1.23c.25,1.75,1,2.54,4.3,2.54,2.62,0,3.76-.61,3.76-2.06,0-.87-.32-1.44-4.43-1.86-3.41-.35-5.54-1.12-5.54-3.91,0-2.62,2.13-4.14,5.7-4.14,4,0,6,1.4,6.24,4.49a.53.53,0,0,1-.1.29.38.38,0,0,1-.24.13h-1.63a.38.38,0,0,1-.35-.29c-.37-1.75-1.35-2.34-3.92-2.34-2.88,0-3.22,1-3.22,1.74,0,.94.4,1.23,4.29,1.75s5.67,1.25,5.67,4-2.28,4.43-6.27,4.43Zm-3.85,10.18a2.66,2.66,0,0,1-1.32-.35l-4.17-2.54c-.63-.36-.31-.49-.12-.55a7.65,7.65,0,0,0,1.88-.87.26.26,0,0,1,.31,0l3.2,2a.42.42,0,0,0,.38,0l12.5-7.42a.38.38,0,0,0,.19-.36V250.57a.37.37,0,0,0-.19-.35l-12.5-7.38a.37.37,0,0,0-.38,0L94.7,250.22a.39.39,0,0,0-.18.35v14.8a.4.4,0,0,0,.18.36l3.42,2c1.85,1,3-.16,3-1.29V251.84a.4.4,0,0,1,.38-.39h1.59a.4.4,0,0,1,.38.39v14.61c0,2.54-1.35,4-3.7,4a5.26,5.26,0,0,1-2.89-.8l-3.28-1.93a2.72,2.72,0,0,1-1.32-2.34V250.57a2.72,2.72,0,0,1,1.32-2.34l12.5-7.42a2.71,2.71,0,0,1,2.62,0l12.51,7.42a2.72,2.72,0,0,1,1.29,2.34v14.85a2.71,2.71,0,0,1-1.31,2.34l-12.51,7.42a3.17,3.17,0,0,1-1.32.29Z"/><path class="cls-4" d="M105.26,290.3a11.93,11.93,0,0,0-4.33,4.56c-1.67,3.71,3.41,7.77,3.63,7.95a.22.22,0,0,0,.16.05.31.31,0,0,0,.25-.13.28.28,0,0,0,0-.28s-1.84-3.66-1.76-6.26c0-.91,1.25-1.93,2.56-3a14.74,14.74,0,0,0,3.34-3.44,5.73,5.73,0,0,0-.21-5.83.28.28,0,0,0-.34-.1.3.3,0,0,0-.17.32,6.16,6.16,0,0,1-.67,3.86A8.28,8.28,0,0,1,105.26,290.3Z"/><path class="cls-4" d="M111.91,291.61a.28.28,0,0,0,.07-.37.26.26,0,0,0-.34-.13c-.27.1-6.57,2.6-6.57,5.6a5.89,5.89,0,0,0,1.49,4,2.87,2.87,0,0,1,.54.84,4.18,4.18,0,0,1-.47,2.27.28.28,0,0,0,0,.28.27.27,0,0,0,.24.14.3.3,0,0,0,.16-.05c.11-.08,2.65-1.92,2.19-4.17a5.52,5.52,0,0,0-.92-2c-.56-.83-1-1.45-.35-2.57C108.67,294.11,111.87,291.61,111.91,291.61Z"/><path class="cls-4" d="M95.48,304.2a1,1,0,0,0,.14.95c.69,1,3.1,1.51,6.82,1.51H104c5.94-.22,8.14-2.11,8.22-2.2A.28.28,0,0,0,112,304a39.74,39.74,0,0,1-8.7.84,18.08,18.08,0,0,1-4.94-.4,6.82,6.82,0,0,1,2.87-1.05.28.28,0,0,0,.22-.31.29.29,0,0,0-.28-.26C100.31,302.71,96,302.79,95.48,304.2Z"/><path class="cls-4" d="M115.36,302.25a5.63,5.63,0,0,0-2.44.66.3.3,0,0,0-.14.31.29.29,0,0,0,.28.22s2.61,0,2.84,1.53c.21,1.31-2.44,3.43-3.48,4.17a.27.27,0,0,0-.1.35.25.25,0,0,0,.25.17h.06c.24-.05,6-1.35,5.42-4.8C117.67,302.69,116.38,302.25,115.36,302.25Z"/><path class="cls-4" d="M111.39,308.67a.28.28,0,0,0-.12-.28l-1.38-1a.31.31,0,0,0-.23,0,24.17,24.17,0,0,1-3.58.63,24.48,24.48,0,0,1-2.71.15,9.54,9.54,0,0,1-3.68-.44v-.08a.61.61,0,0,1,.35-.28.29.29,0,0,0,.17-.36.28.28,0,0,0-.33-.19c-1.39.34-2.07.83-2,1.43.09,1.07,2.5,1.66,4.56,1.77h.94a39,39,0,0,0,7.83-1.1A.3.3,0,0,0,111.39,308.67Z"/><path class="cls-4" d="M100.93,311a.28.28,0,0,0,.11-.32.27.27,0,0,0-.28-.21c-.18,0-1.82.08-1.93,1.15a1.06,1.06,0,0,0,.27.83c.58.72,2.17,1.14,4.85,1.3h1a14.07,14.07,0,0,0,5.83-1.14.31.31,0,0,0,.16-.24.29.29,0,0,0-.13-.27L109,311a.26.26,0,0,0-.21,0s-1.13.23-2.8.47a7.91,7.91,0,0,1-1.19.06,14.77,14.77,0,0,1-3.91-.45A.29.29,0,0,1,100.93,311Z"/><path class="cls-4" d="M103.31,317.09c7.81,0,12-1.42,12.8-2.32a1,1,0,0,0,.29-.83,1.26,1.26,0,0,0-.53-.83.28.28,0,0,0-.37.05.29.29,0,0,0,0,.37c0,.07.07.18-.07.33-.32.31-3.57,1.24-9,1.52-.74,0-1.52.06-2.31.06-4.84,0-8.39-.68-8.86-1.07a6.7,6.7,0,0,1,2.77-.93.29.29,0,0,0,.23-.32.28.28,0,0,0-.31-.25h-.32c-2.2.15-4.74.45-4.88,1.61a1.21,1.21,0,0,0,.31,1c.59.68,2.3,1.59,10.24,1.59Z"/><path class="cls-4" d="M117.64,315a.28.28,0,0,0-.32.07s-1.19,1.27-4.71,2a44.87,44.87,0,0,1-7.5.42c-3.66,0-7.14-.14-7.17-.14a.27.27,0,0,0-.29.24.29.29,0,0,0,.21.32,40.69,40.69,0,0,0,8.66.84,40,40,0,0,0,6.91-.59c4.1-.74,4.39-2.81,4.39-2.91A.27.27,0,0,0,117.64,315Z"/><path class="cls-4" d="M92.63,349.89c.05,1,1.09.55,1.55.23s.55-.05.61-.66a9.48,9.48,0,0,0,0-1.19,2.88,2.88,0,0,0-2,.5c-.29.21-.81.87-.26,1.09"/><path class="cls-5" d="M94.55,348.37a2.78,2.78,0,0,0-1.6.5,1.05,1.05,0,0,0-.46.73.28.28,0,0,0,.18.23h0v.06a.55.55,0,0,0,.22.49,1.43,1.43,0,0,0,1.17-.34,1.3,1.3,0,0,1,.37-.19c.14,0,.18-.06.2-.39v-1.09h-.13Zm-1.38,2.27a.65.65,0,0,1-.47-.2.62.62,0,0,1-.17-.47.42.42,0,0,1-.24-.35,1.27,1.27,0,0,1,.55-.88,3,3,0,0,1,2-.51h.09v.08a7.21,7.21,0,0,1,0,.93v.28c0,.42-.12.49-.33.54a1.5,1.5,0,0,0-.34.16A2.19,2.19,0,0,1,93.17,350.64Z"/><path class="cls-4" d="M95,337.59c-4-1.1-1-6.13,2.18-4.08Z"/><path class="cls-5" d="M95.61,333.11a2.35,2.35,0,0,0-1.26.37,2.45,2.45,0,0,0-1.14,2.29A2.2,2.2,0,0,0,95,337.46L97,333.54a2.79,2.79,0,0,0-1.4-.42Zm-.54,4.58H95A2.41,2.41,0,0,1,93,335.81a2.62,2.62,0,0,1,4.19-2.37l.08,0Z"/><path class="cls-4" d="M112.59,333.13c3.13-2.19,6,2.73,2.32,4Z"/><path class="cls-5" d="M112.72,333.16,115,337a2.12,2.12,0,0,0,1.56-1.75A2.42,2.42,0,0,0,115.3,333a2.31,2.31,0,0,0-2.62.18Zm2.15,4.1-2.41-4.16h.07a2.57,2.57,0,0,1,4.18,2.2,2.31,2.31,0,0,1-1.75,2Z"/><path class="cls-4" d="M113.27,362.6c.78.5,2.24,2,1,2.7-1.14,1.05-1.75-1.15-2.79-1.45A2.76,2.76,0,0,1,113.27,362.6Z"/><path class="cls-5" d="M111.67,363.81a3,3,0,0,1,1,.87,1.9,1.9,0,0,0,1.06.83.8.8,0,0,0,.54-.25.72.72,0,0,0,.4-.64c0-.66-.87-1.5-1.42-1.88a2.65,2.65,0,0,0-1.52,1.08Zm2,1.88c-.45,0-.87-.47-1.19-.88a2.5,2.5,0,0,0-1-.87h-.13l.08-.13a2.85,2.85,0,0,1,1.8-1.29h.07c.51.32,1.56,1.23,1.55,2.07a.89.89,0,0,1-.49.79A1,1,0,0,1,113.71,365.69Z"/><path class="cls-5" d="M114.32,365.41a.11.11,0,0,1-.09-.05c0-.13-.11-.25-.15-.38a1.75,1.75,0,0,0-.36-.67.08.08,0,0,1,0-.07.11.11,0,0,1,0-.07.12.12,0,0,1,.14,0,1.71,1.71,0,0,1,.4.72c0,.12.1.24.15.35a.09.09,0,0,1,0,.07.07.07,0,0,1,0,.06Z"/><path class="cls-4" d="M99.06,364.28c-.94.15-1.46,1-2.24,1.42a.69.69,0,0,1-1,0,.5.5,0,0,1-.13-.22.35.35,0,0,1-.29-.13c-.68-1.1.71-1.86,1.43-2.39,1-.2,1.66.67,2.19,1.36Z"/><path class="cls-5" d="M95.66,365.32h.15l0,.09a.59.59,0,0,0,.36.33.72.72,0,0,0,.55-.13,4.51,4.51,0,0,0,.79-.59,3.33,3.33,0,0,1,1.32-.8c-.5-.66-1.1-1.38-2-1.21l-.24.18c-.75.55-1.69,1.19-1.15,2.06a.2.2,0,0,0,.12.08Zm.66.64a.48.48,0,0,1-.17,0,.89.89,0,0,1-.48-.41.33.33,0,0,1-.27-.14c-.65-1,.47-1.82,1.2-2.34l.26-.19c1-.21,1.69.65,2.22,1.34l.15.19h-.17a2.84,2.84,0,0,0-1.38.8,5.54,5.54,0,0,1-.83.61A1.08,1.08,0,0,1,96.32,366Z"/><path class="cls-5" d="M95.74,365.54a.1.1,0,0,1-.07,0,.09.09,0,0,1,0-.07v0a1.47,1.47,0,0,1,.32-.72,1.45,1.45,0,0,0,.2-.34.11.11,0,0,1,.19,0,.11.11,0,0,1,0,.08,2.3,2.3,0,0,1-.23.37,1.42,1.42,0,0,0-.26.65.16.16,0,0,1,0,.07l-.07,0Z"/><path class="cls-4" d="M117.68,349.76c0,1-1.1.55-1.55.22s-.55,0-.62-.65a11.81,11.81,0,0,1,0-1.19,3,3,0,0,1,2,.5c.28.21.81.87.26,1.09"/><path class="cls-5" d="M115.55,348.23v1.1c0,.33,0,.34.19.39a1.69,1.69,0,0,1,.38.19,1.4,1.4,0,0,0,1.16.34.53.53,0,0,0,.23-.49v-.07h.06a.26.26,0,0,0,.18-.22,1.07,1.07,0,0,0-.46-.74,2.8,2.8,0,0,0-1.75-.5Zm1.59,2.25a2.2,2.2,0,0,1-1-.39,1.26,1.26,0,0,0-.33-.16c-.22-.08-.3-.14-.33-.55v-.27a7.37,7.37,0,0,1,0-.94V348h.09a3.07,3.07,0,0,1,2,.52,1.27,1.27,0,0,1,.55.87.42.42,0,0,1-.25.35.66.66,0,0,1-.34.61.63.63,0,0,1-.33.06Z"/><path class="cls-4" d="M104.76,331c4,0,7.66.55,9.63,4.38,1.75,4.26,1.09,8.86,1.38,13.37.23,3.86.73,8.33-1.06,11.92-1.88,3.76-6.61,4.7-10.5,4.58-3-.12-6.74-1.1-8.47-3.9-2-3.29-1.06-8.14-.92-11.78.18-4.31-1.17-8.64.25-12.86,1.48-4.38,5.43-5.37,9.7-5.71"/><path class="cls-5" d="M104.76,331.14c-4.12.35-8.13,1.23-9.62,5.64-.88,2.71-.67,5.51-.45,8.21a35.33,35.33,0,0,1,.2,4.6c0,.73-.09,1.51-.15,2.32-.25,3.19-.55,6.82,1.06,9.4.67,1.1,2.84,3.66,8.39,3.84,2.39.08,8.2-.19,10.39-4.54,1.61-3.21,1.35-7.21,1.12-10.74a6.07,6.07,0,0,0-.07-1.13c-.06-1.19-.09-2.45-.09-3.66,0-3.21,0-6.56-1.29-9.63a7.07,7.07,0,0,0-4-3.56A16.32,16.32,0,0,0,104.76,331.14Zm.11,34.27h-.68a14.37,14.37,0,0,1-4.77-1,7.6,7.6,0,0,1-3.78-3c-1.64-2.62-1.35-6.3-1.1-9.52.07-.82.14-1.59.16-2.31a36.86,36.86,0,0,0-.2-4.58c-.23-2.74-.47-5.56.46-8.31a7.24,7.24,0,0,1,3.82-4.43,16.22,16.22,0,0,1,5.94-1.34c3.9,0,7.76.52,9.74,4.37,1.26,3.12,1.28,6.46,1.3,9.71,0,1.21,0,2.47.09,3.69a5.42,5.42,0,0,0,.08,1.13c.22,3.5.49,7.58-1.15,10.84C112.73,364.81,107.59,365.41,104.87,365.41Z"/><path class="cls-4" d="M105.45,336.35c.72,4.13,7.47,3,6.5-1.12-.87-3.74-6.73-2.71-6.5,1.12"/><path class="cls-2" d="M108.67,339.16a3.85,3.85,0,0,1-1.27-.21,3.14,3.14,0,0,1-2.14-2.56v0a3.45,3.45,0,0,1,3.11-3.63,3.21,3.21,0,0,1,3.79,2.44,3,3,0,0,1-.88,3A4,4,0,0,1,108.67,339.16Zm-3-2.83a2.79,2.79,0,0,0,1.88,2.24,3.62,3.62,0,0,0,3.47-.65,2.63,2.63,0,0,0,.76-2.65,2.83,2.83,0,0,0-3.34-2.14A3.07,3.07,0,0,0,105.65,336.33Z"/><path class="cls-4" d="M97.39,337c.87,3.59,6.67,2.62,6.45-.94-.25-4.32-7.34-3.5-6.45.94"/><path class="cls-5" d="M97.49,337.05a3.22,3.22,0,0,0,6.28-.88,2.76,2.76,0,0,0-1.63-2.48,3.7,3.7,0,0,0-3.68.48A2.84,2.84,0,0,0,97.49,337.05Zm3,2.39a3.63,3.63,0,0,1-1.68-.41,3.05,3.05,0,0,1-1.55-2.4A3.09,3.09,0,0,1,98.32,334a3.91,3.91,0,0,1,3.87-.49,2.92,2.92,0,0,1,1.75,2.63,3.19,3.19,0,0,1-2.86,3.28h-.62Z"/><path class="cls-2" d="M100.45,339.54a3.7,3.7,0,0,1-1.72-.42,3.17,3.17,0,0,1-.47-5.2,4,4,0,0,1,4-.51,3,3,0,0,1,1.81,2.71,3.31,3.31,0,0,1-3,3.39h-.56A.11.11,0,0,1,100.45,339.54Zm-3-2.39a3,3,0,0,0,1.41,1.79,3.42,3.42,0,0,0,.77.3A3.34,3.34,0,0,1,97.42,337.15Zm6.36-.28a3.37,3.37,0,0,1-2.11,2.32A3.16,3.16,0,0,0,103.78,336.87Zm-6.19.15a3.12,3.12,0,0,0,6.08-.85,2.63,2.63,0,0,0-1.57-2.38,3.56,3.56,0,0,0-3.57.46A2.73,2.73,0,0,0,97.59,337Zm3.09-3.72a3.81,3.81,0,0,0-2.3.77,3,3,0,0,0-1,1.89,2.91,2.91,0,0,1,1.06-1.87,3.82,3.82,0,0,1,3.42-.62A4,4,0,0,0,100.68,333.3Z"/><path class="cls-4" d="M106.25,341.34a8.53,8.53,0,0,1,0,1.75,1.1,1.1,0,0,1-.64.39.93.93,0,0,1-.72-.54,14,14,0,0,1,0-1.94Z"/><path class="cls-5" d="M105,342.84a.91.91,0,0,0,.62.49l.15-.06a.7.7,0,0,0,.4-.29,5.06,5.06,0,0,0,0-1.1,4.17,4.17,0,0,0,0-.5l-1.1-.33a2.17,2.17,0,0,1,0,.51,6.74,6.74,0,0,0,0,1.27Zm.64.69a1,1,0,0,1-.78-.62,5.91,5.91,0,0,1,0-1.33v-.79l1.47.45v.1a4.86,4.86,0,0,0,0,.54,3.89,3.89,0,0,1,0,1.18.8.8,0,0,1-.51.37l-.18.07Z"/><path class="cls-2" d="M105.67,343.63h0a1.17,1.17,0,0,1-.87-.68v0a6.09,6.09,0,0,1,0-1.35v-.78a.1.1,0,0,1,0-.08.11.11,0,0,1,.08,0l1.48.46a.1.1,0,0,1,.07.09v.1a4.86,4.86,0,0,0,0,.54,4,4,0,0,1,0,1.2.08.08,0,0,1,0,0,.94.94,0,0,1-.58.41l-.11,0s0,0,0,0A.09.09,0,0,1,105.67,343.63Zm-.49-.74a.77.77,0,0,0,.46.33l.13-.05a.6.6,0,0,0,.33-.23,4.52,4.52,0,0,0,0-1,3.23,3.23,0,0,0,0-.44l-.89-.27a1.61,1.61,0,0,1,0,.38,6.53,6.53,0,0,0,0,1.25A.06.06,0,0,1,105.18,342.89Zm-.19-2v.65a6.65,6.65,0,0,0,0,1.18l0,0a7.88,7.88,0,0,1,0-1.19,2,2,0,0,0,0-.49.09.09,0,0,1,0-.08l0,0Z"/><path class="cls-5" d="M99.66,335.68a1.13,1.13,0,0,1,0,1.5.91.91,0,0,1-1.38,0,1.15,1.15,0,0,1,0-1.5.93.93,0,0,1,1.38,0"/><path class="cls-4" d="M99.58,336.48a.3.3,0,0,1,0,.38.2.2,0,0,1-.32,0,.3.3,0,0,1,0-.38.2.2,0,0,1,.32,0"/><path class="cls-5" d="M107.8,335.42a1.15,1.15,0,0,1,0,1.5.89.89,0,0,1-1.35,0,1.15,1.15,0,0,1,0-1.5.89.89,0,0,1,1.35,0"/><path class="cls-4" d="M107.71,336.22a.3.3,0,0,1,0,.38.21.21,0,0,1-.32,0,.3.3,0,0,1,0-.38.2.2,0,0,1,.32,0"/><path class="cls-4" d="M103.51,341.25c-.43,1,.24,3.09,1.39,1.58a12.54,12.54,0,0,1,.06-1.94Z"/><path class="cls-2" d="M104.13,343.57a.72.72,0,0,1-.33-.09,2.08,2.08,0,0,1-.47-2.3.18.18,0,0,1,.13-.12l1.45-.37a.2.2,0,0,1,.18,0,.2.2,0,0,1,.06.18,13.5,13.5,0,0,0-.05,1.91.2.2,0,0,1,0,.13C104.69,343.43,104.37,343.57,104.13,343.57Zm-.47-2.15a1.77,1.77,0,0,0,.33,1.71c.24.14.53-.15.71-.37a10.85,10.85,0,0,1,0-1.61Z"/><path class="cls-5" d="M103.55,341.34a1.83,1.83,0,0,0,.36,1.87c.3.17.63-.12.88-.42a7,7,0,0,1,0-1.29,2,2,0,0,1,0-.49Zm.54,2.13a.54.54,0,0,1-.28-.08,2,2,0,0,1-.43-2.19l1.65-.42v.13a3.35,3.35,0,0,1,0,.63,7.06,7.06,0,0,0,0,1.3v.07A1.17,1.17,0,0,1,104.09,343.47Z"/><path class="cls-4" d="M103.64,339.28a1.27,1.27,0,0,0-.85.44,1.28,1.28,0,0,0-.28.92,1.4,1.4,0,0,0,.1.39c.55,1,1.75-.09,2.52,0s1.58.91,2.28.16-.33-1.64-1.2-2Z"/><path class="cls-2" d="M106.75,341.65a2.58,2.58,0,0,1-.93-.25,2.62,2.62,0,0,0-.71-.22,2.25,2.25,0,0,0-.87.19c-.6.21-1.34.47-1.76-.27a1.5,1.5,0,0,1-.12-.45,1.41,1.41,0,0,1,.32-1,1.36,1.36,0,0,1,.95-.5h0l2.57-.12s0,0,.07,0c.61.27,1.37.81,1.5,1.44a.89.89,0,0,1-.26.82A1,1,0,0,1,106.75,341.65Zm-1.71-.78h.11a3.26,3.26,0,0,1,.79.24c.51.22,1,.41,1.36,0a.61.61,0,0,0,.18-.56c-.1-.47-.73-1-1.29-1.22l-2.54.12a1.06,1.06,0,0,0-.74.39,1.08,1.08,0,0,0-.25.81,1,1,0,0,0,.09.34c.27.47.71.36,1.4.12A2.76,2.76,0,0,1,105,340.87Z"/><path class="cls-2" d="M105.16,341a2.47,2.47,0,0,1,.92.25c.49.21.88.37,1.28-.06a.73.73,0,0,0,.22-.67c-.11-.49-.8-1-1.37-1.19l-2.54.1a1.25,1.25,0,0,0-.94.64,1.08,1.08,0,0,0,0,1c.32.54.88.37,1.47.17A2.12,2.12,0,0,1,105.16,341Zm1.63.65a2,2,0,0,1-.79-.22,2.45,2.45,0,0,0-.88-.24,2,2,0,0,0-.87.2c-.62.21-1.32.45-1.71-.25a1.2,1.2,0,0,1,0-1.16,1.42,1.42,0,0,1,1.09-.74l2.63-.11c.65.27,1.38.77,1.51,1.34a1,1,0,0,1-.87,1.17Z"/><path class="cls-4" d="M103.51,339.23c-.06-1.36,2.56-1.54,2.86-.39S103.64,340.26,103.51,339.23Z"/><path class="cls-2" d="M104.76,340a2.22,2.22,0,0,1-.79-.13.82.82,0,0,1-.61-.64h0c0-.65.49-1.15,1.31-1.28s1.66.14,1.85.84a.75.75,0,0,1-.24.76A2.41,2.41,0,0,1,104.76,340Zm-1.1-.8c0,.21.24.33.41.39a2.35,2.35,0,0,0,2-.28.44.44,0,0,0,.15-.45c-.14-.53-.89-.72-1.51-.62S103.64,338.63,103.66,339.22Z"/><rect class="cls-2" x="510.52" y="137.15" width="70.11" height="240.01"/><path class="cls-4" d="M555.29,164.34a1.11,1.11,0,1,1,0,.84,1,1,0,0,1,0-.82Zm-12.14-10a1.05,1.05,0,0,1,1.47,0,1.11,1.11,0,0,1,0,1.52,1,1,0,0,1-.73.31,1,1,0,0,1-.74-.31,1.08,1.08,0,0,1,0-1.5Zm13.55,14.35v1h-1.3c-.13,0-.18.1-.18.22v.61c0,1.47-.81,1.8-1.5,1.8s-1.4-.28-1.5-.71a4.61,4.61,0,0,0-2.09-3.59c1.28-.82,2.63-2.06,2.63-3.72a4.22,4.22,0,0,0-2-3.45,5.51,5.51,0,0,0-2.75-.9H534.42a12.73,12.73,0,0,1,7.17-4.14l1.6,1.72a.91.91,0,0,0,1.33,0l1.79-1.8a12.89,12.89,0,0,1,8.75,6.38l-1.23,2.82a1,1,0,0,0,.49,1.28l2.36,1.09c0,.47.05.89.05,1.33Zm-15.65-2.21V164h4.31c.22,0,1.57.25,1.57,1.31,0,.85-1,1.16-1.89,1.16Zm-9.8.82,2.23-1A1,1,0,0,0,534,165l-.47-1.06h1.79v8.36h-3.66a13.63,13.63,0,0,1-.49-3.59c0-.49,0-1,.07-1.43Zm1.23-3a1.09,1.09,0,0,1-.52,1.41,1,1,0,0,1-1.37-.55,1.09,1.09,0,0,1,.52-1.41A1.06,1.06,0,0,1,532.48,164.3Zm3.89,16.47a1,1,0,0,1-1.23-.81,1.06,1.06,0,0,1,.79-1.25,1,1,0,0,1,1.23.8,1.06,1.06,0,0,1-.75,1.26Zm14.43-3.4a.92.92,0,0,0-.72.15,1,1,0,0,0-.41.61l-.52,2.49a12.32,12.32,0,0,1-5.28,1.16,12.51,12.51,0,0,1-5.38-1.21l-.52-2.5a1,1,0,0,0-1.13-.75l-2.14.48a15.52,15.52,0,0,1-1.1-1.33H544c.13,0,.2,0,.2-.13v-3.73c0-.1-.07-.13-.2-.13h-3v-2.39h3.3a2.12,2.12,0,0,1,2,1.79c.12.53.42,2.25.61,2.8s1,1.84,1.85,1.84h5.41a12.24,12.24,0,0,1-1.18,1.41l-2.21-.5Zm.52,3.45a1,1,0,0,1-.66-.47,1,1,0,0,1-.12-.79,1,1,0,0,1,.44-.66,1,1,0,0,1,.78-.15,1.06,1.06,0,0,1-.44,2.07Zm9.86-12.46-1.48-.9a1.5,1.5,0,0,0,0-.43l1.24-1.2a.5.5,0,0,0,.16-.49.48.48,0,0,0-.33-.37l-1.62-.63a1.39,1.39,0,0,0-.12-.43l1-1.44a.5.5,0,0,0,0-.5.47.47,0,0,0-.38-.3l-1.7-.27c-.07-.13-.14-.27-.2-.41l.71-1.61a.52.52,0,0,0,0-.5.53.53,0,0,0-.45-.23l-1.72,0a2.16,2.16,0,0,0-.27-.33l.39-1.71a.44.44,0,0,0-.12-.47.46.46,0,0,0-.47-.13l-1.67.4c-.1-.1-.22-.18-.32-.27l.05-1.8a.51.51,0,0,0-.71-.5l-1.57.73a1.66,1.66,0,0,0-.4-.2l-.27-1.74a.57.57,0,0,0-.29-.4.52.52,0,0,0-.5.05l-1.4,1-.41-.12-.62-1.66a.45.45,0,0,0-.37-.34.53.53,0,0,0-.46.16l-1.13,1.28h-.44l-.9-1.52a.49.49,0,0,0-.41-.25.48.48,0,0,0-.42.25l-.9,1.52h-.45L541,151.4a.52.52,0,0,0-.47-.16.46.46,0,0,0-.37.34l-.62,1.66-.41.12-1.41-1a.5.5,0,0,0-.49-.05.49.49,0,0,0-.29.4l-.27,1.74-.39.2-1.58-.73a.49.49,0,0,0-.48.05.51.51,0,0,0-.23.45l.05,1.8a2.85,2.85,0,0,0-.32.27l-1.67-.4a.46.46,0,0,0-.47.13.48.48,0,0,0-.12.47l.4,1.71c-.1.1-.18.23-.28.33l-1.71,0a.53.53,0,0,0-.45.23.53.53,0,0,0-.05.5l.71,1.61a3.11,3.11,0,0,0-.2.41l-1.69.27a.56.56,0,0,0-.4.3.55.55,0,0,0,.06.5l1,1.44a2.09,2.09,0,0,0-.11.43l-1.63.63a.47.47,0,0,0-.32.37.58.58,0,0,0,.14.49l1.29,1.18c0,.15,0,.3,0,.45l-1.48.9a.5.5,0,0,0,0,.85l1.48.9c0,.15,0,.3,0,.45L527,171.78a.46.46,0,0,0-.14.47.45.45,0,0,0,.31.38l1.62.63c.06.15.08.27.13.43l-1,1.43a.53.53,0,0,0,0,.5.49.49,0,0,0,.4.31l1.69.28c.07.12.13.25.2.39l-.71,1.62a.5.5,0,0,0,0,.5.53.53,0,0,0,.44.23l1.73,0a4,4,0,0,0,.26.32l-.39,1.71a.49.49,0,0,0,.13.49.46.46,0,0,0,.46.12l1.68-.4c.09.1.21.17.31.28v1.79a.58.58,0,0,0,.22.46.48.48,0,0,0,.49,0l1.57-.73a2.14,2.14,0,0,0,.4.2l.27,1.74a.57.57,0,0,0,.29.4.46.46,0,0,0,.49-.05l1.4-1a3,3,0,0,0,.43.12l.61,1.66a.46.46,0,0,0,.37.34.55.55,0,0,0,.47-.16l1.17-1.28a1.18,1.18,0,0,1,.43.05l.89,1.51a.5.5,0,0,0,.42.25.46.46,0,0,0,.42-.25l.89-1.51a1.13,1.13,0,0,0,.42-.05l1.18,1.28a.49.49,0,0,0,.47.15.47.47,0,0,0,.36-.33l.61-1.66.43-.12,1.4,1a.46.46,0,0,0,.49.05.49.49,0,0,0,.29-.4l.27-1.74a2.14,2.14,0,0,1,.4-.2l1.57.73a.48.48,0,0,0,.49,0,.59.59,0,0,0,.23-.46l-.06-1.79a3.19,3.19,0,0,0,.32-.28l1.61.44a.46.46,0,0,0,.47-.13.49.49,0,0,0,.12-.48l-.39-1.71c.1-.1.17-.23.27-.33L558,179a.55.55,0,0,0,.44-.24.52.52,0,0,0,.05-.5l-.72-1.61a1.5,1.5,0,0,0,.2-.4l1.7-.28a.52.52,0,0,0,.39-.3.5.5,0,0,0,0-.5l-1-1.44c.05-.15.08-.28.12-.43l1.63-.63a.47.47,0,0,0,.32-.37.6.6,0,0,0-.15-.48l-1.26-1.21a1,1,0,0,1,.06-.43l1.47-.9a.53.53,0,0,0,.25-.43.57.57,0,0,0-.27-.45Z"/><path class="cls-4" d="M539.13,201a.8.8,0,0,1-.6-1.36.82.82,0,0,1,.88-.18.81.81,0,0,1,.49.75.78.78,0,0,1-.77.74Zm11.1.69a6.35,6.35,0,0,0-6.27-6.43h-1.34a6.35,6.35,0,0,0-6.27,6.43.94.94,0,0,0,.27.67,1,1,0,0,0,.67.28h6v1.55h-9.16a6.36,6.36,0,0,0-6.27,6.44V212a6.36,6.36,0,0,0,6.27,6.43h1.19a1,1,0,0,0,.67-.29.94.94,0,0,0,.27-.68V213a.93.93,0,0,1,.27-.68.91.91,0,0,1,.67-.28h12.14a1,1,0,0,0,.67-.29.92.92,0,0,0,.27-.67Z"/><path class="cls-4" d="M548.86,224.5a.8.8,0,0,1,.59,1.35.8.8,0,0,1-.87.18.79.79,0,0,1-.5-.74.79.79,0,0,1,.23-.56A.75.75,0,0,1,548.86,224.5Zm5-17.42h-1.19a1,1,0,0,0-.93,1v4.38a.94.94,0,0,1-.94.95H538.69a1,1,0,0,0-.67.29.94.94,0,0,0-.27.68v9.45a6.35,6.35,0,0,0,6.28,6.43h1.32a6.33,6.33,0,0,0,6.27-6.43.93.93,0,0,0-.26-.67.92.92,0,0,0-.67-.29h-6V221.3h9.15a6.33,6.33,0,0,0,6.27-6.43v-1.36A6.36,6.36,0,0,0,553.9,207.08Z"/><path class="cls-4" d="M547.85,265.71c-5.48,0-6.61-2.57-6.61-4.75a.39.39,0,0,1,.37-.39h1.64a.36.36,0,0,1,.24.09.35.35,0,0,1,.1.24c.25,1.74,1,2.53,4.3,2.53,2.62,0,3.76-.6,3.76-2.05,0-.88-.32-1.45-4.43-1.87-3.41-.34-5.54-1.11-5.54-3.91,0-2.62,2.13-4.14,5.7-4.14,4,0,6,1.41,6.24,4.49a.53.53,0,0,1-.1.29.38.38,0,0,1-.24.13h-1.63a.38.38,0,0,1-.35-.29c-.37-1.75-1.35-2.34-3.92-2.34-2.88,0-3.22,1-3.22,1.75,0,.93.4,1.22,4.29,1.74s5.67,1.25,5.67,4-2.28,4.43-6.27,4.43ZM544,275.89a2.66,2.66,0,0,1-1.32-.35L538.51,273c-.63-.36-.31-.49-.12-.56a7.3,7.3,0,0,0,1.88-.87.26.26,0,0,1,.31,0l3.2,2a.42.42,0,0,0,.38,0l12.5-7.42a.37.37,0,0,0,.19-.36V251a.37.37,0,0,0-.19-.35l-12.5-7.38a.37.37,0,0,0-.38,0l-12.51,7.38a.39.39,0,0,0-.18.35v14.8a.39.39,0,0,0,.18.36l3.42,2c1.85,1,3-.16,3-1.28V252.29a.4.4,0,0,1,.38-.39h1.59a.4.4,0,0,1,.38.39V266.9c0,2.54-1.35,4-3.7,4a5.18,5.18,0,0,1-2.89-.81l-3.28-1.93a2.72,2.72,0,0,1-1.32-2.34V251a2.72,2.72,0,0,1,1.32-2.34l12.5-7.42a2.71,2.71,0,0,1,2.62,0l12.51,7.42A2.72,2.72,0,0,1,559.1,251v14.86a2.74,2.74,0,0,1-1.31,2.34l-12.51,7.42a3.16,3.16,0,0,1-1.32.28Z"/><path class="cls-4" d="M541.83,290.75a11.93,11.93,0,0,0-4.33,4.56c-1.67,3.71,3.41,7.77,3.63,7.95a.23.23,0,0,0,.16.06.31.31,0,0,0,.25-.14.28.28,0,0,0,0-.28s-1.84-3.66-1.76-6.26c0-.91,1.25-1.93,2.56-3a14.79,14.79,0,0,0,3.34-3.45,5.74,5.74,0,0,0-.21-5.83.28.28,0,0,0-.34-.1.3.3,0,0,0-.17.33,6.14,6.14,0,0,1-.67,3.85A8.28,8.28,0,0,1,541.83,290.75Z"/><path class="cls-4" d="M548.48,292.06a.28.28,0,0,0,.07-.37.26.26,0,0,0-.34-.12c-.27.1-6.57,2.59-6.57,5.59a5.84,5.84,0,0,0,1.5,4,3.06,3.06,0,0,1,.53.84,4.14,4.14,0,0,1-.47,2.27.28.28,0,0,0,0,.28.27.27,0,0,0,.24.14.3.3,0,0,0,.16,0c.11-.07,2.65-1.92,2.19-4.17a5.52,5.52,0,0,0-.92-2c-.56-.83-1-1.45-.35-2.56C545.24,294.56,548.44,292.06,548.48,292.06Z"/><path class="cls-4" d="M532.05,304.65a1,1,0,0,0,.14,1c.69,1,3.1,1.51,6.82,1.51h1.57c5.94-.22,8.14-2.11,8.22-2.19a.29.29,0,0,0,.07-.35.27.27,0,0,0-.32-.14,40.35,40.35,0,0,1-8.7.83,18.81,18.81,0,0,1-4.94-.39,6.69,6.69,0,0,1,2.87-1.05.3.3,0,0,0,.22-.32.3.3,0,0,0-.28-.26C536.88,303.17,532.53,303.24,532.05,304.65Z"/><path class="cls-4" d="M551.93,302.7a5.63,5.63,0,0,0-2.44.66.3.3,0,0,0-.14.32.29.29,0,0,0,.28.21s2.61,0,2.84,1.54c.21,1.3-2.44,3.42-3.48,4.16a.27.27,0,0,0-.1.35.27.27,0,0,0,.25.18h.06c.24-.05,6-1.36,5.42-4.81C554.24,303.14,553,302.7,551.93,302.7Z"/><path class="cls-4" d="M548,309.13a.3.3,0,0,0-.12-.29l-1.38-1a.37.37,0,0,0-.23,0,24.17,24.17,0,0,1-3.58.63,20.42,20.42,0,0,1-2.71.15,9.54,9.54,0,0,1-3.68-.44v-.08a.65.65,0,0,1,.35-.28.28.28,0,0,0,.17-.35.27.27,0,0,0-.33-.2c-1.39.35-2.07.84-2,1.43.09,1.07,2.5,1.67,4.56,1.77h.94a39,39,0,0,0,7.83-1.1A.31.31,0,0,0,548,309.13Z"/><path class="cls-4" d="M537.5,311.43a.28.28,0,0,0,.11-.32.28.28,0,0,0-.28-.21c-.18,0-1.82.08-1.93,1.15a1.05,1.05,0,0,0,.27.83c.58.72,2.17,1.15,4.85,1.3h1a14.07,14.07,0,0,0,5.83-1.14.3.3,0,0,0,.16-.24.29.29,0,0,0-.13-.27l-1.75-1.09a.26.26,0,0,0-.21,0s-1.13.24-2.8.47a9.5,9.5,0,0,1-1.19.07,14.78,14.78,0,0,1-3.91-.46A.29.29,0,0,1,537.5,311.43Z"/><path class="cls-4" d="M539.88,317.54c7.81,0,12-1.42,12.8-2.31a1,1,0,0,0,.29-.84,1.26,1.26,0,0,0-.53-.83.28.28,0,0,0-.37.05.29.29,0,0,0,0,.37c0,.07.07.18-.07.33-.32.31-3.57,1.24-9,1.52-.74,0-1.52.06-2.31.06-4.84,0-8.39-.68-8.86-1.07a6.7,6.7,0,0,1,2.77-.93.29.29,0,0,0,.23-.32.27.27,0,0,0-.31-.24h-.32c-2.2.14-4.74.45-4.88,1.6a1.25,1.25,0,0,0,.31,1c.59.69,2.3,1.59,10.24,1.59Z"/><path class="cls-4" d="M554.21,315.48a.27.27,0,0,0-.32.06s-1.19,1.27-4.71,2a42.84,42.84,0,0,1-7.5.42c-3.66,0-7.14-.14-7.17-.14a.28.28,0,0,0-.29.24.29.29,0,0,0,.21.32,40.69,40.69,0,0,0,8.66.84,39,39,0,0,0,6.91-.59c4.1-.74,4.39-2.81,4.39-2.9A.26.26,0,0,0,554.21,315.48Z"/><path class="cls-2" d="M630.34,172.12H593.93a.6.6,0,1,1,0-1.2h36.41a.6.6,0,0,1,0,1.2Z"/><polygon class="cls-2" points="630.55 175.2 630.13 174.08 635.35 172.12 630.34 172.12 630.34 170.92 635.35 170.92 630.13 168.96 630.55 167.84 640.37 171.52 630.55 175.2"/><path class="cls-2" d="M630.34,216H593.93a.6.6,0,1,1,0-1.19h36.41a.6.6,0,1,1,0,1.19Z"/><polygon class="cls-2" points="630.55 219.13 630.13 218 635.35 216.04 630.34 216.04 630.34 214.84 635.35 214.84 630.13 212.89 630.55 211.76 640.37 215.44 630.55 219.13"/><path class="cls-2" d="M630.34,259.74H593.93a.6.6,0,0,1,0-1.2h36.41a.6.6,0,0,1,0,1.2Z"/><polygon class="cls-2" points="630.55 262.82 630.13 261.7 635.35 259.74 630.34 259.74 630.34 258.54 635.35 258.54 630.13 256.58 630.55 255.46 640.37 259.14 630.55 262.82"/><path class="cls-2" d="M629.34,302.59H592.93a.6.6,0,0,1,0-1.2h36.41a.6.6,0,0,1,0,1.2Z"/><polygon class="cls-2" points="629.55 305.67 629.13 304.55 634.35 302.59 629.34 302.59 629.34 301.39 634.35 301.39 629.13 299.43 629.55 298.31 639.37 301.99 629.55 305.67"/><path class="cls-2" d="M628,346.64H591.62a.6.6,0,1,1,0-1.2H628a.6.6,0,0,1,0,1.2Z"/><polygon class="cls-2" points="628.24 349.73 627.82 348.6 633.04 346.64 628.03 346.64 628.03 345.44 633.04 345.44 627.82 343.49 628.24 342.36 638.06 346.04 628.24 349.73"/><path class="cls-2" d="M48,172.12H11.55a.6.6,0,0,1,0-1.2H48a.6.6,0,0,1,0,1.2Z"/><polygon class="cls-2" points="48.17 175.2 47.75 174.08 52.97 172.12 47.96 172.12 47.96 170.92 52.97 170.92 47.75 168.96 48.17 167.84 57.99 171.52 48.17 175.2"/><path class="cls-2" d="M48,216H11.55a.6.6,0,1,1,0-1.19H48A.6.6,0,1,1,48,216Z"/><polygon class="cls-2" points="48.17 219.13 47.75 218 52.97 216.04 47.96 216.04 47.96 214.84 52.97 214.84 47.75 212.89 48.17 211.76 57.99 215.44 48.17 219.13"/><path class="cls-2" d="M48,259.74H11.55a.6.6,0,0,1,0-1.2H48a.6.6,0,0,1,0,1.2Z"/><polygon class="cls-2" points="48.17 262.82 47.75 261.7 52.97 259.74 47.96 259.74 47.96 258.54 52.97 258.54 47.75 256.58 48.17 255.46 57.99 259.14 48.17 262.82"/><path class="cls-2" d="M47,302.59H10.55a.6.6,0,0,1,0-1.2H47a.6.6,0,0,1,0,1.2Z"/><polygon class="cls-2" points="47.17 305.67 46.75 304.55 51.97 302.59 46.96 302.59 46.96 301.39 51.97 301.39 46.75 299.43 47.17 298.31 56.99 301.99 47.17 305.67"/><path class="cls-2" d="M45.65,345H9.24a.6.6,0,0,1,0-1.2H45.65a.6.6,0,1,1,0,1.2Z"/><polygon class="cls-2" points="45.86 348.1 45.44 346.98 50.66 345.02 45.65 345.02 45.65 343.82 50.66 343.82 45.44 341.86 45.86 340.74 55.68 344.42 45.86 348.1"/><path class="cls-4" d="M531.42,349.5c.05,1,1.09.56,1.54.23s.56,0,.62-.65a9.55,9.55,0,0,0,0-1.19,2.87,2.87,0,0,0-2,.49c-.29.21-.82.88-.26,1.1"/><path class="cls-5" d="M533.34,348a2.71,2.71,0,0,0-1.6.5,1.05,1.05,0,0,0-.46.73.26.26,0,0,0,.18.22h0v.06a.54.54,0,0,0,.23.49,1.33,1.33,0,0,0,1.16-.34,1.46,1.46,0,0,1,.38-.18c.14,0,.18-.06.19-.39V348h-.12ZM532,350.26a.63.63,0,0,1-.47-.2.65.65,0,0,1-.17-.48.42.42,0,0,1-.25-.35,1.25,1.25,0,0,1,.56-.87,3,3,0,0,1,2-.52h.09v.09q0,.46,0,.93v.28c0,.42-.12.49-.34.54a1.26,1.26,0,0,0-.33.16A2.28,2.28,0,0,1,532,350.26Z"/><path class="cls-4" d="M533.8,337.2c-3.95-1.1-1-6.12,2.19-4.07Z"/><path class="cls-5" d="M534.4,332.73a2.32,2.32,0,0,0-1.26.37,2.41,2.41,0,0,0-1.14,2.28,2.19,2.19,0,0,0,1.75,1.69l2.07-3.92a2.86,2.86,0,0,0-1.4-.42Zm-.54,4.58h-.08a2.4,2.4,0,0,1-1.95-1.88,2.62,2.62,0,0,1,4.19-2.37l.08,0Z"/><path class="cls-4" d="M551.38,332.74c3.12-2.18,6,2.74,2.32,4Z"/><path class="cls-5" d="M551.51,332.78l2.23,3.86a2.13,2.13,0,0,0,1.56-1.75,2.46,2.46,0,0,0-1.21-2.28,2.31,2.31,0,0,0-2.62.19Zm2.14,4.1-2.4-4.16h.07a2.57,2.57,0,0,1,4.18,2.2,2.31,2.31,0,0,1-1.75,2Z"/><path class="cls-4" d="M552.05,362.22c.79.49,2.25,2,1.05,2.7-1.13,1.05-1.75-1.16-2.79-1.45A2.74,2.74,0,0,1,552.05,362.22Z"/><path class="cls-5" d="M550.46,363.42a3.07,3.07,0,0,1,.95.88,1.93,1.93,0,0,0,1.05.83.83.83,0,0,0,.55-.25.72.72,0,0,0,.4-.64c0-.67-.88-1.51-1.43-1.88a2.59,2.59,0,0,0-1.51,1.08Zm2,1.88c-.46,0-.88-.46-1.19-.87a2.52,2.52,0,0,0-1-.88h-.13l.08-.13a2.85,2.85,0,0,1,1.8-1.28h.07c.51.31,1.56,1.23,1.55,2.06a.89.89,0,0,1-.49.8A1,1,0,0,1,552.5,365.3Z"/><path class="cls-5" d="M553.1,365a.09.09,0,0,1-.08,0,2.39,2.39,0,0,1-.15-.37,1.81,1.81,0,0,0-.36-.67.1.1,0,0,1,0-.14.1.1,0,0,1,.14,0,1.65,1.65,0,0,1,.4.72c0,.12.1.23.15.35a.07.07,0,0,1,0,.06.09.09,0,0,1,0,.07Z"/><path class="cls-4" d="M537.85,363.9c-.94.14-1.47,1-2.24,1.41a.68.68,0,0,1-1,0,.54.54,0,0,1-.13-.22.33.33,0,0,1-.29-.13c-.67-1.09.71-1.85,1.44-2.39,1-.2,1.65.68,2.19,1.37Z"/><path class="cls-5" d="M534.45,364.94h.15l0,.08a.65.65,0,0,0,.37.34.73.73,0,0,0,.54-.13,4.72,4.72,0,0,0,.8-.59,3.28,3.28,0,0,1,1.32-.81c-.51-.65-1.1-1.37-2-1.2l-.24.17c-.76.55-1.69,1.2-1.15,2.07a.18.18,0,0,0,.11.08Zm.66.64h-.18a.92.92,0,0,1-.47-.42.32.32,0,0,1-.27-.14c-.66-1,.46-1.82,1.2-2.33l.26-.19c1-.21,1.69.64,2.21,1.33l.15.2h-.16a2.89,2.89,0,0,0-1.39.79,5.52,5.52,0,0,1-.82.62A1.23,1.23,0,0,1,535.11,365.58Z"/><path class="cls-5" d="M534.53,365.16l-.07,0a.13.13,0,0,1,0-.07V365a1.55,1.55,0,0,1,.33-.71,1.68,1.68,0,0,0,.2-.34.1.1,0,0,1,.13-.06.09.09,0,0,1,.06.06.09.09,0,0,1,0,.07,1.79,1.79,0,0,1-.22.38,1.29,1.29,0,0,0-.27.65.07.07,0,0,1,0,.06.11.11,0,0,1-.07,0Z"/><path class="cls-4" d="M556.46,349.37c0,1-1.09.55-1.55.23s-.54,0-.61-.66a11.81,11.81,0,0,1,0-1.19,2.93,2.93,0,0,1,2,.5c.28.21.82.88.26,1.1"/><path class="cls-5" d="M554.34,347.85v1.09c0,.34,0,.35.19.4a1.27,1.27,0,0,1,.37.18,1.39,1.39,0,0,0,1.17.34.54.54,0,0,0,.23-.49v-.07h.06a.25.25,0,0,0,.18-.22,1.07,1.07,0,0,0-.46-.73,2.74,2.74,0,0,0-1.75-.5Zm1.59,2.25a2.27,2.27,0,0,1-1-.39,1.17,1.17,0,0,0-.34-.16c-.21-.08-.29-.14-.32-.55v-.27a7.37,7.37,0,0,1,0-.94v-.13h.09a3.07,3.07,0,0,1,2,.51,1.24,1.24,0,0,1,.54.88.42.42,0,0,1-.24.35.65.65,0,0,1-.34.6.66.66,0,0,1-.34.06Z"/><path class="cls-4" d="M543.55,330.66c4,0,7.65.54,9.62,4.37,1.75,4.27,1.1,8.87,1.38,13.37.23,3.87.74,8.34-1,11.93-1.88,3.76-6.62,4.69-10.5,4.57-3-.11-6.75-1.09-8.47-3.89-2-3.29-1.07-8.15-.92-11.79.18-4.31-1.17-8.63.25-12.86s5.43-5.37,9.7-5.7"/><path class="cls-5" d="M543.55,330.76c-4.12.35-8.14,1.23-9.62,5.64-.88,2.7-.67,5.5-.45,8.21a37.09,37.09,0,0,1,.2,4.6c0,.72-.09,1.5-.16,2.32-.24,3.19-.54,6.82,1.06,9.4.68,1.09,2.85,3.66,8.39,3.83,2.4.09,8.21-.18,10.4-4.53,1.6-3.21,1.34-7.22,1.11-10.74a6,6,0,0,0-.07-1.13c-.06-1.19-.08-2.45-.08-3.67,0-3.21,0-6.56-1.3-9.62a6.94,6.94,0,0,0-4-3.56A16,16,0,0,0,543.55,330.76Zm.1,34.26H543a14.21,14.21,0,0,1-4.77-.95,7.64,7.64,0,0,1-3.78-3c-1.63-2.63-1.34-6.3-1.09-9.53.07-.81.13-1.58.16-2.3a36.86,36.86,0,0,0-.2-4.58c-.23-2.74-.47-5.57.45-8.31a7.26,7.26,0,0,1,3.83-4.43,16.18,16.18,0,0,1,5.94-1.35c3.9,0,7.76.53,9.73,4.38,1.27,3.12,1.29,6.46,1.31,9.71,0,1.2,0,2.46.08,3.69a5.47,5.47,0,0,0,.08,1.13c.23,3.5.49,7.57-1.14,10.84C551.52,364.43,546.38,365,543.65,365Z"/><path class="cls-4" d="M544.24,336c.72,4.13,7.46,3,6.5-1.13-.87-3.73-6.74-2.7-6.5,1.13"/><path class="cls-2" d="M547.45,338.77a3.93,3.93,0,0,1-1.27-.21A3.17,3.17,0,0,1,544,336v0a3.45,3.45,0,0,1,3.11-3.63,3.22,3.22,0,0,1,3.79,2.45,3,3,0,0,1-.88,3A4,4,0,0,1,547.45,338.77Zm-3-2.82a2.79,2.79,0,0,0,1.88,2.24,3.63,3.63,0,0,0,3.47-.66,2.61,2.61,0,0,0,.76-2.64,2.81,2.81,0,0,0-3.34-2.14A3.06,3.06,0,0,0,544.44,336Z"/><path class="cls-4" d="M536.17,336.64c.88,3.6,6.68,2.63,6.46-.93-.25-4.32-7.34-3.5-6.46.93"/><path class="cls-5" d="M536.28,336.66a3.22,3.22,0,0,0,6.28-.87,2.73,2.73,0,0,0-1.64-2.48,3.7,3.7,0,0,0-3.67.47A2.83,2.83,0,0,0,536.28,336.66Zm3,2.4a3.6,3.6,0,0,1-1.68-.41,3.07,3.07,0,0,1-.46-5,3.91,3.91,0,0,1,3.87-.49,2.92,2.92,0,0,1,1.75,2.62,3.17,3.17,0,0,1-3.48,3.28Z"/><path class="cls-2" d="M539.24,339.16a3.8,3.8,0,0,1-1.72-.42,3.17,3.17,0,0,1-.47-5.21,4,4,0,0,1,4-.5,3,3,0,0,1,1.81,2.71,3.31,3.31,0,0,1-3,3.38,3.51,3.51,0,0,1-.56,0S539.27,339.15,539.24,339.16Zm-3-2.4a3,3,0,0,0,1.4,1.8,3.19,3.19,0,0,0,.78.29A3.27,3.27,0,0,1,536.21,336.76Zm6.35-.26a3.35,3.35,0,0,1-2.09,2.3A3.12,3.12,0,0,0,542.56,336.5Zm-6.18.13a3.12,3.12,0,0,0,6.08-.85,2.64,2.64,0,0,0-1.58-2.38,3.59,3.59,0,0,0-3.57.46A2.71,2.71,0,0,0,536.38,336.63Zm3.09-3.71a3.79,3.79,0,0,0-2.3.77,3,3,0,0,0-1,1.92,2.92,2.92,0,0,1,1.07-1.9,3.77,3.77,0,0,1,3.44-.61A3.85,3.85,0,0,0,539.47,332.92Z"/><path class="cls-4" d="M545,341a10.23,10.23,0,0,1,0,1.75,1.1,1.1,0,0,1-.64.39.94.94,0,0,1-.72-.54,13.93,13.93,0,0,1,0-1.94Z"/><path class="cls-5" d="M543.82,342.45a.86.86,0,0,0,.61.49l.16-.06a.67.67,0,0,0,.39-.29,4,4,0,0,0,0-1.09,2.09,2.09,0,0,0,0-.5l-1.09-.33a2.17,2.17,0,0,1,0,.51,6.63,6.63,0,0,0,0,1.26Zm.64.69a1,1,0,0,1-.79-.62,7.39,7.39,0,0,1,0-1.33v-.78l1.48.45v.1a4.86,4.86,0,0,0,0,.54,4.66,4.66,0,0,1,0,1.18.82.82,0,0,1-.52.37l-.17.07Z"/><path class="cls-2" d="M544.46,343.24h0a1.13,1.13,0,0,1-.86-.68s0,0,0,0a7.61,7.61,0,0,1,0-1.35v-.77a.09.09,0,0,1,0-.08.1.1,0,0,1,.09,0l1.48.46a.1.1,0,0,1,.07.09v.1a4.68,4.68,0,0,0,0,.53,4.82,4.82,0,0,1,0,1.2s0,0,0,0a1,1,0,0,1-.58.42l-.11,0,0,0S544.48,343.24,544.46,343.24Zm-.49-.73a.78.78,0,0,0,.46.33l.12,0a.63.63,0,0,0,.34-.23,4.1,4.1,0,0,0,0-1.05,2.08,2.08,0,0,0,0-.43l-.89-.27a2.44,2.44,0,0,1,0,.38,6.53,6.53,0,0,0,0,1.25A.19.19,0,0,1,544,342.51Zm-.2-2v.65a6.76,6.76,0,0,0,0,1.19l0,0a6.75,6.75,0,0,1,0-1.19,2,2,0,0,0,0-.49.11.11,0,0,1,0-.09l0,0Z"/><path class="cls-5" d="M538.44,335.3a1.13,1.13,0,0,1,0,1.5.92.92,0,0,1-1.37,0,1.13,1.13,0,0,1,0-1.5.92.92,0,0,1,1.37,0"/><path class="cls-4" d="M538.36,336.09a.32.32,0,0,1,0,.39.21.21,0,0,1-.32,0,.32.32,0,0,1,0-.39.21.21,0,0,1,.32,0"/><path class="cls-5" d="M546.59,335a1.15,1.15,0,0,1,0,1.5.89.89,0,0,1-1.35,0,1.13,1.13,0,0,1,0-1.5.89.89,0,0,1,1.35,0"/><path class="cls-4" d="M546.5,335.83a.32.32,0,0,1,0,.39.21.21,0,0,1-.32,0,.32.32,0,0,1,0-.39.21.21,0,0,1,.32,0"/><path class="cls-4" d="M542.3,340.87c-.43,1,.23,3.09,1.39,1.57a11.46,11.46,0,0,1,0-1.94Z"/><path class="cls-2" d="M542.92,343.18a.65.65,0,0,1-.34-.09,2.07,2.07,0,0,1-.47-2.3.19.19,0,0,1,.14-.11l1.44-.37a.2.2,0,0,1,.18,0,.19.19,0,0,1,.07.17,11.11,11.11,0,0,0-.05,1.91.23.23,0,0,1,0,.14C543.48,343.05,543.16,343.18,542.92,343.18Zm-.47-2.14c-.19.59,0,1.5.33,1.71s.53-.15.71-.37a10.8,10.8,0,0,1,0-1.61Z"/><path class="cls-5" d="M542.33,341a1.86,1.86,0,0,0,.37,1.87c.3.17.62-.12.88-.42a7.06,7.06,0,0,1,0-1.3,2,2,0,0,1,0-.49Zm.55,2.12a.46.46,0,0,1-.28-.08,2,2,0,0,1-.43-2.18l1.64-.42v.13a3.33,3.33,0,0,1,0,.63,5.57,5.57,0,0,0,0,1.29v.07A1.14,1.14,0,0,1,542.88,343.08Z"/><path class="cls-4" d="M542.43,338.89a1.24,1.24,0,0,0-.85.45,1.28,1.28,0,0,0-.28.92,1,1,0,0,0,.1.38c.55,1,1.75-.09,2.52,0s1.58.92,2.28.17-.33-1.65-1.2-2Z"/><path class="cls-2" d="M545.53,341.27a2.53,2.53,0,0,1-.92-.25,2.66,2.66,0,0,0-.71-.23,2.45,2.45,0,0,0-.87.19c-.6.21-1.34.48-1.76-.26a1.31,1.31,0,0,1-.12-.45,1.42,1.42,0,0,1,.31-1,1.44,1.44,0,0,1,1-.5h0l2.57-.11a.09.09,0,0,1,.07,0c.61.27,1.37.82,1.5,1.45a.92.92,0,0,1-.25.82A1,1,0,0,1,545.53,341.27Zm-1.71-.78h.11a2.8,2.8,0,0,1,.79.25c.52.22,1,.4,1.37,0a.62.62,0,0,0,.18-.56c-.1-.48-.74-1-1.3-1.22l-2.53.11a1.15,1.15,0,0,0-.75.39,1.13,1.13,0,0,0-.24.81,1.21,1.21,0,0,0,.08.34c.27.48.71.36,1.4.12A3,3,0,0,1,543.82,340.49Z"/><path class="cls-2" d="M543.94,340.56a2.48,2.48,0,0,1,.93.26c.49.21.88.36,1.28-.06a.75.75,0,0,0,.22-.67c-.11-.5-.8-1-1.37-1.2l-2.54.11a1.2,1.2,0,0,0-.94.64,1,1,0,0,0,0,1c.31.54.87.37,1.47.16A2.22,2.22,0,0,1,543.94,340.56Zm1.64.66a2.22,2.22,0,0,1-.8-.22,2.22,2.22,0,0,0-.87-.24,2.09,2.09,0,0,0-.88.2c-.62.21-1.31.44-1.7-.26a1.18,1.18,0,0,1,0-1.15,1.42,1.42,0,0,1,1.09-.74l2.63-.12c.64.27,1.38.77,1.51,1.35a1.06,1.06,0,0,1-.88,1.17Z"/><path class="cls-4" d="M542.3,338.85c-.06-1.37,2.55-1.54,2.86-.39S542.43,339.87,542.3,338.85Z"/><path class="cls-2" d="M543.55,339.63a2.43,2.43,0,0,1-.79-.12.83.83,0,0,1-.61-.64h0c0-.65.48-1.16,1.31-1.28s1.66.14,1.84.84a.71.71,0,0,1-.23.75A2.46,2.46,0,0,1,543.55,339.63Zm-1.1-.79c0,.21.24.32.41.39a2.36,2.36,0,0,0,2-.28.42.42,0,0,0,.15-.46c-.14-.53-.88-.71-1.5-.62S542.43,338.25,542.45,338.84Z"/><path class="cls-2" d="M499.06,82.58h-2.8a.7.7,0,1,1,0-1.4h2.8a.7.7,0,0,1,0,1.4Zm-5.6,0h-2.8a.7.7,0,1,1,0-1.4h2.8a.7.7,0,0,1,0,1.4Zm-5.6,0h-2.8a.7.7,0,1,1,0-1.4h2.8a.7.7,0,0,1,0,1.4Zm-5.6,0h-2.8a.7.7,0,1,1,0-1.4h2.8a.7.7,0,0,1,0,1.4Zm-5.6,0h-2.8a.7.7,0,1,1,0-1.4h2.8a.7.7,0,0,1,0,1.4Zm-5.6,0h-2.8a.7.7,0,1,1,0-1.4h2.8a.7.7,0,0,1,0,1.4Zm-5.6,0h-2.8a.7.7,0,1,1,0-1.4h2.8a.7.7,0,0,1,0,1.4Zm-5.6,0h-2.8a.7.7,0,1,1,0-1.4h2.8a.7.7,0,0,1,0,1.4Zm-5.6,0h-2.8a.7.7,0,1,1,0-1.4h2.8a.7.7,0,0,1,0,1.4Zm-5.6,0h-1.28a.7.7,0,0,1-.7-.69V80.36a.7.7,0,0,1,.7-.7h0a.69.69,0,0,1,.7.69v.83h.58a.7.7,0,0,1,0,1.4Zm50.46-2.73a.7.7,0,0,1-.7-.7v-2.8a.7.7,0,0,1,1.4,0v2.8A.7.7,0,0,1,499.12,79.85Zm-51.76-1.59a.7.7,0,0,1-.7-.7v-2.8a.69.69,0,0,1,.69-.7.7.7,0,0,1,.71.69v2.8a.7.7,0,0,1-.7.71Zm51.76-4a.7.7,0,0,1-.7-.7v-2.8a.7.7,0,0,1,1.4,0v2.8A.7.7,0,0,1,499.12,74.25Zm-51.79-1.59a.7.7,0,0,1-.7-.7v-2.8a.69.69,0,0,1,.69-.7h0a.7.7,0,0,1,.7.69V72a.71.71,0,0,1-.69.71Zm51.79-4a.7.7,0,0,1-.7-.7v-2.8a.7.7,0,0,1,1.4,0V68A.7.7,0,0,1,499.12,68.65ZM447.3,67.06a.7.7,0,0,1-.7-.7v-2.8a.69.69,0,0,1,.69-.7h0a.7.7,0,0,1,.7.69v2.8a.7.7,0,0,1-.69.71Zm51.82-4a.7.7,0,0,1-.7-.7v-2.8a.7.7,0,0,1,1.4,0v2.8A.7.7,0,0,1,499.12,63.05Zm-51.85-1.59a.71.71,0,0,1-.7-.7V58a.7.7,0,0,1,.7-.7h0a.7.7,0,0,1,.7.69v2.8a.7.7,0,0,1-.69.71Zm51.85-4a.7.7,0,0,1-.7-.7V54a.7.7,0,1,1,1.4,0v2.8A.7.7,0,0,1,499.12,57.45Zm-51.87-1.59a.7.7,0,0,1-.7-.7l0-2.8a.7.7,0,0,1,.7-.7h0a.69.69,0,0,1,.7.69l0,2.8a.71.71,0,0,1-.7.71Zm51.87-4a.7.7,0,0,1-.7-.7v-2.8a.7.7,0,1,1,1.4,0v2.8A.7.7,0,0,1,499.12,51.85Zm-51.9-1.59a.7.7,0,0,1-.7-.7l0-2.8a.7.7,0,0,1,.7-.7h0a.69.69,0,0,1,.7.69l0,2.8a.7.7,0,0,1-.7.71Zm51.9-4a.7.7,0,0,1-.7-.7v-2.8a.7.7,0,0,1,1.4,0v2.8A.7.7,0,0,1,499.12,46.25Zm-51.93-1.59a.7.7,0,0,1-.7-.7l0-2.8a.7.7,0,0,1,.7-.7h0a.69.69,0,0,1,.7.69l0,2.8a.7.7,0,0,1-.7.71Zm51.93-4a.7.7,0,0,1-.7-.7v-2.8a.7.7,0,0,1,1.4,0V40A.7.7,0,0,1,499.12,40.65Zm-26-.27a8.19,8.19,0,0,1-2-.26.7.7,0,1,1,.34-1.36,6.7,6.7,0,0,0,2.52.16.7.7,0,1,1,.17,1.39A6.63,6.63,0,0,1,473.12,40.38Zm3.57-.9a.72.72,0,0,1-.62-.37.7.7,0,0,1,.29-1,7.59,7.59,0,0,0,2-1.57.7.7,0,1,1,1,.95A9.23,9.23,0,0,1,477,39.4.76.76,0,0,1,476.69,39.48Zm-29.53-.42a.7.7,0,0,1-.7-.7l0-2.8a.7.7,0,0,1,.7-.7h0a.71.71,0,0,1,.7.69v2.8a.7.7,0,0,1-.7.71ZM468.73,39a.66.66,0,0,1-.4-.13,9.18,9.18,0,0,1-1.59-1.41c-.2-.22-.39-.46-.57-.69a.7.7,0,0,1,.15-1,.69.69,0,0,1,1,.14,6.86,6.86,0,0,0,.48.59,8,8,0,0,0,1.35,1.2.71.71,0,0,1,.18,1A.73.73,0,0,1,468.73,39Zm11.72-3.53a.8.8,0,0,1-.3-.06.7.7,0,0,1-.33-.94,9.08,9.08,0,0,0,.76-2.47.69.69,0,0,1,.81-.58.7.7,0,0,1,.58.8,10.63,10.63,0,0,1-.89,2.85A.69.69,0,0,1,480.45,35.45Zm18.67-.4a.7.7,0,0,1-.7-.7v-2.8a.7.7,0,0,1,1.4,0v2.8A.7.7,0,0,1,499.12,35.05Zm-33.69-.48a.7.7,0,0,1-.66-.47,10.72,10.72,0,0,1-.57-2.52h-2.15a.7.7,0,1,1,0-1.4h2.8a.71.71,0,0,1,.7.7s0,.06,0,.09a.5.5,0,0,1,0,.12,9.48,9.48,0,0,0,.52,2.54.7.7,0,0,1-.42.9A1,1,0,0,1,465.43,34.57Zm-18.3-1.11a.7.7,0,0,1-.7-.7V30.89a.7.7,0,0,1,.2-.5.73.73,0,0,1,.5-.21h.93a.7.7,0,0,1,0,1.4h-.23v1.17a.7.7,0,0,1-.7.71ZM497,31.58h-2.8a.7.7,0,1,1,0-1.4H497a.7.7,0,0,1,0,1.4Zm-5.6,0h-2.8a.7.7,0,1,1,0-1.4h2.8a.7.7,0,0,1,0,1.4Zm-5.6,0H483a.7.7,0,1,1,0-1.4h2.8a.7.7,0,0,1,0,1.4Zm-26.54,0h-2.8a.7.7,0,1,1,0-1.4h2.8a.7.7,0,0,1,0,1.4Zm-5.6,0h-2.8a.7.7,0,0,1,0-1.4h2.8a.7.7,0,1,1,0,1.4Z"/><path class="cls-3" d="M475.5,75.8h0l2.65-9.14h1.29l2.66,9.14h0l2.59-9.14h1.14l-3.13,10.62H481.5l-2.67-9.12h0l-2.67,9.12h-1.26l-3.14-10.62h1.14Z"/><path class="cls-3" d="M487.27,77.28h-1.18l4.59-10.62h1.05l4.56,10.62h-1.2l-1.17-2.79h-5.49Zm1.56-3.78h4.68l-2.34-5.64Z"/><path class="cls-2" d="M473.77,112.46a.6.6,0,0,1-.6-.6v-4.8a.6.6,0,0,1,1.2,0v4.8A.6.6,0,0,1,473.77,112.46Zm0-9.6a.6.6,0,0,1-.6-.6v-4.8a.6.6,0,0,1,1.2,0v4.8A.6.6,0,0,1,473.77,102.86Zm0-9.6a.6.6,0,0,1-.6-.6v-4.8a.6.6,0,0,1,1.2,0v4.8A.6.6,0,0,1,473.77,93.26Z"/><polygon class="cls-2" points="473.77 125.18 470.09 115.36 471.21 114.94 473.17 120.16 473.17 115.15 474.37 115.15 474.37 120.16 476.33 114.94 477.45 115.36 473.77 125.18"/><path class="cls-2" d="M466.28,15.38h-3.71V14.11h3.71Z"/><path class="cls-2" d="M475.4,15.38h-3.71V14.11h3.71Z"/><path class="cls-2" d="M484.52,15.38h-3.71V14.11h3.71Z"/><rect class="cls-6" x="8.62" y="-4.53" width="633" height="382"/><path class="cls-4" d="M207.71,176.22a1.12,1.12,0,0,1-1.05-.72l-.38-.94a11.59,11.59,0,0,1-2,0l-.4.93a1.13,1.13,0,0,1-1.48.59L199,174.6a1.13,1.13,0,0,1-.59-1.48l.41-.94a10.31,10.31,0,0,1-1.42-1.46l-.95.37a1.12,1.12,0,0,1-1.46-.63l-1.36-3.41a1.19,1.19,0,0,1,0-.87,1.14,1.14,0,0,1,.62-.6l.95-.37a9.94,9.94,0,0,1,0-2l-.93-.41a1.11,1.11,0,0,1-.61-.61,1.14,1.14,0,0,1,0-.87l1.45-3.37a1.17,1.17,0,0,1,.62-.6,1.12,1.12,0,0,1,.86,0l.94.41a10.31,10.31,0,0,1,1.46-1.42l-.37-.95a1.13,1.13,0,0,1,.63-1.47l3.41-1.35a1.12,1.12,0,0,1,1.46.63l.38,1a9.94,9.94,0,0,1,2,0l.4-.94a1.14,1.14,0,0,1,1.49-.59l3.37,1.46a1.13,1.13,0,0,1,.59,1.48l-.41.94a10.31,10.31,0,0,1,1.42,1.46l.95-.38a1.13,1.13,0,0,1,1.46.63l1.36,3.42a1.13,1.13,0,0,1-.63,1.46l-1,.38a9.94,9.94,0,0,1,0,2l.94.4a1.12,1.12,0,0,1,.58,1.48l-1.45,3.37a1.16,1.16,0,0,1-.62.61,1.11,1.11,0,0,1-.86,0l-.94-.4a10.31,10.31,0,0,1-1.46,1.42l.38.95a1.14,1.14,0,0,1-.64,1.46l-3.41,1.36A1.24,1.24,0,0,1,207.71,176.22Zm-.55-3.16.68,1.71,3-1.17-.68-1.71.44-.32a8.57,8.57,0,0,0,1.93-1.87l.33-.43,1.69.72,1.26-2.92-1.69-.72.09-.54a9,9,0,0,0,0-2.69l-.08-.54,1.71-.67-1.17-3-1.71.68-.31-.44a8.83,8.83,0,0,0-1.88-1.93l-.43-.33.73-1.69L208.15,154l-.73,1.69-.53-.09a9.05,9.05,0,0,0-2.7,0l-.53.07-.68-1.7-3,1.17.68,1.71-.44.31a9.05,9.05,0,0,0-1.93,1.88l-.33.43-1.69-.73-1.25,2.92,1.68.73-.09.53a9.05,9.05,0,0,0,0,2.7l.08.53-1.71.68,1.17,3,1.71-.68.31.44a9.3,9.3,0,0,0,1.88,1.93l.43.32-.73,1.69,2.92,1.26.73-1.69.53.1a9.05,9.05,0,0,0,2.7,0Z"/><path class="cls-4" d="M205.58,169.63a5.36,5.36,0,1,1,2-.38h0A5.3,5.3,0,0,1,205.58,169.63Zm0-9.34A4,4,0,1,0,207,168h0a4,4,0,0,0-1.47-7.69Z"/><path class="cls-4" d="M205.09,183.4a19,19,0,1,1,12.52-4.7.69.69,0,0,1-.91-1A17.62,17.62,0,1,0,205.09,182a.69.69,0,1,1,0,1.37Z"/><path class="cls-4" d="M217.16,178.68h0a.69.69,0,0,1-.66-.71l.12-3.65a.7.7,0,0,1,.71-.67.68.68,0,0,1,.66.71l-.12,3.66A.68.68,0,0,1,217.16,178.68Z"/><path class="cls-4" d="M217.23,178.86a.68.68,0,0,1-.2-1.34l4.37-1.32a.69.69,0,0,1,.4,1.32l-4.38,1.31A.63.63,0,0,1,217.23,178.86Z"/><path class="cls-1" d="M221.48,23l-.11-1h-.05A2.87,2.87,0,0,1,219,23.12a2.2,2.2,0,0,1-2.37-2.22c0-1.87,1.67-2.9,4.66-2.88v-.16a1.6,1.6,0,0,0-1.76-1.79,3.9,3.9,0,0,0-2,.57l-.32-.93a4.87,4.87,0,0,1,2.55-.68c2.37,0,2.94,1.61,2.94,3.16v2.9a11.63,11.63,0,0,0,.13,1.86ZM221.27,19c-1.53,0-3.28.24-3.28,1.74a1.25,1.25,0,0,0,1.33,1.34,1.92,1.92,0,0,0,1.87-1.29,1.47,1.47,0,0,0,.08-.45Z"/><path class="cls-1" d="M231.58,15.2c0,.56-.07,1.19-.07,2.13v4.5c0,1.77-.35,2.86-1.1,3.54a4.12,4.12,0,0,1-2.82.92,4.92,4.92,0,0,1-2.57-.64l.35-1.07a4.35,4.35,0,0,0,2.27.61c1.44,0,2.5-.75,2.5-2.71v-.86h0a2.79,2.79,0,0,1-2.47,1.3c-1.92,0-3.3-1.64-3.3-3.78,0-2.63,1.72-4.11,3.49-4.11a2.58,2.58,0,0,1,2.42,1.34h0l.07-1.17Zm-1.46,3.06a1.84,1.84,0,0,0-.08-.64,2,2,0,0,0-2-1.49c-1.34,0-2.3,1.14-2.3,2.93,0,1.52.77,2.78,2.29,2.78A2.06,2.06,0,0,0,230,20.4a2.43,2.43,0,0,0,.11-.75Z"/><path class="cls-1" d="M240.52,15.2c0,.56-.06,1.19-.06,2.13v4.5c0,1.77-.35,2.86-1.11,3.54a4.11,4.11,0,0,1-2.81.92,5,5,0,0,1-2.58-.64l.35-1.07a4.35,4.35,0,0,0,2.27.61c1.44,0,2.5-.75,2.5-2.71v-.86h0a2.78,2.78,0,0,1-2.47,1.3c-1.92,0-3.29-1.64-3.29-3.78,0-2.63,1.71-4.11,3.49-4.11a2.56,2.56,0,0,1,2.41,1.34h0l.06-1.17Zm-1.45,3.06a2.12,2.12,0,0,0-.08-.64,2,2,0,0,0-2-1.49c-1.35,0-2.31,1.14-2.31,2.93,0,1.52.77,2.78,2.29,2.78A2.05,2.05,0,0,0,239,20.4a2.45,2.45,0,0,0,.12-.75Z"/><path class="cls-1" d="M242.69,17.62c0-.91,0-1.7-.06-2.42h1.23l0,1.52H244A2.31,2.31,0,0,1,246.12,15a1.64,1.64,0,0,1,.4,0V16.4a2.21,2.21,0,0,0-.48,0,2,2,0,0,0-1.89,1.81,4.25,4.25,0,0,0-.06.66V23h-1.4Z"/><path class="cls-1" d="M248.55,19.33A2.48,2.48,0,0,0,251.21,22a5.13,5.13,0,0,0,2.14-.4l.24,1a6.29,6.29,0,0,1-2.57.48,3.6,3.6,0,0,1-3.81-3.91c0-2.33,1.37-4.17,3.63-4.17,2.53,0,3.2,2.22,3.2,3.64a4.54,4.54,0,0,1,0,.66Zm4.13-1a2,2,0,0,0-2-2.29,2.33,2.33,0,0,0-2.16,2.29Z"/><path class="cls-1" d="M262.46,15.2c0,.56-.07,1.19-.07,2.13v4.5c0,1.77-.35,2.86-1.1,3.54a4.12,4.12,0,0,1-2.82.92,5,5,0,0,1-2.58-.64l.36-1.07a4.35,4.35,0,0,0,2.27.61c1.44,0,2.5-.75,2.5-2.71v-.86h0a2.76,2.76,0,0,1-2.46,1.3c-1.92,0-3.3-1.64-3.3-3.78,0-2.63,1.71-4.11,3.49-4.11a2.58,2.58,0,0,1,2.42,1.34h0l.06-1.17ZM261,18.26a2.12,2.12,0,0,0-.08-.64,2,2,0,0,0-2-1.49c-1.34,0-2.3,1.14-2.3,2.93,0,1.52.77,2.78,2.29,2.78a2.06,2.06,0,0,0,1.95-1.44,2.43,2.43,0,0,0,.11-.75Z"/><path class="cls-1" d="M269,23l-.12-1h0a2.9,2.9,0,0,1-2.37,1.15,2.2,2.2,0,0,1-2.37-2.22c0-1.87,1.66-2.9,4.66-2.88v-.16A1.6,1.6,0,0,0,267,16.07a3.88,3.88,0,0,0-2,.57l-.32-.93a4.86,4.86,0,0,1,2.54-.68c2.37,0,2.95,1.61,2.95,3.16v2.9A10.57,10.57,0,0,0,270.3,23ZM268.81,19c-1.54,0-3.28.24-3.28,1.74a1.25,1.25,0,0,0,1.33,1.34,1.94,1.94,0,0,0,1.87-1.29,1.47,1.47,0,0,0,.08-.45Z"/><path class="cls-1" d="M274.07,13V15.2h2v1.07h-2v4.18c0,1,.27,1.51,1.06,1.51a2.92,2.92,0,0,0,.81-.1l.07,1.06a3.52,3.52,0,0,1-1.25.19,2,2,0,0,1-1.52-.59,2.89,2.89,0,0,1-.55-2V16.27h-1.2V15.2h1.2V13.34Z"/><path class="cls-1" d="M278.36,19.33A2.48,2.48,0,0,0,281,22a5.17,5.17,0,0,0,2.14-.4l.24,1a6.35,6.35,0,0,1-2.58.48A3.6,3.6,0,0,1,277,19.2c0-2.33,1.38-4.17,3.64-4.17,2.53,0,3.2,2.22,3.2,3.64a4.54,4.54,0,0,1-.05.66Zm4.13-1A2,2,0,0,0,280.54,16a2.35,2.35,0,0,0-2.17,2.29Z"/><path class="cls-1" d="M312.56,17.3c0-.8,0-1.46-.07-2.1h1.23l.07,1.25h0A2.65,2.65,0,0,1,316.27,15a2.28,2.28,0,0,1,2.19,1.55h0a3.23,3.23,0,0,1,.87-1,2.63,2.63,0,0,1,1.71-.54c1,0,2.55.67,2.55,3.36V23h-1.38V18.56c0-1.49-.55-2.38-1.68-2.38a1.83,1.83,0,0,0-1.67,1.28,2.45,2.45,0,0,0-.11.7V23h-1.37V18.31c0-1.24-.55-2.13-1.62-2.13a2.09,2.09,0,0,0-1.86,2.1V23h-1.37Z"/><path class="cls-1" d="M330.19,23l-.11-1H330a2.89,2.89,0,0,1-2.37,1.16,2.21,2.21,0,0,1-2.37-2.23C325.29,19,327,18,330,18v-.16a1.6,1.6,0,0,0-1.76-1.79,3.9,3.9,0,0,0-2,.57l-.32-.93A4.87,4.87,0,0,1,328.4,15c2.37,0,2.94,1.61,2.94,3.17v2.89a10.57,10.57,0,0,0,.13,1.86ZM330,19c-1.54,0-3.28.24-3.28,1.74A1.25,1.25,0,0,0,328,22.08a1.92,1.92,0,0,0,1.87-1.29,1.47,1.47,0,0,0,.08-.45Z"/><path class="cls-1" d="M333.61,17.73c0-1,0-1.79-.06-2.53h1.26l.07,1.33h0a3,3,0,0,1,2.75-1.5c1.87,0,3.28,1.58,3.28,3.93,0,2.79-1.69,4.17-3.52,4.17A2.71,2.71,0,0,1,335,21.91h0v4.21h-1.39ZM335,19.8a3.29,3.29,0,0,0,.07.57A2.16,2.16,0,0,0,337.18,22c1.49,0,2.35-1.22,2.35-3,0-1.55-.81-2.88-2.3-2.88a2.24,2.24,0,0,0-2.13,1.74,2.27,2.27,0,0,0-.1.58Z"/><path class="cls-1" d="M373,22.79V16.11h-1.09V15H373v-.33A3.5,3.5,0,0,1,374,12a3.71,3.71,0,0,1,2.49-.78,5,5,0,0,1,2.32.51v11h-1.4V12.54a2.6,2.6,0,0,0-1.15-.2c-1.47,0-2,1.07-2,2.32V15h1.81v1.07h-1.81v6.68Z"/><path class="cls-1" d="M385.46,22.79l-.11-1h-.05A2.89,2.89,0,0,1,382.93,23a2.21,2.21,0,0,1-2.37-2.23c0-1.87,1.67-2.9,4.66-2.88V17.7a1.6,1.6,0,0,0-1.76-1.79,3.9,3.9,0,0,0-2,.57l-.32-.93a4.87,4.87,0,0,1,2.55-.68c2.37,0,2.94,1.61,2.94,3.17v2.89a10.57,10.57,0,0,0,.13,1.86Zm-.21-3.95c-1.54,0-3.28.24-3.28,1.74a1.25,1.25,0,0,0,1.33,1.34,1.92,1.92,0,0,0,1.87-1.29,1.47,1.47,0,0,0,.08-.45Z"/><path class="cls-1" d="M390.51,12.82V15h2v1.07h-2v4.18c0,1,.28,1.51,1.06,1.51a3.06,3.06,0,0,0,.82-.1l.06,1.06a3.48,3.48,0,0,1-1.25.19,2,2,0,0,1-1.52-.59,2.89,2.89,0,0,1-.54-2V16.11h-1.2V15h1.2V13.19Z"/><path class="cls-1" d="M397.3,17.94v1h-3.95v-1Z"/><path class="cls-1" d="M399,17.14c0-.8,0-1.46-.07-2.1h1.23l.07,1.25h.05a2.65,2.65,0,0,1,2.43-1.42,2.28,2.28,0,0,1,2.19,1.55h0a3.23,3.23,0,0,1,.87-1,2.65,2.65,0,0,1,1.71-.54c1,0,2.55.67,2.55,3.36v4.56h-1.38V18.4c0-1.49-.54-2.38-1.68-2.38a1.83,1.83,0,0,0-1.67,1.28,2.45,2.45,0,0,0-.11.7v4.79H403.8V18.15c0-1.24-.55-2.13-1.62-2.13a2.09,2.09,0,0,0-1.86,2.1v4.67H399Z"/><path class="cls-1" d="M416.58,22.79l-.11-1h-.05A2.89,2.89,0,0,1,414.05,23a2.21,2.21,0,0,1-2.37-2.23c0-1.87,1.67-2.9,4.66-2.88V17.7a1.6,1.6,0,0,0-1.76-1.79,3.9,3.9,0,0,0-2,.57l-.32-.93a4.87,4.87,0,0,1,2.55-.68c2.37,0,2.94,1.61,2.94,3.17v2.89a10.57,10.57,0,0,0,.13,1.86Zm-.21-3.95c-1.54,0-3.28.24-3.28,1.74a1.25,1.25,0,0,0,1.33,1.34,1.92,1.92,0,0,0,1.87-1.29,1.47,1.47,0,0,0,.08-.45Z"/><path class="cls-1" d="M420,17.57c0-1,0-1.79-.06-2.53h1.26l.07,1.33h0a3,3,0,0,1,2.75-1.5c1.87,0,3.28,1.58,3.28,3.93,0,2.79-1.69,4.17-3.52,4.17a2.71,2.71,0,0,1-2.38-1.22h0V26H420Zm1.39,2.07a3.29,3.29,0,0,0,.07.57,2.16,2.16,0,0,0,2.11,1.65c1.49,0,2.35-1.22,2.35-3,0-1.56-.81-2.88-2.3-2.88a2.24,2.24,0,0,0-2.13,1.74,2.27,2.27,0,0,0-.1.58Z"/></svg>