<svg id="Layer_1" data-name="Layer 1" xmlns="http://www.w3.org/2000/svg" viewBox="0 0 407.64 110.42"><defs><style>.cls-1,.cls-2{fill:none;stroke-miterlimit:10;stroke-width:7px;}.cls-1{stroke:#fff;}.cls-2{stroke:#7f3f98;}.cls-3,.cls-4{fill:#fff;}.cls-4{font-size:90px;font-family:MontserratAlternates-Regular, Montserrat Alternates;}</style></defs><path class="cls-1" d="M11,69.11a33.88,33.88,0,0,1-.7-4.4" transform="translate(-3.69 -6.87)"/><path class="cls-1" d="M13.12,76.49c-.49-1.31-.93-2.65-1.31-4" transform="translate(-3.69 -6.87)"/><path class="cls-2" d="M13.58,77.47" transform="translate(-3.69 -6.87)"/><path class="cls-1" d="M16.22,83.47c-1.37-2.84-1.57-3.15-1.85-3.78" transform="translate(-3.69 -6.87)"/><path class="cls-2" d="M16.45,83.79" transform="translate(-3.69 -6.87)"/><path class="cls-1" d="M11.41,52.47a50,50,0,1,1,6.66,33.89" transform="translate(-3.69 -6.87)"/><polygon class="cls-3" points="6.47 53.87 0 43.69 14.74 45.96 6.47 53.87"/><path class="cls-1" d="M67.75,37.85c-15,20.52,16.32,21.07-7,52" transform="translate(-3.69 -6.87)"/><path class="cls-1" d="M52.7,27.72c-24.17,32.67,18.27,33-12.59,58" transform="translate(-3.69 -6.87)"/><path class="cls-1" d="M88.18,51.17c-6.7,7.26,8.22,25.77-25.93,37.53" transform="translate(-3.69 -6.87)"/><text class="cls-4" transform="translate(135.67 86.84)">Fluvio</text></svg>