<svg id="Layer_1" data-name="Layer 1" xmlns="http://www.w3.org/2000/svg" viewBox="0 0 397.73 107"><defs><style>.cls-1,.cls-3{fill:none;stroke-width:7px;}.cls-1{stroke:#7f3f98;}.cls-1,.cls-3,.cls-4{stroke-miterlimit:10;}.cls-2,.cls-4{fill:#45328d;}.cls-3,.cls-4{stroke:#45328d;}</style></defs><path class="cls-1" d="M16.45,83.79" transform="translate(-3.69 -6.87)"/><polygon class="cls-2" points="6.47 53.87 0 43.69 14.74 45.96 6.47 53.87"/><path class="cls-1" d="M13.58,77.47" transform="translate(-3.69 -6.87)"/><path class="cls-3" d="M13.12,76.49c-.49-1.31-.93-2.65-1.31-4" transform="translate(-3.69 -6.87)"/><path class="cls-3" d="M11,69.11a33.88,33.88,0,0,1-.7-4.4" transform="translate(-3.69 -6.87)"/><path class="cls-3" d="M16.22,83.47c-1.37-2.84-1.57-3.15-1.85-3.78" transform="translate(-3.69 -6.87)"/><path class="cls-3" d="M11.41,52.47a50,50,0,1,1,6.66,33.89" transform="translate(-3.69 -6.87)"/><path class="cls-4" d="M149.46,51.86v8.81h30.06v5.76H149.46V93.16H142.8V51.77q0-10.35,6.48-16.25t18.27-5.89q11.43,0,18.36,4.95l-2.43,5.49q-6.12-4.5-15.66-4.5-9.27,0-13.81,4.18T149.46,51.86Z" transform="translate(-3.69 -6.87)"/><path class="cls-4" d="M196.17,80V26.39h6.39V79.48q0,4.23,2,6.44t5.94,2.2a10.47,10.47,0,0,0,4.32-.81l.45,5.31a17.1,17.1,0,0,1-5.76,1q-6.39,0-9.85-3.6T196.17,80Z" transform="translate(-3.69 -6.87)"/><path class="cls-4" d="M266.64,93.16h-6.12V84.52a17.54,17.54,0,0,1-6.93,6.71,20.85,20.85,0,0,1-10.08,2.38q-9.27,0-14.62-5.17t-5.36-15.17V45.83h6.39V72.64q0,7.47,3.69,11.34t10.53,3.87q7.47,0,11.79-4.54t4.32-12.65V45.83h6.39Z" transform="translate(-3.69 -6.87)"/><path class="cls-4" d="M303.27,93.16H296.7l-21-47.33h6.66l17.73,40.31L318,45.83h6.3Z" transform="translate(-3.69 -6.87)"/><path class="cls-4" d="M331.89,30.89a4.32,4.32,0,0,1,1.35-3.15,4.52,4.52,0,0,1,3.33-1.35,4.6,4.6,0,0,1,3.33,1.3,4.18,4.18,0,0,1,1.35,3.11,4.71,4.71,0,0,1-8,3.33A4.42,4.42,0,0,1,331.89,30.89Zm7.83,14.94V93.16h-6.39V45.83Z" transform="translate(-3.69 -6.87)"/><path class="cls-4" d="M355.92,81.91a24.5,24.5,0,0,1-3.15-12.42,24.44,24.44,0,0,1,3.15-12.41,22.32,22.32,0,0,1,8.64-8.55,26.37,26.37,0,0,1,24.66,0,22,22,0,0,1,8.59,8.55,24.72,24.72,0,0,1,3.11,12.41,24.79,24.79,0,0,1-3.11,12.42,22.32,22.32,0,0,1-8.59,8.6,26.07,26.07,0,0,1-24.66,0A22.66,22.66,0,0,1,355.92,81.91Zm36.27-2.79a20.19,20.19,0,0,0,2.25-9.63,20.19,20.19,0,0,0-2.25-9.63,16,16,0,0,0-6.26-6.52,19,19,0,0,0-18.09,0,16.29,16.29,0,0,0-6.3,6.52,19.86,19.86,0,0,0-2.29,9.63,19.86,19.86,0,0,0,2.29,9.63,16.31,16.31,0,0,0,6.3,6.53,19,19,0,0,0,18.09,0A16,16,0,0,0,392.19,79.12Z" transform="translate(-3.69 -6.87)"/><path class="cls-3" d="M65.8,37.09c-15,20.51,16.33,21.06-7,52" transform="translate(-3.69 -6.87)"/><path class="cls-3" d="M50.75,27C26.59,59.63,69,60,38.16,85" transform="translate(-3.69 -6.87)"/><path class="cls-3" d="M86.24,50.41c-6.7,7.26,8.22,25.76-25.93,37.52" transform="translate(-3.69 -6.87)"/></svg>