<svg id="Boxes" xmlns="http://www.w3.org/2000/svg" xmlns:xlink="http://www.w3.org/1999/xlink" viewBox="0 0 376.08 177.52"><defs><style>.cls-1,.cls-66,.cls-67,.cls-68,.cls-79,.cls-80,.cls-91,.cls-92,.cls-93{fill:none;}.cls-2{isolation:isolate;}.cls-3{clip-path:url(#clip-path);}.cls-4{fill:#260e57;}.cls-5{fill:#281059;}.cls-6{fill:#29125b;}.cls-7{fill:#2b145e;}.cls-8{fill:#2c1660;}.cls-9{fill:#2e1863;}.cls-10{fill:#2f1a65;}.cls-11{fill:#301b67;}.cls-12{fill:#321d69;}.cls-13{fill:#331e6c;}.cls-14{fill:#34206e;}.cls-15{fill:#362170;}.cls-16{fill:#372373;}.cls-17{fill:#382475;}.cls-18{fill:#392577;}.cls-19{fill:#3b2779;}.cls-20{fill:#3c287b;}.cls-21{fill:#3d297d;}.cls-22{fill:#2a135c;}.cls-23{clip-path:url(#clip-path-2);}.cls-24{clip-path:url(#clip-path-3);}.cls-25{clip-path:url(#clip-path-4);}.cls-26{fill:#718589;}.cls-27{fill:#74888c;}.cls-28{fill:#778c8f;}.cls-29{fill:#7a8f93;}.cls-30{fill:#7d9296;}.cls-31{fill:#809599;}.cls-32{fill:#83999d;}.cls-33{fill:#869ca0;}.cls-34{fill:#899fa3;}.cls-35{fill:#8ca3a6;}.cls-36{fill:#8fa6aa;}.cls-37{fill:#91a9ad;}.cls-38{fill:#94acb0;}.cls-39{fill:#97afb3;}.cls-40{clip-path:url(#clip-path-5);}.cls-41{fill:#3e2a7f;}.cls-42{clip-path:url(#clip-path-6);}.cls-43{clip-path:url(#clip-path-7);}.cls-44{fill:#697b7f;}.cls-45{clip-path:url(#clip-path-8);}.cls-46{fill:#6f8286;}.cls-47{fill:#9bb4b8;}.cls-48{clip-path:url(#clip-path-9);}.cls-49{fill:#fff;}.cls-50{clip-path:url(#clip-path-10);}.cls-51{fill:#9ab2b6;}.cls-52{fill:#6e8285;}.cls-53{fill:#6c7e82;}.cls-54{fill:#341f6e;}.cls-55{fill:#859b9f;}.cls-56{clip-path:url(#clip-path-11);}.cls-57{fill:#735f97;}.cls-58{fill:#574673;}.cls-59{fill:#250c55;}.cls-60{clip-path:url(#clip-path-12);}.cls-61{fill:#3f2c82;}.cls-62{fill:#4a3a63;}.cls-63{fill:#6e5a90;}.cls-64{fill:#5e4d7c;}.cls-65{fill:#584674;}.cls-66,.cls-67,.cls-68,.cls-79,.cls-80,.cls-92,.cls-93{stroke:#939598;stroke-miterlimit:10;stroke-width:0.25px;}.cls-67{stroke-dasharray:2.05 1.02;}.cls-68{stroke-dasharray:2.04 1.02;}.cls-69{fill:#cdd2d2;}.cls-70{fill:#a3a8a9;}.cls-71{fill:#919191;}.cls-72{fill:#a8a8a8;}.cls-73{fill:#94989a;}.cls-74{fill:#888;}.cls-75{clip-path:url(#clip-path-13);}.cls-76{fill:#45328d;}.cls-77{clip-path:url(#clip-path-14);}.cls-78{fill:#5f4d7d;}.cls-79{stroke-dasharray:1.93 0.97;}.cls-80{stroke-dasharray:1.92 0.96;}.cls-81{fill:#cdd1d2;}.cls-82{fill:#a4a8aa;}.cls-83{fill:#9a9a9a;}.cls-84{fill:#8c8c8c;}.cls-85{fill:#bbb;}.cls-86{clip-path:url(#clip-path-15);}.cls-87{fill:#735e96;}.cls-88{fill:#574573;}.cls-89{fill:#493962;}.cls-90{clip-path:url(#clip-path-16);}.cls-91{stroke:#d83f88;stroke-linecap:round;stroke-linejoin:round;stroke-width:1.5px;stroke-dasharray:1 5;}.cls-92{stroke-dasharray:1.97 0.99;}.cls-93{stroke-dasharray:1.95 0.98;}.cls-94{clip-path:url(#clip-path-17);}.cls-95{fill:#d0d4d4;}.cls-96{clip-path:url(#clip-path-18);}.cls-97{clip-path:url(#clip-path-19);}</style><clipPath id="clip-path"><path class="cls-1" d="M279.42,46.14l-.34,19.16c-11.31-4-28.48-5.5-38.54-3.36l.33-19.16C250.93,40.64,268.11,42.12,279.42,46.14Z"/></clipPath><clipPath id="clip-path-2"><path class="cls-1" d="M369.15,81.1l-.34,19.16c-.48-2.17-3.81-4.46-9.38-6.44l.34-19.16C365.34,76.64,368.66,78.93,369.15,81.1Z"/></clipPath><clipPath id="clip-path-3"><path class="cls-1" d="M369.21,81.68l-.34,19.16a1.94,1.94,0,0,0-.06-.58l.34-19.16A2.93,2.93,0,0,1,369.21,81.68Z"/></clipPath><clipPath id="clip-path-4"><path class="cls-1" d="M369.21,81.68l-.34,19.16c0,1.9-2.41,3.46-6.8,4.45l.34-19.16C366.8,85.14,369.18,83.58,369.21,81.68Z"/></clipPath><clipPath id="clip-path-5"><path class="cls-1" d="M370.21,81.7l-.34,19.16c0,2-2.53,3.62-7.15,4.66l.34-19.16C367.67,85.32,370.17,83.68,370.21,81.7Z"/></clipPath><clipPath id="clip-path-6"><path class="cls-1" d="M13.79,116.05l.33-19.16c0-1.83,2.27-3.44,6.79-4.46l-.33,19.16C16.05,112.61,13.82,114.22,13.79,116.05Z"/></clipPath><clipPath id="clip-path-7"><path class="cls-1" d="M13.79,116.05l.33-19.16c0,2.23,3.16,4.78,9.44,7l-.33,19.16C17,120.83,13.75,118.28,13.79,116.05Z"/></clipPath><clipPath id="clip-path-8"><path class="cls-1" d="M12.8,116l.34-19.16c0,2.29,3.22,4.91,9.65,7.19l-.33,19.16C16,121,12.76,118.33,12.8,116Z"/></clipPath><clipPath id="clip-path-9"><polygon class="cls-1" points="363.06 86.36 362.72 105.52 143.14 155.09 143.47 135.93 363.06 86.36"/></clipPath><clipPath id="clip-path-10"><path class="cls-1" d="M142.83,135.71l-.34,19.16a66.77,66.77,0,0,1-18.84.73,82.36,82.36,0,0,1-20.08-4l.34-19.16a82.28,82.28,0,0,0,20.07,4A66.82,66.82,0,0,0,142.83,135.71Z"/></clipPath><clipPath id="clip-path-11"><path class="cls-1" d="M143.47,135.93l-.33,19.16a69.81,69.81,0,0,1-19.72.79,85,85,0,0,1-20.61-4.13l.33-19.16a85.16,85.16,0,0,0,20.62,4.13A69.76,69.76,0,0,0,143.47,135.93Z"/></clipPath><clipPath id="clip-path-12"><polygon class="cls-1" points="348.8 49.84 349.33 77.41 269.12 52.89 268.58 25.32 348.8 49.84"/></clipPath><clipPath id="clip-path-13"><polygon class="cls-1" points="188.59 42.85 212.68 38.19 212.59 62.59 188.5 67.25 188.59 42.85"/></clipPath><clipPath id="clip-path-14"><polygon class="cls-1" points="153.17 50.09 177.27 45.42 177.18 69.81 153.09 74.48 153.17 50.09"/></clipPath><clipPath id="clip-path-15"><polygon class="cls-1" points="117.73 79.9 141.96 75.41 141.66 99.78 117.44 104.27 117.73 79.9"/></clipPath><clipPath id="clip-path-16"><polygon class="cls-1" points="108.15 96.9 108.9 131.23 33.13 103.79 32.38 69.47 108.15 96.9"/></clipPath><clipPath id="clip-path-17"><polygon class="cls-1" points="246.22 52.48 269.58 47.95 269.48 72.23 246.12 76.75 246.22 52.48"/></clipPath><clipPath id="clip-path-18"><polygon class="cls-1" points="186.72 112.61 300.41 88.59 299.72 97.19 186.03 121.22 186.72 112.61"/></clipPath><clipPath id="clip-path-19"><polygon class="cls-1" points="188.03 86.41 212.12 81.75 212.03 106.14 187.94 110.81 188.03 86.41"/></clipPath></defs><g id="base"><g class="cls-2"><g class="cls-2"><g class="cls-3"><g class="cls-2"><path class="cls-4" d="M279.42,46.14l-.34,19.16-.85-.29.34-19.16.85.29"/><path class="cls-5" d="M278.57,45.85,278.23,65q-1.56-.53-3.24-1l.34-19.16q1.68.47,3.24,1"/><path class="cls-6" d="M275.33,44.86,275,64c-.88-.24-1.77-.46-2.69-.68l.34-19.16c.91.22,1.81.44,2.69.68"/><path class="cls-7" d="M272.64,44.18l-.34,19.16c-.79-.18-1.6-.36-2.41-.52l.33-19.16c.82.16,1.63.34,2.42.52"/><path class="cls-8" d="M270.22,43.66l-.33,19.16q-1.09-.23-2.22-.42L268,43.24c.74.13,1.48.27,2.21.42"/><path class="cls-9" d="M268,43.24l-.34,19.16-2.06-.34L266,42.9l2.06.34"/><path class="cls-10" d="M266,42.9l-.34,19.16-1.95-.28L264,42.62l1.95.28"/><path class="cls-11" d="M264,42.62l-.34,19.16-1.85-.22.33-19.16,1.86.22"/><path class="cls-12" d="M262.14,42.4l-.33,19.16L260,61.37l.34-19.16,1.77.19"/><path class="cls-13" d="M260.37,42.21,260,61.37l-1.7-.14.33-19.16,1.71.14"/><path class="cls-14" d="M258.66,42.07l-.33,19.16-1.64-.11L257,42c.54,0,1.09.06,1.63.11"/><path class="cls-15" d="M257,42l-.34,19.16c-.53,0-1.05-.06-1.57-.08l.33-19.16c.53,0,1.05,0,1.58.08"/><path class="cls-16" d="M255.45,41.88,255.12,61l-1.5,0L254,41.83c.49,0,1,0,1.49.05"/><path class="cls-17" d="M254,41.83,253.62,61l-1.46,0,.33-19.16,1.47,0"/><path class="cls-18" d="M252.49,41.8,252.16,61h-1.48L251,41.8h1.47"/><path class="cls-19" d="M251,41.8,250.68,61l-1.56,0,.34-19.16,1.56,0"/><path class="cls-20" d="M249.46,41.84,249.12,61c-.74,0-1.46.06-2.18.1l.34-19.16c.71,0,1.44-.08,2.18-.1"/><path class="cls-21" d="M247.28,41.94l-.34,19.16c-1.67.11-3.27.28-4.74.52l.34-19.16c1.47-.24,3.06-.41,4.74-.52"/><path class="cls-20" d="M242.54,42.46l-.34,19.16c-.57.1-1.13.2-1.66.32l.33-19.16c.54-.12,1.1-.22,1.67-.32"/></g></g></g><polygon class="cls-22" points="359.77 74.66 359.43 93.82 279.08 65.3 279.42 46.14 359.77 74.66"/><g class="cls-2"><g class="cls-23"><g class="cls-2"><path class="cls-4" d="M369.15,81.1l-.34,19.16c-.48-2.17-3.81-4.46-9.38-6.44l.34-19.16c5.57,2,8.89,4.27,9.38,6.44"/></g></g></g><g class="cls-2"><g class="cls-24"><g class="cls-2"><path class="cls-4" d="M369.21,81.68l-.34,19.16a1.94,1.94,0,0,0-.06-.58l.34-19.16a2.93,2.93,0,0,1,.06.58"/></g></g></g><g class="cls-2"><g class="cls-25"><g class="cls-2"><path class="cls-26" d="M369.21,81.68l-.34,19.16V101l.33-19.17a.57.57,0,0,0,0-.13"/><path class="cls-27" d="M369.2,81.81,368.87,101a3.06,3.06,0,0,1-.1.51l.33-19.16a1.84,1.84,0,0,0,.1-.52"/><path class="cls-28" d="M369.1,82.33l-.33,19.16a2.78,2.78,0,0,1-.19.44l.33-19.16a2.09,2.09,0,0,0,.19-.44"/><path class="cls-29" d="M368.91,82.77l-.33,19.16a3.42,3.42,0,0,1-.26.4l.33-19.16a2.48,2.48,0,0,0,.26-.4"/><path class="cls-30" d="M368.65,83.17l-.33,19.16a3.8,3.8,0,0,1-.33.37l.34-19.16a3.52,3.52,0,0,0,.32-.37"/><path class="cls-31" d="M368.33,83.54,368,102.7l-.37.34L368,83.88a4.33,4.33,0,0,0,.38-.34"/><path class="cls-32" d="M368,83.88,367.62,103l-.44.32.34-19.16c.15-.11.3-.21.43-.32"/><path class="cls-33" d="M367.52,84.2l-.34,19.16c-.16.1-.32.21-.5.31L367,84.51l.5-.31"/><path class="cls-34" d="M367,84.51l-.34,19.16-.57.3.34-19.17c.2-.09.39-.19.57-.29"/><path class="cls-35" d="M366.45,84.8,366.11,104c-.21.1-.43.2-.66.29l.34-19.16a6.62,6.62,0,0,0,.66-.3"/><path class="cls-36" d="M365.79,85.1l-.34,19.16a8.11,8.11,0,0,1-.79.3L365,85.4a8.11,8.11,0,0,0,.79-.3"/><path class="cls-37" d="M365,85.4l-.34,19.16c-.31.11-.65.22-1,.32L364,85.72c.35-.1.68-.21,1-.32"/><path class="cls-38" d="M364,85.72l-.34,19.16c-.43.13-.88.25-1.36.36l.33-19.16c.48-.11.94-.23,1.37-.36"/><path class="cls-39" d="M362.63,86.08l-.33,19.16-.23.05.34-19.16.22,0"/></g></g></g><g class="cls-2"><g class="cls-40"><g class="cls-2"><path class="cls-7" d="M370.21,81.7l-.34,19.16a.71.71,0,0,1,0,.14l.34-19.16s0-.1,0-.14"/><path class="cls-8" d="M370.2,81.84,369.86,101a2.36,2.36,0,0,1-.1.53l.34-19.16a2.36,2.36,0,0,0,.1-.53"/><path class="cls-9" d="M370.1,82.37l-.34,19.16a2.67,2.67,0,0,1-.2.46l.34-19.16a2.67,2.67,0,0,0,.2-.46"/><path class="cls-10" d="M369.9,82.83,369.56,102a4.94,4.94,0,0,1-.27.42l.33-19.16a3.41,3.41,0,0,0,.28-.42"/><path class="cls-11" d="M369.62,83.25l-.33,19.16a3,3,0,0,1-.34.38l.34-19.16a2.9,2.9,0,0,0,.33-.38"/><path class="cls-12" d="M369.29,83.63,369,102.79l-.39.36L368.89,84a4.81,4.81,0,0,0,.4-.36"/><path class="cls-13" d="M368.89,84l-.33,19.16-.46.33.34-19.16.45-.33"/><path class="cls-14" d="M368.44,84.32l-.34,19.16-.52.33.34-19.16.52-.33"/><path class="cls-15" d="M367.92,84.65l-.34,19.16-.6.31L367.32,85l.6-.31"/><path class="cls-16" d="M367.32,85,367,104.12c-.22.11-.45.21-.7.31l.34-19.16c.24-.1.48-.2.7-.31"/><path class="cls-17" d="M366.62,85.27l-.34,19.16c-.26.11-.54.22-.83.32l.34-19.16c.29-.1.57-.21.83-.32"/><path class="cls-18" d="M365.79,85.59l-.34,19.16c-.33.12-.68.23-1.05.34l.34-19.16c.37-.11.72-.22,1.05-.34"/><path class="cls-19" d="M364.74,85.93l-.34,19.16c-.46.13-.94.26-1.45.38l.34-19.16c.51-.12,1-.25,1.45-.38"/><path class="cls-20" d="M363.29,86.31,363,105.47l-.23,0,.34-19.16.23,0"/></g></g></g><polygon class="cls-41" points="240.87 42.77 240.54 61.94 20.58 111.59 20.91 92.43 240.87 42.77"/><g class="cls-2"><g class="cls-42"><g class="cls-2"><path class="cls-20" d="M20.91,92.43l-.33,19.16-.2,0,.33-19.16.2,0"/><path class="cls-19" d="M20.71,92.47l-.33,19.16L19,112l.34-19.16c.43-.13.88-.24,1.36-.36"/><path class="cls-18" d="M19.35,92.83,19,112c-.35.1-.68.21-1,.32l.34-19.16c.31-.11.64-.22,1-.32"/><path class="cls-17" d="M18.36,93.15,18,112.31q-.4.14-.78.3l.34-19.16a7.05,7.05,0,0,1,.78-.3"/><path class="cls-16" d="M17.58,93.45l-.34,19.16a5.89,5.89,0,0,0-.67.3l.34-19.16a5.89,5.89,0,0,1,.67-.3"/><path class="cls-15" d="M16.91,93.75l-.34,19.16-.58.3.34-19.16.58-.3"/><path class="cls-14" d="M16.33,94.05,16,113.21c-.17.1-.34.2-.5.31l.34-19.16c.16-.11.32-.21.5-.31"/><path class="cls-13" d="M15.83,94.36l-.34,19.16-.44.32.34-19.16a5,5,0,0,1,.44-.32"/><path class="cls-12" d="M15.39,94.68l-.34,19.16-.38.35L15,95l.38-.35"/><path class="cls-11" d="M15,95l-.34,19.16a2.73,2.73,0,0,0-.32.37l.33-19.16A3.8,3.8,0,0,1,15,95"/><path class="cls-10" d="M14.68,95.4l-.33,19.16a3.12,3.12,0,0,0-.27.4l.34-19.16a3,3,0,0,1,.26-.4"/><path class="cls-9" d="M14.42,95.8,14.08,115a2.88,2.88,0,0,0-.19.45l.34-19.16a2.88,2.88,0,0,1,.19-.45"/><path class="cls-8" d="M14.23,96.25l-.34,19.16a3.06,3.06,0,0,0-.1.51l.34-19.16a2.3,2.3,0,0,1,.1-.51"/><path class="cls-7" d="M14.13,96.76l-.34,19.16v.13l.33-19.16a.53.53,0,0,0,0-.13"/></g></g></g><g class="cls-2"><g class="cls-43"><g class="cls-2"><path class="cls-44" d="M23.56,103.9l-.33,19.16c-6.28-2.23-9.48-4.78-9.44-7l.33-19.16c0,2.23,3.16,4.78,9.44,7"/></g></g></g><g class="cls-2"><g class="cls-45"><g class="cls-2"><path class="cls-4" d="M22.79,104.07l-.33,19.16C16,121,12.76,118.33,12.8,116l.34-19.16c0,2.29,3.22,4.91,9.65,7.19"/></g></g></g><polygon class="cls-46" points="103.91 132.42 103.57 151.58 23.23 123.06 23.56 103.9 103.91 132.42"/><polygon class="cls-22" points="103.14 132.59 102.81 151.75 22.46 123.23 22.79 104.07 103.14 132.59"/><polygon class="cls-47" points="362.41 86.13 362.07 105.29 142.49 154.87 142.83 135.71 362.41 86.13"/><polygon class="cls-41" points="363.06 86.36 362.72 105.52 143.14 155.09 143.47 135.93 363.06 86.36"/><g class="cls-2"><g class="cls-48"><path class="cls-49" d="M213,124.11a4.26,4.26,0,0,0-2.46,1.49,4.43,4.43,0,0,0-.91,2.75l-.11,6.49.89-.2.07-4.19,4-.92v-.9l-4,.92,0-1.39a3.31,3.31,0,0,1,.64-2A3.15,3.15,0,0,1,213,125a2.66,2.66,0,0,1,2.09.23l.34-.93a3.21,3.21,0,0,0-2.45-.23"/><path class="cls-49" d="M217.7,122.55l-.86.19-.14,8.41a1.93,1.93,0,0,0,.45,1.46,1.31,1.31,0,0,0,1.31.27,2.46,2.46,0,0,0,.77-.33l0-.83a1.34,1.34,0,0,1-.58.26.8.8,0,0,1-.79-.15,1.47,1.47,0,0,1-.25-1l.14-8.32"/><path class="cls-49" d="M226.24,123.64l-.85.19-.06,3.9a3.76,3.76,0,0,1-.62,2.11,2.52,2.52,0,0,1-1.59,1.07,1.39,1.39,0,0,1-1.4-.28,2.26,2.26,0,0,1-.47-1.67l.07-4.2-.86.19-.07,4.3a2.87,2.87,0,0,0,.68,2.22,2.05,2.05,0,0,0,2,.37,3.14,3.14,0,0,0,1.36-.69,3.56,3.56,0,0,0,1-1.26l0,1.36.82-.19.12-7.42"/><polyline class="cls-49" points="233.98 121.88 233.14 122.07 230.63 128.94 228.36 123.16 227.46 123.36 230.16 130.14 231.04 129.94 233.98 121.88"/><path class="cls-49" d="M236.05,121.4l-.86.2-.13,7.42.86-.19.13-7.43m-.38-3a.79.79,0,0,0-.45.3,1,1,0,0,0-.19.54.61.61,0,0,0,.18.47.43.43,0,0,0,.44.11.76.76,0,0,0,.45-.31,1,1,0,0,0,.19-.56.57.57,0,0,0-.17-.45.47.47,0,0,0-.45-.1"/><path class="cls-49" d="M240.93,126.88a2,2,0,0,1-1.21-.09,1.67,1.67,0,0,1-.83-.83,3.05,3.05,0,0,1-.29-1.45,4.28,4.28,0,0,1,.33-1.57,3.65,3.65,0,0,1,.87-1.22,2.82,2.82,0,0,1,1.22-.64,1.89,1.89,0,0,1,1.21.09,1.68,1.68,0,0,1,.81.83,3,3,0,0,1,.29,1.44A4.33,4.33,0,0,1,243,125a3.51,3.51,0,0,1-.85,1.22,3.06,3.06,0,0,1-1.22.64m.11-6.68a3.82,3.82,0,0,0-1.67.86,4.8,4.8,0,0,0-1.18,1.61,5,5,0,0,0-.46,2,3.75,3.75,0,0,0,.4,1.85,2.4,2.4,0,0,0,1.13,1.1,2.69,2.69,0,0,0,1.65.11,3.86,3.86,0,0,0,1.66-.87,4.84,4.84,0,0,0,1.18-1.62,5.15,5.15,0,0,0,.45-2,3.92,3.92,0,0,0-.39-1.85,2.32,2.32,0,0,0-1.13-1.08,2.66,2.66,0,0,0-1.64-.11"/><polyline class="cls-49" points="251.26 121.07 248.28 121.75 248.27 122.67 251.24 121.99 251.26 121.07"/><path class="cls-49" d="M256.91,123.22a4.7,4.7,0,0,1-1,.15l.11-6.88a5.5,5.5,0,0,1,1.13-.37c2-.47,3,.62,3,2.67,0,2.36-1.19,4-3.24,4.43m.24-8a13.08,13.08,0,0,0-2,.64l-.14,8.58a12.27,12.27,0,0,0,1.74-.29,5.57,5.57,0,0,0,3.33-2,6.25,6.25,0,0,0,1.12-3.65,3.52,3.52,0,0,0-1-2.88,3.24,3.24,0,0,0-3-.4"/><path class="cls-49" d="M263.63,118.91l.78-2.7c.15-.56.28-1.12.41-1.66h0a13.63,13.63,0,0,0,.37,1.5l.68,2.36-2.25.51m1.82-5.5-1.16.26L261.61,123l1-.23.81-2.92,2.64-.6.76,2.56,1-.23-2.4-8.15"/><polyline class="cls-49" points="272.91 111.71 267.38 112.97 267.37 113.92 269.63 113.41 269.51 121.18 270.48 120.95 270.61 113.18 272.89 112.66 272.91 111.71"/><path class="cls-49" d="M274.23,116.49l.77-2.69c.16-.57.28-1.12.4-1.67h0c.1.48.2,1,.35,1.5l.69,2.35-2.24.51M276,111l-1.17.26-2.68,9.31,1-.23.82-2.92,2.65-.6.75,2.56,1-.24L276,111"/><polyline class="cls-49" points="287.57 108.37 286.6 108.59 286.54 112.25 282.93 113.07 282.98 109.42 282.02 109.63 281.88 118.36 282.84 118.14 282.91 114.05 286.52 113.23 286.45 117.32 287.42 117.1 287.57 108.37"/><path class="cls-49" d="M294.73,106.74l-1,.22-.08,5.17c0,1.93-.76,2.94-1.86,3.19s-1.73-.43-1.69-2.38l.08-5.17-1,.22-.08,5.14c-.05,2.71,1.1,3.46,2.62,3.12s2.84-1.75,2.88-4.43l.09-5.08"/><path class="cls-49" d="M298,113.88a4.09,4.09,0,0,1-.81.13l.06-3.33.79-.18c1.05-.24,1.92,0,1.91,1.25a2.23,2.23,0,0,1-1.95,2.13m-.74-4.06.05-2.8a3.65,3.65,0,0,1,.85-.27c1-.22,1.63,0,1.62,1a2,2,0,0,1-1.65,1.83l-.87.19m.86-3.93a9.12,9.12,0,0,0-1.77.59l-.14,8.57a9.43,9.43,0,0,0,1.49-.23,4.33,4.33,0,0,0,2.6-1.4,3.2,3.2,0,0,0,.66-1.9,1.61,1.61,0,0,0-1.5-1.83v0a2.76,2.76,0,0,0,1.29-2.2,1.53,1.53,0,0,0-.59-1.4,2.42,2.42,0,0,0-2-.17"/></g></g><g class="cls-2"><g class="cls-50"><g class="cls-2"><path class="cls-39" d="M142.83,135.71l-.34,19.16q-.93.19-1.92.36l.34-19.17c.66-.1,1.3-.22,1.92-.35"/><path class="cls-51" d="M140.91,136.06l-.34,19.17c-1.6.26-3.31.44-5.11.56l.34-19.16c1.8-.12,3.51-.3,5.11-.57"/><path class="cls-39" d="M135.8,136.63l-.34,19.16-2.07.1.33-19.16,2.08-.1"/><path class="cls-38" d="M133.72,136.73l-.33,19.16-1.56,0,.34-19.16,1.55,0"/><path class="cls-37" d="M132.17,136.76l-.34,19.16c-.47,0-.94,0-1.42,0l.34-19.16c.48,0,.95,0,1.42,0"/><path class="cls-36" d="M130.75,136.76l-.34,19.16-1.41,0,.33-19.16,1.42,0"/><path class="cls-35" d="M129.33,136.74,129,155.9l-1.47-.05.33-19.16,1.47.05"/><path class="cls-34" d="M127.86,136.69l-.33,19.16-1.55-.08.34-19.16,1.54.08"/><path class="cls-33" d="M126.32,136.61,126,155.77l-1.64-.11.34-19.16,1.64.11"/><path class="cls-32" d="M124.68,136.5l-.34,19.16-.69-.06c-.35,0-.69-.06-1-.09l.33-19.16,1,.09.7.06"/><path class="cls-31" d="M123,136.35l-.33,19.16c-.61,0-1.21-.12-1.8-.18l.33-19.16c.6.06,1.2.13,1.8.18"/><path class="cls-30" d="M121.15,136.17l-.33,19.16L119,155.1l.34-19.16,1.85.23"/><path class="cls-29" d="M119.3,135.94,119,155.1l-1.94-.28.34-19.16,1.94.28"/><path class="cls-28" d="M117.36,135.66,117,154.82q-1-.15-2-.33l.34-19.16q1,.18,2,.33"/><path class="cls-27" d="M115.32,135.33,115,154.49l-2.19-.41.34-19.17q1.08.22,2.19.42"/><path class="cls-26" d="M113.13,134.91l-.34,19.17-2.39-.52.34-19.16c.78.18,1.58.35,2.39.51"/><path class="cls-52" d="M110.74,134.4l-.34,19.16c-.91-.22-1.81-.45-2.68-.68l.34-19.16c.87.23,1.76.46,2.68.68"/><path class="cls-53" d="M108.06,133.72l-.34,19.16c-1.12-.31-2.21-.64-3.24-1l.34-19.16q1.55.53,3.24,1"/><path class="cls-44" d="M104.82,132.73l-.34,19.16-.91-.31.34-19.16.91.31"/></g></g></g><path class="cls-54" d="M360.54,74.49c5.7,2,9.11,4.37,9.6,6.61s-2,4.12-7.08,5.26L143.47,135.93a69.76,69.76,0,0,1-19.71.79,85.16,85.16,0,0,1-20.62-4.13L22.79,104.07C11,99.88,9.85,94.55,20.27,92.2L239.85,42.63c10.88-2.32,28.66-.81,40.33,3.34Zm8.61,6.61c-.49-2.17-3.81-4.46-9.38-6.44L279.42,46.14c-11.31-4-28.49-5.5-38.55-3.36l-220,49.65c-10,2.26-8.81,7.4,2.65,11.47l80.35,28.52a82.28,82.28,0,0,0,20.07,4,66.6,66.6,0,0,0,18.46-.65l220-49.66c4.83-1.09,7.22-2.87,6.74-5"/><path class="cls-55" d="M240.5,42.86c10.43-2.22,27.61-.74,38.92,3.28l80.35,28.52c5.57,2,8.9,4.27,9.38,6.44s-1.91,3.94-6.74,5L142.83,135.71a66.82,66.82,0,0,1-18.85.73,82.28,82.28,0,0,1-20.07-4L23.56,103.9c-11.46-4.07-12.65-9.21-2.65-11.47Z"/><g class="cls-2"><g class="cls-56"><g class="cls-2"><path class="cls-20" d="M143.47,135.93l-.33,19.16c-.66.14-1.33.27-2,.38l.34-19.16c.69-.11,1.36-.24,2-.38"/><path class="cls-21" d="M141.46,136.31l-.34,19.16a54.12,54.12,0,0,1-5.39.6l.33-19.16q2.85-.18,5.4-.6"/><path class="cls-20" d="M136.06,136.91l-.33,19.16c-.72,0-1.45.08-2.19.1l.34-19.16c.74,0,1.47-.06,2.18-.1"/><path class="cls-19" d="M133.88,137l-.34,19.16-1.63,0,.34-19.17c.55,0,1.09,0,1.63,0"/><path class="cls-18" d="M132.25,137l-.34,19.17h-1.48l.33-19.16h1.49"/><path class="cls-17" d="M130.76,137.05l-.33,19.16-1.48,0,.34-19.16,1.47,0"/><path class="cls-16" d="M129.29,137,129,156.18l-1.53-.05.34-19.16,1.53.05"/><path class="cls-15" d="M127.76,137l-.34,19.16-1.6-.08.34-19.16,1.6.08"/><path class="cls-14" d="M126.16,136.89l-.34,19.16-1.69-.11.34-19.16,1.69.11"/><path class="cls-13" d="M124.47,136.78l-.34,19.16-.71-.06-1.06-.1.34-19.16,1.06.1.71.06"/><path class="cls-12" d="M122.7,136.62l-.34,19.16c-.62-.05-1.24-.12-1.86-.19l.34-19.16c.62.07,1.24.14,1.86.19"/><path class="cls-11" d="M120.84,136.43l-.34,19.16-1.91-.23.34-19.16,1.91.23"/><path class="cls-10" d="M118.93,136.2l-.34,19.16-2-.28.34-19.17c.66.11,1.32.2,2,.29"/><path class="cls-9" d="M116.94,135.91l-.34,19.17-2.1-.35.34-19.16c.69.12,1.39.24,2.1.34"/><path class="cls-8" d="M114.84,135.57l-.34,19.16q-1.14-.19-2.25-.42l.34-19.16q1.11.22,2.25.42"/><path class="cls-7" d="M112.59,135.15l-.34,19.16c-.83-.17-1.65-.35-2.45-.54l.34-19.16c.8.19,1.62.37,2.45.54"/><path class="cls-6" d="M110.14,134.61l-.34,19.16q-1.41-.33-2.76-.69l.34-19.17c.9.25,1.81.48,2.76.7"/><path class="cls-5" d="M107.38,133.91,107,153.08c-1.15-.32-2.26-.66-3.31-1l.33-19.16c1.06.35,2.17.69,3.32,1"/><path class="cls-4" d="M104.06,132.91l-.33,19.16-.92-.32.33-19.16.92.32"/></g></g></g></g></g><g id="send"><g class="cls-2"><polygon class="cls-57" points="268.58 25.32 273.12 24.91 273.65 52.48 269.12 52.89 268.58 25.32"/><polygon class="cls-58" points="269.12 52.89 273.65 52.48 353.87 77.01 349.33 77.41 269.12 52.89"/><polygon class="cls-9" points="268.58 25.32 273.12 24.91 353.33 49.44 348.8 49.84 268.58 25.32"/><polygon class="cls-59" points="348.8 49.84 349.33 77.41 269.12 52.89 268.58 25.32 348.8 49.84"/><g class="cls-2"><g class="cls-60"><path class="cls-49" d="M298.16,43.45a1.25,1.25,0,0,0-1.37.25,2.23,2.23,0,0,0-.46,1.58,3.53,3.53,0,0,0,.28,1.41,2.41,2.41,0,0,0,.61.87,8.19,8.19,0,0,0,.93.67,6.45,6.45,0,0,1,.7.47,2,2,0,0,1,.44.54,1.55,1.55,0,0,1,.18.78,1.16,1.16,0,0,1-.29.92,1,1,0,0,1-.95.07,2.54,2.54,0,0,1-.94-.55,4.09,4.09,0,0,1-.76-.91l-.27.81a3.7,3.7,0,0,0,.84,1,3.11,3.11,0,0,0,1.11.63,1.35,1.35,0,0,0,1.42-.21,2.11,2.11,0,0,0,.48-1.6,3.35,3.35,0,0,0-.27-1.36,2.56,2.56,0,0,0-.59-.83,7.72,7.72,0,0,0-.92-.66,8,8,0,0,1-.73-.5,1.8,1.8,0,0,1-.44-.56,1.88,1.88,0,0,1-.19-.83,1.19,1.19,0,0,1,.29-.91.91.91,0,0,1,.92-.1,2.62,2.62,0,0,1,1.4,1.15l.26-.83a3.37,3.37,0,0,0-.76-.8,2.89,2.89,0,0,0-.92-.5"/><path class="cls-49" d="M301.41,49c0-.08,0-.19,0-.36a5.4,5.4,0,0,1,.19-1.6,1.88,1.88,0,0,1,.59-1,.94.94,0,0,1,.88-.13,2,2,0,0,1,1.09,1,4.87,4.87,0,0,1,.58,1.91l-3.31.13m1.62-4a1.3,1.3,0,0,0-1.2.18,2.51,2.51,0,0,0-.8,1.27,6.68,6.68,0,0,0-.26,2.12,8.45,8.45,0,0,0,.36,2.3,5.59,5.59,0,0,0,.91,1.81,2.78,2.78,0,0,0,1.31.94,1.45,1.45,0,0,0,1,0,1.64,1.64,0,0,0,.76-.78l-.37-.85a1.4,1.4,0,0,1-.62.63,1.12,1.12,0,0,1-.81,0,2.09,2.09,0,0,1-1.14-.93,5,5,0,0,1-.69-1.8l3.87-.16a8,8,0,0,0-.37-2.19,5.55,5.55,0,0,0-.83-1.67,2.41,2.41,0,0,0-1.15-.86"/><path class="cls-49" d="M309,46.77a1.23,1.23,0,0,0-1.07.1,1.81,1.81,0,0,0-.7,1l0-1.56-.61-.18.16,8.42.64.2-.08-4.42a3.82,3.82,0,0,1,.4-2.1,1,1,0,0,1,1.19-.44,1.79,1.79,0,0,1,1.07,1,5.16,5.16,0,0,1,.4,2.12l.1,4.77.64.19L311,51a6.57,6.57,0,0,0-.58-2.85A2.46,2.46,0,0,0,309,46.77"/><path class="cls-49" d="M314.79,56.05a1.88,1.88,0,0,1-.92-.68,4.2,4.2,0,0,1-.65-1.36,6.65,6.65,0,0,1-.26-1.78,5,5,0,0,1,.2-1.64,1.87,1.87,0,0,1,.6-1,1,1,0,0,1,.9-.13,1.8,1.8,0,0,1,.9.69,4,4,0,0,1,.65,1.35,6.78,6.78,0,0,1,.27,1.79,5.33,5.33,0,0,1-.2,1.64,1.85,1.85,0,0,1-.61,1,1,1,0,0,1-.88.13M317,45.82l-.64-.19.09,5.06a4.34,4.34,0,0,0-.78-1.47,2.22,2.22,0,0,0-1-.75,1.33,1.33,0,0,0-1.2.17,2.33,2.33,0,0,0-.81,1.26,6.45,6.45,0,0,0-.27,2.13,9,9,0,0,0,.35,2.32,5.39,5.39,0,0,0,.88,1.78,2.38,2.38,0,0,0,1.21.91,1.22,1.22,0,0,0,1.06-.11,2.06,2.06,0,0,0,.73-1.07l0,1.66.61.19L317,45.82"/></g></g><polygon class="cls-61" points="348.8 49.84 353.33 49.44 353.87 77.01 349.33 77.41 348.8 49.84"/><polygon class="cls-57" points="349.2 48.98 353.74 48.58 354.31 78.13 349.77 78.53 349.2 48.98"/><polygon class="cls-58" points="268.14 24.2 272.68 23.8 353.74 48.58 349.2 48.98 268.14 24.2"/><path class="cls-62" d="M268.14,24.2,349.2,49l.57,29.55-81-24.78Zm81.19,53.21-.53-27.57L268.58,25.32l.54,27.57,80.21,24.52"/></g></g><g id="stream-back"><g class="cls-2"><polygon class="cls-63" points="124.16 71.35 225.22 49.99 224.95 53.27 123.9 74.62 124.16 71.35"/><polygon class="cls-64" points="123.9 74.62 224.95 53.27 248.39 59.55 147.33 80.9 123.9 74.62"/><polygon class="cls-64" points="124.16 71.35 225.22 49.99 248.65 56.27 147.59 77.63 124.16 71.35"/><polygon class="cls-65" points="147.59 77.63 147.33 80.9 123.9 74.62 124.16 71.35 147.59 77.63"/><polygon class="cls-63" points="147.59 77.63 248.65 56.27 248.39 59.55 147.33 80.9 147.59 77.63"/><polygon class="cls-63" points="148.44 76.86 249.5 55.51 249.08 60.72 148.03 82.07 148.44 76.86"/><polygon class="cls-64" points="123.47 70.17 224.52 48.82 249.5 55.51 148.44 76.86 123.47 70.17"/><path class="cls-65" d="M123.47,70.17l25,6.69L148,82.07l-25-6.69ZM147.33,80.9l.27-3.27-23.44-6.28-.26,3.27,23.43,6.28"/></g></g><g id="trace-back"><polyline class="cls-66" points="205.68 54.5 204.71 54.71 205.66 55.01"/><polyline class="cls-67" points="206.64 55.31 221.55 59.95 238.86 56.36"/><polyline class="cls-66" points="239.36 56.26 240.34 56.06 239.37 55.81"/><polyline class="cls-68" points="238.39 55.55 221.35 51.16 206.18 54.4"/></g><g id="filter-back-2"><g class="cls-2"><polygon class="cls-69" points="169.11 38.65 193.2 33.98 193.11 57.89 169.02 62.55 169.11 38.65"/><polygon class="cls-70" points="169.02 62.55 193.11 57.89 212.42 62.3 188.33 66.97 169.02 62.55"/><polygon class="cls-71" points="169.11 38.65 193.2 33.98 212.51 38.4 188.41 43.06 169.11 38.65"/><polygon class="cls-72" points="188.41 43.06 212.51 38.4 212.42 62.3 188.33 66.97 188.41 43.06"/><path class="cls-73" d="M188.59,42.86l-.09,24.39-19.65-4.49.08-24.4Zm-19.48-4.21L169,62.55,188.33,67l.08-23.91-19.3-4.41"/><polygon class="cls-74" points="188.41 43.06 188.33 66.97 169.02 62.55 169.11 38.65 188.41 43.06"/><polygon class="cls-70" points="168.94 38.37 193.03 33.7 212.68 38.19 188.59 42.85 168.94 38.37"/><polygon class="cls-69" points="188.59 42.85 212.68 38.19 212.59 62.59 188.5 67.25 188.59 42.85"/><g class="cls-2"><g class="cls-75"><polyline class="cls-76" points="193.91 49.98 193.3 50.1 191.67 53.58 190.09 50.7 189.44 50.82 191.31 54.25 189.25 58.64 189.9 58.52 191.64 54.77 193.35 57.88 194 57.75 191.99 54.1 193.91 49.98"/><path class="cls-76" d="M196.16,49a1.27,1.27,0,0,0-.9.63,2.57,2.57,0,0,0-.33,1.33l0,6.59.54-.11,0-5.18,1.22-.23V51.4l-1.23.23v-.69a1.69,1.69,0,0,1,.18-.86.76.76,0,0,1,.54-.38.61.61,0,0,1,.59.18l.19-.63a.91.91,0,0,0-.36-.2.93.93,0,0,0-.44,0"/><path class="cls-76" d="M199,56.18a1,1,0,0,1-.76-.14,1.42,1.42,0,0,1-.53-.71,3.13,3.13,0,0,1-.19-1.16,3.63,3.63,0,0,1,.2-1.22,2.46,2.46,0,0,1,.55-.91,1.33,1.33,0,0,1,.77-.43,1,1,0,0,1,.76.14,1.41,1.41,0,0,1,.52.71,3.08,3.08,0,0,1,.19,1.15,3.69,3.69,0,0,1-.2,1.23,2.32,2.32,0,0,1-.54.91,1.46,1.46,0,0,1-.77.43m0-5.26a1.91,1.91,0,0,0-1.05.58,3.14,3.14,0,0,0-.74,1.19,4.52,4.52,0,0,0-.28,1.58,3.75,3.75,0,0,0,.26,1.49,2,2,0,0,0,.72.93,1.41,1.41,0,0,0,1.05.19,2,2,0,0,0,1-.58,3.41,3.41,0,0,0,.75-1.21,4.72,4.72,0,0,0,.27-1.58,4,4,0,0,0-.25-1.49,2,2,0,0,0-.73-.92,1.34,1.34,0,0,0-1-.18"/><path class="cls-76" d="M204.17,50a1.79,1.79,0,0,0-.94.47,2.44,2.44,0,0,0-.57,1V50.28l-.52.1-.05,5.85.55-.1,0-3a3.22,3.22,0,0,1,.37-1.66,1.41,1.41,0,0,1,1-.76h.12V50"/><path class="cls-76" d="M210.16,48.82a1.76,1.76,0,0,0-.95.52,2.56,2.56,0,0,0-.65,1,1.45,1.45,0,0,0-.54-.82,1.2,1.2,0,0,0-.88-.15,1.75,1.75,0,0,0-.88.46,2.34,2.34,0,0,0-.6.93V49.72l-.52.09,0,5.86.54-.1,0-3.08a3.35,3.35,0,0,1,.37-1.62,1.43,1.43,0,0,1,1-.74.78.78,0,0,1,.85.31,2.35,2.35,0,0,1,.3,1.34l0,3.32.55-.1,0-3.08a3.13,3.13,0,0,1,.37-1.62,1.41,1.41,0,0,1,1-.74.77.77,0,0,1,.85.31,2.35,2.35,0,0,1,.3,1.34l0,3.32.54-.1,0-3.4a3,3,0,0,0-.42-1.79,1.13,1.13,0,0,0-1.18-.42"/></g></g></g></g><g id="filter-back-2-2" data-name="filter-back-2"><g class="cls-2"><polygon class="cls-69" points="133.7 45.88 157.79 41.21 157.7 65.12 133.61 69.79 133.7 45.88"/><polygon class="cls-70" points="133.61 69.79 157.7 65.12 177.01 69.53 152.92 74.19 133.61 69.79"/><polygon class="cls-71" points="133.7 45.88 157.79 41.21 177.09 45.62 153 50.29 133.7 45.88"/><polygon class="cls-74" points="153 50.29 152.92 74.19 133.61 69.79 133.7 45.88 153 50.29"/><polygon class="cls-72" points="153 50.29 177.09 45.62 177.01 69.53 152.92 74.19 153 50.29"/><polygon class="cls-70" points="133.53 45.59 157.62 40.92 177.27 45.42 153.17 50.09 133.53 45.59"/><polygon class="cls-69" points="153.17 50.09 177.27 45.42 177.18 69.81 153.09 74.48 153.17 50.09"/><g class="cls-2"><g class="cls-77"><path class="cls-76" d="M159.23,58.23l-.67.12-.05,7.36.67-.13,0-7.35m-.31-3a.47.47,0,0,0-.35.27.92.92,0,0,0-.15.51.72.72,0,0,0,.14.48.31.31,0,0,0,.35.14.52.52,0,0,0,.35-.27,1,1,0,0,0,.14-.54.68.68,0,0,0-.14-.46.31.31,0,0,0-.34-.13m-2.69.43a1.63,1.63,0,0,0-1.11.79,3.25,3.25,0,0,0-.4,1.67l-.06,8.27.67-.12,0-6.52,1.51-.28v-.84l-1.53.28v-.87A2.17,2.17,0,0,1,155.6,57a.9.9,0,0,1,.65-.47.76.76,0,0,1,.74.23l.23-.79a1,1,0,0,0-.44-.26,1.27,1.27,0,0,0-.55,0"/><path class="cls-76" d="M161.79,54.73l-.67.12-.06,8.34a2.48,2.48,0,0,0,.36,1.48.94.94,0,0,0,1,.37,1.53,1.53,0,0,0,.6-.27l0-.82a.94.94,0,0,1-.45.21.54.54,0,0,1-.62-.22,1.71,1.71,0,0,1-.21-1l.06-8.25"/><path class="cls-76" d="M164.65,55.59l-.67.13,0,6.91a2.45,2.45,0,0,0,.37,1.5,1,1,0,0,0,1.07.36,1.55,1.55,0,0,0,.58-.24,2,2,0,0,0,.47-.48l-.23-.67a1.13,1.13,0,0,1-.74.52.6.6,0,0,1-.64-.22,1.64,1.64,0,0,1-.2-1l0-4.39,1.5-.28v-.84l-1.5.28V55.59"/><path class="cls-76" d="M167.63,60.56v-.31a4.55,4.55,0,0,1,.24-1.51,2.94,2.94,0,0,1,.65-1.11,1.73,1.73,0,0,1,.93-.53,1.15,1.15,0,0,1,1.13.38,2.5,2.5,0,0,1,.57,1.41l-3.52,1.67m1.82-4.32a2.35,2.35,0,0,0-1.26.72,3.91,3.91,0,0,0-.88,1.49,5.81,5.81,0,0,0-.33,2,4.5,4.5,0,0,0,.32,1.87,2.37,2.37,0,0,0,.91,1.17,1.85,1.85,0,0,0,1.36.22,2.3,2.3,0,0,0,1.08-.51,3.12,3.12,0,0,0,.83-1l-.37-.57a2.73,2.73,0,0,1-.67.84,1.87,1.87,0,0,1-.85.41,1.38,1.38,0,0,1-1.19-.29,2.19,2.19,0,0,1-.67-1.28l4.08-1.94a4.38,4.38,0,0,0-.32-1.75,2.28,2.28,0,0,0-.84-1.09,1.56,1.56,0,0,0-1.2-.23"/><path class="cls-76" d="M175.71,55.06a2.2,2.2,0,0,0-1.16.6,3,3,0,0,0-.71,1.26V55.48l-.64.12L173.16,63l.67-.13,0-3.75a4.23,4.23,0,0,1,.45-2.09,1.79,1.79,0,0,1,1.24-.94l.15,0v-1"/></g></g><path class="cls-73" d="M153.17,50.09l-.08,24.39L133.44,70l.09-24.4ZM133.7,45.88l-.09,23.91,19.31,4.4.08-23.9-19.3-4.41"/></g></g><g id="stream-mid-1"><g class="cls-2"><polygon class="cls-63" points="76.96 103.84 154.49 87.27 154.23 90.52 76.7 107.09 76.96 103.84"/><polygon class="cls-78" points="76.7 107.09 154.23 90.52 177.3 97.05 99.77 113.62 76.7 107.09"/><polygon class="cls-78" points="76.96 103.84 154.49 87.27 177.56 93.79 100.02 110.36 76.96 103.84"/><polygon class="cls-58" points="100.02 110.36 99.77 113.62 76.7 107.09 76.96 103.84 100.02 110.36"/><polygon class="cls-63" points="100.02 110.36 177.56 93.79 177.3 97.05 99.77 113.62 100.02 110.36"/><polygon class="cls-63" points="100.86 109.6 178.39 93.03 177.98 98.24 100.45 114.81 100.86 109.6"/><polygon class="cls-78" points="76.28 102.65 153.81 86.08 178.39 93.03 100.86 109.6 76.28 102.65"/><path class="cls-58" d="M76.27,102.65l24.59,6.95-.41,5.21-24.59-7Zm23.5,11,.25-3.26L77,103.84l-.26,3.25,23.07,6.53"/></g></g><g id="trace-back-2" data-name="trace-back"><polyline class="cls-66" points="137.27 90.94 136.29 91.15 137.24 91.46"/><polyline class="cls-79" points="138.16 91.76 153.9 96.86 171.25 93.27"/><polyline class="cls-66" points="171.72 93.17 172.7 92.97 171.73 92.69"/><polyline class="cls-80" points="170.81 92.44 153.13 87.47 137.74 90.84"/></g><g id="filter-back-2-3" data-name="filter-back-2"><g class="cls-2"><polygon class="cls-81" points="98.39 75.44 122.61 70.94 122.31 94.84 98.08 99.33 98.39 75.44"/><polygon class="cls-82" points="98.08 99.33 122.31 94.84 141.49 99.49 117.27 103.99 98.08 99.33"/><polygon class="cls-83" points="98.39 75.44 122.61 70.94 141.79 75.6 117.56 80.1 98.39 75.44"/><polygon class="cls-84" points="117.56 80.1 117.27 103.99 98.08 99.33 98.39 75.44 117.56 80.1"/><polygon class="cls-85" points="117.56 80.1 141.79 75.6 141.49 99.49 117.27 103.99 117.56 80.1"/><polygon class="cls-82" points="98.22 75.15 122.44 70.66 141.96 75.41 117.73 79.9 98.22 75.15"/><polygon class="cls-81" points="117.73 79.9 141.96 75.41 141.66 99.78 117.44 104.27 117.73 79.9"/><g class="cls-2"><g class="cls-86"><path class="cls-76" d="M125.62,87.86a2.17,2.17,0,0,0-1.12.58,3,3,0,0,0-.77,1.17,1.61,1.61,0,0,0-.64-.93,1.38,1.38,0,0,0-1-.17,2.1,2.1,0,0,0-1,.52,2.83,2.83,0,0,0-.71,1.07l0-1.21-.62.11-.09,6.65.64-.12,0-3.49a3.6,3.6,0,0,1,.45-1.84,1.69,1.69,0,0,1,1.16-.85,1,1,0,0,1,1,.35,2.58,2.58,0,0,1,.33,1.52l0,3.77.64-.12,0-3.49a3.7,3.7,0,0,1,.45-1.84,1.67,1.67,0,0,1,1.17-.85.92.92,0,0,1,1,.36,2.63,2.63,0,0,1,.34,1.52l-.06,3.76.64-.11.06-3.87a3.28,3.28,0,0,0-.49-2,1.33,1.33,0,0,0-1.38-.46"/><path class="cls-76" d="M131.12,92.81a1.27,1.27,0,0,1-.9-.16,1.59,1.59,0,0,1-.61-.8,3.3,3.3,0,0,1-.21-1.32,4.14,4.14,0,0,1,.25-1.39,2.74,2.74,0,0,1,.64-1,1.68,1.68,0,0,1,.9-.49,1.19,1.19,0,0,1,.89.16,1.61,1.61,0,0,1,.62.8,3.28,3.28,0,0,1,.21,1.31,4.2,4.2,0,0,1-.25,1.4,2.66,2.66,0,0,1-.64,1,1.75,1.75,0,0,1-.9.49m0-6a2.29,2.29,0,0,0-1.21.65,3.69,3.69,0,0,0-.86,1.35,5.29,5.29,0,0,0-.33,1.81,4.41,4.41,0,0,0,.28,1.71,2.1,2.1,0,0,0,.83,1,1.65,1.65,0,0,0,1.2.22,2.14,2.14,0,0,0,1.07-.56,3.18,3.18,0,0,0,.77-1.16l0,1.32.62-.12.09-6.65-.64.12,0,1.26a1.89,1.89,0,0,0-.75-.84,1.5,1.5,0,0,0-1-.15"/><path class="cls-76" d="M137.67,91.61a1.26,1.26,0,0,1-.9-.16,1.59,1.59,0,0,1-.61-.8,3.33,3.33,0,0,1-.21-1.32,3.94,3.94,0,0,1,.24-1.39,3,3,0,0,1,.64-1,1.66,1.66,0,0,1,.91-.5,1.15,1.15,0,0,1,.89.17,1.53,1.53,0,0,1,.62.79,3.28,3.28,0,0,1,.21,1.31,3.86,3.86,0,0,1-.24,1.39,2.84,2.84,0,0,1-.65,1,1.75,1.75,0,0,1-.9.49m.13-6a2.1,2.1,0,0,0-1.07.56,3.11,3.11,0,0,0-.78,1.14L136,86l-.61.12-.12,9.11.64-.12.05-3.71a1.87,1.87,0,0,0,.74.84,1.52,1.52,0,0,0,1,.15,2.4,2.4,0,0,0,1.21-.65,3.69,3.69,0,0,0,.86-1.35,5.62,5.62,0,0,0,.32-1.83,4.18,4.18,0,0,0-.28-1.7,2,2,0,0,0-.83-1,1.62,1.62,0,0,0-1.19-.21"/></g></g><path class="cls-73" d="M117.74,79.9l-.3,24.37L97.91,99.53l.31-24.38ZM98.39,75.44l-.31,23.89L117.27,104l.29-23.89L98.39,75.44"/></g></g><g id="receive"><g class="cls-2"><polygon class="cls-87" points="32.38 69.47 37.05 69.11 37.81 103.43 33.13 103.79 32.38 69.47"/><polygon class="cls-88" points="33.13 103.79 37.81 103.43 113.58 130.87 108.9 131.23 33.13 103.79"/><polygon class="cls-9" points="32.38 69.47 37.05 69.11 112.83 96.55 108.15 96.9 32.38 69.47"/><polygon class="cls-61" points="108.15 96.9 112.83 96.55 113.58 130.87 108.9 131.23 108.15 96.9"/><path class="cls-89" d="M32,68.35,108.48,96l.8,36.3L32.8,104.65Zm76.9,62.88-.75-34.33L32.38,69.47l.75,34.32,75.77,27.44"/><polygon class="cls-59" points="108.15 96.9 108.9 131.23 33.13 103.79 32.38 69.47 108.15 96.9"/><g class="cls-2"><g class="cls-90"><path class="cls-49" d="M56.63,91.91a.85.85,0,0,0-.94.14,2.2,2.2,0,0,0-.54,1.22l0-1.84-.53-.2.21,9.4.55.2L55.23,96a6.09,6.09,0,0,1,.31-2.42c.23-.52.56-.7,1-.55l.14.07,0-1.23"/><path class="cls-49" d="M57.82,97.37c0-.08,0-.21,0-.39a6.91,6.91,0,0,1,.15-1.8,2.18,2.18,0,0,1,.5-1.07.65.65,0,0,1,.75-.19,1.86,1.86,0,0,1,.94,1.1,6.73,6.73,0,0,1,.52,2.11l-2.85.24m1.36-4.54a.9.9,0,0,0-1,.24,3,3,0,0,0-.68,1.43,9.88,9.88,0,0,0-.2,2.37,11.42,11.42,0,0,0,.32,2.56,6.77,6.77,0,0,0,.8,2,2.28,2.28,0,0,0,1.13,1,.94.94,0,0,0,.88-.07,1.77,1.77,0,0,0,.65-.89l-.33-.94a1.48,1.48,0,0,1-.53.73.79.79,0,0,1-.69,0,2,2,0,0,1-1-1,6.3,6.3,0,0,1-.6-2L61.23,98a11.16,11.16,0,0,0-.32-2.42,6.67,6.67,0,0,0-.73-1.85,2,2,0,0,0-1-.93"/><path class="cls-49" d="M64,94.56a1,1,0,0,0-1.07.22,2.9,2.9,0,0,0-.71,1.42A9.28,9.28,0,0,0,62,98.57a11.57,11.57,0,0,0,.33,2.57,7,7,0,0,0,.78,2,2.32,2.32,0,0,0,1.09,1,.93.93,0,0,0,.93-.13,2.12,2.12,0,0,0,.63-1.15l-.43-.79a1.57,1.57,0,0,1-.48.85.67.67,0,0,1-.67.09,1.65,1.65,0,0,1-.8-.73,5.15,5.15,0,0,1-.58-1.49,10,10,0,0,1-.24-2,8.28,8.28,0,0,1,.15-1.84,2.3,2.3,0,0,1,.53-1.1.69.69,0,0,1,.78-.16,1.47,1.47,0,0,1,.68.59,4.05,4.05,0,0,1,.53,1.23l.4-.5a5.3,5.3,0,0,0-.68-1.62,2,2,0,0,0-1-.81"/><path class="cls-49" d="M66.79,100.62c0-.09,0-.22,0-.4a7.82,7.82,0,0,1,.15-1.79,2.36,2.36,0,0,1,.5-1.08.67.67,0,0,1,.76-.18,1.86,1.86,0,0,1,.94,1.1,7,7,0,0,1,.52,2.1l-2.85.25m1.36-4.54a.91.91,0,0,0-1,.23,3,3,0,0,0-.68,1.44,9.36,9.36,0,0,0-.21,2.37,11.41,11.41,0,0,0,.33,2.56,7,7,0,0,0,.79,2,2.34,2.34,0,0,0,1.13,1,1,1,0,0,0,.88-.07,1.74,1.74,0,0,0,.65-.9l-.33-.93a1.43,1.43,0,0,1-.52.72.76.76,0,0,1-.69.06,1.94,1.94,0,0,1-1-1,6.24,6.24,0,0,1-.6-2l3.31-.29a11.22,11.22,0,0,0-.33-2.42A6.42,6.42,0,0,0,69.14,97a2.06,2.06,0,0,0-1-.93"/><path class="cls-49" d="M71.78,97.46l-.55-.2.2,9.4.55.2-.2-9.4m-.36-3.95c-.11,0-.21,0-.28.16a1.26,1.26,0,0,0-.1.58,1.84,1.84,0,0,0,.13.69.58.58,0,0,0,.29.37c.11,0,.21,0,.28-.16a1.36,1.36,0,0,0,.1-.62,1.85,1.85,0,0,0-.13-.66.58.58,0,0,0-.29-.36"/><polyline class="cls-49" points="76.73 99.26 76.19 99.06 74.82 106.5 73.12 97.95 72.55 97.74 74.56 107.79 75.13 108 76.73 99.26"/><path class="cls-49" d="M77.63,104.54c0-.08,0-.21,0-.39a8,8,0,0,1,.15-1.8,2.27,2.27,0,0,1,.5-1.07.64.64,0,0,1,.75-.18,1.82,1.82,0,0,1,.95,1.09,7,7,0,0,1,.51,2.11l-2.84.24M79,100a.91.91,0,0,0-1,.24,3,3,0,0,0-.67,1.44,9.23,9.23,0,0,0-.21,2.36,11.41,11.41,0,0,0,.33,2.56,6.66,6.66,0,0,0,.79,2,2.32,2.32,0,0,0,1.13,1,.94.94,0,0,0,.88-.07,1.71,1.71,0,0,0,.65-.89l-.33-.94a1.42,1.42,0,0,1-.52.73.79.79,0,0,1-.69,0,2,2,0,0,1-1-1,6.3,6.3,0,0,1-.6-2L81,105.2a11.14,11.14,0,0,0-.33-2.42,6.37,6.37,0,0,0-.73-1.85,2.11,2.11,0,0,0-1-.93"/></g></g><polygon class="cls-87" points="108.48 96.04 113.16 95.69 113.95 131.99 109.28 132.34 108.48 96.04"/><polygon class="cls-88" points="32 68.35 36.68 67.99 113.16 95.69 108.48 96.04 32 68.35"/></g></g><line class="cls-91" x1="215.07" y1="46.19" x2="265.02" y2="36.45"/><g id="stream-mid-2"><g class="cls-2"><polygon class="cls-63" points="197.94 77.31 275.48 60.74 275.22 64 197.69 80.57 197.94 77.31"/><polygon class="cls-78" points="197.69 80.57 275.22 64 298.28 70.53 220.75 87.09 197.69 80.57"/><polygon class="cls-78" points="197.94 77.31 275.48 60.74 298.54 67.26 221.01 83.83 197.94 77.31"/><polygon class="cls-58" points="221.01 83.83 220.75 87.09 197.69 80.57 197.94 77.31 221.01 83.83"/><polygon class="cls-63" points="221.01 83.83 298.54 67.26 298.28 70.53 220.75 87.09 221.01 83.83"/><polygon class="cls-63" points="221.85 83.08 299.38 66.51 298.97 71.72 221.44 88.28 221.85 83.08"/><polygon class="cls-78" points="197.26 76.13 274.79 59.56 299.38 66.51 221.85 83.08 197.26 76.13"/><path class="cls-58" d="M197.26,76.12l24.59,7-.42,5.2-24.58-7Zm23.49,11,.26-3.26-23.07-6.52-.25,3.26,23.06,6.52"/></g></g><g id="trace-back-3" data-name="trace-back"><polyline class="cls-66" points="206.91 75.83 205.93 76 206.89 76.28"/><polyline class="cls-92" points="207.83 76.56 223.59 81.12 238.88 77.95"/><polyline class="cls-66" points="239.36 77.85 240.34 77.65 239.37 77.41"/><polyline class="cls-93" points="238.43 77.17 222.34 73.11 207.39 75.75"/></g><g id="trace-back-4" data-name="trace-back"><polyline class="cls-66" points="257.82 64.27 256.83 64.45 257.8 64.72"/><polyline class="cls-92" points="258.74 65 274.5 69.56 289.79 66.39"/><polyline class="cls-66" points="290.27 66.3 291.25 66.09 290.28 65.85"/><polyline class="cls-93" points="289.33 65.61 273.25 61.55 258.3 64.19"/></g><g id="filter-back-2-4" data-name="filter-back-2"><g class="cls-2"><polygon class="cls-69" points="228.49 48.55 251.86 44.03 251.77 67.93 228.41 72.46 228.49 48.55"/><polygon class="cls-70" points="228.41 72.46 251.77 67.93 269.32 71.94 245.96 76.47 228.41 72.46"/><polygon class="cls-71" points="228.49 48.55 251.86 44.03 269.4 48.04 246.04 52.57 228.49 48.55"/><polygon class="cls-74" points="246.04 52.57 245.96 76.47 228.41 72.46 228.49 48.55 246.04 52.57"/><polygon class="cls-72" points="246.04 52.57 269.4 48.04 269.32 71.95 245.96 76.47 246.04 52.57"/><polygon class="cls-81" points="246.22 52.48 269.58 47.95 269.48 72.23 246.12 76.75 246.22 52.48"/><g class="cls-2"><g class="cls-94"><path class="cls-76" d="M252.38,60.5l-.74.13,0,6.21a3.4,3.4,0,0,1,0,.45,1.06,1.06,0,0,1-.09.37.56.56,0,0,1-.19.28.64.64,0,0,1-.34.16,1,1,0,0,1-.35,0l-.1.79a.56.56,0,0,0,.25,0,1.14,1.14,0,0,0,.26,0,1.52,1.52,0,0,0,.67-.29,1.63,1.63,0,0,0,.4-.48,1.8,1.8,0,0,0,.19-.55,2.24,2.24,0,0,0,.06-.48l.06-6.62M252,57.79a.6.6,0,0,0-.39.27.8.8,0,0,0-.16.49.64.64,0,0,0,.15.45.39.39,0,0,0,.38.11.61.61,0,0,0,.39-.26.88.88,0,0,0,.16-.5.61.61,0,0,0-.15-.43.38.38,0,0,0-.38-.13"/><path class="cls-76" d="M255.9,64.55a1.23,1.23,0,0,1-.64,0,1.07,1.07,0,0,1-.5-.34,1.54,1.54,0,0,1-.3-.57,2.6,2.6,0,0,1-.11-.77,3,3,0,0,1,.12-.81,2.35,2.35,0,0,1,.32-.7,1.91,1.91,0,0,1,.5-.52,1.5,1.5,0,0,1,.65-.27,1.24,1.24,0,0,1,.64,0,1.12,1.12,0,0,1,.49.34,1.47,1.47,0,0,1,.31.58,2.61,2.61,0,0,1,.1.77,3.1,3.1,0,0,1-.11.81,2.3,2.3,0,0,1-.32.69,2.07,2.07,0,0,1-.5.52,1.65,1.65,0,0,1-.65.28m0-4.85a2.6,2.6,0,0,0-.95.38,3,3,0,0,0-.74.72,3.68,3.68,0,0,0-.5,1,3.8,3.8,0,0,0-.19,1.19,3.51,3.51,0,0,0,.17,1.12,2.34,2.34,0,0,0,.48.8,1.83,1.83,0,0,0,.74.45,2.15,2.15,0,0,0,1,0,2.49,2.49,0,0,0,.94-.38,2.89,2.89,0,0,0,.75-.73,3.61,3.61,0,0,0,.5-1,3.8,3.8,0,0,0,.18-1.19,3.26,3.26,0,0,0-.16-1.12,2.17,2.17,0,0,0-.49-.81,1.6,1.6,0,0,0-.74-.44,1.85,1.85,0,0,0-.94,0"/><path class="cls-76" d="M260.24,59l-.73.13-.05,5.41.74-.14,0-5.4m-.34-2.71a.56.56,0,0,0-.39.27,1,1,0,0,0-.16.49.64.64,0,0,0,.15.45.41.41,0,0,0,.39.11.62.62,0,0,0,.39-.26.84.84,0,0,0,.15-.5.61.61,0,0,0-.15-.43.38.38,0,0,0-.38-.13"/><path class="cls-76" d="M263.87,58.22a1.63,1.63,0,0,0-.51.19,2.2,2.2,0,0,0-.43.3,2.51,2.51,0,0,0-.33.4,1.83,1.83,0,0,0-.21.42h0v-.46c0-.13,0-.28,0-.43l-.7.13c0,.18,0,.37,0,.59s0,.44,0,.69l0,4.12.74-.13,0-2.64a3.78,3.78,0,0,1,.08-.85,2.38,2.38,0,0,1,.25-.71,1.62,1.62,0,0,1,.42-.51,1.48,1.48,0,0,1,.63-.26.69.69,0,0,1,.76.25,1.83,1.83,0,0,1,.23,1l0,3.25.74-.14,0-3.34a3,3,0,0,0-.1-.88,1.51,1.51,0,0,0-.29-.64,1,1,0,0,0-.52-.35,1.54,1.54,0,0,0-.75,0"/></g></g><polygon class="cls-70" points="228.33 48.27 251.69 43.74 269.57 47.83 246.21 52.36 228.33 48.27"/><polygon class="cls-95" points="246.21 52.36 269.57 47.83 269.58 47.95 246.22 52.48 246.21 52.36"/><path class="cls-73" d="M246.22,52.48l-.1,24.27-17.88-4.08.09-24.4,17.88,4.09Zm-17.73-3.93-.08,23.91,17.55,4,.08-23.9-17.55-4"/></g></g><line class="cls-91" x1="144.79" y1="84.58" x2="236.07" y2="65.06"/><g id="stream-front-1"><g class="cls-2"><polygon class="cls-63" points="162.44 107.1 276.13 83.08 275.59 89.74 161.91 113.76 162.44 107.1"/><polygon class="cls-64" points="161.91 113.76 275.59 89.74 299.03 96.02 185.34 120.04 161.91 113.76"/><polygon class="cls-64" points="162.44 107.1 276.13 83.08 299.56 89.36 185.88 113.38 162.44 107.1"/><polygon class="cls-65" points="185.88 113.38 185.34 120.04 161.91 113.76 162.44 107.1 185.88 113.38"/><polygon class="cls-63" points="185.88 113.38 299.56 89.36 299.03 96.02 185.34 120.04 185.88 113.38"/><polygon class="cls-63" points="186.72 112.61 300.41 88.59 299.72 97.19 186.03 121.22 186.72 112.61"/><g class="cls-2"><g class="cls-96"><path class="cls-49" d="M221.16,111l.3-3.86,1.12-.25a2.67,2.67,0,0,1,.78-.06,1.1,1.1,0,0,1,1,.71,2.17,2.17,0,0,1,.09.85,2.83,2.83,0,0,1-.23.91,2.34,2.34,0,0,1-.47.69,2.61,2.61,0,0,1-.65.48,3,3,0,0,1-.8.28l-1.12.25m1.66-4.7-1.91.42-.38,5,1.9-.41a4.6,4.6,0,0,0,.53-.17,3.73,3.73,0,0,0,.55-.3,4.32,4.32,0,0,0,.55-.43,3.32,3.32,0,0,0,.47-.57,3.05,3.05,0,0,0,.35-.7,3.68,3.68,0,0,0,.18-.84,2.44,2.44,0,0,0-.06-.79,1.57,1.57,0,0,0-.25-.57,1.21,1.21,0,0,0-.4-.38,1.49,1.49,0,0,0-.49-.2,1.57,1.57,0,0,0-.53-.06,2.1,2.1,0,0,0-.51,0"/><path class="cls-49" d="M226.86,109.94a.78.78,0,0,1-.51,0c-.13,0-.18-.18-.17-.39a.72.72,0,0,1,.35-.55,2.54,2.54,0,0,1,.84-.33l.54-.12v.21a1.8,1.8,0,0,1-.1.4,1.13,1.13,0,0,1-.21.35,1.25,1.25,0,0,1-.73.45m.37-3a2.47,2.47,0,0,0-.71.27,2.43,2.43,0,0,0-.63.52l.31.28a2.07,2.07,0,0,1,.47-.37,2,2,0,0,1,.53-.2.75.75,0,0,1,.59,0,.51.51,0,0,1,.17.49v.1l-.21.05c-.2,0-.42.1-.66.17a3.25,3.25,0,0,0-.69.29,1.8,1.8,0,0,0-.54.45,1.14,1.14,0,0,0-.26.69.75.75,0,0,0,.07.4.56.56,0,0,0,.24.24.76.76,0,0,0,.36.1,1.76,1.76,0,0,0,1.13-.34,1.82,1.82,0,0,0,.46-.5h0c0,.07,0,.15,0,.24a.9.9,0,0,0,0,.24l.52-.11a2.26,2.26,0,0,1,0-.27,2.81,2.81,0,0,1,0-.29l.11-1.4a1.16,1.16,0,0,0-.24-1,1.13,1.13,0,0,0-1-.11"/><path class="cls-49" d="M230.49,105.39l-.55.12-.07.93-.71.15,0,.46.72-.15-.14,1.8a2.32,2.32,0,0,0,0,.45.61.61,0,0,0,.11.32.4.4,0,0,0,.25.15,1.1,1.1,0,0,0,.47,0l.32-.1a2.53,2.53,0,0,0,.33-.16v-.49a2,2,0,0,1-.25.14,1.09,1.09,0,0,1-.24.07.54.54,0,0,1-.28,0,.24.24,0,0,1-.13-.13.53.53,0,0,1,0-.23c0-.09,0-.19,0-.29l.12-1.64,1-.21,0-.46-1,.21.07-.93"/><path class="cls-49" d="M233,108.61a.75.75,0,0,1-.5,0q-.19-.07-.18-.39a.75.75,0,0,1,.35-.55,2.6,2.6,0,0,1,.85-.33l.54-.12v.21a1.82,1.82,0,0,1-.11.4,1.1,1.1,0,0,1-.2.35,1.38,1.38,0,0,1-.31.28,1.25,1.25,0,0,1-.43.17m.37-3a3.12,3.12,0,0,0-.71.27,2.43,2.43,0,0,0-.63.52l.32.28a1.71,1.71,0,0,1,.47-.37,1.8,1.8,0,0,1,.53-.2.72.72,0,0,1,.58.05.53.53,0,0,1,.18.49v.1l-.21.05a6.43,6.43,0,0,0-.66.17,3,3,0,0,0-.69.29,2,2,0,0,0-.55.45,1.24,1.24,0,0,0-.26.69.72.72,0,0,0,.07.4.56.56,0,0,0,.24.24.81.81,0,0,0,.37.1,1.48,1.48,0,0,0,.46,0,1.52,1.52,0,0,0,.67-.3,2,2,0,0,0,.46-.5h0c0,.07,0,.15,0,.24a.62.62,0,0,0,0,.24l.52-.11c0-.08,0-.17,0-.27a2.81,2.81,0,0,1,0-.29l.11-1.4a1.16,1.16,0,0,0-.25-1,1.12,1.12,0,0,0-1-.11"/><path class="cls-49" d="M239.32,102.6a2.38,2.38,0,0,0-.63.23,2.22,2.22,0,0,0-.57.39,2.09,2.09,0,0,0-.41.52,1.63,1.63,0,0,0-.19.66,1.16,1.16,0,0,0,.06.51.82.82,0,0,0,.23.32,1,1,0,0,0,.37.17,2.18,2.18,0,0,0,.47.09l.56.07a1.57,1.57,0,0,1,.39.1.48.48,0,0,1,.22.2.72.72,0,0,1,.05.36.9.9,0,0,1-.13.39,1.69,1.69,0,0,1-.27.32,1.41,1.41,0,0,1-.36.24,1.32,1.32,0,0,1-.39.14,1.11,1.11,0,0,1-.6,0,.65.65,0,0,1-.41-.31l-.54.52a1,1,0,0,0,.28.26,1.48,1.48,0,0,0,.35.13,1.88,1.88,0,0,0,.41,0,3.15,3.15,0,0,0,.43,0,2.61,2.61,0,0,0,.66-.24,2.33,2.33,0,0,0,.58-.38,2,2,0,0,0,.42-.53,1.78,1.78,0,0,0,.2-.68,1.12,1.12,0,0,0-.08-.58.67.67,0,0,0-.29-.33,1.68,1.68,0,0,0-.46-.17l-.54-.07-.49-.07a.84.84,0,0,1-.3-.13.45.45,0,0,1-.16-.2,1.09,1.09,0,0,1,0-.28,1.25,1.25,0,0,1,.12-.4,1.14,1.14,0,0,1,.27-.31,1.38,1.38,0,0,1,.35-.22,1.49,1.49,0,0,1,.39-.13,1.21,1.21,0,0,1,.5,0,.56.56,0,0,1,.37.27l.51-.53a1,1,0,0,0-.58-.32,2,2,0,0,0-.76,0"/><path class="cls-49" d="M242.42,102.78l-.54.12-.07.93-.72.16,0,.46.71-.16-.14,1.81c0,.16,0,.31,0,.45a.67.67,0,0,0,.11.31.44.44,0,0,0,.25.16,1.1,1.1,0,0,0,.47,0l.33-.1a2.25,2.25,0,0,0,.31-.16l0-.49a1.83,1.83,0,0,1-.24.13.9.9,0,0,1-.25.08.5.5,0,0,1-.27,0,.26.26,0,0,1-.14-.13.53.53,0,0,1,0-.23c0-.09,0-.19,0-.3l.13-1.63,1-.21,0-.47-1,.21.07-.93"/><path class="cls-49" d="M245.6,102.92a1.74,1.74,0,0,0-.38.14,1.42,1.42,0,0,0-.33.21,2,2,0,0,0-.25.25,1.16,1.16,0,0,0-.18.27h0a2.62,2.62,0,0,0,0-.27,2.45,2.45,0,0,1,0-.27l-.52.11c0,.11,0,.23,0,.36s0,.26,0,.41l-.19,2.5.54-.12.13-1.59a1.87,1.87,0,0,1,.29-.94,1.16,1.16,0,0,1,.76-.49,1,1,0,0,1,.29,0l.07-.56h-.1l-.12,0"/><path class="cls-49" d="M246.62,104.1a1.52,1.52,0,0,1,.39-.74,1.35,1.35,0,0,1,.75-.41.79.79,0,0,1,.7.09.72.72,0,0,1,.22.62l-2.06.44m1.2-1.66a2.1,2.1,0,0,0-.68.27,2.3,2.3,0,0,0-.56.47,2.32,2.32,0,0,0-.39.62,2.24,2.24,0,0,0-.18.73,1.67,1.67,0,0,0,.06.64,1.15,1.15,0,0,0,.29.48,1,1,0,0,0,.49.25,1.61,1.61,0,0,0,.69,0,2.61,2.61,0,0,0,.82-.33,2.39,2.39,0,0,0,.68-.67l-.39-.23a1.91,1.91,0,0,1-.47.47,1.6,1.6,0,0,1-.61.25.78.78,0,0,1-.4,0,.61.61,0,0,1-.31-.16.74.74,0,0,1-.21-.28,1.17,1.17,0,0,1-.07-.38l2.65-.58v-.17a1.91,1.91,0,0,0-.05-.7,1,1,0,0,0-.28-.47.84.84,0,0,0-.47-.23,1.46,1.46,0,0,0-.62,0"/><path class="cls-49" d="M251.11,104.65a.79.79,0,0,1-.51,0c-.13,0-.18-.18-.17-.39a.75.75,0,0,1,.35-.55,2.34,2.34,0,0,1,.84-.32l.55-.12,0,.21a1.4,1.4,0,0,1-.1.39,1.1,1.1,0,0,1-.2.35,1.43,1.43,0,0,1-.32.28,1.13,1.13,0,0,1-.42.17m.37-3a2.5,2.5,0,0,0-.71.28,2.21,2.21,0,0,0-.63.51l.31.28a1.92,1.92,0,0,1,.48-.37,1.8,1.8,0,0,1,.53-.2.77.77,0,0,1,.58,0,.51.51,0,0,1,.17.49v.1l-.21,0c-.2,0-.42.1-.66.17a3.16,3.16,0,0,0-.68.29,2,2,0,0,0-.55.45,1.24,1.24,0,0,0-.26.69.72.72,0,0,0,.07.4.56.56,0,0,0,.24.24.81.81,0,0,0,.37.11,2.53,2.53,0,0,0,.46,0,1.72,1.72,0,0,0,.67-.31,1.78,1.78,0,0,0,.45-.5h0a1.85,1.85,0,0,0,0,.25.64.64,0,0,0,0,.24l.52-.12a2.26,2.26,0,0,1,0-.27v-.28l.11-1.41a1.16,1.16,0,0,0-.24-1,1.12,1.12,0,0,0-1-.11"/><path class="cls-49" d="M257.54,100.32a1.41,1.41,0,0,0-.64.3,2.55,2.55,0,0,0-.45.55.62.62,0,0,0-.1-.17.41.41,0,0,0-.16-.16.76.76,0,0,0-.29-.1,1.17,1.17,0,0,0-.44,0,1.74,1.74,0,0,0-.38.14,1.36,1.36,0,0,0-.32.21,1.55,1.55,0,0,0-.26.25,1.59,1.59,0,0,0-.18.27h0a2.62,2.62,0,0,0,0-.27,2.44,2.44,0,0,0,0-.27l-.51.11c0,.11,0,.23,0,.36s0,.26,0,.41l-.2,2.5.55-.12.12-1.59a2.66,2.66,0,0,1,.1-.52,1.79,1.79,0,0,1,.21-.44,1.33,1.33,0,0,1,.34-.33,1.35,1.35,0,0,1,.46-.19c.23-.05.38,0,.47.12a1.25,1.25,0,0,1,.08.74l-.14,1.86.55-.12.14-1.89a1.3,1.3,0,0,1,.1-.41,1.55,1.55,0,0,1,.21-.35,1.32,1.32,0,0,1,.28-.25.91.91,0,0,1,.34-.14.74.74,0,0,1,.39,0,.34.34,0,0,1,.22.15.52.52,0,0,1,.11.26,1.66,1.66,0,0,1,0,.32l-.15,2,.54-.12.15-2a2.46,2.46,0,0,0,0-.55.75.75,0,0,0-.18-.39.63.63,0,0,0-.37-.19,1.43,1.43,0,0,0-.57,0"/></g></g><polygon class="cls-64" points="161.75 105.92 275.43 81.9 300.41 88.59 186.72 112.61 161.75 105.92"/><path class="cls-65" d="M161.75,105.92l25,6.69-.68,8.61-25-6.7ZM185.34,120l.54-6.66-23.44-6.28-.53,6.66L185.34,120"/></g></g><g id="trace-back-5" data-name="trace-back"><polyline class="cls-66" points="258.46 86.72 257.48 86.93 258.43 87.24"/><polyline class="cls-79" points="259.35 87.54 275.09 92.64 292.44 89.05"/><polyline class="cls-66" points="292.91 88.95 293.89 88.74 292.93 88.47"/><polyline class="cls-80" points="292 88.21 274.32 83.25 258.93 86.62"/></g><g id="trace-back-6" data-name="trace-back"><polyline class="cls-66" points="231.36 92.15 230.38 92.37 231.34 92.67"/><polyline class="cls-79" points="232.25 92.97 248 98.07 265.34 94.48"/><polyline class="cls-66" points="265.81 94.38 266.79 94.18 265.83 93.91"/><polyline class="cls-80" points="264.9 93.65 247.22 88.68 231.83 92.05"/></g><g id="trace-back-7" data-name="trace-back"><polyline class="cls-66" points="206.26 97.51 205.28 97.72 206.23 98.03"/><polyline class="cls-79" points="207.15 98.33 222.89 103.42 240.24 99.83"/><polyline class="cls-66" points="240.71 99.73 241.69 99.53 240.72 99.26"/><polyline class="cls-80" points="239.8 99 222.12 94.03 206.73 97.4"/></g><g id="filter-back-2-5" data-name="filter-back-2"><g class="cls-2"><polygon class="cls-69" points="168.55 82.21 192.64 77.54 192.56 101.45 168.47 106.11 168.55 82.21"/><polygon class="cls-70" points="168.47 106.11 192.56 101.45 211.87 105.86 187.77 110.53 168.47 106.11"/><polygon class="cls-71" points="168.55 82.21 192.64 77.54 211.95 81.96 187.86 86.62 168.55 82.21"/><polygon class="cls-74" points="187.86 86.62 187.77 110.53 168.47 106.11 168.55 82.21 187.86 86.62"/><polygon class="cls-72" points="187.86 86.62 211.95 81.96 211.87 105.86 187.77 110.53 187.86 86.62"/><polygon class="cls-70" points="168.38 81.93 192.48 77.26 212.12 81.75 188.03 86.41 168.38 81.93"/><polygon class="cls-69" points="188.03 86.41 212.12 81.75 212.03 106.14 187.94 110.81 188.03 86.41"/><g class="cls-2"><g class="cls-97"><path class="cls-76" d="M195.48,94.66a1.37,1.37,0,0,0-.81.45,3.54,3.54,0,0,0-.56,1c0-.1-.08-.21-.13-.34a1.31,1.31,0,0,0-.25-.33,1,1,0,0,0-.38-.22,1.05,1.05,0,0,0-.59,0,1.22,1.22,0,0,0-.49.19,2.27,2.27,0,0,0-.42.33,2.75,2.75,0,0,0-.32.44,2,2,0,0,0-.21.47h0a4.34,4.34,0,0,0,0-.51,4,4,0,0,1,0-.49l-.69.13c0,.2,0,.42,0,.66s0,.49,0,.78l0,4.63.71-.14,0-3a4.82,4.82,0,0,1,.09-1,3.13,3.13,0,0,1,.23-.78,1.66,1.66,0,0,1,.42-.57,1.37,1.37,0,0,1,.61-.28.54.54,0,0,1,.63.3,3.49,3.49,0,0,1,.18,1.39l0,3.45.72-.14,0-3.5a3.52,3.52,0,0,1,.08-.75,2.6,2.6,0,0,1,.25-.61,1.69,1.69,0,0,1,.35-.43.9.9,0,0,1,.44-.21.86.86,0,0,1,.51,0,.89.89,0,0,1,.32.32,1.46,1.46,0,0,1,.16.51,3.86,3.86,0,0,1,0,.6l0,3.63.72-.14,0-3.68a5.6,5.6,0,0,0-.08-1,1.9,1.9,0,0,0-.27-.74,1,1,0,0,0-.5-.41,1.4,1.4,0,0,0-.77,0"/><path class="cls-76" d="M199.91,99.33a.8.8,0,0,1-.67-.11c-.19-.12-.27-.38-.27-.76a1.23,1.23,0,0,1,.41-1,2.34,2.34,0,0,1,1.09-.48l.72-.14v.39a4.15,4.15,0,0,1-.1.73,2.42,2.42,0,0,1-.24.62,1.47,1.47,0,0,1-.39.46,1.12,1.12,0,0,1-.55.26m.21-5.56a2.56,2.56,0,0,0-.92.4,2.85,2.85,0,0,0-.79.86l.45.58a2.15,2.15,0,0,1,.59-.61,1.75,1.75,0,0,1,.69-.3.83.83,0,0,1,.78.19,1.34,1.34,0,0,1,.28.94V96l-.27,0c-.27.05-.56.13-.87.21a3.59,3.59,0,0,0-.88.43,2.34,2.34,0,0,0-.69.77,2.5,2.5,0,0,0-.28,1.24,1.82,1.82,0,0,0,.12.74,1.17,1.17,0,0,0,.34.5,1.18,1.18,0,0,0,.51.26,1.4,1.4,0,0,0,.61,0,1.55,1.55,0,0,0,.86-.46,3,3,0,0,0,.57-.87h0c0,.13,0,.27,0,.45a2.17,2.17,0,0,0,0,.45l.69-.14c0-.15,0-.32,0-.5a4.87,4.87,0,0,1,0-.54V96a3.17,3.17,0,0,0-.42-1.86,1.3,1.3,0,0,0-1.37-.37"/><path class="cls-76" d="M204.55,92.93a1.54,1.54,0,0,0-.59.23,1.93,1.93,0,0,0-.52.43,2.43,2.43,0,0,0-.37.63,2.28,2.28,0,0,0-.14.8,1.93,1.93,0,0,0,.12.75,1,1,0,0,0,.33.42,1.49,1.49,0,0,0,.48.21,3.33,3.33,0,0,0,.58.1l.33,0a1.34,1.34,0,0,1,.3.12.64.64,0,0,1,.2.23.8.8,0,0,1,.08.38,1,1,0,0,1-.09.44,1,1,0,0,1-.22.33,1,1,0,0,1-.31.24,1.6,1.6,0,0,1-.33.11.84.84,0,0,1-.64-.1,1.65,1.65,0,0,1-.46-.51l-.57.73a1.5,1.5,0,0,0,.72.75,1.56,1.56,0,0,0,1,.06,2.42,2.42,0,0,0,.62-.22,1.78,1.78,0,0,0,.55-.44A2.09,2.09,0,0,0,206,98a2.46,2.46,0,0,0,.15-.9,2,2,0,0,0-.11-.75,1.09,1.09,0,0,0-.3-.46,1.12,1.12,0,0,0-.44-.24,2.43,2.43,0,0,0-.55-.1,2.87,2.87,0,0,1-.41,0,1.14,1.14,0,0,1-.34-.12.65.65,0,0,1-.24-.19.53.53,0,0,1-.08-.32.81.81,0,0,1,.08-.38,1.08,1.08,0,0,1,.19-.31,1,1,0,0,1,.28-.2,1.31,1.31,0,0,1,.29-.11.68.68,0,0,1,.55.1,1,1,0,0,1,.36.45l.6-.67a1.21,1.21,0,0,0-.61-.72,1.27,1.27,0,0,0-.84-.1"/><polyline class="cls-76" points="207.88 88.71 207.16 88.85 207.11 98.66 207.82 98.52 207.84 95.33 209.96 98.12 211.01 97.92 208.74 95.04 210.83 91.88 209.81 92.08 207.84 95.13 207.88 88.71"/></g></g><path class="cls-73" d="M188,86.41l-.09,24.4-19.65-4.49.09-24.39Zm-19.48-4.2-.08,23.9,19.3,4.42.09-23.91-19.31-4.41"/></g></g><line class="cls-91" x1="216.08" y1="91.23" x2="332" y2="66.41"/><line class="cls-91" x1="115.38" y1="113.37" x2="173.76" y2="100.86"/><line class="cls-91" x1="215.2" y1="82.26" x2="234.85" y2="67.39"/><line class="cls-91" x1="271.97" y1="58.41" x2="296.27" y2="53.35"/><line class="cls-91" x1="69.49" y1="78.64" x2="141.82" y2="62.26"/></svg>