<svg id="Layer_1" data-name="Layer 1" xmlns="http://www.w3.org/2000/svg" xmlns:xlink="http://www.w3.org/1999/xlink" viewBox="0 0 357.41 141.82"><defs><style>.cls-1,.cls-29,.cls-30,.cls-31,.cls-53,.cls-54,.cls-60{fill:none;}.cls-2{isolation:isolate;}.cls-3{clip-path:url(#clip-path);}.cls-4{fill:#45328d;}.cls-5{clip-path:url(#clip-path-2);}.cls-6{clip-path:url(#clip-path-3);}.cls-7{clip-path:url(#clip-path-4);}.cls-8{fill:#eae7ef;}.cls-9{clip-path:url(#clip-path-5);}.cls-10{clip-path:url(#clip-path-6);}.cls-11{clip-path:url(#clip-path-7);}.cls-12{clip-path:url(#clip-path-8);}.cls-13{clip-path:url(#clip-path-9);}.cls-14{fill:#fff;}.cls-15{clip-path:url(#clip-path-10);}.cls-16{clip-path:url(#clip-path-11);}.cls-17{clip-path:url(#clip-path-12);}.cls-18{clip-path:url(#clip-path-13);}.cls-19{clip-path:url(#clip-path-14);}.cls-20{fill:#669;}.cls-21{clip-path:url(#clip-path-15);}.cls-22{fill:#358b59;}.cls-23{fill:#308253;}.cls-24{fill:#008a40;}.cls-25{fill:#009445;}.cls-26{fill:#2e8051;}.cls-27{fill:#00873e;}.cls-28{clip-path:url(#clip-path-16);}.cls-29,.cls-30,.cls-31,.cls-53,.cls-54{stroke:#939598;stroke-miterlimit:10;stroke-width:0.25px;}.cls-30{stroke-dasharray:2 1;}.cls-31{stroke-dasharray:2 1;}.cls-32{fill:#dfe0e4;}.cls-33{fill:#b1b3b8;}.cls-34{fill:#a3a6aa;}.cls-35{clip-path:url(#clip-path-17);}.cls-36{fill:#dddfe2;}.cls-37{fill:#dfe1e4;}.cls-38{fill:#b2b4b8;}.cls-39{fill:#a3a5a9;}.cls-40{clip-path:url(#clip-path-18);}.cls-41{clip-path:url(#clip-path-19);}.cls-42{fill:#acaeb2;}.cls-43{fill:#e0e1e5;}.cls-44{fill:#b1b4b8;}.cls-45{fill:#a1a3a8;}.cls-46{clip-path:url(#clip-path-20);}.cls-47{fill:#e3e4e7;}.cls-48{clip-path:url(#clip-path-21);}.cls-49{clip-path:url(#clip-path-22);}.cls-50{fill:#308353;}.cls-51{fill:#2e7f51;}.cls-52{clip-path:url(#clip-path-23);}.cls-53{stroke-dasharray:1.93 0.97;}.cls-54{stroke-dasharray:1.92 0.96;}.cls-55{fill:#acafb3;}.cls-56{fill:#a2a5a9;}.cls-57{clip-path:url(#clip-path-24);}.cls-58{fill:#e2e4e7;}.cls-59{clip-path:url(#clip-path-25);}.cls-60{stroke:#d83f88;stroke-linecap:round;stroke-linejoin:round;stroke-width:1.5px;stroke-dasharray:1 5;}</style><clipPath id="clip-path" transform="translate(-281.52 -103.84)"><path class="cls-1" d="M548.15,135.58l-.34,19.16a83.4,83.4,0,0,0-20.09-4,66.85,66.85,0,0,0-18.45.66l.33-19.17a67.38,67.38,0,0,1,18.46-.65A83.4,83.4,0,0,1,548.15,135.58Z"/></clipPath><clipPath id="clip-path-2" transform="translate(-281.52 -103.84)"><path class="cls-1" d="M637.87,170.54l-.33,19.16c-.49-2.17-3.82-4.46-9.39-6.43l.34-19.17C634.06,166.08,637.39,168.37,637.87,170.54Z"/></clipPath><clipPath id="clip-path-3" transform="translate(-281.52 -103.84)"><path class="cls-1" d="M637.93,171.12l-.33,19.16a2.93,2.93,0,0,0-.06-.58l.33-19.16A1.94,1.94,0,0,1,637.93,171.12Z"/></clipPath><clipPath id="clip-path-4" transform="translate(-281.52 -103.84)"><path class="cls-1" d="M637.93,171.12l-.33,19.16c0,1.9-2.42,3.47-6.8,4.46l.33-19.17C635.52,174.59,637.9,173,637.93,171.12Z"/></clipPath><clipPath id="clip-path-5" transform="translate(-281.52 -103.84)"><path class="cls-1" d="M638.93,171.14l-.34,19.16c0,2-2.53,3.62-7.15,4.66l.34-19.16C636.4,174.76,638.89,173.12,638.93,171.14Z"/></clipPath><clipPath id="clip-path-6" transform="translate(-281.52 -103.84)"><path class="cls-1" d="M282.51,205.5l.34-19.16c0-1.84,2.26-3.45,6.78-4.47L289.29,201C284.77,202.05,282.54,203.66,282.51,205.5Z"/></clipPath><clipPath id="clip-path-7" transform="translate(-281.52 -103.84)"><path class="cls-1" d="M282.51,205.5l.34-19.16c0,2.22,3.15,4.77,9.43,7l-.34,19.16C285.67,210.27,282.47,207.72,282.51,205.5Z"/></clipPath><clipPath id="clip-path-8" transform="translate(-281.52 -103.84)"><path class="cls-1" d="M281.52,205.48l.34-19.16c0,2.29,3.22,4.91,9.66,7.19l-.34,19.16C284.75,210.39,281.48,207.77,281.52,205.48Z"/></clipPath><clipPath id="clip-path-9" transform="translate(-281.52 -103.84)"><polygon class="cls-1" points="631.78 175.8 631.44 194.96 411.86 244.54 412.2 225.38 631.78 175.8"/></clipPath><clipPath id="clip-path-10" transform="translate(-281.52 -103.84)"><path class="cls-1" d="M386.91,244.44A76.35,76.35,0,0,1,372.29,241l.34-19.16a76.35,76.35,0,0,0,14.62,3.42Q387.07,234.85,386.91,244.44Z"/></clipPath><clipPath id="clip-path-11" transform="translate(-281.52 -103.84)"><path class="cls-1" d="M388,244.58l-1.07-.14q.16-9.58.34-19.16l1.06.14Z"/></clipPath><clipPath id="clip-path-12" transform="translate(-281.52 -103.84)"><path class="cls-1" d="M388,244.58l.33-19.16c1.45.19,2.92.34,4.4.46q-.16,9.59-.34,19.17C390.89,244.92,389.42,244.77,388,244.58Z"/></clipPath><clipPath id="clip-path-13" transform="translate(-281.52 -103.84)"><path class="cls-1" d="M411.22,244.31a67.18,67.18,0,0,1-18.85.74q.17-9.59.34-19.17h0q-.18,9.54-.34,19.1.17-9.56.34-19.1a67,67,0,0,0,18.82-.74C411.45,230.89,411.32,238.56,411.22,244.31Z"/></clipPath><clipPath id="clip-path-14" transform="translate(-281.52 -103.84)"><path class="cls-1" d="M412.2,225.38l-.34,19.16a69.81,69.81,0,0,1-19.71.78,84.59,84.59,0,0,1-20.62-4.13l.34-19.16a85,85,0,0,0,20.61,4.13A69.87,69.87,0,0,0,412.2,225.38Z"/></clipPath><clipPath id="clip-path-15" transform="translate(-281.52 -103.84)"><polygon class="cls-1" points="611.79 131.69 612.65 166.74 533 139.31 532.14 104.26 611.79 131.69"/></clipPath><clipPath id="clip-path-16" transform="translate(-281.52 -103.84)"><polygon class="cls-1" points="420.36 157.57 501.59 139.47 500.88 148.09 419.66 166.19 420.36 157.57"/></clipPath><clipPath id="clip-path-17" transform="translate(-281.52 -103.84)"><polygon class="cls-1" points="448.88 125.37 472.12 120.65 471.97 144.95 448.74 149.66 448.88 125.37"/></clipPath><clipPath id="clip-path-18" transform="translate(-281.52 -103.84)"><polygon class="cls-1" points="420.31 131.55 443.76 126.72 443.69 150.99 420.24 155.82 420.31 131.55"/></clipPath><clipPath id="clip-path-19" transform="translate(-281.52 -103.84)"><polygon class="cls-1" points="369.04 193.87 429.2 180.47 428.5 189.09 368.33 202.5 369.04 193.87"/></clipPath><clipPath id="clip-path-20" transform="translate(-281.52 -103.84)"><polygon class="cls-1" points="379.03 165.62 402.39 161.09 402.3 185.35 378.93 189.88 379.03 165.62"/></clipPath><clipPath id="clip-path-21" transform="translate(-281.52 -103.84)"><polygon class="cls-1" points="485.58 167.62 557.78 151.53 557.08 160.15 484.88 176.24 485.58 167.62"/></clipPath><clipPath id="clip-path-22" transform="translate(-281.52 -103.84)"><polygon class="cls-1" points="505.77 137.05 529.14 132.53 529.05 156.8 505.69 161.32 505.77 137.05"/></clipPath><clipPath id="clip-path-23" transform="translate(-281.52 -103.84)"><polygon class="cls-1" points="453.24 204.5 563.1 179.47 562.41 188.08 452.55 213.1 453.24 204.5"/></clipPath><clipPath id="clip-path-24" transform="translate(-281.52 -103.84)"><polygon class="cls-1" points="452.82 178.26 476.46 173.48 476.38 197.74 452.74 202.53 452.82 178.26"/></clipPath><clipPath id="clip-path-25" transform="translate(-281.52 -103.84)"><polygon class="cls-1" points="373.82 184.53 374.68 219.58 295.03 192.15 294.18 157.1 373.82 184.53"/></clipPath></defs><g id="base"><g class="cls-2"><g class="cls-2"><g class="cls-3"><g class="cls-2"><path class="cls-4" d="M548.15,135.58l-.34,19.16-.91-.31.34-19.16.91.31" transform="translate(-281.52 -103.84)"/><path class="cls-4" d="M547.24,135.27l-.34,19.16c-1-.34-2.11-.67-3.23-1l.34-19.16c1.12.31,2.2.64,3.23,1" transform="translate(-281.52 -103.84)"/><path class="cls-4" d="M544,134.29l-.34,19.16c-.87-.24-1.77-.46-2.69-.68l.34-19.16c.92.22,1.81.44,2.69.68" transform="translate(-281.52 -103.84)"/><path class="cls-4" d="M541.32,133.61,541,152.77c-.78-.18-1.58-.35-2.39-.52l.34-19.16c.81.17,1.61.34,2.39.52" transform="translate(-281.52 -103.84)"/><path class="cls-4" d="M538.93,133.09l-.34,19.16-2.19-.41.34-19.16,2.19.41" transform="translate(-281.52 -103.84)"/><path class="cls-4" d="M536.74,132.68l-.34,19.16-2-.34.33-19.16,2,.34" transform="translate(-281.52 -103.84)"/><path class="cls-4" d="M534.69,132.34l-.33,19.16c-.65-.1-1.29-.19-2-.27l.34-19.16c.65.08,1.3.17,1.94.27" transform="translate(-281.52 -103.84)"/><path class="cls-4" d="M532.75,132.07l-.34,19.16c-.61-.09-1.23-.16-1.86-.23l.34-19.16c.62.07,1.24.14,1.86.23" transform="translate(-281.52 -103.84)"/><path class="cls-4" d="M530.89,131.84,530.55,151l-1.8-.19.34-19.16,1.8.19" transform="translate(-281.52 -103.84)"/><path class="cls-4" d="M529.09,131.65l-.34,19.16-1-.09-.68-.05.34-19.16.68.05,1,.09" transform="translate(-281.52 -103.84)"/><path class="cls-4" d="M527.38,131.51,527,150.67l-1.65-.12.33-19.16,1.66.12" transform="translate(-281.52 -103.84)"/><path class="cls-4" d="M525.72,131.39l-.33,19.16-1.57-.08.33-19.16,1.57.08" transform="translate(-281.52 -103.84)"/><path class="cls-4" d="M524.15,131.31l-.33,19.16-1.5-.05.33-19.16,1.5.05" transform="translate(-281.52 -103.84)"/><path class="cls-4" d="M522.65,131.26l-.33,19.16-1.45,0,.34-19.16,1.44,0" transform="translate(-281.52 -103.84)"/><path class="cls-4" d="M521.21,131.24l-.34,19.16h-1.45l.34-19.16h1.45" transform="translate(-281.52 -103.84)"/><path class="cls-4" d="M519.76,131.24l-.34,19.16-1.57,0,.34-19.16,1.57,0" transform="translate(-281.52 -103.84)"/><path class="cls-4" d="M518.19,131.28l-.34,19.16c-.69,0-1.38.05-2,.09l.33-19.16c.67,0,1.35-.07,2.05-.09" transform="translate(-281.52 -103.84)"/><path class="cls-4" d="M516.14,131.37l-.33,19.16c-1.75.11-3.38.29-4.88.53l.34-19.16c1.5-.24,3.13-.42,4.87-.53" transform="translate(-281.52 -103.84)"/><path class="cls-4" d="M511.27,131.9l-.34,19.16c-.57.1-1.13.2-1.66.32l.33-19.17,1.67-.31" transform="translate(-281.52 -103.84)"/></g></g></g><polygon class="cls-4" points="346.97 60.27 346.63 79.43 266.29 50.91 266.63 31.75 346.97 60.27"/><g class="cls-2"><g class="cls-5"><g class="cls-2"><path class="cls-4" d="M637.87,170.54l-.33,19.16c-.49-2.17-3.82-4.46-9.39-6.43l.34-19.17c5.57,2,8.9,4.27,9.38,6.44" transform="translate(-281.52 -103.84)"/></g></g></g><g class="cls-2"><g class="cls-6"><g class="cls-2"><path class="cls-4" d="M637.93,171.12l-.33,19.16a2.93,2.93,0,0,0-.06-.58l.33-19.16a1.94,1.94,0,0,1,.06.58" transform="translate(-281.52 -103.84)"/></g></g></g><g class="cls-2"><g class="cls-7"><g class="cls-2"><path class="cls-8" d="M637.93,171.12l-.33,19.16s0,.09,0,.14l.34-19.17v-.13" transform="translate(-281.52 -103.84)"/><path class="cls-8" d="M637.93,171.25l-.34,19.17a2.3,2.3,0,0,1-.1.51l.34-19.16a3,3,0,0,0,.1-.52" transform="translate(-281.52 -103.84)"/><path class="cls-8" d="M637.83,171.77l-.34,19.16a2.78,2.78,0,0,1-.19.44l.34-19.16a2.78,2.78,0,0,0,.19-.44" transform="translate(-281.52 -103.84)"/><path class="cls-8" d="M637.64,172.21l-.34,19.16a2.48,2.48,0,0,1-.26.4l.34-19.16a3.42,3.42,0,0,0,.26-.4" transform="translate(-281.52 -103.84)"/><path class="cls-8" d="M637.38,172.61,637,191.77a3.68,3.68,0,0,1-.32.37l.33-19.16c.12-.12.23-.25.33-.37" transform="translate(-281.52 -103.84)"/><path class="cls-8" d="M637.05,173l-.33,19.16-.38.34.33-19.16a4.33,4.33,0,0,0,.38-.34" transform="translate(-281.52 -103.84)"/><path class="cls-8" d="M636.67,173.32l-.33,19.16-.44.32.34-19.16c.15-.11.3-.21.43-.32" transform="translate(-281.52 -103.84)"/><path class="cls-8" d="M636.24,173.64l-.34,19.16c-.15.1-.32.21-.5.31l.34-19.16c.18-.1.34-.21.5-.31" transform="translate(-281.52 -103.84)"/><path class="cls-8" d="M635.74,174l-.34,19.16-.57.3.34-19.16.57-.3" transform="translate(-281.52 -103.84)"/><path class="cls-8" d="M635.17,174.25l-.34,19.16-.66.3.34-19.17c.23-.09.45-.19.66-.29" transform="translate(-281.52 -103.84)"/><path class="cls-8" d="M634.51,174.54l-.34,19.17-.79.3.34-19.16c.27-.1.54-.2.79-.31" transform="translate(-281.52 -103.84)"/><path class="cls-8" d="M633.72,174.85,633.38,194c-.31.11-.65.21-1,.32l.34-19.16,1-.32" transform="translate(-281.52 -103.84)"/><path class="cls-8" d="M632.72,175.17l-.34,19.16c-.43.12-.88.24-1.36.35l.34-19.16c.48-.11.93-.23,1.36-.35" transform="translate(-281.52 -103.84)"/><path class="cls-8" d="M631.36,175.52,631,194.68l-.22.06.33-19.17.23,0" transform="translate(-281.52 -103.84)"/></g></g></g><g class="cls-2"><g class="cls-9"><g class="cls-2"><path class="cls-4" d="M638.93,171.14l-.34,19.16v.14l.33-19.16a.71.71,0,0,0,0-.14" transform="translate(-281.52 -103.84)"/><path class="cls-4" d="M638.92,171.28l-.33,19.16a2.38,2.38,0,0,1-.11.53l.34-19.16a2.36,2.36,0,0,0,.1-.53" transform="translate(-281.52 -103.84)"/><path class="cls-4" d="M638.82,171.81,638.48,191a2.07,2.07,0,0,1-.2.46l.34-19.16a2.67,2.67,0,0,0,.2-.46" transform="translate(-281.52 -103.84)"/><path class="cls-4" d="M638.62,172.27l-.34,19.16a2.13,2.13,0,0,1-.27.42l.34-19.16a3.74,3.74,0,0,0,.27-.42" transform="translate(-281.52 -103.84)"/><path class="cls-4" d="M638.35,172.69,638,191.85a3,3,0,0,1-.34.38l.34-19.16a3,3,0,0,0,.34-.38" transform="translate(-281.52 -103.84)"/><path class="cls-4" d="M638,173.07l-.34,19.16-.39.36.34-19.16.39-.36" transform="translate(-281.52 -103.84)"/><path class="cls-4" d="M637.62,173.43l-.34,19.16c-.14.11-.29.23-.46.34l.34-19.16.46-.34" transform="translate(-281.52 -103.84)"/><path class="cls-4" d="M637.16,173.77l-.34,19.16c-.16.11-.33.21-.52.32l.34-19.16.52-.32" transform="translate(-281.52 -103.84)"/><path class="cls-4" d="M636.64,174.09l-.34,19.16c-.19.11-.39.21-.6.31L636,174.4c.21-.1.41-.2.6-.31" transform="translate(-281.52 -103.84)"/><path class="cls-4" d="M636,174.4l-.34,19.16-.69.32.33-19.16.7-.32" transform="translate(-281.52 -103.84)"/><path class="cls-4" d="M635.34,174.72,635,193.88l-.83.31.33-19.16.83-.31" transform="translate(-281.52 -103.84)"/><path class="cls-4" d="M634.51,175l-.33,19.16c-.34.12-.69.23-1.06.34l.34-19.16c.37-.11.72-.22,1-.34" transform="translate(-281.52 -103.84)"/><path class="cls-4" d="M633.46,175.37l-.34,19.16c-.45.14-.93.26-1.44.38l.33-19.16c.51-.12,1-.25,1.45-.38" transform="translate(-281.52 -103.84)"/><path class="cls-4" d="M632,175.75l-.33,19.16-.24.05.34-19.16.23-.05" transform="translate(-281.52 -103.84)"/></g></g></g><polygon class="cls-4" points="228.08 28.38 227.75 47.54 7.77 97.19 8.11 78.03 228.08 28.38"/><g class="cls-2"><g class="cls-10"><g class="cls-2"><path class="cls-4" d="M289.63,181.87,289.29,201l-.2.05.34-19.16.2,0" transform="translate(-281.52 -103.84)"/><path class="cls-4" d="M289.43,181.92l-.34,19.16c-.48.11-.93.23-1.36.35l.34-19.16c.42-.12.88-.24,1.36-.35" transform="translate(-281.52 -103.84)"/><path class="cls-4" d="M288.07,182.27l-.34,19.16c-.35.1-.68.21-1,.32l.34-19.16c.31-.11.64-.22,1-.32" transform="translate(-281.52 -103.84)"/><path class="cls-4" d="M287.08,182.59l-.34,19.16-.78.3.34-19.16.78-.3" transform="translate(-281.52 -103.84)"/><path class="cls-4" d="M286.3,182.89,286,202.05l-.67.3.34-19.16.67-.3" transform="translate(-281.52 -103.84)"/><path class="cls-4" d="M285.63,183.19l-.34,19.16-.57.3.33-19.16.58-.3" transform="translate(-281.52 -103.84)"/><path class="cls-4" d="M285.05,183.49l-.33,19.16c-.18.1-.35.2-.51.31l.34-19.16c.16-.11.33-.21.5-.31" transform="translate(-281.52 -103.84)"/><path class="cls-4" d="M284.55,183.8,284.21,203c-.15.11-.3.21-.43.32l.33-19.16.44-.32" transform="translate(-281.52 -103.84)"/><path class="cls-4" d="M284.11,184.12l-.33,19.16c-.14.12-.27.23-.39.35l.34-19.16.38-.35" transform="translate(-281.52 -103.84)"/><path class="cls-4" d="M283.73,184.47l-.34,19.16a2.73,2.73,0,0,0-.32.37l.33-19.16a3.8,3.8,0,0,1,.33-.37" transform="translate(-281.52 -103.84)"/><path class="cls-4" d="M283.4,184.84,283.07,204a4.68,4.68,0,0,0-.27.4l.34-19.16a4.53,4.53,0,0,1,.26-.4" transform="translate(-281.52 -103.84)"/><path class="cls-4" d="M283.14,185.24l-.34,19.16a2.82,2.82,0,0,0-.18.45l.33-19.16a2.88,2.88,0,0,1,.19-.45" transform="translate(-281.52 -103.84)"/><path class="cls-4" d="M283,185.69l-.33,19.16a1.84,1.84,0,0,0-.1.51l.33-19.16a3.06,3.06,0,0,1,.1-.51" transform="translate(-281.52 -103.84)"/><path class="cls-4" d="M282.85,186.2l-.33,19.16a.66.66,0,0,0,0,.14l.34-19.16v-.14" transform="translate(-281.52 -103.84)"/></g></g></g><g class="cls-2"><g class="cls-11"><g class="cls-2"><path class="cls-8" d="M292.28,193.34l-.34,19.16c-6.27-2.23-9.47-4.78-9.43-7l.34-19.16c0,2.22,3.15,4.77,9.43,7" transform="translate(-281.52 -103.84)"/></g></g></g><g class="cls-2"><g class="cls-12"><g class="cls-2"><path class="cls-4" d="M291.52,193.51l-.34,19.16c-6.43-2.28-9.7-4.9-9.66-7.19l.34-19.16c0,2.29,3.22,4.91,9.66,7.19" transform="translate(-281.52 -103.84)"/></g></g></g><polygon class="cls-8" points="91.11 118.03 90.78 137.19 10.42 108.67 10.76 89.51 91.11 118.03"/><polygon class="cls-4" points="90.35 118.2 90.01 137.36 9.66 108.84 10 89.68 90.35 118.2"/><polygon class="cls-8" points="349.61 71.74 349.28 90.9 129.7 140.47 130.03 121.31 349.61 71.74"/><polygon class="cls-4" points="350.26 71.97 349.92 91.13 130.34 140.7 130.68 121.54 350.26 71.97"/><g class="cls-2"><g class="cls-13"><path class="cls-14" d="M511.22,206a6,6,0,0,0-3.32,1.89,4.87,4.87,0,0,0-1.21,3.29l-.08,7.7,1.21-.29.05-5,5.45-1.29v-1.07l-5.45,1.29v-1.64a3.66,3.66,0,0,1,.86-2.44,4.55,4.55,0,0,1,2.51-1.38,4.07,4.07,0,0,1,2.83.17l.45-1.13a5,5,0,0,0-3.32-.13" transform="translate(-281.52 -103.84)"/><path class="cls-14" d="M517.57,203.84l-1.15.28-.1,10a2,2,0,0,0,.61,1.7,1.93,1.93,0,0,0,1.78.24,3.67,3.67,0,0,0,1-.42l-.07-1a2.3,2.3,0,0,1-.78.33,1.12,1.12,0,0,1-1.08-.15,1.45,1.45,0,0,1-.34-1.11l.09-9.87" transform="translate(-281.52 -103.84)"/><path class="cls-14" d="M529.16,204.69,528,205l0,4.61a4.12,4.12,0,0,1-.81,2.54,3.72,3.72,0,0,1-2.15,1.35,2.08,2.08,0,0,1-1.9-.26,2.42,2.42,0,0,1-.65-2l0-5-1.16.28-.05,5.1a3,3,0,0,0,1,2.58,3,3,0,0,0,2.64.34,4.71,4.71,0,0,0,1.83-.88,4.6,4.6,0,0,0,1.27-1.54l0,1.6,1.11-.26.09-8.8" transform="translate(-281.52 -103.84)"/><polyline class="cls-14" points="258.11 98.37 256.96 98.64 253.64 106.91 250.5 100.18 249.29 100.46 253.01 108.35 254.2 108.07 258.11 98.37"/><path class="cls-14" d="M542.42,201.54l-1.17.28-.08,8.79,1.16-.28.09-8.79m-.54-3.47a1,1,0,0,0-.6.39,1.07,1.07,0,0,0-.26.64.66.66,0,0,0,.24.55.69.69,0,0,0,.6.11,1.11,1.11,0,0,0,.61-.4,1,1,0,0,0,.25-.68.63.63,0,0,0-.24-.52.71.71,0,0,0-.6-.09" transform="translate(-281.52 -103.84)"/><path class="cls-14" d="M549.08,207.76a2.88,2.88,0,0,1-1.63,0,2.07,2.07,0,0,1-1.14-.94,3.28,3.28,0,0,1-.4-1.69,4.52,4.52,0,0,1,.44-1.89,4.24,4.24,0,0,1,1.15-1.49,4.11,4.11,0,0,1,1.65-.81,2.89,2.89,0,0,1,1.63,0,2.13,2.13,0,0,1,1.13.94,3.34,3.34,0,0,1,.38,1.7,4.35,4.35,0,0,1-.42,1.89,4.29,4.29,0,0,1-1.15,1.48,4.07,4.07,0,0,1-1.64.81m.08-7.89a5.77,5.77,0,0,0-2.25,1.1,5.87,5.87,0,0,0-1.57,2,5.37,5.37,0,0,0-.6,2.45,3.85,3.85,0,0,0,.55,2.17,2.89,2.89,0,0,0,1.55,1.22,4,4,0,0,0,2.23,0,5.68,5.68,0,0,0,2.24-1.11,5.88,5.88,0,0,0,1.57-2,5.59,5.59,0,0,0,.59-2.44,3.91,3.91,0,0,0-.54-2.17,2.78,2.78,0,0,0-1.54-1.22,4.08,4.08,0,0,0-2.23,0" transform="translate(-281.52 -103.84)"/></g></g><g class="cls-2"><g class="cls-15"><g class="cls-2"><path class="cls-8" d="M388,225.38l-.34,19.16c-.65-.08-1.29-.18-1.93-.27l.33-19.16,1.94.27" transform="translate(-281.52 -103.84)"/><path class="cls-8" d="M386.08,225.11l-.33,19.16-2-.34.33-19.16,2,.34" transform="translate(-281.52 -103.84)"/><path class="cls-8" d="M384,224.77l-.33,19.16-2.19-.41.34-19.16,2.18.41" transform="translate(-281.52 -103.84)"/><path class="cls-8" d="M381.86,224.36l-.34,19.16c-.81-.17-1.61-.34-2.39-.52l.34-19.16c.78.18,1.58.35,2.39.52" transform="translate(-281.52 -103.84)"/><path class="cls-8" d="M379.47,223.84,379.13,243c-.92-.22-1.81-.44-2.68-.68l.33-19.16c.87.24,1.77.46,2.69.68" transform="translate(-281.52 -103.84)"/><path class="cls-8" d="M376.78,223.16l-.33,19.16c-1.13-.31-2.21-.64-3.25-1l.34-19.16c1,.34,2.12.67,3.24,1" transform="translate(-281.52 -103.84)"/><path class="cls-8" d="M373.54,222.18l-.34,19.16-.91-.32.34-19.16.91.32" transform="translate(-281.52 -103.84)"/></g></g></g><g class="cls-2"><g class="cls-16"><g class="cls-2"><path class="cls-8" d="M389.87,225.61l-.34,19.16-1.85-.23.34-19.16,1.85.23" transform="translate(-281.52 -103.84)"/><path class="cls-8" d="M388,225.38l-.34,19.16c-.65-.08-1.29-.18-1.93-.27l.33-19.16,1.94.27" transform="translate(-281.52 -103.84)"/></g></g></g><g class="cls-2"><g class="cls-17"><g class="cls-2"><path class="cls-8" d="M393.39,225.94l-.34,19.16-.68,0-1.05-.1.34-19.16c.35,0,.7.07,1,.09l.68.06" transform="translate(-281.52 -103.84)"/><path class="cls-8" d="M391.66,225.79,391.32,245c-.6,0-1.19-.12-1.79-.18l.34-19.16c.59.06,1.19.13,1.79.18" transform="translate(-281.52 -103.84)"/><path class="cls-8" d="M389.87,225.61l-.34,19.16-1.85-.23.34-19.16,1.85.23" transform="translate(-281.52 -103.84)"/></g></g></g><g class="cls-2"><g class="cls-18"><g class="cls-2"><path class="cls-8" d="M411.55,225.15l-.33,19.16q-.93.19-1.92.36l.34-19.16c.65-.11,1.29-.23,1.91-.36" transform="translate(-281.52 -103.84)"/><path class="cls-8" d="M409.64,225.51l-.34,19.16c-1.6.26-3.31.44-5.11.56l.33-19.16c1.8-.12,3.51-.3,5.12-.56" transform="translate(-281.52 -103.84)"/><path class="cls-8" d="M404.52,226.07l-.33,19.16c-.68,0-1.38.08-2.08.1l.34-19.16,2.07-.1" transform="translate(-281.52 -103.84)"/><path class="cls-8" d="M402.45,226.17l-.34,19.16c-.51,0-1,0-1.56,0l.34-19.16,1.56,0" transform="translate(-281.52 -103.84)"/><path class="cls-8" d="M400.89,226.2l-.34,19.16h-1.42l.34-19.16c.48,0,.95,0,1.42,0" transform="translate(-281.52 -103.84)"/><path class="cls-8" d="M399.47,226.2l-.34,19.16-1.42,0,.34-19.16,1.42,0" transform="translate(-281.52 -103.84)"/><path class="cls-8" d="M398.05,226.18l-.34,19.16-1.47-.05.34-19.16,1.47.05" transform="translate(-281.52 -103.84)"/><path class="cls-8" d="M396.58,226.13l-.34,19.16-1.54-.08.33-19.16,1.55.08" transform="translate(-281.52 -103.84)"/><path class="cls-8" d="M395,226.05l-.33,19.16-1.65-.11.34-19.16,1.64.11" transform="translate(-281.52 -103.84)"/><path class="cls-8" d="M393.39,225.94l-.34,19.16-.68,0-1.05-.1.34-19.16c.35,0,.7.07,1,.09l.68.06" transform="translate(-281.52 -103.84)"/></g></g></g><path class="cls-8" d="M509.22,132.3a67.07,67.07,0,0,1,18.84-.74,83.4,83.4,0,0,1,20.09,4l80.34,28.52c5.57,2,8.9,4.27,9.38,6.44s-1.91,4-6.74,5L411.55,225.15a66.77,66.77,0,0,1-18.84.73,82.36,82.36,0,0,1-20.08-4l-80.35-28.52c-11.46-4.07-12.65-9.21-2.65-11.47Z" transform="translate(-281.52 -103.84)"/><path class="cls-4" d="M629.25,163.93c5.71,2,9.13,4.37,9.62,6.61s-2,4.12-7.09,5.26L412.2,225.38a69.87,69.87,0,0,1-19.72.78A85,85,0,0,1,371.87,222l-80.35-28.52c-11.82-4.19-12.95-9.52-2.53-11.87l219.59-49.57a69.44,69.44,0,0,1,19.71-.78,84.71,84.71,0,0,1,20.62,4.12Zm8.62,6.61c-.48-2.17-3.81-4.46-9.38-6.44l-80.34-28.52a83.4,83.4,0,0,0-20.09-4,67.38,67.38,0,0,0-18.46.65l-220,49.66c-10,2.26-8.81,7.4,2.65,11.47l80.35,28.52a82.36,82.36,0,0,0,20.08,4,66.79,66.79,0,0,0,18.43-.64l220-49.66c4.83-1.09,7.22-2.88,6.74-5" transform="translate(-281.52 -103.84)"/><g class="cls-2"><g class="cls-19"><g class="cls-2"><path class="cls-4" d="M412.2,225.38l-.34,19.16c-.66.14-1.33.26-2,.38l.34-19.16c.69-.12,1.37-.24,2-.38" transform="translate(-281.52 -103.84)"/><path class="cls-4" d="M410.17,225.76l-.34,19.16c-1.69.27-3.49.47-5.38.59l.34-19.16c1.89-.12,3.69-.32,5.38-.59" transform="translate(-281.52 -103.84)"/><path class="cls-4" d="M404.79,226.35l-.34,19.16c-.72.05-1.44.08-2.18.1l.33-19.16c.74,0,1.47-.06,2.19-.1" transform="translate(-281.52 -103.84)"/><path class="cls-4" d="M402.6,226.45l-.33,19.16-1.63,0,.34-19.16,1.62,0" transform="translate(-281.52 -103.84)"/><path class="cls-4" d="M401,226.49l-.34,19.16h-1.48l.34-19.16H401" transform="translate(-281.52 -103.84)"/><path class="cls-4" d="M399.5,226.49l-.34,19.16-1.47,0,.33-19.16,1.48,0" transform="translate(-281.52 -103.84)"/><path class="cls-4" d="M398,226.47l-.33,19.16-1.53-.06.34-19.16,1.52.06" transform="translate(-281.52 -103.84)"/><path class="cls-4" d="M396.5,226.41l-.34,19.16c-.52,0-1.06,0-1.59-.08l.33-19.16,1.6.08" transform="translate(-281.52 -103.84)"/><path class="cls-4" d="M394.9,226.33l-.33,19.16-1.7-.11.34-19.16,1.69.11" transform="translate(-281.52 -103.84)"/><path class="cls-4" d="M393.21,226.22l-.34,19.16-.72-.06-1.07-.09.34-19.16,1.06.09.73.06" transform="translate(-281.52 -103.84)"/><path class="cls-4" d="M391.42,226.07l-.34,19.16-1.85-.2.34-19.16,1.85.2" transform="translate(-281.52 -103.84)"/><path class="cls-4" d="M389.57,225.87,389.23,245l-1.91-.23.33-19.16,1.92.23" transform="translate(-281.52 -103.84)"/><path class="cls-4" d="M387.65,225.64l-.33,19.16-2-.28.34-19.16,2,.28" transform="translate(-281.52 -103.84)"/><path class="cls-4" d="M385.66,225.36l-.34,19.16-2.1-.35.34-19.16,2.1.35" transform="translate(-281.52 -103.84)"/><path class="cls-4" d="M383.56,225l-.34,19.16q-1.14-.19-2.25-.42l.34-19.16q1.11.22,2.25.42" transform="translate(-281.52 -103.84)"/><path class="cls-4" d="M381.31,224.59,381,243.75c-.83-.17-1.65-.35-2.45-.54l.34-19.16c.8.19,1.62.37,2.45.54" transform="translate(-281.52 -103.84)"/><path class="cls-4" d="M378.86,224.05l-.34,19.16c-.94-.22-1.86-.45-2.75-.69l.33-19.16q1.35.36,2.76.69" transform="translate(-281.52 -103.84)"/><path class="cls-4" d="M376.1,223.36l-.33,19.16c-1.15-.32-2.26-.65-3.32-1l.34-19.16c1,.36,2.16.69,3.31,1" transform="translate(-281.52 -103.84)"/><path class="cls-4" d="M372.79,222.35l-.34,19.16-.92-.32.34-19.16.92.32" transform="translate(-281.52 -103.84)"/></g></g></g></g></g><g id="receive"><g class="cls-2"><polygon class="cls-20" points="250.62 0.42 252.48 0.27 253.34 35.32 251.48 35.48 250.62 0.42"/><polygon class="cls-20" points="251.48 35.48 253.34 35.32 332.99 62.75 331.13 62.9 251.48 35.48"/><polygon class="cls-4" points="250.62 0.42 252.48 0.27 332.13 27.7 330.27 27.85 250.62 0.42"/><polygon class="cls-4" points="330.27 27.85 332.13 27.7 332.99 62.75 331.13 62.9 330.27 27.85"/><path class="cls-20" d="M532,104l79.84,27.49.87,35.54-79.84-27.49Zm80.61,62.75-.86-35.05-79.65-27.43.86,35.05,79.65,27.43" transform="translate(-281.52 -103.84)"/><polygon class="cls-4" points="330.27 27.85 331.13 62.9 251.48 35.48 250.62 0.42 330.27 27.85"/><g class="cls-2"><g class="cls-21"><path class="cls-14" d="M560.49,134.36c.57.19.8,0,.78-.63,0-.37-.08-.66-1-1.15a2.14,2.14,0,0,1-1.22-2.13c0-1.14.41-1.66,1.17-1.4s1.29,1.06,1.38,2.44a.5.5,0,0,1,0,.12l0,0-.35-.12a.21.21,0,0,1-.08-.15c-.1-.8-.31-1.13-.86-1.32s-.67.22-.67.56.11.56.94,1.08a2.2,2.2,0,0,1,1.25,2.18c0,1.24-.44,1.78-1.29,1.49a2.54,2.54,0,0,1-1.46-2.58c0-.08,0-.16.08-.14l.34.12s.08.08.08.17c.07.76.24,1.18.94,1.43m-2.37,2.45c-.16-.05-.28-.1-.63-.57l-.72-1.09a2.35,2.35,0,0,1-.31-1.13l-.15-6.51a1.29,1.29,0,0,1,.25-.94l2.59-2.35a.25.25,0,0,1,.27,0,.63.63,0,0,1,.29.24l2.74,4.19a2.25,2.25,0,0,1,.31,1.13l.16,6.52a1.28,1.28,0,0,1-.26.93l-2.58,2.35a.35.35,0,0,1-.28,0,.65.65,0,0,1-.29-.25l-.91-1.42c-.14-.21-.07-.24,0-.26a.88.88,0,0,0,.39-.24h0s0,0,0,.05l.7,1.09,0,0h0l2.59-2.34a.24.24,0,0,0,0-.14l-.16-6.52a.27.27,0,0,0,0-.17l-2.75-4.17,0,0h0l-2.58,2.33s0,.09,0,.14l.16,6.52a.31.31,0,0,0,0,.17l.75,1.14a.66.66,0,0,0,.29.26c.22.08.35-.24.34-.6l-.16-6.43c0-.09,0-.16.08-.15l.34.12s.08.1.08.2l.16,6.43c0,1.12-.24,1.67-.74,1.5m1.3-14.93c-2.76-.95-4.89,2.82-4.76,8.41s2.49,10.89,5.26,11.84,4.89-2.8,4.75-8.4-2.49-10.89-5.25-11.85" transform="translate(-281.52 -103.84)"/><path class="cls-4" d="M560.26,129.05c-.76-.26-1.2.26-1.17,1.4a2.14,2.14,0,0,0,1.22,2.13c.88.49,1,.78,1,1.15,0,.64-.21.82-.78.63s-.87-.67-.94-1.43c0-.09,0-.16-.08-.17l-.34-.12s-.08.06-.08.14a2.54,2.54,0,0,0,1.46,2.58c.85.29,1.31-.25,1.29-1.49a2.2,2.2,0,0,0-1.25-2.18c-.83-.52-.93-.67-.94-1.08s.06-.77.67-.56.76.52.86,1.32a.21.21,0,0,0,.08.15l.35.12,0,0a.5.5,0,0,0,0-.12c-.09-1.38-.53-2.15-1.38-2.44m-.84-4.88a.25.25,0,0,0-.27,0l-2.59,2.35a1.29,1.29,0,0,0-.25.94l.15,6.51a2.35,2.35,0,0,0,.31,1.13l.72,1.09c.35.47.47.52.63.57.5.17.77-.38.74-1.5l-.16-6.43c0-.1,0-.19-.08-.2l-.34-.12s-.08.06-.08.15l.16,6.43c0,.36-.12.68-.34.6a.66.66,0,0,1-.29-.26l-.75-1.14a.31.31,0,0,1,0-.17l-.16-6.52c0-.05,0-.12,0-.14l2.58-2.33h0l0,0,2.75,4.17a.27.27,0,0,1,0,.17l.16,6.52a.24.24,0,0,1,0,.14l-2.59,2.34h0l0,0-.7-1.09s0,0,0-.05h0a.88.88,0,0,1-.39.24s-.11.05,0,.26l.91,1.42a.65.65,0,0,0,.29.25.35.35,0,0,0,.28,0l2.58-2.35a1.28,1.28,0,0,0,.26-.93l-.16-6.52a2.25,2.25,0,0,0-.31-1.13l-2.74-4.19a.63.63,0,0,0-.29-.24" transform="translate(-281.52 -103.84)"/><path class="cls-14" d="M582.81,146.66a4.9,4.9,0,0,0,1.66.38,1.22,1.22,0,0,0,1-.55,0,0,0,0,1,0,0l0,0a.33.33,0,0,1,0,.15,1,1,0,0,1-.94,1,4.44,4.44,0,0,1-1.52-.25,6.66,6.66,0,0,1-1.92-1.07.22.22,0,0,1-.05-.16c0-.06,0-.1.06-.09h0s.78.33,1.58.61m-.39-.32c-1.75-.61-2.14-1.15-2.28-1.51a1.39,1.39,0,0,1-.08-.46c0-.52.58-.46,1.06-.36l.07,0h0a.13.13,0,0,1,.06.13c0,.07,0,.13,0,.13-.3,0-.57.11-.61.21a4.5,4.5,0,0,0,2,1.17,3.94,3.94,0,0,0,.51.14c1.19.29,1.9.11,2,0a.17.17,0,0,0,0-.14.25.25,0,0,1,0-.17s0,0,0,0l0,0a1,1,0,0,1,.12.41.65.65,0,0,1,0,.35c-.17.35-1.08.68-2.8.09m.31-1.38-.21-.09a1.9,1.9,0,0,1-1.08-1,1,1,0,0,1-.07-.42c0-.47.37-.39.41-.38a.16.16,0,0,1,.07.12.19.19,0,0,1,0,.14v0a2.48,2.48,0,0,0,.86.51l.26.06a2.91,2.91,0,0,0,.62,0l0,0,.4.63a.25.25,0,0,1,0,.13.15.15,0,0,1,0,.1,1.53,1.53,0,0,1-1.27.08m-.38-1.85a1,1,0,0,1-.21-.09c-.45-.22-1-.65-1-1.15a.45.45,0,0,1,.43-.5h0s.05.05.06.11,0,.13,0,.15a.14.14,0,0,0-.08.1v0a1.68,1.68,0,0,0,.81.48,3,3,0,0,0,.6.14,2.66,2.66,0,0,0,.78,0l0,0,.32.56a.33.33,0,0,1,0,.15s0,.08,0,.08a4,4,0,0,1-1.72-.09m-.23-1.6a2.22,2.22,0,0,1-1.52-1.2,1,1,0,0,1-.05-.45c.09-.6,1.05-.3,1.24-.24,0,0,.06.07.06.14s0,.12,0,.13c-.32,0-.58.15-.62.26a2.93,2.93,0,0,0,1.09.55,4.29,4.29,0,0,0,1.91.3h0a.17.17,0,0,1,.06.09.28.28,0,0,1,0,.16s-.49.72-1.79.37l-.35-.11m2.26,2.13a.16.16,0,0,1-.06-.1.25.25,0,0,1,0-.16,2.6,2.6,0,0,0,.72-1.61,1.09,1.09,0,0,0-.64-.92.12.12,0,0,1-.06-.11.18.18,0,0,1,0-.14.58.58,0,0,1,.53-.11c.23.07.52.37.63,1.37.17,1.62-1.09,1.77-1.15,1.78h0m-1.32-2.93,0-.05a.29.29,0,0,1,0-.16,3.28,3.28,0,0,0,.08-1,2.73,2.73,0,0,0-.13-.42,5.62,5.62,0,0,1-.37-1.92,2.41,2.41,0,0,1,1.39-2h0a.17.17,0,0,1,.06.09.21.21,0,0,1,0,.16,6.23,6.23,0,0,0-.83,1.44,2,2,0,0,0,.11,1.2,5.7,5.7,0,0,1,.23,1,2.39,2.39,0,0,1-.44,1.72h0m-.49-.75,0,0c0-.1-1.22-2.33-.89-3.9a3.48,3.48,0,0,1,.9-1.75,2.14,2.14,0,0,0,.52-.86,5.38,5.38,0,0,0,.11-1.7c0-.07,0-.12,0-.14h0a.14.14,0,0,1,.06.07,5.38,5.38,0,0,1,.11,2.66,4.49,4.49,0,0,1-.7,1.31,2.21,2.21,0,0,0-.54,1.18,17.92,17.92,0,0,0,.46,3,.18.18,0,0,1,0,.15l0,0m.11-10.07c-2.76-.95-4.89,2.82-4.76,8.41s2.49,10.89,5.26,11.84,4.89-2.8,4.76-8.4-2.49-10.89-5.26-11.85" transform="translate(-281.52 -103.84)"/><path class="cls-4" d="M583.23,131.57h0s0,.07,0,.14a5.38,5.38,0,0,1-.11,1.7,2.14,2.14,0,0,1-.52.86,3.48,3.48,0,0,0-.9,1.75c-.33,1.57.84,3.8.89,3.9l0,0,0,0a.18.18,0,0,0,0-.15,17.92,17.92,0,0,1-.46-3,2.21,2.21,0,0,1,.54-1.18,4.49,4.49,0,0,0,.7-1.31,5.38,5.38,0,0,0-.11-2.66.14.14,0,0,0-.06-.07" transform="translate(-281.52 -103.84)"/><path class="cls-4" d="M584,135.11h0a2.41,2.41,0,0,0-1.39,2,5.62,5.62,0,0,0,.37,1.92,2.73,2.73,0,0,1,.13.42,3.28,3.28,0,0,1-.08,1,.29.29,0,0,0,0,.16l0,.05h0a2.39,2.39,0,0,0,.44-1.72,5.7,5.7,0,0,0-.23-1,2,2,0,0,1-.11-1.2,6.23,6.23,0,0,1,.83-1.44.21.21,0,0,0,0-.16.17.17,0,0,0-.06-.09" transform="translate(-281.52 -103.84)"/><path class="cls-4" d="M581.79,139.62c-.19-.06-1.15-.36-1.24.24a1,1,0,0,0,.05.45,2.22,2.22,0,0,0,1.52,1.2l.35.11c1.3.35,1.77-.34,1.79-.37a.28.28,0,0,0,0-.16.17.17,0,0,0-.06-.09h0a4.29,4.29,0,0,1-1.91-.3,2.93,2.93,0,0,1-1.09-.55c0-.11.3-.24.62-.26,0,0,.05-.06,0-.13s0-.13-.06-.14" transform="translate(-281.52 -103.84)"/><path class="cls-4" d="M584.91,140.49a.58.58,0,0,0-.53.11.18.18,0,0,0,0,.14.12.12,0,0,0,.06.11,1.09,1.09,0,0,1,.64.92,2.6,2.6,0,0,1-.72,1.61.25.25,0,0,0,0,.16.16.16,0,0,0,.06.1h0c.06,0,1.32-.16,1.15-1.78-.11-1-.4-1.3-.63-1.37" transform="translate(-281.52 -103.84)"/><path class="cls-4" d="M581.56,141.38h0a.45.45,0,0,0-.43.5c0,.5.58.93,1,1.15a1,1,0,0,0,.21.09,4,4,0,0,0,1.72.09s0,0,0-.08a.33.33,0,0,0,0-.15l-.32-.56,0,0a2.66,2.66,0,0,1-.78,0,3,3,0,0,1-.6-.14,1.68,1.68,0,0,1-.81-.48v0a.14.14,0,0,1,.08-.1s0-.08,0-.15,0-.11-.06-.11" transform="translate(-281.52 -103.84)"/><path class="cls-4" d="M581.78,143.11s-.4-.09-.41.38a1,1,0,0,0,.07.42,1.9,1.9,0,0,0,1.08,1l.21.09a1.53,1.53,0,0,0,1.27-.08.15.15,0,0,0,0-.1.25.25,0,0,0,0-.13l-.4-.63,0,0a2.91,2.91,0,0,1-.62,0l-.26-.06a2.48,2.48,0,0,1-.86-.51v0a.19.19,0,0,0,0-.14.16.16,0,0,0-.07-.12" transform="translate(-281.52 -103.84)"/><path class="cls-4" d="M581.2,144h0l-.07,0c-.48-.1-1-.16-1.06.36a1.39,1.39,0,0,0,.08.46c.14.36.53.9,2.28,1.51s2.63.26,2.8-.09a.65.65,0,0,0,0-.35,1,1,0,0,0-.12-.41l0,0s0,0,0,0a.25.25,0,0,0,0,.17.17.17,0,0,1,0,.14c-.07.12-.78.3-2,0a3.94,3.94,0,0,1-.51-.14,4.5,4.5,0,0,1-2-1.17c0-.1.31-.2.61-.21,0,0,0-.06,0-.13a.13.13,0,0,0-.06-.13" transform="translate(-281.52 -103.84)"/><path class="cls-4" d="M585.53,146.46a0,0,0,0,0,0,0,1.22,1.22,0,0,1-1,.55,4.9,4.9,0,0,1-1.66-.38c-.8-.28-1.57-.61-1.58-.61h0s-.06,0-.06.09a.22.22,0,0,0,.05.16,6.66,6.66,0,0,0,1.92,1.07,4.44,4.44,0,0,0,1.52.25,1,1,0,0,0,.94-1,.33.33,0,0,0,0-.15l0,0" transform="translate(-281.52 -103.84)"/><path class="cls-14" d="M572.93,140.82c-.1,0-.18.08-.2.28a.74.74,0,0,0,.18.57l0,0c.09,0,.18-.08.2-.27a.75.75,0,0,0-.18-.58l0,0m-3.09-1.08h-.05c-.1,0-.17.22-.14.47s.11.38.21.41h0c.12,0,.18-.23.15-.47s-.12-.38-.21-.41m1.54-3-.66-.22,0,1,.61.21a.07.07,0,0,1,0,.07l0,1.56c0,.05,0,.05,0,0l-2.1-.72c.08.22.15.43.24.63l.42-.05h0a.45.45,0,0,1,.2.38l.13,1.07a2.38,2.38,0,0,0,1.09.88,1.17,1.17,0,0,0,1.05-.12l.08-1c0-.19.09-.28.18-.25l0,0,.45.36a4.11,4.11,0,0,0,.22-.51h0l-1-.36c-.17-.06-.34-.63-.39-.89s-.12-1-.15-1.2c-.1-.74-.37-.87-.43-.9m.15-2.44-.87-.3,0,1,.8.28c.17.06.37,0,.36-.35a.74.74,0,0,0-.32-.65m-2-.72-.36-.12.1.47c0,.22,0,.43-.09.5l-.43.26c0,.19,0,.38,0,.58a12.6,12.6,0,0,0,.14,1.53l.73.25-.08-3.47m4.21,1.37c-.08,0-.16,0-.19.19a.91.91,0,0,0,.12.63l.08.06c.09,0,.16-.05.19-.2a.8.8,0,0,0-.12-.62s0-.06-.08-.06m-5-1.74a.08.08,0,0,0-.08,0,.6.6,0,0,0-.09.55.45.45,0,0,0,.2.33.08.08,0,0,0,.08,0,.6.6,0,0,0,.09-.55.45.45,0,0,0-.2-.33m2.89-2.25-.34.6c0,.07-.08.09-.12.07s-.1-.07-.15-.17l-.33-.82c-.57,0-1.05.48-1.4,1.22l2.73.94a1.29,1.29,0,0,1,.56.58,3.24,3.24,0,0,1,.44,1.57,1.78,1.78,0,0,1-.49,1.36,3.62,3.62,0,0,1,.46,1.63.51.51,0,0,0,.27.39h0c.14,0,.3-.06.29-.66v-.26s0-.09,0-.08l.26.09c0-.13,0-.27,0-.4s0-.36,0-.56l-.49-.61a.79.79,0,0,1-.11-.57l.22-1.08a6.1,6.1,0,0,0-1.83-3.25m-.49-.89c-.06,0-.11,0-.15.08a.83.83,0,0,0,0,.62c0,.1.1.17.16.19s.1,0,.14-.08a.88.88,0,0,0,0-.62.31.31,0,0,0-.15-.19m-.37-.68h.09l.17-.57c0-.05.05-.08.08-.07s.07.06.09.13l.2.69.08,0,.22-.45a.06.06,0,0,1,.08,0h0a.2.2,0,0,1,.08.16l.14.73.08.08.27-.33s0,0,.06,0l0,0a.47.47,0,0,1,.07.19l.07.74a1,1,0,0,1,.08.11l.31-.19h0a.17.17,0,0,1,.06.06.65.65,0,0,1,0,.21v.72c0,.05.05.09.07.14l.33-.05h0a.19.19,0,0,1,.07.08.49.49,0,0,1,0,.21l-.06.68c0,.05,0,.1,0,.16l.35.1a.17.17,0,0,1,.09.12.52.52,0,0,1,0,.21l-.13.62c0,.07,0,.12,0,.18l.34.24a.22.22,0,0,1,.09.15.43.43,0,0,1,0,.2l-.18.53c0,.07,0,.12,0,.19l.34.37a.27.27,0,0,1,.06.18.26.26,0,0,1,0,.18l-.24.42a1,1,0,0,1,0,.18l.31.49a.4.4,0,0,1,.06.21.25.25,0,0,1,0,.16l-.28.28a1,1,0,0,0,0,.18l.26.58a.52.52,0,0,1,0,.21c0,.08,0,.13-.06.14l-.32.15c0,.06,0,.11,0,.17l.22.66a.55.55,0,0,1,0,.22c0,.05,0,.09-.07.09h-.34a.66.66,0,0,1,0,.15l.16.72a.49.49,0,0,1,0,.21c0,.05-.06.07-.09.06l-.35-.14,0,.12.1.74a.33.33,0,0,1,0,.18s0,0-.07,0h0l-.34-.29-.06.1,0,.73a.22.22,0,0,1,0,.17,0,0,0,0,1-.06,0s0,0,0,0l-.33-.41a.18.18,0,0,0-.07,0l0,.71c0,.07,0,.13-.06.14h0a.17.17,0,0,1-.06-.06l-.29-.53-.08,0-.11.65c0,.06,0,.1-.07.1h0s0,0-.07-.09l-.25-.62a.27.27,0,0,1-.09,0l-.16.56c0,.06,0,.09-.08.08a.21.21,0,0,1-.09-.14l-.2-.69a.25.25,0,0,1-.08,0l-.23.46s0,0-.07,0h0a.2.2,0,0,1-.08-.16l-.14-.73a.6.6,0,0,1-.08-.08l-.27.33s0,0-.06,0l0,0a.42.42,0,0,1-.07-.19l-.07-.74a1,1,0,0,1-.08-.11l-.31.19h0a.17.17,0,0,1-.06-.06.59.59,0,0,1,0-.2v-.73c0-.05-.05-.09-.07-.14l-.33.05h0a.19.19,0,0,1-.07-.08.71.71,0,0,1,0-.21l.06-.68c0-.05,0-.1-.05-.16l-.35-.1a.17.17,0,0,1-.09-.12.38.38,0,0,1,0-.21l.12-.62a1,1,0,0,0,0-.18l-.34-.23a.27.27,0,0,1-.09-.16.44.44,0,0,1,0-.2l.19-.53a1.35,1.35,0,0,1,0-.18l-.34-.38a.27.27,0,0,1-.06-.18.33.33,0,0,1,0-.18l.24-.42c0-.06,0-.13,0-.19l-.31-.49a.37.37,0,0,1-.05-.2.21.21,0,0,1,0-.15l.29-.29c0-.06,0-.12,0-.18l-.27-.58a.52.52,0,0,1,0-.21c0-.07,0-.13.06-.13l.32-.16a1.11,1.11,0,0,1,0-.17l-.21-.66a.38.38,0,0,1,0-.21c0-.06,0-.1.08-.1h.33c0-.06,0-.1,0-.15l-.16-.72a.49.49,0,0,1,0-.21c0-.05.06-.07.09-.06l.35.14,0-.12-.1-.73a.41.41,0,0,1,0-.2s0,0,.07,0h0l.34.29a.7.7,0,0,1,.06-.09l0-.74a.27.27,0,0,1,0-.17,0,0,0,0,1,.06,0l0,0,.32.41.08-.05,0-.71c0-.07,0-.12.06-.14h0a.17.17,0,0,1,.06.06l.29.53.08,0,.11-.65c0-.07,0-.11.07-.11h0s0,0,.07.09l.25.62m.28-3.47c-2.76-1-4.89,2.81-4.76,8.4s2.49,10.9,5.26,11.85,4.89-2.81,4.75-8.4-2.48-10.9-5.25-11.85" transform="translate(-281.52 -103.84)"/><path class="cls-4" d="M573,141.7l0,0a.74.74,0,0,1-.18-.57c0-.2.1-.31.2-.28l0,0a.75.75,0,0,1,.18.58c0,.19-.11.3-.2.27m-3.09-1.09c-.1,0-.19-.2-.21-.41s0-.45.14-.47h.05c.09,0,.18.21.21.41s0,.45-.15.47h0m.89-3.13,0-1,.66.22c.06,0,.33.16.43.9,0,.23.11,1,.15,1.2s.22.83.39.89l1,.36h0a4.11,4.11,0,0,1-.22.51l-.45-.36,0,0c-.09,0-.17.06-.18.25l-.08,1a1.17,1.17,0,0,1-1.05.12,2.38,2.38,0,0,1-1.09-.88l-.13-1.07a.45.45,0,0,0-.2-.38h0l-.42.05c-.09-.2-.16-.41-.24-.63l2.1.72s0,0,0,0l0-1.56a.07.07,0,0,0,0-.07l-.61-.21m-.06-2.49,0-1,.87.3a.74.74,0,0,1,.32.65c0,.35-.19.41-.36.35l-.8-.28m-1.83,1.78a12.6,12.6,0,0,1-.14-1.53c0-.2,0-.39,0-.58l.43-.26c.1-.07.13-.28.09-.5l-.1-.47.36.12.08,3.47-.73-.25m4.87-1-.08-.06a.91.91,0,0,1-.12-.63c0-.15.11-.22.19-.19s.06,0,.08.06a.8.8,0,0,1,.12.62c0,.15-.1.23-.19.2m-5-1.73a.45.45,0,0,1-.2-.33.6.6,0,0,1,.09-.55.08.08,0,0,1,.08,0,.45.45,0,0,1,.2.33.6.6,0,0,1-.09.55.08.08,0,0,1-.08,0m2.4-2.47s.09,0,.12-.07l.34-.6a6.1,6.1,0,0,1,1.83,3.25l-.22,1.08a.79.79,0,0,0,.11.57l.49.61c0,.2,0,.38,0,.56s0,.27,0,.4l-.26-.09s0,0,0,.08v.26c0,.6-.15.67-.29.66h0a.51.51,0,0,1-.27-.39,3.62,3.62,0,0,0-.46-1.63,1.78,1.78,0,0,0,.49-1.36,3.24,3.24,0,0,0-.44-1.57,1.29,1.29,0,0,0-.56-.58l-2.73-.94c.35-.74.83-1.2,1.4-1.22l.33.82c.05.1.1.16.15.17m0-.67c-.06,0-.11-.09-.16-.19a.83.83,0,0,1,0-.62c0-.07.09-.1.15-.08a.31.31,0,0,1,.15.19.88.88,0,0,1,0,.62c0,.07-.09.1-.14.08m0-2.2s-.07,0-.08.07l-.17.57h-.09l-.25-.62s0-.08-.07-.09h0s-.06,0-.07.11l-.11.65-.08,0-.29-.53a.17.17,0,0,0-.06-.06h0s-.06.07-.06.14l0,.71-.08.05-.32-.41,0,0a0,0,0,0,0-.06,0,.27.27,0,0,0,0,.17l0,.74a.7.7,0,0,0-.06.09l-.34-.29h0s0,0-.07,0a.41.41,0,0,0,0,.2l.1.73,0,.12-.35-.14s-.07,0-.09.06a.49.49,0,0,0,0,.21l.16.72s0,.09,0,.15h-.33s-.07,0-.08.1a.38.38,0,0,0,0,.21l.21.66a1.11,1.11,0,0,0,0,.17l-.32.16s-.06.06-.06.13a.52.52,0,0,0,0,.21l.27.58c0,.06,0,.12,0,.18l-.29.29a.21.21,0,0,0,0,.15.37.37,0,0,0,.05.2l.31.49c0,.06,0,.13,0,.19l-.24.42a.33.33,0,0,0,0,.18.27.27,0,0,0,.06.18l.34.38a1.35,1.35,0,0,0,0,.18l-.19.53a.44.44,0,0,0,0,.2.27.27,0,0,0,.09.16l.34.23a1,1,0,0,1,0,.18l-.12.62a.38.38,0,0,0,0,.21.17.17,0,0,0,.09.12l.35.1c0,.06,0,.11.05.16l-.06.68a.71.71,0,0,0,0,.21.19.19,0,0,0,.07.08h0l.33-.05c0,.05,0,.09.07.14v.73a.59.59,0,0,0,0,.2.17.17,0,0,0,.06.06h0l.31-.19a1,1,0,0,0,.08.11l.07.74a.42.42,0,0,0,.07.19l0,0s0,0,.06,0l.27-.33a.6.6,0,0,0,.08.08l.14.73a.2.2,0,0,0,.08.16h0s.05,0,.07,0l.23-.46a.25.25,0,0,0,.08,0l.2.69a.21.21,0,0,0,.09.14s.06,0,.08-.08l.16-.56a.27.27,0,0,0,.09,0l.25.62c0,.05,0,.08.07.09h0s.07,0,.07-.1l.11-.65.08,0,.29.53a.17.17,0,0,0,.06.06h0s.05-.07.06-.14l0-.71a.18.18,0,0,1,.07,0l.33.41s0,0,0,0a0,0,0,0,0,.06,0,.22.22,0,0,0,0-.17l0-.73.06-.1.34.29h0s0,0,.07,0a.33.33,0,0,0,0-.18l-.1-.74,0-.12.35.14s.07,0,.09-.06a.49.49,0,0,0,0-.21l-.16-.72a.66.66,0,0,0,0-.15h.34s.06,0,.07-.09a.55.55,0,0,0,0-.22l-.22-.66c0-.06,0-.11,0-.17l.32-.15s.06-.06.06-.14a.52.52,0,0,0,0-.21l-.26-.58a1,1,0,0,1,0-.18l.28-.28a.25.25,0,0,0,0-.16.4.4,0,0,0-.06-.21l-.31-.49a1,1,0,0,0,0-.18l.24-.42a.26.26,0,0,0,0-.18.27.27,0,0,0-.06-.18l-.34-.37c0-.07,0-.12,0-.19l.18-.53a.43.43,0,0,0,0-.2.22.22,0,0,0-.09-.15l-.34-.24c0-.06,0-.11,0-.18l.13-.62a.52.52,0,0,0,0-.21.17.17,0,0,0-.09-.12l-.35-.1c0-.06,0-.11,0-.16l.06-.68a.49.49,0,0,0,0-.21.19.19,0,0,0-.07-.08h0l-.33.05c0-.05-.05-.09-.07-.14v-.72a.65.65,0,0,0,0-.21.17.17,0,0,0-.06-.06h0l-.31.19a1,1,0,0,0-.08-.11l-.07-.74a.47.47,0,0,0-.07-.19l0,0s0,0-.06,0l-.27.33L572,130l-.14-.73a.2.2,0,0,0-.08-.16h0a.06.06,0,0,0-.08,0l-.22.45-.08,0-.2-.69c0-.07-.05-.12-.09-.13" transform="translate(-281.52 -103.84)"/><path class="cls-14" d="M549,132.92c-.08,0-.14.09-.14.26s.08.34.16.36.14-.08.14-.26-.08-.33-.16-.36m-2.09-10.52c-.08,0-.14.09-.14.27s.07.33.15.36.15-.09.14-.26-.07-.34-.15-.37m1.23,12.46c-.66-.23-1.22-1.54-1.25-2.94l-.1-3.71c0-.21.07-.35.17-.31l2.31.79c.1,0,.17-.11.17-.31l0-1.73c0-.21.07-.35.17-.31l.22.07c.66.23,1.22,1.54,1.26,2.94v.53c0,1.4-.47,2.34-1.13,2.11l-1.74-.59v.6l1.14.39a.52.52,0,0,1,.18.44c0,1.39-.47,2.34-1.13,2.11l-.25-.08m-1.55-11.3c-.1,0-.18-.24-.19-.44,0-1.4.48-2.34,1.14-2.12l.25.09c.66.23,1.22,1.54,1.25,2.93l.09,3.72c0,.2-.07.35-.17.31l-2.3-.79c-.1,0-.18.11-.17.31l0,1.73c0,.2-.07.35-.17.31l-.23-.07c-.65-.23-1.22-1.55-1.25-2.94v-.53c0-1.4.47-2.34,1.13-2.12l1.74.6,0-.6-1.13-.39m1.22-5.68c-2.77-.95-4.9,2.81-4.76,8.4s2.49,10.9,5.25,11.85,4.9-2.81,4.76-8.4-2.49-10.9-5.25-11.85" transform="translate(-281.52 -103.84)"/><path class="cls-4" d="M546.9,123c-.08,0-.15-.19-.15-.36s.06-.3.14-.27.15.19.15.37,0,.29-.14.26m.87-1.94-.25-.09c-.66-.22-1.17.72-1.14,2.12,0,.2.09.4.19.44l1.13.39,0,.6L546,124c-.66-.22-1.17.72-1.13,2.12v.53c0,1.39.6,2.71,1.25,2.94l.23.07c.1,0,.17-.11.17-.31l0-1.73c0-.2.07-.35.17-.31l2.3.79c.1,0,.18-.11.17-.31L549,124c0-1.39-.59-2.7-1.25-2.93" transform="translate(-281.52 -103.84)"/><path class="cls-4" d="M549,133.54c-.08,0-.15-.18-.16-.36s.06-.29.14-.26.15.19.16.36-.06.29-.14.26m.77-7.13-.22-.07c-.1,0-.18.1-.17.31l0,1.73c0,.2-.07.35-.17.31l-2.31-.79c-.1,0-.17.1-.17.31l.1,3.71c0,1.4.59,2.71,1.25,2.94l.25.08c.66.23,1.17-.72,1.13-2.11a.52.52,0,0,0-.18-.44l-1.14-.39v-.6l1.74.59c.66.23,1.16-.71,1.13-2.11v-.53c0-1.4-.6-2.71-1.26-2.94" transform="translate(-281.52 -103.84)"/><path class="cls-14" d="M595.64,144.22a3.85,3.85,0,0,0,.07-.49,16.33,16.33,0,0,0-.85-6.4,16,16,0,0,1,2.23,9.24,1.13,1.13,0,0,1,0,.18,8,8,0,0,1,.57,3.85.16.16,0,0,1,0-.08c-.24-1-.57-1.36-.87-1.46a.68.68,0,0,0-.64.13.22.22,0,0,1-.09.1h0a1.28,1.28,0,0,1-1.32.23,3.49,3.49,0,0,1-1.51-1.2,12.76,12.76,0,0,1-2.14-4.39,9.19,9.19,0,0,0,.79,1.24,3.77,3.77,0,0,0,1.61,1.33,1.26,1.26,0,0,0,1.38-.3,53.09,53.09,0,0,1-2.89-7c-.15-.41-.29-.81-.4-1.21a52.75,52.75,0,0,0,2.79,5.23c-1-2.56-2-5.64-2-5.64h0a49.81,49.81,0,0,0,3.23,6.44l.12.2m-1.33-10.32c-2.76-1-4.89,2.81-4.76,8.4s2.49,10.9,5.26,11.85,4.89-2.81,4.76-8.4-2.49-10.9-5.26-11.85" transform="translate(-281.52 -103.84)"/><path class="cls-4" d="M594.86,137.33a16.33,16.33,0,0,1,.85,6.4,3.85,3.85,0,0,1-.07.49l-.12-.2a49.81,49.81,0,0,1-3.23-6.44h0s1,3.08,2,5.64A52.75,52.75,0,0,1,591.5,138c.11.4.25.8.4,1.21a53.09,53.09,0,0,0,2.89,7,1.26,1.26,0,0,1-1.38.3,3.77,3.77,0,0,1-1.61-1.33,9.19,9.19,0,0,1-.79-1.24,12.76,12.76,0,0,0,2.14,4.39,3.49,3.49,0,0,0,1.51,1.2,1.28,1.28,0,0,0,1.32-.23h0a.22.22,0,0,0,.09-.1.68.68,0,0,1,.64-.13c.3.1.63.49.87,1.46a.16.16,0,0,0,0,.08,8,8,0,0,0-.57-3.85,1.13,1.13,0,0,0,0-.18,16,16,0,0,0-2.23-9.24" transform="translate(-281.52 -103.84)"/></g></g><polygon class="cls-20" points="330.36 27.64 332.22 27.49 333.09 63.03 331.23 63.18 330.36 27.64"/><polygon class="cls-20" points="250.53 0.15 252.38 0 332.22 27.49 330.36 27.64 250.53 0.15"/></g></g><g id="stream-front-1"><g class="cls-2"><polygon class="cls-22" points="113.82 48.48 195.04 30.38 194.5 37.06 113.28 55.16 113.82 48.48"/><polygon class="cls-23" points="113.28 55.16 194.5 37.06 218.65 43.08 137.43 61.18 113.28 55.16"/><polygon class="cls-24" points="113.82 48.48 195.04 30.38 219.19 36.4 137.97 54.5 113.82 48.48"/><polygon class="cls-25" points="137.97 54.5 219.19 36.4 218.65 43.08 137.43 61.18 137.97 54.5"/><path class="cls-26" d="M394.62,151.15l25.74,6.42-.7,8.62-25.74-6.42ZM418.94,165l.55-6.67-24.15-6-.55,6.67,24.15,6" transform="translate(-281.52 -103.84)"/><polygon class="cls-27" points="137.97 54.5 137.43 61.18 113.28 55.16 113.82 48.48 137.97 54.5"/><polygon class="cls-22" points="138.84 53.73 220.07 35.63 219.36 44.26 138.14 62.35 138.84 53.73"/><g class="cls-2"><g class="cls-28"><path class="cls-14" d="M443.18,153.79a2,2,0,0,0-1.58,1.75c-.06.75.36,1.09,1.07,1.24s.81.37.77.87a1.25,1.25,0,0,1-1,1.1,1.51,1.51,0,0,1-1-.11l-.2.6a1.76,1.76,0,0,0,1.13.09,2.11,2.11,0,0,0,1.71-1.87c.06-.77-.29-1.12-1-1.3s-.86-.33-.82-.82a1.11,1.11,0,0,1,.92-1,1.36,1.36,0,0,1,.84.06l.21-.59a1.6,1.6,0,0,0-1,0" transform="translate(-281.52 -103.84)"/><path class="cls-14" d="M448.6,154.07a1.39,1.39,0,0,0-.74.43,2.32,2.32,0,0,0-.41.57h0a.68.68,0,0,0-.86-.56,1.66,1.66,0,0,0-1.07.92h0l0-.61-.52.11c0,.31,0,.63-.06,1l-.23,2.78.58-.13.19-2.29a1.05,1.05,0,0,1,.08-.35,1.28,1.28,0,0,1,.78-.85c.45-.1.65.29.6.89l-.19,2.28.57-.12.2-2.35a1.28,1.28,0,0,1,.08-.35,1.15,1.15,0,0,1,.75-.78c.47-.11.66.28.6,1l-.18,2.15.58-.12.19-2.24c.11-1.32-.5-1.51-.93-1.42" transform="translate(-281.52 -103.84)"/><path class="cls-14" d="M451.23,156.9c-.3.06-.53-.09-.5-.54.06-.7.73-1,1.35-1.13l.1,0-.05.66a.9.9,0,0,1-.06.22,1.2,1.2,0,0,1-.84.81m.45-3.5a2.44,2.44,0,0,0-1.1.58l.1.42a2,2,0,0,1,.87-.47c.66-.14.69.41.66.72v.08h0c-1.24.27-2,.92-2.05,1.84,0,.55.25,1,.9.87a1.7,1.7,0,0,0,1.05-.78h0v.46l.53-.11a7.22,7.22,0,0,1,0-.9l.11-1.42c.07-.76-.11-1.5-1.1-1.29" transform="translate(-281.52 -103.84)"/><path class="cls-14" d="M455.31,152.61a1.52,1.52,0,0,0-1,1h0l0-.73-.52.11c0,.35,0,.73-.06,1.18l-.22,2.61.58-.13.17-2a2.88,2.88,0,0,1,.05-.33,1.32,1.32,0,0,1,.87-1.06l.2,0,.05-.65h-.16" transform="translate(-281.52 -103.84)"/><path class="cls-14" d="M457,151.26l-.59.3-.08.91-.5.11,0,.53.5-.11-.17,2.07a1.25,1.25,0,0,0,.15.94.59.59,0,0,0,.61.15,1.67,1.67,0,0,0,.53-.21l0-.51a1.4,1.4,0,0,1-.35.12c-.33.07-.42-.17-.38-.64l.17-2,.85-.18,0-.53-.85.19.09-1.09" transform="translate(-281.52 -103.84)"/><path class="cls-14" d="M459.93,150.15a2,2,0,0,0-1.59,1.75c-.06.74.36,1.09,1.07,1.24s.81.37.77.86a1.24,1.24,0,0,1-1,1.11,1.51,1.51,0,0,1-1-.11l-.2.6a1.7,1.7,0,0,0,1.13.08,2.09,2.09,0,0,0,1.71-1.86c.06-.78-.29-1.13-1-1.3s-.86-.34-.82-.82a1.11,1.11,0,0,1,.92-1,1.36,1.36,0,0,1,.84.06l.21-.59a1.51,1.51,0,0,0-1,0" transform="translate(-281.52 -103.84)"/><path class="cls-14" d="M462.54,150.06l-.59.3-.08.91-.5.11,0,.52.5-.1-.17,2.07a1.32,1.32,0,0,0,.14.94.61.61,0,0,0,.62.15,1.67,1.67,0,0,0,.53-.21v-.51a1.59,1.59,0,0,1-.34.12c-.33.07-.43-.17-.39-.64l.17-2.05.85-.18,0-.53-.84.19.09-1.09" transform="translate(-281.52 -103.84)"/><path class="cls-14" d="M465.41,150.42a1.48,1.48,0,0,0-1,1h0l0-.74-.51.11c0,.35,0,.73-.07,1.18l-.22,2.61.58-.12.17-2a2.88,2.88,0,0,1,.05-.33,1.32,1.32,0,0,1,.87-1,.49.49,0,0,1,.2,0l.05-.66a.47.47,0,0,0-.16,0" transform="translate(-281.52 -103.84)"/><path class="cls-14" d="M466.3,151.81c.09-.49.4-1.19,1-1.32s.77.5.73.95l-1.73.37m1.09-1.83a2.52,2.52,0,0,0-1.69,2.38c-.1,1.15.43,1.79,1.43,1.57a2.8,2.8,0,0,0,1.1-.47l-.06-.47a2.35,2.35,0,0,1-.91.39c-.59.13-1.07-.15-1-1.07l2.28-.5,0-.33c.06-.7-.14-1.73-1.2-1.5" transform="translate(-281.52 -103.84)"/><path class="cls-14" d="M470.07,152.8c-.3.07-.54-.09-.5-.54.06-.7.73-1,1.34-1.13l.11,0-.06.66a.59.59,0,0,1,0,.22,1.22,1.22,0,0,1-.84.81m.45-3.5a2.44,2.44,0,0,0-1.1.58l.1.42a1.89,1.89,0,0,1,.87-.46c.66-.15.69.4.66.71v.08h0c-1.24.27-2,.92-2,1.84,0,.55.25,1,.91.87a1.71,1.71,0,0,0,1-.78h0V153l.54-.12a5.59,5.59,0,0,1,0-.9l.12-1.42c.06-.76-.11-1.5-1.1-1.29" transform="translate(-281.52 -103.84)"/><path class="cls-14" d="M476.28,148.05a1.39,1.39,0,0,0-.74.43,2.54,2.54,0,0,0-.41.56h0a.68.68,0,0,0-.85-.56,1.65,1.65,0,0,0-1.08.92h0l0-.6-.51.11c0,.31,0,.63-.06,1l-.24,2.77.58-.12.19-2.29a1.05,1.05,0,0,1,.08-.35,1.25,1.25,0,0,1,.79-.85c.45-.1.64.29.59.89l-.19,2.28.57-.13.2-2.34a1.27,1.27,0,0,1,.08-.36,1.19,1.19,0,0,1,.75-.78c.48-.1.67.29.61,1l-.18,2.15.58-.13.18-2.23c.11-1.32-.5-1.51-.93-1.42" transform="translate(-281.52 -103.84)"/></g></g><polygon class="cls-23" points="113.1 47.31 194.33 29.21 220.07 35.63 138.84 53.73 113.1 47.31"/></g></g><g id="trace-back"><polyline class="cls-29" points="177.84 34.9 176.86 35.1 177.84 35.34"/><polyline class="cls-30" points="178.81 35.58 195.28 39.6 210.55 36.43"/><polyline class="cls-29" points="211.04 36.33 212.02 36.13 211.05 35.88"/><polyline class="cls-31" points="210.08 35.64 194.03 31.59 178.34 34.8"/></g><g id="filter-back-2"><g class="cls-2"><polygon class="cls-32" points="147.13 17.38 170.36 12.66 170.22 36.59 146.98 41.3 147.13 17.38"/><polygon class="cls-33" points="146.98 41.3 170.22 36.59 190.28 40.83 167.04 45.54 146.98 41.3"/><polygon class="cls-33" points="147.13 17.38 170.36 12.66 190.43 16.91 167.19 21.62 147.13 17.38"/><polygon class="cls-34" points="167.19 21.62 167.04 45.54 146.98 41.3 147.13 17.38 167.19 21.62"/><polygon class="cls-32" points="167.19 21.62 190.43 16.91 190.28 40.83 167.04 45.54 167.19 21.62"/><polygon class="cls-32" points="167.37 21.53 190.6 16.82 190.45 41.11 167.22 45.83 167.37 21.53"/><g class="cls-2"><g class="cls-35"><path class="cls-4" d="M451.26,132.76a1.38,1.38,0,0,0-.83.76,6.37,6.37,0,0,0-.58,1.79,13.27,13.27,0,0,0-.21,2.46,11.48,11.48,0,0,0,.19,2.38,4.11,4.11,0,0,0,.56,1.55.79.79,0,0,0,.83.42,1.21,1.21,0,0,0,.72-.6,4.92,4.92,0,0,0,.51-1.46l-.31-.57a3.82,3.82,0,0,1-.4,1.1.86.86,0,0,1-.52.43c-.22,0-.42-.06-.6-.32a3,3,0,0,1-.42-1.18,9.84,9.84,0,0,1-.14-1.84,12.17,12.17,0,0,1,.16-1.91,4.46,4.46,0,0,1,.43-1.35,1,1,0,0,1,.61-.57.49.49,0,0,1,.51.24,2.26,2.26,0,0,1,.39.94l.32-.69a3.27,3.27,0,0,0-.5-1.27.74.74,0,0,0-.72-.31" transform="translate(-281.52 -103.84)"/><path class="cls-4" d="M456.12,131.83l-.43.09,0,4.83a8.58,8.58,0,0,1-.3,2.52c-.18.62-.45,1-.77,1s-.54-.14-.69-.6a7.28,7.28,0,0,1-.24-2.16l0-5.22-.43.08,0,5.35a8.71,8.71,0,0,0,.34,2.88c.23.62.55.88,1,.8a1.11,1.11,0,0,0,.67-.6,5.25,5.25,0,0,0,.46-1.39v1.68l.4-.09.05-9.21" transform="translate(-281.52 -103.84)"/><path class="cls-4" d="M458.21,131.33a1.33,1.33,0,0,0-.91.92,5.14,5.14,0,0,0-.34,2,4.85,4.85,0,0,0,.16,1.43,1.32,1.32,0,0,0,.39.65,2.86,2.86,0,0,0,.61.31,1.35,1.35,0,0,1,.45.19.84.84,0,0,1,.29.38,2,2,0,0,1,.1.77,2.7,2.7,0,0,1-.21,1.16.83.83,0,0,1-.63.52.7.7,0,0,1-.61-.16,1.71,1.71,0,0,1-.49-.64l-.2,1a1.74,1.74,0,0,0,.54.7.93.93,0,0,0,.73.17,1.42,1.42,0,0,0,1-.91,5.2,5.2,0,0,0,.35-2,4.3,4.3,0,0,0-.16-1.36,1.23,1.23,0,0,0-.38-.64,2.09,2.09,0,0,0-.6-.3,1.91,1.91,0,0,1-.47-.21.82.82,0,0,1-.28-.41,2.16,2.16,0,0,1-.12-.81,3,3,0,0,1,.21-1.15.86.86,0,0,1,.61-.54c.36-.08.67.12.92.59l.19-1a1.47,1.47,0,0,0-.5-.52.87.87,0,0,0-.6-.11" transform="translate(-281.52 -103.84)"/><path class="cls-4" d="M460.59,128.9l-.42.09,0,8.62a6,6,0,0,0,.23,1.93c.16.43.38.62.67.56a.6.6,0,0,0,.36-.23,1.68,1.68,0,0,0,.3-.55l-.15-.86c-.11.34-.27.53-.46.57s-.31-.08-.4-.35a4.49,4.49,0,0,1-.13-1.22l0-5.5.94-.2v-1l-.94.2v-2" transform="translate(-281.52 -103.84)"/><path class="cls-4" d="M463.62,138.47a.58.58,0,0,1-.6-.33,3.26,3.26,0,0,1-.41-1.17,11.16,11.16,0,0,1-.14-1.85,12.38,12.38,0,0,1,.16-1.91,4.32,4.32,0,0,1,.42-1.34,1,1,0,0,1,.6-.57c.22-.05.42.06.59.32a3.14,3.14,0,0,1,.41,1.18,10.17,10.17,0,0,1,.14,1.85,12.14,12.14,0,0,1-.16,1.9,4.58,4.58,0,0,1-.42,1.35c-.18.34-.37.52-.59.57m0-8.26a1.33,1.33,0,0,0-.81.76,6.29,6.29,0,0,0-.58,1.78,13.35,13.35,0,0,0-.21,2.46,11.32,11.32,0,0,0,.19,2.37,4.11,4.11,0,0,0,.56,1.55.78.78,0,0,0,.81.44c.3-.06.57-.31.82-.77A6.31,6.31,0,0,0,465,137a13.35,13.35,0,0,0,.21-2.46,11.42,11.42,0,0,0-.19-2.38,4.18,4.18,0,0,0-.56-1.55.78.78,0,0,0-.81-.42" transform="translate(-281.52 -103.84)"/><path class="cls-4" d="M470,128.91a1.2,1.2,0,0,0-.74.66,5.28,5.28,0,0,0-.5,1.53,3.4,3.4,0,0,0-.42-1.36.64.64,0,0,0-.68-.35,1,1,0,0,0-.68.6,4.43,4.43,0,0,0-.47,1.38v-1.68l-.41.08,0,9.22.42-.09,0-4.83a8.78,8.78,0,0,1,.29-2.5c.19-.63.45-1,.77-1s.51.15.66.63a7.44,7.44,0,0,1,.22,2.13l0,5.22.42-.09,0-4.83a9.15,9.15,0,0,1,.29-2.5c.19-.62.45-1,.77-1.05s.5.15.66.63a7.14,7.14,0,0,1,.22,2.13l0,5.23.42-.09,0-5.34a9.06,9.06,0,0,0-.32-2.88c-.22-.62-.53-.88-.92-.8" transform="translate(-281.52 -103.84)"/></g></g><polygon class="cls-33" points="146.95 17.1 170.18 12.38 190.6 16.69 167.37 21.41 146.95 17.1"/><polygon class="cls-36" points="167.37 21.41 190.6 16.69 190.6 16.82 167.37 21.53 167.37 21.41"/><path class="cls-34" d="M448.88,125.37l-.15,24.29-20.41-4.31v-.13l.15-24.29,20.42,4.32Zm-20.23-4.15-.15,23.92,20.06,4.24.15-23.92-20.06-4.24" transform="translate(-281.52 -103.84)"/></g></g><g id="filter-back-2-2" data-name="filter-back-2"><g class="cls-2"><polygon class="cls-37" points="118.74 23.5 142.2 18.67 142.12 42.57 118.66 47.4 118.74 23.5"/><polygon class="cls-38" points="118.66 47.4 142.12 42.57 161.99 46.87 138.54 51.7 118.66 47.4"/><polygon class="cls-38" points="118.74 23.5 142.2 18.67 162.07 22.97 138.62 27.8 118.74 23.5"/><polygon class="cls-37" points="138.62 27.8 162.07 22.97 161.99 46.87 138.54 51.7 138.62 27.8"/><path class="cls-39" d="M420.31,131.55l-.07,24.27-.09,0L400,151.45v-.12l.07-24.27,20.23,4.37Zm-20.13,19.69,19.88,4.3.08-23.9-19.88-4.3-.08,23.9" transform="translate(-281.52 -103.84)"/><polygon class="cls-39" points="138.62 27.8 138.54 51.7 118.66 47.4 118.74 23.5 138.62 27.8"/><polygon class="cls-37" points="138.79 27.72 162.25 22.88 162.17 47.15 138.72 51.99 138.79 27.72"/><g class="cls-2"><g class="cls-40"><path class="cls-4" d="M426.21,139.58l-.66.13,0,7.37.65-.13,0-7.37m-.31-3a.52.52,0,0,0-.34.27,1.1,1.1,0,0,0-.14.52.72.72,0,0,0,.14.48.31.31,0,0,0,.33.14.51.51,0,0,0,.34-.28,1,1,0,0,0,.14-.54.58.58,0,0,0-.13-.45.32.32,0,0,0-.34-.14m-2.61.46a1.55,1.55,0,0,0-1.08.8,3.35,3.35,0,0,0-.4,1.67l-.05,8.27.66-.13,0-6.53,1.47-.29V140l-1.49.3v-.86a2.18,2.18,0,0,1,.23-1.09.89.89,0,0,1,.63-.47.73.73,0,0,1,.72.21l.22-.78a.77.77,0,0,0-.42-.26,1.1,1.1,0,0,0-.54,0" transform="translate(-281.52 -103.84)"/><path class="cls-4" d="M428.7,136.07l-.65.13-.05,8.34a2.51,2.51,0,0,0,.34,1.48.93.93,0,0,0,1,.36,1.65,1.65,0,0,0,.59-.27l0-.82a1,1,0,0,1-.44.22.54.54,0,0,1-.6-.23,1.62,1.62,0,0,1-.2-1l.05-8.25" transform="translate(-281.52 -103.84)"/><path class="cls-4" d="M431.49,136.92l-.66.13,0,6.9a2.57,2.57,0,0,0,.36,1.51,1,1,0,0,0,1,.35,1.58,1.58,0,0,0,.57-.24,2.07,2.07,0,0,0,.45-.48l-.23-.67a1.08,1.08,0,0,1-.71.52.55.55,0,0,1-.62-.22,1.64,1.64,0,0,1-.2-1l0-4.39,1.46-.3v-.84l-1.46.3v-1.61" transform="translate(-281.52 -103.84)"/><path class="cls-4" d="M434.39,141.86v-.31a4.72,4.72,0,0,1,.23-1.5,3.23,3.23,0,0,1,.63-1.13,1.72,1.72,0,0,1,.91-.53,1.1,1.1,0,0,1,1.1.37,2.52,2.52,0,0,1,.55,1.41l-3.42,1.69m1.78-4.32a2.27,2.27,0,0,0-1.24.72,4,4,0,0,0-.86,1.5,6.38,6.38,0,0,0-.32,2,5.09,5.09,0,0,0,.31,1.87,2.35,2.35,0,0,0,.89,1.15,1.72,1.72,0,0,0,1.32.22,2.54,2.54,0,0,0,1.07-.52,3.18,3.18,0,0,0,.8-1.05l-.36-.58a2.93,2.93,0,0,1-.66.86,1.94,1.94,0,0,1-.83.4,1.3,1.3,0,0,1-1.15-.27,2.27,2.27,0,0,1-.66-1.27l4-2a4.65,4.65,0,0,0-.32-1.76,2.26,2.26,0,0,0-.82-1.08,1.44,1.44,0,0,0-1.15-.21" transform="translate(-281.52 -103.84)"/><path class="cls-4" d="M442.25,136.32a2.15,2.15,0,0,0-1.13.6,3,3,0,0,0-.69,1.26v-1.45l-.62.13-.05,7.36.66-.13,0-3.75a4.31,4.31,0,0,1,.44-2.08,1.75,1.75,0,0,1,1.2-1l.16,0v-1" transform="translate(-281.52 -103.84)"/></g></g><polygon class="cls-38" points="118.56 23.22 142.02 18.39 162.25 22.76 138.79 27.59 118.56 23.22"/><polygon class="cls-36" points="138.79 27.59 162.25 22.76 162.25 22.88 138.79 27.72 138.79 27.59"/></g></g><g id="stream-front-1-2" data-name="stream-front-1"><g class="cls-2"><polygon class="cls-22" points="62.5 84.79 122.67 71.38 122.12 78.07 61.95 91.47 62.5 84.79"/><polygon class="cls-23" points="61.95 91.47 122.12 78.07 146.26 84.09 86.1 97.49 61.95 91.47"/><polygon class="cls-24" points="62.5 84.79 122.67 71.38 146.81 77.4 86.64 90.81 62.5 84.79"/><polygon class="cls-27" points="86.64 90.81 86.1 97.49 61.95 91.47 62.5 84.79 86.64 90.81"/><polygon class="cls-25" points="86.64 90.81 146.81 77.4 146.26 84.09 86.1 97.49 86.64 90.81"/><polygon class="cls-22" points="87.52 90.04 147.68 76.63 146.98 85.26 86.81 98.66 87.52 90.04"/><g class="cls-2"><g class="cls-41"><path class="cls-14" d="M381.33,192.44a2,2,0,0,0-1.58,1.76c-.07.74.36,1.09,1.07,1.23s.8.38.76.87a1.23,1.23,0,0,1-1,1.11,1.59,1.59,0,0,1-1-.12l-.2.61a1.78,1.78,0,0,0,1.13.08,2.08,2.08,0,0,0,1.71-1.86c.07-.78-.28-1.13-1-1.31s-.86-.33-.82-.82a1.14,1.14,0,0,1,.92-1,1.34,1.34,0,0,1,.84.07l.21-.6a1.57,1.57,0,0,0-1,0" transform="translate(-281.52 -103.84)"/><path class="cls-14" d="M386.74,192.73a1.41,1.41,0,0,0-.74.42,2.3,2.3,0,0,0-.4.57h0a.69.69,0,0,0-.86-.55,1.62,1.62,0,0,0-1.08.92h0l0-.6-.51.11c0,.31,0,.63-.06,1l-.24,2.77.58-.13.2-2.29a1.55,1.55,0,0,1,.07-.35,1.27,1.27,0,0,1,.79-.85c.45-.09.64.3.59.9l-.19,2.28.58-.13.19-2.35a1.28,1.28,0,0,1,.08-.35,1.19,1.19,0,0,1,.75-.78c.48-.1.67.29.61,1l-.18,2.15.58-.13.18-2.24c.11-1.32-.5-1.51-.93-1.41" transform="translate(-281.52 -103.84)"/><path class="cls-14" d="M389.38,195.55c-.3.07-.54-.09-.5-.54.06-.69.72-1,1.34-1.13l.11,0-.06.66c0,.07,0,.15,0,.23a1.25,1.25,0,0,1-.84.8m.44-3.49a2.43,2.43,0,0,0-1.09.57l.09.42a2,2,0,0,1,.87-.46c.66-.15.69.4.67.71v.08h0c-1.24.27-2,.92-2.05,1.83,0,.55.24,1,.9.88a1.72,1.72,0,0,0,1-.78h0v.47l.54-.12a5.59,5.59,0,0,1,0-.9l.12-1.42c.06-.76-.11-1.5-1.11-1.28" transform="translate(-281.52 -103.84)"/><path class="cls-14" d="M393.45,191.27a1.48,1.48,0,0,0-1,1h0l0-.74-.52.11c0,.35,0,.73-.07,1.18l-.22,2.62.59-.13.16-2a1.61,1.61,0,0,1,.06-.33,1.31,1.31,0,0,1,.86-1,.49.49,0,0,1,.2,0l.06-.66a.52.52,0,0,0-.17,0" transform="translate(-281.52 -103.84)"/><path class="cls-14" d="M395.17,189.91l-.6.3-.07.92-.51.11,0,.52.5-.11-.17,2.07a1.3,1.3,0,0,0,.15.94.57.57,0,0,0,.61.15,1.39,1.39,0,0,0,.53-.21l0-.51a1.27,1.27,0,0,1-.35.12c-.33.07-.42-.17-.38-.64l.17-2,.85-.18,0-.52-.84.18.09-1.09" transform="translate(-281.52 -103.84)"/><path class="cls-14" d="M398.07,188.8a2,2,0,0,0-1.58,1.76c-.07.74.36,1.08,1.07,1.23s.81.37.76.87a1.22,1.22,0,0,1-1,1.1,1.53,1.53,0,0,1-1-.11l-.19.6a1.73,1.73,0,0,0,1.12.09,2.08,2.08,0,0,0,1.71-1.86c.07-.78-.28-1.13-1-1.31s-.85-.33-.81-.82a1.11,1.11,0,0,1,.92-1,1.25,1.25,0,0,1,.83.07l.21-.6a1.57,1.57,0,0,0-1,0" transform="translate(-281.52 -103.84)"/><path class="cls-14" d="M400.68,188.71l-.59.3-.07.92-.51.11,0,.52.5-.11-.17,2.07a1.36,1.36,0,0,0,.14.94.59.59,0,0,0,.62.15,1.39,1.39,0,0,0,.53-.21l0-.51a1.27,1.27,0,0,1-.35.12c-.33.07-.42-.17-.38-.64l.17-2.05.85-.18,0-.52-.85.18.09-1.09" transform="translate(-281.52 -103.84)"/><path class="cls-14" d="M403.55,189.07a1.54,1.54,0,0,0-1,1h0l0-.74-.52.12c0,.35,0,.73-.07,1.17l-.22,2.62.58-.13.17-2a2.46,2.46,0,0,1,.06-.33,1.31,1.31,0,0,1,.86-1.06.75.75,0,0,1,.2,0l.06-.65h-.17" transform="translate(-281.52 -103.84)"/><path class="cls-14" d="M404.45,190.46a1.56,1.56,0,0,1,1-1.32c.66-.14.77.51.72,1l-1.72.37m1.08-1.82a2.52,2.52,0,0,0-1.69,2.38c-.1,1.15.44,1.78,1.44,1.56a2.94,2.94,0,0,0,1.1-.47l-.06-.47a2.48,2.48,0,0,1-.92.4c-.59.13-1.07-.15-1-1.08l2.28-.5a3.15,3.15,0,0,0,.05-.32c.06-.71-.13-1.73-1.2-1.5" transform="translate(-281.52 -103.84)"/><path class="cls-14" d="M408.21,191.45c-.3.07-.53-.09-.5-.53.06-.7.73-1,1.35-1.14l.1,0-.05.66a1.12,1.12,0,0,1-.06.23,1.19,1.19,0,0,1-.84.8m.45-3.49a2.52,2.52,0,0,0-1.1.57l.1.43a2,2,0,0,1,.87-.47c.67-.15.69.4.66.72v.07h0c-1.25.27-2,.92-2.05,1.83-.05.55.24,1,.9.88a1.75,1.75,0,0,0,1-.78h0v.47l.54-.12a5.59,5.59,0,0,1,0-.9l.11-1.42c.07-.76-.11-1.5-1.1-1.28" transform="translate(-281.52 -103.84)"/><path class="cls-14" d="M414.43,186.7a1.42,1.42,0,0,0-.75.43,2.6,2.6,0,0,0-.4.57h0a.7.7,0,0,0-.86-.56,1.68,1.68,0,0,0-1.08.92h0l0-.61-.51.12c0,.3,0,.63-.06,1l-.23,2.78.58-.13.19-2.29a1.36,1.36,0,0,1,.07-.35,1.29,1.29,0,0,1,.79-.85c.45-.1.64.29.59.9l-.19,2.27.58-.12.19-2.35a1.8,1.8,0,0,1,.08-.35,1.17,1.17,0,0,1,.75-.78c.48-.11.67.28.61,1l-.18,2.15.58-.12.19-2.24c.11-1.32-.51-1.51-.93-1.42" transform="translate(-281.52 -103.84)"/></g></g><polygon class="cls-23" points="61.78 83.62 121.95 70.22 147.68 76.63 87.52 90.04 61.78 83.62"/><path class="cls-26" d="M343.3,187.46,369,193.87l-.7,8.63-25.73-6.42Zm24.32,13.87.54-6.68-24.14-6-.55,6.68,24.15,6" transform="translate(-281.52 -103.84)"/></g></g><g id="trace-back-2" data-name="trace-back"><polyline class="cls-29" points="106.51 75.37 105.53 75.57 106.5 75.81"/><polyline class="cls-30" points="107.48 76.05 123.94 80.07 139.22 76.9"/><polyline class="cls-29" points="139.71 76.8 140.69 76.6 139.72 76.35"/><polyline class="cls-31" points="138.75 76.11 122.69 72.06 107 75.27"/></g><g id="filter-back-2-3" data-name="filter-back-2"><g class="cls-2"><polygon class="cls-42" points="79.62 57.57 102.98 53.04 103.06 53.06 79.7 57.58 79.62 57.57"/><polygon class="cls-43" points="79.78 57.85 103.15 53.33 103.06 77.23 79.7 81.76 79.78 57.85"/><polygon class="cls-44" points="79.7 81.76 103.06 77.23 120.61 81.25 97.25 85.77 79.7 81.76"/><polygon class="cls-44" points="79.78 57.85 103.15 53.33 120.69 57.33 97.33 61.86 79.78 57.85"/><polygon class="cls-43" points="97.33 61.86 120.69 57.33 120.61 81.25 97.25 85.77 97.33 61.86"/><polygon class="cls-45" points="97.33 61.86 97.25 85.77 79.7 81.76 79.78 57.85 97.33 61.86"/><polygon class="cls-43" points="97.51 61.78 120.87 57.26 120.78 81.52 97.41 86.05 97.51 61.78"/><g class="cls-2"><g class="cls-46"><path class="cls-4" d="M386.7,173.46a2.18,2.18,0,0,0-1.09.55,2.82,2.82,0,0,0-.74,1.1,1.53,1.53,0,0,0-.63-.86,1.39,1.39,0,0,0-1-.14,2,2,0,0,0-1,.5,2.75,2.75,0,0,0-.69,1v-1.13l-.6.12-.05,6.17.63-.11,0-3.24a3.24,3.24,0,0,1,.43-1.72,1.7,1.7,0,0,1,1.13-.81.94.94,0,0,1,1,.33,2.33,2.33,0,0,1,.33,1.4l0,3.5L385,180l0-3.24a3.23,3.23,0,0,1,.42-1.71,1.67,1.67,0,0,1,1.14-.81.91.91,0,0,1,1,.33,2.24,2.24,0,0,1,.34,1.39l0,3.51.62-.12,0-3.58a2.74,2.74,0,0,0-.49-1.88,1.32,1.32,0,0,0-1.35-.42" transform="translate(-281.52 -103.84)"/><path class="cls-4" d="M392.11,178a1.25,1.25,0,0,1-.88-.13,1.54,1.54,0,0,1-.61-.73,3.09,3.09,0,0,1-.21-1.22,3.66,3.66,0,0,1,.23-1.3,2.57,2.57,0,0,1,.62-1,1.69,1.69,0,0,1,.88-.47,1.23,1.23,0,0,1,.87.14,1.41,1.41,0,0,1,.61.73,2.87,2.87,0,0,1,.21,1.22,3.7,3.7,0,0,1-.23,1.3,2.53,2.53,0,0,1-.62,1,1.68,1.68,0,0,1-.87.46m0-5.53a2.31,2.31,0,0,0-1.17.62,3.16,3.16,0,0,0-.83,1.26,4.42,4.42,0,0,0-.31,1.69,3.8,3.8,0,0,0,.28,1.57,2,2,0,0,0,.82,1,1.66,1.66,0,0,0,1.17.18,2.06,2.06,0,0,0,1-.52,3.15,3.15,0,0,0,.75-1.09v1.22l.6-.11,0-6.18-.62.12v1.18a1.76,1.76,0,0,0-.74-.78,1.62,1.62,0,0,0-1-.12" transform="translate(-281.52 -103.84)"/><path class="cls-4" d="M398.49,176.78a1.26,1.26,0,0,1-.88-.13,1.58,1.58,0,0,1-.6-.73,2.87,2.87,0,0,1-.21-1.22,3.4,3.4,0,0,1,.23-1.29,2.66,2.66,0,0,1,.62-1,1.67,1.67,0,0,1,.88-.46,1.27,1.27,0,0,1,.88.13,1.57,1.57,0,0,1,.61.74,3.12,3.12,0,0,1,.21,1.21,3.7,3.7,0,0,1-.23,1.3,2.55,2.55,0,0,1-.63,1,1.71,1.71,0,0,1-.88.46m.09-5.54a2.06,2.06,0,0,0-1,.52,3.07,3.07,0,0,0-.75,1.08v-1.22l-.59.11-.07,8.45.62-.12,0-3.43a1.76,1.76,0,0,0,.73.77,1.63,1.63,0,0,0,1,.11,2.34,2.34,0,0,0,1.18-.6,3.38,3.38,0,0,0,.83-1.27,4.89,4.89,0,0,0,.31-1.7,3.93,3.93,0,0,0-.28-1.57,1.92,1.92,0,0,0-.82-1,1.72,1.72,0,0,0-1.17-.17" transform="translate(-281.52 -103.84)"/></g></g><polygon class="cls-44" points="79.7 57.58 103.06 53.06 120.86 57.13 97.5 61.66 79.7 57.58"/><polygon class="cls-47" points="97.5 61.66 120.86 57.13 120.87 57.26 97.51 61.78 97.5 61.66"/><path class="cls-45" d="M379,165.62l-.1,24.26h-.08l-17.8-4.08v-.11l.1-24.27h.08l17.8,4.07Zm-17.81,20,17.55,4,.08-23.92-17.55-4-.08,23.9" transform="translate(-281.52 -103.84)"/></g></g><g id="stream-front-1-3" data-name="stream-front-1"><g class="cls-2"><polygon class="cls-22" points="179.04 58.54 251.24 42.45 250.7 49.13 178.5 65.21 179.04 58.54"/><polygon class="cls-23" points="178.5 65.21 250.7 49.13 274.84 55.14 202.64 71.23 178.5 65.21"/><polygon class="cls-24" points="179.04 58.54 251.24 42.45 275.39 48.47 203.19 64.56 179.04 58.54"/><polygon class="cls-27" points="203.19 64.56 202.64 71.23 178.5 65.21 179.04 58.54 203.19 64.56"/><polygon class="cls-25" points="203.19 64.56 275.39 48.47 274.84 55.14 202.64 71.23 203.19 64.56"/><polygon class="cls-22" points="204.06 63.78 276.26 47.7 275.56 56.31 203.36 72.4 204.06 63.78"/><g class="cls-2"><g class="cls-48"><path class="cls-14" d="M503.89,164.84a2,2,0,0,0-1.58,1.76c-.06.74.36,1.09,1.07,1.23s.8.38.76.87a1.23,1.23,0,0,1-1,1.11,1.53,1.53,0,0,1-1-.11l-.19.6a1.74,1.74,0,0,0,1.12.08,2.1,2.1,0,0,0,1.72-1.86c.06-.78-.29-1.13-1-1.3s-.86-.34-.82-.83a1.14,1.14,0,0,1,.92-1,1.32,1.32,0,0,1,.84.07l.21-.59a1.49,1.49,0,0,0-1,0" transform="translate(-281.52 -103.84)"/><path class="cls-14" d="M509.31,165.13a1.42,1.42,0,0,0-.75.43,2.52,2.52,0,0,0-.4.56h0a.69.69,0,0,0-.86-.56,1.62,1.62,0,0,0-1.08.92h0l0-.6-.51.11c0,.31,0,.63-.06,1l-.23,2.77.58-.12.19-2.29a1.53,1.53,0,0,1,.07-.36,1.28,1.28,0,0,1,.79-.84c.45-.1.64.29.59.89l-.19,2.28.58-.13.19-2.35a1.28,1.28,0,0,1,.08-.35,1.19,1.19,0,0,1,.75-.78c.48-.1.67.29.61,1l-.18,2.15.58-.13.19-2.24c.11-1.31-.51-1.5-.93-1.41" transform="translate(-281.52 -103.84)"/><path class="cls-14" d="M511.94,168c-.3.07-.54-.09-.5-.53.06-.7.73-1,1.34-1.14l.11,0-.06.66a1.06,1.06,0,0,1-.05.23,1.23,1.23,0,0,1-.84.8m.44-3.49a2.43,2.43,0,0,0-1.09.57l.1.43a1.91,1.91,0,0,1,.87-.47c.66-.14.69.4.66.72v.07h0c-1.24.27-2,.92-2.05,1.83,0,.55.25,1,.9.88a1.77,1.77,0,0,0,1-.78h0v.47l.54-.12a5.59,5.59,0,0,1,0-.9l.12-1.42c.06-.76-.11-1.5-1.11-1.28" transform="translate(-281.52 -103.84)"/><path class="cls-14" d="M516,163.67a1.56,1.56,0,0,0-1,1h0l0-.74-.52.12c0,.35,0,.73-.07,1.17l-.22,2.62.59-.13.17-2a2.69,2.69,0,0,1,0-.32,1.31,1.31,0,0,1,.86-1.06.75.75,0,0,1,.2,0l.06-.65a.5.5,0,0,0-.17,0" transform="translate(-281.52 -103.84)"/><path class="cls-14" d="M517.73,162.31l-.59.31-.08.91-.5.11,0,.52.51-.11-.18,2.07a1.35,1.35,0,0,0,.15.94.57.57,0,0,0,.61.15,1.52,1.52,0,0,0,.54-.21v-.51a1.18,1.18,0,0,1-.34.12c-.34.08-.42-.17-.39-.64l.18-2,.84-.19,0-.52-.85.18.09-1.09" transform="translate(-281.52 -103.84)"/><path class="cls-14" d="M520.63,161.2a2,2,0,0,0-1.58,1.76c-.06.74.36,1.09,1.07,1.23s.81.37.77.87a1.26,1.26,0,0,1-1,1.11,1.59,1.59,0,0,1-1-.12l-.19.61a1.77,1.77,0,0,0,1.13.08,2.1,2.1,0,0,0,1.71-1.86c.06-.78-.29-1.13-1-1.31s-.85-.33-.81-.82a1.13,1.13,0,0,1,.92-1,1.24,1.24,0,0,1,.83.07l.21-.6a1.57,1.57,0,0,0-1,0" transform="translate(-281.52 -103.84)"/><path class="cls-14" d="M523.25,161.11l-.59.3-.08.92-.5.11L522,163l.51-.11-.18,2.07a1.35,1.35,0,0,0,.15.94.57.57,0,0,0,.61.15,1.52,1.52,0,0,0,.54-.21v-.51a1.16,1.16,0,0,1-.35.12c-.33.07-.42-.16-.38-.64l.17-2,.85-.19,0-.52-.85.18.1-1.09" transform="translate(-281.52 -103.84)"/><path class="cls-14" d="M526.12,161.47a1.53,1.53,0,0,0-1,1h0l0-.73-.52.11c0,.35,0,.73-.07,1.18l-.22,2.61.58-.13.17-2a2.46,2.46,0,0,1,.06-.33,1.3,1.3,0,0,1,.87-1.06.75.75,0,0,1,.2,0l0-.65h-.16" transform="translate(-281.52 -103.84)"/><path class="cls-14" d="M527,162.87a1.57,1.57,0,0,1,1-1.33c.66-.14.77.51.72,1l-1.72.38M528.1,161a2.53,2.53,0,0,0-1.7,2.38c-.09,1.15.44,1.78,1.44,1.57a3.1,3.1,0,0,0,1.1-.48l-.06-.47a2.34,2.34,0,0,1-.91.4c-.6.13-1.08-.15-1-1.08l2.29-.5c0-.07,0-.18,0-.32.06-.7-.13-1.73-1.19-1.5" transform="translate(-281.52 -103.84)"/><path class="cls-14" d="M530.78,163.86c-.31.06-.54-.1-.5-.54.05-.7.72-1,1.34-1.14l.1,0-.05.66c0,.07,0,.15,0,.23a1.26,1.26,0,0,1-.84.81m.44-3.5a2.52,2.52,0,0,0-1.1.57l.1.43a2,2,0,0,1,.87-.47c.67-.14.69.41.67.72v.07h0c-1.24.27-2,.92-2.05,1.83,0,.55.24,1,.9.88a1.69,1.69,0,0,0,1-.78h0v.47l.54-.12a5.59,5.59,0,0,1,0-.9l.12-1.41c.06-.76-.12-1.51-1.11-1.29" transform="translate(-281.52 -103.84)"/><path class="cls-14" d="M537,159.11a1.38,1.38,0,0,0-.75.42,2.6,2.6,0,0,0-.4.57h0a.69.69,0,0,0-.86-.56,1.69,1.69,0,0,0-1.08.93h0l0-.61-.52.12c0,.3,0,.63-.06,1l-.23,2.77.58-.13.19-2.29a1.36,1.36,0,0,1,.07-.35,1.29,1.29,0,0,1,.79-.85c.45-.09.65.3.6.9l-.19,2.28.57-.13.2-2.35a1.28,1.28,0,0,1,.08-.35,1.16,1.16,0,0,1,.74-.78c.48-.11.67.29.61,1l-.18,2.14.58-.12.19-2.24c.11-1.32-.5-1.51-.93-1.41" transform="translate(-281.52 -103.84)"/></g></g><polygon class="cls-23" points="178.33 57.37 250.53 41.28 276.26 47.7 204.06 63.78 178.33 57.37"/><path class="cls-26" d="M459.85,161.21l25.73,6.41-.7,8.62-25.73-6.42Zm24.31,13.86.55-6.68-24.15-6-.54,6.68,24.14,6" transform="translate(-281.52 -103.84)"/></g></g><g id="trace-back-3" data-name="trace-back"><polyline class="cls-29" points="186.11 57.84 185.14 58.07 186.11 58.28"/><polyline class="cls-30" points="187.09 58.49 203.66 62.06 218.85 58.48"/><polyline class="cls-29" points="219.34 58.36 220.31 58.13 219.33 57.91"/><polyline class="cls-31" points="218.35 57.7 202.19 54.09 186.6 57.73"/></g><g id="trace-back-4" data-name="trace-back"><polyline class="cls-29" points="236.36 46.37 235.38 46.57 236.35 46.8"/><polyline class="cls-30" points="237.33 47.04 253.79 51.06 269.07 47.9"/><polyline class="cls-29" points="269.56 47.8 270.54 47.59 269.57 47.35"/><polyline class="cls-31" points="268.6 47.1 252.54 43.06 236.85 46.27"/></g><g id="filter-back-2-4" data-name="filter-back-2"><g class="cls-2"><polygon class="cls-43" points="206.53 29.29 229.9 24.76 229.81 48.66 206.45 53.19 206.53 29.29"/><polygon class="cls-44" points="206.45 53.19 229.81 48.66 247.36 52.68 224 57.2 206.45 53.19"/><polygon class="cls-44" points="206.53 29.29 229.9 24.76 247.44 28.77 224.08 33.29 206.53 29.29"/><polygon class="cls-43" points="224.08 33.29 247.44 28.77 247.36 52.68 224 57.2 224.08 33.29"/><path class="cls-45" d="M505.77,137.05l-.08,24.27-.09,0-17.8-4.07v-.12l.09-24.27,17.88,4.09ZM488,157l17.54,4,.09-23.91-17.55-4L488,157" transform="translate(-281.52 -103.84)"/><polygon class="cls-45" points="224.08 33.29 224 57.2 206.45 53.19 206.53 29.29 224.08 33.29"/><polygon class="cls-43" points="224.25 33.21 247.62 28.69 247.53 52.96 224.17 57.49 224.25 33.21"/><g class="cls-2"><g class="cls-49"><path class="cls-4" d="M511.94,145.06l-.73.14-.06,6.21a3.17,3.17,0,0,1,0,.44,1.93,1.93,0,0,1-.09.38.84.84,0,0,1-.2.29.67.67,0,0,1-.34.15.69.69,0,0,1-.35,0l-.09.81a1,1,0,0,0,.24.05l.27,0a1.53,1.53,0,0,0,.66-.29,1.7,1.7,0,0,0,.6-1,3.53,3.53,0,0,0,.06-.5l.05-6.62m-.34-2.7a.62.62,0,0,0-.39.26.83.83,0,0,0-.16.5.6.6,0,0,0,.15.44.41.41,0,0,0,.38.12.61.61,0,0,0,.39-.26.85.85,0,0,0,.16-.5.63.63,0,0,0-.15-.44.42.42,0,0,0-.38-.12" transform="translate(-281.52 -103.84)"/><path class="cls-4" d="M515.46,149.11a1.24,1.24,0,0,1-.64,0,1.23,1.23,0,0,1-.49-.35,1.42,1.42,0,0,1-.31-.57,2.68,2.68,0,0,1-.1-.78,3.16,3.16,0,0,1,.11-.81,2.42,2.42,0,0,1,.32-.69,2.2,2.2,0,0,1,.5-.51,1.65,1.65,0,0,1,.65-.28,1.23,1.23,0,0,1,.64,0,1.1,1.1,0,0,1,.49.33,1.37,1.37,0,0,1,.31.57,2.39,2.39,0,0,1,.1.77,3.12,3.12,0,0,1-.11.82,2.32,2.32,0,0,1-.82,1.22,1.44,1.44,0,0,1-.65.26m0-4.84a2.49,2.49,0,0,0-.94.38,2.85,2.85,0,0,0-.75.72,3.93,3.93,0,0,0-.5,1,3.85,3.85,0,0,0-.18,1.19,3.32,3.32,0,0,0,.16,1.13,2.21,2.21,0,0,0,.49.8,1.67,1.67,0,0,0,.74.45,2,2,0,0,0,.94,0,2.49,2.49,0,0,0,.94-.38,2.89,2.89,0,0,0,.75-.73,3.48,3.48,0,0,0,.5-1,4.18,4.18,0,0,0,.19-1.19,3.22,3.22,0,0,0-.17-1.12,2.39,2.39,0,0,0-.48-.81,1.78,1.78,0,0,0-.75-.44,2.11,2.11,0,0,0-.94,0" transform="translate(-281.52 -103.84)"/><path class="cls-4" d="M519.8,143.6l-.73.14-.05,5.41.74-.13,0-5.42m-.34-2.7a.64.64,0,0,0-.39.27.92.92,0,0,0-.16.49.6.6,0,0,0,.15.44.39.39,0,0,0,.39.12.66.66,0,0,0,.39-.26.84.84,0,0,0,.15-.5.63.63,0,0,0-.15-.44.42.42,0,0,0-.38-.12" transform="translate(-281.52 -103.84)"/><path class="cls-4" d="M523.43,142.8a1.55,1.55,0,0,0-.51.18,1.84,1.84,0,0,0-.43.3,2.37,2.37,0,0,0-.32.39,1.7,1.7,0,0,0-.22.42h0c0-.16,0-.31,0-.45s0-.3,0-.44l-.7.13c0,.18,0,.38,0,.59s0,.44,0,.68l0,4.14.74-.14,0-2.63a3.9,3.9,0,0,1,.08-.87,2.52,2.52,0,0,1,.25-.7,1.43,1.43,0,0,1,.43-.51,1.51,1.51,0,0,1,.62-.26.7.7,0,0,1,.76.25,1.8,1.8,0,0,1,.24,1l0,3.25.74-.14,0-3.34a3.45,3.45,0,0,0-.09-.88,1.59,1.59,0,0,0-.3-.64,1.19,1.19,0,0,0-.52-.36,1.56,1.56,0,0,0-.75,0" transform="translate(-281.52 -103.84)"/></g></g><polygon class="cls-44" points="206.37 29 229.73 24.48 247.61 28.56 224.25 33.09 206.37 29"/><polygon class="cls-47" points="224.25 33.09 247.61 28.56 247.62 28.69 224.25 33.21 224.25 33.09"/></g></g><g id="stream-front-1-4" data-name="stream-front-1"><g class="cls-2"><polygon class="cls-22" points="146.91 95.27 256.76 70.24 256.23 76.9 146.38 101.93 146.91 95.27"/><polygon class="cls-50" points="146.38 101.93 256.23 76.9 280.18 83.07 170.32 108.1 146.38 101.93"/><polygon class="cls-50" points="146.91 95.27 256.76 70.24 280.71 76.41 170.85 101.43 146.91 95.27"/><polygon class="cls-22" points="170.85 101.43 280.71 76.41 280.18 83.07 170.32 108.1 170.85 101.43"/><path class="cls-51" d="M427.72,197.92l25.52,6.57-.69,8.61L427,206.53Zm24.12,14,.53-6.66-23.94-6.17-.54,6.67,23.95,6.16" transform="translate(-281.52 -103.84)"/><polygon class="cls-51" points="170.85 101.43 170.32 108.1 146.38 101.93 146.91 95.27 170.85 101.43"/><polygon class="cls-22" points="171.72 100.66 281.57 75.63 280.89 84.24 171.03 109.27 171.72 100.66"/><g class="cls-2"><g class="cls-52"><path class="cls-14" d="M490.13,197.4a2,2,0,0,0-1.6,1.76c-.07.74.36,1.08,1.08,1.22s.82.37.78.86a1.25,1.25,0,0,1-1,1.12,1.55,1.55,0,0,1-1-.11l-.2.61a1.81,1.81,0,0,0,1.14.07,2.13,2.13,0,0,0,1.74-1.87c.06-.78-.3-1.13-1.05-1.3s-.87-.32-.83-.81a1.14,1.14,0,0,1,.93-1,1.33,1.33,0,0,1,.85.05l.21-.59a1.54,1.54,0,0,0-1,0" transform="translate(-281.52 -103.84)"/><path class="cls-14" d="M495.62,197.63a1.43,1.43,0,0,0-.75.44,2.39,2.39,0,0,0-.41.57h0a.69.69,0,0,0-.87-.55,1.66,1.66,0,0,0-1.09.93h0l0-.6-.53.11c0,.31,0,.63,0,1l-.23,2.77.59-.13.19-2.29a.84.84,0,0,1,.07-.35,1.26,1.26,0,0,1,.8-.85c.45-.1.65.28.6.88l-.18,2.28.58-.13.19-2.35a1.28,1.28,0,0,1,.08-.35,1.18,1.18,0,0,1,.76-.78c.48-.11.68.28.62,1l-.18,2.14.59-.13.18-2.23c.11-1.32-.51-1.5-.95-1.41" transform="translate(-281.52 -103.84)"/><path class="cls-14" d="M498.3,200.43c-.3.07-.54-.09-.5-.54.05-.69.73-1,1.36-1.14l.1,0-.05.66a1.12,1.12,0,0,1-.06.23,1.26,1.26,0,0,1-.85.81m.45-3.49a2.37,2.37,0,0,0-1.11.58l.1.42a1.94,1.94,0,0,1,.88-.47c.67-.15.7.4.67.71v.07h0c-1.25.28-2,.93-2.07,1.85-.05.55.25,1,.91.86a1.73,1.73,0,0,0,1.06-.78h0v.47l.55-.13a5.47,5.47,0,0,1,0-.89l.11-1.42c.06-.76-.12-1.5-1.12-1.27" transform="translate(-281.52 -103.84)"/><path class="cls-14" d="M502.43,196.12a1.51,1.51,0,0,0-1,1h0l0-.74-.53.12c0,.35,0,.72-.06,1.17l-.22,2.61.6-.13.16-2a2.88,2.88,0,0,1,0-.33,1.33,1.33,0,0,1,.88-1.06.49.49,0,0,1,.2,0l.06-.66a.5.5,0,0,0-.17,0" transform="translate(-281.52 -103.84)"/><path class="cls-14" d="M504.17,194.75l-.61.31-.07.91-.51.11,0,.52.51-.11-.17,2.07c0,.45,0,.77.15.93a.59.59,0,0,0,.62.15,1.64,1.64,0,0,0,.54-.21l0-.52a1.07,1.07,0,0,1-.35.13c-.34.07-.43-.17-.39-.64l.16-2,.86-.19.05-.52-.86.19.09-1.09" transform="translate(-281.52 -103.84)"/><path class="cls-14" d="M507.11,193.62a2,2,0,0,0-1.6,1.76c-.07.74.36,1.08,1.08,1.22s.83.37.79.86a1.25,1.25,0,0,1-1,1.11,1.49,1.49,0,0,1-1-.1l-.2.6a1.76,1.76,0,0,0,1.15.08,2.12,2.12,0,0,0,1.73-1.88c.06-.77-.3-1.12-1.05-1.29s-.86-.32-.82-.81a1.13,1.13,0,0,1,.92-1,1.38,1.38,0,0,1,.85.06l.21-.59a1.54,1.54,0,0,0-1,0" transform="translate(-281.52 -103.84)"/><path class="cls-14" d="M509.76,193.5l-.6.31-.07.91-.51.12-.05.52.52-.12-.17,2.07a1.31,1.31,0,0,0,.14.94.62.62,0,0,0,.63.14,1.64,1.64,0,0,0,.54-.21v-.51a1.16,1.16,0,0,1-.35.12c-.33.08-.43-.16-.39-.63l.17-2,.86-.19,0-.52-.86.19.09-1.09" transform="translate(-281.52 -103.84)"/><path class="cls-14" d="M512.67,193.84a1.53,1.53,0,0,0-1,1h0l0-.73-.53.12c0,.34,0,.72-.07,1.17L510.9,198l.59-.13.16-2a2.46,2.46,0,0,1,.06-.33,1.29,1.29,0,0,1,.88-1.06l.2,0,.05-.65a.56.56,0,0,0-.17,0" transform="translate(-281.52 -103.84)"/><path class="cls-14" d="M513.59,195.22a1.59,1.59,0,0,1,1-1.33c.67-.15.78.5.73.94l-1.74.39m1.09-1.83a2.53,2.53,0,0,0-1.71,2.39c-.09,1.14.45,1.77,1.47,1.55a3.08,3.08,0,0,0,1.11-.48l-.06-.47a2.62,2.62,0,0,1-.93.4c-.6.13-1.09-.14-1-1.07l2.32-.51c0-.07,0-.19,0-.33.06-.7-.14-1.72-1.22-1.48" transform="translate(-281.52 -103.84)"/><path class="cls-14" d="M517.41,196.17c-.3.07-.54-.08-.51-.53.06-.69.74-1,1.36-1.14l.11,0,0,.66a.9.9,0,0,1-.06.22,1.24,1.24,0,0,1-.85.81m.44-3.49a2.54,2.54,0,0,0-1.11.59l.1.42a2,2,0,0,1,.89-.48c.67-.15.7.4.67.71V194h0c-1.26.28-2,.94-2.07,1.85,0,.55.25,1,.92.87a1.75,1.75,0,0,0,1-.79h0v.46l.54-.12c0-.25,0-.57,0-.9L519,194c.06-.76-.12-1.5-1.13-1.28" transform="translate(-281.52 -103.84)"/><path class="cls-14" d="M523.7,191.38a1.42,1.42,0,0,0-.75.43,2.61,2.61,0,0,0-.41.57h0a.69.69,0,0,0-.87-.55,1.66,1.66,0,0,0-1.09.93h0l0-.6-.52.11c0,.31,0,.63-.06,1l-.23,2.77.59-.13.19-2.29a1.36,1.36,0,0,1,.07-.35,1.26,1.26,0,0,1,.8-.85c.45-.11.65.28.6.88l-.18,2.28.58-.13.19-2.35a1.28,1.28,0,0,1,.08-.35,1.22,1.22,0,0,1,.76-.79c.48-.1.68.28.62,1l-.18,2.15.59-.13.18-2.24c.11-1.31-.51-1.5-.95-1.4" transform="translate(-281.52 -103.84)"/></g></g><polygon class="cls-50" points="146.2 94.09 256.05 69.06 281.57 75.63 171.72 100.66 146.2 94.09"/></g></g><g id="trace-back-5" data-name="trace-back"><polyline class="cls-29" points="188.88 85.25 187.9 85.46 188.85 85.77"/><polyline class="cls-53" points="189.77 86.06 205.51 91.16 222.86 87.57"/><polyline class="cls-29" points="223.33 87.47 224.31 87.27 223.34 87"/><polyline class="cls-54" points="222.42 86.74 204.74 81.77 189.35 85.14"/></g><g id="trace-back-6" data-name="trace-back"><polyline class="cls-29" points="214.82 79.81 213.85 80.03 214.8 80.34"/><polyline class="cls-53" points="215.72 80.63 231.46 85.73 248.8 82.14"/><polyline class="cls-29" points="249.27 82.04 250.25 81.84 249.29 81.57"/><polyline class="cls-54" points="248.37 81.31 230.69 76.34 215.29 79.71"/></g><g id="trace-back-7" data-name="trace-back"><polyline class="cls-29" points="239.55 74.23 238.57 74.44 239.52 74.75"/><polyline class="cls-53" points="240.44 75.05 256.18 80.15 273.53 76.56"/><polyline class="cls-29" points="274 76.46 274.98 76.26 274.02 75.99"/><polyline class="cls-54" points="273.09 75.73 255.41 70.76 240.02 74.13"/></g><g id="filter-back-2-5" data-name="filter-back-2"><g class="cls-2"><polygon class="cls-55" points="151.24 69.9 174.89 65.11 174.97 65.13 151.33 69.91 151.24 69.9"/><polygon class="cls-37" points="151.41 70.17 175.06 65.39 174.98 89.3 151.34 94.08 151.41 70.17"/><polygon class="cls-44" points="151.34 94.08 174.98 89.3 194.69 93.62 171.04 98.41 151.34 94.08"/><polygon class="cls-38" points="151.41 70.17 175.06 65.39 194.77 69.72 171.12 74.51 151.41 70.17"/><polygon class="cls-37" points="171.12 74.51 194.77 69.72 194.69 93.62 171.04 98.41 171.12 74.51"/><polygon class="cls-56" points="171.12 74.51 171.04 98.41 151.34 94.08 151.41 70.17 171.12 74.51"/><polygon class="cls-37" points="171.3 74.43 194.94 69.64 194.86 93.91 171.22 98.69 171.3 74.43"/><g class="cls-2"><g class="cls-57"><path class="cls-4" d="M460.13,186.41a1.31,1.31,0,0,0-.79.46,3.4,3.4,0,0,0-.55.95c0-.09-.08-.2-.13-.32a1.27,1.27,0,0,0-.24-.33,1.1,1.1,0,0,0-.38-.23,1.36,1.36,0,0,0-.57,0,1.41,1.41,0,0,0-.49.2,1.61,1.61,0,0,0-.41.33,2.61,2.61,0,0,0-.31.43,1.75,1.75,0,0,0-.2.47h0a4.17,4.17,0,0,0,0-.5c0-.17,0-.33,0-.5l-.67.14c0,.2,0,.42,0,.66s0,.5,0,.77l0,4.64.7-.14,0-3a5.86,5.86,0,0,1,.08-1,3.4,3.4,0,0,1,.24-.78,1.6,1.6,0,0,1,.41-.56,1.12,1.12,0,0,1,.59-.28.51.51,0,0,1,.62.29,3.49,3.49,0,0,1,.18,1.39l0,3.45.71-.14v-3.51a3.5,3.5,0,0,1,.09-.75,2.43,2.43,0,0,1,.24-.61,1.7,1.7,0,0,1,.34-.43,1,1,0,0,1,.43-.21.78.78,0,0,1,.51,0,.87.87,0,0,1,.31.32,1.4,1.4,0,0,1,.16.5,3.86,3.86,0,0,1,0,.6l0,3.64.7-.14,0-3.69a6.68,6.68,0,0,0-.07-1,2,2,0,0,0-.27-.74,1,1,0,0,0-.49-.42,1.6,1.6,0,0,0-.76,0" transform="translate(-281.52 -103.84)"/><path class="cls-4" d="M464.48,191.06a.86.86,0,0,1-.66-.11.84.84,0,0,1-.26-.76,1.28,1.28,0,0,1,.4-1,2.25,2.25,0,0,1,1.08-.48l.7-.14V189a4.16,4.16,0,0,1-.1.72,2.23,2.23,0,0,1-.24.63,1.74,1.74,0,0,1-.38.47,1.18,1.18,0,0,1-.54.26m.21-5.56a2.35,2.35,0,0,0-.91.4,2.62,2.62,0,0,0-.77.87l.44.56a2.13,2.13,0,0,1,.58-.61,1.87,1.87,0,0,1,.67-.29.78.78,0,0,1,.77.18,1.34,1.34,0,0,1,.27.94v.18l-.27.05c-.26.06-.55.13-.85.23a2.94,2.94,0,0,0-.87.43,2.34,2.34,0,0,0-.95,2,2.11,2.11,0,0,0,.12.75,1.13,1.13,0,0,0,.34.49,1.11,1.11,0,0,0,.49.26,1.4,1.4,0,0,0,.61,0,1.55,1.55,0,0,0,.84-.47,2.92,2.92,0,0,0,.55-.88h0V191a2.19,2.19,0,0,0,0,.46l.68-.14c0-.15,0-.32-.05-.5s0-.37,0-.55v-2.59a3.08,3.08,0,0,0-.41-1.86,1.21,1.21,0,0,0-1.34-.36" transform="translate(-281.52 -103.84)"/><path class="cls-4" d="M469,184.63a1.56,1.56,0,0,0-.57.23,2.13,2.13,0,0,0-.51.44,2,2,0,0,0-.36.62,2.17,2.17,0,0,0-.14.82,1.82,1.82,0,0,0,.12.73.93.93,0,0,0,.32.42,1.2,1.2,0,0,0,.47.22,4.37,4.37,0,0,0,.56.09l.33.05a.69.69,0,0,1,.29.12.73.73,0,0,1,.21.22,1.06,1.06,0,0,1,.07.4,1,1,0,0,1-.09.43,1.08,1.08,0,0,1-.21.34,1,1,0,0,1-.31.22,1.39,1.39,0,0,1-.32.12.81.81,0,0,1-.63-.09,1.91,1.91,0,0,1-.45-.51l-.56.74a1.33,1.33,0,0,0,1.63.8,2.12,2.12,0,0,0,.62-.23,2,2,0,0,0,.54-.44,2.32,2.32,0,0,0,.39-.67,3,3,0,0,0,.15-.91,2.14,2.14,0,0,0-.11-.74,1.29,1.29,0,0,0-.29-.47,1,1,0,0,0-.44-.23,2.26,2.26,0,0,0-.53-.1,2.57,2.57,0,0,1-.4-.05,1.79,1.79,0,0,1-.35-.11.56.56,0,0,1-.23-.2.54.54,0,0,1-.08-.31.85.85,0,0,1,.08-.39,1.17,1.17,0,0,1,.19-.3,1.09,1.09,0,0,1,.27-.21.84.84,0,0,1,.29-.1.66.66,0,0,1,.54.08,1.2,1.2,0,0,1,.35.46l.59-.67a1.25,1.25,0,0,0-.6-.73,1.29,1.29,0,0,0-.83-.09" transform="translate(-281.52 -103.84)"/><polyline class="cls-4" points="190.78 76.57 190.07 76.71 190.03 86.52 190.73 86.38 190.74 83.17 192.82 85.96 193.86 85.75 191.63 82.89 193.68 79.71 192.68 79.91 190.75 82.97 190.78 76.57"/></g></g><polygon class="cls-38" points="151.33 69.91 174.97 65.13 194.94 69.52 171.3 74.3 151.33 69.91"/><polygon class="cls-58" points="171.3 74.3 194.94 69.52 194.94 69.64 171.3 74.43 171.3 74.3"/><path class="cls-56" d="M452.82,178.27l-.08,24.26-.09,0-20-4.39V198l.08-24.27.09,0,20,4.39Zm-20,19.65,19.71,4.33.07-23.91L432.93,174l-.07,23.91" transform="translate(-281.52 -103.84)"/></g></g><g id="receive-2" data-name="receive"><g class="cls-2"><polygon class="cls-20" points="12.65 53.26 14.51 53.11 15.37 88.16 13.51 88.31 12.65 53.26"/><polygon class="cls-20" points="13.51 88.31 15.37 88.16 95.02 115.59 93.16 115.74 13.51 88.31"/><polygon class="cls-4" points="12.65 53.26 14.51 53.11 94.16 80.54 92.31 80.69 12.65 53.26"/><polygon class="cls-4" points="92.31 80.69 93.16 115.74 13.51 88.31 12.65 53.26 92.31 80.69"/><g class="cls-2"><g class="cls-59"><path class="cls-14" d="M322.61,186.85c.62.21.87,0,.86-.75,0-.43-.1-.77-1.06-1.31a2.47,2.47,0,0,1-1.35-2.46c0-1.33.44-2,1.28-1.66s1.42,1.21,1.52,2.81a.36.36,0,0,1,0,.14l0,0-.39-.13s-.07-.09-.08-.17c-.11-.94-.35-1.32-.95-1.52s-.74.26-.73.66.11.66,1,1.23a2.53,2.53,0,0,1,1.38,2.52c0,1.44-.47,2.09-1.41,1.76-1.28-.44-1.58-1.84-1.61-3,0-.1,0-.18.08-.16l.39.13s.08.09.08.19c.08.89.26,1.38,1,1.65m-2.61,2.9c-.17-.05-.3-.1-.69-.64l-.79-1.25a2.73,2.73,0,0,1-.34-1.31L318,179a1.65,1.65,0,0,1,.28-1.1l2.84-2.79a.3.3,0,0,1,.31-.07.62.62,0,0,1,.31.28l3,4.82a2.66,2.66,0,0,1,.34,1.31l.19,7.58a1.65,1.65,0,0,1-.28,1.1l-2.84,2.79a.32.32,0,0,1-.3,0,.62.62,0,0,1-.32-.29l-1-1.63c-.15-.23-.08-.28,0-.29a1.05,1.05,0,0,0,.43-.29s0,0,0,0,0,0,.05.05l.77,1.26.05,0h0L324.7,189a.25.25,0,0,0,0-.17l-.18-7.59a.33.33,0,0,0-.05-.19l-3-4.8s0,0,0,0a0,0,0,0,0-.05,0L318.56,179a.19.19,0,0,0,0,.16l.18,7.59a.46.46,0,0,0,.05.2l.82,1.31a.73.73,0,0,0,.32.29c.25.09.39-.28.38-.71l-.19-7.48c0-.1,0-.19.09-.17l.37.13s.09.11.09.23l.19,7.48c0,1.3-.27,2-.82,1.76m1.41-17.41c-3-1-5.38,3.39-5.22,9.89s2.75,12.64,5.8,13.69,5.37-3.38,5.21-9.89-2.75-12.64-5.79-13.69" transform="translate(-281.52 -103.84)"/><path class="cls-4" d="M322.34,180.67c-.84-.29-1.32.33-1.28,1.66a2.47,2.47,0,0,0,1.35,2.46c1,.54,1,.88,1.06,1.31,0,.74-.24,1-.86.75-.78-.27-1-.76-1-1.65,0-.1,0-.18-.08-.19l-.39-.13c-.05,0-.08.06-.08.16,0,1.13.33,2.53,1.61,3,.94.33,1.44-.32,1.41-1.76a2.53,2.53,0,0,0-1.38-2.52c-.91-.57-1-.75-1-1.23s.05-.9.73-.66.84.58.95,1.52c0,.08.05.16.08.17l.39.13,0,0a.36.36,0,0,0,0-.14c-.1-1.6-.58-2.49-1.52-2.81m-.92-5.67a.3.3,0,0,0-.31.07l-2.84,2.79A1.65,1.65,0,0,0,318,179l.19,7.59a2.73,2.73,0,0,0,.34,1.31l.79,1.25c.39.54.52.59.69.64.55.2.85-.46.82-1.76l-.19-7.48c0-.12-.05-.22-.09-.23l-.37-.13c-.06,0-.09.07-.09.17l.19,7.48c0,.43-.13.8-.38.71a.73.73,0,0,1-.32-.29l-.82-1.31a.46.46,0,0,1-.05-.2l-.18-7.59a.19.19,0,0,1,0-.16l2.83-2.78a0,0,0,0,1,.05,0s0,0,0,0l3,4.8a.33.33,0,0,1,.05.19l.18,7.59a.25.25,0,0,1,0,.17l-2.84,2.79h0l-.05,0-.77-1.26s0-.05-.05-.05,0,0,0,0a1.05,1.05,0,0,1-.43.29c-.05,0-.12.06,0,.29l1,1.63a.62.62,0,0,0,.32.29.32.32,0,0,0,.3,0l2.84-2.79a1.65,1.65,0,0,0,.28-1.1l-.19-7.58a2.66,2.66,0,0,0-.34-1.31l-3-4.82a.62.62,0,0,0-.31-.28" transform="translate(-281.52 -103.84)"/><path class="cls-14" d="M347.17,200.68a5,5,0,0,0,1.82.41,1.39,1.39,0,0,0,1.12-.67s0,0,.05,0l0,0a.39.39,0,0,1,0,.17s-.05,1.13-1,1.18a4.59,4.59,0,0,1-1.67-.27,6.82,6.82,0,0,1-2.11-1.19.25.25,0,0,1-.06-.19c0-.07,0-.12.06-.11h0s.85.37,1.74.67m-.44-.37c-1.92-.66-2.35-1.29-2.5-1.7a1.21,1.21,0,0,1-.09-.53c0-.61.63-.56,1.16-.45l.08,0h0s.06.07.07.15,0,.15,0,.16c-.32,0-.62.13-.66.26a5,5,0,0,0,2.16,1.31c.19.06.38.12.56.16,1.31.3,2.09.08,2.16-.06a.22.22,0,0,0,0-.17.25.25,0,0,1,0-.19.05.05,0,0,1,.05,0s0,0,0,0a1.2,1.2,0,0,1,.14.47.77.77,0,0,1-.06.41c-.18.4-1.18.81-3.08.16m.35-1.61-.23-.1a2.11,2.11,0,0,1-1.2-1.09,1.36,1.36,0,0,1-.08-.49c0-.55.42-.46.46-.45s.06.06.07.13a.28.28,0,0,1,0,.17l0,.06a2.77,2.77,0,0,0,1,.57.88.88,0,0,0,.29.06,2.87,2.87,0,0,0,.67,0l0,0,.44.73a.31.31,0,0,1,0,.15.14.14,0,0,1,0,.12,1.59,1.59,0,0,1-1.39.12m-.43-2.14-.23-.1a1.89,1.89,0,0,1-1.13-1.32.52.52,0,0,1,.47-.59h0s.06.06.07.13,0,.16,0,.18a.16.16,0,0,0-.08.11V195a1.84,1.84,0,0,0,.9.54,3,3,0,0,0,.66.15,2.76,2.76,0,0,0,.86,0l.05,0,.35.65a.27.27,0,0,1,0,.16c0,.06,0,.1,0,.1a4.25,4.25,0,0,1-1.89-.06m-.26-1.86a2.42,2.42,0,0,1-1.67-1.37,1.32,1.32,0,0,1-.05-.52c.1-.7,1.15-.38,1.36-.31a.17.17,0,0,1,.07.16c0,.08,0,.14-.05.15-.35,0-.64.19-.68.32a3.19,3.19,0,0,0,1.2.62,4.71,4.71,0,0,0,2.11.31h0s.05,0,.06.1a.22.22,0,0,1,0,.18s-.53.86-2,.48l-.39-.12m2.49,2.42a.16.16,0,0,1-.06-.11.24.24,0,0,1,0-.18,3.21,3.21,0,0,0,.79-1.9,1.18,1.18,0,0,0-.71-1.05s-.06-.07-.07-.14a.24.24,0,0,1,0-.16.71.71,0,0,1,.58-.14c.25.08.57.43.69,1.58.2,1.89-1.19,2.1-1.25,2.11h0m-1.45-3.38,0-.05a.25.25,0,0,1,0-.19,4.09,4.09,0,0,0,.08-1.17,2.65,2.65,0,0,0-.14-.48,6.65,6.65,0,0,1-.41-2.23,2.82,2.82,0,0,1,1.52-2.42h0s.05,0,.06.1a.21.21,0,0,1,0,.18,7.55,7.55,0,0,0-.91,1.7,2.38,2.38,0,0,0,.12,1.4,6.15,6.15,0,0,1,.25,1.14,2.85,2.85,0,0,1-.48,2h0m-.54-.86,0,0c-.05-.11-1.34-2.69-1-4.52a4.24,4.24,0,0,1,1-2.06,2.61,2.61,0,0,0,.57-1,6.19,6.19,0,0,0,.11-2,.19.19,0,0,1,0-.16h0a.1.1,0,0,1,.06.08,6.36,6.36,0,0,1,.13,3.1,5.4,5.4,0,0,1-.77,1.54,2.76,2.76,0,0,0-.59,1.39,19.86,19.86,0,0,0,.52,3.48.26.26,0,0,1,0,.18l0,0m.11-11.73c-3.05-1-5.38,3.39-5.22,9.89s2.75,12.64,5.79,13.69,5.38-3.38,5.22-9.89S350,182.2,347,181.15" transform="translate(-281.52 -103.84)"/><path class="cls-4" d="M347.6,183.09h0a.19.19,0,0,0,0,.16,6.19,6.19,0,0,1-.11,2,2.61,2.61,0,0,1-.57,1,4.24,4.24,0,0,0-1,2.06c-.36,1.83.93,4.41,1,4.52l0,0,0,0a.26.26,0,0,0,0-.18,19.86,19.86,0,0,1-.52-3.48,2.76,2.76,0,0,1,.59-1.39,5.4,5.4,0,0,0,.77-1.54,6.36,6.36,0,0,0-.13-3.1.1.1,0,0,0-.06-.08" transform="translate(-281.52 -103.84)"/><path class="cls-4" d="M348.44,187.2h0a2.82,2.82,0,0,0-1.52,2.42,6.65,6.65,0,0,0,.41,2.23,2.65,2.65,0,0,1,.14.48,4.09,4.09,0,0,1-.08,1.17.25.25,0,0,0,0,.19l0,.05h0a2.85,2.85,0,0,0,.48-2,6.15,6.15,0,0,0-.25-1.14,2.38,2.38,0,0,1-.12-1.4,7.55,7.55,0,0,1,.91-1.7.21.21,0,0,0,0-.18c0-.06,0-.1-.06-.1" transform="translate(-281.52 -103.84)"/><path class="cls-4" d="M346,192.5c-.21-.07-1.26-.39-1.36.31a1.32,1.32,0,0,0,.05.52,2.42,2.42,0,0,0,1.67,1.37l.39.12c1.43.38,1.94-.44,2-.48a.22.22,0,0,0,0-.18c0-.06,0-.09-.06-.1h0a4.71,4.71,0,0,1-2.11-.31,3.19,3.19,0,0,1-1.2-.62c0-.13.33-.29.68-.32,0,0,.06-.07.05-.15a.17.17,0,0,0-.07-.16" transform="translate(-281.52 -103.84)"/><path class="cls-4" d="M349.46,193.44a.71.71,0,0,0-.58.14.24.24,0,0,0,0,.16c0,.07,0,.13.07.14a1.18,1.18,0,0,1,.71,1.05,3.21,3.21,0,0,1-.79,1.9.24.24,0,0,0,0,.18.16.16,0,0,0,.06.11h0c.06,0,1.45-.22,1.25-2.11-.12-1.15-.44-1.5-.69-1.58" transform="translate(-281.52 -103.84)"/><path class="cls-4" d="M345.78,194.55h0a.52.52,0,0,0-.47.59,1.89,1.89,0,0,0,1.13,1.32l.23.1a4.25,4.25,0,0,0,1.89.06s0,0,0-.1a.27.27,0,0,0,0-.16l-.35-.65-.05,0a2.76,2.76,0,0,1-.86,0,3,3,0,0,1-.66-.15,1.84,1.84,0,0,1-.9-.54V195a.16.16,0,0,1,.08-.11s.05-.1,0-.18,0-.12-.07-.13" transform="translate(-281.52 -103.84)"/><path class="cls-4" d="M346,196.57s-.44-.1-.46.45a1.36,1.36,0,0,0,.08.49,2.11,2.11,0,0,0,1.2,1.09l.23.1a1.59,1.59,0,0,0,1.39-.12.14.14,0,0,0,0-.12.31.31,0,0,0,0-.15l-.44-.73,0,0a2.87,2.87,0,0,1-.67,0,.88.88,0,0,1-.29-.06,2.77,2.77,0,0,1-1-.57l0-.06a.28.28,0,0,0,0-.17c0-.07,0-.12-.07-.13" transform="translate(-281.52 -103.84)"/><path class="cls-4" d="M345.39,197.65h0l-.08,0c-.53-.11-1.14-.16-1.16.45a1.21,1.21,0,0,0,.09.53c.15.41.58,1,2.5,1.7s2.9.24,3.08-.16a.77.77,0,0,0,.06-.41,1.2,1.2,0,0,0-.14-.47s0,0,0,0a.05.05,0,0,0-.05,0,.25.25,0,0,0,0,.19.22.22,0,0,1,0,.17c-.07.14-.85.36-2.16.06-.18,0-.37-.1-.56-.16a5,5,0,0,1-2.16-1.31c0-.13.34-.25.66-.26,0,0,.06-.08,0-.16s0-.14-.07-.15" transform="translate(-281.52 -103.84)"/><path class="cls-4" d="M350.16,200.39s0,0-.05,0a1.39,1.39,0,0,1-1.12.67,5,5,0,0,1-1.82-.41c-.89-.3-1.74-.67-1.74-.67h0s-.06,0-.06.11a.25.25,0,0,0,.06.19,6.82,6.82,0,0,0,2.11,1.19,4.59,4.59,0,0,0,1.67.27c1,0,1-1.13,1-1.18a.39.39,0,0,0,0-.17l0,0" transform="translate(-281.52 -103.84)"/><path class="cls-14" d="M336.29,194.1c-.11,0-.19.09-.21.33a.84.84,0,0,0,.19.66l0,0c.11,0,.2-.1.22-.32a.87.87,0,0,0-.19-.67s0,0,0,0m-3.4-1.19h-.05c-.11,0-.19.26-.16.55s.13.44.23.47h0c.13,0,.2-.27.16-.55s-.12-.44-.23-.47m1.7-3.56-.73-.25,0,1.15.67.24s0,0,0,.07l0,1.83c0,.05,0,.05,0,0l-2.31-.79c.08.26.17.49.26.73l.47-.07h0c.1,0,.19.21.21.44l.15,1.25a2.71,2.71,0,0,0,1.2,1,1.26,1.26,0,0,0,1.16-.16l.08-1.17c0-.21.1-.33.2-.3l0,0,.5.41c.08-.18.17-.38.24-.59h0l-1.15-.39c-.19-.07-.38-.73-.43-1s-.14-1.13-.17-1.4c-.11-.86-.41-1-.47-1m.15-2.85-.95-.33,0,1.19.88.3c.18.07.41,0,.4-.41a.84.84,0,0,0-.36-.75m-2.22-.79-.4-.14.12.55c0,.25,0,.51-.1.58l-.48.32c0,.21,0,.44,0,.67a14.56,14.56,0,0,0,.15,1.78l.81.28-.1-4m4.63,1.49c-.09,0-.17.06-.2.24a1,1,0,0,0,.13.72.18.18,0,0,0,.09.07c.09,0,.17-.06.2-.23a1,1,0,0,0-.13-.73.18.18,0,0,0-.09-.07m-5.48-1.91a.1.1,0,0,0-.09,0,.73.73,0,0,0-.09.64c0,.22.13.36.22.39a.1.1,0,0,0,.09,0,.79.79,0,0,0,.1-.65c0-.2-.14-.35-.23-.38m3.18-2.69-.37.72c0,.07-.09.1-.14.08s-.11-.09-.16-.19l-.37-1c-.62,0-1.15.58-1.53,1.45l3,1a1.43,1.43,0,0,1,.63.66,4,4,0,0,1,.48,1.82,2.17,2.17,0,0,1-.54,1.6,4.29,4.29,0,0,1,.51,1.88.55.55,0,0,0,.3.45h0c.15,0,.32-.07.31-.78v-.29c0-.06,0-.1,0-.09l.28.1v-.48c0-.2,0-.41,0-.64l-.53-.71a1,1,0,0,1-.13-.66l.24-1.26a7.06,7.06,0,0,0-2-3.75m-.55-1c-.05,0-.11,0-.16.09a1,1,0,0,0,0,.73.32.32,0,0,0,.17.21c.05,0,.11,0,.15-.08a1,1,0,0,0,0-.73.34.34,0,0,0-.17-.22m-.4-.79h.1l.18-.66q0-.1.09-.09a.25.25,0,0,1,.1.15l.22.8a.24.24,0,0,0,.09.06l.24-.53c0-.05.05-.06.08-.05h0a.34.34,0,0,1,.09.19l.15.85.1.09.29-.39s0,0,.07,0,0,0,0,0a.44.44,0,0,1,.07.22l.08.86.09.12.34-.23h0a.16.16,0,0,1,.07.07.57.57,0,0,1,.05.24v.84l.08.17.36-.08h0a.15.15,0,0,1,.08.09.63.63,0,0,1,0,.24l-.07.8c0,.06,0,.11.07.18l.38.11a.24.24,0,0,1,.1.14.53.53,0,0,1,0,.25l-.14.72a2.09,2.09,0,0,1,.05.21l.38.26a.3.3,0,0,1,.09.18.49.49,0,0,1,0,.24l-.21.61,0,.22.37.43a.36.36,0,0,1,.07.2.38.38,0,0,1,0,.22l-.27.49c0,.07,0,.14,0,.21l.34.57a.5.5,0,0,1,.06.24.36.36,0,0,1-.05.19l-.31.33a1.41,1.41,0,0,0,0,.21l.29.67a.69.69,0,0,1,0,.25.17.17,0,0,1-.07.16l-.35.18c0,.07,0,.12,0,.19l.24.77a.72.72,0,0,1,0,.25c0,.07-.05.12-.08.12h-.38a1,1,0,0,1,0,.18l.17.83a.48.48,0,0,1,0,.24c0,.07-.06.09-.1.08l-.38-.16-.06.14.11.86a.31.31,0,0,1,0,.22s0,0-.07,0l0,0-.38-.32-.06.1,0,.86a.35.35,0,0,1,0,.2.07.07,0,0,1-.07,0s0,0,0,0l-.36-.48a.27.27,0,0,0-.08.07l0,.82c0,.08,0,.15-.06.17h-.05a.14.14,0,0,1-.06-.07l-.32-.61-.09,0-.12.76c0,.09,0,.13-.08.13h0a.17.17,0,0,1-.08-.1l-.28-.72a.14.14,0,0,1-.09,0l-.18.67c0,.06-.06.1-.09.09a.29.29,0,0,1-.1-.16l-.22-.8-.09-.05-.25.53s-.05.06-.08.05,0,0,0,0a.28.28,0,0,1-.08-.19l-.16-.85a.38.38,0,0,1-.09-.09l-.3.39s0,0-.06,0,0,0-.05,0a.57.57,0,0,1-.07-.22l-.08-.86L333,195l-.34.23s0,0,0,0a.14.14,0,0,1-.06-.07.41.41,0,0,1-.06-.23v-.85c0-.05-.05-.1-.07-.16L332,194h0a.17.17,0,0,1-.07-.1.48.48,0,0,1,0-.24l.06-.79c0-.06,0-.11-.06-.18l-.38-.11s-.08-.06-.1-.14a.55.55,0,0,1,0-.25l.14-.73c0-.07,0-.14,0-.2l-.38-.26a.3.3,0,0,1-.09-.18.63.63,0,0,1,0-.24l.2-.62,0-.22-.36-.42a.45.45,0,0,1-.05-.43l.26-.49a1.64,1.64,0,0,0,0-.22l-.33-.56a.41.41,0,0,1-.06-.23.26.26,0,0,1,.05-.18l.31-.34a1.62,1.62,0,0,0,0-.22l-.3-.67a.64.64,0,0,1,0-.24c0-.09,0-.15.07-.16l.35-.18a1.36,1.36,0,0,1,0-.2l-.24-.77a.49.49,0,0,1,0-.24c0-.07,0-.12.08-.12h.37c0-.06,0-.12,0-.17l-.18-.84a.48.48,0,0,1,0-.24c0-.06.06-.09.09-.07l.38.15.06-.13-.11-.86a.55.55,0,0,1,0-.23.07.07,0,0,1,.08,0l0,0,.38.32.07-.11,0-.85a.38.38,0,0,1,.05-.21s0,0,.06,0l0,0,.35.47.09-.07,0-.82a.21.21,0,0,1,.06-.17h0s0,0,.07.06l.32.61.09,0,.11-.75c0-.09.05-.14.08-.14h0a.38.38,0,0,1,.08.11l.27.71m.3-4c-3-1.05-5.38,3.38-5.22,9.89s2.76,12.64,5.8,13.68,5.38-3.38,5.22-9.89-2.76-12.64-5.8-13.68" transform="translate(-281.52 -103.84)"/><path class="cls-4" d="M336.31,195.12l0,0a.84.84,0,0,1-.19-.66c0-.24.1-.37.21-.33s0,0,0,0a.87.87,0,0,1,.19.67c0,.22-.11.35-.22.32m-3.4-1.2c-.1,0-.2-.23-.23-.47s.05-.53.16-.55h.05c.11,0,.2.23.23.47s0,.53-.16.55h0m1-3.67,0-1.15.73.25c.06,0,.36.17.47,1,0,.27.12,1.12.17,1.4s.24,1,.43,1l1.15.39h0c-.07.21-.16.41-.24.59l-.5-.41,0,0c-.1,0-.18.09-.2.3l-.08,1.17a1.26,1.26,0,0,1-1.16.16,2.71,2.71,0,0,1-1.2-1l-.15-1.25c0-.23-.11-.41-.21-.44h0l-.47.07c-.09-.24-.18-.47-.26-.73l2.31.79s0,0,0,0l0-1.83c0-.05,0-.06,0-.07l-.67-.24m-.07-2.89,0-1.19.95.33a.84.84,0,0,1,.36.75c0,.41-.22.48-.4.41l-.88-.3m-2,2.11a14.56,14.56,0,0,1-.15-1.78c0-.23,0-.46,0-.67l.48-.32c.1-.07.14-.33.1-.58l-.12-.55.4.14.1,4-.81-.28m5.36-1.24a.18.18,0,0,1-.09-.07,1,1,0,0,1-.13-.72c0-.18.11-.27.2-.24a.18.18,0,0,1,.09.07,1,1,0,0,1,.13.73c0,.17-.11.26-.2.23m-5.46-1.9c-.09,0-.18-.17-.22-.39a.73.73,0,0,1,.09-.64.1.1,0,0,1,.09,0c.09,0,.18.18.23.38a.79.79,0,0,1-.1.65.1.1,0,0,1-.09,0m2.63-2.93c.05,0,.1,0,.14-.08l.37-.72a7.06,7.06,0,0,1,2,3.75l-.24,1.26a1,1,0,0,0,.13.66l.53.71c0,.23,0,.44,0,.64v.48L337,190s0,0,0,.09v.29c0,.71-.16.8-.31.78h0a.55.55,0,0,1-.3-.45,4.29,4.29,0,0,0-.51-1.88,2.17,2.17,0,0,0,.54-1.6,4,4,0,0,0-.48-1.82,1.43,1.43,0,0,0-.63-.66l-3-1c.38-.87.91-1.42,1.53-1.45l.37,1c.05.1.1.17.16.19m0-.79a.32.32,0,0,1-.17-.21,1,1,0,0,1,0-.73c.05-.08.11-.11.16-.09a.34.34,0,0,1,.17.22,1,1,0,0,1,0,.73c0,.07-.1.1-.15.08m-.06-2.56s-.07,0-.09.09l-.18.66h-.1l-.27-.71a.38.38,0,0,0-.08-.11h0s-.07.05-.08.14l-.11.75-.09,0-.32-.61s-.05-.06-.07-.06h0a.21.21,0,0,0-.06.17l0,.82-.09.07-.35-.47,0,0s0,0-.06,0a.38.38,0,0,0-.05.21l0,.85-.07.11-.38-.32,0,0a.07.07,0,0,0-.08,0,.55.55,0,0,0,0,.23l.11.86-.06.13-.38-.15s-.07,0-.09.07a.48.48,0,0,0,0,.24l.18.84c0,.05,0,.11,0,.17h-.37s-.07.05-.08.12a.49.49,0,0,0,0,.24l.24.77a1.36,1.36,0,0,0,0,.2l-.35.18s-.06.07-.07.16a.64.64,0,0,0,0,.24l.3.67a1.62,1.62,0,0,1,0,.22l-.31.34a.26.26,0,0,0-.05.18.41.41,0,0,0,.06.23l.33.56a1.64,1.64,0,0,1,0,.22l-.26.49a.45.45,0,0,0,.05.43l.36.42,0,.22-.2.62a.63.63,0,0,0,0,.24.3.3,0,0,0,.09.18l.38.26c0,.06,0,.13,0,.2l-.14.73a.55.55,0,0,0,0,.25c0,.08.06.13.1.14l.38.11c0,.07,0,.12.06.18l-.06.79a.48.48,0,0,0,0,.24.17.17,0,0,0,.07.1h0l.37-.07c0,.06.05.11.07.16v.85a.41.41,0,0,0,.06.23.14.14,0,0,0,.06.07s0,0,0,0L333,195l.09.13.08.86a.57.57,0,0,0,.07.22s0,0,.05,0,0,0,.06,0l.3-.39a.38.38,0,0,0,.09.09l.16.85a.28.28,0,0,0,.08.19s0,0,0,0,.06,0,.08-.05l.25-.53.09.05.22.8a.29.29,0,0,0,.1.16s.07,0,.09-.09l.18-.67a.14.14,0,0,0,.09,0l.28.72a.17.17,0,0,0,.08.1h0s.07,0,.08-.13l.12-.76.09,0,.32.61a.14.14,0,0,0,.06.07h.05s0-.09.06-.17l0-.82a.27.27,0,0,1,.08-.07l.36.48s0,0,0,0a.07.07,0,0,0,.07,0,.35.35,0,0,0,0-.2l0-.86.06-.1.38.32,0,0s0,0,.07,0a.31.31,0,0,0,0-.22l-.11-.86.06-.14.38.16s.08,0,.1-.08a.48.48,0,0,0,0-.24l-.17-.83a1,1,0,0,0,0-.18h.38s.06,0,.08-.12a.72.72,0,0,0,0-.25l-.24-.77c0-.07,0-.12,0-.19l.35-.18a.17.17,0,0,0,.07-.16.69.69,0,0,0,0-.25l-.29-.67a1.41,1.41,0,0,1,0-.21l.31-.33a.36.36,0,0,0,.05-.19.5.5,0,0,0-.06-.24l-.34-.57c0-.07,0-.14,0-.21l.27-.49a.38.38,0,0,0,0-.22.36.36,0,0,0-.07-.2l-.37-.43,0-.22.21-.61a.49.49,0,0,0,0-.24.3.3,0,0,0-.09-.18l-.38-.26a2.09,2.09,0,0,0-.05-.21l.14-.72a.53.53,0,0,0,0-.25.24.24,0,0,0-.1-.14l-.38-.11c0-.07,0-.12-.07-.18l.07-.8a.63.63,0,0,0,0-.24.15.15,0,0,0-.08-.09h0l-.36.08-.08-.17v-.84a.57.57,0,0,0-.05-.24.16.16,0,0,0-.07-.07h0l-.34.23-.09-.12-.08-.86a.44.44,0,0,0-.07-.22s0,0,0,0-.05,0-.07,0l-.29.39-.1-.09-.15-.85a.34.34,0,0,0-.09-.19h0s-.06,0-.08.05l-.24.53a.24.24,0,0,1-.09-.06l-.22-.8a.25.25,0,0,0-.1-.15" transform="translate(-281.52 -103.84)"/><path class="cls-14" d="M310,185.43c-.09,0-.16.1-.15.31s.08.39.17.42.16-.11.15-.31-.08-.39-.17-.42m-2.32-12.21c-.08,0-.15.11-.15.32s.08.38.17.41.16-.1.16-.3-.09-.4-.18-.43M309,187.7c-.72-.25-1.34-1.76-1.38-3.38l-.1-4.32c0-.25.07-.41.18-.38l2.54.88c.11,0,.19-.13.18-.37l0-2c0-.25.07-.41.18-.37l.25.08c.72.25,1.34,1.77,1.38,3.39l0,.63c0,1.62-.52,2.73-1.24,2.48l-1.92-.66,0,.71,1.25.43a.59.59,0,0,1,.2.5c0,1.63-.51,2.74-1.24,2.49l-.28-.1m-1.71-13.12c-.11,0-.2-.27-.21-.51,0-1.63.52-2.74,1.24-2.49l.28.1c.72.25,1.34,1.76,1.38,3.39l.11,4.32c0,.24-.08.41-.19.37l-2.54-.87c-.1,0-.19.13-.18.37l.05,2c0,.24-.08.4-.19.37l-.25-.09c-.72-.25-1.34-1.77-1.38-3.39v-.62c0-1.62.51-2.74,1.23-2.49l1.92.66,0-.7-1.24-.43m1.33-6.64c-3.05-1.05-5.38,3.38-5.22,9.89s2.75,12.64,5.79,13.68,5.38-3.38,5.22-9.89-2.75-12.64-5.79-13.68" transform="translate(-281.52 -103.84)"/><path class="cls-4" d="M307.65,174c-.09,0-.16-.22-.17-.41s.07-.35.15-.32.17.22.18.43-.07.34-.16.3m1-2.27-.28-.1c-.72-.25-1.28.86-1.24,2.49,0,.24.1.47.21.51l1.24.43,0,.7-1.92-.66c-.72-.25-1.27.87-1.23,2.49v.62c0,1.62.66,3.14,1.38,3.39l.25.09c.11,0,.19-.13.19-.37l-.05-2c0-.24.08-.41.18-.37l2.54.87c.11,0,.19-.13.19-.37l-.11-4.32c0-1.63-.66-3.14-1.38-3.39" transform="translate(-281.52 -103.84)"/><path class="cls-4" d="M310,186.16c-.09,0-.17-.22-.17-.42s.06-.34.15-.31.17.22.17.42-.06.34-.15.31m.84-8.33-.25-.08c-.11,0-.19.12-.18.37l0,2c0,.24-.07.41-.18.37l-2.54-.88c-.11,0-.19.13-.18.38l.1,4.32c0,1.62.66,3.13,1.38,3.38l.28.1c.73.25,1.28-.86,1.24-2.49a.59.59,0,0,0-.2-.5l-1.25-.43,0-.71,1.92.66c.72.25,1.28-.86,1.24-2.48l0-.63c0-1.62-.66-3.14-1.38-3.39" transform="translate(-281.52 -103.84)"/><path class="cls-14" d="M361.27,197.55c0-.17.05-.39.07-.57a20.11,20.11,0,0,0-.94-7.44,19.35,19.35,0,0,1,2.46,10.71,1.52,1.52,0,0,1,0,.21,9.72,9.72,0,0,1,.63,4.47s0,0,0-.08c-.27-1.13-.63-1.57-1-1.69a.77.77,0,0,0-.71.17.25.25,0,0,1-.1.12h0a1.37,1.37,0,0,1-1.46.29,3.9,3.9,0,0,1-1.66-1.36,15,15,0,0,1-2.36-5.06,9.68,9.68,0,0,0,.88,1.42,4.06,4.06,0,0,0,1.77,1.52,1.35,1.35,0,0,0,1.51-.38,61.69,61.69,0,0,1-3.18-8.1,13.85,13.85,0,0,1-.44-1.39,60.81,60.81,0,0,0,3.07,6c-1.16-3-2.23-6.52-2.21-6.52h0a59.07,59.07,0,0,0,3.56,7.43,1.76,1.76,0,0,0,.14.23m-1.48-12c-3-1.05-5.38,3.38-5.22,9.89s2.75,12.64,5.79,13.68,5.38-3.38,5.22-9.89-2.75-12.64-5.79-13.68" transform="translate(-281.52 -103.84)"/><path class="cls-4" d="M360.4,189.54a20.11,20.11,0,0,1,.94,7.44c0,.18,0,.4-.07.57a1.76,1.76,0,0,1-.14-.23,59.07,59.07,0,0,1-3.56-7.43h0s1.05,3.57,2.21,6.52a60.81,60.81,0,0,1-3.07-6,13.85,13.85,0,0,0,.44,1.39,61.69,61.69,0,0,0,3.18,8.1,1.35,1.35,0,0,1-1.51.38,4.06,4.06,0,0,1-1.77-1.52,9.68,9.68,0,0,1-.88-1.42,15,15,0,0,0,2.36,5.06,3.9,3.9,0,0,0,1.66,1.36,1.37,1.37,0,0,0,1.46-.29h0a.25.25,0,0,0,.1-.12.77.77,0,0,1,.71-.17c.33.12.69.56,1,1.69,0,.05,0,.08,0,.08a9.72,9.72,0,0,0-.63-4.47,1.52,1.52,0,0,0,0-.21,19.35,19.35,0,0,0-2.46-10.71" transform="translate(-281.52 -103.84)"/></g></g><polygon class="cls-4" points="92.31 80.69 94.16 80.54 95.02 115.59 93.16 115.74 92.31 80.69"/><polygon class="cls-20" points="92.39 80.47 94.25 80.32 95.12 115.87 93.26 116.02 92.39 80.47"/><polygon class="cls-20" points="12.56 52.98 14.41 52.83 94.25 80.32 92.39 80.47 12.56 52.98"/><path class="cls-20" d="M294.08,156.82l79.83,27.49.87,35.55-79.84-27.49Zm80.6,62.76-.86-35.05L294.17,157.1l.86,35.05,79.65,27.43" transform="translate(-281.52 -103.84)"/></g></g><line class="cls-60" x1="192.99" y1="27.21" x2="247.04" y2="17.6"/><line class="cls-60" x1="123.88" y1="68.72" x2="215.16" y2="49.2"/><line class="cls-60" x1="200.67" y1="75.65" x2="308.33" y2="52.6"/><line class="cls-60" x1="97.59" y1="101.55" x2="164.28" y2="85.88"/><line class="cls-60" x1="194.64" y1="64.12" x2="214.3" y2="49.25"/><line class="cls-60" x1="250.25" y1="38.12" x2="270.6" y2="33.89"/><line class="cls-60" x1="40.52" y1="59.34" x2="127.65" y2="38.95"/><line class="cls-60" x1="82.12" y1="75.25" x2="89.75" y2="73.66"/></svg>