<svg id="Layer_1" data-name="Layer 1" xmlns="http://www.w3.org/2000/svg" viewBox="0 0 205.39 76.73"><defs><style>.cls-1{fill:#31bcaf;}</style></defs><path class="cls-1" d="M15.5,23.23c-.4,0-.5-.2-.3-.5L17.3,20a1.43,1.43,0,0,1,1.1-.5H54.1c.4,0,.5.3.3.6l-1.7,2.6a1.52,1.52,0,0,1-1,.6Z"/><path class="cls-1" d="M.4,32.43c-.4,0-.5-.2-.3-.5l2.1-2.7a1.43,1.43,0,0,1,1.1-.5H48.9a.46.46,0,0,1,.5.6l-.8,2.4a.87.87,0,0,1-.9.6Z"/><path class="cls-1" d="M24.6,41.63c-.4,0-.5-.3-.3-.6l1.4-2.5a1.33,1.33,0,0,1,1-.6h20c.4,0,.6.3.6.7L47.1,41a.75.75,0,0,1-.7.7Z"/><g id="CXHf1q"><path class="cls-1" d="M128.4,21.43c-6.3,1.6-10.6,2.8-16.8,4.4-1.5.4-1.6.5-2.9-1A13.39,13.39,0,0,0,104,21c-6.3-3.1-12.4-2.2-18.1,1.5a21.27,21.27,0,0,0-10.2,19,15.68,15.68,0,0,0,13.5,15.7c6.8.9,12.5-1.5,17-6.6.9-1.1,1.7-2.3,2.7-3.7H89.6c-2.1,0-2.6-1.3-1.9-3,1.3-3.1,3.7-8.3,5.1-10.9a2.7,2.7,0,0,1,2.5-1.6h36.4c-.2,2.7-.2,5.4-.6,8.1a42.65,42.65,0,0,1-8.2,19.6c-7.2,9.5-16.6,15.4-28.5,17-9.8,1.3-18.9-.6-26.9-6.6a31.41,31.41,0,0,1-12.7-22.2c-1.3-10.9,1.9-20.7,8.5-29.3A44.38,44.38,0,0,1,91.3.73c9.4-1.7,18.4-.6,26.5,4.9a31.35,31.35,0,0,1,11.6,14.1C130,20.63,129.6,21.13,128.4,21.43Z"/><path class="cls-1" d="M161.5,76.73c-9.1-.2-17.4-2.8-24.4-8.8a31.36,31.36,0,0,1-10.8-19.3c-1.8-11.3,1.3-21.3,8.1-30.2,7.3-9.6,16.1-14.6,28-16.7,10.2-1.8,19.8-.8,28.5,5.1,7.9,5.4,12.8,12.7,14.1,22.3,1.7,13.5-2.2,24.5-11.5,33.9a45.82,45.82,0,0,1-24,12.8C166.8,76.33,164.1,76.43,161.5,76.73Zm23.8-40.4A28.78,28.78,0,0,0,185,33c-1.8-9.9-10.9-15.5-20.4-13.3-9.3,2.1-15.3,8-17.5,17.4A16.47,16.47,0,0,0,156.3,56a18.33,18.33,0,0,0,16.3-.6C180.5,51.33,184.8,44.93,185.3,36.33Z"/></g></svg>