<svg id="Layer_1" data-name="Layer 1" xmlns="http://www.w3.org/2000/svg" viewBox="0 0 478.62 106.2"><defs><style>.cls-1,.cls-2{fill:none;stroke-miterlimit:10;}.cls-1{stroke:#fff;stroke-width:6px;}.cls-2{stroke:#7f3f98;stroke-width:7px;}.cls-3{fill:#fff;}</style></defs><path class="cls-1" d="M11,69.11a33.88,33.88,0,0,1-.7-4.4" transform="translate(-3.69 -7.37)"/><path class="cls-1" d="M13.12,76.49c-.49-1.31-.93-2.65-1.31-4" transform="translate(-3.69 -7.37)"/><path class="cls-2" d="M13.58,77.47" transform="translate(-3.69 -7.37)"/><path class="cls-1" d="M16.22,83.47c-1.37-2.84-1.57-3.15-1.85-3.78" transform="translate(-3.69 -7.37)"/><path class="cls-2" d="M16.45,83.79" transform="translate(-3.69 -7.37)"/><path class="cls-1" d="M11.41,52.47a50,50,0,1,1,6.66,33.89" transform="translate(-3.69 -7.37)"/><polygon class="cls-3" points="6.47 53.37 0 43.19 14.74 45.46 6.47 53.37"/><path class="cls-3" d="M155.35,92h-6.48V28.25h6.48Z" transform="translate(-3.69 -7.37)"/><path class="cls-3" d="M177.39,49.85c.12,1.14.21,2.4.28,3.78s.08,2.52.08,3.42h.18a13.84,13.84,0,0,1,5.86-6,17,17,0,0,1,8.54-2.29q8,0,12,4.77t4,12.6V92h-6.12V68.66a30.85,30.85,0,0,0-.54-6A12.65,12.65,0,0,0,199.85,58a8.81,8.81,0,0,0-3.51-3,12.57,12.57,0,0,0-5.54-1.08,11.79,11.79,0,0,0-4.72,1,11.61,11.61,0,0,0-4.1,3A15.07,15.07,0,0,0,179.1,63,22.4,22.4,0,0,0,178,70.37V92H171.9V59.12q0-1.71-.09-4.41t-.27-4.86Z" transform="translate(-3.69 -7.37)"/><path class="cls-3" d="M242,55h-9.9V92H226V55h-8.82V49.85H226V38.33q0-7.2,3.51-11.34t10.8-4.14c.78,0,1.62,0,2.52.13a12.93,12.93,0,0,1,2.52.5l-1.08,5.4q-1-.27-2-.45a12.66,12.66,0,0,0-2.25-.18,8.71,8.71,0,0,0-4,.81,5.78,5.78,0,0,0-2.43,2.29,10.08,10.08,0,0,0-1.17,3.47,26.92,26.92,0,0,0-.32,4.23v10.8H242Zm16.11-21.33a4,4,0,0,1-1.35,3.1,4.23,4.23,0,0,1-5.94,0,4.25,4.25,0,0,1,0-6.21,4.25,4.25,0,0,1,5.94,0A4,4,0,0,1,258.12,33.65ZM256.77,92h-6.12V49.85h6.12Z" transform="translate(-3.69 -7.37)"/><path class="cls-3" d="M278.64,49.85q.18,1.71.27,3.78t.09,3.42h.18a13.87,13.87,0,0,1,5.85-6,17.08,17.08,0,0,1,8.55-2.29q8,0,12,4.77t4,12.6V92h-6.12V68.66a30.85,30.85,0,0,0-.54-6A12.65,12.65,0,0,0,301.1,58a8.81,8.81,0,0,0-3.51-3,12.57,12.57,0,0,0-5.54-1.08,11.79,11.79,0,0,0-4.72,1,11.61,11.61,0,0,0-4.1,3A15.07,15.07,0,0,0,280.35,63a22.4,22.4,0,0,0-1.08,7.34V92h-6.12V59.12q0-1.71-.09-4.41t-.27-4.86Z" transform="translate(-3.69 -7.37)"/><path class="cls-3" d="M339.93,85.4h.18l13.05-35.55h6.66l-21,53a22.2,22.2,0,0,1-4.81,7.78q-2.93,2.92-8.42,2.93a27.92,27.92,0,0,1-5.49-.54l.63-5.58a14.14,14.14,0,0,0,4.5.72,6.43,6.43,0,0,0,4.95-1.94,16.67,16.67,0,0,0,3.15-5.53l3.42-8.82-18-42h6.84Z" transform="translate(-3.69 -7.37)"/><path class="cls-3" d="M432.72,60.11a34.89,34.89,0,0,1-2.52,13.41,31.64,31.64,0,0,1-17.5,17.55,35.75,35.75,0,0,1-26.37,0,31.7,31.7,0,0,1-17.51-17.55,34.89,34.89,0,0,1-2.52-13.41,34.89,34.89,0,0,1,2.52-13.41,31.61,31.61,0,0,1,17.51-17.55,35.75,35.75,0,0,1,26.37,0A31.56,31.56,0,0,1,430.2,46.7,34.89,34.89,0,0,1,432.72,60.11Zm-6.84,0a31.22,31.22,0,0,0-1.8-10.6,26.38,26.38,0,0,0-5.22-8.85,25,25,0,0,0-8.32-6.07,28.25,28.25,0,0,0-22.05,0,25,25,0,0,0-8.33,6.07,26.38,26.38,0,0,0-5.22,8.85,32.11,32.11,0,0,0,0,21.2,26,26,0,0,0,5.22,8.81,25.29,25.29,0,0,0,8.33,6,28.14,28.14,0,0,0,22.05,0,25.25,25.25,0,0,0,8.32-6,26,26,0,0,0,5.22-8.81A31.18,31.18,0,0,0,425.88,60.15Z" transform="translate(-3.69 -7.37)"/><path class="cls-3" d="M451.35,49.85q.18,1.71.27,3.78t.09,3.42h.18a13.87,13.87,0,0,1,5.85-6,17.08,17.08,0,0,1,8.55-2.29q8,0,12,4.77t4,12.6V92h-6.12V68.66a30.85,30.85,0,0,0-.54-6A12.65,12.65,0,0,0,473.81,58a8.81,8.81,0,0,0-3.51-3,12.57,12.57,0,0,0-5.54-1.08,11.79,11.79,0,0,0-4.72,1,11.61,11.61,0,0,0-4.1,3A15.07,15.07,0,0,0,453.06,63,22.4,22.4,0,0,0,452,70.37V92h-6.12V59.12q0-1.71-.09-4.41t-.27-4.86Z" transform="translate(-3.69 -7.37)"/><path class="cls-1" d="M72.86,28.85c-24,31.19,21,29.82-7.4,64.67" transform="translate(-3.69 -7.37)"/><path class="cls-1" d="M54.53,27.83c-24,31.19,21,29.81-7.4,64.66" transform="translate(-3.69 -7.37)"/></svg>