<?xml version="1.0" encoding="utf-8"?>
<!-- Generator: Adobe Illustrator 25.2.1, SVG Export Plug-In . SVG Version: 6.00 Build 0)  -->
<svg version="1.1"
	 id="Layer_1" xmlns:cc="http://creativecommons.org/ns#" xmlns:dc="http://purl.org/dc/elements/1.1/" xmlns:rdf="http://www.w3.org/1999/02/22-rdf-syntax-ns#" xmlns:svg="http://www.w3.org/2000/svg"
	 xmlns="http://www.w3.org/2000/svg" xmlns:xlink="http://www.w3.org/1999/xlink" x="0px" y="0px" viewBox="0 0 144 144"
	 style="enable-background:new 0 0 144 144;" xml:space="preserve">
<style type="text/css">
	.st0{fill:#4D4D4D;}
	.st1{fill:none;}
</style>
<path id="path3" class="st0" d="M142.1,70.3l-6-3.7c-0.1-0.6-0.1-1.2-0.2-1.7l5.1-4.8c0.5-0.5,0.8-1.2,0.6-1.9
	c-0.1-0.7-0.6-1.3-1.3-1.5l-6.6-2.5c-0.2-0.6-0.3-1.1-0.5-1.7l4.1-5.7c0.4-0.6,0.5-1.3,0.2-2c-0.3-0.7-0.9-1.1-1.6-1.2l-6.9-1.1
	c-0.3-0.5-0.5-1-0.8-1.6l2.9-6.4c0.3-0.6,0.2-1.4-0.2-2c-0.4-0.6-1.1-0.9-1.8-0.9l-7,0.2c-0.4-0.5-0.7-0.9-1.1-1.3l1.6-6.8
	c0.2-0.7,0-1.4-0.5-1.9c-0.5-0.5-1.2-0.7-1.9-0.5l-6.8,1.6c-0.4-0.4-0.9-0.7-1.3-1.1l0.2-7c0-0.7-0.3-1.4-0.9-1.8
	c-0.6-0.4-1.3-0.5-2-0.2l-6.4,2.9c-0.5-0.3-1-0.6-1.6-0.8l-1.1-6.9c-0.1-0.7-0.6-1.3-1.2-1.6c-0.7-0.3-1.4-0.2-2,0.2l-5.7,4.1
	c-0.6-0.2-1.1-0.3-1.7-0.5l-2.5-6.6c-0.2-0.7-0.8-1.2-1.5-1.3c-0.7-0.1-1.4,0.1-1.9,0.6L79.2,8C78.6,8,78,7.9,77.4,7.8l-3.7-6
	c-0.4-0.6-1-1-1.7-1s-1.4,0.4-1.7,1l-3.7,6C66,7.9,65.4,8,64.8,8L60,2.9c-0.5-0.5-1.2-0.8-1.9-0.6c-0.7,0.1-1.3,0.6-1.5,1.3
	l-2.5,6.6c-0.6,0.2-1.1,0.3-1.7,0.5l-5.7-4.1c-0.6-0.4-1.3-0.5-2-0.2c-0.7,0.3-1.1,0.9-1.2,1.6l-1.1,6.9c-0.5,0.3-1,0.5-1.6,0.8
	l-6.4-2.9c-0.6-0.3-1.4-0.2-2,0.2c-0.6,0.4-0.9,1.1-0.9,1.8l0.2,7c-0.5,0.4-0.9,0.7-1.3,1.1l-6.8-1.6c-0.7-0.2-1.4,0-1.9,0.5
	c-0.5,0.5-0.7,1.2-0.5,1.9l1.6,6.8c-0.4,0.4-0.7,0.9-1.1,1.3l-7-0.2c-0.7,0-1.4,0.3-1.8,0.9c-0.4,0.6-0.5,1.3-0.2,2l2.9,6.4
	c-0.3,0.5-0.6,1-0.8,1.6l-6.9,1.1c-0.7,0.1-1.3,0.6-1.6,1.2c-0.3,0.7-0.2,1.4,0.2,2l4.1,5.7c-0.2,0.6-0.4,1.1-0.5,1.7l-6.6,2.5
	c-0.7,0.2-1.2,0.8-1.3,1.5c-0.1,0.7,0.1,1.4,0.6,1.9L8,64.8C8,65.4,7.9,66,7.8,66.6l-6,3.7c-0.6,0.4-1,1-1,1.7s0.4,1.4,1,1.7l6,3.7
	C7.9,78,8,78.6,8,79.2L2.9,84c-0.5,0.5-0.8,1.2-0.6,1.9c0.1,0.7,0.6,1.3,1.3,1.5l6.6,2.5c0.2,0.6,0.3,1.1,0.5,1.7l-4.1,5.7
	c-0.4,0.6-0.5,1.3-0.2,2c0.3,0.7,0.9,1.1,1.6,1.2l6.9,1.1c0.3,0.5,0.5,1,0.8,1.6l-2.9,6.4c-0.3,0.6-0.2,1.4,0.2,2
	c0.4,0.6,1.1,0.9,1.8,0.9l7-0.2c0.4,0.5,0.7,0.9,1.1,1.3l-1.6,6.8c-0.2,0.7,0,1.4,0.5,1.9c0.5,0.5,1.2,0.7,1.9,0.5l6.8-1.6
	c0.4,0.4,0.9,0.7,1.3,1.1l-0.2,7c0,0.7,0.3,1.4,0.9,1.8c0.6,0.4,1.3,0.5,2,0.2l6.4-2.9c0.5,0.3,1,0.6,1.6,0.8l1.1,6.9
	c0.1,0.7,0.6,1.3,1.2,1.6c0.7,0.3,1.4,0.2,2-0.2l5.7-4.1c0.6,0.2,1.1,0.4,1.7,0.5l2.5,6.6c0.2,0.7,0.8,1.2,1.5,1.3
	c0.7,0.1,1.4-0.1,1.9-0.6l4.8-5.1c0.6,0.1,1.2,0.1,1.7,0.2l3.7,6c0.4,0.6,1,1,1.7,1s1.4-0.4,1.7-1l3.7-6c0.6-0.1,1.2-0.1,1.7-0.2
	l4.8,5.1c0.5,0.5,1.2,0.8,1.9,0.6c0.7-0.1,1.3-0.6,1.5-1.3l2.5-6.6c0.6-0.2,1.1-0.3,1.7-0.5l5.7,4.1c0.6,0.4,1.3,0.5,2,0.2
	c0.7-0.3,1.1-0.9,1.2-1.6l1.1-6.9c0.5-0.3,1-0.6,1.6-0.8l6.4,2.9c0.6,0.3,1.4,0.2,2-0.2c0.6-0.4,0.9-1.1,0.9-1.8l-0.2-7
	c0.5-0.4,0.9-0.7,1.3-1.1l6.8,1.6c0.7,0.2,1.4,0,1.9-0.5c0.5-0.5,0.7-1.2,0.5-1.9l-1.6-6.8c0.4-0.4,0.7-0.9,1.1-1.3l7,0.2
	c0.7,0,1.4-0.3,1.8-0.9c0.4-0.6,0.5-1.3,0.2-2l-2.9-6.4c0.3-0.5,0.6-1,0.8-1.6l6.9-1.1c0.7-0.1,1.3-0.6,1.6-1.2
	c0.3-0.7,0.2-1.4-0.2-2l-4.1-5.7c0.2-0.6,0.3-1.1,0.5-1.7l6.6-2.5c0.7-0.2,1.2-0.8,1.3-1.5c0.1-0.7-0.1-1.4-0.6-1.9l-5.1-4.8
	c0.1-0.6,0.1-1.2,0.2-1.7l6-3.7c0.6-0.4,1-1,1-1.7S142.7,70.6,142.1,70.3L142.1,70.3z M102.2,119.8c-2.3-0.5-3.7-2.7-3.2-5
	c0.5-2.3,2.7-3.7,5-3.2c2.3,0.5,3.7,2.7,3.2,5C106.7,118.8,104.4,120.3,102.2,119.8z M100.1,106.1c-2.1-0.4-4.1,0.9-4.6,3l-2.1,9.9
	c-6.5,3-13.8,4.6-21.5,4.6c-7.8,0-15.2-1.7-21.9-4.8l-2.1-9.9c-0.4-2.1-2.5-3.4-4.6-3l-8.7,1.9c-1.6-1.7-3.1-3.4-4.5-5.3h42.5
	c0.5,0,0.8-0.1,0.8-0.5v-15c0-0.4-0.3-0.5-0.8-0.5H60.2v-9.5h13.4c1.2,0,6.6,0.4,8.3,7.2c0.5,2.1,1.7,8.9,2.5,11.1
	c0.8,2.4,4.1,7.3,7.5,7.3h21.2c0.2,0,0.5,0,0.8-0.1c-1.5,2-3.1,3.9-4.8,5.6L100.1,106.1L100.1,106.1z M41.4,119.6
	c-2.3,0.5-4.5-1-5-3.2c-0.5-2.3,1-4.5,3.2-5c2.3-0.5,4.5,1,5,3.2C45.1,116.8,43.7,119.1,41.4,119.6z M25.3,54.2
	c0.9,2.1,0,4.6-2.1,5.6c-2.1,0.9-4.6,0-5.6-2.2c-0.9-2.1,0-4.6,2.1-5.6C21.8,51.1,24.3,52.1,25.3,54.2z M20.3,66l9.1-4
	c1.9-0.9,2.8-3.1,2-5.1l-1.9-4.2h7.4v33.2H22c-1.3-4.5-2-9.3-2-14.3C20,69.7,20.1,67.8,20.3,66z M60.2,62.7v-9.8h17.5
	c0.9,0,6.4,1,6.4,5.2c0,3.4-4.2,4.6-7.7,4.6L60.2,62.7L60.2,62.7z M124,71.5c0,1.3,0,2.6-0.1,3.9h-5.3c-0.5,0-0.7,0.4-0.7,0.9v2.4
	c0,5.8-3.3,7-6.1,7.3c-2.7,0.3-5.7-1.1-6.1-2.8c-1.6-9-4.3-10.9-8.5-14.2c5.2-3.3,10.7-8.2,10.7-14.8c0-7.1-4.9-11.5-8.2-13.7
	c-4.6-3.1-9.8-3.7-11.2-3.7H33.3c7.5-8.3,17.6-14.3,29.1-16.4l6.5,6.8c1.5,1.5,3.9,1.6,5.4,0.1l7.3-7c15.2,2.8,28.1,12.3,35.6,25.3
	l-5,11.2c-0.9,1.9,0,4.2,2,5.1l9.6,4.3C123.9,68.1,124,69.8,124,71.5L124,71.5z M68.9,14.6c1.7-1.6,4.4-1.6,6,0.1
	c1.6,1.7,1.5,4.4-0.1,6c-1.7,1.6-4.4,1.6-6-0.1C67.1,18.9,67.2,16.3,68.9,14.6z M118.3,54.4c0.9-2.1,3.4-3.1,5.6-2.2
	c2.1,0.9,3.1,3.4,2.1,5.6c-0.9,2.1-3.4,3.1-5.6,2.2C118.3,59.1,117.3,56.6,118.3,54.4z"/>
<line class="st1" x1="189" y1="-12" x2="189" y2="84.1"/>
</svg>
