<svg id="Layer_1" data-name="Layer 1" xmlns="http://www.w3.org/2000/svg" viewBox="0 0 791.82 443.01"><defs><style>.cls-1,.cls-7{fill:#fff;}.cls-1,.cls-11,.cls-2{stroke:#58595b;}.cls-1,.cls-10,.cls-11,.cls-5,.cls-6,.cls-7{stroke-linecap:round;stroke-linejoin:round;}.cls-10,.cls-11,.cls-2{fill:none;}.cls-2{stroke-miterlimit:10;stroke-width:0.75px;}.cls-3{fill:#58595b;}.cls-15,.cls-4,.cls-8{font-size:15px;font-family:AvenirNext-Regular, Avenir Next;}.cls-15,.cls-4{fill:#231f20;}.cls-5{fill:#2b3990;}.cls-5,.cls-6,.cls-7{stroke:#231f20;}.cls-6{fill:#1c75bc;}.cls-8{fill:#662d91;}.cls-9{letter-spacing:-0.01em;}.cls-10{stroke:#662d91;stroke-dasharray:4 4;}.cls-12{letter-spacing:-0.01em;}.cls-13{letter-spacing:-0.02em;}.cls-14{letter-spacing:0em;}.cls-15{letter-spacing:-0.05em;}.cls-16{letter-spacing:-0.02em;}.cls-17{letter-spacing:-0.01em;}.cls-18{letter-spacing:-0.01em;}</style></defs><path class="cls-1" d="M313.53,196.29v-6.92a4.54,4.54,0,0,1,4.54-4.54h155a4.54,4.54,0,0,1,4.54,4.54v66.79a4.54,4.54,0,0,1-4.54,4.54h-5.23"/><rect class="cls-1" x="300.6" y="198.88" width="164.08" height="75.87" rx="4.54"/><line class="cls-2" x1="486.55" y1="230.12" x2="530.81" y2="230.12"/><polygon class="cls-3" points="526.38 232.51 526.12 231.8 530.74 230.12 526.12 228.44 526.38 227.74 532.93 230.12 526.38 232.51"/><text class="cls-4" transform="translate(644.98 177.28)">CLI</text><rect class="cls-5" x="319.67" y="227.73" width="16.05" height="19.26"/><rect class="cls-6" x="335.8" y="227.73" width="16.05" height="19.26"/><rect class="cls-5" x="351.82" y="227.73" width="16.05" height="19.26"/><rect class="cls-6" x="368.1" y="227.73" width="16.05" height="19.26"/><rect class="cls-7" x="384.05" y="227.73" width="16.05" height="19.26"/><rect class="cls-7" x="400.01" y="227.73" width="16.05" height="19.26"/><rect class="cls-7" x="416.28" y="227.73" width="16.05" height="19.26"/><rect class="cls-7" x="432.24" y="227.73" width="16.05" height="19.26"/><path class="cls-1" d="M557.65,195.17v-6.92c0-2.51,2.61-4.54,5.82-4.54h199c3.21,0,5.82,2,5.82,4.54v66.8c0,2.5-2.61,4.53-5.82,4.53h-6.73"/><rect class="cls-1" x="541.05" y="197.76" width="210.61" height="75.87" rx="4.54"/><text class="cls-8" transform="translate(563.5 240.09)">Sma<tspan class="cls-9" x="29.71" y="0">r</tspan><tspan x="34.93" y="0">tModule</tspan></text><rect class="cls-10" x="552.33" y="221.66" width="111.65" height="28.36" rx="4.01"/><rect class="cls-11" x="676.17" y="221.91" width="63.29" height="27.88" rx="4.54"/><text class="cls-4" transform="translate(685.94 239.88)">stdout</text><text class="cls-4" transform="translate(606.45 26.44)">Sink <tspan class="cls-12" x="32.33" y="0">C</tspan><tspan x="42.94" y="0">onnectors</tspan></text><path class="cls-1" d="M557.29,47V40c0-2.51,2.6-4.54,5.82-4.54h199c3.22,0,5.82,2,5.82,4.54v66.8c0,2.5-2.6,4.53-5.82,4.53h-6.72"/><rect class="cls-1" x="540.69" y="49.54" width="210.61" height="75.87" rx="4.54"/><text class="cls-8" transform="translate(563.13 91.87)">Sma<tspan class="cls-9" x="29.71" y="0">r</tspan><tspan x="34.93" y="0">tModule</tspan></text><rect class="cls-10" x="551.96" y="73.44" width="111.65" height="28.36" rx="4.01"/><rect class="cls-11" x="675.8" y="73.69" width="63.29" height="27.88" rx="4.54"/><text class="cls-4" transform="translate(678.66 91.96)">p<tspan class="cls-13" x="9.53" y="0">r</tspan><tspan class="cls-14" x="14.66" y="0">otocol</tspan></text><text class="cls-4" transform="translate(619.92 324.43)"><tspan class="cls-9">C</tspan><tspan x="10.62" y="0">onsumers</tspan></text><path class="cls-1" d="M554.68,345.68v-6.92c0-2.51,2.61-4.54,5.82-4.54h199c3.22,0,5.83,2,5.83,4.54v66.79c0,2.51-2.61,4.54-5.83,4.54h-6.72"/><rect class="cls-1" x="538.08" y="348.27" width="210.61" height="75.87" rx="4.54"/><text class="cls-8" transform="translate(560.52 390.6)">Sma<tspan class="cls-9" x="29.71" y="0">r</tspan><tspan x="34.93" y="0">tModule</tspan></text><rect class="cls-10" x="549.36" y="372.17" width="111.65" height="28.36" rx="4.01"/><rect class="cls-11" x="673.19" y="372.42" width="63.29" height="27.88" rx="4.54"/><text class="cls-4" transform="translate(688.38 390.92)">code</text><line class="cls-2" x1="488.95" y1="176.98" x2="527.65" y2="138.93"/><polygon class="cls-3" points="526.16 143.74 525.48 143.41 527.6 138.98 523.13 141.02 522.82 140.33 529.16 137.44 526.16 143.74"/><line class="cls-2" x1="487.18" y1="279.76" x2="525.88" y2="317.82"/><polygon class="cls-3" points="521.05 316.41 521.36 315.73 525.83 317.76 523.71 313.33 524.39 313.01 527.39 319.3 521.05 316.41"/><text class="cls-4" transform="translate(77.56 28.8)">Sou<tspan class="cls-13" x="26.34" y="0">r</tspan><tspan x="31.47" y="0">ce </tspan><tspan class="cls-12" x="51.3" y="0">C</tspan><tspan x="61.92" y="0">onnectors</tspan></text><path class="cls-1" d="M36.86,47.66V40.74c0-2.51,2.6-4.54,5.82-4.54h199c3.22,0,5.82,2,5.82,4.54v66.79c0,2.51-2.6,4.54-5.82,4.54h-6.72"/><rect class="cls-1" x="20.26" y="50.25" width="210.61" height="75.87" rx="4.54"/><text class="cls-8" transform="translate(117.85 92.93)">Sma<tspan class="cls-9" x="29.71" y="0">r</tspan><tspan x="34.93" y="0">tModule</tspan></text><rect class="cls-10" x="106.68" y="74.5" width="111.65" height="28.36" rx="4.01"/><rect class="cls-11" x="30.77" y="74.4" width="63.29" height="27.88" rx="4.54"/><text class="cls-4" transform="translate(33.63 92.66)">p<tspan class="cls-13" x="9.53" y="0">r</tspan><tspan class="cls-14" x="14.66" y="0">otocol</tspan></text><line class="cls-2" x1="246.11" y1="140.07" x2="284.81" y2="178.12"/><polygon class="cls-3" points="279.98 176.72 280.29 176.03 284.76 178.07 282.64 173.64 283.32 173.32 286.32 179.61 279.98 176.72"/><text class="cls-15" transform="translate(102.74 325.2)">P<tspan class="cls-16" x="7.98" y="0">r</tspan><tspan class="cls-14" x="13.11" y="0">oducers</tspan></text><path class="cls-1" d="M37.51,346.44v-6.92c0-2.5,2.6-4.53,5.82-4.53h199c3.22,0,5.82,2,5.82,4.53v66.8c0,2.5-2.6,4.54-5.82,4.54h-6.72"/><rect class="cls-1" x="20.91" y="349.04" width="210.61" height="75.87" rx="4.54"/><text class="cls-8" transform="translate(120.25 391.93)">Sma<tspan class="cls-9" x="29.71" y="0">r</tspan><tspan x="34.93" y="0">tModule</tspan></text><rect class="cls-10" x="109.08" y="373.5" width="111.65" height="28.36" rx="4.01"/><rect class="cls-11" x="33.4" y="373.18" width="63.29" height="27.88" rx="4.54"/><text class="cls-4" transform="translate(48.59 391.69)">code</text><line class="cls-2" x1="250.53" y1="324.83" x2="289.23" y2="286.78"/><polygon class="cls-3" points="287.74 291.59 287.06 291.27 289.18 286.83 284.71 288.87 284.4 288.19 290.74 285.3 287.74 291.59"/><text class="cls-4" transform="translate(352.01 176.08)">D<tspan class="cls-17" x="11.35" y="0">a</tspan><tspan x="19.21" y="0">ta </tspan><tspan class="cls-18" x="35.73" y="0">S</tspan><tspan x="44.1" y="0">t</tspan><tspan class="cls-13" x="48.85" y="0">r</tspan><tspan class="cls-18" x="53.98" y="0">e</tspan><tspan x="62.47" y="0">ams</tspan></text></svg>