<svg id="Layer_1" data-name="Layer 1" xmlns="http://www.w3.org/2000/svg" viewBox="0 0 379.75 120.5"><defs><style>.cls-1,.cls-3,.cls-5{fill:none;}.cls-1{stroke:#231f20;stroke-miterlimit:10;stroke-width:0.75px;}.cls-2{fill:#231f20;}.cls-3{stroke:#662d91;}.cls-3,.cls-5{stroke-linecap:round;stroke-linejoin:round;}.cls-4{fill:#662d91;}.cls-5{stroke:#414042;stroke-dasharray:4 4;}.cls-6{fill:#414042;}</style></defs><line class="cls-1" x1="265.06" y1="42.4" x2="365.96" y2="42.4"/><polygon class="cls-2" points="361.53 44.79 361.27 44.08 365.89 42.4 361.27 40.72 361.53 40.02 368.08 42.4 361.53 44.79"/><rect class="cls-3" x="115.46" y="18.53" width="144.62" height="89.37" rx="4.54"/><path class="cls-4" d="M172.91,41.68h-1.08V31.06h6.41v1h-5.33v3.67h5v1h-5Z"/><path class="cls-4" d="M181.18,32a.68.68,0,0,1-.23.52.73.73,0,0,1-.49.2.76.76,0,0,1-.5-.2.72.72,0,0,1,0-1,.76.76,0,0,1,.5-.2.73.73,0,0,1,.49.2A.68.68,0,0,1,181.18,32ZM181,41.68h-1v-7h1Z"/><path class="cls-4" d="M184.73,41.68h-1V30.34h1Z"/><path class="cls-4" d="M190.63,35.51h-2v4.1a2.31,2.31,0,0,0,.07.64,1,1,0,0,0,.22.4.79.79,0,0,0,.34.2,1.86,1.86,0,0,0,.42,0,1.72,1.72,0,0,0,.44-.06,2.11,2.11,0,0,0,.44-.17l0,.89a3.58,3.58,0,0,1-.56.16,4.26,4.26,0,0,1-.64.05,2.61,2.61,0,0,1-.6-.08,1.53,1.53,0,0,1-.59-.28,1.61,1.61,0,0,1-.44-.57,2.31,2.31,0,0,1-.17-1V35.51h-1.46v-.85h1.46v-2h1v2h2Z"/><path class="cls-4" d="M198.61,38v.22a2.46,2.46,0,0,1,0,.26h-5.82a2.74,2.74,0,0,0,.21,1,2.5,2.5,0,0,0,.54.81,2.7,2.7,0,0,0,.81.55,2.6,2.6,0,0,0,1,.2,2.44,2.44,0,0,0,1.37-.37,2.66,2.66,0,0,0,.88-.85l.76.6A3.83,3.83,0,0,1,197,41.51a3.91,3.91,0,0,1-1.63.35,3.67,3.67,0,0,1-1.45-.28,3.37,3.37,0,0,1-1.15-.77,3.56,3.56,0,0,1-.75-1.17,3.74,3.74,0,0,1-.28-1.47A3.92,3.92,0,0,1,192,36.7a3.56,3.56,0,0,1,.75-1.17,3.35,3.35,0,0,1,1.12-.77,3.43,3.43,0,0,1,1.4-.28,3.47,3.47,0,0,1,1.45.28,2.88,2.88,0,0,1,1.05.75,3.09,3.09,0,0,1,.64,1.1A4,4,0,0,1,198.61,38Zm-1-.33a2.53,2.53,0,0,0-.63-1.64,2.16,2.16,0,0,0-1.69-.66,2.48,2.48,0,0,0-.95.19,2.67,2.67,0,0,0-.76.51,2.57,2.57,0,0,0-.53.74,2.33,2.33,0,0,0-.22.86Z"/><path class="cls-4" d="M200.78,35.47c0-.3,0-.57,0-.81h1c0,.19,0,.4,0,.63s0,.42,0,.57h0a2.47,2.47,0,0,1,.9-1,2.5,2.5,0,0,1,1.35-.38h.36l.32.06-.14,1-.3-.06-.42,0a2.08,2.08,0,0,0-.78.15,1.75,1.75,0,0,0-.65.47,2.65,2.65,0,0,0-.45.82,3.92,3.92,0,0,0-.17,1.21v3.59h-1V36.2C200.8,36,200.79,35.77,200.78,35.47Z"/><rect class="cls-5" x="138.58" y="59.76" width="98.11" height="28.36" rx="4.01"/><path class="cls-6" d="M152.27,73.3a1.84,1.84,0,0,0-.69-.63,2.1,2.1,0,0,0-1-.24,2.59,2.59,0,0,0-1,.2,2.41,2.41,0,0,0-.8.56,2.53,2.53,0,0,0-.5.84,3,3,0,0,0-.17,1,2.91,2.91,0,0,0,.17,1,2.39,2.39,0,0,0,.5.83,2.11,2.11,0,0,0,.78.56,2.48,2.48,0,0,0,1,.21,2.16,2.16,0,0,0,1.06-.24,2.28,2.28,0,0,0,.72-.62l.71.53a3,3,0,0,1-1,.83,3.15,3.15,0,0,1-1.46.31,3.85,3.85,0,0,1-1.44-.26,3.09,3.09,0,0,1-1.1-.72,3.21,3.21,0,0,1-.71-1.09,3.91,3.91,0,0,1,0-2.75,3.21,3.21,0,0,1,.71-1.09,3.09,3.09,0,0,1,1.1-.72,3.85,3.85,0,0,1,1.44-.26,3.4,3.4,0,0,1,1.33.29,2.58,2.58,0,0,1,1.1.84Z"/><path class="cls-6" d="M159.31,78.35c0-.18,0-.37,0-.59s0-.39,0-.53h0a2.2,2.2,0,0,1-.91.93,2.63,2.63,0,0,1-1.33.36,2.33,2.33,0,0,1-1.87-.74,3,3,0,0,1-.62-2v-4h.95v3.62a5.32,5.32,0,0,0,.08.94,2,2,0,0,0,.29.72,1.4,1.4,0,0,0,.55.47,2,2,0,0,0,.86.17,1.87,1.87,0,0,0,.73-.15,1.93,1.93,0,0,0,.64-.47,2.29,2.29,0,0,0,.45-.8,3.51,3.51,0,0,0,.17-1.14V71.8h.95v5.11c0,.18,0,.4,0,.68s0,.54,0,.76Z"/><path class="cls-6" d="M166.17,73.35a1.66,1.66,0,0,0-.63-.66,1.89,1.89,0,0,0-1-.26,2.83,2.83,0,0,0-.5,0,1.3,1.3,0,0,0-.45.19,1,1,0,0,0-.31.32.85.85,0,0,0-.12.46.79.79,0,0,0,.38.71,3.58,3.58,0,0,0,1.19.41,4,4,0,0,1,1.71.69,1.52,1.52,0,0,1,.55,1.23,1.78,1.78,0,0,1-.78,1.57,2.17,2.17,0,0,1-.79.35,3.87,3.87,0,0,1-.89.11,3.42,3.42,0,0,1-1.44-.31,2.63,2.63,0,0,1-1.15-1l.76-.56a1.92,1.92,0,0,0,.74.73,2,2,0,0,0,1.08.3,2.72,2.72,0,0,0,.58-.06,1.27,1.27,0,0,0,.49-.2,1,1,0,0,0,.34-.35,1.13,1.13,0,0,0,.13-.54.83.83,0,0,0-.5-.78,6.64,6.64,0,0,0-1.44-.48l-.62-.18a2.31,2.31,0,0,1-.61-.3,1.64,1.64,0,0,1-.46-.52,1.49,1.49,0,0,1-.18-.77,1.79,1.79,0,0,1,.19-.86,1.73,1.73,0,0,1,.53-.58,2.35,2.35,0,0,1,.75-.35,3.58,3.58,0,0,1,.87-.11,2.94,2.94,0,0,1,1.32.31,2.07,2.07,0,0,1,1,.87Z"/><path class="cls-6" d="M171.86,72.6H170v3.82a2.06,2.06,0,0,0,.07.6.87.87,0,0,0,.2.37.68.68,0,0,0,.32.18,1.23,1.23,0,0,0,.39.05,2,2,0,0,0,.41-.05,1.84,1.84,0,0,0,.41-.16l.05.83a4.61,4.61,0,0,1-.53.15,3.65,3.65,0,0,1-.59,0,2.2,2.2,0,0,1-.56-.07,1.33,1.33,0,0,1-.55-.26,1.48,1.48,0,0,1-.41-.53,2.05,2.05,0,0,1-.16-.89V72.6H167.7v-.8h1.36V70H170V71.8h1.85Z"/><path class="cls-6" d="M179.85,75.07a3.65,3.65,0,0,1-.26,1.38,3.24,3.24,0,0,1-.72,1.09,3.28,3.28,0,0,1-1.1.72,3.86,3.86,0,0,1-1.42.26,3.79,3.79,0,0,1-1.4-.26,3.09,3.09,0,0,1-1.1-.72,3.42,3.42,0,0,1-.73-1.09,3.91,3.91,0,0,1,0-2.75,3.42,3.42,0,0,1,.73-1.09,3.09,3.09,0,0,1,1.1-.72,3.79,3.79,0,0,1,1.4-.26,3.86,3.86,0,0,1,1.42.26,3.28,3.28,0,0,1,1.1.72,3.24,3.24,0,0,1,.72,1.09A3.63,3.63,0,0,1,179.85,75.07Zm-1,0a3.12,3.12,0,0,0-.17-1,2.43,2.43,0,0,0-1.28-1.41,2.51,2.51,0,0,0-1-.21,2.43,2.43,0,0,0-1,.21,2.46,2.46,0,0,0-.78.57,2.33,2.33,0,0,0-.49.84,3,3,0,0,0,0,2,2.33,2.33,0,0,0,.49.84,2.29,2.29,0,0,0,.78.56,2.43,2.43,0,0,0,1,.21,2.51,2.51,0,0,0,1-.21,2.19,2.19,0,0,0,.78-.56,2.35,2.35,0,0,0,.5-.84A3.13,3.13,0,0,0,178.84,75.07Z"/><path class="cls-6" d="M183.69,72a2.42,2.42,0,0,1,1.3-.36,2.64,2.64,0,0,1,.55.06,1.74,1.74,0,0,1,.56.21,2.24,2.24,0,0,1,.51.43A2.5,2.5,0,0,1,187,73a2.5,2.5,0,0,1,.92-1,2.58,2.58,0,0,1,1.38-.36,2.33,2.33,0,0,1,1.87.74,3,3,0,0,1,.62,2v4h-.95V74.72a3.21,3.21,0,0,0-.38-1.66,1.42,1.42,0,0,0-1.31-.63,1.71,1.71,0,0,0-.88.21,1.58,1.58,0,0,0-.57.55,2.46,2.46,0,0,0-.32.78,4.41,4.41,0,0,0-.1.89v3.49h-.95V74.53a4.65,4.65,0,0,0-.07-.87A1.78,1.78,0,0,0,186,73a1.06,1.06,0,0,0-.49-.42,1.75,1.75,0,0,0-.78-.15,1.71,1.71,0,0,0-.68.15,1.82,1.82,0,0,0-.61.47,2.46,2.46,0,0,0-.45.8,3.52,3.52,0,0,0-.16,1.14v3.36h-1V73.24c0-.18,0-.41,0-.69s0-.53,0-.75h.91c0,.18,0,.37,0,.59s0,.39,0,.53h0A2.32,2.32,0,0,1,183.69,72Z"/><path class="cls-6" d="M202.47,73.3a1.76,1.76,0,0,0-.69-.63,2.07,2.07,0,0,0-1-.24,2.63,2.63,0,0,0-1,.2,2.36,2.36,0,0,0-.79.56,2.56,2.56,0,0,0-.51.84,3.19,3.19,0,0,0-.17,1,3.15,3.15,0,0,0,.17,1,2.56,2.56,0,0,0,.5.83,2.29,2.29,0,0,0,.78.56,2.51,2.51,0,0,0,1,.21,2.13,2.13,0,0,0,1.06-.24,2.28,2.28,0,0,0,.72-.62l.71.53a3,3,0,0,1-1,.83,3.12,3.12,0,0,1-1.46.31,3.89,3.89,0,0,1-1.44-.26,3.09,3.09,0,0,1-1.1-.72,3.37,3.37,0,0,1-.71-1.09,3.91,3.91,0,0,1,0-2.75,3.37,3.37,0,0,1,.71-1.09,3.09,3.09,0,0,1,1.1-.72,3.89,3.89,0,0,1,1.44-.26,3.48,3.48,0,0,1,1.34.29,2.64,2.64,0,0,1,1.1.84Z"/><path class="cls-6" d="M211.27,75.07a3.65,3.65,0,0,1-.26,1.38,3.57,3.57,0,0,1-.72,1.09,3.23,3.23,0,0,1-1.11.72,3.8,3.8,0,0,1-1.41.26,3.75,3.75,0,0,1-1.4-.26,3.22,3.22,0,0,1-1.83-1.81,3.77,3.77,0,0,1,0-2.75,3.22,3.22,0,0,1,1.83-1.81,3.75,3.75,0,0,1,1.4-.26,3.8,3.8,0,0,1,1.41.26,3.23,3.23,0,0,1,1.11.72A3.57,3.57,0,0,1,211,73.7,3.63,3.63,0,0,1,211.27,75.07Zm-1,0a2.88,2.88,0,0,0-.18-1,2.33,2.33,0,0,0-.49-.84,2.39,2.39,0,0,0-.79-.57,2.46,2.46,0,0,0-1-.21,2.4,2.4,0,0,0-1,.21,2.35,2.35,0,0,0-.78.57,2.5,2.5,0,0,0-.5.84,3.18,3.18,0,0,0,0,2,2.5,2.5,0,0,0,.5.84,2.19,2.19,0,0,0,.78.56,2.4,2.4,0,0,0,1,.21,2.46,2.46,0,0,0,1-.21,2.23,2.23,0,0,0,.79-.56,2.33,2.33,0,0,0,.49-.84A2.9,2.9,0,0,0,210.26,75.07Z"/><path class="cls-6" d="M218.7,77.24a2.73,2.73,0,0,1-1.09,1,3.25,3.25,0,0,1-1.39.32,3.48,3.48,0,0,1-1.39-.27,3,3,0,0,1-1.06-.73,3.07,3.07,0,0,1-.69-1.09,3.8,3.8,0,0,1,0-2.71,3.21,3.21,0,0,1,.69-1.1,3.06,3.06,0,0,1,1.06-.72,3.48,3.48,0,0,1,1.39-.27,3.12,3.12,0,0,1,1.39.33,2.68,2.68,0,0,1,1.09,1h0V67.77h1V78.35h-1V77.24Zm-4.86-2.17a3.13,3.13,0,0,0,.17,1,2.31,2.31,0,0,0,.48.84,2.11,2.11,0,0,0,.78.56,2.52,2.52,0,0,0,1,.21,2.44,2.44,0,0,0,1-.21,2.48,2.48,0,0,0,.8-.55,2.44,2.44,0,0,0,.52-.83,3,3,0,0,0,0-2.09,2.58,2.58,0,0,0-.52-.84,2.51,2.51,0,0,0-.8-.56,2.6,2.6,0,0,0-1-.2,2.52,2.52,0,0,0-1,.21,2.25,2.25,0,0,0-.78.57,2.31,2.31,0,0,0-.48.84A3.12,3.12,0,0,0,213.84,75.07Z"/><path class="cls-6" d="M228.19,74.88v.21a2.09,2.09,0,0,1,0,.24h-5.43a2.61,2.61,0,0,0,.19.92,2.31,2.31,0,0,0,.51.76,2.49,2.49,0,0,0,.75.51,2.43,2.43,0,0,0,.94.19,2.34,2.34,0,0,0,1.28-.35,2.59,2.59,0,0,0,.82-.79l.71.56a3.55,3.55,0,0,1-1.29,1.07,3.7,3.7,0,0,1-1.52.32,3.57,3.57,0,0,1-1.35-.26,3.06,3.06,0,0,1-1.07-.72,3.37,3.37,0,0,1-.71-1.09,3.65,3.65,0,0,1-.26-1.38A3.83,3.83,0,0,1,222,73.7a3.52,3.52,0,0,1,.7-1.09,3.17,3.17,0,0,1,1.05-.72,3.53,3.53,0,0,1,2.66,0,2.73,2.73,0,0,1,1,.7,2.94,2.94,0,0,1,.6,1A4,4,0,0,1,228.19,74.88Zm-1-.31a2.34,2.34,0,0,0-.6-1.53,2,2,0,0,0-1.57-.61,2.39,2.39,0,0,0-.89.17,2.47,2.47,0,0,0-.71.48,2.23,2.23,0,0,0-.49.69,2.21,2.21,0,0,0-.21.8Z"/><path class="cls-2" d="M305.92,35.27h-1.08V25.61h-3.55v-1h8.19v1h-3.56Z"/><path class="cls-2" d="M309.64,29.06c0-.3,0-.57,0-.81h1c0,.19,0,.4.05.63s0,.42,0,.57h0a2.47,2.47,0,0,1,.9-1,2.5,2.5,0,0,1,1.35-.38l.35,0a1.91,1.91,0,0,1,.33.06l-.14,1-.3-.06a3,3,0,0,0-.42,0,2.08,2.08,0,0,0-.78.15,1.67,1.67,0,0,0-.65.47,2.39,2.39,0,0,0-.45.82,3.64,3.64,0,0,0-.17,1.21v3.59h-1V29.8C309.66,29.61,309.65,29.36,309.64,29.06Z"/><path class="cls-2" d="M320.16,35.27a5.76,5.76,0,0,1-.05-.63c0-.23,0-.42,0-.57h0a2.35,2.35,0,0,1-1,1,2.92,2.92,0,0,1-1.43.38,2.48,2.48,0,0,1-2-.79,3.18,3.18,0,0,1-.66-2.1V28.25h1v3.89a4.4,4.4,0,0,0,.1,1,2,2,0,0,0,.3.77,1.46,1.46,0,0,0,.59.51,2.07,2.07,0,0,0,.92.18,2,2,0,0,0,.79-.17,2,2,0,0,0,.68-.5,2.54,2.54,0,0,0,.48-.86,3.69,3.69,0,0,0,.18-1.22v-3.6h1v5.48c0,.19,0,.43,0,.73s0,.57.05.81Z"/><path class="cls-2" d="M330.16,31.55v.23a2.29,2.29,0,0,1,0,.25h-5.81a2.55,2.55,0,0,0,.21,1,2.22,2.22,0,0,0,.54.81,2.65,2.65,0,0,0,.8.55,2.6,2.6,0,0,0,1,.2,2.44,2.44,0,0,0,1.37-.37,2.64,2.64,0,0,0,.88-.84l.77.6a3.85,3.85,0,0,1-1.39,1.14,3.9,3.9,0,0,1-1.63.34,3.67,3.67,0,0,1-1.45-.28,3.47,3.47,0,0,1-1.15-.77,3.56,3.56,0,0,1-.75-1.17,3.74,3.74,0,0,1-.28-1.47,3.92,3.92,0,0,1,.27-1.47,3.56,3.56,0,0,1,.75-1.17,3.29,3.29,0,0,1,1.13-.77,3.35,3.35,0,0,1,1.39-.28,3.47,3.47,0,0,1,1.45.28,2.88,2.88,0,0,1,1.05.75,3.09,3.09,0,0,1,.64,1.1A4,4,0,0,1,330.16,31.55Zm-1-.33a2.53,2.53,0,0,0-.63-1.64,2.16,2.16,0,0,0-1.69-.65,2.47,2.47,0,0,0-.95.18,2.67,2.67,0,0,0-.76.51,2.57,2.57,0,0,0-.53.74,2.33,2.33,0,0,0-.22.86Z"/><line class="cls-1" x1="265.54" y1="84.57" x2="366.45" y2="84.57"/><polygon class="cls-2" points="362.01 86.95 361.76 86.25 366.37 84.57 361.76 82.89 362.01 82.18 368.56 84.57 362.01 86.95"/><path class="cls-2" d="M304.22,76.45h-1.08V65.83h6.4v1h-5.32v3.68h4.95v1h-4.95Z"/><path class="cls-2" d="M315.21,71.91a1.77,1.77,0,0,0-.48-1.36,2,2,0,0,0-1.39-.44,3,3,0,0,0-1.17.22,2.82,2.82,0,0,0-.92.6l-.57-.67a3.43,3.43,0,0,1,1.15-.72,4.32,4.32,0,0,1,1.61-.29,3.38,3.38,0,0,1,1.07.16,2.44,2.44,0,0,1,.87.47,2.15,2.15,0,0,1,.58.8,2.76,2.76,0,0,1,.21,1.12v3.08q0,.41,0,.84a5.8,5.8,0,0,0,.09.73h-.91c0-.17-.06-.35-.08-.55s0-.4,0-.59h0a2.93,2.93,0,0,1-1.08,1,3.19,3.19,0,0,1-1.47.31,3.51,3.51,0,0,1-.83-.11,2.54,2.54,0,0,1-.78-.37,2.06,2.06,0,0,1-.58-.66,1.92,1.92,0,0,1-.24-1,1.85,1.85,0,0,1,.42-1.28,2.45,2.45,0,0,1,1.1-.71,6.08,6.08,0,0,1,1.58-.3c.6,0,1.21-.07,1.85-.07Zm-.3,1c-.42,0-.84,0-1.26,0a6.32,6.32,0,0,0-1.16.21,2.31,2.31,0,0,0-.85.46,1,1,0,0,0-.33.8,1.22,1.22,0,0,0,.15.63,1.15,1.15,0,0,0,.38.41,1.65,1.65,0,0,0,.53.22,2.38,2.38,0,0,0,.59.07,2.25,2.25,0,0,0,1-.19,1.93,1.93,0,0,0,.71-.51,2.18,2.18,0,0,0,.43-.74,2.58,2.58,0,0,0,.15-.88v-.53Z"/><path class="cls-2" d="M319.85,76.45h-1V65.11h1Z"/><path class="cls-2" d="M326.31,71.1a1.8,1.8,0,0,0-.68-.72,2,2,0,0,0-1-.27,2.48,2.48,0,0,0-.54.06,1.46,1.46,0,0,0-.48.19,1.14,1.14,0,0,0-.34.35,1,1,0,0,0-.13.49.86.86,0,0,0,.41.76,4,4,0,0,0,1.27.44,4.3,4.3,0,0,1,1.84.74,1.62,1.62,0,0,1,.59,1.32,2,2,0,0,1-.23,1,2,2,0,0,1-.61.67,2.47,2.47,0,0,1-.84.38,4.49,4.49,0,0,1-1,.11A3.78,3.78,0,0,1,323,76.3a2.85,2.85,0,0,1-1.23-1l.81-.6a2.19,2.19,0,0,0,.79.78,2.22,2.22,0,0,0,1.16.31,3.21,3.21,0,0,0,.63-.06,1.42,1.42,0,0,0,.52-.21,1.19,1.19,0,0,0,.36-.38,1.16,1.16,0,0,0,.14-.58.89.89,0,0,0-.53-.83,6.81,6.81,0,0,0-1.54-.52c-.21-.05-.43-.11-.67-.19a2.1,2.1,0,0,1-.65-.33,1.73,1.73,0,0,1-.5-.54,1.62,1.62,0,0,1-.19-.83,1.87,1.87,0,0,1,.21-.92,1.8,1.8,0,0,1,.56-.63,2.44,2.44,0,0,1,.8-.37,3.59,3.59,0,0,1,.93-.12,3.29,3.29,0,0,1,1.43.33,2.28,2.28,0,0,1,1,.93Z"/><path class="cls-2" d="M335.63,72.73V73a2.29,2.29,0,0,1,0,.25h-5.82a2.74,2.74,0,0,0,.21,1,2.5,2.5,0,0,0,.54.81,2.7,2.7,0,0,0,.81.55,2.6,2.6,0,0,0,1,.2,2.44,2.44,0,0,0,1.37-.37,2.64,2.64,0,0,0,.88-.84l.76.6A3.83,3.83,0,0,1,334,76.29a3.9,3.9,0,0,1-1.63.34,3.67,3.67,0,0,1-1.45-.28,3.37,3.37,0,0,1-1.15-.77,3.56,3.56,0,0,1-.75-1.17,3.74,3.74,0,0,1-.28-1.47,3.92,3.92,0,0,1,.27-1.47,3.56,3.56,0,0,1,.75-1.17,3.35,3.35,0,0,1,1.12-.77,3.43,3.43,0,0,1,1.4-.28,3.47,3.47,0,0,1,1.45.28,2.88,2.88,0,0,1,1,.75,3.09,3.09,0,0,1,.64,1.1A4,4,0,0,1,335.63,72.73Zm-1-.33a2.53,2.53,0,0,0-.63-1.64,2.16,2.16,0,0,0-1.69-.65,2.47,2.47,0,0,0-.95.18,2.67,2.67,0,0,0-.76.51,2.57,2.57,0,0,0-.53.74,2.33,2.33,0,0,0-.22.86Z"/><line class="cls-1" x1="7.97" y1="65.07" x2="108.87" y2="65.07"/><polygon class="cls-2" points="104.44 67.45 104.18 66.75 108.8 65.07 104.18 63.39 104.44 62.69 110.99 65.07 104.44 67.45"/><path class="cls-2" d="M34,58.59H32.89V48H36a6.65,6.65,0,0,1,1.45.15,3.15,3.15,0,0,1,1.15.49,2.21,2.21,0,0,1,.76.87,2.93,2.93,0,0,1,.27,1.32,2.65,2.65,0,0,1-.21,1.07,2.56,2.56,0,0,1-.57.83,2.67,2.67,0,0,1-.86.56,3.72,3.72,0,0,1-1.08.27L40,58.59H38.71l-2.94-5H34Zm0-5.9h1.87a3.56,3.56,0,0,0,2-.47,1.59,1.59,0,0,0,.71-1.42,1.82,1.82,0,0,0-.2-.88,1.61,1.61,0,0,0-.54-.59A2.46,2.46,0,0,0,37,49a5.25,5.25,0,0,0-1.09-.1H34Z"/><path class="cls-2" d="M48,54.87v.22a2.35,2.35,0,0,1,0,.26H42.19a2.74,2.74,0,0,0,.21,1,2.5,2.5,0,0,0,.54.81,2.7,2.7,0,0,0,.81.55,2.55,2.55,0,0,0,1,.2,2.5,2.5,0,0,0,1.38-.37,2.72,2.72,0,0,0,.87-.85l.77.6a3.77,3.77,0,0,1-1.39,1.14,3.88,3.88,0,0,1-1.63.35,3.59,3.59,0,0,1-1.44-.28,3.28,3.28,0,0,1-1.15-.77,3.75,3.75,0,0,1-.76-1.17,4.07,4.07,0,0,1,0-2.94,3.56,3.56,0,0,1,.75-1.17,3.51,3.51,0,0,1,2.52-1,3.52,3.52,0,0,1,1.46.28,2.88,2.88,0,0,1,1.05.75,3.25,3.25,0,0,1,.64,1.1A4.24,4.24,0,0,1,48,54.87Zm-1-.33a2.49,2.49,0,0,0-.64-1.64,2.15,2.15,0,0,0-1.69-.66,2.43,2.43,0,0,0-.94.19,2.72,2.72,0,0,0-.77.51,2.54,2.54,0,0,0-.52.74,2.34,2.34,0,0,0-.23.86Z"/><path class="cls-2" d="M55.27,53.17a1.91,1.91,0,0,0-.74-.66,2.17,2.17,0,0,0-1.06-.27,2.82,2.82,0,0,0-1.11.22,2.73,2.73,0,0,0-.85.6A2.92,2.92,0,0,0,51,54a3.42,3.42,0,0,0-.19,1.12A3.31,3.31,0,0,0,51,56.19a2.73,2.73,0,0,0,.53.89,2.35,2.35,0,0,0,.85.6,2.57,2.57,0,0,0,1.1.22A2.24,2.24,0,0,0,55.36,57l.76.57a3.3,3.3,0,0,1-1.1.89,3.44,3.44,0,0,1-1.57.33,4,4,0,0,1-1.54-.28A3.34,3.34,0,0,1,50,56.55a4,4,0,0,1,0-2.94,3.34,3.34,0,0,1,1.93-1.94,4,4,0,0,1,1.54-.28,3.63,3.63,0,0,1,1.44.31,2.7,2.7,0,0,1,1.17.9Z"/><path class="cls-2" d="M64.69,55.08a3.74,3.74,0,0,1-.28,1.47,3.42,3.42,0,0,1-2,1.94,4.18,4.18,0,0,1-3,0,3.44,3.44,0,0,1-1.19-.77,3.61,3.61,0,0,1-.77-1.17,4,4,0,0,1,0-2.94,3.61,3.61,0,0,1,.77-1.17,3.44,3.44,0,0,1,1.19-.77,4.18,4.18,0,0,1,3,0,3.42,3.42,0,0,1,2,1.94A3.74,3.74,0,0,1,64.69,55.08Zm-1.08,0a3.07,3.07,0,0,0-.19-1.1,2.52,2.52,0,0,0-.53-.9,2.46,2.46,0,0,0-.84-.61,2.65,2.65,0,0,0-1.11-.23,2.57,2.57,0,0,0-1.1.23,2.46,2.46,0,0,0-.84.61,2.68,2.68,0,0,0-.53.9,3.28,3.28,0,0,0,0,2.2,2.68,2.68,0,0,0,.53.9,2.31,2.31,0,0,0,.84.6,2.57,2.57,0,0,0,1.1.22,2.65,2.65,0,0,0,1.11-.22,2.31,2.31,0,0,0,.84-.6,2.52,2.52,0,0,0,.53-.9A3.07,3.07,0,0,0,63.61,55.08Z"/><path class="cls-2" d="M66.86,52.38c0-.3,0-.57,0-.81h1c0,.19,0,.4,0,.63s0,.42,0,.57h0a2.38,2.38,0,0,1,.89-1,2.51,2.51,0,0,1,1.36-.38h.35l.32.06-.14,1-.3-.06a3,3,0,0,0-.42,0,2.08,2.08,0,0,0-.78.15,1.75,1.75,0,0,0-.65.47,2.65,2.65,0,0,0-.45.82A3.92,3.92,0,0,0,67.9,55v3.59h-1V53.11C66.88,52.92,66.87,52.68,66.86,52.38Z"/><path class="cls-2" d="M77.78,57.4a2.88,2.88,0,0,1-1.17,1,3.38,3.38,0,0,1-1.48.35,3.74,3.74,0,0,1-1.49-.29,3.3,3.3,0,0,1-1.14-.78,3.53,3.53,0,0,1-.74-1.17,4.06,4.06,0,0,1-.26-1.45,4.11,4.11,0,0,1,.26-1.46,3.53,3.53,0,0,1,.74-1.17,3.3,3.3,0,0,1,1.14-.78,3.73,3.73,0,0,1,1.49-.28,3.38,3.38,0,0,1,1.48.35,2.93,2.93,0,0,1,1.17,1h0V47.25h1V58.59h-1V57.4Zm-5.2-2.32a3.3,3.3,0,0,0,.18,1.1,2.5,2.5,0,0,0,.52.9,2.19,2.19,0,0,0,.83.6,2.67,2.67,0,0,0,1.12.22,2.7,2.7,0,0,0,1.94-.81,2.64,2.64,0,0,0,.56-.89,3.24,3.24,0,0,0,0-2.24,2.62,2.62,0,0,0-1.42-1.5,2.74,2.74,0,0,0-1.08-.22,2.67,2.67,0,0,0-1.12.23,2.33,2.33,0,0,0-.83.61,2.5,2.5,0,0,0-.52.9A3.3,3.3,0,0,0,72.58,55.08Z"/></svg>