<?xml version="1.0" encoding="UTF-8"?><svg id="Layer_1" xmlns="http://www.w3.org/2000/svg" viewBox="0 0 379.75 157.86"><defs><style>.cls-1{stroke:#662d91;}.cls-1,.cls-2,.cls-3,.cls-4{fill:none;}.cls-1,.cls-4{stroke-linecap:round;stroke-linejoin:round;}.cls-5{letter-spacing:-.01em;}.cls-6,.cls-7{fill:#231f20;}.cls-8,.cls-9{fill:#414042;}.cls-10{letter-spacing:0em;}.cls-11{letter-spacing:-.02em;}.cls-12{letter-spacing:-.01em;}.cls-13{letter-spacing:-.04em;}.cls-2{stroke:#231f20;stroke-width:.75px;}.cls-2,.cls-3{stroke-miterlimit:10;}.cls-3,.cls-4{stroke:#414042;}.cls-9{font-size:14px;}.cls-9,.cls-7,.cls-14{font-family:AvenirNext-Regular, 'Avenir Next';}.cls-7,.cls-14{font-size:15px;}.cls-14{fill:#662d91;}.cls-4{stroke-dasharray:0 0 4 4;}</style></defs><rect class="cls-1" x="115.46" y="18.53" width="144.62" height="89.37" rx="4.54" ry="4.54"/><text class="cls-14" transform="translate(153.41 41.71)"><tspan x="0" y="0">Agg</tspan><tspan class="cls-11" x="29.46" y="0">r</tspan><tspan class="cls-10" x="34.59" y="0">eg</tspan><tspan class="cls-5" x="52.65" y="0">a</tspan><tspan x="60.51" y="0">te</tspan></text><g><rect class="cls-4" x="138.58" y="59.76" width="98.11" height="28.36" rx="4.01" ry="4.01"/><text class="cls-9" transform="translate(146.29 78.35)"><tspan x="0" y="0">custom code</tspan></text></g><g><line class="cls-2" x1="8.45" y1="40.77" x2="109.35" y2="40.77"/><polygon class="cls-6" points="104.92 43.15 104.66 42.45 109.28 40.77 104.66 39.09 104.92 38.38 111.47 40.77 104.92 43.15"/></g><text class="cls-7" transform="translate(31.96 34.29)"><tspan class="cls-12" x="0" y="0">R</tspan><tspan x="8.8" y="0">eco</tspan><tspan class="cls-11" x="34.05" y="0">r</tspan><tspan x="39.18" y="0">d</tspan></text><g><line class="cls-2" x1="265.15" y1="63.77" x2="366.05" y2="63.77"/><polygon class="cls-6" points="361.62 66.16 361.36 65.45 365.98 63.77 361.36 62.09 361.62 61.39 368.17 63.77 361.62 66.16"/></g><text class="cls-7" transform="translate(271.59 37.49)"><tspan x="0" y="0">Accumul</tspan><tspan class="cls-5" x="59.96" y="0">a</tspan><tspan x="67.81" y="0">tor </tspan><tspan class="cls-12" x="21.08" y="18">R</tspan><tspan x="29.88" y="18">eco</tspan><tspan class="cls-11" x="55.12" y="18">r</tspan><tspan x="60.25" y="18">d</tspan></text><line class="cls-3" x1="293.97" y1="66.49" x2="293.97" y2="142.73"/><line class="cls-3" x1="293.97" y1="142.73" x2="84.14" y2="142.73"/><g><line class="cls-3" x1="84.14" y1="142.73" x2="84.14" y2="92.57"/><polygon class="cls-8" points="88.23 95.88 87.49 96.56 84.14 92.95 80.78 96.56 80.05 95.88 84.14 91.48 88.23 95.88"/></g><g><line class="cls-2" x1="7.11" y1="88.16" x2="108.01" y2="88.16"/><polygon class="cls-6" points="103.57 90.55 103.32 89.84 107.93 88.16 103.32 86.48 103.57 85.78 110.13 88.16 103.57 90.55"/></g><text class="cls-7" transform="translate(17.38 79.66)"><tspan x="0" y="0">Initial</tspan><tspan class="cls-11" x="36.66" y="0"> </tspan><tspan class="cls-13" x="40.14" y="0">V</tspan><tspan x="48.85" y="0">alue</tspan></text></svg>