<?xml version="1.0" encoding="UTF-8"?><svg id="Layer_1" xmlns="http://www.w3.org/2000/svg" viewBox="0 0 379.75 120.5"><defs><style>.cls-1{stroke:#662d91;}.cls-1,.cls-2,.cls-3{fill:none;}.cls-1,.cls-3{stroke-linecap:round;stroke-linejoin:round;}.cls-4,.cls-5{fill:#231f20;}.cls-6{letter-spacing:-.02em;}.cls-7{letter-spacing:-.01em;}.cls-2{stroke:#231f20;stroke-miterlimit:10;stroke-width:.75px;}.cls-8{fill:#414042;font-size:14px;}.cls-8,.cls-5,.cls-9{font-family:AvenirNext-Regular, 'Avenir Next';}.cls-5,.cls-9{font-size:15px;}.cls-9{fill:#662d91;}.cls-3{stroke:#414042;stroke-dasharray:0 0 4 4;}</style></defs><rect class="cls-1" x="115.46" y="18.53" width="144.62" height="89.37" rx="4.54" ry="4.54"/><text class="cls-9" transform="translate(170.42 41.68)"><tspan x="0" y="0">Map</tspan></text><g><rect class="cls-3" x="138.58" y="59.76" width="98.11" height="28.36" rx="4.01" ry="4.01"/><text class="cls-8" transform="translate(146.29 78.35)"><tspan x="0" y="0">custom code</tspan></text></g><g><line class="cls-2" x1="7.97" y1="65.07" x2="108.87" y2="65.07"/><polygon class="cls-4" points="104.44 67.45 104.18 66.75 108.8 65.07 104.18 63.39 104.44 62.68 110.99 65.07 104.44 67.45"/></g><text class="cls-5" transform="translate(31.48 58.59)"><tspan class="cls-7" x="0" y="0">R</tspan><tspan x="8.8" y="0">eco</tspan><tspan class="cls-6" x="34.05" y="0">r</tspan><tspan x="39.18" y="0">d</tspan></text><g><line class="cls-2" x1="264.58" y1="63.21" x2="365.48" y2="63.21"/><polygon class="cls-4" points="361.05 65.59 360.79 64.89 365.41 63.21 360.79 61.53 361.05 60.82 367.6 63.21 361.05 65.59"/></g><text class="cls-5" transform="translate(270.93 56.98)"><tspan x="0" y="0">New </tspan><tspan class="cls-7" x="34.98" y="0">R</tspan><tspan x="43.78" y="0">eco</tspan><tspan class="cls-6" x="69.03" y="0">r</tspan><tspan x="74.16" y="0">d</tspan></text></svg>