<?xml version="1.0" encoding="UTF-8"?><svg id="Layer_1" xmlns="http://www.w3.org/2000/svg" viewBox="0 0 379.75 120.5"><defs><style>.cls-1{stroke:#662d91;}.cls-1,.cls-2,.cls-3,.cls-4{fill:none;}.cls-1,.cls-4{stroke-linecap:round;stroke-linejoin:round;}.cls-2,.cls-3{stroke:#231f20;stroke-miterlimit:10;stroke-width:.75px;}.cls-2,.cls-4{stroke-dasharray:0 0 4 4;}.cls-5,.cls-6{fill:#231f20;}.cls-7{letter-spacing:-.02em;}.cls-8{letter-spacing:-.01em;}.cls-9{fill:#414042;font-size:14px;}.cls-9,.cls-6,.cls-10{font-family:AvenirNext-Regular, 'Avenir Next';}.cls-6,.cls-10{font-size:15px;}.cls-10{fill:#662d91;}.cls-4{stroke:#414042;}</style></defs><g><line class="cls-2" x1="264.46" y1="86.59" x2="365.36" y2="86.59"/><polygon class="cls-5" points="360.93 88.97 360.67 88.27 365.29 86.59 360.67 84.91 360.93 84.2 367.48 86.59 360.93 88.97"/></g><rect class="cls-1" x="115.46" y="18.53" width="144.62" height="89.37" rx="4.54" ry="4.54"/><text class="cls-10" transform="translate(155.51 41.36)"><tspan class="cls-7" x="0" y="0">F</tspan><tspan x="8.16" y="0">ilterMap</tspan></text><g><rect class="cls-4" x="138.58" y="59.76" width="98.11" height="28.36" rx="4.01" ry="4.01"/><text class="cls-9" transform="translate(146.29 78.35)"><tspan x="0" y="0">custom code</tspan></text></g><text class="cls-6" transform="translate(294.28 81.42)"><tspan x="0" y="0">None</tspan></text><g><line class="cls-3" x1="265.54" y1="46.39" x2="366.45" y2="46.39"/><polygon class="cls-5" points="362.01 48.78 361.76 48.07 366.37 46.39 361.76 44.71 362.01 44.01 368.57 46.39 362.01 48.78"/></g><text class="cls-6" transform="translate(273.97 39.75)"><tspan x="0" y="0">New </tspan><tspan class="cls-8" x="34.98" y="0">R</tspan><tspan x="43.78" y="0">eco</tspan><tspan class="cls-7" x="69.03" y="0">r</tspan><tspan x="74.16" y="0">d</tspan></text><g><line class="cls-3" x1="7.97" y1="65.07" x2="108.87" y2="65.07"/><polygon class="cls-5" points="104.44 67.45 104.18 66.75 108.8 65.07 104.18 63.39 104.44 62.68 110.99 65.07 104.44 67.45"/></g><text class="cls-6" transform="translate(31.48 58.59)"><tspan class="cls-8" x="0" y="0">R</tspan><tspan x="8.8" y="0">eco</tspan><tspan class="cls-7" x="34.05" y="0">r</tspan><tspan x="39.18" y="0">d</tspan></text></svg>