<svg id="Layer_1" data-name="Layer 1" xmlns="http://www.w3.org/2000/svg" viewBox="0 0 379.75 157.86"><defs><style>.cls-1,.cls-3,.cls-5,.cls-7{fill:none;}.cls-1{stroke:#662d91;}.cls-1,.cls-3{stroke-linecap:round;stroke-linejoin:round;}.cls-2{fill:#662d91;}.cls-3,.cls-7{stroke:#414042;}.cls-3{stroke-dasharray:4 4;}.cls-4{fill:#414042;}.cls-5{stroke:#231f20;stroke-width:0.75px;}.cls-5,.cls-7{stroke-miterlimit:10;}.cls-6{fill:#231f20;}</style></defs><rect class="cls-1" x="115.46" y="18.53" width="144.62" height="89.37" rx="4.54"/><path class="cls-2" d="M154.74,41.71h-1.18l4.59-10.62h1l4.56,10.62h-1.2l-1.17-2.79H155.9Zm1.56-3.78H161l-2.34-5.64Z"/><path class="cls-2" d="M165.63,43.12a3.6,3.6,0,0,0,2.69,1.29,3.21,3.21,0,0,0,1.27-.22,2.2,2.2,0,0,0,.85-.59,2.4,2.4,0,0,0,.47-.88,3.69,3.69,0,0,0,.15-1.07V40.33h0a2.66,2.66,0,0,1-1.15,1,3.38,3.38,0,0,1-1.5.36,4,4,0,0,1-1.5-.27,3.56,3.56,0,0,1-1.14-.74,3.38,3.38,0,0,1-.73-1.14,4,4,0,0,1,0-2.83,3.57,3.57,0,0,1,.73-1.16,3.5,3.5,0,0,1,1.14-.78,3.82,3.82,0,0,1,1.5-.28,3.38,3.38,0,0,1,1.5.36,2.73,2.73,0,0,1,1.15,1h0V34.69h1v7a4.86,4.86,0,0,1-.16,1.21,3.07,3.07,0,0,1-.58,1.19,3.34,3.34,0,0,1-1.16.9,4.37,4.37,0,0,1-1.91.36,4.72,4.72,0,0,1-1.86-.38,4.45,4.45,0,0,1-1.51-1Zm.2-5a3,3,0,0,0,.18,1,2.7,2.7,0,0,0,.51.87,2.41,2.41,0,0,0,.84.59,2.67,2.67,0,0,0,1.12.22,2.92,2.92,0,0,0,1.08-.2,2.49,2.49,0,0,0,.86-.55,2.67,2.67,0,0,0,.56-.86,3.1,3.1,0,0,0,.2-1.12,2.76,2.76,0,0,0-.76-1.92,2.77,2.77,0,0,0-.86-.6,2.58,2.58,0,0,0-1.08-.23,2.67,2.67,0,0,0-1.12.23,2.57,2.57,0,0,0-.84.6,2.7,2.7,0,0,0-.51.87A3,3,0,0,0,165.83,38.11Z"/><path class="cls-2" d="M175.11,43.12a3.6,3.6,0,0,0,2.69,1.29,3.21,3.21,0,0,0,1.27-.22,2.2,2.2,0,0,0,.85-.59,2.4,2.4,0,0,0,.47-.88,3.69,3.69,0,0,0,.15-1.07V40.33h0a2.66,2.66,0,0,1-1.15,1,3.38,3.38,0,0,1-1.5.36,4,4,0,0,1-1.5-.27,3.56,3.56,0,0,1-1.14-.74,3.38,3.38,0,0,1-.73-1.14,4,4,0,0,1,0-2.83,3.57,3.57,0,0,1,.73-1.16,3.5,3.5,0,0,1,1.14-.78,3.82,3.82,0,0,1,1.5-.28,3.38,3.38,0,0,1,1.5.36,2.73,2.73,0,0,1,1.15,1h0V34.69h1v7a4.86,4.86,0,0,1-.16,1.21,3.07,3.07,0,0,1-.58,1.19,3.34,3.34,0,0,1-1.16.9,4.37,4.37,0,0,1-1.91.36,4.72,4.72,0,0,1-1.86-.38,4.45,4.45,0,0,1-1.51-1Zm.2-5a3,3,0,0,0,.18,1A2.7,2.7,0,0,0,176,40a2.41,2.41,0,0,0,.84.59,2.67,2.67,0,0,0,1.12.22,2.92,2.92,0,0,0,1.08-.2,2.49,2.49,0,0,0,.86-.55,2.67,2.67,0,0,0,.56-.86,3.1,3.1,0,0,0,.2-1.12,2.76,2.76,0,0,0-.76-1.92,2.77,2.77,0,0,0-.86-.6,2.58,2.58,0,0,0-1.08-.23,2.67,2.67,0,0,0-1.12.23,2.57,2.57,0,0,0-.84.6,2.7,2.7,0,0,0-.51.87A3,3,0,0,0,175.31,38.11Z"/><path class="cls-2" d="M184.2,35.5c0-.3,0-.57,0-.81h1c0,.19,0,.4.05.63s0,.42,0,.57h0a2.47,2.47,0,0,1,.9-1,2.5,2.5,0,0,1,1.35-.38h.35a1.91,1.91,0,0,1,.33.06l-.14,1-.3-.06a3,3,0,0,0-.42,0,2.08,2.08,0,0,0-.78.15,1.67,1.67,0,0,0-.65.47,2.3,2.3,0,0,0-.45.82,3.64,3.64,0,0,0-.17,1.21v3.59h-1V36.23C184.22,36,184.21,35.8,184.2,35.5Z"/><path class="cls-2" d="M195.74,38v.22a2.46,2.46,0,0,1,0,.26H189.9a2.74,2.74,0,0,0,.21,1,2.5,2.5,0,0,0,.54.81,2.7,2.7,0,0,0,.81.55,2.6,2.6,0,0,0,1,.2,2.46,2.46,0,0,0,1.37-.37,2.76,2.76,0,0,0,.88-.85l.76.6a3.77,3.77,0,0,1-1.39,1.14,3.83,3.83,0,0,1-1.62.35,3.64,3.64,0,0,1-1.45-.28,3.28,3.28,0,0,1-1.15-.77,3.75,3.75,0,0,1-.76-1.17,4.14,4.14,0,0,1,0-2.94,3.56,3.56,0,0,1,.75-1.17,3.35,3.35,0,0,1,1.12-.77,3.43,3.43,0,0,1,1.4-.28,3.47,3.47,0,0,1,1.45.28,2.88,2.88,0,0,1,1,.75,3.25,3.25,0,0,1,.64,1.1A4.24,4.24,0,0,1,195.74,38Zm-1-.33a2.49,2.49,0,0,0-.64-1.64,2.13,2.13,0,0,0-1.68-.66,2.48,2.48,0,0,0-.95.19,2.67,2.67,0,0,0-.76.51,2.57,2.57,0,0,0-.53.74,2.33,2.33,0,0,0-.22.86Z"/><path class="cls-2" d="M198.3,43.12A3.6,3.6,0,0,0,201,44.41a3.21,3.21,0,0,0,1.27-.22,2.2,2.2,0,0,0,.85-.59,2.4,2.4,0,0,0,.47-.88,3.69,3.69,0,0,0,.15-1.07V40.33h0a2.66,2.66,0,0,1-1.15,1,3.39,3.39,0,0,1-1.51.36,4,4,0,0,1-1.49-.27,3.56,3.56,0,0,1-1.14-.74,3.38,3.38,0,0,1-.73-1.14,3.84,3.84,0,0,1,0-2.83,3.57,3.57,0,0,1,.73-1.16,3.5,3.5,0,0,1,1.14-.78,3.8,3.8,0,0,1,1.49-.28,3.34,3.34,0,0,1,1.5.36,2.7,2.7,0,0,1,1.16,1h0V34.69h1v7a4.86,4.86,0,0,1-.16,1.21,3.07,3.07,0,0,1-.58,1.19,3.38,3.38,0,0,1-1.17.9,4.29,4.29,0,0,1-1.9.36,4.72,4.72,0,0,1-1.86-.38,4.45,4.45,0,0,1-1.51-1Zm.2-5a3.3,3.3,0,0,0,.17,1,2.72,2.72,0,0,0,.52.87,2.41,2.41,0,0,0,.84.59,2.67,2.67,0,0,0,1.12.22,2.92,2.92,0,0,0,1.08-.2,2.45,2.45,0,0,0,.85-.55,2.54,2.54,0,0,0,.57-.86,3.1,3.1,0,0,0,.2-1.12,2.84,2.84,0,0,0-.2-1,2.68,2.68,0,0,0-.57-.87,2.73,2.73,0,0,0-.85-.6,2.58,2.58,0,0,0-1.08-.23,2.67,2.67,0,0,0-1.12.23,2.57,2.57,0,0,0-.84.6,2.72,2.72,0,0,0-.52.87A3.3,3.3,0,0,0,198.5,38.11Z"/><path class="cls-2" d="M211.83,37.17a1.77,1.77,0,0,0-.48-1.36,2,2,0,0,0-1.39-.45,3,3,0,0,0-1.17.23,2.82,2.82,0,0,0-.92.6l-.57-.68a3.33,3.33,0,0,1,1.15-.72,4.28,4.28,0,0,1,1.61-.28,3.38,3.38,0,0,1,1.07.16,2.44,2.44,0,0,1,.87.47,2.11,2.11,0,0,1,.58.79,2.81,2.81,0,0,1,.21,1.13v3.07q0,.4,0,.84a6,6,0,0,0,.09.74H212c0-.17-.06-.36-.08-.56a5.78,5.78,0,0,1,0-.58h0a2.88,2.88,0,0,1-1.09,1,3.12,3.12,0,0,1-1.46.31,3.44,3.44,0,0,1-.83-.11,2.34,2.34,0,0,1-.78-.37,2,2,0,0,1-.82-1.66,1.89,1.89,0,0,1,.41-1.28,2.45,2.45,0,0,1,1.11-.71,6,6,0,0,1,1.58-.3c.59-.05,1.21-.07,1.85-.07Zm-.3,1c-.42,0-.84,0-1.27,0a6.21,6.21,0,0,0-1.15.21,2.23,2.23,0,0,0-.85.46,1,1,0,0,0-.33.79,1.33,1.33,0,0,0,.14.63,1.31,1.31,0,0,0,.39.42A1.56,1.56,0,0,0,209,41a2.32,2.32,0,0,0,.59.07,2.25,2.25,0,0,0,1-.19,1.93,1.93,0,0,0,.71-.51,2.18,2.18,0,0,0,.43-.74,2.64,2.64,0,0,0,.15-.89V38.2Z"/><path class="cls-2" d="M218.43,35.54h-2v4.1a2,2,0,0,0,.08.64.94.94,0,0,0,.21.4.79.79,0,0,0,.34.2,1.86,1.86,0,0,0,.42,0,1.72,1.72,0,0,0,.44-.06,1.92,1.92,0,0,0,.44-.17l.05.89a3.58,3.58,0,0,1-.56.16,4.26,4.26,0,0,1-.64,0,2.61,2.61,0,0,1-.6-.08,1.53,1.53,0,0,1-.59-.28,1.73,1.73,0,0,1-.44-.57,2.31,2.31,0,0,1-.17-.95V35.54H214v-.85h1.46v-2h1v2h2Z"/><path class="cls-2" d="M226.41,38v.22a2.46,2.46,0,0,1,0,.26h-5.81a2.55,2.55,0,0,0,.21,1,2.22,2.22,0,0,0,.54.81,2.65,2.65,0,0,0,.8.55,2.6,2.6,0,0,0,1,.2,2.44,2.44,0,0,0,1.37-.37,2.66,2.66,0,0,0,.88-.85l.77.6a3.85,3.85,0,0,1-1.39,1.14,3.91,3.91,0,0,1-1.63.35,3.67,3.67,0,0,1-1.45-.28,3.47,3.47,0,0,1-1.15-.77,3.56,3.56,0,0,1-.75-1.17,3.74,3.74,0,0,1-.28-1.47,3.92,3.92,0,0,1,.27-1.47,3.56,3.56,0,0,1,.75-1.17,3.29,3.29,0,0,1,1.13-.77,3.35,3.35,0,0,1,1.39-.28,3.47,3.47,0,0,1,1.45.28,2.88,2.88,0,0,1,1.05.75,3.09,3.09,0,0,1,.64,1.1A4,4,0,0,1,226.41,38Zm-1-.33a2.53,2.53,0,0,0-.63-1.64,2.16,2.16,0,0,0-1.69-.66,2.48,2.48,0,0,0-1,.19,2.67,2.67,0,0,0-.76.51,2.57,2.57,0,0,0-.53.74,2.33,2.33,0,0,0-.22.86Z"/><rect class="cls-3" x="138.58" y="59.76" width="98.11" height="28.36" rx="4.01"/><path class="cls-4" d="M152.27,73.3a1.84,1.84,0,0,0-.69-.63,2.1,2.1,0,0,0-1-.24,2.59,2.59,0,0,0-1,.2,2.41,2.41,0,0,0-.8.56,2.53,2.53,0,0,0-.5.84,3,3,0,0,0-.17,1,2.91,2.91,0,0,0,.17,1,2.39,2.39,0,0,0,.5.83,2.11,2.11,0,0,0,.78.56,2.48,2.48,0,0,0,1,.21,2.16,2.16,0,0,0,1.06-.24,2.28,2.28,0,0,0,.72-.62l.71.53a3,3,0,0,1-1,.83,3.15,3.15,0,0,1-1.46.31,3.85,3.85,0,0,1-1.44-.26,3.09,3.09,0,0,1-1.1-.72,3.21,3.21,0,0,1-.71-1.09,3.91,3.91,0,0,1,0-2.75,3.21,3.21,0,0,1,.71-1.09,3.09,3.09,0,0,1,1.1-.72,3.85,3.85,0,0,1,1.44-.26,3.4,3.4,0,0,1,1.33.29,2.58,2.58,0,0,1,1.1.84Z"/><path class="cls-4" d="M159.31,78.35c0-.18,0-.37,0-.59s0-.39,0-.53h0a2.2,2.2,0,0,1-.91.93,2.63,2.63,0,0,1-1.33.36,2.33,2.33,0,0,1-1.87-.74,3,3,0,0,1-.62-2v-4h.95v3.62a5.32,5.32,0,0,0,.08.94,2,2,0,0,0,.29.72,1.4,1.4,0,0,0,.55.47,2,2,0,0,0,.86.17,1.87,1.87,0,0,0,.73-.15,1.93,1.93,0,0,0,.64-.47,2.29,2.29,0,0,0,.45-.8,3.51,3.51,0,0,0,.17-1.14V71.8h.95v5.11c0,.18,0,.4,0,.68s0,.54,0,.76Z"/><path class="cls-4" d="M166.17,73.35a1.66,1.66,0,0,0-.63-.66,1.89,1.89,0,0,0-1-.26,2.83,2.83,0,0,0-.5,0,1.3,1.3,0,0,0-.45.19,1,1,0,0,0-.31.32.85.85,0,0,0-.12.46.79.79,0,0,0,.38.71,3.58,3.58,0,0,0,1.19.41,4,4,0,0,1,1.71.69,1.52,1.52,0,0,1,.55,1.23,1.78,1.78,0,0,1-.78,1.57,2.17,2.17,0,0,1-.79.35,3.87,3.87,0,0,1-.89.11,3.42,3.42,0,0,1-1.44-.31,2.63,2.63,0,0,1-1.15-1l.76-.56a1.92,1.92,0,0,0,.74.73,2,2,0,0,0,1.08.3,2.72,2.72,0,0,0,.58-.06,1.27,1.27,0,0,0,.49-.2,1,1,0,0,0,.34-.35,1.13,1.13,0,0,0,.13-.54.83.83,0,0,0-.5-.78,6.64,6.64,0,0,0-1.44-.48l-.62-.18a2.31,2.31,0,0,1-.61-.3,1.64,1.64,0,0,1-.46-.52,1.49,1.49,0,0,1-.18-.77,1.79,1.79,0,0,1,.19-.86,1.73,1.73,0,0,1,.53-.58,2.35,2.35,0,0,1,.75-.35,3.58,3.58,0,0,1,.87-.11,2.94,2.94,0,0,1,1.32.31,2.07,2.07,0,0,1,1,.87Z"/><path class="cls-4" d="M171.86,72.6H170v3.82a2.06,2.06,0,0,0,.07.6.87.87,0,0,0,.2.37.68.68,0,0,0,.32.18,1.23,1.23,0,0,0,.39.05,2,2,0,0,0,.41-.05,1.84,1.84,0,0,0,.41-.16l.05.83a4.61,4.61,0,0,1-.53.15,3.65,3.65,0,0,1-.59,0,2.2,2.2,0,0,1-.56-.07,1.33,1.33,0,0,1-.55-.26,1.48,1.48,0,0,1-.41-.53,2.05,2.05,0,0,1-.16-.89V72.6H167.7v-.8h1.36V70H170V71.8h1.85Z"/><path class="cls-4" d="M179.85,75.07a3.65,3.65,0,0,1-.26,1.38,3.24,3.24,0,0,1-.72,1.09,3.28,3.28,0,0,1-1.1.72,3.86,3.86,0,0,1-1.42.26,3.79,3.79,0,0,1-1.4-.26,3.09,3.09,0,0,1-1.1-.72,3.42,3.42,0,0,1-.73-1.09,3.91,3.91,0,0,1,0-2.75,3.42,3.42,0,0,1,.73-1.09,3.09,3.09,0,0,1,1.1-.72,3.79,3.79,0,0,1,1.4-.26,3.86,3.86,0,0,1,1.42.26,3.28,3.28,0,0,1,1.1.72,3.24,3.24,0,0,1,.72,1.09A3.63,3.63,0,0,1,179.85,75.07Zm-1,0a3.12,3.12,0,0,0-.17-1,2.43,2.43,0,0,0-1.28-1.41,2.51,2.51,0,0,0-1-.21,2.43,2.43,0,0,0-1,.21,2.46,2.46,0,0,0-.78.57,2.33,2.33,0,0,0-.49.84,3,3,0,0,0,0,2,2.33,2.33,0,0,0,.49.84,2.29,2.29,0,0,0,.78.56,2.43,2.43,0,0,0,1,.21,2.51,2.51,0,0,0,1-.21,2.19,2.19,0,0,0,.78-.56,2.35,2.35,0,0,0,.5-.84A3.13,3.13,0,0,0,178.84,75.07Z"/><path class="cls-4" d="M183.69,72a2.42,2.42,0,0,1,1.3-.36,2.64,2.64,0,0,1,.55.06,1.74,1.74,0,0,1,.56.21,2.24,2.24,0,0,1,.51.43A2.5,2.5,0,0,1,187,73a2.5,2.5,0,0,1,.92-1,2.58,2.58,0,0,1,1.38-.36,2.33,2.33,0,0,1,1.87.74,3,3,0,0,1,.62,2v4h-.95V74.72a3.21,3.21,0,0,0-.38-1.66,1.42,1.42,0,0,0-1.31-.63,1.71,1.71,0,0,0-.88.21,1.58,1.58,0,0,0-.57.55,2.46,2.46,0,0,0-.32.78,4.41,4.41,0,0,0-.1.89v3.49h-.95V74.53a4.65,4.65,0,0,0-.07-.87A1.78,1.78,0,0,0,186,73a1.06,1.06,0,0,0-.49-.42,1.75,1.75,0,0,0-.78-.15,1.71,1.71,0,0,0-.68.15,1.82,1.82,0,0,0-.61.47,2.46,2.46,0,0,0-.45.8,3.52,3.52,0,0,0-.16,1.14v3.36h-1V73.24c0-.18,0-.41,0-.69s0-.53,0-.75h.91c0,.18,0,.37,0,.59s0,.39,0,.53h0A2.32,2.32,0,0,1,183.69,72Z"/><path class="cls-4" d="M202.47,73.3a1.76,1.76,0,0,0-.69-.63,2.07,2.07,0,0,0-1-.24,2.63,2.63,0,0,0-1,.2,2.36,2.36,0,0,0-.79.56,2.56,2.56,0,0,0-.51.84,3.19,3.19,0,0,0-.17,1,3.15,3.15,0,0,0,.17,1,2.56,2.56,0,0,0,.5.83,2.29,2.29,0,0,0,.78.56,2.51,2.51,0,0,0,1,.21,2.13,2.13,0,0,0,1.06-.24,2.28,2.28,0,0,0,.72-.62l.71.53a3,3,0,0,1-1,.83,3.12,3.12,0,0,1-1.46.31,3.89,3.89,0,0,1-1.44-.26,3.09,3.09,0,0,1-1.1-.72,3.37,3.37,0,0,1-.71-1.09,3.91,3.91,0,0,1,0-2.75,3.37,3.37,0,0,1,.71-1.09,3.09,3.09,0,0,1,1.1-.72,3.89,3.89,0,0,1,1.44-.26,3.48,3.48,0,0,1,1.34.29,2.64,2.64,0,0,1,1.1.84Z"/><path class="cls-4" d="M211.27,75.07a3.65,3.65,0,0,1-.26,1.38,3.57,3.57,0,0,1-.72,1.09,3.23,3.23,0,0,1-1.11.72,3.8,3.8,0,0,1-1.41.26,3.75,3.75,0,0,1-1.4-.26,3.22,3.22,0,0,1-1.83-1.81,3.77,3.77,0,0,1,0-2.75,3.22,3.22,0,0,1,1.83-1.81,3.75,3.75,0,0,1,1.4-.26,3.8,3.8,0,0,1,1.41.26,3.23,3.23,0,0,1,1.11.72A3.57,3.57,0,0,1,211,73.7,3.63,3.63,0,0,1,211.27,75.07Zm-1,0a2.88,2.88,0,0,0-.18-1,2.33,2.33,0,0,0-.49-.84,2.39,2.39,0,0,0-.79-.57,2.46,2.46,0,0,0-1-.21,2.4,2.4,0,0,0-1,.21,2.35,2.35,0,0,0-.78.57,2.5,2.5,0,0,0-.5.84,3.18,3.18,0,0,0,0,2,2.5,2.5,0,0,0,.5.84,2.19,2.19,0,0,0,.78.56,2.4,2.4,0,0,0,1,.21,2.46,2.46,0,0,0,1-.21,2.23,2.23,0,0,0,.79-.56,2.33,2.33,0,0,0,.49-.84A2.9,2.9,0,0,0,210.26,75.07Z"/><path class="cls-4" d="M218.7,77.24a2.73,2.73,0,0,1-1.09,1,3.25,3.25,0,0,1-1.39.32,3.48,3.48,0,0,1-1.39-.27,3,3,0,0,1-1.06-.73,3.07,3.07,0,0,1-.69-1.09,3.8,3.8,0,0,1,0-2.71,3.21,3.21,0,0,1,.69-1.1,3.06,3.06,0,0,1,1.06-.72,3.48,3.48,0,0,1,1.39-.27,3.12,3.12,0,0,1,1.39.33,2.68,2.68,0,0,1,1.09,1h0V67.77h1V78.35h-1V77.24Zm-4.86-2.17a3.13,3.13,0,0,0,.17,1,2.31,2.31,0,0,0,.48.84,2.11,2.11,0,0,0,.78.56,2.52,2.52,0,0,0,1,.21,2.44,2.44,0,0,0,1-.21,2.48,2.48,0,0,0,.8-.55,2.44,2.44,0,0,0,.52-.83,3,3,0,0,0,0-2.09,2.58,2.58,0,0,0-.52-.84,2.51,2.51,0,0,0-.8-.56,2.6,2.6,0,0,0-1-.2,2.52,2.52,0,0,0-1,.21,2.25,2.25,0,0,0-.78.57,2.31,2.31,0,0,0-.48.84A3.12,3.12,0,0,0,213.84,75.07Z"/><path class="cls-4" d="M228.19,74.88v.21a2.09,2.09,0,0,1,0,.24h-5.43a2.61,2.61,0,0,0,.19.92,2.31,2.31,0,0,0,.51.76,2.49,2.49,0,0,0,.75.51,2.43,2.43,0,0,0,.94.19,2.31,2.31,0,0,0,1.28-.35,2.59,2.59,0,0,0,.82-.79l.72.56a3.4,3.4,0,0,1-2.82,1.39,3.57,3.57,0,0,1-1.35-.26,3.06,3.06,0,0,1-1.07-.72,3.37,3.37,0,0,1-.71-1.09,3.65,3.65,0,0,1-.26-1.38A3.83,3.83,0,0,1,222,73.7a3.37,3.37,0,0,1,.71-1.09,3,3,0,0,1,1-.72,3.53,3.53,0,0,1,2.66,0,2.73,2.73,0,0,1,1,.7,2.94,2.94,0,0,1,.6,1A4,4,0,0,1,228.19,74.88Zm-1-.31a2.34,2.34,0,0,0-.6-1.53,2,2,0,0,0-1.57-.61,2.39,2.39,0,0,0-.89.17,2.47,2.47,0,0,0-.71.48,2.41,2.41,0,0,0-.49.69,2.21,2.21,0,0,0-.21.8Z"/><line class="cls-5" x1="8.45" y1="40.77" x2="109.35" y2="40.77"/><polygon class="cls-6" points="104.92 43.15 104.67 42.45 109.28 40.77 104.67 39.09 104.92 38.38 111.47 40.77 104.92 43.15"/><path class="cls-6" d="M34.45,34.29H33.37V23.67h3.12a6.65,6.65,0,0,1,1.45.15,3.32,3.32,0,0,1,1.15.48,2.31,2.31,0,0,1,.76.88,2.93,2.93,0,0,1,.27,1.32,2.59,2.59,0,0,1-.78,1.9,2.84,2.84,0,0,1-.86.56,3.72,3.72,0,0,1-1.08.27l3.11,5.06H39.19l-2.94-5h-1.8Zm0-5.9h1.87a3.64,3.64,0,0,0,2-.47A1.61,1.61,0,0,0,39,26.5a1.82,1.82,0,0,0-.2-.88A1.61,1.61,0,0,0,38.3,25a2.46,2.46,0,0,0-.84-.33,5.25,5.25,0,0,0-1.09-.1H34.45Z"/><path class="cls-6" d="M48.5,30.57v.22a2.35,2.35,0,0,1,0,.26H42.67a2.74,2.74,0,0,0,.21,1,2.48,2.48,0,0,0,1.35,1.35,2.39,2.39,0,0,0,1,.21,2.58,2.58,0,0,0,1.38-.37,2.83,2.83,0,0,0,.87-.85l.77.6a3.77,3.77,0,0,1-1.39,1.14,3.88,3.88,0,0,1-1.63.35,3.77,3.77,0,0,1-1.44-.28,3.42,3.42,0,0,1-1.15-.77,3.75,3.75,0,0,1-.76-1.17,4.07,4.07,0,0,1,0-2.94,3.44,3.44,0,0,1,3.27-2.22,3.69,3.69,0,0,1,1.46.27,3.13,3.13,0,0,1,1,.75,3.4,3.4,0,0,1,.64,1.11A4.24,4.24,0,0,1,48.5,30.57Zm-1-.33a2.54,2.54,0,0,0-.64-1.65,2.18,2.18,0,0,0-1.69-.65,2.26,2.26,0,0,0-.94.19,2.35,2.35,0,0,0-.77.51,2.5,2.5,0,0,0-.52.73,2.44,2.44,0,0,0-.23.87Z"/><path class="cls-6" d="M55.75,28.87A2,2,0,0,0,55,28.2,2.28,2.28,0,0,0,54,27.94a2.65,2.65,0,0,0-1.11.22,2.43,2.43,0,0,0-.85.6,2.7,2.7,0,0,0-.54.9,3.37,3.37,0,0,0-.19,1.12,3.31,3.31,0,0,0,.19,1.11,2.84,2.84,0,0,0,.53.89,2.57,2.57,0,0,0,.84.6,2.82,2.82,0,0,0,1.11.22,2.28,2.28,0,0,0,1.91-.92l.76.57a3.3,3.3,0,0,1-1.1.89,3.44,3.44,0,0,1-1.57.33,4.18,4.18,0,0,1-1.54-.28,3.39,3.39,0,0,1-1.94-1.94,4.14,4.14,0,0,1,0-2.94,3.45,3.45,0,0,1,1.94-1.95,4.18,4.18,0,0,1,1.54-.27,3.79,3.79,0,0,1,1.44.3,2.86,2.86,0,0,1,1.17.91Z"/><path class="cls-6" d="M65.17,30.78a3.74,3.74,0,0,1-.28,1.47,3.45,3.45,0,0,1-.77,1.17,3.59,3.59,0,0,1-1.19.77,4.18,4.18,0,0,1-3,0,3.42,3.42,0,0,1-2-1.94,4,4,0,0,1,0-2.94,3.48,3.48,0,0,1,2-1.95,4.33,4.33,0,0,1,3,0,3.62,3.62,0,0,1,1.19.78,3.45,3.45,0,0,1,.77,1.17A3.74,3.74,0,0,1,65.17,30.78Zm-1.08,0a3.16,3.16,0,0,0-.19-1.11,2.71,2.71,0,0,0-.53-.9,2.57,2.57,0,0,0-.84-.6,2.65,2.65,0,0,0-1.11-.23,2.62,2.62,0,0,0-1.94.83,2.89,2.89,0,0,0-.53.9,3.4,3.4,0,0,0-.19,1.11,3.34,3.34,0,0,0,.19,1.1,2.89,2.89,0,0,0,.53.9,2.57,2.57,0,0,0,.84.6,2.73,2.73,0,0,0,1.1.22,2.82,2.82,0,0,0,1.11-.22,2.57,2.57,0,0,0,.84-.6,2.71,2.71,0,0,0,.53-.9A3.1,3.1,0,0,0,64.09,30.78Z"/><path class="cls-6" d="M67.34,28.08c0-.3,0-.57,0-.81h1c0,.19,0,.4,0,.63s0,.42,0,.57h0a2.47,2.47,0,0,1,2.25-1.38H71l.32.06-.14,1-.3-.06a3,3,0,0,0-.42,0,2.08,2.08,0,0,0-.78.15,1.64,1.64,0,0,0-.65.47,2.65,2.65,0,0,0-.45.82,3.88,3.88,0,0,0-.17,1.21v3.59h-1V28.81C67.36,28.62,67.35,28.38,67.34,28.08Z"/><path class="cls-6" d="M78.26,33.1a2.88,2.88,0,0,1-1.17,1,3.38,3.38,0,0,1-1.48.35,3.74,3.74,0,0,1-1.49-.29A3.3,3.3,0,0,1,73,33.4a3.53,3.53,0,0,1-.74-1.17A4.06,4.06,0,0,1,72,30.78a4.11,4.11,0,0,1,.26-1.46A3.53,3.53,0,0,1,73,28.15a3.3,3.3,0,0,1,1.14-.78,3.73,3.73,0,0,1,1.49-.28,3.25,3.25,0,0,1,1.48.35,2.86,2.86,0,0,1,1.17,1h0V23h1V34.29h-1V33.1Zm-5.2-2.32a3.34,3.34,0,0,0,.18,1.1,2.69,2.69,0,0,0,.52.9,2.43,2.43,0,0,0,.83.6,2.83,2.83,0,0,0,1.12.22,2.7,2.7,0,0,0,1.94-.81,2.59,2.59,0,0,0,.56-.9,2.88,2.88,0,0,0,.2-1.11,2.93,2.93,0,0,0-.2-1.12,2.59,2.59,0,0,0-.56-.9,2.47,2.47,0,0,0-.86-.6,2.58,2.58,0,0,0-1.08-.22,2.67,2.67,0,0,0-1.12.23,2.43,2.43,0,0,0-.83.6,2.69,2.69,0,0,0-.52.9A3.4,3.4,0,0,0,73.06,30.78Z"/><line class="cls-5" x1="265.15" y1="63.77" x2="366.05" y2="63.77"/><polygon class="cls-6" points="361.62 66.16 361.36 65.45 365.98 63.77 361.36 62.09 361.62 61.39 368.17 63.77 361.62 66.16"/><path class="cls-6" d="M272.93,37.49h-1.18l4.58-10.62h1.05l4.56,10.62h-1.19l-1.17-2.79h-5.5Zm1.56-3.78h4.68l-2.34-5.64Z"/><path class="cls-6" d="M288.5,32.08a1.93,1.93,0,0,0-.74-.67,2.16,2.16,0,0,0-1.06-.26,2.82,2.82,0,0,0-1.11.21,2.73,2.73,0,0,0-.85.6,2.92,2.92,0,0,0-.54.9A3.42,3.42,0,0,0,284,34a3.31,3.31,0,0,0,.19,1.11,2.73,2.73,0,0,0,.53.89,2.35,2.35,0,0,0,.85.6,2.57,2.57,0,0,0,1.1.22,2.2,2.2,0,0,0,1.91-.91l.76.57a3.27,3.27,0,0,1-1.1.88,3.44,3.44,0,0,1-1.57.33,4,4,0,0,1-1.54-.28,3.34,3.34,0,0,1-1.93-1.94,4,4,0,0,1,0-2.94,3.34,3.34,0,0,1,1.93-1.94,4,4,0,0,1,1.54-.28,3.63,3.63,0,0,1,1.44.31,2.72,2.72,0,0,1,1.17.91Z"/><path class="cls-6" d="M296,32.08a1.93,1.93,0,0,0-.74-.67,2.16,2.16,0,0,0-1.06-.26,2.82,2.82,0,0,0-1.11.21,2.73,2.73,0,0,0-.85.6,2.92,2.92,0,0,0-.54.9,3.42,3.42,0,0,0-.19,1.12,3.31,3.31,0,0,0,.19,1.11,2.73,2.73,0,0,0,.53.89,2.35,2.35,0,0,0,.85.6,2.57,2.57,0,0,0,1.1.22,2.2,2.2,0,0,0,1.91-.91l.76.57a3.27,3.27,0,0,1-1.1.88,3.44,3.44,0,0,1-1.57.33,4,4,0,0,1-1.54-.28,3.34,3.34,0,0,1-1.93-1.94,4,4,0,0,1,0-2.94,3.34,3.34,0,0,1,1.93-1.94,4,4,0,0,1,1.54-.28,3.63,3.63,0,0,1,1.44.31,2.72,2.72,0,0,1,1.17.91Z"/><path class="cls-6" d="M303.54,37.49c0-.19,0-.4,0-.63s0-.42,0-.57h0a2.41,2.41,0,0,1-1,1,2.92,2.92,0,0,1-1.43.38,2.47,2.47,0,0,1-2-.79,3.19,3.19,0,0,1-.67-2.1V30.47h1v3.89a4.4,4.4,0,0,0,.1,1,2,2,0,0,0,.3.77,1.46,1.46,0,0,0,.59.51,2.07,2.07,0,0,0,.92.18,2,2,0,0,0,.79-.17,2,2,0,0,0,.68-.5,2.54,2.54,0,0,0,.48-.86,3.69,3.69,0,0,0,.18-1.22v-3.6h1V36c0,.19,0,.43,0,.73s0,.57,0,.81Z"/><path class="cls-6" d="M309.09,30.67a2.6,2.6,0,0,1,1.38-.38,3.21,3.21,0,0,1,.6.06,2.12,2.12,0,0,1,.6.23,2.54,2.54,0,0,1,.54.46,2.71,2.71,0,0,1,.42.74,2.68,2.68,0,0,1,1-1.11,2.77,2.77,0,0,1,1.47-.38,2.49,2.49,0,0,1,2,.8,3.18,3.18,0,0,1,.66,2.1v4.3h-1V33.61a3.37,3.37,0,0,0-.41-1.79,1.5,1.5,0,0,0-1.4-.67,1.84,1.84,0,0,0-.94.22,1.81,1.81,0,0,0-.61.59,2.6,2.6,0,0,0-.34.84,4.35,4.35,0,0,0-.11,1v3.73h-1V33.4a5.33,5.33,0,0,0-.07-.93,2.11,2.11,0,0,0-.26-.72,1.34,1.34,0,0,0-.52-.45,2,2,0,0,0-.84-.15,1.79,1.79,0,0,0-.73.16,2.06,2.06,0,0,0-.66.5,2.71,2.71,0,0,0-.47.86,3.69,3.69,0,0,0-.18,1.22v3.6h-1V32c0-.19,0-.44,0-.74s0-.57,0-.81h1c0,.19,0,.4.05.63s0,.42,0,.57h0A2.41,2.41,0,0,1,309.09,30.67Z"/><path class="cls-6" d="M325.5,37.49c0-.19,0-.4,0-.63s0-.42,0-.57h0a2.33,2.33,0,0,1-1,1,2.92,2.92,0,0,1-1.43.38,2.47,2.47,0,0,1-2-.79,3.19,3.19,0,0,1-.67-2.1V30.47h1v3.89a4.4,4.4,0,0,0,.1,1,2,2,0,0,0,.3.77,1.46,1.46,0,0,0,.59.51,2.07,2.07,0,0,0,.92.18,2,2,0,0,0,.79-.17,2,2,0,0,0,.68-.5,2.54,2.54,0,0,0,.48-.86,3.69,3.69,0,0,0,.18-1.22v-3.6h1V36c0,.19,0,.43,0,.73s0,.57.05.81Z"/><path class="cls-6" d="M330.17,37.49h-1V26.15h1Z"/><path class="cls-6" d="M337.33,33a1.78,1.78,0,0,0-.49-1.36,2,2,0,0,0-1.39-.44,3,3,0,0,0-1.17.22,2.67,2.67,0,0,0-.91.6l-.58-.67a3.43,3.43,0,0,1,1.15-.72,4.35,4.35,0,0,1,1.61-.29,3.38,3.38,0,0,1,1.07.16,2.44,2.44,0,0,1,.87.47,2.29,2.29,0,0,1,.59.8,2.94,2.94,0,0,1,.21,1.12v3.08c0,.27,0,.55,0,.84a4.29,4.29,0,0,0,.1.73h-.92c0-.17-.06-.35-.08-.55s0-.4,0-.59h0a2.93,2.93,0,0,1-1.08,1,3.19,3.19,0,0,1-1.47.31,3.58,3.58,0,0,1-.83-.11,2.54,2.54,0,0,1-.78-.37,2.06,2.06,0,0,1-.58-.66,1.92,1.92,0,0,1-.24-1,1.85,1.85,0,0,1,.42-1.28,2.45,2.45,0,0,1,1.1-.71,6.08,6.08,0,0,1,1.58-.3c.6-.05,1.21-.07,1.86-.07ZM337,34c-.42,0-.84,0-1.26.05a6.32,6.32,0,0,0-1.16.21,2.31,2.31,0,0,0-.85.46,1.07,1.07,0,0,0-.33.8,1.22,1.22,0,0,0,.15.63,1.15,1.15,0,0,0,.38.41,1.65,1.65,0,0,0,.53.22,2.4,2.4,0,0,0,.6.07,2.32,2.32,0,0,0,1-.19,2,2,0,0,0,.7-.51,2,2,0,0,0,.43-.74,2.59,2.59,0,0,0,.16-.88V34Z"/><path class="cls-6" d="M343.92,31.33h-2v4.09a2.35,2.35,0,0,0,.08.65.82.82,0,0,0,.22.39.7.7,0,0,0,.33.2,1.75,1.75,0,0,0,.87,0,2.32,2.32,0,0,0,.44-.16l0,.88a3.3,3.3,0,0,1-.56.16,4.16,4.16,0,0,1-.64,0,2.58,2.58,0,0,1-.6-.07,1.53,1.53,0,0,1-1-.86,2.1,2.1,0,0,1-.18-.94V31.33h-1.45v-.86h1.45v-2h1v2h2Z"/><path class="cls-6" d="M352.49,34a3.74,3.74,0,0,1-.28,1.47,3.42,3.42,0,0,1-2,1.94,4.18,4.18,0,0,1-3,0,3.44,3.44,0,0,1-1.19-.77,3.61,3.61,0,0,1-.77-1.17,4,4,0,0,1,0-2.94,3.61,3.61,0,0,1,.77-1.17,3.44,3.44,0,0,1,1.19-.77,4.18,4.18,0,0,1,3,0,3.42,3.42,0,0,1,2,1.94A3.74,3.74,0,0,1,352.49,34Zm-1.08,0a3.07,3.07,0,0,0-.19-1.1,2.52,2.52,0,0,0-.53-.9,2.46,2.46,0,0,0-.84-.61,2.65,2.65,0,0,0-1.11-.22,2.57,2.57,0,0,0-1.1.22,2.46,2.46,0,0,0-.84.61,2.68,2.68,0,0,0-.53.9,3.28,3.28,0,0,0,0,2.2,2.68,2.68,0,0,0,.53.9,2.31,2.31,0,0,0,.84.6,2.57,2.57,0,0,0,1.1.22,2.65,2.65,0,0,0,1.11-.22,2.31,2.31,0,0,0,.84-.6,2.52,2.52,0,0,0,.53-.9A3.07,3.07,0,0,0,351.41,34Z"/><path class="cls-6" d="M354.66,31.28c0-.3,0-.57,0-.81h1c0,.19,0,.4.05.63s0,.42,0,.57h0a2.47,2.47,0,0,1,.9-1,2.5,2.5,0,0,1,1.35-.38l.36,0,.32.06-.14,1-.3-.06-.42,0a2.08,2.08,0,0,0-.78.15,1.75,1.75,0,0,0-.65.47,2.78,2.78,0,0,0-.45.82,3.92,3.92,0,0,0-.17,1.21v3.59h-1V32C354.68,31.83,354.67,31.58,354.66,31.28Z"/><path class="cls-6" d="M295.16,55.49h-1.08V44.87h3.12a6.65,6.65,0,0,1,1.45.15,3.15,3.15,0,0,1,1.15.49,2.24,2.24,0,0,1,.76.88,2.93,2.93,0,0,1,.27,1.32,2.61,2.61,0,0,1-.21,1.06,2.56,2.56,0,0,1-.57.83,2.65,2.65,0,0,1-.85.57,3.8,3.8,0,0,1-1.08.27l3.1,5.05H299.9l-2.94-5h-1.8Zm0-5.89H297a3.5,3.5,0,0,0,2-.48,1.58,1.58,0,0,0,.71-1.41,1.86,1.86,0,0,0-.2-.89,1.5,1.5,0,0,0-.54-.58,2.38,2.38,0,0,0-.84-.33,5.22,5.22,0,0,0-1.09-.11h-1.92Z"/><path class="cls-6" d="M309.21,51.77V52a2.18,2.18,0,0,1,0,.25h-5.82a2.74,2.74,0,0,0,.21,1,2.5,2.5,0,0,0,.54.81,2.7,2.7,0,0,0,.81.55,2.55,2.55,0,0,0,1,.2,2.5,2.5,0,0,0,1.38-.37,2.7,2.7,0,0,0,.87-.84l.77.6a3.77,3.77,0,0,1-1.39,1.14,3.87,3.87,0,0,1-1.63.34,3.59,3.59,0,0,1-1.44-.28,3.28,3.28,0,0,1-1.15-.77,3.75,3.75,0,0,1-.76-1.17,4.07,4.07,0,0,1,0-2.94,3.56,3.56,0,0,1,.75-1.17,3.51,3.51,0,0,1,2.52-1.05,3.52,3.52,0,0,1,1.46.28,2.88,2.88,0,0,1,1.05.75,3.25,3.25,0,0,1,.64,1.1A4.24,4.24,0,0,1,309.21,51.77Zm-1-.33a2.49,2.49,0,0,0-.64-1.64,2.14,2.14,0,0,0-1.69-.65,2.42,2.42,0,0,0-.94.18,2.72,2.72,0,0,0-.77.51,2.54,2.54,0,0,0-.52.74,2.34,2.34,0,0,0-.23.86Z"/><path class="cls-6" d="M316.46,50.08a1.93,1.93,0,0,0-.74-.67,2.16,2.16,0,0,0-1.06-.26,2.82,2.82,0,0,0-1.11.21,2.73,2.73,0,0,0-.85.6,2.92,2.92,0,0,0-.54.9A3.42,3.42,0,0,0,312,52a3.31,3.31,0,0,0,.19,1.11,2.73,2.73,0,0,0,.53.89,2.35,2.35,0,0,0,.85.6,2.57,2.57,0,0,0,1.1.22,2.2,2.2,0,0,0,1.91-.91l.76.57a3.27,3.27,0,0,1-1.1.88,3.44,3.44,0,0,1-1.57.33,4,4,0,0,1-1.54-.28,3.4,3.4,0,0,1-1.18-.77,3.58,3.58,0,0,1-.76-1.17,4.14,4.14,0,0,1,0-2.94,3.58,3.58,0,0,1,.76-1.17,3.4,3.4,0,0,1,1.18-.77,4,4,0,0,1,1.54-.28,3.63,3.63,0,0,1,1.44.31,2.72,2.72,0,0,1,1.17.91Z"/><path class="cls-6" d="M325.88,52a3.74,3.74,0,0,1-.28,1.47,3.42,3.42,0,0,1-2,1.94,4.18,4.18,0,0,1-3,0,3.44,3.44,0,0,1-1.19-.77,3.61,3.61,0,0,1-.77-1.17,4,4,0,0,1,0-2.94,3.61,3.61,0,0,1,.77-1.17,3.44,3.44,0,0,1,1.19-.77,4.18,4.18,0,0,1,3,0,3.42,3.42,0,0,1,2,1.94A3.74,3.74,0,0,1,325.88,52Zm-1.08,0a3.07,3.07,0,0,0-.19-1.1,2.52,2.52,0,0,0-.53-.9,2.46,2.46,0,0,0-.84-.61,2.65,2.65,0,0,0-1.11-.22,2.57,2.57,0,0,0-1.1.22,2.46,2.46,0,0,0-.84.61,2.68,2.68,0,0,0-.53.9,3.28,3.28,0,0,0,0,2.2,2.68,2.68,0,0,0,.53.9,2.31,2.31,0,0,0,.84.6,2.57,2.57,0,0,0,1.1.22,2.65,2.65,0,0,0,1.11-.22,2.31,2.31,0,0,0,.84-.6,2.52,2.52,0,0,0,.53-.9A3.07,3.07,0,0,0,324.8,52Z"/><path class="cls-6" d="M328.05,49.28c0-.3,0-.57,0-.81h1c0,.19,0,.4,0,.63s0,.42,0,.57h0a2.38,2.38,0,0,1,.89-1,2.51,2.51,0,0,1,1.36-.38l.35,0,.32.06-.14,1-.3-.06a3,3,0,0,0-.42,0,2.08,2.08,0,0,0-.78.15,1.75,1.75,0,0,0-.65.47,2.78,2.78,0,0,0-.45.82,3.92,3.92,0,0,0-.17,1.21v3.59h-1V50C328.07,49.83,328.06,49.58,328.05,49.28Z"/><path class="cls-6" d="M339,54.31a2.88,2.88,0,0,1-1.17,1,3.37,3.37,0,0,1-1.48.34,3.73,3.73,0,0,1-1.49-.28,3.3,3.3,0,0,1-1.14-.78,3.53,3.53,0,0,1-.74-1.17,4.11,4.11,0,0,1-.26-1.46,4.06,4.06,0,0,1,.26-1.45,3.53,3.53,0,0,1,.74-1.17,3.3,3.3,0,0,1,1.14-.78,3.74,3.74,0,0,1,1.49-.29,3.38,3.38,0,0,1,1.48.35,3,3,0,0,1,1.17,1h0V44.15h1V55.49h-1V54.31ZM333.77,52a3.3,3.3,0,0,0,.18,1.1,2.5,2.5,0,0,0,.52.9,2.19,2.19,0,0,0,.83.6,2.67,2.67,0,0,0,1.12.22,2.7,2.7,0,0,0,1.94-.81,2.64,2.64,0,0,0,.56-.89,3.24,3.24,0,0,0,0-2.24,2.62,2.62,0,0,0-1.42-1.5,2.74,2.74,0,0,0-1.08-.21,2.67,2.67,0,0,0-1.12.22,2.33,2.33,0,0,0-.83.61,2.5,2.5,0,0,0-.52.9A3.3,3.3,0,0,0,333.77,52Z"/><line class="cls-7" x1="293.97" y1="64.46" x2="293.97" y2="142.73"/><line class="cls-7" x1="293.97" y1="142.73" x2="84.14" y2="142.73"/><line class="cls-7" x1="84.14" y1="142.73" x2="84.14" y2="88.02"/><line class="cls-5" x1="7.11" y1="88.16" x2="108.01" y2="88.16"/><polygon class="cls-6" points="103.57 90.55 103.32 89.84 107.93 88.16 103.32 86.48 103.57 85.78 110.13 88.16 103.57 90.55"/><path class="cls-6" d="M19.87,79.66H18.79V69h1.08Z"/><path class="cls-6" d="M23.55,72.64c0,.19,0,.4,0,.63s0,.42,0,.57h0a2.33,2.33,0,0,1,1-1A2.92,2.92,0,0,1,26,72.46a2.47,2.47,0,0,1,2,.79,3.19,3.19,0,0,1,.67,2.1v4.31h-1V75.77a5.09,5.09,0,0,0-.09-1,2.15,2.15,0,0,0-.31-.77,1.46,1.46,0,0,0-.59-.51,2.07,2.07,0,0,0-.92-.18,2,2,0,0,0-.79.17,2,2,0,0,0-.68.5,2.54,2.54,0,0,0-.48.86,3.69,3.69,0,0,0-.18,1.22v3.6h-1V74.18c0-.19,0-.43,0-.73s0-.57-.05-.81Z"/><path class="cls-6" d="M32.59,69.94a.67.67,0,0,1-.22.52.76.76,0,0,1-.5.2.73.73,0,0,1-.49-.2.7.7,0,0,1,0-1,.73.73,0,0,1,.49-.2.76.76,0,0,1,.5.2A.67.67,0,0,1,32.59,69.94Zm-.21,9.72h-1v-7h1Z"/><path class="cls-6" d="M38.26,73.49h-2v4.1a2.27,2.27,0,0,0,.08.64.94.94,0,0,0,.21.4.79.79,0,0,0,.34.2,1.86,1.86,0,0,0,.42,0,1.72,1.72,0,0,0,.44-.06,2.2,2.2,0,0,0,.45-.17l0,.89a3.58,3.58,0,0,1-.56.16,4.26,4.26,0,0,1-.64,0,2.61,2.61,0,0,1-.6-.08,1.49,1.49,0,0,1-.58-.28,1.63,1.63,0,0,1-.45-.57,2.31,2.31,0,0,1-.17-.95V73.49H33.81v-.85h1.45v-2h1v2h2Z"/><path class="cls-6" d="M41.1,69.94a.68.68,0,0,1-.23.52.73.73,0,0,1-.49.2.76.76,0,0,1-.5-.2.72.72,0,0,1,0-1,.76.76,0,0,1,.5-.2.73.73,0,0,1,.49.2A.68.68,0,0,1,41.1,69.94Zm-.21,9.72h-1v-7h1Z"/><path class="cls-6" d="M48,75.11a1.76,1.76,0,0,0-.48-1.35,2,2,0,0,0-1.4-.45,3,3,0,0,0-1.17.23,2.67,2.67,0,0,0-.91.6l-.57-.68a3.38,3.38,0,0,1,1.14-.72,4.37,4.37,0,0,1,1.62-.28,3.32,3.32,0,0,1,1.06.16,2.44,2.44,0,0,1,.87.47,2.13,2.13,0,0,1,.59.79A2.81,2.81,0,0,1,49,75v3.07q0,.4,0,.84a4.53,4.53,0,0,0,.09.74h-.92c0-.17,0-.36-.07-.56a5.78,5.78,0,0,1,0-.58h0a3,3,0,0,1-1.09,1,3.15,3.15,0,0,1-1.46.31,3.59,3.59,0,0,1-.84-.11,2.54,2.54,0,0,1-.78-.37,2,2,0,0,1-.58-.67,1.91,1.91,0,0,1-.23-1,1.89,1.89,0,0,1,.41-1.29,2.43,2.43,0,0,1,1.1-.7,6.08,6.08,0,0,1,1.58-.3c.6,0,1.22-.07,1.86-.07Zm-.3,1c-.42,0-.85,0-1.27,0a6.32,6.32,0,0,0-1.16.21,2.26,2.26,0,0,0-.84.46,1,1,0,0,0-.33.79,1.22,1.22,0,0,0,.14.63,1.18,1.18,0,0,0,.38.42,1.65,1.65,0,0,0,.53.22,2.46,2.46,0,0,0,.6.07,2.25,2.25,0,0,0,1-.19,1.89,1.89,0,0,0,.7-.51,2.2,2.2,0,0,0,.44-.74,2.64,2.64,0,0,0,.15-.89v-.52Z"/><path class="cls-6" d="M52.66,79.66h-1V68.32h1Z"/><path class="cls-6" d="M62.19,78.26h0L65.67,69h1.15L62.76,79.66H61.62L57.57,69h1.17Z"/><path class="cls-6" d="M72,75.11a1.76,1.76,0,0,0-.48-1.35,2,2,0,0,0-1.39-.45,3,3,0,0,0-1.17.23,2.82,2.82,0,0,0-.92.6l-.57-.68a3.33,3.33,0,0,1,1.15-.72,4.28,4.28,0,0,1,1.61-.28,3.38,3.38,0,0,1,1.07.16,2.44,2.44,0,0,1,.87.47,2.11,2.11,0,0,1,.58.79A2.81,2.81,0,0,1,73,75v3.07q0,.4,0,.84a6,6,0,0,0,.09.74h-.91c0-.17-.06-.36-.08-.56a5.78,5.78,0,0,1,0-.58h0a2.88,2.88,0,0,1-1.09,1,3.12,3.12,0,0,1-1.46.31,3.44,3.44,0,0,1-.83-.11,2.34,2.34,0,0,1-.78-.37,2,2,0,0,1-.82-1.66,1.94,1.94,0,0,1,.41-1.29,2.52,2.52,0,0,1,1.11-.7,6,6,0,0,1,1.58-.3c.59,0,1.21-.07,1.85-.07Zm-.3,1c-.42,0-.84,0-1.27,0a6.21,6.21,0,0,0-1.15.21,2.23,2.23,0,0,0-.85.46,1,1,0,0,0-.33.79,1.33,1.33,0,0,0,.14.63,1.31,1.31,0,0,0,.39.42,1.56,1.56,0,0,0,.53.22,2.32,2.32,0,0,0,.59.07,2.25,2.25,0,0,0,1-.19,1.93,1.93,0,0,0,.71-.51,2.18,2.18,0,0,0,.43-.74,2.64,2.64,0,0,0,.15-.89v-.52Z"/><path class="cls-6" d="M76.65,79.66h-1V68.32h1Z"/><path class="cls-6" d="M84.48,79.66c0-.19,0-.4,0-.63s0-.42,0-.57h0a2.35,2.35,0,0,1-1,1,2.88,2.88,0,0,1-1.42.38,2.49,2.49,0,0,1-2-.8,3.18,3.18,0,0,1-.66-2.1v-4.3h1v3.88a5.2,5.2,0,0,0,.09,1,2.14,2.14,0,0,0,.3.77,1.44,1.44,0,0,0,.59.5,2.07,2.07,0,0,0,.92.18,2,2,0,0,0,.79-.16,2,2,0,0,0,.68-.5,2.54,2.54,0,0,0,.48-.86,3.69,3.69,0,0,0,.18-1.22v-3.6h1v5.47c0,.19,0,.44,0,.74s0,.57,0,.81Z"/><path class="cls-6" d="M94.48,75.94v.22a2.35,2.35,0,0,1,0,.26H88.65a2.74,2.74,0,0,0,.21,1,2.5,2.5,0,0,0,.54.81,2.7,2.7,0,0,0,.81.55,2.55,2.55,0,0,0,1,.2,2.44,2.44,0,0,0,1.37-.37,2.66,2.66,0,0,0,.88-.85l.77.6a3.85,3.85,0,0,1-1.39,1.14,3.91,3.91,0,0,1-1.63.35,3.67,3.67,0,0,1-1.45-.28,3.33,3.33,0,0,1-1.14-.77,3.58,3.58,0,0,1-.76-1.17,3.74,3.74,0,0,1-.28-1.47,3.92,3.92,0,0,1,.27-1.47,3.56,3.56,0,0,1,.75-1.17,3.51,3.51,0,0,1,2.52-1.05,3.52,3.52,0,0,1,1.46.28,2.88,2.88,0,0,1,1,.75,3.07,3.07,0,0,1,.63,1.1A4,4,0,0,1,94.48,75.94Zm-1-.33A2.54,2.54,0,0,0,92.81,74a2.16,2.16,0,0,0-1.69-.66,2.43,2.43,0,0,0-.94.19,2.72,2.72,0,0,0-.77.51,2.54,2.54,0,0,0-.52.74,2.34,2.34,0,0,0-.23.86Z"/></svg>