<?xml version="1.0" encoding="UTF-8"?><svg id="Layer_1" xmlns="http://www.w3.org/2000/svg" viewBox="0 0 379.75 120.5"><defs><style>.cls-1{stroke:#662d91;}.cls-1,.cls-2,.cls-3{fill:none;}.cls-1,.cls-3{stroke-linecap:round;stroke-linejoin:round;}.cls-4{letter-spacing:-.03em;}.cls-5,.cls-6{fill:#231f20;}.cls-7{letter-spacing:-.02em;}.cls-8{letter-spacing:-.01em;}.cls-9{letter-spacing:-.01em;}.cls-2{stroke:#231f20;stroke-miterlimit:10;stroke-width:.75px;}.cls-10{letter-spacing:0em;}.cls-11{fill:#414042;font-size:14px;}.cls-11,.cls-6,.cls-12{font-family:AvenirNext-Regular, 'Avenir Next';}.cls-6,.cls-12{font-size:15px;}.cls-12{fill:#662d91;}.cls-3{stroke:#414042;stroke-dasharray:0 0 4 4;}</style></defs><g><line class="cls-2" x1="265.06" y1="35.6" x2="365.96" y2="35.6"/><polygon class="cls-5" points="361.53 37.98 361.27 37.28 365.89 35.6 361.27 33.92 361.53 33.21 368.08 35.6 361.53 37.98"/></g><rect class="cls-1" x="115.46" y="18.53" width="144.62" height="89.37" rx="4.54" ry="4.54"/><text class="cls-12" transform="translate(155.4 42.73)"><tspan x="0" y="0">Ar</tspan><tspan class="cls-8" x="15.9" y="0">r</tspan><tspan class="cls-10" x="21.12" y="0">ayMap</tspan></text><g><rect class="cls-3" x="138.58" y="59.76" width="98.11" height="28.36" rx="4.01" ry="4.01"/><text class="cls-11" transform="translate(146.29 78.35)"><tspan x="0" y="0">custom code</tspan></text></g><text class="cls-6" transform="translate(275.02 29.6)"><tspan x="0" y="0">New </tspan><tspan class="cls-9" x="34.98" y="0">R</tspan><tspan x="43.78" y="0">eco</tspan><tspan class="cls-7" x="69.03" y="0">r</tspan><tspan x="74.16" y="0">d</tspan></text><g><line class="cls-2" x1="7.97" y1="65.07" x2="108.87" y2="65.07"/><polygon class="cls-5" points="104.44 67.45 104.18 66.75 108.8 65.07 104.18 63.39 104.44 62.68 110.99 65.07 104.44 67.45"/></g><text class="cls-6" transform="translate(31.48 58.59)"><tspan class="cls-9" x="0" y="0">R</tspan><tspan x="8.8" y="0">eco</tspan><tspan class="cls-7" x="34.05" y="0">r</tspan><tspan x="39.18" y="0">d</tspan></text><g><line class="cls-2" x1="264.16" y1="67.05" x2="365.06" y2="67.05"/><polygon class="cls-5" points="360.63 69.44 360.37 68.73 364.99 67.05 360.37 65.37 360.63 64.67 367.18 67.05 360.63 69.44"/></g><text class="cls-6" transform="translate(274.12 61.06)"><tspan x="0" y="0">New </tspan><tspan class="cls-9" x="34.98" y="0">R</tspan><tspan x="43.78" y="0">eco</tspan><tspan class="cls-7" x="69.03" y="0">r</tspan><tspan x="74.16" y="0">d</tspan></text><g><line class="cls-2" x1="264.58" y1="99.26" x2="365.48" y2="99.26"/><polygon class="cls-5" points="361.05 101.65 360.79 100.94 365.41 99.26 360.79 97.58 361.05 96.88 367.6 99.26 361.05 101.65"/></g><text class="cls-6" transform="translate(301.73 90.95)"><tspan x="0" y="0">...</tspan><tspan class="cls-4" x="11.7" y="0">.</tspan></text></svg>